<?xml version="1.0" encoding="utf-8"?>
<!-- Generator: Adobe Illustrator 22.1.0, SVG Export Plug-In . SVG Version: 6.00 Build 0)  -->
<svg version="1.1" id="Calque_1" xmlns="http://www.w3.org/2000/svg" xmlns:xlink="http://www.w3.org/1999/xlink" x="0px" y="0px"
	 viewBox="0 0 288 560" style="enable-background:new 0 0 288 560;" xml:space="preserve">
<style type="text/css">
	.st0{fill:#FDFFFD;stroke:#FFFFFF;stroke-miterlimit:10;}
	.st1{fill:none;stroke:#FDFFFD;stroke-miterlimit:10;}
	.st2{fill:#975372;stroke:#FFFFFF;stroke-miterlimit:10;}
	.st3{fill:#5C5154;stroke:#FFFFFF;stroke-miterlimit:10;}
	.st4{fill:#864F2B;stroke:#FFFFFF;stroke-miterlimit:10;}
	.st5{fill:#505A93;stroke:#FFFFFF;stroke-miterlimit:10;}
	.st6{fill:none;stroke:#F8ECD6;stroke-miterlimit:10;}
	.st7{fill:none;stroke:#FFFFFF;stroke-miterlimit:10;}
	.st8{fill:#CC1212;stroke:#FFFFFF;stroke-miterlimit:10;}
</style>
<path class="st0" d="M91.3,334.3"/>
<path class="st1" d="M77,199.3c0.3,2.8,0.6,6.9,0.3,11.8c-0.2,3-0.9,8.6-4,17.5c-0.5,1.6-2.2,6.1-7.8,17.5
	c-7.3,14.9-9.5,17.1-10.3,23.7c-0.4,3.7-1.4,11.6,3.5,15.8c3.5,3,8,2.5,8.5,2.5c2.2-0.2,3.3-1,12-8.5c0.7-0.6,4.1-4,10.8-10.8
	c1.5-1.5,2.8-2.9,2.8-4.8c-0.1-2.5-2.8-4.8-5.5-5.3c-4.5-0.7-7.9,4.2-8.5,5c-1.9,2.7-2.2,5.6-2.3,7"/>
<path class="st1" d="M285.8,408"/>
<rect y="59.8" class="st2" width="270.8" height="370.5"/>
<path class="st0" d="M76.5,159.8c46.9,4.8,93.8,9.7,140.8,14.5"/>
<path class="st0" d="M76.5,159.8c46.9-4.2,93.8-8.3,140.8-12.5"/>
<path class="st0" d="M73.3,174c48.3,4,96.6,8,144.9,12"/>
<path class="st0" d="M72.5,184c48.5,0.7,97.1,1.3,145.6,2"/>
<path class="st3" d="M128.5,215.3c-0.1-0.7-4.7,0.1-12.5-1.5c-5-1.1-4.9-1.8-9.3-2.8c-3.5-0.8-10.9-2.5-18.3,0.5
	c-4.5,1.8-7.2,4.8-9.4,7.1c-0.8,0.9-3.3,3.5-2.8,4.1c0.4,0.6,2.7-0.6,5-1.5c5-1.9,9-2.2,14.3-2.5c6.6-0.4,7.1,0.9,13.5,1
	C119.6,219.9,128.6,216.3,128.5,215.3z"/>
<path class="st4" d="M190.8,199.8c0,0-16.8,21.7-28.3,37c-24.2,32.2-21.2,31-39.1,54.2c-5.4,7-34.4,42.4-34.3,42.3l0,0
	c-0.2,0.6-0.6,1.4-1,2.5c-2.3,6.1-4.4,11.6-3.3,16.8c1.2,5.4,5.5,8.7,6.5,9.5c9.8,7.5,24.2,2.1,28,0.5c6.6-2.8,10.6-6.8,14.8-11
	c20.8-21.3,31.5-32.4,40-51.3c2.5-5.5,1.9-5.3,9.5-24c4.8-11.8,5.7-13.5,9.3-22.5c8.8-22.4,6.6-20,9.3-24.3
	c5.6-8.9,10.4-18.2,15.8-27.3c0.3-0.5,0.9-1.6,0.5-2.5c-0.3-0.7-1.4-1.5-7.3-1.5c-2.8,0-4.5,0.2-7.3,0.5
	C197.2,199.4,190.8,199.8,190.8,199.8z"/>
<path class="st5" d="M132.4,255.5c-0.3-0.1-0.6,1.7-1.6,4.1c0,0-2.1,5-7.1,9.9c-7.8,7.6-19.7,9-23.8,9.5c-7.6,0.9-10-0.4-17.5,1.8
	c-3.8,1.1-9.6,2.8-10.5,6.8c-0.5,2.1,0.6,4.4,1.8,5.8c6.3,7.3,26.8,0.2,38-6c0,0,10.4-5.8,16.5-14.8c1.6-2.3,2.4-4.2,3-5.8
	C133.2,261.2,133,255.6,132.4,255.5z"/>
<path class="st1" d="M218.6,204.5C218.6,204.5,218.6,204.4,218.6,204.5c-1.5,0-2.9,123.3-2.9,123.3c0,0-1.5-0.1-3.8-0.3
	c-1.1,0.4-2.9,1.2-5,2c-9.4,3.7-16.4,6.1-18.1,6.7c-8.1,2.9-11.4,5-29.8,13c-20.5,8.9-30.7,13.3-42.8,17.8c-4.9,1.8-9.2,3.6-15.5,6
	c-16.8,6.3-33.3,13.3-50.2,19.3c-2.5,0.9-6.4,2.3-10.8,5.5c-2.3,1.7-8.8,6.7-12,16c-2.2,6.5-1.8,12.2-1.3,15.4
	c0.9,0.2,2.2,0.6,3.8,0.8c2.8,0.4,4.9,0.3,5.8,0.3c4.5-0.2,9,0,13.5-0.3c8.7-0.6,24-0.2,43.5,0c11.4,0.1,27.6,0.2,47.8,0"/>
<path class="st1" d="M259.3,333.8c-1.8-2-14.1-4-15.5-4.3c0,0-4.6-0.8-19.9-6.2c0,0-0.1,0-3.8,0.5c-1,0.9-2.5,2.3-4.3,4
	c-17.9,17.2-28.6,31.1-35.3,39.5c0,0-1.9,2.1-35.8,36.3c-0.6,8.5-1.1,16.9-1.7,25.4c0,0.4-0.1,0.8-0.1,1.1c2.6,0.3,9.8-0.5,9.8-0.5
	c0,0,49.2,0.5,49.3,0.5c15-0.2,61,0,58,0c0.1-0.6,0.3-1.1,0.4-1.7c0.2-0.9,0.4-1.7,0.6-2.6c0.2-2.4,0.4-4.8,0.6-7.3
	c-0.2-2.2-0.4-4.3-0.6-6.5c0-9.9,0-19.8,0-29.8c0-27.8,0-41.7,0-41.7c0.1-0.3,0.4-1.7,0-3.3C261,337.3,260.7,335.4,259.3,333.8z"/>
<path class="st1" d="M270.8,406.3"/>
<path class="st1" d="M274,331.3"/>
<path class="st6" d="M217.8,133.5c-1.1-0.7-2.2-0.7-2.7-0.8c-3.6-0.2-5.4-0.4-7.5,0c-5.6,1-11.3,0.3-17,0.5
	c-7.6,0.3-9.3,0.1-19.3,0.3c-5.5,0.1-12.6,0.3-26.5,0.8c-52.5,1.7-61.1,2-63.5,1.5c-0.2,0-1.3-0.3-2.5,0c-2.1,0.5-3.3,2.1-4,3
	c-3.1,4.1-3,9.2-3,9.8c0.2,6.1,6,8.8,4.8,11.3c-0.8,1.5-2.7,0.6-4.8,2.5c-2.9,2.7-3.4,8.3-1.3,10.3c1.1,1,2.5,0.6,2.8,1.5
	c0.4,1.3-2.5,2.2-2.8,4.8c-0.3,2.4,2,5.3,2,5.3c0,0-0.7,2.7-1,4c-0.5,2.4-0.5,6.4,1.5,8.3c0.9,0.8,2.5,1.1,3.4,1.2
	c0.4,0,0.8,0,0.8,0c0.7,0,1.2-0.1,1.6-0.2c70.7,0.2,100.5,0.2,113.8,0.3c6.2,0,24.8,0.1,24.8,0.2c0,0,0,0-0.1,0
	c0.8-0.4,2.4-1.3,3.5-3.3c0.1-0.3,1.9-3.6,0.5-5.8c-1-1.5-2.9-1.3-3-2.3c-0.1-0.9,1.7-1.2,2.8-3c1-1.7,1-4.1,0-5.8
	c-1.3-2.2-3.8-2.3-3.8-3.5c0-0.9,1.6-1.2,3.3-2.3c3.5-2.4,4.2-6.9,4.5-8.8c0.2-1.5,1-6-1.5-9.8c-2.5-3.7-6.5-4.3-6.3-6.3
	c0.2-1.4,2.3-1.2,3.5-3.5c1.7-3.2-0.5-7.2-0.8-7.8C219.6,135.3,219,134.2,217.8,133.5z"/>
<path class="st7" d="M74.5,198.3c0,8.2,0,16.3,0,24.5c-0.5,0.8-1.2,1.9-2,3.3c-4.3,7.2-11,19.3-16.5,36.2c-4.5,13.7-4,17.8-2.3,21
	c0.3,0.6,3,5.1,7.5,5.8c3.3,0.4,5-1.5,14-8.8c9.3-7.5,12.3-9.3,13.8-14c0.4-1.4,1.5-5-0.3-7c-2.2-2.5-7.7-1.6-11,1
	c-3.4,2.6-4.7,7.4-3.8,12.3"/>
<path class="st7" d="M74,295c-0.5,0.6-3.1,3.9-2,6.3c0.8,1.7,3.1,2.1,4,2.3c10.7,1.9,46.9-22.1,47.8-21c0.2,0.3-1.6,2.7-6,6.3
	c-10.1,8.2-16.8,8.7-30,17c-7,4.4-9.9,7.3-11,11.3c-0.4,1.3-2,6.4,0.5,9c2.2,2.3,6.5,1.4,8.3,1c13-2.7,33.6-36.8,38.3-44.5"/>
<path class="st7" d="M100.9,372.9c2,3.4,4.1,6.8,6.3,10.3c5.9,9.1,12,17.2,18,24.3c-0.3,1.3-0.5,2.5-0.8,3.8
	c0.3,5.9,0.7,11.9,1,17.8"/>
<path class="st4" d="M146.7,254.8"/>
<path class="st1" d="M205.4,330c-11,5.9-22.8,10.1-34,15.7c0,0-0.9,0.5-29.3,13.6l0,0c0,0,1.1,3.8,1.7,5.2c1.8,4.3,6.9,7.4,11.5,8.1
	c4,0.6,7.2-0.6,9.4-1.6c10.8-4.7,16.5-12.3,31.5-28.2c6.7-7.1,12.5-12.8,11.8-13.7C207.8,328.8,206,329.7,205.4,330z"/>
<path class="st1" d="M140.5,360.2c-4.3,2.3-7.9,4-10.3,5c-8.2,3.6-25.6,10.2-26,10.2c0,0,0,0,0,0c-0.1,0.1,2.9,2.7,4,3.5
	c4.3,3.2,9.7,3.4,12.3,3.5c3.7,0.1,7.1,0.2,10.8-1.8c6.4-3.5,8.1-10.8,8.7-13.1C140.7,364.5,140.7,361.9,140.5,360.2z"/>
<path class="st7" d="M62.2,153.5H13.1c-3.8,0-7-3.1-7-7V73.8c0-3.8,3.1-7,7-7h49.1c3.8,0,7,3.1,7,7v72.7
	C69.2,150.4,66,153.5,62.2,153.5z"/>
<rect x="32.7" y="102.6" transform="matrix(0.7437 0.6686 -0.6686 0.7437 81.522 2.3886)" class="st8" width="9.9" height="9.9"/>
</svg>
