<?xml version="1.0" encoding="utf-8"?>
<!-- Generator: Adobe Illustrator 22.1.0, SVG Export Plug-In . SVG Version: 6.00 Build 0)  -->
<svg version="1.1" id="Calque_1" xmlns="http://www.w3.org/2000/svg" xmlns:xlink="http://www.w3.org/1999/xlink" x="0px" y="0px"
	 viewBox="0 0 595.3 537" style="enable-background:new 0 0 595.3 537;" xml:space="preserve">
<style type="text/css">
	.st0{fill:#CA555B;}
	.st1{fill:#8C1722;}
	.st2{fill:#DD1516;}
	.st3{fill:none;stroke:#8C1722;stroke-miterlimit:10;}
	.st4{fill:#DB2122;}
	.st5{fill:#CF1729;}
	.st6{fill:#B0203C;}
	.st7{fill:#DD2B34;}
	.st8{fill:#DD6375;}
	.st9{fill:#CF4048;}
	.st10{fill:#E06267;}
	.st11{fill:#DB2122;stroke:#8C1722;stroke-miterlimit:10;}
	.st12{fill:#B0203C;stroke:#8C1722;stroke-miterlimit:10;}
</style>
<g>
	<path class="st0" d="M66.3,360.3c-1.5,0.4-1.7,3.9-2,9.7c-0.3,5.3-0.4,7.9,0,12.3C66.9,408.5,72,422,72,422
		c18.5,49.3,76.8,66.9,79.5,67.7c1.3,0.4,2.3,0.6,3,0.8c36.6,9.7,81.1,6.8,84.5-6c1.2-4.6-5.5-4.9-13.5-19
		c-7.9-14.1-7.3-24.2-16-28.5c-4.1-2-8-1.6-10-1.5C162.7,437.7,95,392.3,83,379c-7.8-8.7-8.3-9.3-8.3-9.3
		C69.7,363.5,67.9,359.9,66.3,360.3z"/>
	<g>
		<path class="st1" d="M62.5,353.9c-5.1,2.9-5.3,9.1-5.6,14.3c-0.4,6.7-0.3,13.1,0.5,19.7c1.2,10.1,2.8,20.2,5.5,30
			c4.2,15.4,12.9,29.4,23.9,40.9c18.1,19.1,43.3,33.5,68.9,39.7c22.1,5.3,46.9,7.7,69.3,2.8c7.2-1.6,15.9-4.6,19.8-11.4
			c4.3-7.6-0.3-13-5.5-18.2c-8.2-8.3-11.1-19.2-15.8-29.6c-1.9-4.2-4.5-7.9-8.4-10.4c-5.4-3.6-11.3-3.7-17.5-3.6
			c-16.8,0.3-34-7.4-48.8-14.6c-17.6-8.6-35.6-19.4-50.7-31.1c-5.8-4.5-10.6-9.5-15.5-15c-4.4-5-8.8-15.1-16.3-14.6
			c-9.6,0.7-9.6,15.7,0,15c-6.7,0.5-3.7-2.7-2.9-0.7c0.4,1,1.4,1.9,2.1,2.8c1.3,1.7,2.5,3.4,3.9,5c1,1.2,2,2.3,3,3.4
			c4,4.5,7.9,8.7,12.6,12.5c11.9,9.7,24.9,18.1,38.1,25.8c15.6,9,32.1,17.1,49.4,22.3c7.5,2.2,15.4,3.9,23.3,4.1
			c3.5,0.1,7.8-1,10.9,1c2.8,1.8,3.9,5.6,5,8.6c3.9,10.5,8.5,20.7,16.3,28.9c1,1.1,2.1,2.1,3.2,3.2c1.8,1.7,0.7,1.5,0.5-0.2
			c0-0.1,0.1-3.2-0.2-1.5c0.3-1.7,0.4-0.4,0-0.2c1.2-0.4,0,0-0.5,0.4c1.2-0.7-0.7,0.4-0.9,0.5c-6.2,3.3-14.3,4.3-21.6,4.8
			c-10.9,0.7-21.9,0.2-32.7-1.3c-24.9-3.5-46-12.1-65.8-27.5c-13.3-10.4-25.4-24.3-31-40.5c-2.3-6.6-3.7-13.6-4.9-20.5
			c-1.1-6.4-2.2-12.9-2.4-19.4c-0.1-2.8,0-5.6,0.2-8.3c0.1-1.5,0.3-3,0.3-4.4c0-3.2,0.7-1.2-1.9,0.3C78.5,362.1,71,349.1,62.5,353.9
			z"/>
	</g>
</g>
<g>
	<path class="st2" d="M196.5,376c-2.8,2.8,0,9.1,4.5,22.5c4.8,14.1,10.1,29.9,23,48.5c11.8,17,27.9,40.4,56.5,50.5
		c5.4,1.9,20.2,6.5,51,3c24.7-2.8,82.5-9.4,129-56.5c14.8-15,40.5-41,44-81.5c1.4-16.2-7.4-49.7-7.5-50.5c-2.8,0.9-7,2.3-12,4
		c-14.4,5-26.3,9.1-39,15.5c-19.2,9.7-23,11.2-25.5,15.5c-1.4,2.4-2.6,7.2-5,16.5c-2.8,10.9-4.1,17.4-4.5,19c-2,7.8-36.3,30.6-93,26
		c-21.6-1.8-56.1-4.6-92.5-23.5C216.2,380.2,201.2,371.4,196.5,376z"/>
	<g>
		<path class="st1" d="M191.2,370.7c-5.3,6-2.9,13.5-0.7,20.3c3.1,9.3,6.2,18.7,9.9,27.8c7.7,18.8,18.8,35.9,31.6,51.7
			c12.4,15.2,27.9,27.8,46.6,34.3c12.5,4.3,26.2,4.9,39.3,4.3c31.8-1.5,64-8.1,92.9-21.4c33.2-15.2,63.4-41.3,83-72.2
			c11.3-17.9,19.4-40.1,18.1-61.5c-0.9-15-4.8-29.3-7.8-44c-0.8-3.9-5.6-6.4-9.2-5.2c-14.9,4.8-29.8,9.9-44.1,16.2
			c-10.1,4.5-21.4,9.2-30.5,15.6c-7.3,5.2-9.1,13.2-11.2,21.5c-1.7,6.5-3.2,12.9-4.7,19.4c-0.2,1.1-0.6,2.2-0.8,3.3
			c0.2-0.8,0.6-1.7,0.1-0.5c-0.4,0.9-0.8,0.9,0.1,0c-4.1,4.6-8.9,7.3-15.5,10.4c-9.8,4.7-20.7,7.5-31.4,9.2
			c-25.5,4.2-53.3,1.3-78.5-4c-17.5-3.7-34.4-9.5-50.3-17.8C217.9,372.6,202.2,361.8,191.2,370.7c-3.2,2.6-2.6,7.9,0,10.6
			c3.1,3.1,7.5,2.5,10.6,0c-1.6,1.3-1.9,0.3-0.8,0.9c0.7,0.4,1.9,0.5,2.7,0.7c2.8,0.8,5.4,2.1,8,3.4c6.3,3.1,12.4,6.6,18.7,9.5
			c14.4,6.5,29.4,11.5,44.8,14.7c25.4,5.3,52.8,8.1,78.6,4.9c19.7-2.5,41.1-8,56.8-20.9c4.4-3.6,6.9-7.5,8.2-13
			c1.5-6.5,3-13,4.7-19.4c0.7-2.6,1.3-5.3,2.1-7.9c0.3-1,0.6-2.1,1-3c0.2-0.4-0.2,0.4,0.4-0.7c1-1.7-0.5,0.7,0.2-0.2
			c0.3-0.4,1.9-1.7,0.4-0.5c1.4-1.1,2.9-1.9,4.5-2.8c6-3.3,12.2-6.3,18.4-9.3c15.5-7.6,32-13.1,48.4-18.3c-3.1-1.7-6.2-3.5-9.2-5.2
			c2.2,10.9,5.1,21.6,6.5,32.6c2.2,17-1.1,33.8-8.6,49.2c-6.7,13.8-16,25.7-26.5,36.8c-12.6,13.2-26.2,24.9-42.1,34
			c-25.2,14.6-54.7,22.5-82.6,25.8c-14.8,1.8-30.3,3.2-45,0.3c-13.2-2.6-25.3-9.4-35.2-18.4c-13.9-12.5-25.7-29-34.6-45.4
			c-5-9.2-8.8-18.8-12.2-28.7c-1.7-4.8-3.4-9.7-4.9-14.5c-0.6-1.8-1.2-3.6-1.6-5.4c-0.2-1-0.1-0.8-0.1-0.8c-0.1,0-0.4,1-1.1,1.8
			C208.2,374.1,197.6,363.4,191.2,370.7z"/>
	</g>
</g>
<path class="st3" d="M218.5,388.5"/>
<path class="st3" d="M509,418"/>
<g>
	<path class="st4" d="M92,179.5c-3-6.2-21.8-3.9-33.5,0.5c-0.9,0.3-14.9,5.7-22.7,17.2c-1.4,2.1-2.1,3.5-2.3,3.8
		c-2.7,5.6-3.2,12.1-1.5,20c3.2,14.7,13.2,30.2,18,38.5c5.4,9.3,9.2,20.9,17,44c12.5,37.3,8.2,39.9,16,55.5
		c11.3,22.7,29.2,34.7,46,46c33.1,22.3,76.8,36.8,83.5,27c4-5.8-9.4-13.7-13.5-40.5c-1.9-12.4-0.4-19.4-6-25c-7.1-7.1-18.8-5.2-25-5
		c-36.8,1.3-68-37.5-81-63.5c-4.2-8.4-6.2-15.1-8-21c-5.4-18.2-16.6-51.2-0.5-76C84.9,191.2,94.4,184.5,92,179.5z"/>
	<g>
		<path class="st1" d="M98.5,175.7c-6.6-11.2-24.7-7.7-34.9-5.1c-10.2,2.6-19.7,7.6-27.4,14.7c-11.8,10.9-14.8,25.5-10.6,40.8
			c3.9,14.2,12.2,26.3,19,39.1c5.5,10.2,8.8,21.5,12.5,32.3c4.4,13.2,8.8,26.3,11.6,40c1.4,6.8,2.7,13.6,5.4,20
			c5.4,12.8,13.8,24.1,23.9,33.5c21.6,19.9,49,35.6,76.6,45.4c10.2,3.6,21.9,7.3,32.8,5.9c8.7-1.2,15.4-8.1,12.4-17.2
			c-1.3-3.9-3.7-7.4-5.6-11c-2.8-5.2-5-10.6-6.4-16.4c-3.2-12.6-0.2-29-11.4-38.1c-11.2-9.1-24.4-4-37.2-6.1
			c-12.7-2.1-24.3-9-33.8-17.4c-9.9-8.7-18.4-19-25.4-30.2c-6.9-11-11.3-22.6-15.1-35c-3.7-12.5-7.2-25.2-7.3-38.3
			c-0.1-7.1,0.9-14.4,3.6-21c2.9-6.9,7.9-12.2,12.5-17.9c3.7-4.5,7.6-10.1,5.4-16.2c-3.2-9-17.7-5.1-14.5,4c0.5,1.3,0.7-1,0-0.6
			c-0.4,0.2-1.2,1.8-1.5,2.3c-2.1,2.7-4.5,5.2-6.6,7.9c-4.6,5.8-8.2,12-10.6,19c-4.4,13-3.8,27.2-1.5,40.6
			c4.1,23.5,12,47.3,25.4,67.1c13.9,20.6,32.8,40.2,57,48.1c5.9,1.9,12.2,3,18.4,3.1c5.3,0.1,10.6-1,15.9-0.2
			c4.9,0.8,7.8,3.1,8.7,7.9c1.2,6.3,1.1,12.9,2.3,19.3c2.1,11.2,6.8,21,12.1,31c0.4,0.7,0.8,1.4,1.1,2.2c0.6,1.3-0.6-0.6,0.1,0.4
			c0.8,1.1-0.1,0.6,0.1,0.1c-0.2,0.5,0.9-2.7,0.3-1.5c0.4-0.8,0.8-0.7,1.3-1.3c0,0-0.7,0.4-0.7,0.4c0,0-0.2,0,0.5-0.2
			c-0.4,0.1-0.8,0.3-1.2,0.3c-1.4,0.1,0.7,0-0.8,0.1c-1.1,0.1-2.2,0.1-3.3,0c-10.6-0.5-21.5-4.8-31.2-8.7
			c-13.2-5.4-25.9-12.4-37.8-20.3c-10.6-7.1-21.2-14.4-29.9-23.8c-4.8-5.2-8.9-10.9-12.2-17.2c-2.1-4-2.9-5.5-4.1-9.3
			c-2-6.2-2.9-12.8-4.4-19.2c-3.1-13.4-7.6-26.4-12-39.5c-3.6-10.5-7.1-21.3-12.2-31.1c-5.9-11.3-13.4-21.6-17.2-33.9
			c-2-6.2-3.5-13.5-0.7-19.7c2.2-5,6.6-9.2,11-12.3c2-1.4,4.1-2.6,6.2-3.7c0.7-0.4,1.5-0.7,2.3-1.1c0.4-0.2,0.8-0.4,1.2-0.5
			c-0.2,0.1-1.4,0.5-0.6,0.2c4.9-1.9,10.2-3.3,15.4-3.9c2.6-0.3,5.4-0.5,8-0.2c0.7,0.1,1.5,0.4,2.2,0.4c1.5,0.1,0.4,0.5-0.1-0.4
			C90.4,191.6,103.4,184.1,98.5,175.7z"/>
	</g>
</g>
<g>
	<path class="st5" d="M352.9,185.3c0.3-8.4-1.2-14.6-2.9-18.8c-2.5-6.6-14.3-24.5-10.5-18.5c0,0-18.9-22.4-26.5-30
		c-23.1-23.3-57.1-27-71.5-28.5c-14.2-1.5-75-8.1-114.5,36.5c-33.9,38.3-28.4,86.2-27,98c1.1,9.3,10.5,81.8,63.5,98
		c17,5.2,41.8,0.1,58-5c14.4-4.6,19.1-9,34-10.5c17.4-1.8,28.9,2.5,33-3.5c3.2-4.7-2.3-9.6-3-18c-2.2-25.8,44.7-37.1,62-79.5
		C351,197,352.3,189.6,352.9,185.3z"/>
	<g>
		<path class="st1" d="M360.4,185.3c0.4-15.7-6-29.9-15.1-42.3c-4.3-5.8-13.7-4.1-14,3.8c-0.1,1.9,0.8,3.5,1.8,5
			c3.9-3,7.9-6.1,11.8-9.1c-15.8-18.7-31.1-38.6-54.1-48.8c-19.8-8.8-41.8-12.2-63.4-13c-25.4-1-51.4,3.3-74,15.1
			c-30.1,15.7-51.3,45-58.7,78c-8,36.2-1.5,77.4,15.8,110.1c12.2,23,33.2,43.5,60.1,46.9c17.2,2.2,35.2-1.3,51.6-6.4
			c7.9-2.4,15.2-6.1,23.1-8.5c8.4-2.6,17.1-2.8,25.9-2.5c6.2,0.2,13.3,1,19-2.2c6.4-3.7,8-10.9,5.8-17.5c-1-3.1-2.6-6.1-2.9-9.3
			c-0.3-2.7,0-3.2,0.6-5.3c0.9-3.1,3.6-6.5,6.4-9.5c8.2-8.7,18.2-15.6,27-23.7c10.7-9.9,20.3-21.4,26.2-34.8
			c3.4-7.7,5.8-15.6,7-23.9c0.6-4-1-8-5.2-9.2c-3.5-1-8.7,1.2-9.2,5.2c-2,14.3-7.6,27.7-16.7,38.9c-8,9.9-17.9,17.9-27.6,26
			c-7.5,6.3-15.8,13-20.2,22c-2.1,4.3-3.4,9.1-3.2,13.9c0.2,3.6,1,7,2.2,10.4c0.4,1,0.8,3.1,1.5,3.9c0.9,1,0.6,0.9,0.8,0.1
			c-0.3,0.8-0.2-0.2,0.2-0.1c0.6,0.1-0.8,0.2-1,0.2c-0.6,0-1.5,0.1-2.4,0.2c-3.4,0.1-6.9-0.2-10.3-0.3c-8.8-0.2-17.8,0.3-26.4,2.7
			c-6.8,1.9-13.1,5.1-19.7,7.4c-7.8,2.7-15.9,4.8-24,6.3c-14.5,2.6-29.3,3-42.7-3.9c-9.9-5-18.3-12.6-24.8-21.6
			c-11.5-16-18.2-35-22.1-54.2c-0.6-2.9-1.1-5.9-1.6-8.9c-0.1-0.5-0.1-1-0.2-1.5c-0.1-0.4,0.2,2,0,0.3c-0.1-0.9-0.2-1.8-0.3-2.7
			c-1-8.7-1.3-17.5-0.7-26.2c1.9-29.9,15-58.6,38.8-77.4c19.7-15.6,45.1-22.3,69.8-23c17.1-0.5,34.6,1.2,51.1,5.4
			c14,3.6,27.7,9.5,38.5,19.3c8.6,7.8,16,17.2,23.6,26c1.9,2.2,3.8,4.5,5.7,6.7c5.5,6.5,16.2-1.9,11.8-9.1c-0.2-0.4-0.5-0.8-0.7-1.2
			c0.3,1.3,0.7,2.5,1,3.8c0,0,0,0,0,0c-4.7,1.3-9.3,2.5-14,3.8c8.1,11,13.4,21.3,13.1,34.8C345.1,195,360.1,195,360.4,185.3z"/>
	</g>
</g>
<g>
	<path class="st6" d="M95.5,176c-6.2-2.5-4.9-26.9,3-46c11.9-28.5,39.5-47.1,73.5-70c1.5-1,2.2-1.5,3-2c48.4-31.4,97.7-23.8,114-21
		c18.4,3.1,41.4,10.2,41,15.5c-0.2,2.4-5.1,2.3-11.5,6C299.6,69.6,302.2,94.8,290,98c-6.5,1.7-12.7-3.8-17-7
		c-31.4-23-84.4-8.7-89-7.5C126,99.1,107.3,180.7,95.5,176z"/>
	<g>
		<path class="st1" d="M99.3,169.5c-1.3-0.7,0.8,0.6,0.7,0.7c0.4-0.3-0.4,1.4,0,0.1c0.1-0.2-0.3-1-0.4-1.2c-0.4-2-0.5-4-0.5-6
			c0-6.1,1-12.2,2.4-18.2c2.9-11.7,8.2-22.5,16-31.8c16.9-20.3,40.8-35.7,62.9-49.7c39.7-25,89.6-27.3,132.8-12.7
			c2.4,0.8,4.7,1.6,6.9,2.7c0.9,0.4,1.7,0.9,2.6,1.4c0.9,0.5,0.6,0.5,0.7,0.4c0.3-0.3,1.8-7.1,0.6-7.3c-1-0.1-3.1,1.1-4,1.5
			c-3.1,1.3-6,2.8-8.7,4.8c-9,6.7-13.5,16.3-17.5,26.4c-1.2,2.9-3,7.4-4.4,9c-0.9,1-0.5,1.1-2,1.1c-2.7-0.1-5.3-2.3-7.5-3.8
			c-9.5-6.9-19.6-11.8-31.3-14.2c-19.6-4-40-2.4-59.4,1.7c-16.1,3.4-30.5,10.6-43,21.4c-14,12.1-24.7,27.7-34,43.6
			c-3.7,6.3-7.2,12.8-10.8,19.2c-1.4,2.4-2.7,4.7-4.2,7c-0.4,0.5-2,2.7-1.4,2c0.6-0.7-1.1,1.2-1.5,1.6c-0.9,1,0.7-0.4,0.5-0.3
			c-0.4,0.2-1.3,0.5,0,0.1c0.6-0.2,1.1-0.3,1.8-0.4c-0.2,0,2.2,0.5,0.9,0.1c-9.1-3.2-13.1,11.3-4,14.5c11.7,4.1,19.6-14.4,23.8-22
			c8.9-16,18-32.2,30.5-45.7c12-13,26.2-22.2,43.6-26.1c19.4-4.4,40.6-6.1,59.9-0.6c5.8,1.7,11.3,4.1,16.3,7.5
			c5.9,4,11.2,8.9,18.7,9.4c11.8,0.8,17.3-9.2,21.1-18.6c4.1-10,8.1-19.8,18.9-24.1c5.2-2.1,11.2-4,11.2-10.8
			c0-5.2-4.2-8.8-8.4-11.1c-11.4-6.4-25.4-9.2-38.1-11.4c-8.4-1.4-16.8-2.5-25.3-2.9c-28.3-1.4-56.9,4.4-82.1,17.5
			c-14,7.3-27.1,16.8-39.9,26c-11.7,8.4-23.3,17.3-33.1,27.9c-9,9.8-16.3,20.9-20.8,33.5c-4.4,12.2-7.3,26.6-5.1,39.5
			c0.8,4.4,2.8,9.1,6.9,11.2C100.3,186.8,107.9,173.9,99.3,169.5z"/>
	</g>
</g>
<g>
	<path class="st4" d="M240,300.5c-8-1.2-14.3-5.8-21.8-13.3c-17.6-17.5-43.4-43.2-42.5-78.3c0.3-12.7,4.2-27.7,8.8-28
		c3.3-0.2,7.2,7.3,8.5,9.8c2.8,5.5,3.7,10.2,3.8,11c0.4,14.4,8.9,34.7,17.5,44.8c8.2,9.7,22.7,17.4,36.8,15.8c6-0.7,8-2.4,25.5-11.8
		c23.7-12.7,37.7-19,37.3-20c-0.5-1.1-14.8,8.8-34.3,9c-4.3,0.1-36.4,0.1-50.5-24.8c-9.1-15.9-5.2-37.1,5-51.3
		c11.9-16.5,30.1-20,35.8-20.8c17-2.4,29.8,4.3,38,8.5c2.7,1.4,18.4,9.8,29.5,27.3c3.3,5.1,4.9,7.8,5.3,11.8
		c0.9,9.4-6.1,16.9-21.3,31.5c-26.6,25.6-27.1,23.5-32.8,31.8c-10.2,14.8-18.9,34.4-12.8,41c3.3,3.5,10.4,3,10.3,4
		c0,0.3-0.7,0.7-9.3,1.5c-4.1,0.4-6.1,0.9-9,0.8c-4.7-0.2-1.5,0.3-11.8,0.3C247.2,300.9,242.9,300.9,240,300.5z"/>
	<g>
		<path class="st1" d="M242,293.3c-7.6-1.3-13.1-6-18.4-11.3c-4.5-4.5-9-9-13.3-13.7c-9.3-10.2-18-21.6-22.8-34.6
			c-5-13.5-6.5-30.2-0.9-43.8c0.2-0.6,1-2.1,1-2.2c0.3,0.5-7.8,0.3-2.9,0.3c-4.7,0.1-1.9-0.5-1.5,1.1c0.6,2.4,3,4.9,4.1,7.2
			c0.7,1.6,1.2,3.3,1.7,5c0.2,0.6,0.3,1.1,0.4,1.7c0-0.3-0.2-2.1-0.1-0.4c0.3,4,0.8,8,1.7,11.9c6.5,28.9,29.6,60.9,63.2,55
			c10.1-1.8,19.8-9,28.7-13.7c10.8-5.8,22.5-10.7,32.9-17.2c4-2.5,7.3-6.8,4.4-11.7c-3.2-5.6-9-3.6-13.6-1.5
			c-9.7,4.3-19.8,7.2-30.5,6.8c-20.8-0.8-44.8-12.7-44.8-37.4c0-27.1,24.8-48.1,51.4-44.4c9.8,1.3,19.3,5.9,27.5,11.4
			c5.3,3.5,10,7.8,14.2,12.5c3.8,4.2,9.7,10.8,10.5,16.6c0.5,3.7-1.9,7.5-4.6,10.9c-5.1,6.3-11.3,11.9-17.2,17.5
			c-7.6,7.2-15.4,14.1-23.1,21.2c-5.3,4.8-9.2,10.8-12.9,16.9c-6.1,10.3-15.8,27.8-8.9,39.8c1.5,2.7,3.9,4.6,6.6,5.9
			c1.7,0.8,3.4,1.3,5.2,1.7c0.5,0.1,1,0.3,1.5,0.3c2.8,0,0.5,2.5-2.1-2.6c-0.3-1.9-0.5-3.9-0.8-5.8c1.6-5.5,7.6-5.3,2.7-4.5
			c-2.8,0.4-5.6,0.6-8.5,0.9c-2.9,0.3-5.8,0.2-8.7,0.4c-8,0.4-16.4,0.8-24.3-0.3c-4-0.5-7.5,3.8-7.5,7.5c0,4.5,3.5,7,7.5,7.5
			c7.8,1,16.1,0.8,24,0.3c7.4-0.4,15.1-0.2,22.3-2c3.2-0.8,6-2.4,7-5.8c1.6-5.9-3.1-9.2-8-10.1c-1.2-0.2-3.1-0.3-4.1-1.2
			c0.7,0.6,0.2-0.5,0.1-1.3c-0.1-4.6,2.2-9.8,4.1-14c2.3-4.9,4.9-9.5,7.9-14c0.9-1.3,1.8-2.6,2.7-3.9c1.4-2.1-0.6,0.5,0.8-1
			c2.4-2.6,5-5,7.6-7.3c6.6-5.9,13.1-11.9,19.5-18c7.8-7.5,16.8-15.1,22.3-24.5c11-18.6-5.6-38.4-19.6-50.1
			c-12.2-10.2-27.4-18-43.3-19.9c-18.2-2.2-37.9,4.8-50.5,18.1c-15.6,16.5-21.6,43.2-11,63.9c9.4,18.2,29.1,27.1,48.6,29.3
			c7.1,0.8,14.1,0.5,21.1-0.7c5.4-1,10.7-2.6,15.8-4.7c2.1-0.8,4.1-1.7,6.2-2.7c0.6-0.3,1.3-0.5,1.9-0.9c-1,0.4-1.1,0.5-0.5,0.2
			c0.8-0.2,0.4-0.2-1.3,0.1c-1.8-0.7-3.5-1.5-5.3-2.2c0,0,0.1,0,0.1,0.1c-0.7-1.8-1.5-3.5-2.2-5.3c0,0,0,0.1,0,0.1
			c0.3-1.3,0.7-2.5,1-3.8c0.5-1.2,3.1-2.5,0.7-1.2c-1.3,0.7-2.5,1.4-3.8,2.1c-4.4,2.3-8.8,4.5-13.3,6.8c-11.6,6-22.9,12.5-34.5,18.3
			c-0.7,0.3-1.3,0.7-2,1c1.3-0.6-0.3,0.1-0.8,0.3c-1.1,0.3-2.3,0.6-3.4,0.8c2-0.4-1.7,0.1-2.3,0.1c-1.7,0-3.5,0-5.2-0.3
			c-3.1-0.5-6.3-1.5-9.1-2.8c-11.7-5.5-18.7-15.7-23.6-27.3c-2.5-5.9-4.6-12.3-5.4-18.7c-0.7-5.7-1.3-10.3-3.6-15.7
			c-3.8-8.7-13.7-23.6-24-13.1c-3.9,4-5.6,10.3-6.8,15.6c-1.5,6.9-2.2,14.1-1.9,21.1c0.6,13.2,4.6,25.9,10.9,37.5
			c6.5,12,15.5,22.6,24.9,32.4c9.5,9.9,19.7,21.7,33.9,24.2C247.4,309.4,251.5,294.9,242,293.3z"/>
	</g>
</g>
<g>
	<g>
		<path class="st1" d="M190.6,212.9c0.6,3.7,1.2,9.2,4.2,11.9c3,2.7,7.7,3,10.6,0c4-4,1.5-9.4,0.3-13.9c-1.9-7-3.3-14.1-3.7-21.4
			c-0.5-9,0.4-18.3,4.3-26.5c3.9-8.2,10.2-15.2,17.4-20.6c30.8-23.7,79.9-19.3,101.8,14.3c3.7,5.7,6.6,11.6,8.8,17.5
			c1.9,5.2,2.8,10.3,9.4,11.1c2.3,0.3,5.6-1.6,6.5-3.7c2.9-6.8-2.5-15-5.9-20.8c-5.4-8.9-12.3-16.9-20.5-23.3
			c-13.2-10.4-28.6-17.5-45.4-19.6c-35.4-4.5-71,13.7-84.1,47.7C188.5,180.7,188.1,197.1,190.6,212.9c0.6,4,5.6,6.2,9.2,5.2
			c4.3-1.2,5.9-5.2,5.2-9.2c-0.1-0.7-0.2-1.4-0.3-2c0.1,0.9,0-0.3-0.2-1.5c-0.3-2.6-0.5-5.2-0.5-7.8c-0.2-6.6,0.4-13.1,2-19.5
			c4.2-16.9,15.2-31,30.7-38.8c23.6-11.9,52.1-7.9,73.4,6.7c1,0.7,1.9,1.4,2.9,2.1c0.3,0.2,0.6,0.4,0.9,0.6c-2.5-1.9,2,1.7,2,1.7
			c3.5,3,6.7,6.2,9.6,9.8c3.1,3.8,5.8,8.1,8.1,12.5c0.7,1.3,1.4,2.8,1.9,4c0.5,1.2,0.7,4,0.6,1c0.3-1.3,0.7-2.5,1-3.8
			c0,0,0,0.1,0,0.1c2.2-1.2,4.3-2.5,6.5-3.7c0,0,0,0,0,0c1.8,0.7,3.5,1.5,5.3,2.2c0.3,0.3,1.8,3.5,1.3,2c-0.2-0.7-0.5-1.5-0.8-2.2
			c-0.8-2.3-1.7-4.6-2.6-6.8c-2.9-7-6.4-13.7-10.9-19.9c-11.7-16.1-28.3-26.7-47.8-30.9c-22.3-4.9-45.8-1.6-65.5,10.3
			c-17.5,10.7-31.6,27.2-34.8,47.9c-1.7,10.6-1,21.3,1,31.9c0.7,3.8,1.6,7.6,2.7,11.4c0.3,1.1,0.6,2.3,1,3.4c0.5,1.5-0.1,2,0.2,0
			c0.7-1.8,1.5-3.5,2.2-5.3c0,0,0,0,0,0c3.5,0,7.1,0,10.6,0c2.1,1.9,1.3,2.3,0.6-0.3c-0.4-1.6-0.7-3.3-1-5
			C203.5,199.4,189,203.5,190.6,212.9z"/>
	</g>
</g>
<g>
	<path class="st5" d="M335,50.5c3.7-2,12-6.3,23.3-7.5c26.1-2.7,46.2,14.2,50.3,17.8c20.3,17.5,26.8,42.3,29.8,53.3
		c0.2,0.6,1.3,2.3,0.8,3c-1.3,1.6-9.2-3.8-16.8-7.3c-22.1-10.1-51.4-10.1-55.8-0.8c-0.8,1.7-0.1,6.2,0.9,9.8
		c0.6,2.1,1.3,3.6,1.1,3.7c-0.6,0.3-3.6-5.5-9.5-11c-0.5-0.4-3.2-3.3-6.5-5c-11.7-5.9-34.5-5-38.8,2.8c-0.3,0.6-1,2-2.3,2.3
		c-2,0.4-3.6-2.6-7-6c-4.7-4.6-6.7-4-8-6.3c-1.2-2.1-1.6-6.6,10.8-22C318.3,63.5,323.9,56.4,335,50.5z"/>
	<g>
		<path class="st1" d="M338.8,57c11.2-6,23.7-8.4,36.1-5.5c5.9,1.4,11.4,3.6,16.7,6.5c2,1.1,4,2.4,5.9,3.7c1.7,1.1,2.9,2.1,3.6,2.7
			c17.2,13.9,25,34,30.8,54c0-1.3,0-2.7,0-4c-0.1,0.2-0.1,0.5-0.2,0.7c1.1-1.5,2.3-3,3.4-4.5c-0.1,0.1-0.2,0.2-0.4,0.2
			c1.3-0.3,2.5-0.7,3.8-1c1.4-0.2,0.6,0.4-0.1,0c-0.7-0.5-1.7-0.8-2.5-1.2c-2.4-1.2-4.7-2.5-7.1-3.7c-4.6-2.3-9.4-4.3-14.3-5.8
			c-9.3-2.9-19.3-4.5-29-4.3c-7,0.1-14.9,1.1-20.8,5.3c-3.4,2.4-5.8,5.8-6.2,10c-0.2,2.3,0.1,4.6,0.5,6.9c0.2,1.4,0.5,2.7,0.9,4
			c0.2,0.7,0.6,3.8,0.8,1.7c3.2-2.4,6.3-4.8,9.5-7.2c2.4,0.4,4.4,3.6,2.1,0.6c-1.2-1.6-2.4-3.2-3.6-4.7c-2.2-2.7-4.7-5.2-7.4-7.4
			c-5.9-4.9-12.9-7.1-20.4-8c-6.8-0.9-13.8-0.7-20.4,0.9c-2.8,0.7-5.7,1.8-8.1,3.4c-1.2,0.8-2.4,1.7-3.3,2.7
			c-0.6,0.7-2.8,2.9-1.6,2.3c1.3-0.3,2.5-0.7,3.8-1c1.7,0,2.6,1.6,1.5-0.3c-0.5-0.8-1.4-1.6-2-2.3c-1.6-1.7-3.3-3.3-5.2-4.6
			c-1-0.7-2.3-1.8-3.5-2.2c-1.4-0.4,0.2,0.2,0.7,0.8c-0.5-0.7,0.4,1.1,0.4,1.1c-0.7-1.4,0.2,1.4,0,0.3c-0.1-0.3-0.6,1.1,0.2-0.4
			c0.7-1.5,1.6-3.5,3.1-5.8c4.6-7.2,10.3-14,16-20.4C327.4,64.9,332.5,60.4,338.8,57c8.5-4.7,0.9-17.6-7.6-13
			c-12.2,6.7-20.7,17.2-29.3,27.9c-5.6,7-15.4,17.7-13.2,27.7c0.9,3.9,3.4,6.3,6.7,8.3c5.2,3.2,8.6,10.8,15.3,11
			c4,0.1,6.8-2.2,9-5.2c0.6-0.9,0.1-1,1.9-1.8c4.8-2.1,10.5-2.1,15.6-1.8c6,0.4,11.6,2,16,6.2c2.4,2.3,4.6,4.7,6.6,7.4
			c1.7,2.3,3.4,5.3,6.6,5.9c5.2,1,8.9-2.1,9.5-7.2c0.2-2-0.8-3.9-1.3-5.7c-0.3-1-0.6-2.1-0.8-3.2c-0.1-0.4-0.1-0.8-0.2-1.1
			c0.1-1.8-0.1-1.8-0.4-0.2c0.2,0.3-0.5,0.3,0.5-0.3c1.1-0.6,2.7-1.1,4.4-1.5c7.8-1.8,16.5-0.8,24.3,0.8
			c10.5,2.2,18.9,6.9,28.5,11.4c3.6,1.7,7.7,3.2,11.5,1.1c5.5-3,4-8.2,2.6-12.9c0.4,1.1-0.4-2.2-0.5-2.6c-0.4-1.3-0.8-2.7-1.2-4
			c-1.1-3.6-2.3-7.1-3.7-10.6c-3.4-8.5-7.5-16.7-13-24.1c-8.8-11.9-20.5-21.8-34.2-27.9c-20.3-9-41.8-8.1-61.3,2.3
			C322.7,48.6,330.3,61.5,338.8,57z"/>
	</g>
</g>
<g>
	<path class="st7" d="M433.5,79.3c1.4-0.9,2.8-1.1,5.6-1.5c4.7-0.7,4.8,0,9.2-0.7c1.5-0.3,3.1-0.6,5.6-0.6c0,0,1.3,0,2.6,0.1
		c17.9,1.8,30.5,18.3,35.3,24c11.4,13.8,6.8,20.3,20.5,45c5.4,9.6,5.3,7.7,13.7,21.8c11.4,19.2,17.1,28.8,21,42.8
		c2.5,9.1,6,22.1,2.5,37.3c-2.1,9.2-6.2,16.7-6.8,17.8c-1.2,2.2-1.9,3.1-10.8,15c-9.2,12.4-10.1,13.4-12.3,15.3
		c-4.5,3.7-8.5,5.4-15.5,8.3c-8.7,3.6-12.6,4-20.5,6.5c-7.6,2.4-13,5-23.8,10.3c-20.3,9.8-30,17.1-32.5,14.5
		c-1.1-1.2-0.1-3.7,0.5-5.5c5.3-14.7,9.8-39,3.5-55.3c-1.1-3-1.3-2.1-5.3-10.5c-4.1-8.7-7.2-15.2-8.3-19.8
		c-2.2-9.5,3.4-15.6,12.5-33.3c9.5-18.6,15.5-30.2,17.3-45.5c2.2-19.2-3.2-35.3-4-37.8c-5.4-15.8-17.7-35.3-14.5-42.8
		C430.8,80.9,433.5,79.3,433.5,79.3z"/>
	<g>
		<path class="st1" d="M437.3,85.7c1.7-0.9,4.5-0.8,6.5-0.9c3.4-0.1,6.7-1,10.1-1c6.5,0,12.7,3.1,17.8,6.8
			c7.5,5.6,15.2,13.9,19.3,22.3c1.7,3.4,2.8,8,4.2,12.1c2.1,6.6,4.8,13,8,19.2c5.3,10.4,12.3,19.9,18.3,30
			c14.4,24.3,29.3,52.4,17.6,81c-2.9,7-7.5,12.7-12,18.7c-5.7,7.7-9.8,15.1-18.6,19.5c-7.2,3.6-14.8,5.8-22.4,7.9
			c-7.6,2.2-14.9,5.2-22,8.5c-8.6,4.1-17.1,8.4-25.6,12.9c-2.6,1.4-5.2,2.8-7.8,4.1c-0.6,0.3-1,0-1.9,0.8c-0.1,0-0.8,0.2-0.8,0.2
			c0.3-2.5,7.1,5.1,5.5,2.2c0.3,1.3,0.7,2.5,1,3.8c-0.2-3.4,2.6-8.3,3.5-11.7c1.3-4.9,2.3-9.9,3-14.9c1.4-9.9,1.7-20.1-0.6-29.9
			c-1.6-7-5.4-13-8.5-19.4c-1.9-4-3.9-8-5.4-12.2c-1.1-2.9-1.7-5.5-1.3-7.7c1.4-7.8,7.3-15.3,10.9-22.1c5-9.6,10.1-19.4,14-29.5
			c7-18.3,7.3-38.7,2.1-57.4c-2.4-8.5-6.4-16.6-10-24.6c-2-4.4-4.1-8.8-5.3-13.5c-0.3-1.3-1-3-0.6-4.3
			C435.9,87.8,438.5,84.9,437.3,85.7c8-5.4,0.5-18.4-7.6-13c-10.6,7.1-9.2,18.3-5.1,28.7c4.2,10.6,10,20.6,13,31.6
			c3.4,12.3,4.3,25.7,1.4,38.2c-3.2,13.7-10.3,26.5-16.8,38.8c-5,9.4-12.8,19.7-12.2,30.9c0.3,5.7,2.7,11,5,16.2
			c2.6,5.9,5.3,11.7,8.4,17.4c0.3,0.5,0.6,1,0.8,1.5c0.8,1.5-0.4-1.1,0.2,0.6c1.1,3,1.8,6.1,2.2,9.3c0.8,6.8,0.4,13.8-0.7,20.5
			c-1,6.5-2.6,12.8-4.7,19c-1.9,5.6-3.4,12.6,2.8,16.1c7.8,4.4,19-4.2,25.6-7.7c12.3-6.5,24.8-13.3,38.2-17.3
			c12.6-3.8,26.1-7.1,36.5-15.5c6.3-5.2,10.8-12.9,15.6-19.4c3.9-5.2,8-10.2,10.8-16c6.6-13.8,8.9-28.4,6.6-43.6
			c-3.8-25-17.3-47.8-31.1-68.4c-5.6-8.4-10.9-17-14.5-26.5c-3.2-8.5-5-17.6-9.9-25.4c-5.1-8-12.1-15.7-19.5-21.6
			c-5.1-4.1-10.7-7.4-16.9-9.4c-6.8-2.2-12.6-1.6-19.5-1c-5.5,0.5-11.2,0.2-16.2,3C421.3,77.5,428.8,90.4,437.3,85.7z"/>
	</g>
</g>
<g>
	<path class="st7" d="M253.3,392.3c-1.1,0.2-2.7,0.4-4.5,0c-1.7-0.4-2.8-1.2-3.3-1.5c-4.7-3.2-12.8-3.3-12.8-4c0-0.7,8.6-0.6,16-1
		c0,0,9.2-0.5,25.3-3.3c6.6-1.1,17.6-3.5,54-18.5c26.8-11,32-14.4,44.5-15c7.1-0.3,27.6-1.2,33.5,10.5c3.5,6.9,0.9,16.2-3.3,22
		c-4.5,6.3-11,8.7-14.8,10c-24,8.2-48.6,9.6-51.5,9.8c-28.7,1.4-43.4,2.4-63.3-2.5C264.8,396.7,258,394.2,253.3,392.3z"/>
	<g>
		<path class="st1" d="M251.3,385c-1.1,0.2-2.2-0.9-3-1.4c-1.9-1-3.9-1.8-5.9-2.3c-2.4-0.7-5.1-0.7-7.4-1.6c1.5,1.1,3,2.3,4.5,3.4
			c0,0-0.1-0.1-0.1-0.1c-0.4,3-0.8,6.1-1.2,9.1c-1.4,1.4-4.7,1.7-1.4,1.6c1.7-0.1,3.5-0.1,5.2-0.2c2.4-0.1,4.9-0.1,7.3-0.3
			c4.1-0.3,8.2-0.8,12.3-1.3c7.7-1,15.5-2.1,23.1-4.1c23.3-6.2,45.3-16.8,67.5-25.9c3.9-1.6,7.8-3.1,11.8-4.2
			c4.1-1.1,5.5-1.1,9.6-1.3c7.3-0.3,20.1-1.2,25.1,5.3c3.5,4.5,0.8,12-2.3,16c-3.8,4.9-10.1,6.6-15.8,8.3
			c-13.1,3.9-26.8,6.4-40.4,7.5c-14,1.1-28.4,1.9-42.4,1.2c-14.6-0.7-28.8-4.3-42.4-9.7c-3.8-1.5-8.2,1.7-9.2,5.2
			c-1.2,4.3,1.5,7.7,5.2,9.2c13.8,5.5,28.3,9.1,43.1,10.1c14.5,1,29.2,0,43.7-0.9c14.4-0.9,28.8-3.3,42.7-7.1
			c15.5-4.3,30.3-11.2,33.7-28.6c5.9-30.4-30.9-34.7-52.4-30.1c-11.3,2.4-21.9,8.1-32.5,12.5c-13.6,5.7-27.3,11.3-41.3,15.8
			c-8,2.6-15.9,4.2-24.2,5.5c-5,0.7-10,1.4-15.1,1.7c-6.1,0.4-16.7-1.6-21.5,3.2c-2.1,2.1-3.2,6.5-1.2,9.1c3.3,4.3,7.3,3.8,12,5.2
			c2.2,0.7,3.9,1.9,6.1,2.8c3.6,1.5,7.1,1.5,10.9,0.9C264.7,397.9,260.7,383.5,251.3,385z"/>
	</g>
</g>
<g>
	<path class="st8" d="M207.5,374.5c-0.1-1.3,0.8-3.3,2.8-7.3c0.9-2,1.8-3.5,2.3-4.3c3.5-6,7.4-10.8,7.8-11.3
		c14.8-17.9,74.2-26.8,74.3-26.8c31-4.6,35.5-3.5,41.1-4.5c0,0,3.1-0.6,6.4-1.8c39.7-13.8,59.2-36.7,59.3-36.8
		c6.5-7.7,10-11.8,13.3-18.8c2.5-5.5,3.2-9.1,5-9.3c3.4-0.3,8.1,12.5,10,24c6.5,38.7-16.4,69.5-18.7,77.9c0,0.1-0.1,0.5-0.5,0.8
		c-2.1,1.7-9.2-3.9-10.3-4.8c-13.6-10.2-56.5,2.5-56.5,2.5c-35,10.4-31.9,16.8-63.3,25c0,0-22.5,5.9-51.5,3
		C228.7,382.5,208,380.4,207.5,374.5z"/>
	<g>
		<path class="st1" d="M215,374.5c0,1.3,0,0.1,0.3-0.5c0.7-1.4,1.4-2.9,2.1-4.3c1.4-2.8,3.1-5.5,4.9-8.1c2.1-3.1,3.9-5.6,6.9-8
			c5.5-4.4,14-7.7,21.1-10.2c14.4-4.9,29.4-8.3,44.4-10.8c12.9-2.1,25.8-2.9,38.7-4.2c10.6-1.1,20.9-6,30.4-10.6
			c10.1-4.9,19.5-10.7,28.4-17.6c4.9-3.8,9.8-7.8,13.9-12.5c3.4-3.8,6.7-7.9,9.7-12c1.8-2.5,3.4-5.2,4.7-7.9
			c0.9-1.8,1.6-3.6,2.4-5.5c0.2-0.6,0.7-1.3,0.8-1.9c0.5-2.6,3.3,2-3.8,1.3c-1.3-0.3-2.5-0.7-3.8-1c1.4,0.6,0,0,0-0.1
			c0.1,0.8,1,1.8,1.4,2.5c1,2.1,1.6,4.3,2.3,6.5c1.6,5.5,2.8,11.2,3.2,17c0.7,10.6-0.7,20.9-3.7,31.1c-2.3,7.7-5.5,15.1-9,22.3
			c-1.3,2.7-2.7,5.3-4,7.9c-0.4,0.9-0.9,1.8-1.3,2.8c-0.2,0.4-1,2-1.1,2.7c-0.5,2.3-1.8-0.7,2.2-2.6c1.3-0.3,2.5-0.7,3.8-1
			c0.6-0.1,1.3,1.1-0.3-0.1c-0.5-0.4-1.3-0.7-1.8-1.1c-1.2-0.8-2.3-1.7-3.5-2.5c-2.7-1.9-5.7-3.2-8.9-3.9
			c-7.1-1.7-14.7-1.5-21.9-0.8c-10.7,1.1-21.5,3.2-31.8,6.2c-9.4,2.7-18.6,6.1-27.4,10.3c-5.8,2.8-11.3,6-17.2,8.6
			c-11.9,5.1-24.6,8-37.5,9c-10.6,0.9-21.4,0.9-31.9-0.4c2.1,0.3-1.9-0.3-2.5-0.4c-1.7-0.3-3.4-0.6-5.1-1.1c-1.3-0.3-3.7-1-4.4-1.3
			c-0.1,0-1.2-0.8-1.4-0.8c-0.8-0.5-0.8-0.5-0.1-0.1c0.9,2.1,1.2,2.5,0.9,1.3c-1.8-9.5-16.3-5.5-14.5,4c1.8,9.5,15.6,11.7,23.4,12.8
			c12.7,1.9,25.7,1.9,38.5,0.6c19.8-2,37.4-8.1,55.1-17.2c16.3-8.3,34.4-13.7,52.5-16.3c8-1.1,19.5-2.5,25.8,1.6
			c4,2.6,7.5,5.9,12.5,6.4c3.4,0.3,6.4-0.9,8.4-3.6c0.8-1,1.2-2.1,1.6-3.3c0.6-1.7-0.4,0.7,0.2-0.6c4.1-8.9,8.9-17.4,12.4-26.7
			c5.1-13.4,8-27.9,7.4-42.3c-0.4-8.2-1.8-16.4-4.3-24.2c-1.8-5.5-4.1-13-9.5-16.1c-6.8-3.9-12,1.5-14.5,7.3
			c-2.5,6-5.4,11.4-9.5,16.4c-11,13.4-24.9,23.6-40.4,31.5c-6.9,3.5-14.1,6.7-21.5,9c-1.8,0.6-3.6,0.9-5.5,1.3
			c2.7-0.6-0.4,0-1.3,0.1c-7.7,0.6-15.3,1.1-23,2.1c-16.6,2.1-33.1,4.9-49.3,9.3c-10.5,2.9-21,6.3-30.6,11.4
			c-9.4,4.9-15.6,11.7-21.2,20.6c-3.2,5.1-7.3,11.5-7.5,17.7C199.7,384.2,214.7,384.1,215,374.5z"/>
	</g>
</g>
<path class="st3" d="M362.5,116.3"/>
<path class="st3" d="M376.8,135.5"/>
<g>
	<path class="st4" d="M368.5,122.5c0,0,6.2,10.6,8.5,16.3c0.9,2.2,4.7,11.7,4.8,28c0.1,17.3-4,20.7-7.8,43.8
		c-1.5,9.3-3.6,22.8-2.8,40.3c1,21.4,1.5,32.2,6.8,40c0.6,0.8,2.4,3.4,1.5,4.8c-1.5,2.3-10.2-1.6-17.5-3.5
		c-8.9-2.4-16.8-1.3-32.5,0.3c-14.1,1.4-21.2,2.1-26.8,5.8c-3.3,2.2-8,6.1-9.3,5c-0.7-0.6,0.5-2.1,0.8-4.8c0.6-7.1-7-10.7-6-16.5
		c0.4-2.2,1.8-3.7,3.3-5c20.8-19.9,31.3-29.8,31.5-30c11.1-10.3,17.1-20.7,22.3-29.8c8.1-14.1,12.1-21.2,12.5-30.3
		c0.9-22.5-17.3-42.9-18.3-44c-0.2-0.2-1.9-2-3.8-4.5c-0.9-1.2-1.5-2.2-1.8-2.5c-5.3-8-8-12.1-10-14.3c-4.4-4.8-7.1-5.2-7-7.5
		c0.2-3,4.8-4.9,6.8-5.8c11.2-4.7,22.6-0.8,23.5-0.5C359.1,112,368.5,122.5,368.5,122.5z"/>
	<g>
		<path class="st1" d="M362,126.3c2.1,3.6,4.1,7.3,6,11c1.9,3.8,2.4,4.6,3.6,9.2c3,11,3.6,23.4,1.2,34.6c-2.6,11.6-5.6,23-7.2,34.8
			c-2.2,15.6-2.2,31-1.3,46.8c0.4,6.6,0.8,13.4,2.3,19.8c0.6,2.7,1.5,5.4,2.7,7.9c0.9,2,2.7,4.1,3.2,6.1c0-1.3,0-2.7,0-4
			c1.8-1.3,3.5-2.6,5.3-3.9c-0.3,0-0.6,0-0.9,0c-0.3-0.3-1-0.3-1.4-0.4c-2.1-0.5-4.2-1.3-6.3-2c-3.8-1.2-7.6-2.2-11.6-2.7
			c-7.5-1-15.1-0.1-22.6,0.6c-8.6,0.9-17.4,1.3-25.8,3.2c-3,0.7-6,1.7-8.7,3.2c-1.5,0.8-2.9,1.8-4.2,2.8c-0.7,0.5-1.6,0.9-2.2,1.5
			c-2,1.8-2.2-0.5,1.4,0.9c1.5,1.1,3,2.3,4.5,3.4c-0.1-0.2-0.1-0.3-0.2-0.5c0.3,1.9,0.5,3.9,0.8,5.8c0.9-5.7,1.9-9.9-0.8-15.3
			c-0.9-1.8-2.5-3.5-3.3-5.3c-0.8-2,0.3-1.7,2.5-3.8c7.7-7.3,15.4-14.7,23.1-22c3.9-3.7,8-7.4,11.7-11.4
			c8.4-9.2,14.7-19.9,20.8-30.7c5-8.9,10-17.8,10.7-28.2c0.8-11.3-3-22.8-8.2-32.6c-3.3-6.3-7.4-12.1-12-17.5
			c-5.6-6.4-9.4-14.1-14.9-20.5c-1.5-1.8-3.3-3.8-5.3-5c-0.3-0.2-0.5-0.4-0.8-0.6c-1.9-1.9-2-0.2-0.4,5.2c0.7,0,2.3-1.3,3.1-1.6
			c5.2-2.1,11.2-2.1,16.6-0.6c7.6,2.1,14.6,7.6,19.8,13.4c6.5,7.2,17.1-3.5,10.6-10.6c-13.5-14.9-34.4-24-53.8-15.4
			c-4.2,1.9-8.5,4.6-10,9.3c-1.9,6.2,2.2,9.7,6.3,13.4c3.3,2.9,4.2,4.5,6.8,8.3c3.3,4.9,6.4,9.9,10.3,14.3
			c3.9,4.5,6.9,8.6,10.1,14.5c4.7,8.6,8.6,19.6,6.2,29.5c-2.6,10.5-9.6,20.4-15.1,29.5c-5,8.1-10.8,15.2-17.7,21.8
			c-5,4.7-9.9,9.4-14.9,14.2c-4.3,4.1-8.7,8.2-13,12.4c-5.2,5-9.9,10.3-7.7,18c1,3.4,5,6.8,5.5,10.2c0.4,2.6-1.5,4.7-0.7,7.6
			c0.9,3.3,3.6,5.6,6.9,6c5.3,0.7,9.4-3.5,13.6-6.1c3.2-2,6.9-2.8,10.8-3.4c11.5-1.8,24.1-3.5,35.8-2.9c4.5,0.2,8.6,1.5,12.9,2.9
			c5.1,1.6,11.8,4.4,16.9,1.3c9.6-5.8,0-16.5-1.6-23.3c-2.6-10.9-2.5-22.9-2.7-34c-0.2-13.3,1.3-26.5,3.9-39.6c2-10,5.3-19.8,6.4-30
			c1.2-11.6,0.2-24.3-3.4-35.4c-2.4-7.5-6.5-14.6-10.5-21.4C370.1,110.4,357.2,117.9,362,126.3z"/>
	</g>
</g>
<g>
	<path class="st9" d="M532.7,289c5.1-0.8,10.2,6.2,14.7,12.7c7.9,11.2,11.8,16.8,11.3,24c-0.6,8.5-6.6,14.1-15,21.7
		c-13.1,11.7-32.3,25.6-36.3,21.7c-1.5-1.5,0.5-4.4,1.7-10c5.1-24-16.1-43.9-9-51.7c1.1-1.2,1,0,7.7-2.7c5.3-2.1,12.7-5,19.7-11.3
		C530.6,290.4,530.8,289.3,532.7,289z"/>
	<g>
		<path class="st1" d="M532.7,296.5c2-0.1,4.6,4,5.7,5.5c2.7,3.6,5.3,7.4,7.8,11.2c2.7,4.2,5.9,8.7,4.7,13.8
			c-1.7,7-9.6,12.5-14.7,16.9c-5.6,4.9-11.5,9.5-17.8,13.6c-2.4,1.5-4.9,2.9-7.4,4.1c0.7-0.3-1.3,0.5-1.2,0.4
			c-1,0.8,0.3-0.1,0.2,0.1c-0.2,0-0.4,0-0.6,0c1.7,2,3.3,3.9,5,5.9c0.5-0.3,0.8-2.5,0.9-3c2.4-7.7,2.6-15.5,1.2-23.5
			c-1.2-6.5-3.7-12.7-6.3-18.8c-0.9-2.2-1.9-4.4-2.7-6.7c-0.4-1-0.7-2-1-3c-0.1-0.5-0.2-1.1-0.3-1.6c0.3,1.1,0.1-0.1,0.1-0.2
			c1.3,0.8-5,3-1.3,2.2c3.7-0.8,7.3-2.6,10.8-4.1c4-1.7,7.9-3.8,11.4-6.3c2-1.4,3.9-2.9,5.7-4.6c0.5-0.5,1.7-1.4,2.2-2.1
			c0.6-1,1-0.6-0.2-0.3c9.3-2.4,5.4-16.9-4-14.5c-4.3,1.1-6.7,4.8-10,7.5c-3.8,3.1-8.3,5.4-12.7,7.3c-6.3,2.6-13.6,2.8-16.1,10.4
			c-2.1,6.2,0.7,12.7,3.1,18.4c3,7.2,6.4,14.5,7.3,22.4c0.5,5-0.3,9.4-1.7,14.1c-1.3,4.4-2,9,1.6,12.6c5.7,5.8,14.7,1.6,20.5-1.7
			c8.5-4.8,16.3-11.1,23.6-17.5c7.5-6.4,16.1-13.6,19-23.4c2.9-9.8-1.1-18.6-6.4-26.7c-5.7-8.6-13.8-24.3-26.1-23.5
			C523.1,282.1,523,297.1,532.7,296.5z"/>
	</g>
</g>
<g>
	<g>
		<path class="st1" d="M314.6,224c5.9-7.1,10.6-15.3,9.8-24.9c-0.8-9-5.6-16.6-11.8-22.8c-11.9-11.8-29.7-25-46.7-15.3
			c-10.6,6.1-16.6,19.3-17.4,31.2c-1,14.2,6.5,28.1,17.1,37.3c8,7,18,10.6,28.6,8.2C302.4,235.9,309.3,230.3,314.6,224
			c6.2-7.3-4.4-18-10.6-10.6c-6.9,8.2-16.6,13.9-26.6,6.6c-6.8-4.9-11.5-11.5-13.5-19.7c-1.9-7.6,0.4-16.3,5-22.3
			c8.2-10.8,19.9-2.4,27.8,4.2c4.5,3.8,9.5,7.9,11.7,13.5c2.6,6.5-0.2,12.6-4.4,17.6C297.9,220.7,308.4,231.4,314.6,224z"/>
	</g>
</g>
<g>
	<path class="st10" d="M307.7,190c0,5.9-4.1,10.2-8.3,14.7c-2.2,2.3-7.1,7.4-15.3,9.7c-4,1.1-9,2.5-14,0.3
		c-9.7-4.2-10.9-18.1-11-20.3c-0.2-3.1-0.8-13.4,6.7-20c9-8,21.9-3.8,25-2.7C297.3,174.1,307.6,180.8,307.7,190z"/>
	<g>
		<path class="st1" d="M300.2,190c-0.3,4.7-5.8,9.5-9.3,12.4c-3.8,3.2-9.3,5.6-14.3,5.9c-4.9,0.2-7.4-3.2-8.8-7.5
			c-0.5-1.7-1-3.5-1.2-5.3c0.2,1.4-0.1-1.5-0.1-2c-0.5-9.7,4.5-17.4,15.1-16.3C288.1,177.8,299.7,182.3,300.2,190
			c0.6,9.6,15.6,9.7,15,0c-1.6-27-45.4-38.5-59.6-15.1c-4.9,8.2-5.1,18.9-2.8,28c3.7,14.5,15.4,22.8,30.4,19.4
			c14.5-3.3,31.1-16.6,32-32.3C315.7,180.4,300.7,180.4,300.2,190z"/>
	</g>
</g>
<path class="st11" d="M82,292.5"/>
<g>
	<path class="st6" d="M106.5,317.5c2.5,4,5,7.6,8.5,11.5c2.8,3.1,11.9,13,25.5,18.5c14.8,6,19.9,0.8,36.5,5.5
		c13.8,4,18.2,14.9,24.5,12.5c4.5-1.7,5.3-7.5,7-12c6.8-18,31.8-24.5,51-29.5c33.2-8.6,40,0.1,75.5-9.5c12-3.2,34.7-10.6,34-15.5
		c-0.5-3.8-14.7-6.2-27.5-5c-24.5,2.3-29.3,16.4-54.5,19c-11.8,1.2-11-1.9-25-1c-21.6,1.3-31.5,9.1-46.5,14
		c-21.8,7.1-54.8,8.3-78-7.5c-15.6-10.6-21.3-25.2-32.5-53.5c-11.7-29.6-14.1-57.9-11.5-68.5c0.2-0.8,1.2-4.7,0.5-5
		c-1-0.4-5.2,7.5-8,13c-4.7,9.1-7.1,13.6-8,17c-2.2,8.2-0.7,15.2,1.5,24C86.3,272.4,92,294.3,106.5,317.5z"/>
	<g>
		<path class="st1" d="M101.3,320.5c12.4,19.5,32.2,35.9,56.2,36.2c6.4,0.1,12.5,0.4,18.6,2.3c5.1,1.6,9.1,4.9,13.2,8.1
			c3.4,2.7,7,5.1,11.6,4.6c5.7-0.6,9.2-5.2,11.1-10.2c1.9-4.9,3.1-9.5,6.9-13.4c3.8-4,8.5-6.8,13.5-9.1c10.8-5.1,23-8.2,34.6-10.7
			c10.7-2.3,21.3-2.6,32.1-2.8c12.7-0.2,25.2-2,37.5-5.3c10.3-2.8,21.2-5.8,30.5-11.1c3.2-1.8,6.8-4.3,7.7-8.2
			c1.2-5.1-2.8-8.7-7.1-10.4c-11.4-4.6-26.5-3.8-38.1-0.5c-10.3,2.9-18.7,9.4-28.4,13.4c-5.8,2.3-12.1,3.7-18.3,3.8
			c-4.3,0.1-8.4-1-12.7-1.3c-12.8-0.9-26,2.1-37.9,6.9c-10.6,4.3-20.6,8.7-32,10.7c-12.6,2.2-25.9,2.1-38.3-0.9
			c-11.3-2.7-22-8-29.9-16.7c-7.3-8-11.7-18.5-15.7-28.3c-6-14.5-11.5-29.1-14.8-44.5c-2.2-10.5-4.3-22.1-2.8-32.9
			c0.5-3.9,2.6-8.1,0.3-11.8c-1-1.6-3.1-3.2-5.2-3c-5.1,0.7-7.2,4.9-9.5,9c-2.9,5.2-5.7,10.6-8.3,16c-5.4,10.9-6.1,21-3.4,32.9
			C79,270.2,86.8,297,101.3,320.5c4.1,6.6,14.4,0.5,10.4-6.1c-12.3-20-19.1-41.9-24.9-64.5c-2.5-9.7-6.1-20.1-2-29.9
			c1.8-4.3,4.2-8.4,6.3-12.5c1.2-2.3,2.4-4.6,3.7-6.9c0.5-1,1.1-1.9,1.6-2.9c1.7-2.8,1.9-0.8-2.5-0.3c-1.7-1-3.5-2-5.2-3
			c-1.5-2.4-0.1-2.6-0.8-0.9c-0.2,0.6-0.3,1.4-0.5,2c-0.4,1.9-0.6,3.8-0.8,5.7c-0.4,5-0.2,10.1,0.3,15.1c1.3,13.9,4.4,27.7,8.8,41
			c4.3,12.8,9.5,25.7,15.4,37.9c4.2,8.6,9.4,16.9,16.7,23.3c18.6,16.3,45.2,20.5,69.1,17.5c11.4-1.4,21.9-4.6,32.4-9.1
			c11.2-4.8,22.2-8.6,34.5-9.1c4.3-0.2,8.2,0.3,12.4,0.9c5.8,0.8,11.5,0.3,17.2-0.7c10.7-1.9,19.6-7.4,29.2-12.3
			c10.7-5.6,23-7.3,34.9-5.5c1.9,0.3,4.4,1.6,6.3,1.6c0.2,0.1,0.5,0.3,0.7,0.4c-1.8-2.2-2-4-0.7-5.4c0.7-0.1-2,1.2-1.1,0.9
			c-4.6,1.6-8.9,4.4-13.7,6c-11.2,3.9-22.9,7.3-34.8,8.7c-9.7,1.2-19.4,0.7-29.1,1.2c-11.9,0.6-23.4,3.2-34.8,6.4
			c-10.8,3-22,6.4-31.4,12.6c-5,3.3-9.5,7.3-12.8,12.3c-1.6,2.5-2.8,5.2-3.8,7.9c-0.6,1.7-1.1,5.7-2.8,6.8c-0.5,0.3-0.1,0,0.2,0
			c-0.2,0-1.5-1-2-1.3c-1.9-1.4-3.7-3-5.7-4.5c-5.6-4.1-11.8-6.8-18.6-8.1c-6.1-1.2-12.1-1.1-18.3-1.3c-6.8-0.3-13.1-2.6-19-5.9
			c-10.2-5.8-18.3-14.4-24.5-24.3C107.6,308,97.2,314,101.3,320.5z"/>
	</g>
</g>
<path class="st11" d="M374,114.5c2,6.2,4,12.3,6,18.5"/>
<path class="st12" d="M371.5,115.5c4,11.5,8.6,17.6,11,22.5c2.7,5.5,2.5,12.5,2,26.5c-0.4,12.2-1.7,21.1-3.5,32.5
	c-6.6,42.8-7,40.5-7,46c0.1,17.7,3.9,14.1,6,42.5c0.5,6.4,1.1,9.8,3,10.5c7.3,2.5,33.5-24.6,30.5-45c-0.3-2.1-1.2-6.1-0.5-11.5
	c1.2-8.8,5.9-14.9,7.5-17c6.6-8.8,20.4-31,24-51.5c0.7-3.8,3.8-23.6-6.5-42.5c-2-3.6-4.8-8.7-10.5-13.5c-10.5-8.8-22.3-9.4-37-10
	c-8-0.3-17.2-0.7-19.5,4C370,111,370.7,113.2,371.5,115.5z"/>
</svg>
