<?xml version="1.0" encoding="utf-8"?>
<!-- Generator: Adobe Illustrator 22.1.0, SVG Export Plug-In . SVG Version: 6.00 Build 0)  -->
<svg version="1.1" id="Calque_1" xmlns="http://www.w3.org/2000/svg" xmlns:xlink="http://www.w3.org/1999/xlink" x="0px" y="0px"
	 viewBox="0 0 595.3 841.9" style="enable-background:new 0 0 595.3 841.9;" xml:space="preserve">
<style type="text/css">
	.st0{fill:#FFFFFF;stroke:#000000;stroke-miterlimit:10;}
	.st1{fill:#E0821D;}
	.st2{fill:#29441D;}
	.st3{fill:none;stroke:#000000;stroke-miterlimit:10;}
	.st4{fill:#3F4F1F;}
	.st5{fill:#223C1D;stroke:#000000;stroke-miterlimit:10;}
	.st6{fill:#2DAA57;}
	.st7{fill:#235627;}
	.st8{fill:#E73C2B;}
	.st9{fill:#E73E2A;}
	.st10{fill:#FFFFFF;stroke:#FFFFFF;stroke-miterlimit:10;}
</style>
<path class="st0" d="M195.9,375.5"/>
<path class="st1" d="M222,503.8c13.1,0.1,13.1,0.3,32.8,0.5c24,0.3,24.5,0,39,0.3c36.1,0.5,60.7,2.5,61,0c0.1-0.5-1-0.8-4.3-3
	c-5.1-3.5-8.1-6.7-9.8-8.3c-5.1-4.8-26.9-21.9-53.8-35c-17.6-8.6-26.4-12.8-37.5-14.3c-30.8-3.9-59.5,16.3-64,19.3
	c-1.7,1.1-6.8,4.6-14.8,9.8c-6.2,4-10,6.3-18.3,11.5c-23.8,14.9-29.1,18.4-28.5,19.8c0.3,0.6,1.6,0.5,5.5,0.3
	c5.8-0.3,11.7,0,17.5-0.5c7.1-0.6,10.2-0.1,30.5,0C200.4,504.2,199.1,503.7,222,503.8z"/>
<path class="st2" d="M407.6,444.9c0.3,0.8,0.4,2.3-3.7,7.5c-4.5,5.7-8.5,10.7-13.6,10.4c-2.3-0.1-3.9-1.3-4.4-1.6
	c-3.4-2.3-9.9-3.5-101.5-37.5c-121.3-44.9-132.7-51.3-141.7-53c-8.4-1.6-14-4.2-25.3-9.3c-0.5-0.2-1.2-0.5-1.8-1.1
	c-6.5-5.6-1-23-1-23l0,0c0,0,4.5,0.6,5.8,0.8c5.1,0.8,9.1,2.9,10.6,3.7c14.5,7.2,30.5,10.8,45.7,16.4c36.6,13.5,81.7,30.2,82,30.3
	c43.4,16,65,24,70.3,25.9c16.5,5.9,32.4,13.7,49.4,18.2c8.1,2.2,15.2,7.4,23.3,9.1C403.3,442,406.8,442.6,407.6,444.9z"/>
<path class="st3" d="M28.3,567.2"/>
<path class="st2" d="M91,540.4c3.8,2,3.4,5,9.5,11.3c1.9,1.9,3.5,3.2,5.2,4.7c4.2,3.5,8,5.8,10.6,7.3c3.7,2.3,10.9,6.6,17.5,8.3
	c9.2,2.3,10.1,2.5,10.3,2.3c0.2-0.4,1.6-0.2,2.5,0.5c0.8,0.7,0.6,1.7,1,3.5c0.3,1.3,0.6,1.8,1.4,3.6c2.2,5.2,1.8,6.8,3.8,10.9
	c1.1,2.1,1.6,3.1,2.5,4c4.1,3.9,10.8,2.8,12.8,2.5c20.2-2.8,157.5-0.1,159-0.3c1.2-0.6,2.9-1.5,4.5-3.3c3.6-3.9,4.3-9.1,4.8-12.3
	c0.7-5-0.2-7.1,1.5-8.8c1.9-1.9,5.2-1.4,6.3-1.3c0,0,10.1,1.1,46-32c1.5-0.3,4-0.8,7.3-1.3c0,0,7.1-0.9,25.5-0.3
	c0.3-1.9,0.4-4.3,0.3-7.3c-0.1-1.1-0.3-3.4-1.3-7.3c-1.9-7.8-2.9-11.7-5.8-13c-1.2-0.6-1.8-0.3-6.8,0c-3.1,0.2-6.2,0.3-9.3,0.3
	c-161.7,0-308.9-0.5-301.4-0.6c1.8,0-26.9-1.3-31.6,1.1c0,0-5.4,2.7-11.3,27c2.2,0,5.7,0.1,10,0c4.3-0.1,8.5-0.2,14.8-0.3
	C89.6,539.8,90.2,540,91,540.4z"/>
<path class="st4" d="M86.3,540.4c41.7,3.7,86.4,6.1,133.7,6.6c62.1,0.6,119.8-2.1,172.5-6.8"/>
<path class="st4" d="M142.5,573.8c29.3,2.4,60.8,4,94.5,4.2c35.4,0.2,68.6-1.3,99.3-3.7"/>
<path class="st3" d="M-156.3,181.3"/>
<path class="st3" d="M-23.7,83.3"/>
<path class="st3" d="M60.5,276.5"/>
<path class="st3" d="M249,153"/>
<path class="st3" d="M333,130.5"/>
<line class="st3" x1="266.2" y1="80.4" x2="266.2" y2="80.4"/>
<path class="st3" d="M234,25"/>
<path class="st3" d="M319.9,173.1"/>
<path class="st3" d="M303,179"/>
<path class="st2" d="M297.4,183.1c0.3,6.7,3,18.7,2.6,22.6c-0.4,4.2-0.9,6.5-2,9c0,0-1.7,4-5,7.5c-40.5,42.8-92,68.5-92,68.5
	c-27.7,15.5-45.3,22.7-56.7,26.5c0,0-20.1,6.6-18.8,11.2c0.1,0.5,1.3,2.5,1.3,2.5c0,0,0.7,0.3,1.8,0.7c8.2,3.3,26.9,10.8,27.5,11
	c17.5,7,55,19.9,94.5,33.7c20,7,30,10.5,36,12.8c22.2,8.2,30.5,11.8,72.5,28c31.8,12.2,27.3,10.2,29,11c12.9,5.7,16.5,8.3,18.3,6.8
	c4.5-3.7-11.3-23.5-26.1-61.5c-1.4-3.5-2.3-6.1-2.6-7.1c-4.2-11.7-8.9-26.8-15.7-59.9c-3.3-16.2-5.6-28.9-5.6-28.9
	c0,0,4.8,26.5,5,26.4c0.2,0-1.3-11.9-5-26.4c-1-4-1-3.6-1.9-7.3c-2.3-9.2-4.2-16.7-4-25c0.1-4.8,0.2-9.6,2.3-14.7
	c5-12.5,17.6-18.1,22.5-20"/>
<path class="st3" d="M341.2,420.9"/>
<path class="st3" d="M55.7,436.3"/>
<path class="st4" d="M300.6,206.1c5.2,4.2,12.8,9.4,22.8,13.5c12.8,5.2,24.3,6.5,31.8,6.7"/>
<path class="st4" d="M295.8,218.9c5.3,4.1,13.6,9.6,24.6,13.8c12.3,4.7,23.1,6,30.2,6.3"/>
<path class="st4" d="M186.1,298.8c22.5,14.8,53.4,32,92.4,45.7c38.3,13.5,72.7,19.3,99.2,21.9"/>
<path class="st5" d="M456,656"/>
<path class="st4" d="M223.7,275.7c16.4,9.5,35.5,19.2,57.3,28c32.2,13.1,62,20.8,87,25.6"/>
<path class="st3" d="M320.9,366.1"/>
<path class="st3" d="M304,372"/>
<path class="st3" d="M482.5,424.5"/>
<line class="st3" x1="264.5" y1="189.1" x2="266.2" y2="189.1"/>
<path class="st2" d="M297.6,179c-0.1-0.2-0.1-0.6,1-2.1c1.2-1.6,2.3-3,3.7-2.9c0.6,0,1.1,0.3,1.2,0.4c0.9,0.6,2.7,0.9,28.1,9.8
	c33.5,11.7,36.7,13.4,39.2,13.8c2.3,0.4,3.9,1.1,7,2.4c0.1,0.1,0.3,0.1,0.5,0.3c1.8,1.5,0.4,6.3,0.4,6.3l0,0c0,0-1.2-0.1-1.6-0.2
	c-1.4-0.2-2.5-0.8-2.9-1c-4-1.9-8.4-2.8-12.6-4.3c-10.1-3.5-22.6-7.9-22.7-7.9c-12-4.2-18-6.3-19.4-6.8c-4.6-1.5-9-3.6-13.6-4.8
	c-2.2-0.6-4.2-1.9-6.5-2.4C298.9,179.8,297.9,179.6,297.6,179z"/>
<path class="st2" d="M336.5,181.7c4.4,1.5,4.4,1.6,11.1,3.9c8.1,2.8,8.3,2.8,13.2,4.5c12.2,4.3,20.4,7.5,20.7,7
	c0.1-0.1-0.3-0.3-1.2-1.1c-1.5-1.3-2.3-2.3-2.7-2.8c-1.4-1.6-7.6-7.6-15.8-13.4c-5.4-3.8-8.1-5.7-11.7-7.3
	c-10.2-4.4-21.4-3.5-23.1-3.4c-0.6,0-2.6,0.2-5.7,0.3c-2.4,0.1-3.8,0.2-7,0.3c-9.1,0.3-11.2,0.5-11.1,0.8c0,0.2,0.5,0.3,1.9,0.7
	c2,0.6,4,1.3,6,1.9c2.4,0.7,3.5,1.1,10.4,3.5C329.1,179.3,328.7,179,336.5,181.7z"/>
<path class="st6" d="M338,519.2c0.1,0.7,2.7,1,4.5,1.2c2.2,0.3,2.5,0,3.3,0.4c1.7,0.9,2.7,3.4,2.3,5.4c-0.4,2-2,2.2-2.2,4.3
	c-0.1,1.4,0.6,2.6,0.9,3.1c0.1,0.1,1.6,2.4,4.1,2.9c2.6,0.5,3.6-1.5,6.5-2.1c4.7-1,11.4,2,13.1,6.4c1.1,2.9-0.4,5.4,1.8,8.9
	c0.6,1,1.1,1.7,1.9,2.1c2.6,1.3,4.9-1.9,9.6-2.2c1.4-0.1,6.2-0.5,9.2,2.4c1.3,1.2,1,1.9,4.4,7.7c1.6,2.7,2.2,3.5,2.9,3.5
	c1.9,0,3.1-5.1,3.2-5.4c1.8-7.5-1.8-16.3-5.6-19.8c-2-1.8-3-2.9-5.1-5.1c-0.7-0.7-1.2-1.4-1.4-1.7c0,0,0-0.1-0.1-0.1c0,0,0,0,0,0
	c0-0.1-0.3-0.4-0.3-0.5c-0.2-0.3,0.2-1,0-1.6c-0.3-0.5-1-0.5-1.4-1.3c0,0,0,0,0,0c-0.7-2-0.6-4-0.5-4.7c-0.3,1.6-0.6,3.4-0.5,3.4
	c0.1,0,0.5-3.7,2-7.8c1.9-5.4,5.3-10.6,8.2-14.9c0.4-0.6,1.3-1.9,1.9-3.9c0.7-2.2,0.6-4,0.6-5c-0.4-10.4-5.4-15.7-5.4-15.7
	c-0.2-0.3-5.1-5.3-12.2-6.1c-1.8-0.2-4.4-0.2-4.4,0c0,0.3,4,1.1,4.1,0.9c0-0.2-2.5-1.3-5.1-1c-0.6,0.1-1.1,0.2-1.5,0.4
	c-0.5,0.2-1.8,0.7-2.5,1.8c-0.9,1.6-0.3,4.1,1.2,5.2c0,0,0,0,0,0c1.7,1,1.9,1.6,2.4,1.5c0.5,0,0.5-0.5,1.4-0.8c0.1,0,0.4-0.1,1-0.2
	c0.6-0.1,0.9-0.2,1-0.2c0.7,0,0.8,0.6,1.4,0.6c0.8,0.1,1.6-0.9,1.6-0.8c0,0-0.7,0.4-0.6,0.7c0.1,0.4,1.2,0.5,4.1,1.1
	c0.8,0.2,1.2,0.3,1.6,0.6c0.6,0.5,1,1.3,1.2,1.8c0,0,0.3,0.6,0.5,1.2c0.7,2.6,0.8,9-3.4,16.6c-3.9,7-8.9,10.6-10,11.3
	c-7.4,5.1-13.9,4.6-14.7,4c-0.3-0.2-1.1-0.7-2.3-1.4c0,0,0,0,0,0c-3.8-2.2-7.8-2.1-9.5-2C344.7,514.6,337.8,517.9,338,519.2z"/>
<path class="st6" d="M398,583.3"/>
<path class="st7" d="M555.1,527.8"/>
<path class="st7" d="M549.1,504.8"/>
<path class="st7" d="M516.2,488.7"/>
<path class="st7" d="M538.4,526.4"/>
<path class="st7" d="M454.8,489.8"/>
<path class="st7" d="M444.5,478"/>
<path class="st7" d="M450.3,518.3"/>
<path class="st7" d="M444.5,467.3"/>
<path class="st7" d="M448.5,486.3"/>
<path class="st6" d="M555.2,473.5"/>
<path class="st8" d="M525.7,526.5c1.6,0.2,3.2,0.3,4.8,0.5"/>
<path class="st9" d="M334.6,525.4c-1.7,0.1-3.9,0.7-8.5,5.1c-3,2.9-8.8,9.2-13.8,20c-1.5,3.2-2.9,6.7-4.1,10c-2.1,5.4-4,10-3.8,10
	c0.2,0.1,1.9-3.2,1.7-3.3c-0.3-0.2-4.4,7.5-11.4,16c-12.2,14.9-22.6,19.3-26.3,20.7c-0.4,0.1-1,0.4-2,0.7c-3.3,1.1-16.1,5-30.3-0.7
	c-13.3-5.3-19.4-15.8-23.6-23.1c-1-1.7-4.4-7.7-4-12.6c0.2-2.3,0.2-4.8,0.9-7c0,0,0.7-2,0.3-3.2c-0.2-0.7-0.7-1.5-0.7-1.5
	c0,0,0.2,0.4,0.4,0.8c-0.6-0.2-1.7-0.4-2.8-0.2c-2.2,0.4-3.9,2.1-7.8,8.5c-2.3,3.8-3.8,5.6-4.3,7.9c-3,12.4-1.2,22-1.2,22
	c3.5,18.9,18,33,20.3,35.1c27,25.7,66.3,23.5,76.1,22.7c0,0,39.2-3.5,77.3-39.8c13.4-13.6,20.1-24.1,23.6-30.7
	c1.6-3,6.1-11.8,5.8-11.9c-0.1,0-0.9,1-0.8,1c0,0,1.3-1,1.3-2.3c0-0.7-0.4-1.1-0.7-1.5c-1.2-1.6-2.1-3.2-3.7-6.2
	c-0.7-1.4-0.9-1.9-1.6-2.5c-0.7-0.6-1.3-0.6-2.7-1c-2.4-0.7-2.1-1-4-1.5c-0.7-0.2-2.3-0.6-4.5-0.6c-0.2,0-0.4,0-0.6,0
	c-1,0.1-1.6,0.2-1.8,0.2c-1,0.1-4.2,0.6-6.3-0.5c-0.6-0.3-1.3-0.8-2.9-4.5c-2.3-5-1.6-5.6-2.8-7.2c-2.9-4.1-9.6-4.3-10.6-4.3
	c-2.4-0.1-3.6,0.5-9.1,0.5c-0.8,0-3.5,0-4.9-1.5c-0.2-0.2-0.7-0.7-0.7-1.5c0-0.8,0.6-1.4,0.8-1.7c1.2-1.3,2.5-3.6,2.6-4.8
	C343.6,528.9,339.1,525.3,334.6,525.4z"/>
<path class="st9" d="M231.2,641"/>
<path class="st10" d="M328.2,560.4c-0.1-1.5-1.3-2.1-1.5-2.2c-2.5-1.2-6.2,2.4-6.5,2.8c-0.8,0.8-1.5,1.7-4.8,8.6
	c-3.7,7.7-3.6,8.3-5,9.6c-1.1,1.1-2.6,2-3.6,4.3c-0.3,0.7-0.8,1.8-0.6,3c0.2,0.9,0.8,1.6,1.4,1.7c1.7,0.5,4-2.5,5.3-4.2
	c0.8-1.1,2.5-3.5,6.6-12.4c1.7-3.8,2.9-6.6,4.7-7.1c0.8-0.2,1.6,0.1,2.5-0.7C327.4,563,328.3,561.7,328.2,560.4z"/>
<path class="st10" d="M297.3,596.7c-1.6-1.4-4.3-0.2-4.5-0.1c-2.1,1-1.9,2.5-4.2,4.5c-2.9,2.6-4.6,1.3-7,4c-0.5,0.5-2.7,2.9-2.2,5.2
	c0.4,2.1,2.7,3.4,4.7,3.4c2.1,0.1,2.6-1.3,8.7-5.6c2.8-2,3.4-2.2,4.2-3.5C298.4,602.2,299.1,598.3,297.3,596.7z"/>
<path class="st9" d="M334.9,534.9"/>
<path class="st9" d="M140.1,587.6"/>
</svg>
