<?xml version="1.0" encoding="utf-8"?>
<!-- Generator: Adobe Illustrator 22.1.0, SVG Export Plug-In . SVG Version: 6.00 Build 0)  -->
<svg version="1.1" id="Calque_1" xmlns="http://www.w3.org/2000/svg" xmlns:xlink="http://www.w3.org/1999/xlink" x="0px" y="0px"
	 viewBox="0 0 427.7 506" style="enable-background:new 0 0 427.7 506;" xml:space="preserve">
<style type="text/css">
	.st0{fill:#FFFFFF;stroke:#000000;stroke-miterlimit:10;}
	.st1{fill:#C46F1A;}
	.st2{fill:#3D2312;}
	.st3{fill:none;stroke:#000000;stroke-miterlimit:10;}
	.st4{fill:#62400E;}
	.st5{fill:#223C1D;stroke:#000000;stroke-miterlimit:10;}
	.st6{fill:#2DAA57;}
	.st7{fill:#235627;}
	.st8{fill:#E73C2B;}
	.st9{fill:#E73E2A;}
	.st10{fill:#123A1E;}
	.st11{fill:#AF1917;}
	.st12{fill:#BC181B;}
	.st13{fill:#AF1917;stroke:#BC181B;stroke-miterlimit:10;}
	.st14{fill:#E73E2A;stroke:#D71016;stroke-miterlimit:10;}
	.st15{fill:#C46F1A;stroke:#944E19;stroke-miterlimit:10;}
	.st16{fill:#A06714;stroke:#6B400F;stroke-miterlimit:10;}
	.st17{fill:#FFFFFF;stroke:#FFFFFF;stroke-miterlimit:10;}
</style>
<path class="st0" d="M167.6,251.5"/>
<path class="st1" d="M190.8,380.4c17.9,0.1,17.9,0.3,44.7,0.6c32.8,0.3,33.5,0,53.3,0.3c49.3,0.6,82.9,3,83.3,0
	c0.1-0.6-1.4-0.9-5.8-3.5c-7-4.1-11.1-7.8-13.3-9.6c-6.9-5.6-36.7-25.5-73.4-40.7c-24-9.9-36.1-14.9-51.2-16.6
	c-42-4.6-81.3,18.9-87.4,22.4c-2.3,1.3-9.3,5.3-20.1,11.3c-8.4,4.6-13.6,7.3-24.9,13.4c-32.6,17.3-39.7,21.3-38.9,22.9
	c0.4,0.7,2.3,0.6,7.5,0.3c8-0.4,16,0,23.9-0.6c9.6-0.7,13.9-0.2,41.7,0C161.1,380.9,159.4,380.2,190.8,380.4z"/>
<path class="st2" d="M379.3,320.9c0.3,0.8,0.4,2.3-3.7,7.5c-4.5,5.7-8.5,10.7-13.6,10.4c-2.3-0.1-3.9-1.3-4.4-1.6
	c-3.4-2.3-9.9-3.5-101.5-37.5c-121.3-44.9-132.7-51.3-141.7-53c-8.4-1.6-14-4.2-25.3-9.3c-0.5-0.2-1.2-0.5-1.8-1.1
	c-6.5-5.6-1-23-1-23l0,0c0,0,4.5,0.6,5.8,0.8c5.1,0.8,9.1,2.9,10.6,3.7c14.5,7.2,30.5,10.8,45.7,16.4c36.6,13.5,81.7,30.2,82,30.3
	c43.4,16,65,24,70.3,25.9c16.5,5.9,32.4,13.7,49.4,18.2c8.1,2.2,15.2,7.4,23.3,9.1C375,318,378.5,318.6,379.3,320.9z"/>
<path class="st3" d="M0,443.2"/>
<path class="st4" d="M62.7,416.4c3.8,2,3.4,5,9.5,11.3c1.9,1.9,3.5,3.2,5.2,4.7c4.2,3.5,8,5.8,10.6,7.3c3.7,2.3,10.9,6.6,17.5,8.3
	c9.2,2.3,10.1,2.5,10.3,2.3c0.2-0.4,1.6-0.2,2.5,0.5c0.8,0.7,0.6,1.7,1,3.5c0.3,1.3,0.6,1.8,1.4,3.6c2.2,5.2,1.8,6.8,3.8,10.9
	c1.1,2.1,1.6,3.1,2.5,4c4.1,3.9,10.8,2.8,12.7,2.5c20.2-2.8,157.5-0.1,159-0.3c1.2-0.6,2.9-1.5,4.5-3.3c3.6-3.9,4.3-9.1,4.8-12.3
	c0.7-5-0.2-7.1,1.5-8.8c1.9-1.9,5.2-1.4,6.3-1.3c0,0,10.1,1.1,46-32c1.5-0.3,4-0.8,7.3-1.3c0,0,7.1-0.9,25.5-0.3
	c0.3-1.9,0.4-4.3,0.3-7.3c-0.1-1.1-0.3-3.4-1.3-7.3c-1.9-7.8-2.9-11.7-5.8-13c-1.2-0.6-1.8-0.3-6.8,0c-3.1,0.2-6.2,0.3-9.3,0.3
	c-161.7,0-308.9-0.5-301.4-0.6c1.8,0-26.9-1.3-31.6,1.1c0,0-5.4,2.7-11.3,27c2.2,0,5.7,0.1,10,0c4.3-0.1,8.5-0.2,14.8-0.3
	C61.3,415.8,61.9,416,62.7,416.4z"/>
<path class="st2" d="M58,416.4c41.7,3.7,86.4,6.1,133.7,6.6c62.1,0.6,119.8-2.1,172.5-6.8"/>
<path class="st2" d="M114.2,449.8c29.3,2.4,60.8,4,94.5,4.2c35.4,0.2,68.6-1.3,99.3-3.7"/>
<path class="st3" d="M-217.6,74.3"/>
<path class="st3" d="M-85-23.7"/>
<path class="st3" d="M32.2,152.5"/>
<path class="st3" d="M220.7,29"/>
<path class="st3" d="M304.7,6.5"/>
<line class="st3" x1="217.9" y1="-26.6" x2="217.9" y2="-26.6"/>
<path class="st3" d="M185.7-82"/>
<path class="st3" d="M291.6,49.1"/>
<path class="st3" d="M274.7,55"/>
<path class="st4" d="M269.1,59.1c0.3,6.7,3,18.7,2.6,22.6c-0.4,4.2-0.9,6.5-2,9c0,0-1.7,4-5,7.5c-40.5,42.8-92,68.5-92,68.5
	c-27.7,15.5-45.3,22.7-56.7,26.5c0,0-20.1,6.6-18.8,11.2c0.1,0.5,1.3,2.5,1.3,2.5c0,0,0.7,0.3,1.8,0.7c8.2,3.3,26.9,10.8,27.5,11
	c17.5,7,55,19.9,94.5,33.7c20,7,30,10.5,36,12.8c22.2,8.2,30.5,11.8,72.5,28c31.8,12.2,27.3,10.2,29,11c12.9,5.7,16.5,8.3,18.3,6.8
	c4.5-3.7-11.3-23.5-26.1-61.5c-1.4-3.5-2.3-6.1-2.6-7.1c-4.2-11.7-8.9-26.8-15.7-59.9c-3.3-16.2-5.6-28.9-5.6-28.9
	c0,0,4.8,26.5,5,26.4c0.2,0-1.3-11.9-5-26.4c-1-4-1-3.6-1.9-7.3c-2.3-9.2-4.2-16.7-4-25c0.1-4.8,0.2-9.6,2.3-14.7
	c5-12.5,17.6-18.1,22.5-20"/>
<path class="st3" d="M312.9,296.9"/>
<path class="st3" d="M27.4,312.3"/>
<path class="st2" d="M272.3,82.1c5.2,4.2,12.8,9.4,22.8,13.5c12.8,5.2,24.3,6.5,31.8,6.7"/>
<path class="st2" d="M267.5,94.9c5.3,4.1,13.6,9.6,24.6,13.8c12.3,4.7,23.1,6,30.2,6.3"/>
<path class="st2" d="M157.8,174.8c22.5,14.8,53.4,32,92.4,45.7c38.3,13.5,72.7,19.3,99.2,21.9"/>
<path class="st5" d="M407.7,549"/>
<path class="st2" d="M200.1,152.3c15.4,9.5,33.4,19.2,54.1,27.7c30.6,12.6,59.1,19.5,83.2,23.3"/>
<path class="st3" d="M292.6,242.1"/>
<path class="st3" d="M275.7,248"/>
<path class="st3" d="M434.2,317.5"/>
<line class="st3" x1="236.2" y1="65.1" x2="237.9" y2="65.1"/>
<path class="st2" d="M269.4,55c-0.1-0.2-0.1-0.6,1-2.1c1.2-1.6,2.3-3,3.7-2.9c0.6,0,1.1,0.3,1.2,0.4c0.9,0.6,2.7,0.9,28.1,9.8
	c33.5,11.7,36.7,13.4,39.2,13.8c2.3,0.4,3.9,1.1,7,2.4c0.1,0.1,0.3,0.1,0.5,0.3c1.8,1.5,0.4,6.3,0.4,6.3l0,0c0,0-1.2-0.1-1.6-0.2
	c-1.4-0.2-2.5-0.8-2.9-1c-4-1.9-8.4-2.8-12.6-4.3c-10.1-3.5-22.6-7.9-22.7-7.9c-12-4.2-18-6.3-19.4-6.8c-4.6-1.5-9-3.6-13.6-4.8
	c-2.2-0.6-4.2-1.9-6.5-2.4C270.6,55.8,269.6,55.6,269.4,55z"/>
<path class="st4" d="M308.2,57.7c4.4,1.5,4.4,1.6,11.1,3.9c8.1,2.8,8.3,2.8,13.2,4.5c12.2,4.3,20.4,7.5,20.7,7
	c0.1-0.1-0.3-0.3-1.2-1.1c-1.5-1.3-2.3-2.3-2.7-2.8c-1.4-1.6-7.6-7.6-15.8-13.4c-5.4-3.8-8.1-5.7-11.7-7.3
	c-10.2-4.4-21.4-3.5-23.1-3.4c-0.6,0-2.6,0.2-5.7,0.3c-2.4,0.1-3.8,0.2-7,0.3c-9.1,0.3-11.2,0.5-11.1,0.8c0,0.2,0.5,0.3,1.9,0.7
	c2,0.6,4,1.3,6,1.9c2.4,0.7,3.5,1.1,10.4,3.5C300.8,55.3,300.4,55,308.2,57.7z"/>
<path class="st6" d="M369.7,459.3"/>
<path class="st7" d="M506.8,420.8"/>
<path class="st7" d="M500.8,397.8"/>
<path class="st7" d="M467.9,381.7"/>
<path class="st7" d="M490.1,419.4"/>
<path class="st7" d="M295.2,366.5"/>
<path class="st7" d="M284.9,354.7"/>
<path class="st7" d="M422,394.3"/>
<path class="st7" d="M416.2,343.3"/>
<path class="st7" d="M288.9,363"/>
<path class="st6" d="M506.9,366.5"/>
<path class="st8" d="M477.4,419.5c1.6,0.2,3.2,0.3,4.8,0.5"/>
<path class="st9" d="M182.9,534"/>
<path class="st9" d="M306.6,410.9"/>
<path class="st9" d="M111.8,463.6"/>
<path class="st0" d="M298,345.4"/>
<path class="st3" d="M326.7,354.3"/>
<path class="st10" d="M325,336.1c0,0.2,0.8,0.3,1.4,0.4c0.7,0.1,0.8,0,1,0.1c0.5,0.3,0.8,1,0.7,1.7c-0.1,0.6-0.6,0.7-0.7,1.3
	c0,0.4,0.2,0.8,0.3,0.9c0,0,0.5,0.7,1.2,0.9c0.8,0.2,1.1-0.4,2-0.6c1.4-0.3,3.5,0.6,4,1.9c0.3,0.9-0.1,1.6,0.6,2.7
	c0.2,0.3,0.3,0.5,0.6,0.6c0.8,0.4,1.5-0.6,2.9-0.7c0.4,0,1.9-0.1,2.8,0.7c0.4,0.4,0.3,0.6,1.3,2.3c0.5,0.8,0.7,1.1,0.9,1.1
	c0.6,0,1-1.6,1-1.6c0.6-2.3-0.5-5-1.7-6c-0.6-0.5-0.9-0.9-1.5-1.5c-0.2-0.2-0.4-0.4-0.4-0.5c0,0,0,0,0,0c0,0,0,0,0,0
	c0-0.1-0.1-0.1-0.1-0.1c0-0.1-0.1-0.1-0.2-0.3c-0.1-0.1-0.1-0.2-0.2-0.6l0,0c-0.2-0.6-0.2-1.2-0.2-1.4c-0.1,0.5-0.2,1-0.2,1
	c0,0,0.2-1.1,0.6-2.4c0.6-1.6,1.6-3.2,2.5-4.5c0.1-0.2,0.4-0.6,0.6-1.2c0.2-0.7,0.2-1.2,0.2-1.5c-0.1-3.1-1.6-4.8-1.6-4.8
	c-0.1-0.1-1.5-1.6-3.7-1.9c-0.6-0.1-1.3-0.1-1.3,0c0,0.1,1.2,0.3,1.2,0.3c0,0-0.7-0.4-1.5-0.3c-0.2,0-0.3,0.1-0.5,0.1
	c-0.2,0.1-0.6,0.2-0.7,0.5c-0.3,0.5-0.1,1.2,0.4,1.6c0,0,0,0,0,0c0,0,0.1,0.2,0.3,0.2c0.1,0,0.3,0,0.3,0c0.2,0.1,0.3,0.1,0.3,0.1
	c0,0-0.3-0.1-0.3-0.1c0,0,0.2,0.1,0.5,0c0,0,0.2,0,0.3-0.1c0.3-0.1,0.2,0,0.3-0.1c0.2,0,0.3,0,0.5,0c0.3,0,0.2-0.1,0.4-0.1
	c0.2,0,0.3,0.1,0.6,0.2c0.1,0.1,0.3,0.1,0.3,0.1c0.1,0,0.1,0.1,0.2,0.1c0.4,0.2,0.3,0.2,0.4,0.3c0.2,0.2,0.3,0.4,0.4,0.5
	c0,0,0.1,0.2,0.1,0.4c0.2,0.8,0.2,2.7-1,5c-1.2,2.1-2.7,3.2-3,3.4c-2.3,1.6-4.2,1.4-4.5,1.2c-0.1-0.1-0.3-0.2-0.7-0.4c0,0,0,0,0,0
	c-1.2-0.7-2.4-0.6-2.9-0.6C327,334.7,324.9,335.7,325,336.1z"/>
<path class="st6" d="M337.4,325.6"/>
<path class="st6" d="M343.2,355.5"/>
<g>
	<path class="st11" d="M323.9,338c-0.5,0-1.2,0.2-2.6,1.6c-0.9,0.9-2.7,2.8-4.2,6.1c-0.8,1.7-1.3,3-1.3,3c-0.2,0.4-0.5,1.3-1.2,2.4
		c-0.1,0.1-0.1,0.2-0.2,0.4c-0.2,0.3-1.5,2.6-2.7,4.1c-1,1.4-3.5,4.7-8,6.3c-0.1,0-0.3,0.1-0.6,0.2c-1,0.3-4.9,1.5-9.2-0.2
		c-4-1.6-5.9-4.8-7.2-7c-0.3-0.5-1.3-2.3-1.2-3.8c0.1-0.7,0-1.4,0.3-2.1c0,0,0.2-0.6,0.1-1c-0.1-0.2-0.2-0.4-0.2-0.4c0,0,0,0,0,0
		c-0.1-0.1-0.3-0.1-0.5,0c-0.1,0-0.2,0.1-0.3,0.2c-0.3,0.2-1.4,0.9-2.4,2.6c-0.7,1.2-1.1,1.7-1.3,2.4c-0.9,3.8-0.4,6.7-0.4,6.7
		c1.1,5.7,5.5,10,6.1,10.7c8.2,7.8,20.1,7.1,23.1,6.9c0,0,11.9-1.1,23.5-12.1c0,0,0,0,0,0c2.5-2.3,5-5,7.2-8.3
		c0.2-0.3,0.5-0.7,0.7-1c0.2-0.5,0.4-0.9,0.7-1.4c0.1-0.2,0.2-0.4,0.3-0.7c0.1-0.3,0.2-0.6,0.3-0.9c0-0.2,0-0.4-0.1-0.5
		c0-0.2-0.1-0.3-0.1-0.5c0-0.1,0-0.1-0.1-0.1c0-0.1,0-0.2,0-0.3c-0.1-0.3-0.2-0.5-0.4-0.7c-0.2-0.3-0.4-0.7-0.8-1.2
		c-0.2-0.2-0.3-0.4-0.5-0.6c-0.2-0.2-0.4-0.4-0.8-0.5c-0.2-0.1-0.3-0.1-0.5-0.2c-0.1-0.1-0.2-0.1-0.4-0.2c-0.1,0-0.2-0.1-0.3-0.1
		c-0.2-0.1-0.7-0.2-1.4-0.2c-0.1,0-0.1,0-0.2,0c-0.3,0-0.5,0-0.5,0.1c-0.3,0-1.3,0.2-1.9-0.1c-0.2-0.1-0.4-0.3-0.9-1.4
		c-0.7-1.5-0.5-1.7-0.8-2.2c-0.9-1.3-2.9-1.3-3.2-1.3c-0.7,0-1.1,0.1-2.7,0.2c-0.3,0-1.1,0-1.5-0.5c-0.1-0.1-0.2-0.2-0.2-0.4
		c0-0.3,0.2-0.5,0.4-0.8c0.2-0.3,0.6-0.8,0.6-1.2C326.6,339,325.2,337.9,323.9,338z"/>
	<g>
		<path class="st12" d="M322.3,332.2c-9.7,1.8-10.8,15.5-16.7,21.4c-3.5,3.4-8.8,4.6-12.3,0.4c-2.6-3.2-0.6-6-2.4-9.5
			c-1-1.9-3.1-2.9-5.2-3c-5.2-0.2-9.3,6-10.4,10.4c-1.4,6-0.1,12.1,3.3,17.1c6.3,9.5,17.2,13.9,28.3,13.9c7.9,0,15.6-2.9,22.2-7.1
			c5.7-3.6,10.9-8.3,15-13.7c1.8-2.3,3.5-4.8,4.3-7.7c0.3-1.2,0.2-2.1,0.2-3.3c0,0-0.4-2.3-0.2-0.7c0.3,1.5-0.3-1.4-0.4-1.7
			c-1.1-3.1-3.4-5.1-6.3-6.4c1.3,0.6-1.5-0.4-2-0.6c-1.6-0.3-3.9-0.9-1.6,0.7c2.3,1.6,1.1-0.3,0.3-1.6c-1-1.6-2.7-2.8-4.4-3.5
			c-1.3-0.5-2.6-0.8-4-0.8c-0.4,0-0.7,0-1.1,0.1c-3.5,0.4,0.3-1.1,1.8,2.2c0,2,0,4,0,6.1c3.1-5.4,1.3-11.2-5.2-12.6
			c-7.5-1.6-10.8,10-3.2,11.6c-0.3-0.3-0.6-0.6-0.9-1c-0.2-1.5-0.4-3.1-0.6-4.6c-0.6,1.9-2,4.2-0.2,7c1.4,2.3,4.1,3.4,6.7,3.4
			c0.3,0,2.6-0.1,2.6-0.2c0.1-0.4-3.3-3.9-1,0.5c1.2,2.3,2.9,3.8,5.6,4.3c1.1,0.2,1.9,0,3,0.1c0.5,0,0.3-0.1-0.7-0.4
			c1.6,0.7,1.9,0.8,0.9,0.4c-0.9-0.2-1.3-0.9-1-2.2c0,0.6,0.1,1.2,0.3,1.7c0.5-3.1,0-1.3-1.1,0.4c-3.4,5.4-9.1,10.1-14.6,13.3
			c-3.7,2.1-7.5,3.4-11.6,4.3c-1.2,0.2,1-0.1,0.7-0.1c-0.6,0-1.1,0.1-1.7,0.1c-2.1,0-4.2,0-6.3-0.3c-4.9-0.8-9.7-2.9-12.7-7
			c-0.7-0.9-1.4-2-1.9-3.1c-0.1-0.3-0.9-4.1-0.8-2.2c-0.1-1.4,0.4-2.9,0.3-4.2c-0.2-2.3,3.8-0.5-1.4-0.7c-1.7-1-3.5-2-5.2-3
			c0.5,1,0.3-0.1-0.5-3.2c-0.2,0.9-0.3,1.8-0.4,2.6c-0.1,1.7,0.1,3.3,0.6,4.9c0.8,2.5,2.4,4.9,4.1,7c4.8,5.9,12.6,8.2,19.8,6.2
			c5.9-1.6,10.3-5.7,13.7-10.7c1.6-2.3,2.7-4.6,3.8-7.1c0.6-1.3,2.3-6.2,3.8-6.5C333.1,342.3,329.9,330.7,322.3,332.2z"/>
	</g>
</g>
<ellipse class="st13" cx="288" cy="353.5" rx="0.8" ry="0.7"/>
<path class="st14" d="M340.9,339.1"/>
<path class="st9" d="M292.5,373.1"/>
<path class="st9" d="M324,340.8"/>
<path class="st15" d="M105.7,358.5c-0.5,0.1-1.8,0.4-2.5,1.7c-0.7,1.4-0.3,3.2,0.9,4.3c1.5,1.3,3.8,0.9,5-0.4
	c0.8-0.9,1.2-2.3,0.7-3.6C109.2,358.7,107.2,358.2,105.7,358.5z"/>
<path class="st15" d="M120.4,353.3c-0.5,0.1-1.8,0.4-2.5,1.7c-0.7,1.4-0.3,3.2,0.9,4.3c1.5,1.3,3.8,0.9,5-0.4
	c0.8-0.9,1.2-2.3,0.7-3.6C123.8,353.5,121.8,353,120.4,353.3z"/>
<path class="st15" d="M120.3,365.3c-0.5,0.1-1.9,0.5-2.6,1.8c-0.8,1.5-0.3,3.5,1,4.6c1.6,1.3,4.1,1,5.4-0.5c0.9-1,1.3-2.5,0.7-3.8
	C124,365.6,121.9,365.1,120.3,365.3z"/>
<path class="st15" d="M131.2,344.2c-0.5,0.1-1.9,0.5-2.6,1.8c-0.8,1.5-0.3,3.5,1,4.6c1.6,1.3,4.1,1,5.4-0.5c0.9-1,1.3-2.5,0.7-3.8
	C134.8,344.5,132.7,343.9,131.2,344.2z"/>
<path class="st16" d="M132.7,358.4c-0.3,0.1-1.3,0.3-1.8,1.2c-0.5,1-0.2,2.3,0.6,3.1c1.1,0.9,2.7,0.7,3.6-0.3
	c0.6-0.6,0.9-1.7,0.5-2.6C135.2,358.6,133.7,358.2,132.7,358.4z"/>
<path class="st16" d="M141.9,368.9c-0.2-0.1-1-0.3-1.3-1.1c-0.4-0.9-0.2-2.1,0.5-2.7c0.8-0.8,2.1-0.6,2.7,0.3
	c0.4,0.6,0.6,1.5,0.4,2.3C143.8,368.7,142.7,369,141.9,368.9z"/>
<path class="st15" d="M134.5,374.7c-0.4-0.1-1.6-0.4-2.1-1.7c-0.6-1.4-0.3-3.3,0.8-4.4c1.3-1.3,3.3-0.9,4.4,0.5
	c0.7,0.9,1.1,2.4,0.6,3.7C137.4,374.4,135.7,374.9,134.5,374.7z"/>
<path class="st15" d="M142.3,346.3c-0.5-0.1-1.9-0.5-2.6-2.1c-0.8-1.8-0.3-4.1,1-5.4c1.6-1.6,4.1-1.2,5.4,0.6
	c0.9,1.1,1.3,2.9,0.7,4.5C146,345.9,143.9,346.6,142.3,346.3z"/>
<path class="st16" d="M139,357.5c-0.2,0-0.6-0.2-0.8-0.7c-0.2-0.5-0.1-1.3,0.3-1.7c0.5-0.5,1.3-0.4,1.7,0.2c0.3,0.4,0.4,0.9,0.2,1.4
	C140.2,357.4,139.5,357.6,139,357.5z"/>
<path class="st16" d="M111.1,371.2c-0.2,0-0.6-0.2-0.8-0.7c-0.2-0.5-0.1-1.3,0.3-1.7c0.5-0.5,1.3-0.4,1.7,0.2
	c0.3,0.4,0.4,0.9,0.2,1.4C112.2,371.1,111.6,371.3,111.1,371.2z"/>
<path class="st16" d="M129.1,357c-0.2,0-0.6-0.2-0.8-0.7c-0.2-0.5-0.1-1.3,0.3-1.7c0.5-0.5,1.3-0.4,1.7,0.2c0.3,0.4,0.4,0.9,0.2,1.4
	C130.2,356.9,129.6,357.1,129.1,357z"/>
<path class="st16" d="M143.3,354.8c-0.2,0-0.6-0.2-0.8-0.7c-0.2-0.5-0.1-1.3,0.3-1.7c0.5-0.5,1.3-0.4,1.7,0.2
	c0.3,0.4,0.4,0.9,0.2,1.4C144.4,354.7,143.8,354.9,143.3,354.8z"/>
<path class="st16" d="M142.9,361c-0.2,0-0.6-0.2-0.8-0.7c-0.2-0.5-0.1-1.3,0.3-1.7c0.5-0.5,1.3-0.4,1.7,0.2c0.3,0.4,0.4,0.9,0.2,1.4
	C144.1,360.9,143.4,361.1,142.9,361z"/>
<path class="st16" d="M147.7,365.4c-0.2-0.1-1-0.3-1.3-1.1c-0.4-0.9-0.2-2.1,0.5-2.7c0.8-0.8,2.1-0.6,2.7,0.3
	c0.4,0.6,0.6,1.5,0.4,2.3C149.5,365.2,148.5,365.5,147.7,365.4z"/>
<path class="st16" d="M151.6,356.9c-0.2-0.1-1-0.3-1.3-1.1c-0.4-0.9-0.2-2.1,0.5-2.7c0.8-0.8,2.1-0.6,2.7,0.3
	c0.4,0.6,0.6,1.5,0.4,2.3C153.4,356.8,152.3,357.1,151.6,356.9z"/>
<path class="st16" d="M143.9,376.1c-0.2-0.1-1-0.3-1.3-1.1c-0.4-0.9-0.2-2.1,0.5-2.7c0.8-0.8,2.1-0.6,2.7,0.3
	c0.4,0.6,0.6,1.5,0.4,2.3C145.7,376,144.6,376.3,143.9,376.1z"/>
<path class="st16" d="M151.6,376.2c-0.2-0.1-1-0.3-1.3-1.1c-0.4-0.9-0.2-2.1,0.5-2.7c0.8-0.8,2.1-0.6,2.7,0.3
	c0.4,0.6,0.6,1.5,0.4,2.3C153.4,376,152.3,376.4,151.6,376.2z"/>
<path class="st15" d="M153.1,349.1c-0.5-0.1-1.9-0.5-2.6-2.1c-0.8-1.8-0.3-4.1,1-5.4c1.6-1.6,4.1-1.2,5.4,0.6
	c0.9,1.1,1.3,2.9,0.7,4.5C156.8,348.8,154.6,349.4,153.1,349.1z"/>
<path class="st16" d="M153.5,368.9c-0.2-0.1-1-0.3-1.3-1.1c-0.4-0.9-0.2-2.1,0.5-2.7c0.8-0.8,2.1-0.6,2.7,0.3
	c0.4,0.6,0.6,1.5,0.4,2.3C155.3,368.7,154.3,369,153.5,368.9z"/>
<path class="st16" d="M102.2,374.7c-0.4-0.1-1.6-0.4-2.1-1.7c-0.6-1.4-0.3-3.3,0.8-4.4c1.3-1.3,3.3-0.9,4.4,0.5
	c0.7,0.9,1.1,2.4,0.6,3.7C105.2,374.4,103.5,374.9,102.2,374.7z"/>
<path class="st15" d="M92.5,365.6c-0.5,0.1-1.8,0.4-2.5,1.7c-0.7,1.4-0.3,3.2,0.9,4.3c1.5,1.3,3.8,0.9,5-0.4
	c0.8-0.9,1.2-2.3,0.7-3.6C95.9,365.8,93.9,365.3,92.5,365.6z"/>
<path class="st16" d="M84.2,373.4c-0.4,1-1.5,1.4-2.2,1.2c-0.2-0.1-1-0.3-1.3-1.1"/>
<path class="st15" d="M155,336.3c-0.5-0.1-1.9-0.5-2.6-2.1c-0.8-1.8-0.3-4.1,1-5.4c1.6-1.6,4.1-1.2,5.4,0.6c0.9,1.1,1.3,2.9,0.7,4.5
	C158.7,336,156.6,336.6,155,336.3z"/>
<path class="st16" d="M158.1,357.4c0.8-0.8,2.1-0.6,2.7,0.3c0.4,0.6,0.6,1.5,0.4,2.3"/>
<path class="st15" d="M166.8,352c-0.5-0.1-1.9-0.5-2.6-2.1c-0.8-1.8-0.3-4.1,1-5.4c1.6-1.6,4.1-1.2,5.4,0.6c0.9,1.1,1.3,2.9,0.7,4.5
	C170.5,351.7,168.4,352.4,166.8,352z"/>
<path class="st15" d="M162.9,372c-0.5-0.1-1.9-0.5-2.6-2.1c-0.8-1.8-0.3-4.1,1-5.4c1.6-1.6,4.1-1.2,5.4,0.6c0.9,1.1,1.3,2.9,0.7,4.5
	C166.6,371.7,164.5,372.3,162.9,372z"/>
<path class="st15" d="M186.3,350.7c-0.5,0.1-1.8,0.4-2.5,1.7c-0.7,1.4-0.3,3.2,0.9,4.3c1.5,1.3,3.8,0.9,5-0.4
	c0.8-0.9,1.2-2.3,0.7-3.6C189.7,351,187.7,350.5,186.3,350.7z"/>
<path class="st15" d="M200.9,345.5c-0.5,0.1-1.8,0.4-2.5,1.7c-0.7,1.4-0.3,3.2,0.9,4.3c1.5,1.3,3.8,0.9,5-0.4
	c0.8-0.9,1.2-2.3,0.7-3.6C204.3,345.8,202.3,345.3,200.9,345.5z"/>
<path class="st15" d="M200.8,357.6c-0.5,0.1-1.9,0.5-2.6,1.8c-0.8,1.5-0.3,3.5,1,4.6c1.6,1.3,4.1,1,5.4-0.5c0.9-1,1.3-2.5,0.7-3.8
	C204.5,357.9,202.4,357.3,200.8,357.6z"/>
<path class="st15" d="M211.7,336.5c-0.5,0.1-1.9,0.5-2.6,1.8c-0.8,1.5-0.3,3.5,1,4.6c1.6,1.3,4.1,1,5.4-0.5c0.9-1,1.3-2.5,0.7-3.8
	C215.4,336.8,213.2,336.2,211.7,336.5z"/>
<path class="st16" d="M213.2,350.7c-0.3,0.1-1.3,0.3-1.8,1.2c-0.5,1-0.2,2.3,0.6,3.1c1.1,0.9,2.7,0.7,3.6-0.3
	c0.6-0.6,0.9-1.7,0.5-2.6C215.7,350.9,214.3,350.5,213.2,350.7z"/>
<path class="st16" d="M222.5,361.1c-0.2-0.1-1-0.3-1.3-1.1c-0.4-0.9-0.2-2.1,0.5-2.7c0.8-0.8,2.1-0.6,2.7,0.3
	c0.4,0.6,0.6,1.5,0.4,2.3C224.3,361,223.2,361.3,222.5,361.1z"/>
<path class="st15" d="M215,366.9c-0.4-0.1-1.6-0.4-2.1-1.7c-0.6-1.4-0.3-3.3,0.8-4.4c1.3-1.3,3.3-0.9,4.4,0.5
	c0.7,0.9,1.1,2.4,0.6,3.7C218,366.7,216.2,367.2,215,366.9z"/>
<path class="st15" d="M222.9,338.5c-0.5-0.1-1.9-0.5-2.6-2.1c-0.8-1.8-0.3-4.1,1-5.4c1.6-1.6,4.1-1.2,5.4,0.6
	c0.9,1.1,1.3,2.9,0.7,4.5C226.6,338.2,224.4,338.9,222.9,338.5z"/>
<path class="st16" d="M219.6,349.8c-0.2,0-0.6-0.2-0.8-0.7c-0.2-0.5-0.1-1.3,0.3-1.7c0.5-0.5,1.3-0.4,1.7,0.2
	c0.3,0.4,0.4,0.9,0.2,1.4C220.7,349.7,220.1,349.9,219.6,349.8z"/>
<path class="st16" d="M191.6,363.5c-0.2,0-0.6-0.2-0.8-0.7c-0.2-0.5-0.1-1.3,0.3-1.7c0.5-0.5,1.3-0.4,1.7,0.2
	c0.3,0.4,0.4,0.9,0.2,1.4C192.8,363.4,192.1,363.6,191.6,363.5z"/>
<path class="st16" d="M209.6,349.3c-0.2,0-0.6-0.2-0.8-0.7c-0.2-0.5-0.1-1.3,0.3-1.7c0.5-0.5,1.3-0.4,1.7,0.2
	c0.3,0.4,0.4,0.9,0.2,1.4C210.8,349.2,210.1,349.4,209.6,349.3z"/>
<path class="st16" d="M223.8,347c-0.2,0-0.6-0.2-0.8-0.7c-0.2-0.5-0.1-1.3,0.3-1.7c0.5-0.5,1.3-0.4,1.7,0.2c0.3,0.4,0.4,0.9,0.2,1.4
	C225,346.9,224.3,347.1,223.8,347z"/>
<path class="st16" d="M223.4,353.3c-0.2,0-0.6-0.2-0.8-0.7c-0.2-0.5-0.1-1.3,0.3-1.7c0.5-0.5,1.3-0.4,1.7,0.2
	c0.3,0.4,0.4,0.9,0.2,1.4C224.6,353.2,223.9,353.4,223.4,353.3z"/>
<path class="st16" d="M228.2,357.6c-0.2-0.1-1-0.3-1.3-1.1c-0.4-0.9-0.2-2.1,0.5-2.7c0.8-0.8,2.1-0.6,2.7,0.3
	c0.4,0.6,0.6,1.5,0.4,2.3C230.1,357.5,229,357.8,228.2,357.6z"/>
<path class="st16" d="M232.1,349.2c-0.2-0.1-1-0.3-1.3-1.1c-0.4-0.9-0.2-2.1,0.5-2.7c0.8-0.8,2.1-0.6,2.7,0.3
	c0.4,0.6,0.6,1.5,0.4,2.3C233.9,349,232.9,349.3,232.1,349.2z"/>
<path class="st15" d="M233.6,341.4c-0.5-0.1-1.9-0.5-2.6-2.1c-0.8-1.8-0.3-4.1,1-5.4c1.6-1.6,4.1-1.2,5.4,0.6
	c0.9,1.1,1.3,2.9,0.7,4.5C237.3,341,235.2,341.7,233.6,341.4z"/>
<path class="st16" d="M234,361.1c-0.2-0.1-1-0.3-1.3-1.1c-0.4-0.9-0.2-2.1,0.5-2.7c0.8-0.8,2.1-0.6,2.7,0.3c0.4,0.6,0.6,1.5,0.4,2.3
	C235.9,361,234.8,361.3,234,361.1z"/>
<path class="st16" d="M182.8,366.9c-0.4-0.1-1.6-0.4-2.1-1.7c-0.6-1.4-0.3-3.3,0.8-4.4c1.3-1.3,3.3-0.9,4.4,0.5
	c0.7,0.9,1.1,2.4,0.6,3.7C185.8,366.7,184,367.2,182.8,366.9z"/>
<path class="st15" d="M173,357.8c-0.5,0.1-1.8,0.4-2.5,1.7c-0.7,1.4-0.3,3.2,0.9,4.3c1.5,1.3,3.8,0.9,5-0.4c0.8-0.9,1.2-2.3,0.7-3.6
	C176.4,358.1,174.5,357.6,173,357.8z"/>
<path class="st15" d="M239.6,326c-0.5-0.1-1.9-0.5-2.6-2.1c-0.8-1.8-0.3-4.1,1-5.4c1.6-1.6,4.1-1.2,5.4,0.6c0.9,1.1,1.3,2.9,0.7,4.5
	C243.3,325.7,241.1,326.4,239.6,326z"/>
<path class="st16" d="M238.7,349.6c0.8-0.8,2.1-0.6,2.7,0.3c0.4,0.6,0.6,1.5,0.4,2.3"/>
<path class="st15" d="M247.3,344.3c-0.5-0.1-1.9-0.5-2.6-2.1c-0.8-1.8-0.3-4.1,1-5.4c1.6-1.6,4.1-1.2,5.4,0.6
	c0.9,1.1,1.3,2.9,0.7,4.5C251,344,248.9,344.6,247.3,344.3z"/>
<path class="st15" d="M243.5,364.3c-0.5-0.1-1.9-0.5-2.6-2.1c-0.8-1.8-0.3-4.1,1-5.4c1.6-1.6,4.1-1.2,5.4,0.6
	c0.9,1.1,1.3,2.9,0.7,4.5C247.2,363.9,245,364.6,243.5,364.3z"/>
<path class="st15" d="M139.7,347.5c-0.5,0.1-1.8,0.4-2.5,1.7c-0.7,1.4-0.3,3.2,0.9,4.3c1.5,1.3,3.8,0.9,5-0.4
	c0.8-0.9,1.2-2.3,0.7-3.6C143.2,347.7,141.2,347.2,139.7,347.5z"/>
<path class="st15" d="M276.4,373.6c-0.5,0.1-1.8,0.4-2.5,1.7c-0.7,1.4-0.3,3.2,0.9,4.3c1.5,1.3,3.8,0.9,5-0.4
	c0.8-0.9,1.2-2.3,0.7-3.6C279.9,373.9,277.9,373.4,276.4,373.6z"/>
<path class="st15" d="M214.9,323.5c-0.5,0.1-1.9,0.5-2.6,1.8c-0.8,1.5-0.3,3.5,1,4.6c1.6,1.3,4.1,1,5.4-0.5c0.9-1,1.3-2.5,0.7-3.8
	C218.6,323.7,216.4,323.2,214.9,323.5z"/>
<path class="st15" d="M200.4,372c-0.5,0.1-1.9,0.5-2.6,1.8c-0.8,1.5-0.3,3.5,1,4.6c1.6,1.3,4.1,1,5.4-0.5c0.9-1,1.3-2.5,0.7-3.8
	C204.1,372.3,201.9,371.7,200.4,372z"/>
<path class="st16" d="M89.1,372.6c-0.3,0.1-1.3,0.3-1.8,1.2c-0.5,1-0.2,2.3,0.6,3.1c1.1,0.9,2.7,0.7,3.6-0.3
	c0.6-0.6,0.9-1.7,0.5-2.6C91.6,372.8,90.1,372.4,89.1,372.6z"/>
<path class="st16" d="M177,343.7c-0.2-0.1-1-0.3-1.3-1.1c-0.4-0.9-0.2-2.1,0.5-2.7c0.8-0.8,2.1-0.6,2.7,0.3c0.4,0.6,0.6,1.5,0.4,2.3
	C178.9,343.6,177.8,343.9,177,343.7z"/>
<path class="st15" d="M76.8,377.3c-0.4-0.1-1.6-0.4-2.1-1.7c-0.6-1.4-0.3-3.3,0.8-4.4c1.3-1.3,3.3-0.9,4.4,0.5
	c0.7,0.9,1.1,2.4,0.6,3.7C79.8,377,78.1,377.6,76.8,377.3z"/>
<path class="st15" d="M228.4,356.1c-0.5-0.1-1.9-0.5-2.6-2.1c-0.8-1.8-0.3-4.1,1-5.4c1.6-1.6,4.1-1.2,5.4,0.6
	c0.9,1.1,1.3,2.9,0.7,4.5C232.1,355.7,230,356.4,228.4,356.1z"/>
<path class="st16" d="M339.7,378c-0.2,0-0.6-0.2-0.8-0.7c-0.2-0.5-0.1-1.3,0.3-1.7c0.5-0.5,1.3-0.4,1.7,0.2c0.3,0.4,0.4,0.9,0.2,1.4
	C340.9,377.9,340.2,378.1,339.7,378z"/>
<path class="st16" d="M316.7,353.6c-0.2,0-0.6-0.2-0.8-0.7c-0.2-0.5-0.1-1.3,0.3-1.7c0.5-0.5,1.3-0.4,1.7,0.2
	c0.3,0.4,0.4,0.9,0.2,1.4C317.8,353.5,317.1,353.7,316.7,353.6z"/>
<path class="st16" d="M329.7,377.4c-0.2,0-0.6-0.2-0.8-0.7c-0.2-0.5-0.1-1.3,0.3-1.7c0.5-0.5,1.3-0.4,1.7,0.2
	c0.3,0.4,0.4,0.9,0.2,1.4C330.9,377.3,330.2,377.5,329.7,377.4z"/>
<path class="st16" d="M154.3,376.5c-0.2,0-0.6-0.2-0.8-0.7c-0.2-0.5-0.1-1.3,0.3-1.7c0.5-0.5,1.3-0.4,1.7,0.2
	c0.3,0.4,0.4,0.9,0.2,1.4C155.4,376.4,154.8,376.6,154.3,376.5z"/>
<path class="st16" d="M178,335.9c-0.2,0-0.6-0.2-0.8-0.7c-0.2-0.5-0.1-1.3,0.3-1.7c0.5-0.5,1.3-0.4,1.7,0.2c0.3,0.4,0.4,0.9,0.2,1.4
	C179.1,335.8,178.5,336,178,335.9z"/>
<path class="st16" d="M182.8,340.2c-0.2-0.1-1-0.3-1.3-1.1c-0.4-0.9-0.2-2.1,0.5-2.7c0.8-0.8,2.1-0.6,2.7,0.3
	c0.4,0.6,0.6,1.5,0.4,2.3C184.6,340,183.5,340.4,182.8,340.2z"/>
<path class="st16" d="M162.5,378.6c-0.2-0.1-1-0.3-1.3-1.1c-0.4-0.9-0.2-2.1,0.5-2.7c0.8-0.8,2.1-0.6,2.7,0.3
	c0.4,0.6,0.6,1.5,0.4,2.3C164.4,378.4,163.3,378.8,162.5,378.6z"/>
<path class="st15" d="M161.4,373.8c-0.5-0.1-1.9-0.5-2.6-2.1c-0.8-1.8-0.3-4.1,1-5.4c1.6-1.6,4.1-1.2,5.4,0.6
	c0.9,1.1,1.3,2.9,0.7,4.5C165.1,373.5,162.9,374.2,161.4,373.8z"/>
<path class="st16" d="M112.4,365.1c-0.2-0.1-1-0.3-1.3-1.1c-0.4-0.9-0.2-2.1,0.5-2.7c0.8-0.8,2.1-0.6,2.7,0.3
	c0.4,0.6,0.6,1.5,0.4,2.3C114.3,365,113.2,365.3,112.4,365.1z"/>
<path class="st16" d="M182.8,375.5c-0.4-0.1-1.6-0.4-2.1-1.7c-0.6-1.4-0.3-3.3,0.8-4.4c1.3-1.3,3.3-0.9,4.4,0.5
	c0.7,0.9,1.1,2.4,0.6,3.7C185.8,375.2,184,375.8,182.8,375.5z"/>
<path class="st15" d="M298.1,347.9c-0.5,0.1-1.8,0.4-2.5,1.7c-0.7,1.4-0.3,3.2,0.9,4.3c1.5,1.3,3.8,0.9,5-0.4
	c0.8-0.9,1.2-2.3,0.7-3.6C301.5,348.2,299.5,347.7,298.1,347.9z"/>
<path class="st15" d="M238.4,349.1c-0.5-0.1-1.9-0.5-2.6-2.1c-0.8-1.8-0.3-4.1,1-5.4c1.6-1.6,4.1-1.2,5.4,0.6
	c0.9,1.1,1.3,2.9,0.7,4.5C242.1,348.8,240,349.5,238.4,349.1z"/>
<path class="st16" d="M114.4,356.7c0.8-0.8,2.1-0.6,2.7,0.3c0.4,0.6,0.6,1.5,0.4,2.3"/>
<path class="st15" d="M250.2,364.9c-0.5-0.1-1.9-0.5-2.6-2.1c-0.8-1.8-0.3-4.1,1-5.4c1.6-1.6,4.1-1.2,5.4,0.6
	c0.9,1.1,1.3,2.9,0.7,4.5C253.9,364.6,251.8,365.2,250.2,364.9z"/>
<path class="st15" d="M127.3,375.8c-0.5-0.1-1.9-0.5-2.6-2.1c-0.8-1.8-0.3-4.1,1-5.4c1.6-1.6,4.1-1.2,5.4,0.6
	c0.9,1.1,1.3,2.9,0.7,4.5C131,375.5,128.8,376.2,127.3,375.8z"/>
<path class="st7" d="M206.7,344.1"/>
<path class="st15" d="M190.2,335.7c-0.4-0.1-1.6-0.4-2.1-1.7c-0.6-1.4-0.3-3.3,0.8-4.4c1.3-1.3,3.3-0.9,4.4,0.5
	c0.7,0.9,1.1,2.4,0.6,3.7C193.2,335.4,191.4,336,190.2,335.7z"/>
<path class="st16" d="M194.8,318.6c-0.2,0-0.6-0.2-0.8-0.7c-0.2-0.5-0.1-1.3,0.3-1.7c0.5-0.5,1.3-0.4,1.7,0.2
	c0.3,0.4,0.4,0.9,0.2,1.4C195.9,318.5,195.3,318.7,194.8,318.6z"/>
<path class="st16" d="M199,315.8c-0.2,0-0.6-0.2-0.8-0.7c-0.2-0.5-0.1-1.3,0.3-1.7c0.5-0.5,1.3-0.4,1.7,0.2c0.3,0.4,0.4,0.9,0.2,1.4
	C200.2,315.7,199.5,315.9,199,315.8z"/>
<path class="st16" d="M207.3,317.9c-0.2-0.1-1-0.3-1.3-1.1c-0.4-0.9-0.2-2.1,0.5-2.7c0.8-0.8,2.1-0.6,2.7,0.3
	c0.4,0.6,0.6,1.5,0.4,2.3C209.1,317.8,208.1,318.1,207.3,317.9z"/>
<path class="st16" d="M209.2,329.9c-0.2-0.1-1-0.3-1.3-1.1c-0.4-0.9-0.2-2.1,0.5-2.7c0.8-0.8,2.1-0.6,2.7,0.3
	c0.4,0.6,0.6,1.5,0.4,2.3C211.1,329.7,210,330.1,209.2,329.9z"/>
<path class="st16" d="M213.9,318.4c0.8-0.8,2.1-0.6,2.7,0.3c0.4,0.6,0.6,1.5,0.4,2.3"/>
<path class="st15" d="M206.2,339.9c-0.5-0.1-1.9-0.5-2.6-2.1c-0.8-1.8-0.3-4.1,1-5.4c1.6-1.6,4.1-1.2,5.4,0.6
	c0.9,1.1,1.3,2.9,0.7,4.5C209.9,339.6,207.7,340.3,206.2,339.9z"/>
<path class="st7" d="M250,382.3"/>
<path class="st16" d="M190.3,344.8c-0.3,0.1-1.3,0.3-1.8,1.2c-0.5,1-0.2,2.3,0.6,3.1c1.1,0.9,2.7,0.7,3.6-0.3
	c0.6-0.6,0.9-1.7,0.5-2.6C192.8,344.9,191.3,344.6,190.3,344.8z"/>
<path class="st15" d="M233.5,373.9c-0.4-0.1-1.6-0.4-2.1-1.7c-0.6-1.4-0.3-3.3,0.8-4.4c1.3-1.3,3.3-0.9,4.4,0.5
	c0.7,0.9,1.1,2.4,0.6,3.7C236.5,373.6,234.7,374.1,233.5,373.9z"/>
<path class="st16" d="M252.5,368.1c-0.2-0.1-1-0.3-1.3-1.1c-0.4-0.9-0.2-2.1,0.5-2.7c0.8-0.8,2.1-0.6,2.7,0.3
	c0.4,0.6,0.6,1.5,0.4,2.3C254.4,367.9,253.3,368.2,252.5,368.1z"/>
<path class="st15" d="M262,371.2c-0.5-0.1-1.9-0.5-2.6-2.1c-0.8-1.8-0.3-4.1,1-5.4c1.6-1.6,4.1-1.2,5.4,0.6c0.9,1.1,1.3,2.9,0.7,4.5
	C265.6,370.9,263.5,371.5,262,371.2z"/>
<path class="st7" d="M193.5,352.1"/>
<path class="st16" d="M175.3,327.5c-0.3,0.1-1.3,0.3-1.8,1.2c-0.5,1-0.2,2.3,0.6,3.1c1.1,0.9,2.7,0.7,3.6-0.3
	c0.6-0.6,0.9-1.7,0.5-2.6C177.7,327.7,176.3,327.3,175.3,327.5z"/>
<path class="st15" d="M177,343.7c-0.4-0.1-1.6-0.4-2.1-1.7c-0.6-1.4-0.3-3.3,0.8-4.4c1.3-1.3,3.3-0.9,4.4,0.5
	c0.7,0.9,1.1,2.4,0.6,3.7C180,343.5,178.3,344,177,343.7z"/>
<path class="st16" d="M181.6,326.6c-0.2,0-0.6-0.2-0.8-0.7c-0.2-0.5-0.1-1.3,0.3-1.7c0.5-0.5,1.3-0.4,1.7,0.2
	c0.3,0.4,0.4,0.9,0.2,1.4C182.8,326.5,182.1,326.7,181.6,326.6z"/>
<path class="st16" d="M171.6,326c-0.2,0-0.6-0.2-0.8-0.7c-0.2-0.5-0.1-1.3,0.3-1.7c0.5-0.5,1.3-0.4,1.7,0.2c0.3,0.4,0.4,0.9,0.2,1.4
	C172.8,325.9,172.1,326.1,171.6,326z"/>
<path class="st16" d="M185.9,323.8c-0.2,0-0.6-0.2-0.8-0.7c-0.2-0.5-0.1-1.3,0.3-1.7c0.5-0.5,1.3-0.4,1.7,0.2
	c0.3,0.4,0.4,0.9,0.2,1.4C187,323.7,186.3,323.9,185.9,323.8z"/>
<path class="st16" d="M194.1,326c-0.2-0.1-1-0.3-1.3-1.1c-0.4-0.9-0.2-2.1,0.5-2.7c0.8-0.8,2.1-0.6,2.7,0.3c0.4,0.6,0.6,1.5,0.4,2.3
	C196,325.8,194.9,326.1,194.1,326z"/>
<path class="st16" d="M196.1,337.9c-0.2-0.1-1-0.3-1.3-1.1c-0.4-0.9-0.2-2.1,0.5-2.7c0.8-0.8,2.1-0.6,2.7,0.3
	c0.4,0.6,0.6,1.5,0.4,2.3C197.9,337.8,196.8,338.1,196.1,337.9z"/>
<path class="st16" d="M200.7,326.4c0.8-0.8,2.1-0.6,2.7,0.3c0.4,0.6,0.6,1.5,0.4,2.3"/>
<path class="st7" d="M276.2,372.9"/>
<path class="st8" d="M285.7,410.7c1.6,0.2,3.2,0.3,4.8,0.5"/>
<path class="st15" d="M256.4,334.1c-0.5,0.1-1.9,0.5-2.6,1.8c-0.8,1.5-0.3,3.5,1,4.6c1.6,1.3,4.1,1,5.4-0.5c0.9-1,1.3-2.5,0.7-3.8
	C260.1,334.3,257.9,333.8,256.4,334.1z"/>
<path class="st16" d="M257.9,348.3c-0.3,0.1-1.3,0.3-1.8,1.2c-0.5,1-0.2,2.3,0.6,3.1c1.1,0.9,2.7,0.7,3.6-0.3
	c0.6-0.6,0.9-1.7,0.5-2.6C260.4,348.4,259,348.1,257.9,348.3z"/>
<path class="st15" d="M259.7,364.5c-0.4-0.1-1.6-0.4-2.1-1.7c-0.6-1.4-0.3-3.3,0.8-4.4c1.3-1.3,3.3-0.9,4.4,0.5
	c0.7,0.9,1.1,2.4,0.6,3.7C262.7,364.3,260.9,364.8,259.7,364.5z"/>
<path class="st16" d="M264.3,347.4c-0.2,0-0.6-0.2-0.8-0.7c-0.2-0.5-0.1-1.3,0.3-1.7c0.5-0.5,1.3-0.4,1.7,0.2
	c0.3,0.4,0.4,0.9,0.2,1.4C265.4,347.3,264.7,347.5,264.3,347.4z"/>
<path class="st16" d="M254.3,346.8c-0.2,0-0.6-0.2-0.8-0.7c-0.2-0.5-0.1-1.3,0.3-1.7c0.5-0.5,1.3-0.4,1.7,0.2
	c0.3,0.4,0.4,0.9,0.2,1.4C255.4,346.7,254.8,346.9,254.3,346.8z"/>
<path class="st16" d="M268.5,344.6c-0.2,0-0.6-0.2-0.8-0.7c-0.2-0.5-0.1-1.3,0.3-1.7c0.5-0.5,1.3-0.4,1.7,0.2
	c0.3,0.4,0.4,0.9,0.2,1.4C269.7,344.5,269,344.7,268.5,344.6z"/>
<path class="st16" d="M276.8,346.7c-0.2-0.1-1-0.3-1.3-1.1c-0.4-0.9-0.2-2.1,0.5-2.7c0.8-0.8,2.1-0.6,2.7,0.3
	c0.4,0.6,0.6,1.5,0.4,2.3C278.6,346.6,277.6,346.9,276.8,346.7z"/>
<path class="st16" d="M208.2,370.2c-0.2-0.1-1-0.3-1.3-1.1c-0.4-0.9-0.2-2.1,0.5-2.7c0.8-0.8,2.1-0.6,2.7,0.3
	c0.4,0.6,0.6,1.5,0.4,2.3C210.1,370.1,209,370.4,208.2,370.2z"/>
<path class="st16" d="M264.1,335.2c0.8-0.8,2.1-0.6,2.7,0.3c0.4,0.6,0.6,1.5,0.4,2.3"/>
<path class="st15" d="M284.3,340.4c-0.5-0.1-1.9-0.5-2.6-2.1c-0.8-1.8-0.3-4.1,1-5.4c1.6-1.6,4.1-1.2,5.4,0.6
	c0.9,1.1,1.3,2.9,0.7,4.5C288,340.1,285.8,340.7,284.3,340.4z"/>
<path class="st15" d="M172.3,374.7c-0.5-0.1-1.9-0.5-2.6-2.1c-0.8-1.8-0.3-4.1,1-5.4c1.6-1.6,4.1-1.2,5.4,0.6
	c0.9,1.1,1.3,2.9,0.7,4.5C176,374.4,173.8,375,172.3,374.7z"/>
<path class="st15" d="M238.3,329c-0.5,0.1-1.8,0.4-2.5,1.7c-0.7,1.4-0.3,3.2,0.9,4.3c1.5,1.3,3.8,0.9,5-0.4c0.8-0.9,1.2-2.3,0.7-3.6
	C241.7,329.2,239.7,328.7,238.3,329z"/>
<path class="st15" d="M237.2,349.4c-0.5,0.1-1.9,0.5-2.6,1.8c-0.8,1.5-0.3,3.5,1,4.6c1.6,1.3,4.1,1,5.4-0.5c0.9-1,1.3-2.5,0.7-3.8
	C240.9,349.7,238.8,349.1,237.2,349.4z"/>
<path class="st15" d="M248.1,328.3c-0.5,0.1-1.9,0.5-2.6,1.8c-0.8,1.5-0.3,3.5,1,4.6c1.6,1.3,4.1,1,5.4-0.5c0.9-1,1.3-2.5,0.7-3.8
	C251.8,328.6,249.6,328,248.1,328.3z"/>
<path class="st16" d="M249.6,342.5c-0.3,0.1-1.3,0.3-1.8,1.2c-0.5,1-0.2,2.3,0.6,3.1c1.1,0.9,2.7,0.7,3.6-0.3
	c0.6-0.6,0.9-1.7,0.5-2.6C252.1,342.7,250.7,342.3,249.6,342.5z"/>
<path class="st15" d="M251.4,358.7c-0.4-0.1-1.6-0.4-2.1-1.7c-0.6-1.4-0.3-3.3,0.8-4.4c1.3-1.3,3.3-0.9,4.4,0.5
	c0.7,0.9,1.1,2.4,0.6,3.7C254.3,358.5,252.6,359,251.4,358.7z"/>
<path class="st15" d="M259.2,330.3c-0.5-0.1-1.9-0.5-2.6-2.1c-0.8-1.8-0.3-4.1,1-5.4c1.6-1.6,4.1-1.2,5.4,0.6
	c0.9,1.1,1.3,2.9,0.7,4.5C262.9,330,260.8,330.7,259.2,330.3z"/>
<path class="st16" d="M256,341.6c-0.2,0-0.6-0.2-0.8-0.7c-0.2-0.5-0.1-1.3,0.3-1.7c0.5-0.5,1.3-0.4,1.7,0.2c0.3,0.4,0.4,0.9,0.2,1.4
	C257.1,341.5,256.4,341.7,256,341.6z"/>
<path class="st16" d="M246,341.1c-0.2,0-0.6-0.2-0.8-0.7c-0.2-0.5-0.1-1.3,0.3-1.7c0.5-0.5,1.3-0.4,1.7,0.2c0.3,0.4,0.4,0.9,0.2,1.4
	C247.1,341,246.5,341.2,246,341.1z"/>
<path class="st16" d="M260.2,338.8c-0.2,0-0.6-0.2-0.8-0.7c-0.2-0.5-0.1-1.3,0.3-1.7c0.5-0.5,1.3-0.4,1.7,0.2
	c0.3,0.4,0.4,0.9,0.2,1.4C261.4,338.7,260.7,338.9,260.2,338.8z"/>
<path class="st15" d="M163.3,340.2c-0.5-0.1-1.9-0.5-2.6-2.1c-0.8-1.8-0.3-4.1,1-5.4c1.6-1.6,4.1-1.2,5.4,0.6
	c0.9,1.1,1.3,2.9,0.7,4.5C167,339.8,164.9,340.5,163.3,340.2z"/>
<path class="st15" d="M226,320.6c-0.5-0.1-1.9-0.5-2.6-2.1c-0.8-1.8-0.3-4.1,1-5.4c1.6-1.6,4.1-1.2,5.4,0.6c0.9,1.1,1.3,2.9,0.7,4.5
	C229.7,320.3,227.6,320.9,226,320.6z"/>
<path class="st16" d="M229.2,341.7c0.8-0.8,2.1-0.6,2.7,0.3c0.4,0.6,0.6,1.5,0.4,2.3"/>
<path class="st15" d="M228.3,329.9c-0.5-0.1-1.9-0.5-2.6-2.1c-0.8-1.8-0.3-4.1,1-5.4c1.6-1.6,4.1-1.2,5.4,0.6
	c0.9,1.1,1.3,2.9,0.7,4.5C232,329.5,229.9,330.2,228.3,329.9z"/>
<path class="st15" d="M177.4,355c-0.5-0.1-1.9-0.5-2.6-2.1c-0.8-1.8-0.3-4.1,1-5.4c1.6-1.6,4.1-1.2,5.4,0.6c0.9,1.1,1.3,2.9,0.7,4.5
	C181.1,354.7,179,355.3,177.4,355z"/>
<path class="st7" d="M309.3,385.1"/>
<path class="st15" d="M226.8,371.7c-0.5,0.1-1.8,0.4-2.5,1.7c-0.7,1.4-0.3,3.2,0.9,4.3c1.5,1.3,3.8,0.9,5-0.4
	c0.8-0.9,1.2-2.3,0.7-3.6C230.2,371.9,228.2,371.4,226.8,371.7z"/>
<path class="st15" d="M270.3,370.4c-0.5,0.1-1.9,0.5-2.6,1.8c-0.8,1.5-0.3,3.5,1,4.6c1.6,1.3,4.1,1,5.4-0.5c0.9-1,1.3-2.5,0.7-3.8
	C274,370.6,271.9,370.1,270.3,370.4z"/>
<path class="st15" d="M243.3,370.5c-0.5,0.1-1.9,0.5-2.6,1.8c-0.8,1.5-0.3,3.5,1,4.6c1.6,1.3,4.1,1,5.4-0.5c0.9-1,1.3-2.5,0.7-3.8
	C247,370.8,244.8,370.2,243.3,370.5z"/>
<path class="st16" d="M208.9,370.2c-0.3,0.1-1.3,0.3-1.8,1.2c-0.5,1-0.2,2.3,0.6,3.1c1.1,0.9,2.7,0.7,3.6-0.3
	c0.6-0.6,0.9-1.7,0.5-2.6C211.4,370.3,209.9,370,208.9,370.2z"/>
<path class="st15" d="M195.6,373.9c-0.4-0.1-1.6-0.4-2.1-1.7c-0.6-1.4-0.3-3.3,0.8-4.4c1.3-1.3,3.3-0.9,4.4,0.5
	c0.7,0.9,1.1,2.4,0.6,3.7C198.6,373.6,196.8,374.1,195.6,373.9z"/>
<path class="st15" d="M300.7,348.3c-0.5-0.1-1.9-0.5-2.6-2.1c-0.8-1.8-0.3-4.1,1-5.4c1.6-1.6,4.1-1.2,5.4,0.6
	c0.9,1.1,1.3,2.9,0.7,4.5C304.4,348,302.2,348.6,300.7,348.3z"/>
<path class="st16" d="M270,365.5c-0.2,0-0.6-0.2-0.8-0.7c-0.2-0.5-0.1-1.3,0.3-1.7c0.5-0.5,1.3-0.4,1.7,0.2c0.3,0.4,0.4,0.9,0.2,1.4
	C271.2,365.4,270.5,365.6,270,365.5z"/>
<path class="st16" d="M177.2,373.9c-0.2,0-0.6-0.2-0.8-0.7c-0.2-0.5-0.1-1.3,0.3-1.7c0.5-0.5,1.3-0.4,1.7,0.2
	c0.3,0.4,0.4,0.9,0.2,1.4C178.3,373.8,177.7,374,177.2,373.9z"/>
<path class="st16" d="M164.7,357.8c-0.2,0-0.6-0.2-0.8-0.7c-0.2-0.5-0.1-1.3,0.3-1.7c0.5-0.5,1.3-0.4,1.7,0.2
	c0.3,0.4,0.4,0.9,0.2,1.4C165.9,357.7,165.2,357.9,164.7,357.8z"/>
<path class="st16" d="M202.7,371c-0.2-0.1-1-0.3-1.3-1.1c-0.4-0.9-0.2-2.1,0.5-2.7c0.8-0.8,2.1-0.6,2.7,0.3c0.4,0.6,0.6,1.5,0.4,2.3
	C204.6,370.9,203.5,371.2,202.7,371z"/>
<path class="st15" d="M250.2,327c-0.5-0.1-1.9-0.5-2.6-2.1c-0.8-1.8-0.3-4.1,1-5.4c1.6-1.6,4.1-1.2,5.4,0.6c0.9,1.1,1.3,2.9,0.7,4.5
	C253.8,326.6,251.7,327.3,250.2,327z"/>
<path class="st16" d="M292.9,341.3c-0.2-0.1-1-0.3-1.3-1.1c-0.4-0.9-0.2-2.1,0.5-2.7c0.8-0.8,2.1-0.6,2.7,0.3
	c0.4,0.6,0.6,1.5,0.4,2.3C294.7,341.1,293.7,341.4,292.9,341.3z"/>
<path class="st16" d="M183.5,375.2c0.8-0.8,2.1-0.6,2.7,0.3c0.4,0.6,0.6,1.5,0.4,2.3"/>
<path class="st7" d="M328.5,383.3"/>
<path class="st6" d="M367.5,368.1"/>
<path class="st15" d="M265.9,351.4c-0.5,0.1-1.8,0.4-2.5,1.7c-0.7,1.4-0.3,3.2,0.9,4.3c1.5,1.3,3.8,0.9,5-0.4
	c0.8-0.9,1.2-2.3,0.7-3.6C269.3,351.6,267.3,351.1,265.9,351.4z"/>
<path class="st15" d="M253.8,370.1c-0.5,0.1-1.8,0.4-2.5,1.7c-0.7,1.4-0.3,3.2,0.9,4.3c1.5,1.3,3.8,0.9,5-0.4
	c0.8-0.9,1.2-2.3,0.7-3.6C257.2,370.3,255.2,369.8,253.8,370.1z"/>
<path class="st15" d="M222.5,365.3c-0.5,0.1-1.9,0.5-2.6,1.8c-0.8,1.5-0.3,3.5,1,4.6c1.6,1.3,4.1,1,5.4-0.5c0.9-1,1.3-2.5,0.7-3.8
	C226.2,365.6,224.1,365.1,222.5,365.3z"/>
<path class="st16" d="M262.2,373.7c-0.3,0.1-1.3,0.3-1.8,1.2c-0.5,1-0.2,2.3,0.6,3.1c1.1,0.9,2.7,0.7,3.6-0.3
	c0.6-0.6,0.9-1.7,0.5-2.6C264.6,373.9,263.2,373.5,262.2,373.7z"/>
<path class="st15" d="M348.5,378.1c-0.4-0.1-1.6-0.4-2.1-1.7c-0.6-1.4-0.3-3.3,0.8-4.4c1.3-1.3,3.3-0.9,4.4,0.5
	c0.7,0.9,1.1,2.4,0.6,3.7C351.5,377.9,349.8,378.4,348.5,378.1z"/>
<path class="st16" d="M217.7,373.2c-0.2,0-0.6-0.2-0.8-0.7c-0.2-0.5-0.1-1.3,0.3-1.7c0.5-0.5,1.3-0.4,1.7,0.2
	c0.3,0.4,0.4,0.9,0.2,1.4C218.9,373.1,218.2,373.3,217.7,373.2z"/>
<path class="st16" d="M270.9,339c-0.2,0-0.6-0.2-0.8-0.7c-0.2-0.5-0.1-1.3,0.3-1.7c0.5-0.5,1.3-0.4,1.7,0.2c0.3,0.4,0.4,0.9,0.2,1.4
	C272,338.9,271.4,339.1,270.9,339z"/>
<path class="st16" d="M273.5,368.3c-0.2,0-0.6-0.2-0.8-0.7c-0.2-0.5-0.1-1.3,0.3-1.7c0.5-0.5,1.3-0.4,1.7,0.2
	c0.3,0.4,0.4,0.9,0.2,1.4C274.6,368.2,274,368.4,273.5,368.3z"/>
<path class="st16" d="M270.7,334c-0.2-0.1-1-0.3-1.3-1.1c-0.4-0.9-0.2-2.1,0.5-2.7c0.8-0.8,2.1-0.6,2.7,0.3c0.4,0.6,0.6,1.5,0.4,2.3
	C272.6,333.8,271.5,334.2,270.7,334z"/>
<path class="st16" d="M344.6,368.7c-0.2-0.1-1-0.3-1.3-1.1c-0.4-0.9-0.2-2.1,0.5-2.7c0.8-0.8,2.1-0.6,2.7,0.3
	c0.4,0.6,0.6,1.5,0.4,2.3C346.5,368.6,345.4,368.9,344.6,368.7z"/>
<path class="st16" d="M355.9,375.2c0.8-0.8,2.1-0.6,2.7,0.3c0.4,0.6,0.6,1.5,0.4,2.3"/>
<path class="st15" d="M337.8,380.4c-0.5-0.1-1.9-0.5-2.6-2.1c-0.8-1.8-0.3-4.1,1-5.4c1.6-1.6,4.1-1.2,5.4,0.6
	c0.9,1.1,1.3,2.9,0.7,4.5C341.5,380.1,339.4,380.7,337.8,380.4z"/>
<path class="st17" d="M322,348.6c0-0.5-0.4-0.7-0.5-0.7c-0.8-0.4-1.9,0.7-2,0.8c-0.2,0.2-0.5,0.5-1.5,2.6c-1.1,2.3-1.1,2.5-1.5,2.9
	c-0.3,0.3-0.8,0.6-1.1,1.3c-0.1,0.2-0.3,0.6-0.2,0.9c0.1,0.3,0.2,0.5,0.4,0.5c0.5,0.1,1.2-0.8,1.6-1.3c0.2-0.3,0.8-1.1,2-3.8
	c0.5-1.1,0.9-2,1.4-2.2c0.3-0.1,0.5,0,0.8-0.2C321.7,349.4,322,349,322,348.6z"/>
<path class="st17" d="M312.6,359.6c-0.5-0.4-1.3-0.1-1.4,0c-0.6,0.3-0.6,0.8-1.3,1.4c-0.9,0.8-1.4,0.4-2.1,1.2
	c-0.1,0.2-0.8,0.9-0.7,1.6c0.1,0.6,0.8,1,1.4,1c0.6,0,0.8-0.4,2.6-1.7c0.9-0.6,1-0.7,1.3-1.1C312.9,361.3,313.1,360.1,312.6,359.6z"
	/>
</svg>
