<?xml version="1.0" encoding="utf-8"?>
<!-- Generator: Adobe Illustrator 22.1.0, SVG Export Plug-In . SVG Version: 6.00 Build 0)  -->
<svg version="1.1" id="Calque_1" xmlns="http://www.w3.org/2000/svg" xmlns:xlink="http://www.w3.org/1999/xlink" x="0px" y="0px"
	 viewBox="0 0 595.3 841.9" style="enable-background:new 0 0 595.3 841.9;" xml:space="preserve">
<style type="text/css">
	.st0{fill:#24140C;}
	.st1{fill:#F8E712;}
	.st2{fill:#FFFFFF;}
	.st3{fill:none;stroke:#040506;stroke-miterlimit:10;}
	.st4{fill:#24140C;stroke:#010202;stroke-miterlimit:10;}
	.st5{fill:#FFFFFF;stroke:#010202;stroke-miterlimit:10;}
	.st6{fill:#39170E;stroke:#010202;stroke-miterlimit:10;}
</style>
<image style="overflow:visible;" width="225" height="225" xlink:href="images (3).png"  transform="matrix(3.4051 0 0 3.4051 829.3138 -263.3531)">
</image>
<g>
	<path class="st0" d="M87.5,353.9c-6,3.1-5.7,13.9-6,25c-0.6,25.2-2.6,6.1-8,64c-2,21.6-3.5,41.2-4.2,52c-0.5,6.5-0.9,13-0.9,13
		c-0.9,13-1.6,23.8-1.7,25.8c-1.2,21,3.8,52,5.8,83.2c0.2,3.5,0.6,11-4.2,15.8c-2.8,2.9-6.5,3.8-8.8,4.2c0,0-0.5,0.8-3,10
		c0.1,3.4,0.9,7.7,4,10c2.8,0.7,7.1,1.4,12.2,0.8c3.9-0.4,6.6-1.4,7.8-1.8c8.1-2.6,16.5,0.3,24,1c41.5,3.8,81,15,81,15
		c67.6,19.2,158.7,7.4,224-1c1.1-0.1,41-10.6,71-12c22.9-1.1,34.3-1.6,37-1c5,1.2,11.2,3.3,16,0c4.1-2.8,6.1-9,5-14
		c-1.3-5.8-5.9-7.1-10-12c-5.3-6.4-5.6-14.2-5-29c0.7-19.8,2.3-33.2,3-41c1-10.9,0.3-23.1-1-47c-5.8-104.1-17.9-134.4-15.2-149.4
		c0.2-0.9,0.8-4.2-0.8-5.6c-3.1-2.6-10.8,3.6-22,8c-2.9,1.1-7.1,2.6-23,5c-48,7.4-75,9-75,9c-87.7,5.3-131.5,8-149,3
		c-17.9-5.1-37.7-14.5-56-10c-3.7,0.9-14.5,4.2-26,0c-4.4-1.6-5-2.9-10-5c-10.4-4.4-16.9-2.9-26-4
		C101.4,363.4,94.9,350.1,87.5,353.9z"/>
</g>
<g>
	<path class="st1" d="M232.6,619.1c-10.1,0-17.3-9.9-26.1-22c-9.9-13.9-22.1-30.8-25.1-57c-4.4-38.9,15-67.7,22.1-77
		c6.8-9,27.9-34.2,65.1-42c50.1-10.4,87.7,19.5,93.2,24c6.6,5.5,30.1,26,38.1,61c0.9,4,9.3,42.7-7,67c-1.8,2.6-3.2,4.1-7.2,10.1
		c-10.9,16.2-12.5,22.9-21.3,28.9c-3.3,2.2-6.3,4.2-10.5,4.5c-5.5,0.3-8.6-2.8-23.1-13.5c-7.4-5.5-18.1-14.8-21-12.5
		c-0.8,0.6-1,2-3,3.5c-1.2,0.9-2.4,1.3-3,1.5c-2,0.7-3.2,1.1-4,0.5c-1.1-0.8,0-2.8-1-7c-0.3-1.3-0.5-1.1-0.6-2.1
		c-0.3-2.9,1.5-5.2,0.6-13.9c-1.1-10.2-4.4-13.5-2-18c2.2-4.2,7.3-5.6,10.5-6.5c8.2-2.3,13.5,0.2,18.5,0.5
		c18.6,1,39.5-28.1,34.6-36.5c-1.8-3.1-7.4-3.1-18.5-3c-12.6,0.1-19.7,0.2-25.1,5c-5.3,4.8-3.4,9.3-12,21.5
		c-2.7,3.8-5.7,8.1-7.5,7.5c-2.4-0.9,1.7-9.7,0-24.5c-0.8-6.8-2.2-10.8,0-16c1.6-3.7,3.7-4.9,6-7.5c9.6-10.8,6.3-28.5,5.5-33
		c-0.7-3.7-3.6-20-12-21.5c-0.9-0.2-2.6-0.3-5.5,1c-9,3.9-16.5,14.3-18,26c-1.2,9.7,1.3,23.3,9,28c1.4,0.9,3.1,1.5,4.5,3.5
		c2.5,3.5,0.4,6.8,0.5,14.5c0.4,21.4-1.1,21.9,0,26c0.1,0.5,0.6,2.1,0,2.5c-1.1,0.8-4.8-2.9-6-4c-10.3-9.9-9.1-20.2-17.5-26
		c-3.8-2.6-9.6-2.9-21-3.5c-10.5-0.5-15.7-0.8-17.5,2c-3.6,5.6,7.6,19.8,18,27.5c5.4,4,11.3,8.4,19,8c6-0.3,8.7-3.2,13-1.5
		c4.5,1.7,6.4,6.7,8.5,12c2.5,6.3,0.9,6.5,3.5,20c1.5,8,2.9,11.9,0.5,15c-1.2,1.5-4.5,4.5-4.7,4.6c0,0,0,0,0,0
		c-1.4,1.2-4.4-0.4-7.7-3c-0.3,0-0.4,0-0.4,0c0,0,0.4,0,0.4,0c0,0-1.8-0.1-3.7,0.5c-0.3,0.1-0.5,0.2-0.9,0.4c-4.9,2.6-7.5,6.4-8,7
		C254.8,611.3,241.5,619.1,232.6,619.1z"/>
	<g>
		<path class="st2" d="M232.6,616.6c-7.1-0.3-12.2-5.7-16.4-10.8c-4.3-5.2-8.2-10.8-12-16.3c-7.2-10.4-13.4-21.4-17-33.5
			c-7.7-26.1-3.4-54.3,9.7-78c21-38,63.8-61.8,107.5-55.5c34.5,5,65.4,26,82.4,56.4c9.6,17.2,13.9,36.7,13.6,56.3
			c-0.2,12.3-2.3,25-8.9,35.6c-2.9,4.7-6.5,9-9.5,13.6c-3.3,5.1-6.3,10.3-9.6,15.5c-4.2,6.6-13.5,17.1-22.4,13.8
			c-3.9-1.5-7.4-4.7-10.7-7.1c-5.2-3.9-10.4-7.9-15.6-11.8c-3.3-2.5-8-6.6-12.4-6.8c-1.3,0-2.4,0.2-3.4,1.1c-1,0.8-1.5,2-2.6,2.9
			c-0.3,0.3-4.2,2.3-3.8,2.6c-0.3-0.2-0.8-6.3-0.9-7c-0.3-1.7,0.1-3.2,0.4-4.9c0.8-5.6,0.1-11.3-1.2-16.8
			c-1.5-6.3-2.9-10.7,4.7-13.6c6.4-2.5,12.2-1.5,18.8-0.7c9.8,1.3,18.7-3.9,25.7-10.4c6.3-5.8,12.8-14,14.3-22.7
			c1.4-8.1-4.5-10.6-11.6-11c-6.7-0.4-13.5-0.2-20.2,0.2c-4.7,0.3-9.6,0.9-13.7,3.3c-7.8,4.7-9.1,14.8-13.8,21.9c-1,1.5-2,3-3.1,4.4
			c-0.6,0.8-1.8,1.8-2.2,2.8c0.3-0.8-2.6,4.7,0.1,2.3c0.4-0.4,0.3-4.3,0.4-5c0.8-6.6,1-13.1,0.1-19.8c-0.4-2.9-1.1-5.9-1-8.8
			c0.2-4.4,2.7-7.1,5.5-10.1c3.9-4.1,6.4-9.2,7.5-14.7c1.6-8,0.8-16.1-0.8-24c-1.5-7.1-4.2-17.9-12-20.6
			c-9.8-3.4-20.3,8.6-24.1,16.2c-5.1,10.2-5.7,22.9-1.2,33.4c2.2,5.1,5.3,7.5,9.6,10.8c2.8,2.1,2.6,4.2,2.2,7.4
			c-0.4,3.7-0.4,7.2-0.4,10.9c0.1,6.8-1,13.9-0.4,20.6c0.1,1.4,0,2.4,1.2,1.9c1.5-0.6-1.3-2.2-2.1-2.9c-1.4-1.4-2.7-2.8-3.9-4.3
			c-3.9-5.1-5.5-11.2-8.9-16.5c-6-9.4-16.1-9.3-26.2-9.8c-6.1-0.3-21.5-3.4-22.5,6.2c-1.1,9.7,10.6,20.4,17.2,25.8
			c4.6,3.8,9.7,7.6,15.5,9.4c2.7,0.9,5.6,1.2,8.4,1c3-0.3,5.9-1.8,8.9-1.9c6.3-0.1,9.4,9.1,10.6,14.3c0.8,3.7,0.9,7.5,1.5,11.3
			c0.8,4.8,4.7,14,1.4,18.3c-0.6,0.8-3.1,3.8-4.1,3.9c-0.7,0.1-3.5-2.5-4-2.8c-0.9-0.5-1.3-0.9-2.4-0.8c-3.2,0.3-3.2,5.3,0,5
			c0.1,0,0.3,0,0.4,0c3.1-0.4,3.3-4.8,0-5c-7.7-0.4-12.2,6.5-16.8,11.4C251.9,609.5,242.3,616.3,232.6,616.6c-3.2,0.1-3.2,5.1,0,5
			c8.3-0.3,16.2-4.5,22.7-9.5c3.5-2.7,6.5-5.7,9.4-9c2.6-3.2,6.1-7.1,10.6-6.8c0-1.7,0-3.3,0-5c-0.1,0-0.3,0-0.4,0c0,1.7,0,3.3,0,5
			c0.3,0,3.3,2.3,3.7,2.5c0.8,0.4,1.6,0.7,2.5,0.8c1.6,0.2,2.7-0.4,3.9-1.3c3.2-2.4,6.3-5.6,6.5-9.8c0.3-6.1-2.1-12.4-2.9-18.4
			c-0.5-3.7-0.5-7.6-1.6-11.2c-1.4-4.8-3.6-10.4-7.3-13.8c-4.5-4.1-8.9-2.6-14.2-1.4c-8.1,1.8-14.8-2.4-21-7.2
			c-5.7-4.3-11.1-9.7-14.8-15.8c-1.1-1.7-3.2-4.9-2.6-7.1c0.5-2.2,2.7-2.1,4.7-2.2c7-0.4,14.4,0.3,21.3,0.9
			c5.9,0.6,10.4,1.9,13.7,7.3c3.4,5.5,5.1,11.6,9.1,16.8c2.1,2.7,7.1,9.2,11.2,8.9c3.8-0.4,2.7-4.2,2.4-6.7
			c-0.8-6.9,0.4-14.5,0.3-21.5c-0.1-5.1,1.8-11.8,0.1-16.6c-1.9-5.2-8.3-6.6-10.9-11.5c-6.7-12.3-3.8-29.4,5.9-39.2
			c4.4-4.5,11.4-9,16-2.5c2.7,3.8,4,8.7,5,13.2c1.9,8.9,2.9,18.8-0.6,27.5c-2.4,5.8-8,9-10.3,14.7c-2.6,6.6-0.2,13.5,0.2,20.2
			c0.3,5.8-0.5,11.3-1,17.1c-0.2,2.5-0.2,5.7,2.8,6.3c4.8,1,9-7.2,11.1-10.2c3.1-4.7,5-9.6,7.3-14.7c5.1-11.3,20.8-9,30.9-9
			c3.2,0,11.2-1.2,12.4,2.8c1.1,3.6-2.3,8.9-4.1,11.7c-5.4,8.7-14.6,18.2-25.2,19.8c-6.1,0.9-12.2-1.8-18.4-1.1
			c-5,0.6-11.2,2.3-14.7,6.3c-2.9,3.3-3.1,6.9-2.1,11c1.4,6.3,3.1,12.4,2.2,18.9c-0.2,1.5-0.6,3-0.6,4.5c0,2.5,0.9,4.8,1.1,7.3
			c0.2,3.8,1.6,6.1,5.8,5.2c2.1-0.4,4.3-1.4,6-2.7c0.8-0.6,1.8-2.5,2.6-2.8c1.1-0.4,2.6,0.8,3.6,1.4c5.3,3.1,9.9,7.2,14.8,10.8
			c6.3,4.7,14.4,13.4,22.9,13.8c9.3,0.5,18-7.5,22.9-14.6c3.3-4.7,6-9.8,9.1-14.7c3.3-5.2,7-10,10.4-15.1c6.7-9.9,9.5-22,10.3-33.8
			c1.3-19.1-2-38.9-9.9-56.3c-14.6-32.2-43.8-55.8-77.9-64.6c-44.7-11.6-91.7,7.2-118.1,44.6c-12.7,18-20.5,39.7-21,61.9
			c-0.3,14.5,2.4,28.9,8.1,42.2c4.8,11.3,11.8,21.3,19,31.3c6.7,9.3,14.5,21.2,27.1,21.7C235.8,621.7,235.8,616.7,232.6,616.6z"/>
	</g>
</g>
<path class="st3" d="M457,559"/>
<path class="st4" d="M106.8,252c-5.7,0.2-9.5,2.9-9.5,2.9c-0.5,0.3-2.6,1.9-4.3,4.8c-2.3,4-2.4,7.8-2.4,11.9c0,4.6,0,11.2,3.8,17.6
	c1.5,2.5,3,4,4.8,8.1c1.3,3.1,2.2,5,1.9,7.2c-0.6,4.4-6.1,4.4-11,9.1c-6.9,6.6-8.5,18.4-5.2,26.7c0.5,1.3,1.8,4.4,4.8,7.2
	c5.2,4.8,11.9,5.1,14.3,5.2c25.1,1.6,49.4,10,74.4,12.4c30.9,3,29.5,4.5,55.8,7.2c4.5,0.5,11.2,1.1,19.7,1.8
	c11.9,0.9,49.7,3.5,112.4-0.4c34.6-2.1,51.8-3.2,74.4-7.4c27.6-5.1,50.2-12.1,66.3-17.9c2.7-2.9,3.5-5.7,3.8-7.2
	c1.3-6.2-1.9-11.4-2.9-12.9c-2.2-3.5-3.5-3.2-4.8-6.2c-0.8-1.8-1.3-3.9-0.5-10.5c0.6-4.8,1.1-9.3,3.3-15.7c3.1-8.9,4.7-7.8,5.7-12.9
	c2-10.1-3.5-18.6-4.8-20.5c-2.3-3.5-4.7-7.3-9.5-8.6c-5-1.4-9.6,1-11.4,1.9c-11.6,5.7-25.1,6.5-37,11.4
	c-19.8,8.3-53.5,10.3-103.7,13.4c-35.3,2.1-65.1,3.8-105.4,0.5c-29.2-2.4-43.9-3.6-54.6-7.2C177.8,271.5,119.9,251.6,106.8,252z"/>
<path class="st1" d="M113.4,242.9c-0.5-1.9,2.5-4.1,4-5.3c12.1-9.2,8.1-9.1,17.2-14.8c13-8.1,28.6-13.1,52.3-20
	c3.4-1,7.3-2.1,12-4.8c9.4-5.4,12.1-11.3,19-17.5c6.5-5.8,12.6-8.1,23-12c18.7-7,34.4-6.9,48-6.8c18.8,0.2,28.1,3.4,30.5,4.3
	c4.5,1.6,5.3,2.7,12.8,5.5c4.6,1.7,6.9,2.3,9,4.8c1.7,1.9,2.1,3.7,3.8,4c1.9,0.3,2.9-1.3,5.7-2c2.3-0.6,4.5-0.1,6,0.5
	c1-0.3,1.9-0.5,1.9-0.6c0,0-0.3,0.1-0.3,0.1c0,0,1.2-0.2,1.4-0.2c1.7-0.2,4.3,0.4,4.3,0.4c4.4,0.5,8.4,0.3,9.3,0.3
	c3.2,0,4.1-0.1,6.7,0.2c10.4,1.1,25.7,0.2,42.8,17.3c0,0,1.9,1.7,19,21.8c0,0,7-0.9,7.5-1c10.8-1.4,46.6,21.8,43.3,28.3
	c-0.4,0.9-1.4,1.1-3,1.5c-13.3,3.4-6.8,4.1-22.5,8c-7.8,2-10.9,2.2-26.3,4.8c-12.4,2.1-19.2,3.4-22.8,4
	c-52.7,9.1-112.7,8.3-112.8,8.3c-7.4-0.1-12.7-0.3-19.1-0.5c-30.4-1.1-70.8-3.8-119.4-10.5c0,0-23.3-2.8-38-10.2
	c-1.1-0.6-2.8-1.9-5.9-3.3C117.1,244.7,113.8,244.7,113.4,242.9z"/>
<path class="st5" d="M158.8,226.5c-0.9,0.2-3.4,0.8-4.7,3.2c-1.4,2.7-0.6,6.2,1.7,8.1c2.9,2.4,7.3,1.7,9.6-0.9
	c1.5-1.7,2.3-4.4,1.3-6.9C165.4,227,161.5,226,158.8,226.5z"/>
<path class="st5" d="M186.8,216.6c-0.9,0.2-3.4,0.8-4.7,3.2c-1.4,2.7-0.6,6.2,1.7,8.1c2.9,2.4,7.3,1.7,9.6-0.9
	c1.5-1.7,2.3-4.4,1.3-6.9C193.4,217,189.5,216,186.8,216.6z"/>
<path class="st5" d="M186.7,242.5c-0.9,0.2-3.7,0.9-5.1,3.4c-1.5,2.8-0.7,6.7,1.8,8.7c3.1,2.6,7.8,1.9,10.3-0.9
	c1.6-1.8,2.5-4.8,1.4-7.4C193.7,243,189.6,242,186.7,242.5z"/>
<path class="st5" d="M207.4,199.2c-0.9,0.2-3.7,0.9-5.1,3.4c-1.5,2.8-0.7,6.7,1.8,8.7c3.1,2.6,7.8,1.9,10.3-0.9
	c1.6-1.8,2.5-4.8,1.4-7.4C214.5,199.8,210.4,198.7,207.4,199.2z"/>
<path class="st5" d="M210.4,226.4c-0.6,0.1-2.5,0.6-3.4,2.3c-1,1.9-0.4,4.5,1.2,5.9c2.1,1.7,5.3,1.3,6.9-0.6
	c1.1-1.2,1.7-3.2,0.9-4.9C215.1,226.8,212.4,226,210.4,226.4z"/>
<path class="st5" d="M228,246.4c-0.5-0.1-1.8-0.5-2.5-2c-0.8-1.7-0.3-3.9,0.9-5.2c1.5-1.5,3.9-1.1,5.2,0.5c0.8,1.1,1.2,2.8,0.7,4.3
	C231.6,246.1,229.5,246.7,228,246.4z"/>
<path class="st5" d="M213.7,257.5c-0.7-0.2-3-0.8-4.1-3.3c-1.2-2.7-0.5-6.4,1.5-8.4c2.5-2.5,6.4-1.8,8.4,0.9c1.3,1.8,2,4.6,1.1,7
	C219.4,257,216.1,258,213.7,257.5z"/>
<path class="st5" d="M228.8,203.1c-0.9-0.2-3.7-1-5.1-4.1c-1.5-3.4-0.7-7.9,1.8-10.3c3.1-3,7.8-2.2,10.3,1.1
	c1.6,2.2,2.5,5.6,1.4,8.7C235.9,202.5,231.8,203.8,228.8,203.1z"/>
<path class="st5" d="M222.5,224.7c-0.3-0.1-1.1-0.3-1.6-1.3c-0.5-1-0.2-2.5,0.6-3.2c1-0.9,2.4-0.7,3.2,0.3c0.5,0.7,0.8,1.8,0.4,2.7
	C224.7,224.5,223.4,224.9,222.5,224.7z"/>
<path class="st5" d="M169,250.9c-0.3-0.1-1.1-0.3-1.6-1.3c-0.5-1-0.2-2.5,0.6-3.2c1-0.9,2.4-0.7,3.2,0.3c0.5,0.7,0.8,1.8,0.4,2.7
	C171.2,250.7,169.9,251.1,169,250.9z"/>
<path class="st5" d="M203.4,223.7c-0.3-0.1-1.1-0.3-1.6-1.3c-0.5-1-0.2-2.5,0.6-3.2c1-0.9,2.4-0.7,3.2,0.3c0.5,0.7,0.8,1.8,0.4,2.7
	C205.6,223.5,204.3,223.9,203.4,223.7z"/>
<path class="st5" d="M230.7,219.4c-0.3-0.1-1.1-0.3-1.6-1.3c-0.5-1-0.2-2.5,0.6-3.2c1-0.9,2.4-0.7,3.2,0.3c0.5,0.7,0.8,1.8,0.4,2.7
	C232.9,219.2,231.6,219.6,230.7,219.4z"/>
<path class="st5" d="M229.9,231.4c-0.3-0.1-1.1-0.3-1.6-1.3c-0.5-1-0.2-2.5,0.6-3.2c1-0.9,2.4-0.7,3.2,0.3c0.5,0.7,0.8,1.8,0.4,2.7
	C232.1,231.2,230.8,231.6,229.9,231.4z"/>
<path class="st5" d="M239,239.7c-0.5-0.1-1.8-0.5-2.5-2c-0.8-1.7-0.3-3.9,0.9-5.2c1.5-1.5,3.9-1.1,5.2,0.5c0.8,1.1,1.2,2.8,0.7,4.3
	C242.6,239.4,240.5,240,239,239.7z"/>
<path class="st5" d="M246.5,223.5c-0.5-0.1-1.8-0.5-2.5-2c-0.8-1.7-0.3-3.9,0.9-5.2c1.5-1.5,3.9-1.1,5.2,0.5
	c0.8,1.1,1.2,2.8,0.7,4.3C250,223.2,247.9,223.8,246.5,223.5z"/>
<path class="st5" d="M231.7,260.3c-0.5-0.1-1.8-0.5-2.5-2c-0.8-1.7-0.3-3.9,0.9-5.2c1.5-1.5,3.9-1.1,5.2,0.5
	c0.8,1.1,1.2,2.8,0.7,4.3C235.3,260,233.2,260.6,231.7,260.3z"/>
<path class="st5" d="M246.5,260.4c-0.5-0.1-1.8-0.5-2.5-2c-0.8-1.7-0.3-3.9,0.9-5.2c1.5-1.5,3.9-1.1,5.2,0.5
	c0.8,1.1,1.2,2.8,0.7,4.3C250,260.1,247.9,260.8,246.5,260.4z"/>
<path class="st5" d="M249.4,208.6c-0.9-0.2-3.7-1-5.1-4.1c-1.5-3.4-0.7-7.9,1.8-10.3c3.1-3,7.8-2.2,10.3,1.1
	c1.6,2.2,2.5,5.6,1.4,8.7C256.4,208,252.3,209.2,249.4,208.6z"/>
<path class="st6" d="M492.8,181.8"/>
</svg>
