<?xml version="1.0" encoding="utf-8"?>
<!-- Generator: Adobe Illustrator 22.1.0, SVG Export Plug-In . SVG Version: 6.00 Build 0)  -->
<svg version="1.1" id="Calque_1" xmlns="http://www.w3.org/2000/svg" xmlns:xlink="http://www.w3.org/1999/xlink" x="0px" y="0px"
	 viewBox="0 0 585 626.5" style="enable-background:new 0 0 585 626.5;" xml:space="preserve">
<style type="text/css">
	.st0{fill:#1D110B;}
	.st1{fill:#32140C;}
	.st2{fill:#F8E712;}
	.st3{fill:#A06714;}
	.st4{fill:none;stroke:#040506;stroke-miterlimit:10;}
	.st5{fill:#FEEB15;}
	.st6{fill:#39170E;stroke:#010202;stroke-miterlimit:10;}
	.st7{fill:#D8CF28;stroke:#000000;stroke-miterlimit:10;}
	.st8{fill:none;stroke:#E1E1E1;stroke-miterlimit:10;}
	.st9{fill:#D8CF28;stroke:#E1E1E1;stroke-miterlimit:10;}
	.st10{fill:#D8CF28;stroke:#FFFFFF;stroke-miterlimit:10;}
	.st11{fill:none;stroke:#FFFFFF;stroke-miterlimit:10;}
	.st12{fill:#A06714;stroke:#6B400F;stroke-miterlimit:10;}
</style>
<g>
	<path class="st0" d="M87.5,249.9c-6,3.1-5.7,13.9-6,25c-0.6,25.2-2.6,6.1-8,64c-2,21.6-3.5,41.2-4.2,52c-0.5,6.5-0.9,13-0.9,13
		c-0.9,13-1.6,23.8-1.7,25.8c-1.2,21,3.8,52,5.8,83.2c0.2,3.5,0.6,11-4.2,15.8c-2.8,2.9-6.5,3.8-8.8,4.2c0,0-0.5,0.8-3,10
		c0.1,3.4,0.9,7.7,4,10c2.8,0.7,7.1,1.4,12.2,0.8c3.9-0.4,6.6-1.4,7.8-1.8c8.1-2.6,16.5,0.3,24,1c41.5,3.8,81,15,81,15
		c67.6,19.2,158.7,7.4,224-1c1.1-0.1,41-10.6,71-12c22.9-1.1,34.3-1.6,37-1c5,1.2,11.2,3.3,16,0c4.1-2.8,6.1-9,5-14
		c-1.3-5.8-5.9-7.1-10-12c-5.3-6.4-5.6-14.2-5-29c0.7-19.8,2.3-33.2,3-41c1-10.9,0.3-23.1-1-47c-5.8-104.1-17.9-134.4-15.2-149.4
		c0.2-0.9,0.8-4.2-0.8-5.6c-3.1-2.6-10.8,3.6-22,8c-2.9,1.1-7.1,2.6-23,5c-48,7.4-75,9-75,9c-87.7,5.3-131.5,8-149,3
		c-17.9-5.1-37.7-14.5-56-10c-3.7,0.9-14.5,4.2-26,0c-4.4-1.6-5-2.9-10-5c-10.4-4.4-16.9-2.9-26-4
		C101.4,259.4,94.9,246.1,87.5,249.9z"/>
	<g>
		<path class="st1" d="M83.7,243.5c-12.1,7.5-9.3,25.2-9.9,37.3c-0.1,1.3-0.1,2.7-0.3,4c-0.1,0.6-0.1,1.1-0.2,1.7
			c-0.1,1.6,0.3-1.7,0-0.2c-0.3,1.7-0.6,3.3-1,4.9c-5.2,23.5-6.5,48-8.5,71.9c-1.2,14.6-2.3,29.1-3.2,43.7
			c-0.9,13.8-2.1,27.4-1.3,41.2c1,18.8,3.5,37.4,5,56.1c0.4,5,2.8,15-1.3,19.3c-2.7,2.8-6.9,1.7-9.4,4.9c-0.8,1.1-1.3,2.3-1.8,3.6
			c-2.3,6.5-3.8,12.9-1.2,19.6c3.6,8.9,12.3,10.4,21.1,9.7c3.7-0.3,7.2-1.2,10.8-2.2c4.5-1.2,8.9-0.7,13.4,0
			c9.4,1.5,18.8,2.2,28.2,3.6c15.7,2.3,31.3,5.4,46.7,9.1c8.4,2,16.7,4.5,25.2,6.4c66,14.6,135.8,6,202-2.4
			c23.7-3,46.6-9.9,70.4-12.5c14.2-1.5,28.7-2.1,43.1-2.2c1.5,0,3,0.1,4.5,0.1c1.6,0-1.4-0.4-0.5-0.1c2.1,0.7,4.4,1.1,6.6,1.5
			c8.5,1.4,16.7-0.9,21.3-8.7c3.9-6.6,4-15.5-0.3-21.9c-3.3-4.9-9.2-7.4-11.1-13.2c-2.1-6.5-1.2-14.2-0.9-20.9
			c0.3-8.5,0.9-16.9,1.6-25.4c0.9-10.7,2-21.3,1.8-32.1c-0.4-17.4-1.6-34.7-2.8-52.1c-2-27.5-4.8-55-8.9-82.3
			c-1.2-7.8-2.4-15.7-3.6-23.5c-0.2-1.5-0.4-2.9-0.6-4.4c0-0.3-0.4-2.6-0.2-1.4c0.2,1.1-0.1-1.1-0.2-1.5c-0.3-2.2-0.5-4.3-0.6-6.5
			c-0.1-1.9,0.1-3.7,0.1-5.5c0-1.5-0.2,1-0.1,0.7c0.2-1,0.4-2,0.5-3.1c0.4-3.7-0.4-7.6-3.1-10.3c-8.7-8.5-23.5,4.4-32.3,7.1
			c-14.2,4.4-29.7,5.5-44.3,7.5c-12.5,1.7-25,3.2-37.6,4.3c-23.7,2.2-47.5,3.2-71.3,4.4c-22.8,1.2-45.9,2.8-68.8,1.9
			c-3.5-0.1-6.9-0.4-10.3-0.7c-0.5-0.1-2.9-0.4-0.8-0.1c-0.6-0.1-1.2-0.2-1.8-0.3c-1.3-0.2-2.5-0.4-3.7-0.7
			c-15.9-3.8-30.6-11.1-47.2-11.8c-7.3-0.3-13.8,1.9-20.9,2.9c-7.5,1.1-13.7-0.6-20.3-4.1c-7.6-4.1-15.6-5.7-24.1-6.1
			c-7.4-0.3-14.5-1-21.3-4.3C101.4,246.5,93.9,238.8,83.7,243.5c-8.8,4-1.1,17,7.6,13c-0.2,0.1-0.4,0.2-0.6,0.3
			c-1,0.1-1.1,0.1-0.2,0c-0.4,0.5-1.1-0.6,0.4,0.2c-1.5-0.8,0.7,0.4,0.8,0.4c0.7,0.4,1.4,0.8,2.1,1.2c4.2,2.5,8.3,5,12.8,6.8
			c5.1,2.1,10.4,3.4,15.9,4c6.3,0.7,12.7,0.2,18.8,1.9c5,1.4,9.1,4.4,13.8,6.3c6.8,2.7,14.2,3.3,21.3,2.5c4.5-0.5,8.8-2,13.2-2.6
			c7-0.9,14.2,0.3,20.9,2.1c10.4,2.7,20.4,7.1,30.9,9.3c5,1,10.1,1.5,15.2,1.8c15.3,0.9,30.7,0.2,46-0.4c37.9-1.6,76-3.1,113.7-7.4
			c12.3-1.4,24.6-3,36.9-4.8c10.9-1.6,22.1-2.7,32.7-5.8c3.5-1,6.8-2.5,10.1-4c2.7-1.3,5.4-2.7,8.1-4c0.7-0.4,1.5-0.8,2.2-1.1
			c2.7-1,1.4,0.5,0-0.6c-1.1-1.2-2.2-2.5-3.3-3.7c-0.1,1.2-0.1,1.4,0,0.6c-0.1,0.2-0.1,0.6-0.1,0.9c-0.1,1.2-0.3,2.3-0.4,3.5
			c-0.1,1.4-0.1,2.8-0.1,4.1c0.3,9.4,2.2,18.7,3.7,28c2.5,15.9,4.7,31.8,6.5,47.7c2.9,26.5,4.7,53.2,6.1,79.8
			c0.5,9.9,1.1,19.8,0.6,29.7c-0.4,8.8-1.6,17.6-2.3,26.4c-0.9,12.9-2.6,26.6-0.4,39.5c0.7,4.2,2.2,8.3,4.7,11.8
			c1.7,2.4,3.7,4.4,5.9,6.3c1.8,1.6,3.7,2.7,4,5.3c1,9.6-12.3,3.7-17.6,3.7c-9.8-0.1-19.6,0.6-29.3,1.1c-23,1.1-45.7,5.2-68.1,10.4
			c-7.2,1.7-10.8,2.3-18.1,3.2c-12.3,1.6-24.5,3.1-36.8,4.4c-52.3,5.7-107.1,10-159-1c-16-3.4-31.7-8.2-47.8-11.4
			c-14-2.8-28.1-5.1-42.4-6.7c-7-0.8-14.1-2.1-21.1-2.7c-6.7-0.5-12.1,1.9-18.5,2.8c-2.6,0.4-6.3,0.6-8.9-0.3c2.5,0.9,0.2,0.8,0.6-1
			c0.2-0.9,0.1-2.3,0.4-3.3c0.5-1.8,1.1-3.6,1.6-5.5c0.4-1.3,0.7-1.1-0.3,0.5c-1.5,1.1-3,2.3-4.5,3.4c12.8-2.3,18.9-13.3,18.6-25.5
			c-0.4-13.9-2.3-27.9-3.7-41.7c-1.3-12.7-2.6-25.6-2.4-38.4c0.1-10.2,1.1-20.4,1.8-30.6c1.6-23.9,3.4-47.7,5.8-71.5
			c1.3-12.8,2.7-25.6,5.4-38.2c0.8-3.7,1.3-7.4,1.6-11.1c0.2-3.3,0.3-6.6,0.4-9.9c0.1-3.3-1.2-14.7,2.2-16.8
			C99.5,251.4,92,238.4,83.7,243.5z"/>
	</g>
</g>
<g>
	<path class="st2" d="M232.6,515.1c-10.1,0-17.3-9.9-26.1-22c-9.9-13.9-22.1-30.8-25.1-57c-4.4-38.9,15-67.7,22.1-77
		c6.8-9,27.9-34.2,65.1-42c50.1-10.4,87.7,19.5,93.2,24c6.6,5.5,30.1,26,38.1,61c0.9,4,9.3,42.7-7,67c-1.8,2.6-3.2,4.1-7.2,10.1
		c-10.9,16.2-12.5,22.9-21.3,28.9c-3.3,2.2-6.3,4.2-10.5,4.5c-5.5,0.3-8.6-2.8-23.1-13.5c-7.4-5.5-18.1-14.8-21-12.5
		c-0.8,0.6-1,2-3,3.5c-1.2,0.9-2.4,1.3-3,1.5c-2,0.7-3.2,1.1-4,0.5c-1.1-0.8,0-2.8-1-7c-0.3-1.3-0.5-1.1-0.6-2.1
		c-0.3-2.9,1.5-5.2,0.6-13.9c-1.1-10.2-4.4-13.5-2-18c2.2-4.2,7.3-5.6,10.5-6.5c8.2-2.3,13.5,0.2,18.5,0.5
		c18.6,1,39.5-28.1,34.6-36.5c-1.8-3.1-7.4-3.1-18.5-3c-12.6,0.1-19.7,0.2-25.1,5c-5.3,4.8-3.4,9.3-12,21.5
		c-2.7,3.8-5.7,8.1-7.5,7.5c-2.4-0.9,1.7-9.7,0-24.5c-0.8-6.8-2.2-10.8,0-16c1.6-3.7,3.7-4.9,6-7.5c9.6-10.8,6.3-28.5,5.5-33
		c-0.7-3.7-3.6-20-12-21.5c-0.9-0.2-2.6-0.3-5.5,1c-9,3.9-16.5,14.3-18,26c-1.2,9.7,1.3,23.3,9,28c1.4,0.9,3.1,1.5,4.5,3.5
		c2.5,3.5,0.4,6.8,0.5,14.5c0.4,21.4-1.1,21.9,0,26c0.1,0.5,0.6,2.1,0,2.5c-1.1,0.8-4.8-2.9-6-4c-10.3-9.9-9.1-20.2-17.5-26
		c-3.8-2.6-9.6-2.9-21-3.5c-10.5-0.5-15.7-0.8-17.5,2c-3.6,5.6,7.6,19.8,18,27.5c5.4,4,11.3,8.4,19,8c6-0.3,8.7-3.2,13-1.5
		c4.5,1.7,6.4,6.7,8.5,12c2.5,6.3,0.9,6.5,3.5,20c1.5,8,2.9,11.9,0.5,15c-1.2,1.5-4.5,4.5-4.7,4.6c0,0,0,0,0,0
		c-1.4,1.2-4.4-0.4-7.7-3c-0.3,0-0.4,0-0.4,0c0,0,0.4,0,0.4,0c0,0-1.8-0.1-3.7,0.5c-0.3,0.1-0.5,0.2-0.9,0.4c-4.9,2.6-7.5,6.4-8,7
		C254.8,507.3,241.5,515.1,232.6,515.1z"/>
	<g>
		<path class="st3" d="M233.2,514.4c-12.3-0.5-20.4-14.9-26.7-23.7c-5.8-8.2-11.4-16.5-15.5-25.7c-9.9-21.9-11.2-46.8-4.4-69.8
			c8.9-30.2,30.8-56.3,59.3-69.8c36.8-17.4,80.6-10,112.3,14.4c23,17.7,38.3,44.5,42.1,73.2c2.4,18.6,2,40-8.7,56.1
			c-5.7,8.5-11.5,16.8-16.9,25.6c-4.3,7-12.2,18.1-21.7,17.2c-7-0.6-14.1-8.2-19.4-12.2c-4.2-3.2-8.3-6.5-12.6-9.5
			c-2.5-1.7-5.6-4.3-8.8-4.6c-2-0.2-2.9,0.5-4.4,1.6c-1.4,1.1-5.8,6.8-7.3,2.7c-0.3-0.9,0-2.6-0.1-3.6c-0.1-1.1-0.6-2.1-0.8-3.1
			c-0.4-2.8,0.6-5.7,0.7-8.5c0.3-5.7-1.1-11.2-2.4-16.7c-1.3-5.2,0.1-9.1,5.3-11.5c7-3.1,13.3-1.5,20.4-0.8
			c6.7,0.7,13.1-1.8,18.6-5.5c6.6-4.4,12.3-10.6,16.3-17.5c2.2-3.7,6.3-11.3,2.5-15.4c-1.6-1.8-4.5-2.1-6.7-2.3
			c-5.6-0.5-11.4-0.2-17.1-0.1c-7.1,0.1-15.1,0.2-20.9,4.8c-5.2,4.1-6.3,11.2-9.5,16.8c-1.8,3.2-3.9,6.2-6.1,9.1
			c-0.3,0.4-2.3,3.2-2.8,2.9c-0.3-0.2-0.1-1.2-0.2-1.4c-0.7-3.1,0.9-7.8,1.1-11c0.3-6.1-0.5-11.9-1.2-17.9c-0.9-7.7,2-11.2,6.8-16.7
			c5.8-6.7,7.2-15.9,6.7-24.5c-0.5-9-2.8-30.1-14.6-30.8c-7.9-0.4-15.6,7.1-19.4,13.1c-5.4,8.4-7,18.6-5,28.3
			c0.8,3.9,2.1,7.7,4.4,10.9c2.9,4,9.1,5.3,9.8,10.6c0.6,4.7-0.7,10.1-0.6,14.9c0,4.5,0,8.9-0.2,13.4c-0.1,2-0.3,3.9-0.3,5.9
			c0,1.6,1,3.9,0.4,5.4c0.6-0.3,1.1-0.6,1.7-0.9c-2.2,0.4-7.6-6.7-8.5-7.9c-3-3.9-4.8-8.4-6.9-12.7c-2.6-5.4-6.1-9.8-12.1-11.3
			c-7.6-1.9-16.2-1.7-24-1.9c-3.6-0.1-9.5-0.5-12,2.8c-3.1,4.1,1.2,10.4,3.6,13.7c5,7.2,11.8,13.2,19.1,17.9
			c6.3,4.1,13,5.8,20.4,3.9c6.8-1.7,10.3,0.1,13.3,6.2c1.3,2.8,2.6,5.8,3.3,8.9c0.5,2.5,0.6,5.2,0.9,7.8c0.6,5.1,1.9,10.1,2.7,15.2
			c0.7,4.5,0.1,8.4-4.1,11c-0.4,0.2-0.8,1-1.2,1.1c-1.1,0.3-3.6-2.4-4.6-2.8c-1.1-0.5-1-0.8-2.2-0.6c-0.9,0.1-2.6,1.5-0.8,1.4
			c0.3,0,0.5,0,0.8-0.1c0.5-0.1,2.6-1.3,1.1-1.4c-6.2-0.3-10.8,3.8-14.6,8.3C254.7,505.5,244.3,514,233.2,514.4
			c-0.9,0-3.1,1.5-1.2,1.4c7.1-0.2,13.9-3.4,19.8-7.3c3.7-2.5,7.2-5.4,10.3-8.7c3.2-3.5,6.9-9.7,12.3-9.4c0.4-0.5,0.8-0.9,1.1-1.4
			c0,0,0,0,0,0c-0.3,0.5-0.5,0.9-0.8,1.4c0.2,0,2.3,1.9,2.9,2.2c0.8,0.4,1.6,0.8,2.5,1c1.4,0.3,2.6,0.1,3.9-0.7
			c2.3-1.3,5.5-4.5,6.3-7.1c1.7-5.2-1.4-12.4-2.2-17.6c-0.6-4-0.7-8.1-1.6-12c-2.1-9.4-7.2-18.5-17.8-15.7c-9.9,2.6-16.9-1.2-24.6-7
			c-5.2-4-10-8.7-13.7-14.1c-2.9-4.1-8.1-13.1,0.3-14c7.2-0.8,15.1,0.2,22.2,0.9c5.9,0.6,10.5,2.1,14,7.2c3.6,5.2,5.2,11.5,9,16.7
			c2,2.8,6.5,8.8,10.4,9c3.1,0.2,2.8-2.2,2.4-4.4c-1-6.2,0.2-13,0.2-19.2c0-4-0.2-8,0.2-12c0.2-2,0.7-4.2,0.3-6.2
			c-0.6-2.6-2.4-4.1-4.6-5.4c-2.7-1.8-4.8-3.6-6.5-6.6c-6.5-11.8-4.7-28.1,3.4-38.7c4.4-5.8,13.5-13.1,19.4-5.4
			c3,3.9,4.4,8.9,5.5,13.6c2,8.6,3,18,0.6,26.6c-0.9,3.2-2.3,6.2-4.3,8.8c-2,2.5-4.6,4.4-6.2,7.2c-3.2,5.7-1.4,11.6-0.8,17.7
			c0.7,6.8,0,13.3-0.6,20.1c-0.2,1.9-0.7,4.2,1.5,4.7c3.8,0.9,7.3-5.3,8.9-7.5c3.4-4.8,6-9.8,8.2-15.2c2-4.9,4.9-8.6,10.3-10.1
			c7-1.9,15.1-1.2,22.3-1.2c3.9,0,11.7-0.9,13.1,4c1.1,3.7-1.2,8.3-2.9,11.5c-5.2,9.7-15.8,21.3-27.4,22.5
			c-6.1,0.6-11.9-1.9-18.1-1.1c-4.5,0.6-9.8,2-13.3,5.1c-3.2,2.8-3.7,6.1-2.7,10.1c1.5,6.4,3.1,12.6,2.4,19.2
			c-0.2,1.5-0.6,3-0.7,4.5c-0.1,2.2,0.9,4.3,1,6.5c0.2,3.5,0.4,5,4.3,4.2c1.9-0.4,4-1.2,5.6-2.4c2.3-1.6,2.3-3.8,5.3-2.6
			c5.7,2.4,10.6,7.3,15.5,11c5,3.8,9.9,7.8,15.2,11.2c2.3,1.5,4.6,2.9,7.4,3.2c8,1,16.3-5.2,21.2-11c3.4-4,5.9-8.7,8.6-13.2
			c3.6-5.9,7.5-11.7,11.6-17.3c6.9-9.3,10.3-20.2,11.5-31.7c2-19.2-0.9-39.5-8.6-57.2c-14.2-32.5-43.1-56.3-77.3-65.1
			c-43.8-11.4-90.3,6.5-116.8,42.8c-12.5,17.1-20.5,37.8-21.6,59c-0.8,15.1,1.7,30.3,7.6,44.2c4.6,10.8,11.2,20.4,18,29.9
			c6.6,9.2,14.2,21.7,26.8,22.2C233,515.9,235.1,514.5,233.2,514.4z"/>
	</g>
</g>
<path class="st4" d="M457,455"/>
<g>
	<path class="st5" d="M108.1,120.8c-0.5-1.9,2.5-4.1,4-5.3c12.1-9.2,8.1-9.1,17.2-14.8c13-8.1,28.6-13.1,52.3-20
		c3.4-1,7.3-2.1,12-4.8c9.4-5.4,12.1-11.3,19-17.5c6.5-5.8,12.6-8.1,23-12c18.7-7,34.4-6.9,48-6.8c18.8,0.2,28.1,3.4,30.5,4.3
		c4.5,1.6,5.3,2.7,12.8,5.5c4.6,1.7,6.9,2.3,9,4.8c1.7,1.9,2.1,3.7,3.8,4c1.9,0.3,2.9-1.3,5.7-2c2.3-0.6,4.5-0.1,6,0.5
		c1-0.3,1.9-0.5,1.9-0.6c0,0-0.3,0.1-0.3,0.1c0,0,1.2-0.2,1.4-0.2c1.7-0.2,4.3,0.4,4.3,0.4c4.4,0.5,8.4,0.3,9.3,0.3
		c3.2,0,4.1-0.1,6.7,0.2c10.4,1.1,25.7,0.2,42.8,17.2c0,0,1.9,1.7,19,21.8c0,0,7-0.9,7.5-1c10.8-1.4,46.6,21.8,43.3,28.3
		c-0.4,0.9-1.4,1.1-3,1.5c-13.3,3.4-6.8,4.1-22.5,8c-7.8,2-10.9,2.2-26.3,4.8c-12.4,2.1-19.2,3.4-22.8,4
		c-52.7,9.1-112.7,8.3-112.8,8.3c-7.4-0.1-12.7-0.3-19.1-0.5c-30.4-1.1-70.8-3.8-119.4-10.5c0,0-23.3-2.8-38-10.2
		c-1.1-0.6-2.8-1.9-5.9-3.3C111.7,122.6,108.5,122.6,108.1,120.8z"/>
	<g>
		<path class="st1" d="M110.3,121.9c0.1-4,6.3-6.9,9-9.3c2.2-1.9,4.1-4.2,6.2-6.3c5.3-5.1,12.6-8.5,19.3-11.4
			c9.2-4,18.8-7.1,28.3-10c10.9-3.3,22-5.7,30.6-13.8c7-6.6,12.2-14,21.1-18.3c10.4-5.1,21.9-8.8,33.3-10.6
			c10.3-1.6,20.9-1.7,31.3-1.3c8.1,0.3,16.4,1,24.1,3.3c2.8,0.9,5.4,2.2,8.1,3.4c2.2,1,4.4,1.9,6.6,2.7c1.5,0.6,2.9,1,4.2,1.9
			c1.7,1.2,2.3,3,3.8,4.3c1.2,1.1,3.7,2.5,5.3,2.7c2.6,0.2,4.7-2.1,7.4-2.2c2.6-0.1,3.8,0.9,6.3,0.1c-0.7,0.2-3.1-2.6-4.3-2.3
			c-0.1,0-0.2,0-0.3,0.1c0.4-0.1,3,2.5,4.2,2.3c4-0.6,8.3,0.5,12.3,0.6c4.3,0,8.6,0.1,12.9,0.5c12.9,1,23.8,4.2,33.6,13.4
			c1.4,1.3,3.2,3.2,4.9,5.2c2.3,2.6,4.7,5.3,7,8c3,3.5,5.9,8.3,9.7,10.8c4.2,2.7,8.9-0.2,13.5,0.5c8.2,1.1,16.3,6.5,22.9,11.1
			c3.2,2.3,6.5,4.7,9.2,7.5c1.4,1.4,3.9,3.7,4,5.8c0.1,3.3-5.8,3.5-8.2,4.4c-2.5,0.9-4.8,2.2-7.2,3.3c-6.9,3.2-14.9,4.5-22.4,5.7
			c-10.5,1.7-21,3.4-31.4,5.3c-23,4.2-46.3,6.6-69.7,7.9c-33,1.9-65.7,1.3-98.7-0.8c-28.9-1.9-57.6-4.8-86.3-8.6
			c-8-1.1-16-2.5-23.8-4.6c-5.9-1.6-11.4-3.6-16.7-6.6c-1.9-1.1-3.9-2.1-6-2.9c-1.1-0.4-2.2-0.9-3.3-1.3c-0.5-0.2-1-0.4-1.5-0.5
			c0.6,0.6,0.7,0.5,0.3-0.1c-0.5-1.2-4.2-1.7-4.4-2.1c0.7,1.6,3,2.5,4.5,3.2c3.9,1.8,7.9,3.1,11.6,5.2c6.3,3.6,13.5,5.9,20.5,7.8
			c15.5,4.1,31.7,5.6,47.7,7.5c37.3,4.3,75,7.3,112.5,7.6c32.7,0.3,65.7-1.6,98.1-6.1c17.6-2.5,35.1-5.8,52.6-8.8
			c6.5-1.1,13.2-2.4,19.3-4.8c1.7-0.7,3.3-1.6,5-2.4c3.2-1.5,6.9-1.8,10-3.3c8.3-4.1-18.3-20.7-21.4-22.4
			c-5.6-3.2-11.5-6.3-17.7-8.2c-5-1.5-9.3-0.7-14.4-0.1c1.4,0.7,2.9,1.5,4.3,2.2c-9.8-11.5-19.2-24.5-32.6-32.3
			c-8.1-4.7-16.8-7.4-26.1-8.3c-4.7-0.4-9.4-0.8-14.1-0.8c-4.9,0-10.2-1.2-15-0.5c1.4,0.8,2.8,1.6,4.2,2.3c0.1,0,0.2,0,0.3-0.1
			c-1.4-0.8-2.9-1.5-4.3-2.3c-2.3,0.7-4.6-0.4-6.9-0.1c-1.7,0.2-5,2.6-6.5,2c1.1,0.6,2.1,1.2,3.2,1.8c-2.3-2.6-3.7-4.9-6.7-6.6
			c-3.3-1.9-6.9-3-10.4-4.3c-5-2-9.7-4.7-15-6.1c-16.7-4.6-36.1-4.4-53.1-2c-10.8,1.5-21.2,4.9-31.3,9.2c-9.1,3.9-15.3,9.8-21.9,17
			c-7.4,8.1-16.3,11.7-26.6,14.8c-10.2,3-20.5,6-30.4,10c-7.9,3.1-16.7,6.8-23.2,12.5c-2,1.7-3.6,3.9-5.5,5.7
			c-2.9,2.8-10.6,6.4-10.7,10.8C105.8,120.7,110.3,121.6,110.3,121.9z"/>
	</g>
</g>
<path class="st6" d="M492.8,77.8"/>
<path class="st7" d="M573.1,310.7"/>
<path class="st8" d="M319.2,328.6"/>
<path class="st9" d="M568.1,368.9"/>
<path class="st8" d="M251,586c14.3,0.3,26.1-0.1,34.7-0.5c42.7-2.1,58-8.2,65.9-11.9c1.9-0.9,8.6-0.7,11.8-5.3c0.3-0.5,0.7-1,1-1.8
	c1.8-5.6-8-12.4-11-16.6c-10-13.8-6.9-31.9-5.1-42.8c4.3-25.1,21.7-53.3,35.7-51.4c1.7,0.2,4.4,1.1,11.5,9.5
	c12.7,15.3,22.6,27.2,23,44.3c0.5,22.2-15.5,39.3-25.8,50.4c-1.8,2-7.4,5.8-6.9,6.7c0.8,1.3,11.7-7.4,27.3-9.4
	c14.5-1.8,26,3,29.7,4.6c3.8,1.6,13.6,6.3,22.1,16.3c3.3,3.9,5.6,8.3,10.3,17.1c6.5,12.3,9.7,18.5,8.3,22c-0.8,2-3.5,5.6-25.8,7.7
	c-19.9,1.9-29.9,2.8-40.7-0.4c-7.5-2.2-30-8.9-35-24.8c-1.5-4.9-1.6-11.3-6.6-20.4c-3.4-6.3-6-6.3-5.8-8.6c0.7-9.2,35.9-2.4,58.3-24
	c1.7-1.6,6.3-10.7,13.8-12.2c1.3-0.3,2.2-0.2,2.6-0.1c5.9,0.9,8.3,10.1,10.3,13.2c9,14.4,24.9,23.4,38.1,25.9
	c14.5,2.7,26.7-2.3,32.4-4.7c17.8-7.4,33.3-23.3,33.3-23.3c-1.8-2.1-4.4-5-7.8-8.3c-3.9-4.2-14.3-15.3-26.5-20.9
	c-19.5-9-40-2.4-47.2-0.1c-14.8,4.7-23.4,14.4-24.6,13c-1.2-1.4,9.5-9.5,17.3-24.5c4-7.7,11.7-22.5,7.8-38.3
	c-0.3-1.2-1.2-2.4-2.6-4.8c-4.6-8-9.6-14.1-23.4-28.3c-11.8-12-13.1-12.6-14.9-12.6c-9.8,0-17.1,16.8-19.7,22.9
	c-2.3,5.3-7.3,17.3-4.9,32.2c1.1,7.2,5.1,14.8,12.9,29.8c9,17.2,9.2,18.3,10.7,19.1c12.2,6.6,36.8-6.5,50.6-18.1
	c4.1-3.4,7.8-7.2,14.2-8.2c9.2-1.4,16.1,4.6,22.1,7.9c20.1,11.3,47.6,3.1,60.7-3.6c23-11.8,39.9-38.1,34-48.5c-1.8-3.1-9-5-23.2-8.7
	c-12.4-3.2-18.6-4.8-23.8-4.9c-22.9-0.6-39.5,17.8-41.2,19.6c-9,9.8-13.6,14.8-15.6,21.5c-0.7,2.3-1.6,6.3-4.3,7.1
	c-3.1,0.9-6.8-2.9-8.9-5.2c-18.5-20.6-27.8-30.9-30.6-49.3c-4.3-28.3,8.9-58.4,17.3-58.1c2.1,0.1,3.4,2,6.2,6.1
	c15.2,22.8,22.9,34.2,24.7,41.3c5.1,19.8-1.1,35.2,1.6,35.8c2.7,0.6,9.8-13.9,13.2-21.9c3-7.1,4.8-13,9.9-14.7
	c2.9-0.9,5.5,0.2,7,0.4c14.2,1.9,23.5,6.5,28.5,8.3c21.8,7.8,46-6.4,47-7c13.9-8.4,20-20.4,24.5-29.2c3.4-6.7,11.2-22,5.6-28.2
	c-2.8-3.1-7.7-2.6-15.9-1.8c-26.3,2.7-39.5,4.1-40.8,4.7c-25.6,11.8-25.3,45-43.2,45.8c-2.5,0.1-6-1.2-13-3.9
	c-7-2.7-17.5-6.7-26.2-15c-13.5-12.9-16-30-16.6-34.9c-2.7-20.5,5.8-35.6,10.7-44.3c5.2-9.2,8.1-14.3,13.4-15.4
	c12-2.5,28,17.6,35.2,36.4c0,0,12.9,31.6,1.5,66.2c-0.2,0.7-1,3.1-1,3.1c0.2,0.1,8.1-18.1,14.3-39.2c2.9-9.8,4.5-17.9,5.5-24.5
	c2-13,3.5-23.9,4.5-23.8c0.3,0,0.6,0.9,0.8,3.9c7.7,2,11.6,2.7,11.8,2.2c0.2-0.6-4-2.6-12.6-6.1c-1.5,7.9-3,15.9-4.5,23.8"/>
<path class="st8" d="M579.5,330.7"/>
<path class="st8" d="M378.5,561.8c-7-1.3-11.8-17.9-10.3-31.8c2.5-23.3,23.2-44.4,23.2-44.4c0,0,5.7,10.4,8.3,18.4
	c3.2,10.2,2.1,19.1,1.7,22.4C399.1,543.9,386.7,563.3,378.5,561.8z"/>
<path class="st8" d="M550.1,409.3c-6.7,2.3-17.7-12-23.2-21.9c-13.4-24.3-13.2-56-5.1-58.8c3.5-1.2,8.8,4.2,19.5,14.9
	c8.6,8.7,13,13.2,15,20.7c1.1,4.2,0.6,9.5-0.5,20C554.1,400.1,553.3,408.2,550.1,409.3z"/>
<path class="st8" d="M519.4,484.2c-0.6-3.2,7.5-9.9,23.6-23.3c5.2-4.3,7.8-6.5,9-7.2c19.9-12.2,52.2-4.4,53.7,4.8
	c0.4,2.6-3.2,6.1-10.4,13.1c-6.6,6.4-13.1,12.7-19.7,16.5C554.3,500.5,520.9,492.9,519.4,484.2z"/>
<path class="st10" d="M100.9,530.7"/>
<path class="st11" d="M336.3,458.6"/>
<path class="st10" d="M93.5,480.2"/>
<path class="st11" d="M338.7,225c-13.5,3-24.6,5.9-32.6,8.2c-39.8,11.3-53,20-59.6,24.8c-1.6,1.2-7.9,2.5-10,7.1
	c-0.2,0.5-0.5,1-0.5,1.7c-0.5,5.1,10.1,8.7,13.9,11.6c12.3,9.5,13.2,25.5,13.7,35.2c1.2,22.2-9.4,50-22.9,51.6
	c-1.7,0.2-4.4,0.1-12.8-5.5c-15.1-10.1-27-18-30.8-32.4c-5.1-18.7,6.4-36.8,13.9-48.5c1.3-2.1,5.7-6.6,5.1-7.2
	c-1-0.9-9.5,8.9-23.8,14.1c-13.2,4.8-25.1,3.3-28.9,2.8c-3.9-0.5-14.1-2.3-24.2-8.9c-3.9-2.6-7-5.8-13.3-12.2
	c-8.7-8.9-13-13.5-12.4-16.8c0.4-1.9,2.1-5.5,22.7-12.3c18.4-6,27.6-9.1,38.4-8.8c7.5,0.2,30.1,0.8,38.1,13.2
	c2.5,3.8,3.9,9.2,10.4,15.8c4.5,4.6,6.9,4,7.3,6c1.2,8-33.3,10.1-50,33.5c-1.3,1.8-3.7,10.5-10.5,13.5c-1.2,0.5-2,0.6-2.5,0.7
	c-5.8,0.6-9.9-6.7-12.4-8.9c-11.4-10.2-28.3-14.3-41.3-13.4c-14.3,0.9-24.6,7.9-29.6,11.3c-15.2,10.3-26.5,27.3-26.5,27.3
	c2.1,1.4,5.2,3.2,9.1,5.3c4.6,2.7,16.7,9.7,29.4,11.8c20.2,3.2,38.2-6.9,44.5-10.5c13-7.3,19.1-17.5,20.5-16.6
	c1.5,0.9-7,10.2-11.2,24.7c-2.2,7.4-6.4,21.7,0.6,34.2c0.5,0.9,1.6,1.7,3.4,3.5c6,5.8,11.9,9.8,27.9,18.7c13.6,7.6,15,7.8,16.6,7.4
	c9.3-2.2,12.6-18,13.8-23.8c1.1-5,3.2-16.3-2.1-28.4c-2.6-5.9-7.9-11.4-18.3-22.4c-12.1-12.6-12.4-13.5-14-13.8
	c-12.9-2.9-33.3,13.8-43.9,26.7c-3.1,3.8-5.9,7.9-11.7,10.1c-8.4,3.2-16.1-0.3-22.4-1.8c-21.3-5.1-45.5,8.1-56.4,16.7
	c-19.2,15.1-29.6,41.3-21.9,48.7c2.3,2.3,9.5,2.3,23.7,2.2c12.3-0.1,18.5-0.1,23.5-1.1c21.7-4.6,33.5-23.9,34.7-25.8
	c6.5-10.4,9.7-15.6,10.2-21.8c0.2-2.1,0.2-5.7,2.6-7c2.7-1.5,7,1,9.5,2.5c21.7,13.3,32.6,19.9,39.1,35c10,23,3.8,51.5-4.2,53.2
	c-2,0.4-3.6-0.9-7.1-3.8c-19.1-15.9-28.7-23.9-31.9-29.5c-9-15.6-6.3-30.1-9-30c-2.6,0.1-6.4,14-7.9,21.5
	c-1.4,6.7-1.8,12.1-6.2,14.6c-2.6,1.5-5.3,1-6.7,1.2c-13.8,1.6-23.5-0.2-28.6-0.6c-22.1-1.7-42,15.7-42.8,16.5
	C9,456.3,5.7,467.9,3.3,476.4c-1.8,6.4-6,21.2,0.6,25.2c3.3,2,7.8,0.5,15.3-2c24.2-8.2,36.3-12.3,37.5-13.2
	c21.7-15.8,14.5-43.8,31.2-48.5c2.3-0.6,5.9-0.3,13,0.4c7.2,0.7,17.9,1.8,27.8,6.9c15.4,7.9,21.3,21.8,22.9,25.8
	c6.8,16.8,2,31.5-0.8,39.9c-3,9-4.6,14-9.4,16.1c-10.8,4.8-30.1-8.6-40.7-23c0,0-18.7-23.9-15.2-55.8c0.1-0.6,0.3-2.8,0.3-2.8
	c-0.2,0-3.8,17.2-5.3,36.4c-0.7,9-0.5,16.2-0.1,22c0.8,11.5,1.7,21,0.7,21.2c-0.3,0-0.7-0.7-1.5-3.1c-7.7,0.1-11.5,0.3-11.6,0.8
	c-0.1,0.5,4.3,1.3,13.1,2.3c-0.2-7.1-0.5-14.1-0.7-21.2"/>
<path class="st11" d="M90.7,515.1"/>
<path class="st11" d="M231.9,274.1c6.9-0.5,14.9,12.6,16.4,24.7c2.5,20.3-12.6,42.9-12.6,42.9c0,0-7.6-7.5-11.6-13.8
	c-5.1-7.9-6-15.7-6.3-18.6C216.3,293.9,223.8,274.7,231.9,274.1z"/>
<path class="st11" d="M102,441.9c5.8-3.4,19.2,6.2,26.4,13.4c17.7,17.6,24.1,44.5,17.1,48.7c-3,1.8-9.2-1.6-21.5-8.3
	c-9.9-5.4-15-8.3-18.4-14.2c-1.9-3.3-2.5-7.9-3.7-17.1C100.2,450.6,99.3,443.6,102,441.9z"/>
<path class="st11" d="M110.5,557.1"/>
<path class="st11" d="M115.3,371.5c1.2,2.6-5,10.1-17.4,25c-4,4.8-6,7.2-7,8.1c-16.2,14.8-48.3,15.4-51.6,7.9
	c-0.9-2.1,1.7-5.9,7-13.5c4.9-6.9,9.7-13.7,15.1-18.4C79.1,365.5,112.1,364.5,115.3,371.5z"/>
<path class="st10" d="M516.7,89.4"/>
<path class="st11" d="M361.1,100.9"/>
<path class="st10" d="M513.7,126.7"/>
<path class="st11" d="M520.7,102.3"/>
<path class="st11" d="M397.5,250.1c-4.3-0.8-7.2-11.5-6.3-20.4c1.5-14.9,14.2-28.4,14.2-28.4c0,0,3.5,6.6,5.1,11.8
	c2,6.5,1.3,12.2,1,14.3C410,238.6,402.5,251,397.5,250.1z"/>
<path class="st11" d="M502.6,152.5c-4.1,1.5-10.9-7.7-14.2-14c-8.2-15.5-8.1-35.8-3.1-37.6c2.1-0.8,5.4,2.7,12,9.6
	c5.3,5.6,7.9,8.4,9.2,13.2c0.7,2.7,0.4,6.1-0.3,12.8C505.1,146.6,504.6,151.8,502.6,152.5z"/>
<path class="st11" d="M514.8,69"/>
<path class="st11" d="M483.8,200.4c-0.3-2,4.6-6.3,14.5-14.9c3.2-2.8,4.8-4.1,5.5-4.6c12.2-7.8,32-2.8,32.9,3.1
	c0.3,1.6-1.9,3.9-6.4,8.4c-4,4.1-8,8.1-12.1,10.6C505.2,210.8,484.8,206,483.8,200.4z"/>
<g>
	<path class="st0" d="M106.8,135.3c-5.7,0.2-9.5,2.9-9.5,2.9c-0.5,0.3-2.6,1.9-4.3,4.8c-2.3,4-2.4,7.8-2.4,11.9
		c0,4.6,0,11.2,3.8,17.6c1.5,2.5,3,4,4.8,8.1c1.3,3.1,2.2,5,1.9,7.2c-0.6,4.4-6.1,4.4-11,9.1c-6.9,6.6-8.5,18.4-5.2,26.7
		c0.5,1.3,1.8,4.4,4.8,7.2c5.2,4.8,11.9,5.1,14.3,5.2c25.1,1.6,49.4,10,74.4,12.4c30.9,3,29.5,4.5,55.8,7.2
		c4.5,0.5,11.2,1.1,19.7,1.8c11.9,0.9,49.7,3.5,112.4-0.4c34.6-2.1,51.8-3.2,74.4-7.4c27.6-5.1,50.2-12.1,66.3-17.9
		c2.7-2.9,3.5-5.7,3.8-7.2c1.3-6.2-1.9-11.4-2.9-12.9c-2.2-3.5-3.5-3.2-4.8-6.2c-0.8-1.8-1.3-3.9-0.5-10.5c0.6-4.8,1.1-9.3,3.3-15.7
		c3.1-8.9,4.7-7.8,5.7-12.9c2-10.1-3.5-18.6-4.8-20.5c-2.3-3.5-4.7-7.3-9.5-8.6c-5-1.4-9.6,1-11.4,1.9c-11.6,5.7-25.1,6.5-37,11.4
		c-19.8,8.3-53.5,10.3-103.7,13.4c-35.3,2.1-65.1,3.8-105.4,0.5c-29.2-2.4-43.9-3.6-54.6-7.2C177.8,154.7,119.9,134.9,106.8,135.3z"
		/>
	<g>
		<path class="st1" d="M106.8,129.3c-8,0.6-14.8,3.5-19,10.6c-4.8,8-4.2,20.8-1.4,29.4c1.4,4.3,3.9,7.6,6.1,11.4c0.6,1,3,4.7,2.6,6
			c0.3-0.9-0.5,0-1,0.3c-1.2,0.8-2.5,1.3-3.7,2.1c-8.3,5.2-12.6,14.2-13.1,23.9c-0.5,9.1,3,18.5,10.5,23.9c8,5.8,18.3,4.9,27.6,6.2
			c12.2,1.7,24.1,4.6,36.1,7c11.8,2.4,23.6,3.8,35.6,5.1c14.6,1.6,29.1,4.3,43.7,5.9c12.2,1.3,24.5,2.4,36.8,3
			c37.7,1.9,75.4,0.3,113-2.1c18-1.2,36.1-2.5,53.9-5.4c21.1-3.4,41.9-8.6,62.2-15.2c3.8-1.3,7.9-2.3,11.6-4c4.3-1.9,6.9-6.9,8-11.3
			c1.2-4.9,0.2-10-1.9-14.5c-1.4-3.1-4.1-5.2-5.8-8.1c-1.5-2.5-0.5-6.6-0.1-9.2c0.6-5.2,1.7-10.3,3.6-15.1c1-2.4,2.4-4.4,3.6-6.7
			c2-4,2.5-8.8,2-13.3c-0.8-7.7-4.2-14.8-9-20.7c-6.6-8.2-16.2-9-25.4-4.8c-10.5,4.8-22.1,6.1-33,9.9c-6.3,2.3-12.4,4.6-19,6
			c-17.1,3.8-34.8,5-52.2,6.2c-22.8,1.6-45.7,3.1-68.5,4c-23,0.9-46.1,0.6-69.1-1.2c-16.8-1.3-34.4-1.7-50.8-5.9
			c-9.5-2.4-18.9-6.1-28.2-9.2c-13.8-4.4-27.6-8.8-41.8-12.1C116.4,130.3,111.5,129.2,106.8,129.3c-7.7,0.1-7.7,12.1,0,12
			c3.9,0,7.8,1,12.3,2c6.4,1.5,12.8,3.3,19.1,5.2c12.6,3.7,25,7.7,37.5,11.9c9,3,17.7,5.3,27.1,6.5c19.7,2.6,39.8,4.1,59.7,4.9
			c42.3,1.8,85.1-1.5,127.3-4.8c15.9-1.3,32-2.7,47.6-6.4c6.5-1.6,12.6-4.3,19-6.3c10.3-3.3,21.1-4.7,31-9.2c3.4-1.5,7.1-3.5,10.5-1
			c2.4,1.7,4,4.9,5.4,7.4c3.2,6,3.7,12.3,0.6,17.8c-4.5,7.8-6.2,16.8-7.2,25.7c-0.4,3.6-0.7,7.4,0.3,10.9c1,3.5,3.4,5.5,5.4,8.3
			c1.9,2.5,3.2,6,2.5,9.2c-0.4,1.8-0.7,2.7-1.8,3.4c-1.6,1.1-4.2,1.5-6.1,2.1c-9.1,3-18.3,5.8-27.6,8.2
			c-17.9,4.7-36.1,8.3-54.4,10.3c-38.8,4.2-78.2,5.9-117.2,5.7c-25.4-0.2-50.9-1.6-76.1-4.9c-13.8-1.8-27.5-4.1-41.4-5.5
			c-23.2-2.3-45.6-9.3-68.8-11.9c-7.7-0.9-17.1-0.1-20.8-8.7c-3.3-7.5-1.2-17.9,5.8-22.5c3.2-2.1,6.9-3.3,9-6.7
			c2.4-3.9,1.7-8.3,0.1-12.4c-1.6-4-3.9-7.3-6-11c-2.6-4.5-3-9.5-3-14.6c0-7.8,2.3-13,10.2-13.5
			C114.4,140.7,114.5,128.7,106.8,129.3z"/>
	</g>
</g>
<path class="st11" d="M319.2,265.5c8.7,0.2,16-0.1,21.3-0.3c26.2-1.3,35.6-5.2,40.4-7.6c1.2-0.6,5.3-0.5,7.2-3.4
	c0.2-0.3,0.4-0.7,0.6-1.2c1.1-3.6-4.9-7.9-6.8-10.6c-6.1-8.8-4.2-20.4-3.1-27.4c2.6-16,13.3-34.1,21.9-32.9c1.1,0.1,2.7,0.7,7,6.1
	c7.8,9.8,13.9,17.4,14.1,28.3c0.3,14.2-9.5,25.1-15.8,32.2c-1.1,1.3-4.5,3.7-4.2,4.3c0.5,0.8,7.2-4.7,16.7-6
	c8.9-1.2,15.9,1.9,18.2,2.9c2.3,1,8.3,4,13.5,10.4c2,2.5,3.5,5.3,6.3,10.9c4,7.9,6,11.8,5.1,14c-0.5,1.3-2.2,3.6-15.8,4.9
	c-12.2,1.2-18.3,1.8-24.9-0.3c-4.6-1.4-18.4-5.7-21.5-15.8c-0.9-3.1-1-7.2-4-13.1c-2.1-4-3.7-4-3.5-5.5c0.5-5.9,22-1.5,35.8-15.4
	c1-1,3.8-6.9,8.5-7.8c0.8-0.2,1.3-0.1,1.6-0.1c3.6,0.6,5.1,6.4,6.3,8.5c5.5,9.2,15.2,15,23.3,16.6c8.9,1.7,16.3-1.5,19.9-3
	c10.9-4.8,20.4-14.9,20.4-14.9c-1.1-1.3-2.7-3.2-4.8-5.3c-2.4-2.7-8.8-9.8-16.3-13.4c-11.9-5.7-24.5-1.5-28.9-0.1
	c-9.1,3-14.4,9.2-15.1,8.3c-0.8-0.9,5.8-6.1,10.6-15.7c2.5-4.9,7.2-14.4,4.8-24.5c-0.2-0.8-0.7-1.5-1.6-3.1
	c-2.8-5.1-5.9-9-14.3-18.1c-7.2-7.7-8-8.1-9.1-8.1c-6,0-10.5,10.7-12.1,14.6c-1.4,3.4-4.5,11.1-3,20.6c0.7,4.6,3.1,9.5,7.9,19.1
	c5.5,11,5.6,11.7,6.5,12.2c7.5,4.2,22.6-4.2,31-11.6c2.5-2.2,4.8-4.6,8.7-5.2c5.7-0.9,9.9,2.9,13.5,5.1c12.4,7.2,29.2,2,37.2-2.3
	c14.1-7.5,24.4-24.4,20.8-31c-1.1-2-5.5-3.2-14.2-5.6c-7.6-2.1-11.4-3.1-14.6-3.2c-14-0.4-24.2,11.4-25.2,12.5
	c-5.5,6.3-8.3,9.4-9.6,13.8c-0.4,1.5-1,4-2.7,4.5c-1.9,0.6-4.2-1.9-5.5-3.4c-11.3-13.2-17-19.7-18.8-31.5
	c-2.7-18.1,5.5-37.4,10.6-37.2c1.3,0,2.1,1.3,3.8,3.9c9.3,14.6,14,21.9,15.1,26.4c3.2,12.6-0.7,22.5,1,22.9c1.6,0.4,6-8.9,8.1-14
	c1.8-4.5,2.9-8.3,6-9.4c1.8-0.6,3.4,0.1,4.3,0.3c8.7,1.2,14.4,4.1,17.5,5.3c13.4,5,28.2-4.1,28.8-4.5c8.5-5.4,12.3-13,15-18.7
	c2.1-4.3,6.9-14.1,3.4-18.1c-1.7-2-4.7-1.7-9.7-1.1c-16.1,1.8-24.2,2.6-25,3c-15.7,7.6-15.5,28.8-26.5,29.3c-1.5,0.1-3.7-0.8-8-2.5
	c-4.3-1.7-10.7-4.3-16-9.6c-8.3-8.3-9.8-19.2-10.2-22.3c-1.7-13.1,3.6-22.8,6.5-28.3c3.2-5.9,4.9-9.2,8.2-9.9
	c7.4-1.6,17.2,11.3,21.6,23.3c0,0,7.9,20.2,0.9,42.3c-0.1,0.4-0.6,2-0.6,2c0.1,0,4.9-11.6,8.7-25.1c1.8-6.3,2.8-11.4,3.4-15.6
	c1.2-8.3,2.1-15.3,2.7-15.2c0.2,0,0.3,0.6,0.5,2.5c4.7,1.3,7.1,1.7,7.2,1.4c0.1-0.4-2.5-1.7-7.7-3.9c-0.9,5.1-1.8,10.2-2.7,15.2"/>
<path class="st12" d="M147.7,103.6c-0.9,0.2-3.4,0.8-4.7,3.2c-1.4,2.7-0.6,6.2,1.7,8.1c2.9,2.4,7.3,1.7,9.6-0.9
	c1.5-1.7,2.3-4.4,1.3-6.9C154.2,104.1,150.4,103.1,147.7,103.6z"/>
<path class="st12" d="M175.7,93.7c-0.9,0.2-3.4,0.8-4.7,3.2c-1.4,2.7-0.6,6.2,1.7,8.1c2.9,2.4,7.3,1.7,9.6-0.9
	c1.5-1.7,2.3-4.4,1.3-6.9C182.2,94.1,178.4,93.1,175.7,93.7z"/>
<path class="st12" d="M175.5,116.8c-0.9,0.2-3.7,0.9-5.1,3.4c-1.5,2.8-0.7,6.7,1.8,8.7c3.1,2.6,7.8,1.9,10.3-0.9
	c1.6-1.8,2.5-4.8,1.4-7.4C182.6,117.3,178.5,116.2,175.5,116.8z"/>
<path class="st12" d="M196.3,76.3c-0.9,0.2-3.7,0.9-5.1,3.4c-1.5,2.8-0.7,6.7,1.8,8.7c3.1,2.6,7.8,1.9,10.3-0.9
	c1.6-1.8,2.5-4.8,1.4-7.4C203.3,76.9,199.2,75.8,196.3,76.3z"/>
<path class="st12" d="M199.3,103.5c-0.6,0.1-2.5,0.6-3.4,2.3c-1,1.9-0.4,4.5,1.2,5.9c2.1,1.7,5.3,1.3,6.9-0.6
	c1.1-1.2,1.7-3.2,0.9-4.9C204,103.9,201.2,103.2,199.3,103.5z"/>
<path class="st12" d="M216.9,123.5c-0.5-0.1-1.8-0.5-2.5-2c-0.8-1.7-0.3-3.9,0.9-5.2c1.5-1.5,3.9-1.1,5.2,0.5
	c0.8,1.1,1.2,2.8,0.7,4.3C220.4,123.2,218.4,123.8,216.9,123.5z"/>
<path class="st12" d="M202.6,134.6c-0.7-0.2-3-0.8-4.1-3.3c-1.2-2.7-0.5-6.4,1.5-8.4c2.5-2.5,6.4-1.8,8.4,0.9c1.3,1.8,2,4.6,1.1,7
	C208.3,134.1,205,135.1,202.6,134.6z"/>
<path class="st12" d="M217.7,80.2c-0.9-0.2-3.7-1-5.1-4.1c-1.5-3.4-0.7-7.9,1.8-10.3c3.1-3,7.8-2.2,10.3,1.1
	c1.6,2.2,2.5,5.6,1.4,8.7C224.7,79.6,220.6,80.9,217.7,80.2z"/>
<path class="st12" d="M211.4,101.8c-0.3-0.1-1.1-0.3-1.6-1.3c-0.5-1-0.2-2.5,0.6-3.2c1-0.9,2.4-0.7,3.2,0.3c0.5,0.7,0.8,1.8,0.4,2.7
	C213.6,101.6,212.3,102,211.4,101.8z"/>
<path class="st12" d="M157.9,128c-0.3-0.1-1.1-0.3-1.6-1.3c-0.5-1-0.2-2.5,0.6-3.2c1-0.9,2.4-0.7,3.2,0.3c0.5,0.7,0.8,1.8,0.4,2.7
	C160.1,127.8,158.8,128.2,157.9,128z"/>
<path class="st12" d="M192.3,100.8c-0.3-0.1-1.1-0.3-1.6-1.3c-0.5-1-0.2-2.5,0.6-3.2c1-0.9,2.4-0.7,3.2,0.3c0.5,0.7,0.8,1.8,0.4,2.7
	C194.5,100.6,193.2,101,192.3,100.8z"/>
<path class="st12" d="M219.5,96.5c-0.3-0.1-1.1-0.3-1.6-1.3c-0.5-1-0.2-2.5,0.6-3.2c1-0.9,2.4-0.7,3.2,0.3c0.5,0.7,0.8,1.8,0.4,2.7
	C221.7,96.4,220.4,96.7,219.5,96.5z"/>
<path class="st12" d="M218.8,108.5c-0.3-0.1-1.1-0.3-1.6-1.3c-0.5-1-0.2-2.5,0.6-3.2c1-0.9,2.4-0.7,3.2,0.3c0.5,0.7,0.8,1.8,0.4,2.7
	C221,108.3,219.7,108.7,218.8,108.5z"/>
<path class="st12" d="M227.9,116.8c-0.5-0.1-1.8-0.5-2.5-2c-0.8-1.7-0.3-3.9,0.9-5.2c1.5-1.5,3.9-1.1,5.2,0.5
	c0.8,1.1,1.2,2.8,0.7,4.3C231.4,116.5,229.4,117.1,227.9,116.8z"/>
<path class="st12" d="M235.3,100.6c-0.5-0.1-1.8-0.5-2.5-2c-0.8-1.7-0.3-3.9,0.9-5.2c1.5-1.5,3.9-1.1,5.2,0.5
	c0.8,1.1,1.2,2.8,0.7,4.3C238.8,100.3,236.8,101,235.3,100.6z"/>
<path class="st12" d="M220.6,137.4c-0.5-0.1-1.8-0.5-2.5-2c-0.8-1.7-0.3-3.9,0.9-5.2c1.5-1.5,3.9-1.1,5.2,0.5
	c0.8,1.1,1.2,2.8,0.7,4.3C224.1,137.1,222.1,137.8,220.6,137.4z"/>
<path class="st12" d="M235.3,137.5c-0.5-0.1-1.8-0.5-2.5-2c-0.8-1.7-0.3-3.9,0.9-5.2c1.5-1.5,3.9-1.1,5.2,0.5
	c0.8,1.1,1.2,2.8,0.7,4.3C238.8,137.2,236.8,137.9,235.3,137.5z"/>
<path class="st12" d="M238.2,85.7c-0.9-0.2-3.7-1-5.1-4.1c-1.5-3.4-0.7-7.9,1.8-10.3c3.1-3,7.8-2.2,10.3,1.1
	c1.6,2.2,2.5,5.6,1.4,8.7C245.3,85.1,241.2,86.3,238.2,85.7z"/>
<path class="st12" d="M239,123.5c-0.5-0.1-1.8-0.5-2.5-2c-0.8-1.7-0.3-3.9,0.9-5.2c1.5-1.5,3.9-1.1,5.2,0.5c0.8,1.1,1.2,2.8,0.7,4.3
	C242.6,123.2,240.5,123.8,239,123.5z"/>
</svg>
