<?xml version="1.0" encoding="utf-8"?>
<!-- Generator: Adobe Illustrator 22.1.0, SVG Export Plug-In . SVG Version: 6.00 Build 0)  -->
<svg version="1.1" id="Calque_1" xmlns="http://www.w3.org/2000/svg" xmlns:xlink="http://www.w3.org/1999/xlink" x="0px" y="0px"
	 viewBox="0 0 595.3 841.9" style="enable-background:new 0 0 595.3 841.9;" xml:space="preserve">
<style type="text/css">
	.st0{fill:#BB6C23;}
	.st1{fill:#72400A;}
</style>
<g>
	<path class="st0" d="M150.6,742.7c0.2,0.3,0.9,0,1,0c7.6-2.5,217-2.5,234.5-1c3.4,0.3,5.1,0.2,8.5,0c6.1-0.4,9.4-0.5,10-2
		c0.9-2.4-6.1-6.4-16.5-14.5c-11.3-8.8-17-13.1-21-19.5c-1.5-2.4-9.5-15-5.5-26.5c3.2-9.2,12.6-13.5,15.5-15
		c38.2-19.3,76.2-102,78-106c18.3-40.6,21.7-75.5,23.5-94.5c2.4-25.3,4.6-51.2-5.5-82.5c-3.2-9.9-7.7-23.7-18.5-39
		c-13.8-19.4-31.4-31.9-60.5-64c-2.4-2.7-5.7-6.3-8.5-12c-8.9-18-3.5-37.1-1.5-44.5c1.1-4.3,10.1-35.9,33-45c3.2-1.3,8.1-2.7,8-4.5
		c-0.1-3.4-16.9-5.2-24-6c-92.6-9.8-128-9-128-9c-82.4,1.8-133.5,3-134.5,12.5c-0.2,2.3,4.4,2.5,15,12c5.8,5.2,13.7,12.5,18.5,23.5
		c1.2,2.8,3.1,7.9,4.5,14.2c0.8,3.6,0.5,3.4,1.5,7.8c2,9.4,3.4,10.6,3.5,15.5c0,1.8-0.5,4.3-1.5,9.5c-1.7,8.5-3.2,11.4-4.5,13.5
		c-0.9,1.3-1.6,2.2-3.2,4c-7.7,8.5-12.3,12.5-12.3,12.5c-16.1,14.2-31,24.9-42.5,38c-8.3,9.5-12.6,17.7-18,28
		c-21.2,40.6-24,81.6-24.5,92.5c0,0-3.7,76.1,36,136.5c2.8,4.3,10.1,14.8,19,26.5c5.1,6.8,12.6,15.5,27.5,33
		c4.2,4.9,12.4,14.4,22,20.5c0.6,0.4,1.6,1,3,2c6,4.3,11.9,10.6,14,15.5c5.4,12.3-6.8,28.8-8.5,31c-8.4,11-16.5,11.4-30,26.5
		C156.4,734.2,149.7,741.7,150.6,742.7z"/>
	<g>
		<path class="st1" d="M148.7,750c2,0.4,3.9,0.4,5.8-0.2c-2.9,0.8-0.6,0.1,0.6,0c2.7-0.2,5.5-0.3,8.3-0.4c9.5-0.3,18.9-0.5,28.4-0.6
			c27.5-0.4,55-0.5,82.5-0.6c26.8,0,53.6,0,80.5,0.3c8.4,0.1,16.8,0.2,25.1,0.4c2.1,0.1,4.1,0.2,6.2,0.3c7.1,0.4,21,1.8,25.1-5.7
			c4.8-8.7-6.4-15.2-12.1-19.4c-8-5.9-17.1-11.8-23.5-19.6c-4.2-5.1-7.8-12.6-7.4-19.3c0.5-8,7.5-11.7,13.7-15
			c14.3-7.6,25.6-20.4,35.3-33c10.6-13.7,19.8-28.4,28.3-43.5c14.8-26.5,27.1-54,33.8-83.7c3.9-17.3,5.9-34.8,7.5-52.4
			c2.1-23.2,2.2-46.4-3.7-69.2c-5.4-20.9-14.1-40.7-27.7-57.6c-10.9-13.5-24.1-25.1-36.4-37.4c-7.9-8-16.8-15.9-23.4-25.1
			c-6.8-9.5-8.5-21.3-6.9-32.7c1.6-11.3,5.5-22.5,11.1-32.3c3.9-6.8,8.9-13.3,15.6-17.4c6.3-3.8,22.7-7.3,15.9-18.3
			c-4.3-6.9-16.3-7.3-23.4-8.2c-11.2-1.4-22.5-2.4-33.7-3.5c-30.4-2.9-60.9-5.5-91.4-6.2c-27.6-0.6-55.3,0.8-82.8,1.9
			c-15.7,0.7-31.6,1.3-47.2,3.9c-7.4,1.2-18.9,3.1-21.3,11.7c-2,7.2,4.2,10.4,9.1,13.7c7.6,5,15.2,11.9,20.3,19.5
			c5.6,8.2,7.8,17.5,9.7,27.1c0.8,4.2,2.1,8.2,3.1,12.3c0.5,1.7,0.5,0.9,0.4,2.9c-0.1,1.9-0.5,3.8-0.9,5.7c-0.7,3.8-1.7,9-3.2,11.9
			c-2,3.9-5.6,7-8.6,10.1c-5.7,5.8-11.8,11-18.1,16.3c-9.1,7.6-18.4,15-26.7,23.6c-8.4,8.6-15.1,18.4-20.7,28.9
			c-16.8,31.4-27.2,66.8-28.3,102.6c-0.9,28,3.7,57,11.8,83.7c6.3,20.8,15.3,40.9,27.6,58.8c10.3,15.1,21.5,29.6,33.4,43.5
			c6.7,7.9,13.1,16.1,20.4,23.4c7.7,7.8,17.7,12.7,25,20.8c2.7,2.9,4.8,6,4.7,10.1c-0.1,4.1-1.8,8.2-3.8,11.8
			c-3.1,5.9-6.2,10-11.5,14.1c-7.3,5.7-14.8,10.6-21.1,17.4c-4.2,4.5-13.1,12.3-10.7,19.2c3.1,9.1,17.6,5.2,14.5-4
			c0-0.1-0.1-0.2-0.1-0.3c0,1.3,0,2.7,0,4c0.2-0.9-1,0.9,0.3-0.5c0.2-0.3,0.4-0.6,0.6-0.9c1.1-1.3,2.2-2.7,3.3-4
			c3.1-3.5,6.3-6.8,9.8-9.9c6.1-5.2,13.3-9,18.8-14.9c10.4-11,19.6-29.2,12.3-44c-4.8-9.6-13.8-15.4-22.1-21.5
			c-7.8-5.6-14.1-13.1-20.3-20.4c-11.7-13.7-22.7-26.7-32.8-40.6c-11.7-16.2-21.9-33-29-51.8c-6.6-17.6-11.1-36.1-13.7-54.8
			c-2.6-18.6-3.3-37.3-1.1-56c2.4-20.3,7.7-40.6,15.6-59.4c4.5-10.6,9.8-21.2,16.2-30.8c6.1-9.2,14-16.9,22.2-24.2
			c14.1-12.3,29.7-23.3,41.6-37.9c5.5-6.7,7.2-15,8.7-23.4c1.4-7.7-0.3-13.5-2.2-20.8c-2.3-9.2-3.6-18.3-7.5-27.1
			c-4.1-9.1-10.7-16.8-18-23.5c-3.7-3.3-7.5-6.5-11.6-9.3c-1.3-0.9-2.6-1.7-3.9-2.5c-2.1-1.3-0.9-0.9,0.1,0.6
			c1.4,2.1,0.2,6.4,0.7,4.3c0-0.2-0.9,2.1-0.4,1.2c-0.6,1.3-1.2,1.4-0.6,0.8c0.5-0.5,1-0.5-0.7,0.5c0.5-0.3,1-0.7,1.6-0.9
			c0.4-0.1,1.3-0.5-0.6,0.2c0.4-0.2,0.9-0.4,1.3-0.5c10.8-3.2,20.7-3.7,32.2-4.5c19.6-1.3,39.4-1.8,59-2.3
			c19.2-0.5,38.2-1.1,57.3-0.3c35.7,1.5,71.4,4.7,106.9,8.6c3.5,0.4,7.1,0.8,10.6,1.4c1.9,0.3,3.7,0.7,5.5,1.2
			c0.4,0.1,1.5,0.6,1.8,0.6c-0.1,0-0.2-0.1-0.3-0.1c1.6,1,1.1,0.1-1.7-2.7c0-1.3,0-2.7,0-4c0.9-3.3,2.9-3-0.1-1.7
			c-1.1,0.4-2.1,0.8-3.2,1.2c-2.1,0.9-4.2,1.8-6.2,3c-4.2,2.5-8.1,5.7-11.4,9.2c-5.6,6-10.1,13.1-13.6,20.6
			c-5.5,11.7-9.2,24.5-10,37.5c-0.7,12.2,2,25,8.9,35.3c6.6,9.8,15.7,18.2,23.9,26.5c12.4,12.6,25.9,24.4,37.2,38
			c13.4,16.1,21.4,36,26.1,56.2c5.1,22.4,3.8,45,1.7,67.7c-3.2,33.6-10.7,66.5-25.5,97.1c-13.1,27.1-28.3,54.4-48.3,77
			c-5.1,5.7-10.6,11.3-16.9,15.7c-5.9,4.1-12.7,6.7-18.1,11.6c-15.1,13.9-9.4,36.1,2.6,50c6.8,8,16.2,14.2,24.6,20.4
			c1.9,1.4,3.8,2.7,5.7,4.2c0.6,0.5,1.2,1,1.8,1.5c0.2,0.2,0.4,0.4,0.7,0.6c0.7,0.7,0.7,0.8,0.2,0c0.5-1.4,0.9-2.7,1.4-4.1
			c2.5-3.3,2.6-4.6,0.5-3.9c-0.6-0.3-2.7,0.2-3.3,0.2c-2.9,0.2-5.8,0.4-8.7,0.2c-5.8-0.3-11.5-0.5-17.3-0.6
			c-24.1-0.4-48.1-0.5-72.2-0.5c-29.1,0-58.2,0-87.2,0.3c-18.6,0.2-37.3-0.1-55.9,1.3c-2,0.2-4,0.3-6,0.8c1.3,0,2.7,0,4,0
			c-0.2,0-0.4-0.1-0.6-0.1C143.2,733.6,139.2,748.1,148.7,750z"/>
	</g>
</g>
<g>
	<path class="st0" d="M469.7,496.9c-48.3,13-114.3,25.6-193,26c-76.9,0.4-141.6-10.9-189.5-23"/>
	<g>
		<path class="st1" d="M468.5,492.5c-99.7,26.7-204.6,32.9-306.7,17.7c-24.7-3.7-49.2-8.6-73.4-14.7c-5.6-1.4-8,7.3-2.4,8.7
			c101.5,25.5,207.7,29.9,311,13c24.9-4.1,49.6-9.4,73.9-16C476.5,499.7,474.1,491,468.5,492.5L468.5,492.5z"/>
	</g>
</g>
<g>
	<path class="st0" d="M469.7,375.4c-48.3,13-114.3,25.6-193,26c-76.9,0.4-141.6-10.9-189.5-23"/>
	<g>
		<path class="st1" d="M468.5,371.1c-99.7,26.7-204.6,32.9-306.7,17.7c-24.7-3.7-49.2-8.6-73.4-14.7c-5.6-1.4-8,7.3-2.4,8.7
			c101.5,25.5,207.7,29.9,311,13c24.9-4.1,49.6-9.4,73.9-16C476.5,378.3,474.1,369.6,468.5,371.1L468.5,371.1z"/>
	</g>
</g>
<g>
	<g>
		<path class="st1" d="M360.4,674.9c-51.4,8-104,8.6-155.6,1.6c-5.7-0.8-8.1,7.9-2.4,8.7c53.3,7.2,107.2,6.7,160.4-1.6
			C368.5,682.7,366.1,674,360.4,674.9L360.4,674.9z"/>
	</g>
</g>
<g>
	<path class="st0" d="M461.7,545.9c-45.9,12-108.6,23.7-183.4,24.1c-73.1,0.4-134.6-10.1-180.1-21.2"/>
	<g>
		<path class="st1" d="M460.5,541.5c-95,24.7-194.8,30.5-291.9,16.3c-23.3-3.4-46.4-7.9-69.2-13.5c-5.6-1.4-8,7.3-2.4,8.7
			c96.8,23.6,197.8,27.6,296.2,11.8c23.5-3.8,46.7-8.7,69.7-14.7C468.5,548.7,466.1,540,460.5,541.5L460.5,541.5z"/>
	</g>
</g>
<g>
	<path class="st0" d="M394.1,278.5c-29.9,8-70.6,15.8-119.3,16.1c-47.5,0.3-87.5-6.8-117.1-14.2"/>
	<g>
		<path class="st1" d="M392.9,274.1c-61.5,16.4-126.3,20.3-189.3,10.8c-15-2.3-29.9-5.3-44.7-9c-5.6-1.4-8,7.3-2.4,8.7
			c62.9,15.7,128.6,18.5,192.6,8.1c15.6-2.5,31-5.9,46.2-9.9C400.9,281.3,398.5,272.6,392.9,274.1L392.9,274.1z"/>
	</g>
</g>
<g>
	<g>
		<path class="st0" d="M158.7,547.6c0.5,7.5,0.6,15,0.4,22.5c-0.3,9.7,14.7,9.6,15,0c0.2-7.5,0.1-15-0.4-22.5
			C173.1,538,158.1,537.9,158.7,547.6L158.7,547.6z"/>
	</g>
</g>
<g>
	<g>
		<path class="st0" d="M198.5,553.8c0.8,8.3,1,16.7,0.5,25c-0.5,9.6,14.5,9.6,15,0c0.5-8.4,0.3-16.7-0.5-25c-0.4-4-3.2-7.5-7.5-7.5
			C202.3,546.3,198.1,549.8,198.5,553.8L198.5,553.8z"/>
	</g>
</g>
<g>
	<g>
		<path class="st0" d="M115.2,493.9c0,7.3,0,14.7,0,22c0,9.7,15,9.7,15,0c0-7.3,0-14.7,0-22C130.2,484.2,115.2,484.2,115.2,493.9
			L115.2,493.9z"/>
	</g>
</g>
<g>
	<g>
		<path class="st0" d="M232.1,555.9c-0.2,13.4,1,26.8,3.3,40c1.6,9.5,16.1,5.5,14.5-4c-2-11.9-2.9-23.9-2.7-36
			C247.2,546.2,232.2,546.2,232.1,555.9L232.1,555.9z"/>
	</g>
</g>
<g>
	<g>
		<path class="st0" d="M324.2,676.9c0,9.3,0,18.7,0,28c0,9.7,15,9.7,15,0c0-9.3,0-18.7,0-28C339.2,667.2,324.2,667.2,324.2,676.9
			L324.2,676.9z"/>
	</g>
</g>
<g>
	<g>
		<path class="st0" d="M298.2,678.9c0,13.3,0,26.7,0,40c0,9.7,15,9.7,15,0c0-13.3,0-26.7,0-40C313.2,669.2,298.2,669.2,298.2,678.9
			L298.2,678.9z"/>
	</g>
</g>
<g>
	<path class="st0" d="M164.5,192.8c32.8,5.5,72.6,9.7,118,9.1c42.7-0.6,80.3-5.2,111.6-11"/>
	<g>
		<path class="st1" d="M163.3,197.2c61.2,10.2,123.6,12.1,185.2,5c15.7-1.8,31.2-4.1,46.7-7c5.7-1,3.3-9.7-2.4-8.7
			c-59.6,11-120.6,13.7-180.8,8c-15.5-1.5-30.9-3.5-46.3-6.1C160.1,187.5,157.6,196.2,163.3,197.2L163.3,197.2z"/>
	</g>
</g>
<g>
	<g>
		<path class="st0" d="M191.5,187.9c0.4,6.9,1.1,13.8,2.2,20.7c0.9,5.7,9.6,3.3,8.7-2.4c-0.9-6.1-1.5-12.2-1.9-18.3
			C200.2,182.1,191.2,182.1,191.5,187.9L191.5,187.9z"/>
	</g>
</g>
<g>
	<g>
		<path class="st0" d="M212.2,190.6c0.9,4.4,1.1,8.8,0.8,13.3c-0.4,5.8,8.6,5.8,9,0c0.3-5.3-0.1-10.5-1.1-15.7
			C219.7,182.5,211.1,184.9,212.2,190.6L212.2,190.6z"/>
	</g>
</g>
</svg>
