<?xml version="1.0" encoding="utf-8"?>
<!-- Generator: Adobe Illustrator 22.1.0, SVG Export Plug-In . SVG Version: 6.00 Build 0)  -->
<svg version="1.1" baseProfile="basic" id="Calque_1"
	 xmlns="http://www.w3.org/2000/svg" xmlns:xlink="http://www.w3.org/1999/xlink" x="0px" y="0px" viewBox="0 0 532.5 691.5"
	 xml:space="preserve">
<style type="text/css">
	.st0{fill:#BB6C23;}
	.st1{fill:#72400A;}
	.st2{fill:#BA713F;}
	.st3{fill:#BB6C23;stroke:#72400A;stroke-miterlimit:10;}
</style>
<path class="st0" d="M125,633.7c0.2,0.3,0.9,0,1,0c7.6-2.5,217-2.5,234.5-1c3.4,0.3,5.1,0.2,8.5,0c6.1-0.4,9.4-0.5,10-2
	c0.9-2.4-6.1-6.4-16.5-14.5c-11.3-8.8-17-13.1-21-19.5c-1.5-2.4-9.5-15-5.5-26.5c3.2-9.2,12.6-13.5,15.5-15
	c38.2-19.3,76.2-102,78-106c18.3-40.6,21.7-75.5,23.5-94.5c2.4-25.3,4.6-51.2-5.5-82.5c-3.2-9.9-7.7-23.7-18.5-39
	c-13.8-19.4-31.4-31.9-60.5-64c-2.4-2.7-5.7-6.3-8.5-12c-8.9-18-3.5-37.1-1.5-44.5c1.1-4.3,10.1-35.9,33-45c3.2-1.3,8.1-2.7,8-4.5
	c-0.1-3.4-16.9-5.2-24-6c-92.6-9.8-128-9-128-9C165.1,50,114,51.3,113,60.7c-0.2,2.3,4.4,2.5,15,12c5.8,5.2,13.7,12.5,18.5,23.5
	c1.2,2.8,3.1,7.9,4.5,14.2c0.8,3.6,0.5,3.4,1.5,7.8c2,9.4,3.4,10.6,3.5,15.5c0,1.8-0.5,4.3-1.5,9.5c-1.7,8.5-3.2,11.4-4.5,13.5
	c-0.9,1.3-1.6,2.2-3.2,4c-7.7,8.5-12.3,12.5-12.3,12.5c-16.1,14.2-31,24.9-42.5,38c-8.3,9.5-12.6,17.7-18,28
	c-21.2,40.6-24,81.6-24.5,92.5c0,0-3.7,76.1,36,136.5c2.8,4.3,10.1,14.8,19,26.5c5.1,6.8,12.6,15.5,27.5,33
	c4.2,4.9,12.4,14.4,22,20.5c0.6,0.4,1.6,1,3,2c6,4.3,11.9,10.6,14,15.5c5.4,12.3-6.8,28.8-8.5,31c-8.4,11-16.5,11.4-30,26.5
	C130.8,625.2,124.1,632.7,125,633.7z"/>
<g>
	<path class="st0" d="M444.1,387.9c-48.8,13-115.4,25.6-194.9,26c-77.7,0.4-143.1-10.9-191.4-23"/>
	<g>
		<path class="st1" d="M442.9,383.5c-100.9,26.8-207.2,33-310.5,17.6c-24.7-3.7-49.2-8.6-73.4-14.6c-5.6-1.4-8,7.3-2.4,8.7
			c102.7,25.5,210.3,29.9,314.7,12.8c24.9-4.1,49.6-9.4,74-15.9C450.9,390.7,448.5,382,442.9,383.5L442.9,383.5z"/>
	</g>
</g>
<g>
	<path class="st0" d="M444.1,266.4c-48,13-113.5,25.6-191.6,26c-76.4,0.4-140.6-10.9-188.2-23"/>
	<g>
		<path class="st1" d="M442.9,262.1c-99.2,26.8-203.8,33-305.4,17.5c-24.2-3.7-48.2-8.6-72-14.6c-5.6-1.4-8,7.3-2.4,8.7
			c101,25.5,206.9,30,309.7,12.8c24.4-4.1,48.6-9.4,72.5-15.8C450.9,269.3,448.5,260.6,442.9,262.1L442.9,262.1z"/>
	</g>
</g>
<g>
	<path class="st1" d="M331.8,565.9c-51.4,8-104,8.6-155.6,1.6c-5.7-0.8-8.1,7.9-2.4,8.7c53.3,7.2,107.2,6.7,160.4-1.6
		C339.9,573.7,337.5,565,331.8,565.9L331.8,565.9z"/>
</g>
<g>
	<path class="st0" d="M432.8,436.9c-45.1,12-106.7,23.6-180.3,24c-71.8,0.4-132.3-10.1-177-21.2"/>
	<g>
		<path class="st1" d="M431.6,432.5c-93.3,24.7-191.4,30.5-286.9,16.3c-22.9-3.4-45.5-7.9-67.9-13.5c-5.6-1.4-8,7.3-2.4,8.7
			c95.1,23.6,194.6,27.7,291.3,11.8c23-3.8,45.8-8.7,68.3-14.6C439.6,439.7,437.2,431.1,431.6,432.5L431.6,432.5z"/>
	</g>
</g>
<g>
	<path class="st0" d="M365.9,169.5c-28.7,8-67.8,15.8-114.6,16c-24.2,0.1-44-1.9-51.9-2.9c-23.5-2.7-43.9-7-60.6-11.4"/>
	<g>
		<path class="st1" d="M364.7,165.1c-55.9,15.6-114.8,19.9-172.4,12.1c-17.6-2.4-35.1-5.9-52.3-10.4c-5.6-1.5-8,7.2-2.4,8.7
			c60.1,15.7,123.2,18.6,184.5,8.3c15.2-2.6,30.2-5.9,45-10C372.7,172.3,370.3,163.6,364.7,165.1L364.7,165.1z"/>
	</g>
</g>
<g>
	<path class="st0" d="M133.1,438.6c0.5,7.5,0.6,15,0.4,22.5c-0.3,9.7,14.7,9.6,15,0c0.2-7.5,0.1-15-0.4-22.5
		C147.5,429,132.5,428.9,133.1,438.6L133.1,438.6z"/>
</g>
<g>
	<path class="st0" d="M172.9,444.8c0.8,8.3,1,16.7,0.5,25c-0.5,9.6,14.5,9.6,15,0c0.5-8.4,0.3-16.7-0.5-25c-0.4-4-3.2-7.5-7.5-7.5
		C176.7,437.3,172.5,440.8,172.9,444.8L172.9,444.8z"/>
</g>
<g>
	<path class="st0" d="M206.5,446.9c-0.2,13.4,1,26.8,3.3,40c1.6,9.5,16.1,5.5,14.5-4c-2-11.9-2.9-23.9-2.7-36
		C221.6,437.2,206.6,437.2,206.5,446.9L206.5,446.9z"/>
</g>
<g>
	<path class="st0" d="M298.6,567.9c0,9.3,0,18.7,0,28c0,9.7,15,9.7,15,0c0-9.3,0-18.7,0-28C313.6,558.2,298.6,558.2,298.6,567.9
		L298.6,567.9z"/>
</g>
<g>
	<path class="st0" d="M272.6,569.9c0,13.3,0,26.7,0,40c0,9.7,15,9.7,15,0c0-13.3,0-26.7,0-40C287.6,560.2,272.6,560.2,272.6,569.9
		L272.6,569.9z"/>
</g>
<g>
	<path class="st0" d="M142.4,83.8c33,5.5,73.2,9.6,118.8,9c43-0.6,80.8-5.2,112.4-11"/>
	<g>
		<path class="st1" d="M141.2,88.2c61.6,10.1,124.4,12,186.4,5c15.8-1.8,31.5-4.1,47.2-7c5.7-1,3.3-9.7-2.4-8.7
			c-60,10.9-121.4,13.6-182.1,8c-15.6-1.5-31.2-3.5-46.6-6C137.9,78.6,135.5,87.2,141.2,88.2L141.2,88.2z"/>
	</g>
</g>
<g>
	<path class="st0" d="M165.9,78.9c0.4,6.9,1.1,13.8,2.2,20.7c0.9,5.7,9.6,3.3,8.7-2.4c-0.9-6.1-1.5-12.2-1.9-18.3
		C174.6,73.1,165.6,73.1,165.9,78.9L165.9,78.9z"/>
</g>
<g>
	<path class="st0" d="M186.6,81.6c0.9,4.4,1.1,8.8,0.8,13.3c-0.4,5.8,8.6,5.8,9,0c0.3-5.3-0.1-10.5-1.1-15.7
		C194.1,73.5,185.5,75.9,186.6,81.6L186.6,81.6z"/>
</g>
<g>
	<path class="st2" d="M111.4,59.1c11,2.8,26.6,6.4,45.6,9.3c22.5,3.5,48.4,6,87.7,6c60.5,0,116.6-5.9,154.9-11"/>
	<g>
		<path class="st1" d="M110.2,63.4c75.3,19,153.5,17.8,230.4,11.1c19.7-1.7,39.3-3.9,58.9-6.6c5.7-0.8,5.7-9.8,0-9
			c-37.3,5-74.8,8.5-112.4,10.1c-38.6,1.6-77.7,1.7-116.1-3.1c-19.7-2.5-39.2-6.3-58.4-11.1C107,53.3,104.6,62,110.2,63.4
			L110.2,63.4z"/>
	</g>
</g>
<path class="st3" d="M133.5,62.5"/>
</svg>
