<?xml version="1.0" encoding="utf-8"?>
<!-- Generator: Adobe Illustrator 22.1.0, SVG Export Plug-In . SVG Version: 6.00 Build 0)  -->
<svg version="1.1" id="Calque_1" xmlns="http://www.w3.org/2000/svg" xmlns:xlink="http://www.w3.org/1999/xlink" x="0px" y="0px"
	 viewBox="0 0 532.5 691.5" style="enable-background:new 0 0 532.5 691.5;" xml:space="preserve">
<style type="text/css">
	.st0{fill:#BB6C23;}
	.st1{fill:#72400A;}
	.st2{fill:#BB6C23;stroke:#72400A;stroke-miterlimit:10;}
	.st3{fill:#BA713F;}
</style>
<g>
	<path class="st0" d="M125,633.7c0.2,0.3,0.9,0,1,0c7.6-2.5,217-2.5,234.5-1c3.4,0.3,5.1,0.2,8.5,0c6.1-0.4,9.4-0.5,10-2
		c0.9-2.4-6.1-6.4-16.5-14.5c-11.3-8.8-17-13.1-21-19.5c-1.5-2.4-9.5-15-5.5-26.5c3.2-9.2,12.6-13.5,15.5-15
		c38.2-19.3,76.2-102,78-106c18.3-40.6,21.7-75.5,23.5-94.5c2.4-25.3,4.6-51.2-5.5-82.5c-3.2-9.9-7.7-23.7-18.5-39
		c-13.8-19.4-31.4-31.9-60.5-64c-2.4-2.7-5.7-6.3-8.5-12c-8.9-18-3.5-37.1-1.5-44.5c1.1-4.3,10.1-35.9,33-45c3.2-1.3,8.1-2.7,8-4.5
		c-0.1-3.4-16.9-5.2-24-6c-92.6-9.8-128-9-128-9C165.1,50,114,51.3,113,60.7c-0.2,2.3,4.4,2.5,15,12c5.8,5.2,13.7,12.5,18.5,23.5
		c1.2,2.8,3.1,7.9,4.5,14.2c0.8,3.6,0.5,3.4,1.5,7.8c2,9.4,3.4,10.6,3.5,15.5c0,1.8-0.5,4.3-1.5,9.5c-1.7,8.5-3.2,11.4-4.5,13.5
		c-0.9,1.3-1.6,2.2-3.2,4c-7.7,8.5-12.3,12.5-12.3,12.5c-16.1,14.2-31,24.9-42.5,38c-8.3,9.5-12.6,17.7-18,28
		c-21.2,40.6-24,81.6-24.5,92.5c0,0-3.7,76.1,36,136.5c2.8,4.3,10.1,14.8,19,26.5c5.1,6.8,12.6,15.5,27.5,33
		c4.2,4.9,12.4,14.4,22,20.5c0.6,0.4,1.6,1,3,2c6,4.3,11.9,10.6,14,15.5c5.4,12.3-6.8,28.8-8.5,31c-8.4,11-16.5,11.4-30,26.5
		C130.8,625.2,124.1,632.7,125,633.7z"/>
	<g>
		<path class="st1" d="M123,641c2,0.4,3.9,0.4,5.8-0.2c-2.9,0.8-0.6,0.1,0.6,0c2.7-0.2,5.5-0.3,8.3-0.4c9.5-0.3,18.9-0.5,28.4-0.6
			c27.5-0.4,55-0.5,82.5-0.6c26.8,0,53.6,0,80.5,0.3c8.4,0.1,16.8,0.2,25.1,0.4c2.1,0.1,4.1,0.2,6.2,0.3c7.1,0.4,21,1.8,25.1-5.7
			c4.8-8.7-6.4-15.2-12.1-19.4c-8-5.9-17.1-11.8-23.5-19.6c-4.2-5.1-7.8-12.6-7.4-19.3c0.5-8,7.5-11.7,13.7-15
			c14.3-7.6,25.6-20.4,35.3-33c10.6-13.7,19.8-28.4,28.3-43.5c14.8-26.5,27.1-54,33.8-83.7c3.9-17.3,5.9-34.8,7.5-52.4
			c2.1-23.2,2.2-46.4-3.7-69.2c-5.4-20.9-14.1-40.7-27.7-57.6c-10.9-13.5-24.1-25.1-36.4-37.4c-7.9-8-16.8-15.9-23.4-25.1
			c-6.8-9.5-8.5-21.3-6.9-32.7c1.6-11.3,5.5-22.5,11.1-32.3c3.9-6.8,8.9-13.3,15.6-17.4c6.3-3.8,22.7-7.3,15.9-18.3
			c-4.3-6.9-16.3-7.3-23.4-8.2c-11.2-1.4-22.5-2.4-33.7-3.5c-30.4-2.9-60.9-5.5-91.4-6.2c-27.6-0.6-55.3,0.8-82.8,1.9
			c-15.7,0.7-31.6,1.3-47.2,3.9c-7.4,1.2-18.9,3.1-21.3,11.7c-2,7.2,4.2,10.4,9.1,13.7c7.6,5,15.2,11.9,20.3,19.5
			c5.6,8.2,7.8,17.5,9.7,27.1c0.8,4.2,2.1,8.2,3.1,12.3c0.5,1.7,0.5,0.9,0.4,2.9c-0.1,1.9-0.5,3.8-0.9,5.7c-0.7,3.8-1.7,9-3.2,11.9
			c-2,3.9-5.6,7-8.6,10.1c-5.7,5.8-11.8,11-18.1,16.3c-9.1,7.6-18.4,15-26.7,23.6c-8.4,8.6-15.1,18.4-20.7,28.9
			C53.5,261.6,43.1,297.1,42,332.8c-0.9,28,3.7,57,11.8,83.7c6.3,20.8,15.3,40.9,27.6,58.8c10.3,15.1,21.5,29.6,33.4,43.5
			c6.7,7.9,13.1,16.1,20.4,23.4c7.7,7.8,17.7,12.7,25,20.8c2.7,2.9,4.8,6,4.7,10.1c-0.1,4.1-1.8,8.2-3.8,11.8
			c-3.1,5.9-6.2,10-11.5,14.1c-7.3,5.7-14.8,10.6-21.1,17.4c-4.2,4.5-13.1,12.3-10.7,19.2c3.1,9.1,17.6,5.2,14.5-4
			c0-0.1-0.1-0.2-0.1-0.3c0,1.3,0,2.7,0,4c0.2-0.9-1,0.9,0.3-0.5c0.2-0.3,0.4-0.6,0.6-0.9c1.1-1.3,2.2-2.7,3.3-4
			c3.1-3.5,6.3-6.8,9.8-9.9c6.1-5.2,13.3-9,18.8-14.9c10.4-11,19.6-29.2,12.3-44c-4.8-9.6-13.8-15.4-22.1-21.5
			c-7.8-5.6-14.1-13.1-20.3-20.4c-11.7-13.7-22.7-26.7-32.8-40.6c-11.7-16.2-21.9-33-29-51.8C66.5,409.5,62,391,59.5,372.3
			c-2.6-18.6-3.3-37.3-1.1-56C60.8,296,66,275.7,74,256.9c4.5-10.6,9.8-21.2,16.2-30.8c6.1-9.2,14-16.9,22.2-24.2
			c14.1-12.3,29.7-23.3,41.6-37.9c5.5-6.7,7.2-15,8.7-23.4c1.4-7.7-0.3-13.5-2.2-20.8c-2.3-9.2-3.6-18.3-7.5-27.1
			c-4.1-9.1-10.7-16.8-18-23.5c-3.7-3.3-7.5-6.5-11.6-9.3c-1.3-0.9-2.6-1.7-3.9-2.5c-2.1-1.3-0.9-0.9,0.1,0.6
			c1.4,2.1,0.2,6.4,0.7,4.3c0-0.2-0.9,2.1-0.4,1.2c-0.6,1.3-1.2,1.4-0.6,0.8c0.5-0.5,1-0.5-0.7,0.5c0.5-0.3,1-0.7,1.6-0.9
			c0.4-0.1,1.3-0.5-0.6,0.2c0.4-0.2,0.9-0.4,1.3-0.5c10.8-3.2,20.7-3.7,32.2-4.5c19.6-1.3,39.4-1.8,59-2.3
			c19.2-0.5,38.2-1.1,57.3-0.3c35.7,1.5,71.4,4.7,106.9,8.6c3.5,0.4,7.1,0.8,10.6,1.4c1.9,0.3,3.7,0.7,5.5,1.2
			c0.4,0.1,1.5,0.6,1.8,0.6c-0.1,0-0.2-0.1-0.3-0.1c1.6,1,1.1,0.1-1.7-2.7c0-1.3,0-2.7,0-4c0.9-3.3,2.9-3-0.1-1.7
			c-1.1,0.4-2.1,0.8-3.2,1.2c-2.1,0.9-4.2,1.8-6.2,3c-4.2,2.5-8.1,5.7-11.4,9.2c-5.6,6-10.1,13.1-13.6,20.6
			c-5.5,11.7-9.2,24.5-10,37.5c-0.7,12.2,2,25,8.9,35.3c6.6,9.8,15.7,18.2,23.9,26.5c12.4,12.6,25.9,24.4,37.2,38
			c13.4,16.1,21.4,36,26.1,56.2c5.1,22.4,3.8,45,1.7,67.7c-3.2,33.6-10.7,66.5-25.5,97.1c-13.1,27.1-28.3,54.4-48.3,77
			c-5.1,5.7-10.6,11.3-16.9,15.7c-5.9,4.1-12.7,6.7-18.1,11.6c-15.1,13.9-9.4,36.1,2.6,50c6.8,8,16.2,14.2,24.6,20.4
			c1.9,1.4,3.8,2.7,5.7,4.2c0.6,0.5,1.2,1,1.8,1.5c0.2,0.2,0.4,0.4,0.7,0.6c0.7,0.7,0.7,0.8,0.2,0c0.5-1.4,0.9-2.7,1.4-4.1
			c2.5-3.3,2.6-4.6,0.5-3.9c-0.6-0.3-2.7,0.2-3.3,0.2c-2.9,0.2-5.8,0.4-8.7,0.2c-5.8-0.3-11.5-0.5-17.3-0.6
			c-24.1-0.4-48.1-0.5-72.2-0.5c-29.1,0-58.2,0-87.2,0.3c-18.6,0.2-37.3-0.1-55.9,1.3c-2,0.2-4,0.3-6,0.8c1.3,0,2.7,0,4,0
			c-0.2,0-0.4-0.1-0.6-0.1C117.6,624.6,113.6,639.1,123,641z"/>
	</g>
</g>
<g>
	<path class="st0" d="M444.1,387.9c-48.3,13-114.3,25.6-193,26c-76.9,0.4-141.6-10.9-189.5-23"/>
	<g>
		<path class="st1" d="M442.9,383.5c-99.7,26.7-204.6,32.9-306.7,17.7c-24.7-3.7-49.2-8.6-73.4-14.7c-5.6-1.4-8,7.3-2.4,8.7
			c101.5,25.5,207.7,29.9,311,13c24.9-4.1,49.6-9.4,73.9-16C450.9,390.7,448.5,382,442.9,383.5L442.9,383.5z"/>
	</g>
</g>
<g>
	<path class="st0" d="M444.1,266.4c-48.3,13-114.3,25.6-193,26c-76.9,0.4-141.6-10.9-189.5-23"/>
	<g>
		<path class="st1" d="M442.9,262.1c-99.7,26.7-204.6,32.9-306.7,17.7c-24.7-3.7-49.2-8.6-73.4-14.7c-5.6-1.4-8,7.3-2.4,8.7
			c101.5,25.5,207.7,29.9,311,13c24.9-4.1,49.6-9.4,73.9-16C450.9,269.3,448.5,260.6,442.9,262.1L442.9,262.1z"/>
	</g>
</g>
<g>
	<g>
		<path class="st1" d="M334.8,565.9c-51.4,8-104,8.6-155.6,1.6c-5.7-0.8-8.1,7.9-2.4,8.7c53.3,7.2,107.2,6.7,160.4-1.6
			C342.9,573.7,340.5,565,334.8,565.9L334.8,565.9z"/>
	</g>
</g>
<g>
	<path class="st0" d="M436.1,436.9c-45.9,12-108.6,23.7-183.4,24.1c-73.1,0.4-134.6-10.1-180.1-21.2"/>
	<g>
		<path class="st1" d="M434.9,432.5c-95,24.7-194.8,30.5-291.9,16.3c-23.3-3.4-46.4-7.9-69.2-13.5c-5.6-1.4-8,7.3-2.4,8.7
			c96.8,23.6,197.8,27.6,296.2,11.8c23.5-3.8,46.7-8.7,69.7-14.7C442.9,439.7,440.5,431.1,434.9,432.5L434.9,432.5z"/>
	</g>
</g>
<g>
	<path class="st0" d="M368.5,169.5c-29.9,8-70.6,15.8-119.3,16.1c-25.2,0.1-45.8-1.9-54-2.8c-24.5-2.7-45.7-7-63.1-11.4"/>
	<g>
		<path class="st1" d="M367.3,165.1c-58.4,15.6-119.7,19.8-179.7,12.2c-18.3-2.3-36.4-5.8-54.2-10.3c-5.6-1.4-8,7.3-2.4,8.7
			c62.6,15.7,128,18.5,191.8,8.2c15.8-2.6,31.5-5.9,47-10.1C375.3,172.3,372.9,163.6,367.3,165.1L367.3,165.1z"/>
	</g>
</g>
<g>
	<g>
		<path class="st0" d="M133.1,438.6c0.5,7.5,0.6,15,0.4,22.5c-0.3,9.7,14.7,9.6,15,0c0.2-7.5,0.1-15-0.4-22.5
			C147.5,429,132.5,428.9,133.1,438.6L133.1,438.6z"/>
	</g>
</g>
<g>
	<g>
		<path class="st0" d="M172.9,444.8c0.8,8.3,1,16.7,0.5,25c-0.5,9.6,14.5,9.6,15,0c0.5-8.4,0.3-16.7-0.5-25c-0.4-4-3.2-7.5-7.5-7.5
			C176.7,437.3,172.5,440.8,172.9,444.8L172.9,444.8z"/>
	</g>
</g>
<g>
	<g>
		<path class="st0" d="M206.5,446.9c-0.2,13.4,1,26.8,3.3,40c1.6,9.5,16.1,5.5,14.5-4c-2-11.9-2.9-23.9-2.7-36
			C221.6,437.2,206.6,437.2,206.5,446.9L206.5,446.9z"/>
	</g>
</g>
<g>
	<g>
		<path class="st0" d="M298.6,567.9c0,9.3,0,18.7,0,28c0,9.7,15,9.7,15,0c0-9.3,0-18.7,0-28C313.6,558.2,298.6,558.2,298.6,567.9
			L298.6,567.9z"/>
	</g>
</g>
<g>
	<g>
		<path class="st0" d="M272.6,569.9c0,13.3,0,26.7,0,40c0,9.7,15,9.7,15,0c0-13.3,0-26.7,0-40C287.6,560.2,272.6,560.2,272.6,569.9
			L272.6,569.9z"/>
	</g>
</g>
<g>
	<path class="st0" d="M138.9,83.8c32.8,5.5,72.6,9.7,118,9.1c42.7-0.6,80.3-5.2,111.6-11"/>
	<g>
		<path class="st1" d="M137.7,88.2c61.2,10.2,123.6,12.1,185.2,5c15.7-1.8,31.2-4.1,46.7-7c5.7-1,3.3-9.7-2.4-8.7
			c-59.6,11-120.6,13.7-180.8,8c-15.5-1.5-30.9-3.5-46.3-6.1C134.5,78.6,132,87.2,137.7,88.2L137.7,88.2z"/>
	</g>
</g>
<g>
	<g>
		<path class="st0" d="M165.9,78.9c0.4,6.9,1.1,13.8,2.2,20.7c0.9,5.7,9.6,3.3,8.7-2.4c-0.9-6.1-1.5-12.2-1.9-18.3
			C174.6,73.1,165.6,73.1,165.9,78.9L165.9,78.9z"/>
	</g>
</g>
<g>
	<g>
		<path class="st0" d="M186.6,81.6c0.9,4.4,1.1,8.8,0.8,13.3c-0.4,5.8,8.6,5.8,9,0c0.3-5.3-0.1-10.5-1.1-15.7
			C194.1,73.5,185.5,75.9,186.6,81.6L186.6,81.6z"/>
	</g>
</g>
<path class="st2" d="M408.4,222.4c2.2-0.3,4.3-0.7,6.5-1"/>
<g>
	<path class="st0" d="M135.9,281.4c-2-6.6-4-13.3-6-20c-2.7-9.2-5.4-18.4-8-27.5c-6.5,3.2-13.4,7-20.5,11.5
		c-11.4,7.1-21,14.5-29,21.5"/>
	<g>
		<path class="st1" d="M140.2,280.2c-4.8-15.8-9.5-31.6-14-47.5c-0.8-2.9-4-4-6.6-2.7c-18.2,9.1-35,20.4-50.4,33.7
			c-4.4,3.8,2,10.1,6.4,6.4c14.8-12.8,31.1-23.5,48.6-32.3c-2.2-0.9-4.4-1.8-6.6-2.7c4.5,15.9,9.2,31.7,14,47.5
			C133.2,288.1,141.9,285.8,140.2,280.2L140.2,280.2z"/>
	</g>
</g>
<g>
	<path class="st0" d="M193.4,285.4c-1.8-6.4-3.6-12.9-5.4-19.4c-2.5-8.9-4.9-17.8-7.2-26.6c-5.9,3.1-12.1,6.8-18.6,11.1
		c-10.3,6.9-19,14.1-26.3,20.8"/>
	<g>
		<path class="st1" d="M197.7,284.2c-4.3-15.3-8.6-30.6-12.7-46c-0.8-2.9-4.1-4-6.6-2.7c-16.6,8.9-31.9,19.9-45.7,32.7
			c-4.3,3.9,2.1,10.3,6.4,6.4c13.3-12.2,28-22.7,43.9-31.3c-2.2-0.9-4.4-1.8-6.6-2.7c4.1,15.4,8.3,30.7,12.7,46
			C190.6,292.2,199.3,289.8,197.7,284.2L197.7,284.2z"/>
	</g>
</g>
<g>
	<path class="st0" d="M250.3,289.4c-1.8-6.4-3.6-12.9-5.4-19.4c-2.5-8.9-4.9-17.8-7.2-26.6c-5.9,3.1-12.1,6.8-18.6,11.1
		c-10.3,6.9-19,14.1-26.3,20.8"/>
	<g>
		<path class="st1" d="M254.6,288.2c-4.3-15.3-8.6-30.6-12.7-46c-0.8-2.9-4.1-4-6.6-2.7c-16.6,8.9-31.9,19.9-45.7,32.7
			c-4.3,3.9,2.1,10.3,6.4,6.4c13.3-12.2,28-22.7,43.9-31.3c-2.2-0.9-4.4-1.8-6.6-2.7c4.1,15.4,8.3,30.7,12.7,46
			C247.5,296.2,256.2,293.8,254.6,288.2L254.6,288.2z"/>
	</g>
</g>
<g>
	<path class="st0" d="M303.6,285.4c-1.8-6.4-3.6-12.9-5.4-19.4c-2.5-8.9-4.9-17.8-7.2-26.6c-5.9,3.1-12.1,6.8-18.6,11.1
		c-10.3,6.9-19,14.1-26.3,20.8"/>
	<g>
		<path class="st1" d="M307.9,284.2c-4.3-15.3-8.6-30.6-12.7-46c-0.8-2.9-4.1-4-6.6-2.7c-16.6,8.9-31.9,19.9-45.7,32.7
			c-4.3,3.9,2.1,10.3,6.4,6.4c13.3-12.2,28-22.7,43.9-31.3c-2.2-0.9-4.4-1.8-6.6-2.7c4.1,15.4,8.3,30.7,12.7,46
			C300.8,292.2,309.5,289.8,307.9,284.2L307.9,284.2z"/>
	</g>
</g>
<g>
	<path class="st0" d="M359.1,279.9c-1.8-6.4-3.6-12.9-5.4-19.4c-2.5-8.9-4.9-17.8-7.2-26.6c-5.9,3.1-12.1,6.8-18.6,11.1
		c-10.3,6.9-19,14.1-26.3,20.8"/>
	<g>
		<path class="st1" d="M363.4,278.7c-4.3-15.3-8.6-30.6-12.7-46c-0.8-2.9-4.1-4-6.6-2.7c-16.6,8.9-31.9,19.9-45.7,32.7
			c-4.3,3.9,2.1,10.3,6.4,6.4c13.3-12.2,28-22.7,43.9-31.3c-2.2-0.9-4.4-1.8-6.6-2.7c4.1,15.4,8.3,30.7,12.7,46
			C356.3,286.7,365,284.3,363.4,278.7L363.4,278.7z"/>
	</g>
</g>
<g>
	<path class="st0" d="M411.6,271.1c-1.8-6.4-3.6-12.9-5.4-19.4c-2.5-8.9-4.9-17.8-7.2-26.6c-5.9,3.1-12.1,6.8-18.6,11.1
		c-10.3,6.9-19,14.1-26.3,20.8"/>
	<g>
		<path class="st1" d="M416,269.9c-4.3-15.3-8.6-30.6-12.7-46c-0.8-2.9-4.1-4-6.6-2.7c-16.6,8.9-31.9,19.9-45.7,32.7
			c-4.3,3.9,2.1,10.3,6.4,6.4c13.3-12.2,28-22.7,43.9-31.3c-2.2-0.9-4.4-1.8-6.6-2.7c4.1,15.4,8.3,30.7,12.7,46
			C408.9,277.8,417.6,275.5,416,269.9L416,269.9z"/>
	</g>
</g>
<g>
	<path class="st0" d="M160.9,139.9c17.3,24.4,23,33.5,23.6,35.6c0.1,0.2,0.3,1.1,0.9,1.4c1.4,0.5,3.6-2.2,4.6-3.4
		c5.3-6.4,19.8-25.8,21.1-27.6c0.5-0.2,1.2-0.6,2.2-0.5c2.5,0.1,4.2,2.6,5,3.5c8.7,10.3,16.5,21.2,22.5,30c8.4-6.5,13.1-13.1,16-18
		c4-6.9,5.8-13.4,9.5-13.5c2.9-0.1,5.1,3.8,6.5,6c3.9,6.3,10.6,14.6,23,23.5c7-7.1,11.5-13.7,14.5-18.5c3.2-5.3,7.3-13.1,7.5-13
		c0.1,0-0.4,1.2-0.4,1.2c0,0,0-0.9,0.4-1.2c1.2-0.7,4.9,3.7,6,5c3.1,3.6,8.5,9.3,19,18.5c1.6-4.4,2.9-8,3.8-10.3c2.3-6,3.2-8,4-11.4
		c0.9-4,0.9-7.3,0.9-9.4"/>
	<g>
		<path class="st1" d="M157,142.2c6.5,9.1,12.9,18.2,19,27.6c1.3,2,2.6,4.1,3.8,6.2c0.5,0.8,0.6,1.4,0.3,0.6c0.7,1.7,1.3,3.3,3,4.2
			c7.1,3.9,14.7-9.9,18.1-14.3c4.7-6.1,9.3-12.2,13.8-18.3c-0.9,0.7-1.8,1.4-2.7,2.1c1.8-0.7,4.3,3.6,5.3,4.8c2.5,3.1,5,6.3,7.5,9.5
			c4.1,5.4,8,11,11.9,16.6c1.8,2.6,4.7,2.8,7.1,0.9c5.7-4.6,10.8-9.8,14.9-16c2-3,3.6-6.3,5.3-9.5c0.6-1.2,1.8-2.7,2.2-3.9
			c1.1-0.9,1-1.2-0.2-0.8c0.5,0.4,0.9,0.9,1.3,1.4c5.4,11.2,16.5,20.4,26.2,27.5c1.6,1.1,4.2,0.6,5.5-0.7
			c5.3-5.5,10.2-11.5,14.3-17.9c1.7-2.7,3.3-5.5,4.9-8.3c0.7-1.3,1.4-2.5,2.1-3.8c0.2-0.4,1.9-2.7,0.8-1.5c-2.5-1.5-5-2.9-7.5-4.4
			c0,0,0,0.1,0,0.1c2.8,0.8,5.6,1.5,8.4,2.3c-0.1,0.4-0.1,0.7-0.2,1.1c-1.3,0.7-2.6,1.5-3.9,2.2c-1.1,0.1,1.2,1.8,1.7,2.4
			c0.5,0.6,1,1.2,1.5,1.8c1.3,1.4,2.6,2.8,3.9,4.2c4.7,4.8,9.6,9.3,14.7,13.8c2.6,2.3,6.3,1.3,7.5-2c3.8-10.6,9-20.8,8.8-32.3
			c-0.1-5.8-9.1-5.8-9,0c0.2,10.6-5,20.2-8.5,29.9c2.5-0.7,5-1.3,7.5-2c-6.5-5.8-13-11.6-18.8-18.2c-2-2.3-4.3-5.5-7.4-6.4
			c-4-1.1-6.5,1.8-6.9,5.4c-0.5,4.4,6.6,6.2,8.4,2.3c0.3-0.7,0.7-1.5,0.9-2.2c1.3-4.3-4.4-7.5-7.5-4.4c-3.4,3.4-5.4,9.2-7.9,13.3
			c-4,6.6-8.8,12.6-14.1,18.2c1.8-0.2,3.6-0.5,5.5-0.7c-6.8-5-13.3-10.7-18.4-17.5c-3.4-4.5-6-11.7-12.3-12.4
			c-7.7-1-10.6,8.6-13.5,13.9c-4.1,7.5-9.7,13.5-16.3,18.8c2.4,0.3,4.7,0.6,7.1,0.9c-6.2-9.1-12.6-17.9-19.5-26.5
			c-4.2-5.2-11.7-14.1-18.2-6.2c-3.6,4.4-6.9,9.1-10.3,13.7c-2.2,2.9-4.4,5.8-6.7,8.7c-0.9,1.2-1.8,2.3-2.8,3.5
			c-0.3,0.4-0.7,0.9-1,1.3c-0.4,0.4-0.7,0.8-1.1,1.2c-0.6,0.5-0.5,0.5,0.3,0.1c1.1,0.4,2.1,0.9,3.2,1.3c0.8,0.8-0.1-0.4-0.5-1.2
			c-0.3-0.6-0.6-1.2-0.9-1.8c-1.2-2.1-2.5-4.2-3.8-6.2c-5.9-9.1-12.3-18-18.5-26.9C161.5,132.9,153.7,137.4,157,142.2L157,142.2z"/>
	</g>
</g>
<g>
	<path class="st3" d="M120.3,59.1c10,2.8,24.3,6.4,41.6,9.3c20.6,3.5,44.2,6,80,6c55.2,0,106.4-5.9,141.4-11"/>
	<g>
		<path class="st1" d="M119.1,63.4c68.8,19,140.7,17.9,211.3,11c18.1-1.8,36.1-4,54.1-6.6c5.7-0.8,3.3-9.5-2.4-8.7
			c-34,5-68.2,8.4-102.5,10c-35.2,1.6-70.9,1.7-105.9-3.3c-17.6-2.5-35.1-6.2-52.2-11C115.9,53.2,113.5,61.9,119.1,63.4L119.1,63.4z
			"/>
	</g>
</g>
<path class="st2" d="M133.5,62.5"/>
<g>
	<path class="st0" d="M406.5,246.2c3.5-8.3,6.9-16.6,10.4-25"/>
	<g>
		<path class="st1" d="M412.3,247.8c3.5-8.3,6.9-16.6,10.4-25c3-7.1-8.6-10.2-11.6-3.2c-3.5,8.3-6.9,16.6-10.4,25
			C397.7,251.7,409.3,254.8,412.3,247.8L412.3,247.8z"/>
	</g>
</g>
<g>
	<path class="st0" d="M109,395.2c3.5-4,14.1-15.3,28.5-16.6c16.5-1.5,31.6,10.4,39.3,30.7"/>
	<g>
		<path class="st1" d="M112.2,398.4c7.8-9,19-16.9,31.5-15.3c14.3,1.8,23.9,14.9,28.8,27.4c2.1,5.3,10.8,3,8.7-2.4
			c-6.1-15.6-17.6-30.8-35.1-33.7c-15.7-2.5-30.2,6.1-40.3,17.6C102.1,396.3,108.4,402.7,112.2,398.4L112.2,398.4z"/>
	</g>
</g>
<g>
	<path class="st0" d="M164.6,408.8c1-2.5,7.9-19.9,24.3-24.2c23.7-6.3,47.5,20.1,44.9,26.2c-1.4,3.2-9.2-0.6-37.7,0.2
		c-4.5,0.1-13.8,0.5-26.3-0.8c-2.9-0.3-5.4-0.6-7-0.8"/>
	<g>
		<path class="st1" d="M169,410c2.7-6.9,8.3-14.8,15.4-18.8c10.9-6.1,23.6-2.3,33.2,4.6c3.8,2.7,7.5,6.1,10.1,10
			c0.2,0.3,1.6,3.6,1.9,3.7c-0.3-0.1,1.7-2.3,1.7-2c0,0,0.2,0-0.2,0c-0.5-0.1-1.1,0-1.6,0c-1.5,0-3.1-0.2-4.6-0.3
			c-5-0.4-10-0.7-15-0.8c-15.3-0.4-30.4,0.6-45.7-1.4c-5.7-0.8-8.1,7.9-2.4,8.7c16.8,2.3,33.4,1.3,50.2,1.8c5.5,0.2,10.9,0.7,16.4,1
			c2.9,0.2,6.2,0.2,8.4-2c7-7-5.5-19.1-10.4-23.2c-10.9-9.1-25.8-15.2-39.9-10.7c-12.6,4-21.5,15-26.1,27
			C158.2,413,166.9,415.3,169,410L169,410z"/>
	</g>
</g>
<g>
	<path class="st0" d="M328.6,408c1.5-5.8,6.5-22.1,19.3-29.7c14.7-8.6,33.7-2.3,49.5,15.9"/>
	<g>
		<path class="st1" d="M332.9,409.2c3-11.3,9-24.2,20.7-28.7c15.5-6,30.9,5.9,40.6,16.9c3.8,4.4,10.2-2,6.4-6.4
			c-11.9-13.5-30.6-26-49.3-19.2c-14.9,5.4-23.1,20.5-27,35C322.7,412.4,331.4,414.8,332.9,409.2L332.9,409.2z"/>
	</g>
</g>
<g>
	<path class="st0" d="M271.4,408.7c2.6-5.4,10.5-20.8,24.3-25.8c15.8-5.8,33.1,4.2,44.9,25.3"/>
	<g>
		<path class="st1" d="M275.3,411c5.2-10.9,13.7-23.4,26.7-25c15.7-2,27.8,12.4,34.8,24.6c2.9,5,10.7,0.5,7.8-4.5
			c-8.6-15.1-23.5-30.8-42.6-29c-16.4,1.6-27.9,15.5-34.5,29.5C265.1,411.6,272.8,416.2,275.3,411L275.3,411z"/>
	</g>
</g>
<g>
	<path class="st0" d="M54.5,385c3.5-4,14.2-15.2,28.7-16.4c16.6-1.4,31.6,10.7,39,31.1"/>
	<g>
		<path class="st1" d="M57.7,388.2c7.9-8.9,19.1-16.7,31.6-15c14.3,2,23.8,15.1,28.6,27.7c2,5.4,10.7,3,8.7-2.4
			c-5.9-15.6-17.3-31-34.9-33.9c-15.7-2.6-30.3,5.9-40.4,17.3C47.5,386.2,53.8,392.5,57.7,388.2L57.7,388.2z"/>
	</g>
</g>
<g>
	<path class="st0" d="M221.4,410.1c2.7-4.6,11.1-17.6,25.2-21.5c16-4.5,33,4.7,44.1,23.4"/>
	<g>
		<path class="st1" d="M225.3,412.4c5.9-9.8,15-19.2,27-20.3c15.1-1.4,27.2,10.2,34.5,22.2c3,4.9,10.8,0.4,7.8-4.5
			c-9-14.6-24-28-42.3-26.6c-15.3,1.2-27.2,12.1-34.8,24.8C214.6,412.8,222.3,417.4,225.3,412.4L225.3,412.4z"/>
	</g>
</g>
<g>
	<path class="st0" d="M383.9,393c-0.6,2.3-1.4,5.1-1.5,5.1c-0.2,0,0.6-10.3,5.8-18.5c1-1.5,8.3-12.5,21.5-14.2
		c16.5-2.1,32.5,11.2,31.1,17.6c-1.1,5-12.7,4.1-52.7,14.9c-2.8,0.8-5.1,1.4-6.7,1.8"/>
	<g>
		<path class="st1" d="M379.5,391.8c-0.3,1.2-0.6,3-1,4c2.7,0.4,5.5,0.7,8.2,1.1c0.3,1.8,0.2-0.1,0.3-0.6c0.3-1.5,0.5-3,0.9-4.4
			c0.9-3.6,2.3-7.1,4.3-10.2c2.6-3.9,6.3-7.2,10.4-9.3c7-3.7,15.2-3.2,22.3-0.1c3.2,1.4,6.2,3.3,8.7,5.8c0.9,0.9,1.5,2.2,2.4,3
			c0.4,0.4,0.8,1.2,0.4,0.9c-0.4-0.3,0.9-0.7,0.2-0.6c-1.1,0.2-0.7,0.5-2.3,0.9c-3.4,1-6.8,1.7-10.2,2.4
			c-14.7,3.1-29.4,6.6-43.9,10.7c-5.6,1.6-3.2,10.2,2.4,8.7c14.4-4,28.8-7.5,43.4-10.6c5.3-1.1,13.2-1.7,17.2-5.9
			c7.4-7.7-4.6-18-10.7-21.6c-13-7.5-28.8-7.1-40.5,2.6c-4.2,3.5-7.7,7.9-10,12.9c-2.3,5-5,12.1-4,17.8c0.6,3.6,6.7,4.6,8.2,1.1
			c0.8-2,1.4-4.1,1.9-6.1C389.7,388.6,381.1,386.2,379.5,391.8L379.5,391.8z"/>
	</g>
</g>
</svg>
