<?xml version="1.0" encoding="utf-8"?>
<!-- Generator: Adobe Illustrator 22.1.0, SVG Export Plug-In . SVG Version: 6.00 Build 0)  -->
<svg version="1.1" baseProfile="basic" id="Calque_1"
	 xmlns="http://www.w3.org/2000/svg" xmlns:xlink="http://www.w3.org/1999/xlink" x="0px" y="0px" viewBox="0 0 94.2 56.3"
	 xml:space="preserve">
<style type="text/css">
	.st0{fill:#771B23;}
	.st1{fill:#D04444;}
	.st2{fill:#FFFFFF;}
	.st3{opacity:0.2;fill:#020203;}
	.st4{fill:none;}
	.st5{fill:url(#SVGID_1_);stroke:#511010;stroke-miterlimit:10;}
	.st6{fill:url(#SVGID_2_);stroke:#831811;stroke-width:2;stroke-miterlimit:10;}
	.st7{fill:#EEDADA;}
	.st8{fill:url(#SVGID_3_);stroke:url(#SVGID_4_);stroke-miterlimit:10;}
	.st9{fill:url(#SVGID_5_);}
	.st10{fill:#FFFFFF;stroke:#FFFFFF;stroke-miterlimit:10;}
	.st11{font-family:'AgencyFB-Reg';}
	.st12{font-size:48px;}
	.st13{font-family:'AdobeArabic-Regular';}
	.st14{font-size:44px;}
</style>
<rect x="-373.5" y="-190.6" class="st0" width="467.7" height="240.9"/>
<g>
	<g>
		<g>
			<path class="st1" d="M-5.3-120.4c0,0.1-0.1,0.1-0.1,0.2c0.9,0,1.8-0.1,2.7-0.1c1.8-0.2,3.5-0.5,5.3-0.9c0.1,0,0.3-0.1,0.4-0.1
				c0.3-0.2,0.6-0.2,0.6-0.2c0.5-0.2,1-0.3,1.5-0.5c0.4-0.2,0.8-0.3,1.2-0.5c0,0,0,0,0,0c0.5-0.2,0.9-0.4,1.1-0.4
				c0.1,0,0.2-0.1,0.3-0.1c0.9-0.6,1.9-1.2,2.8-1.8c5.7-4,8.9-10.4,12.1-16.3c0.6-1.2,1.3-2.3,1.9-3.4c-3.7-1.3-7.7-1.4-11.8,0.7
				c3-1.7,6.1-3.5,9.2-5.3c-2.3,1.3-4.6,2.6-6.9,3.9c-2.6,1.5-5.2,3-7.4,5C1.8-134.9-1-127.1-5.3-120.4z"/>
			<path class="st1" d="M-71.1-174c-2.3,10.8-5.5,21.3-3,32.4c2,9,7.2,17.1,14.3,23c7.8,6.4,17.9,10.6,27.9,11.3
				c4.8,0.3,9.8-0.2,14.3-2.1c3.9-1.6,7.6-3.9,11.4-6c3.9-2.1,7.9-4.2,11.8-6.4c0.7-0.4,1.4-0.9,2.1-1.3c-0.1,0-0.2,0-0.3,0.1
				c-0.2,0.1-0.6,0.2-1.1,0.4c-0.5,0.2-1,0.4-1.2,0.5c-0.5,0.2-1,0.4-1.5,0.5c0,0.1-0.6,0.1-1.2,0.3c-1.7,0.4-3.3,0.7-5.1,0.9
				c-0.9,0.1-1.8,0.1-2.7,0.1c-0.1,0-0.1,0-0.2,0c-2.4,0-4.8-0.2-7.2-0.6c-7-1.2-13.8-3.9-19.7-7.8c-10.9-7.2-18.2-18.9-19.2-32.1
				c-0.6-8.9,2.1-17.5,3.9-26.2c0,0.2-3.9,2-3.5,1.8c-2.8,1.5-5.5,3-8.3,4.6c-2.8,1.5-5.5,3.1-8.2,4.6
				C-68.3-175.6-71-174.5-71.1-174z M-9.6-113.9c-1.1,0.7-2.3,1.4-3.4,2.1C-12-112.4-10.9-113.1-9.6-113.9z"/>
			<path class="st2" d="M-64.1-177.9c-1.9,9.3-4.8,18.4-3.7,28c0.9,7.9,4.2,15.5,9.3,21.6c10.3,12.3,29.6,20.6,45.5,15.8
				c3.2-1,6.2-2.6,9.1-4.3c1.3-0.8,2.6-1.5,3.9-2.2c-0.1,0-0.5,0.1-1.2,0.4c-0.5,0.2-0.9,0.4-1.4,0.5c-0.4,0.1-0.8,0.3-1.2,0.4
				c-14.8,4.5-32.8-2.7-43.2-13.4c-5.9-6.1-9.9-13.8-11.2-22.2c-1.6-10.2,1.4-19.9,3.5-29.8c-0.1,0.6-4.1,2.2-4.7,2.6
				c-1.1,0.6-2.2,1.2-3.3,1.9C-63-178.5-64.1-178.1-64.1-177.9z"/>
			<path class="st2" d="M8.1-135.6c-2.5,4.3-4.6,8.8-7.4,12.8c-1.3,1.8-2.7,3.6-4.4,5.1c0.4-0.1,0.8-0.2,1.2-0.4
				c0.5-0.2,0.9-0.3,1.4-0.5c0.7-0.3,1.1-0.4,1.2-0.4c0.1,0,0.1-0.1,0.2-0.1c4-2.3,7.2-5.1,9.9-8.9c3-4.3,5.2-9.1,7.9-13.7
				c1.7-2.8,3.9-5.5,6.2-7.9l-2.5,0.2c-1.8,1-3.6,2.2-5.3,3.4C12.9-143.1,10.3-139.4,8.1-135.6z"/>
			<path class="st3" d="M-4.1-122.4c-0.4,0.7-0.8,1.3-1.2,2c0,0.1-0.1,0.1-0.1,0.2c0.9,0,1.8-0.1,2.7-0.1c1.8-0.2,3.5-0.5,5.3-0.9
				c0.1,0,0.3-0.1,0.4-0.1c0.3-0.2,0.6-0.2,0.6-0.2c0.5-0.2,1-0.3,1.5-0.5c0.4-0.2,0.8-0.3,1.2-0.5c0,0,0,0,0,0
				c0.5-0.2,0.9-0.4,1.1-0.4c0.1,0,0.2-0.1,0.3-0.1c0.9-0.6,1.9-1.2,2.8-1.8c0.9-0.6,1.7-1.3,2.5-2.1C7.7-124.3,1.8-122.7-4.1-122.4
				z"/>
			<path class="st1" d="M24.5-144.7c3.5,1.2,6.8,3.4,9.7,5.9c6.6,5.6,11.9,12.6,18.9,17.7c5.8,4.2,12.6,6.4,19.8,5.9
				c5.3-0.4,10.2-2.2,14.9-4.5c-0.4,0.4,7.3-6.3,8.8-8.5c-8.4,0.7-16.2-2.4-22.8-7.9c-8.4-7-15.1-17.5-25.6-21.6
				c-4.8-1.8-9.2-0.8-13.6,1.5c-0.3,0.1-0.6,0.3-0.9,0.5c-4,2.1-7.9,4.3-11.8,6.5c-3.1,1.8-6.2,3.7-9.2,5.3
				C16.8-146.1,20.8-146,24.5-144.7z"/>
			<path class="st2" d="M24.2-149.5C24.2-149.5,24.2-149.5,24.2-149.5c0.5-0.1,1-0.2,1.6-0.2c2.4-0.2,4.7,0.4,6.9,1.3
				c4.7,2.1,8.8,5.6,12.4,9.1c7.1,6.9,13.7,15.4,23.5,18.7c8.3,2.8,17.3,1.3,24.9-2.7l4-2.9c-0.6,0.2-1.1,0.4-1.7,0.5
				c-7.1,2-15,1.7-21.7-1.7c-9.1-4.6-15.1-13.1-22.6-19.7c-3.4-3-7.3-6-11.7-7.3c-4-1.2-7.8-0.4-11.4,1.5c-0.5,0.3-1,0.5-1.5,0.8
				c0,0,0,0,0,0c-1.7,0.9-3.5,1.8-5.2,2.8L24.2-149.5z"/>
			<path class="st3" d="M15.3-141.4c2.3-0.1,4.7,0.2,6.9,0.8c0.1-0.2,0.2-0.5,0.4-0.7c0.6-1.2,1.3-2.3,1.9-3.4
				c-3.7-1.3-7.7-1.4-11.8,0.7c3-1.7,6.1-3.5,9.2-5.3c-2.3,1.3-4.6,2.6-6.9,3.9c-2.6,1.5-5.2,3-7.4,5c-0.6,0.5-1.1,1.1-1.6,1.7
				C8.8-140.3,12.1-141.3,15.3-141.4z"/>
		</g>
		<g>
			<path class="st2" d="M66.8-117.1C66.8-117.1,66.8-117.1,66.8-117.1c-8.9-1.6-17.2-7-23.4-15.1c-0.2-0.2-0.1-0.5,0.1-0.7
				c0.2-0.2,0.5-0.1,0.7,0.1c6.1,8,14.1,13.2,22.7,14.8c0.3,0,0.4,0.3,0.4,0.6C67.3-117.2,67.1-117.1,66.8-117.1z"/>
		</g>
	</g>
	<g>
		<g>
			<path class="st1" d="M-274-120.4c0,0.1,0.1,0.1,0.1,0.2c-0.9,0-1.8-0.1-2.7-0.1c-1.8-0.2-3.5-0.5-5.3-0.9c-0.1,0-0.3-0.1-0.4-0.1
				c-0.3-0.2-0.6-0.2-0.6-0.2c-0.5-0.2-1-0.3-1.5-0.5c-0.4-0.2-0.8-0.3-1.2-0.5c0,0,0,0,0,0c-0.5-0.2-0.9-0.4-1.1-0.4
				c-0.1,0-0.2-0.1-0.3-0.1c-0.9-0.6-1.9-1.2-2.8-1.8c-5.7-4-8.9-10.4-12.1-16.3c-0.6-1.2-1.3-2.3-1.9-3.4c3.7-1.3,7.7-1.4,11.8,0.7
				c-3-1.7-6.1-3.5-9.2-5.3c2.3,1.3,4.6,2.6,6.9,3.9c2.6,1.5,5.2,3,7.4,5C-281.1-134.9-278.2-127.1-274-120.4z"/>
			<path class="st1" d="M-211.5-175.9c-2.7-1.6-5.5-3.1-8.2-4.6c-2.8-1.5-5.5-3.1-8.3-4.6c0.4,0.2-3.4-1.6-3.5-1.8
				c1.8,8.6,4.5,17.2,3.9,26.2c-0.9,13.2-8.2,24.9-19.2,32.1c-5.9,3.9-12.7,6.6-19.7,7.8c-2.4,0.4-4.8,0.6-7.2,0.6
				c-0.1,0-0.1,0-0.2,0c-0.9,0-1.8-0.1-2.7-0.1c-1.7-0.2-3.4-0.4-5.1-0.9c-0.6-0.3-1.2-0.3-1.2-0.3c-0.5-0.2-1-0.3-1.5-0.5
				c-0.2-0.1-0.7-0.3-1.2-0.5c-0.5-0.2-0.9-0.4-1.1-0.4c-0.1,0-0.2-0.1-0.3-0.1c0.7,0.4,1.4,0.9,2.1,1.3c3.9,2.3,7.9,4.3,11.8,6.4
				c3.7,2.1,7.4,4.4,11.4,6c4.5,1.9,9.5,2.4,14.3,2.1c10.1-0.7,20.2-4.8,27.9-11.3c7.1-5.9,12.3-13.9,14.3-23
				c2.5-11.1-0.7-21.6-3-32.4C-208.3-174.5-211-175.6-211.5-175.9z M-266.2-111.8c-1.2-0.7-2.3-1.4-3.4-2.1
				C-268.4-113.1-267.2-112.4-266.2-111.8z"/>
			<path class="st2" d="M-215.2-177.9c1.9,9.3,4.8,18.4,3.7,28c-0.9,7.9-4.2,15.5-9.3,21.6c-10.3,12.3-29.6,20.6-45.5,15.8
				c-3.2-1-6.2-2.6-9.1-4.3c-1.3-0.8-2.6-1.5-3.9-2.2c0.1,0,0.5,0.1,1.2,0.4c0.5,0.2,0.9,0.4,1.4,0.5c0.4,0.1,0.8,0.3,1.2,0.4
				c14.8,4.5,32.8-2.7,43.2-13.4c5.9-6.1,9.9-13.8,11.2-22.2c1.6-10.2-1.4-19.9-3.5-29.8c0.1,0.6,4.1,2.2,4.7,2.6
				c1.1,0.6,2.2,1.2,3.3,1.9C-216.3-178.5-215.2-178.1-215.2-177.9z"/>
			<path class="st2" d="M-287.4-135.6c2.5,4.3,4.6,8.8,7.4,12.8c1.3,1.8,2.7,3.6,4.4,5.1c-0.4-0.1-0.8-0.2-1.2-0.4
				c-0.5-0.2-0.9-0.3-1.4-0.5c-0.7-0.3-1.1-0.4-1.2-0.4c-0.1,0-0.1-0.1-0.2-0.1c-4-2.3-7.2-5.1-9.9-8.9c-3-4.3-5.2-9.1-7.9-13.7
				c-1.7-2.8-3.9-5.5-6.2-7.9l2.5,0.2c1.8,1,3.6,2.2,5.3,3.4C-292.2-143.1-289.6-139.4-287.4-135.6z"/>
			<path class="st3" d="M-275.2-122.4c0.4,0.7,0.8,1.3,1.2,2c0,0.1,0.1,0.1,0.1,0.2c-0.9,0-1.8-0.1-2.7-0.1
				c-1.8-0.2-3.5-0.5-5.3-0.9c-0.1,0-0.3-0.1-0.4-0.1c-0.3-0.2-0.6-0.2-0.6-0.2c-0.5-0.2-1-0.3-1.5-0.5c-0.4-0.2-0.8-0.3-1.2-0.5
				c0,0,0,0,0,0c-0.5-0.2-0.9-0.4-1.1-0.4c-0.1,0-0.2-0.1-0.3-0.1c-0.9-0.6-1.9-1.2-2.8-1.8c-0.9-0.6-1.7-1.3-2.5-2.1
				C-287-124.3-281.1-122.7-275.2-122.4z"/>
			<path class="st1" d="M-303.8-144.7c-3.5,1.2-6.8,3.4-9.7,5.9c-6.6,5.6-11.9,12.6-18.9,17.7c-5.8,4.2-12.6,6.4-19.8,5.9
				c-5.3-0.4-10.2-2.2-14.9-4.5c0.4,0.4-7.3-6.3-8.8-8.5c8.4,0.7,16.2-2.4,22.8-7.9c8.4-7,15.1-17.5,25.6-21.6
				c4.8-1.8,9.2-0.8,13.6,1.5c0.3,0.1,0.6,0.3,0.9,0.5c4,2.1,7.9,4.3,11.8,6.5c3.1,1.8,6.2,3.7,9.2,5.3
				C-296.1-146.1-300-146-303.8-144.7z"/>
			<path class="st2" d="M-303.5-149.5C-303.5-149.5-303.5-149.5-303.5-149.5c-0.5-0.1-1-0.2-1.6-0.2c-2.4-0.2-4.7,0.4-6.9,1.3
				c-4.7,2.1-8.8,5.6-12.4,9.1c-7.1,6.9-13.7,15.4-23.5,18.7c-8.3,2.8-17.3,1.3-24.9-2.7l-4-2.9c0.6,0.2,1.1,0.4,1.7,0.5
				c7.1,2,15,1.7,21.7-1.7c9.1-4.6,15.1-13.1,22.6-19.7c3.4-3,7.3-6,11.7-7.3c4-1.2,7.8-0.4,11.4,1.5c0.5,0.3,1,0.5,1.5,0.8
				c0,0,0,0,0,0c1.7,0.9,3.5,1.8,5.2,2.8L-303.5-149.5z"/>
			<path class="st3" d="M-294.6-141.4c-2.3-0.1-4.7,0.2-6.9,0.8c-0.1-0.2-0.2-0.5-0.4-0.7c-0.6-1.2-1.3-2.3-1.9-3.4
				c3.7-1.3,7.7-1.4,11.8,0.7c-3-1.7-6.1-3.5-9.2-5.3c2.3,1.3,4.6,2.6,6.9,3.9c2.6,1.5,5.2,3,7.4,5c0.6,0.5,1.1,1.1,1.6,1.7
				C-288.1-140.3-291.3-141.3-294.6-141.4z"/>
		</g>
		<g>
			<path class="st2" d="M-242.7-110c-0.2,0-0.4-0.2-0.5-0.4c0-0.3,0.1-0.5,0.4-0.6c7.9-1.3,15.6-4.9,21.6-10.3
				c6-5.3,10.5-12.5,12.8-20.2c0.1-0.3,0.3-0.4,0.6-0.3c0.3,0.1,0.4,0.3,0.3,0.6c-2.3,7.9-6.9,15.2-13.1,20.7
				C-226.7-115.1-234.5-111.4-242.7-110C-242.7-110-242.7-110-242.7-110z"/>
		</g>
		<g>
			<path class="st2" d="M-346.1-117.1c-0.2,0-0.4-0.2-0.5-0.4c0-0.3,0.1-0.5,0.4-0.6c8.6-1.5,16.6-6.8,22.7-14.8
				c0.2-0.2,0.5-0.3,0.7-0.1c0.2,0.2,0.3,0.5,0.1,0.7C-328.9-124-337.2-118.7-346.1-117.1C-346-117.1-346.1-117.1-346.1-117.1z"/>
		</g>
	</g>
</g>
<rect x="-372.9" y="-161.2" class="st4" width="466.4" height="155.5"/>
<g>
	
		<radialGradient id="SVGID_1_" cx="-174.2903" cy="-94.5468" r="154.4617" gradientTransform="matrix(0.9939 0 0 0.9995 -4.2117 -0.1529)" gradientUnits="userSpaceOnUse">
		<stop  offset="0" style="stop-color:#9B182A"/>
		<stop  offset="1" style="stop-color:#511010"/>
	</radialGradient>
	<ellipse class="st5" cx="-143" cy="-53.9" rx="78.4" ry="78.9"/>
	<linearGradient id="SVGID_2_" gradientUnits="userSpaceOnUse" x1="-178.3896" y1="-116.4674" x2="-106.0902" y2="8.7587">
		<stop  offset="0" style="stop-color:#75160E"/>
		<stop  offset="0.5011" style="stop-color:#E73330"/>
		<stop  offset="1" style="stop-color:#511010"/>
	</linearGradient>
	<ellipse class="st6" cx="-142.2" cy="-53.9" rx="72" ry="72.4"/>
	<g>
		<g>
			<path class="st7" d="M-94.1-50.3l0,0.6l0,0.6c4.6,0.3,9.2,0.5,13.9,0.6C-84.9-49.2-89.5-49.8-94.1-50.3z"/>
		</g>
		<g>
			<path class="st7" d="M-94.7-45.4l-0.1,0.6c0,0.2,0,0.4-0.1,0.6c4.6,0.7,9.1,1.4,13.7,2C-85.7-43.3-90.2-44.3-94.7-45.4z"/>
		</g>
		<g>
			<path class="st7" d="M-95.9-40.5l-0.2,0.6c0,0.2-0.1,0.4-0.2,0.6c4.5,1.2,9,2.3,13.5,3.4C-87.1-37.5-91.5-39-95.9-40.5z"/>
		</g>
		<g>
			<path class="st7" d="M-97.5-35.8l-0.2,0.6c-0.1,0.2-0.2,0.4-0.3,0.6c4.3,1.7,8.7,3.3,13.1,4.8C-89.1-31.9-93.3-33.9-97.5-35.8z"
				/>
		</g>
		<g>
			<path class="st7" d="M-99.6-31.2c-0.1,0.2-0.2,0.4-0.3,0.6l-0.3,0.5c4.1,2.1,8.3,4.1,12.5,6.1C-91.6-26.5-95.6-28.9-99.6-31.2z"
				/>
		</g>
		<g>
			<path class="st7" d="M-102.1-26.9c-0.1,0.2-0.2,0.3-0.4,0.5l-0.4,0.5c3.9,2.5,7.8,5,11.8,7.4C-94.7-21.4-98.4-24.2-102.1-26.9z"
				/>
		</g>
		<g>
			<path class="st7" d="M-105.1-22.9l-0.4,0.5L-106-22c3.6,2.9,7.3,5.7,11,8.5C-98.3-16.7-101.7-19.8-105.1-22.9z"/>
		</g>
		<g>
			<path class="st7" d="M-108.5-19.3l-0.5,0.4l-0.5,0.4c3.3,3.2,6.7,6.4,10.1,9.6C-102.4-12.3-105.4-15.8-108.5-19.3z"/>
		</g>
		<g>
			<path class="st7" d="M-112.3-16l-0.5,0.4l-0.5,0.4c3,3.6,6,7.1,9,10.6C-106.9-8.4-109.5-12.2-112.3-16z"/>
		</g>
		<g>
			<path class="st7" d="M-116.3-13.1l-0.5,0.3l-0.5,0.3c2.6,3.8,5.2,7.7,7.9,11.5C-111.7-5-114-9.1-116.3-13.1z"/>
		</g>
		<g>
			<path class="st7" d="M-120.7-10.6l-0.6,0.3l-0.6,0.3c2.2,4.1,4.4,8.2,6.7,12.2C-116.9-2.1-118.8-6.4-120.7-10.6z"/>
		</g>
		<g>
			<path class="st7" d="M-125.2-8.6l-0.6,0.2l-0.6,0.2c1.7,4.3,3.5,8.6,5.4,12.8C-122.4,0.2-123.8-4.2-125.2-8.6z"/>
		</g>
		<g>
			<path class="st7" d="M-130-7.1l-0.6,0.2l-0.6,0.2c1.3,4.5,2.6,8.9,4,13.3C-128.1,2-129-2.5-130-7.1z"/>
		</g>
		<g>
			<path class="st7" d="M-134.8-6l-0.6,0.1l-0.6,0.1c0.8,4.6,1.7,9.1,2.6,13.7C-133.9,3.2-134.3-1.4-134.8-6z"/>
		</g>
		<g>
			<path class="st7" d="M-139.8-5.5l-0.6,0l-0.6,0c0.3,4.6,0.7,9.2,1.2,13.8C-139.8,3.7-139.8-0.9-139.8-5.5z"/>
		</g>
		<g>
			<path class="st7" d="M-144.8-5.5l-0.6,0l-0.6,0c-0.1,4.6-0.2,9.3-0.3,13.9C-145.7,3.7-145.2-0.9-144.8-5.5z"/>
		</g>
		<g>
			<path class="st7" d="M-149.8-6l-0.6-0.1l-0.6-0.1c-0.6,4.6-1.2,9.2-1.7,13.8C-151.7,3-150.7-1.5-149.8-6z"/>
		</g>
		<g>
			<path class="st7" d="M-154.6-7.1l-0.6-0.2l-0.6-0.2c-1.1,4.5-2.1,9-3.1,13.5C-157.5,1.8-156-2.6-154.6-7.1z"/>
		</g>
		<g>
			<path class="st7" d="M-159.4-8.6l-0.6-0.2l-0.6-0.2c-1.6,4.4-3.1,8.7-4.5,13.1C-163.1-0.1-161.2-4.3-159.4-8.6z"/>
		</g>
		<g>
			<path class="st7" d="M-163.9-10.6l-0.6-0.3l-0.6-0.3c-2,4.2-4,8.4-5.9,12.6C-168.5-2.5-166.2-6.5-163.9-10.6z"/>
		</g>
		<g>
			<path class="st7" d="M-168.3-13.1l-0.5-0.3l-0.5-0.3c-2.4,3.9-4.8,7.9-7.1,11.9C-173.7-5.5-171-9.3-168.3-13.1z"/>
		</g>
		<g>
			<path class="st7" d="M-172.3-16l-0.5-0.4c-0.2-0.1-0.3-0.3-0.5-0.4c-2.8,3.7-5.6,7.4-8.3,11.1C-178.5-9-175.4-12.5-172.3-16z"/>
		</g>
		<g>
			<path class="st7" d="M-176.1-19.3c-0.2-0.1-0.3-0.3-0.5-0.4l-0.4-0.5c-3.2,3.4-6.3,6.8-9.4,10.2C-182.9-13-179.5-16.1-176.1-19.3
				z"/>
		</g>
		<g>
			<path class="st7" d="M-179.5-22.9c-0.1-0.1-0.3-0.3-0.4-0.5l-0.4-0.5c-3.5,3-7,6.1-10.4,9.2C-186.9-17.4-183.2-20.1-179.5-22.9z"
				/>
		</g>
		<g>
			<path class="st7" d="M-182.5-26.9l-0.3-0.5l-0.3-0.5c-3.8,2.7-7.6,5.4-11.3,8.1C-190.4-22.2-186.4-24.5-182.5-26.9z"/>
		</g>
		<g>
			<path class="st7" d="M-185-31.2l-0.3-0.6l-0.3-0.6c-4.1,2.2-8.1,4.5-12.1,6.9C-193.4-27.3-189.2-29.3-185-31.2z"/>
		</g>
		<g>
			<path class="st7" d="M-187.1-35.8l-0.2-0.6l-0.2-0.6c-4.3,1.8-8.5,3.7-12.7,5.6C-195.9-32.8-191.5-34.2-187.1-35.8z"/>
		</g>
		<g>
			<path class="st7" d="M-188.7-40.5l-0.2-0.6l-0.2-0.6c-4.4,1.4-8.8,2.8-13.2,4.3C-197.8-38.4-193.2-39.4-188.7-40.5z"/>
		</g>
		<g>
			<path class="st7" d="M-189.9-45.4L-190-46l-0.1-0.6c-4.5,0.9-9.1,1.9-13.6,2.9C-199.1-44.2-194.5-44.8-189.9-45.4z"/>
		</g>
		<g>
			<path class="st7" d="M-190.5-50.3l0-0.6l0-0.6c-4.6,0.4-9.2,0.9-13.8,1.5C-199.8-50.1-195.1-50.2-190.5-50.3z"/>
		</g>
		<g>
			<path class="st7" d="M-190.6-55.3l0-0.6l0-0.6c-4.6,0-9.3,0-13.9,0.1C-199.9-56-195.2-55.7-190.6-55.3z"/>
		</g>
		<g>
			<path class="st7" d="M-190.2-60.3l0.1-0.6l0.1-0.6c-4.6-0.5-9.2-0.9-13.8-1.3C-199.4-62-194.8-61.1-190.2-60.3z"/>
		</g>
		<g>
			<path class="st7" d="M-189.4-65.2l0.2-0.6l0.2-0.6c-4.5-1-9.1-1.9-13.6-2.7C-198.3-67.8-193.8-66.5-189.4-65.2z"/>
		</g>
		<g>
			<path class="st7" d="M-188-70l0.2-0.6l0.2-0.6c-4.4-1.4-8.8-2.8-13.3-4.1C-196.6-73.5-192.3-71.7-188-70z"/>
		</g>
		<g>
			<path class="st7" d="M-186.1-74.7l0.3-0.6l0.3-0.6c-4.2-1.9-8.5-3.7-12.8-5.5C-194.3-79-190.2-76.8-186.1-74.7z"/>
		</g>
		<g>
			<path class="st7" d="M-183.8-79.1l0.3-0.5l0.3-0.5c-4-2.3-8.1-4.5-12.2-6.7C-191.5-84.2-187.6-81.6-183.8-79.1z"/>
		</g>
		<g>
			<path class="st7" d="M-181-83.2l0.4-0.5l0.4-0.5c-3.8-2.7-7.6-5.3-11.4-7.9C-188.1-89.1-184.6-86.2-181-83.2z"/>
		</g>
		<g>
			<path class="st7" d="M-177.8-87.1l0.4-0.5l0.4-0.5c-3.5-3.1-7-6.1-10.5-9.1C-184.3-93.7-181.1-90.4-177.8-87.1z"/>
		</g>
		<g>
			<path class="st7" d="M-174.2-90.6l0.5-0.4l0.5-0.4c-3.1-3.4-6.3-6.8-9.5-10.1C-180-97.8-177.2-94.2-174.2-90.6z"/>
		</g>
		<g>
			<path class="st7" d="M-170.3-93.7l0.5-0.4l0.5-0.4c-2.8-3.7-5.6-7.4-8.5-11C-175.4-101.5-172.9-97.6-170.3-93.7z"/>
		</g>
		<g>
			<path class="st7" d="M-166.1-96.4l0.5-0.3c0.2-0.1,0.4-0.2,0.5-0.3c-2.4-4-4.8-7.9-7.3-11.8C-170.3-104.7-168.3-100.5-166.1-96.4
				z"/>
		</g>
		<g>
			<path class="st7" d="M-161.7-98.7l0.6-0.3l0.6-0.2c-2-4.2-4-8.4-6-12.6C-165-107.4-163.4-103-161.7-98.7z"/>
		</g>
		<g>
			<path class="st7" d="M-157-100.5c0.2-0.1,0.4-0.2,0.6-0.2l0.6-0.2c-1.5-4.4-3.1-8.8-4.7-13.1C-159.4-109.4-158.3-104.9-157-100.5
				z"/>
		</g>
		<g>
			<path class="st7" d="M-152.2-101.7c0.2-0.1,0.4-0.1,0.6-0.1l0.6-0.1c-1-4.5-2.1-9-3.3-13.5C-153.7-110.9-153-106.3-152.2-101.7z"
				/>
		</g>
		<g>
			<path class="st7" d="M-147.3-102.5c0.2,0,0.4,0,0.6,0l0.6,0c-0.6-4.6-1.2-9.2-1.9-13.8C-147.8-111.8-147.6-107.1-147.3-102.5z"/>
		</g>
		<g>
			<path class="st7" d="M-142.3-102.8l0.6,0l0.6,0c-0.1-4.6-0.2-9.3-0.4-13.9C-141.8-112-142.1-107.4-142.3-102.8z"/>
		</g>
		<g>
			<path class="st7" d="M-137.3-102.5l0.6,0.1l0.6,0.1c0.4-4.6,0.7-9.3,1-13.9C-135.9-111.7-136.6-107.1-137.3-102.5z"/>
		</g>
		<g>
			<path class="st7" d="M-132.4-101.7l0.6,0.2l0.6,0.2c0.9-4.6,1.7-9.1,2.4-13.7C-130-110.7-131.2-106.2-132.4-101.7z"/>
		</g>
		<g>
			<path class="st7" d="M-127.6-100.5l0.6,0.2l0.6,0.2c1.3-4.4,2.6-8.9,3.8-13.4C-124.3-109.1-125.9-104.8-127.6-100.5z"/>
		</g>
		<g>
			<path class="st7" d="M-122.9-98.7l0.6,0.3l0.6,0.3c1.8-4.3,3.5-8.6,5.2-12.9C-118.7-106.9-120.8-102.8-122.9-98.7z"/>
		</g>
		<g>
			<path class="st7" d="M-118.5-96.4l0.5,0.3l0.5,0.3c2.2-4.1,4.4-8.2,6.5-12.3C-113.5-104.2-116-100.3-118.5-96.4z"/>
		</g>
		<g>
			<path class="st7" d="M-114.3-93.7l0.5,0.4l0.5,0.4c2.6-3.8,5.2-7.7,7.7-11.6C-108.5-100.9-111.4-97.3-114.3-93.7z"/>
		</g>
		<g>
			<path class="st7" d="M-110.4-90.6l0.5,0.4l0.5,0.4c3-3.5,6-7.1,8.9-10.7C-103.9-97.2-107.1-93.9-110.4-90.6z"/>
		</g>
		<g>
			<path class="st7" d="M-106.8-87.1l0.4,0.5l0.4,0.5c3.3-3.2,6.7-6.4,9.9-9.7C-99.7-93-103.3-90.1-106.8-87.1z"/>
		</g>
		<g>
			<path class="st7" d="M-103.6-83.2l0.4,0.5l0.4,0.5c3.7-2.8,7.3-5.7,10.9-8.7C-95.9-88.4-99.8-85.8-103.6-83.2z"/>
		</g>
		<g>
			<path class="st7" d="M-100.8-79.1l0.3,0.5l0.3,0.5c3.9-2.4,7.8-4.9,11.7-7.5C-92.6-83.4-96.8-81.3-100.8-79.1z"/>
		</g>
		<g>
			<path class="st7" d="M-98.5-74.7l0.3,0.6l0.3,0.6c4.2-2,8.3-4.1,12.4-6.3C-89.9-78.1-94.2-76.4-98.5-74.7z"/>
		</g>
		<g>
			<path class="st7" d="M-96.6-70l0.2,0.6l0.2,0.6c4.3-1.6,8.7-3.2,13-4.9C-87.7-72.6-92.2-71.4-96.6-70z"/>
		</g>
		<g>
			<path class="st7" d="M-95.2-65.2l0.2,0.6l0.2,0.6c4.5-1.1,9-2.3,13.4-3.6C-86.1-66.9-90.7-66.1-95.2-65.2z"/>
		</g>
		<g>
			<path class="st7" d="M-94.4-60.3l0.1,0.6l0.1,0.6c4.6-0.7,9.1-1.4,13.7-2.2C-85.1-61-89.7-60.7-94.4-60.3z"/>
		</g>
		<g>
			<path class="st7" d="M-94-55.3l0,0.6l0,0.6c4.6-0.2,9.2-0.5,13.9-0.8C-84.7-55.1-89.3-55.2-94-55.3z"/>
		</g>
	</g>
	
		<linearGradient id="SVGID_3_" gradientUnits="userSpaceOnUse" x1="-148.1346" y1="-90.9834" x2="-191.4087" y2="-152.2988" gradientTransform="matrix(1.5575 2.035622e-02 2.035622e-02 1.5575 121.0669 135.4141)">
		<stop  offset="0" style="stop-color:#F8FBFC"/>
		<stop  offset="1" style="stop-color:#C19E9E"/>
	</linearGradient>
	
		<linearGradient id="SVGID_4_" gradientUnits="userSpaceOnUse" x1="-186.4483" y1="-150.9218" x2="-150.5832" y2="-88.8015" gradientTransform="matrix(1.5575 2.035622e-02 2.035622e-02 1.5575 121.0669 135.4141)">
		<stop  offset="0" style="stop-color:#F8FBFC"/>
		<stop  offset="1" style="stop-color:#C19E9E"/>
	</linearGradient>
	<path class="st8" d="M-89-54c0.4,30.5-23.8,54.8-54.1,54.4C-173.4,0-198.3-25-198.7-55.4c-0.4-30.5,23.8-54.8,54.1-54.4
		C-114.3-109.4-89.4-84.4-89-54z"/>
	<linearGradient id="SVGID_5_" gradientUnits="userSpaceOnUse" x1="-123.8885" y1="-7.0367" x2="-176.4627" y2="-119.3452">
		<stop  offset="0" style="stop-color:#9B182A"/>
		<stop  offset="1" style="stop-color:#511010"/>
	</linearGradient>
	<path class="st9" d="M-113.1-36.9c-0.3-0.3-0.7-0.4-1.1-0.4c-0.5,0-1,0.2-1.4,0.6c-0.7,0.8-1.4,1.5-2.2,2.2
		c-5.3,4.8-12.2,7.4-19.3,7.4c-8.2,0-16-3.5-21.5-9.6c-10.7-11.9-9.7-30.3,2.2-41.1c5.3-4.8,12.2-7.4,19.3-7.4
		c8.2,0,16,3.5,21.5,9.6c0.4,0.4,0.9,0.6,1.4,0.6c0.4,0,0.8-0.1,1.1-0.4c0.8-0.6,1-1.6,0.4-2.5c-3.2-5-7.5-9.4-12.5-12.6
		c-6.5-4.1-13.9-6.3-21.5-6.3c-13.9,0-26.6,7-34.1,18.8c-11.9,18.9-6.3,43.9,12.5,55.9c6.5,4.1,13.9,6.3,21.5,6.3c0,0,0,0,0,0
		c13.9,0,26.6-7,34.1-18.8C-112.2-35.3-112.4-36.4-113.1-36.9z M-128.6-54l5.1-7.1c0.3-0.4,0.3-1,0-1.5c-0.2-0.3-0.6-0.5-1-0.5
		c-0.1,0-0.3,0-0.4,0.1l-8.2,2.7l-5.1-7.1c-0.2-0.3-0.6-0.5-1-0.5c-0.1,0-0.3,0-0.4,0.1c-0.5,0.2-0.9,0.7-0.9,1.2v8.7l-8.2,2.7
		c-0.5,0.2-0.9,0.7-0.9,1.2s0.4,1,0.9,1.2l8.2,2.7v8.7c0,0.5,0.4,1,0.9,1.2c0.1,0,0.3,0.1,0.4,0.1c0.4,0,0.8-0.2,1-0.5l5.1-7.1
		l8.2,2.7c0.1,0,0.3,0.1,0.4,0.1c0.4,0,0.8-0.2,1-0.5c0.3-0.4,0.3-1,0-1.5L-128.6-54z"/>
</g>
<path class="st1" d="M72.8-46.9c-9.1-6.7-15-20-26.3-19.9c-8,0.1-14.2,7.7-15.9,15.5c-1.7,7.8-0.2,15.9,0.4,23.9
	c0.6,8,0,16.7-5.1,22.8c-5,6-13.1,8.4-20.9,9.2c-7.8,0.8-15.8,0.6-23.2,2.9c-7.5,2.3-14.6,8-15.6,15.8c-0.9,7.4,3.9,14.2,5.3,21.6
	c0.3,1.8,0.4,3.7,0.3,5.5H99.8v-95.9C91.4-41.2,80.5-41.3,72.8-46.9z"/>
<path class="st2" d="M-340.3-60.7c12.2-9,20-26.8,35.2-26.6c10.7,0.1,18.9,10.3,21.3,20.7c2.3,10.4,0.3,21.2-0.5,31.9
	c-0.8,10.7,0,22.2,6.8,30.5C-270.9,3.9-260,7-249.6,8.1c10.4,1.1,21,0.8,31,3.8c10,3.1,19.5,10.7,20.8,21.1c1.2,9.9-5.3,19-7.1,28.8
	c-0.5,2.4-0.5,4.9-0.3,7.4h-171.1v-128C-365.1-53-350.5-53.1-340.3-60.7z"/>
<path class="st1" d="M-269.9,19.8C-270,19.8-270,19.8-269.9,19.8c-10.2-1.1-17.3-4.2-21.6-9.6c-4.4-5.3-6.1-12.8-5.3-23.5
	c0.1-1.8,0.3-3.6,0.5-5.4c0.6-6.1,1.2-12.4-0.1-18.4c-0.1-0.5,0.2-0.9,0.6-1c0.5-0.1,0.9,0.2,1,0.6c1.4,6.2,0.8,12.7,0.1,18.9
	c-0.2,1.7-0.3,3.6-0.5,5.3c-0.7,10.2,0.8,17.3,4.9,22.3c4,4.9,10.9,7.9,20.4,8.9c0.5,0.1,0.8,0.5,0.7,0.9
	C-269.1,19.5-269.5,19.8-269.9,19.8z"/>
<path class="st10" d="M43.7-27.1C43.7-27.1,43.7-27,43.7-27.1c4.5,9.2,5.7,16.7,3.5,23.3c-2.2,6.6-7.5,12-17,17.1
	c-0.7,0.4-2.3,1.1-4.8,2.5c-5.8,3.2-7.7,4.9-7.9,4.6c-0.4-0.5,5.4-7.1,7.2-6.1c0.6,0.3,0.8,1.5,0.8,1.5c-0.1,0-0.8-0.8-0.8-1.5
	c0.1-1.5,3.9-2.3,4.7-2.5c6.3-1.5,13.7-9.5,16.2-16.1C49.3-14.4,43.5-27,43.7-27.1z"/>
<rect x="-94.3" y="-15.8" class="st4" width="374.6" height="146.3"/>
<text transform="matrix(1 0 0 1 -94.3334 20.8811)" class="st2 st11 st12">DOMINO</text>
<text transform="matrix(1 0 0 1 -9.155273e-05 32.2268)" class="st13 st14">سنوتلاب</text>
</svg>
