<?xml version="1.0" encoding="utf-8"?>
<!-- Generator: Adobe Illustrator 22.1.0, SVG Export Plug-In . SVG Version: 6.00 Build 0)  -->
<svg version="1.1" id="Calque_1" xmlns="http://www.w3.org/2000/svg" xmlns:xlink="http://www.w3.org/1999/xlink" x="0px" y="0px"
	 viewBox="0 0 595.3 698" style="enable-background:new 0 0 595.3 698;" xml:space="preserve">
<style type="text/css">
	.st0{fill:#FFFFFF;stroke:#000000;stroke-miterlimit:10;}
	.st1{fill:#ED900D;}
	.st2{fill:#1B5125;}
	.st3{fill:#E8CD07;}
	.st4{fill:none;stroke:#000000;stroke-miterlimit:10;}
	.st5{fill:#2DAA57;}
	.st6{fill:#235627;}
	.st7{fill:#E73E2A;}
	.st8{fill:#E73E2A;stroke:#D71016;stroke-miterlimit:10;}
	.st9{fill:#C46F1A;stroke:#944E19;stroke-miterlimit:10;}
	.st10{fill:#E1781A;stroke:#944E19;stroke-miterlimit:10;}
	.st11{fill:#A06714;stroke:#6B400F;stroke-miterlimit:10;}
	.st12{fill:#E73C2B;}
	.st13{fill:#123A1E;}
	.st14{fill:#D68B31;}
	.st15{fill:#27140E;}
	.st16{fill:#A15B29;}
</style>
<path class="st0" d="M241.4,352"/>
<path class="st1" d="M273.6,531.5c24.9,0.1,25,0.4,62.3,0.8c45.7,0.5,46.6,0.1,74.2,0.4c68.6,0.9,115.5,4.1,116.1,0
	c0.1-0.9-1.9-1.3-8.1-4.9c-9.8-5.7-15.5-10.9-18.6-13.4c-9.6-7.8-51.2-35.5-102.3-56.6c-33.5-13.8-50.3-20.8-71.4-23.1
	c-58.6-6.4-113.3,26.3-121.8,31.2c-3.2,1.8-12.9,7.4-28.1,15.8c-11.7,6.4-18.9,10.2-34.7,18.6c-45.4,24.1-55.4,29.7-54.2,32
	c0.5,1,3.1,0.8,10.5,0.4c11.1-0.6,22.2,0,33.3-0.8c13.4-0.9,19.3-0.2,58,0C232.3,532.2,229.9,531.3,273.6,531.5z"/>
<path class="st2" d="M536.3,448.7c0.4,1.1,0.6,3.3-5.1,10.4c-6.3,7.9-11.9,14.9-18.9,14.5c-3.2-0.2-5.5-1.8-6.1-2.3
	c-4.7-3.2-13.7-4.9-141.5-52.2c-169-62.6-184.9-71.4-197.5-73.8c-11.7-2.2-19.5-5.8-35.2-13c-0.7-0.3-1.6-0.7-2.6-1.6
	c-9-7.8-1.4-32-1.4-32l0,0c0,0,6.3,0.8,8.1,1.1c7.1,1.1,12.6,4.1,14.8,5.1c20.2,10,42.5,15.1,63.7,22.9
	c50.9,18.7,113.9,42,114.3,42.2c60.4,22.3,90.6,33.5,97.9,36.1c23,8.3,45.2,19,68.8,25.4c11.2,3,21.1,10.3,32.5,12.6
	C530.2,444.5,535.2,445.5,536.3,448.7z"/>
<path class="st2" d="M95.1,581.6c5.3,2.7,4.8,7,13.2,15.7c2.6,2.7,4.8,4.5,7.2,6.5c5.9,4.8,11.1,8,14.7,10.2
	c5.2,3.2,15.1,9.2,24.4,11.5c12.8,3.1,14.1,3.5,14.3,3.1c0.2-0.6,2.3-0.3,3.5,0.7c1.1,0.9,0.9,2.4,1.4,4.9c0.4,1.9,0.9,2.6,2,5.1
	c3.1,7.2,2.5,9.4,5.4,15.1c1.5,2.9,2.2,4.3,3.5,5.6c5.7,5.4,15.1,3.9,17.8,3.5c28.2-3.9,219.5-0.2,221.5-0.3
	c1.7-0.8,4.1-2.2,6.3-4.5c5-5.4,6.1-12.7,6.6-17.1c0.9-7-0.3-9.9,2.1-12.2c2.7-2.6,7.3-1.9,8.7-1.7c0,0,14.1,1.5,64.1-44.6
	c2.1-0.4,5.6-1.2,10.1-1.7c0,0,9.8-1.3,35.5-0.3c0.4-2.6,0.6-6.1,0.3-10.1c-0.1-1.6-0.4-4.7-1.7-10.1c-2.7-10.8-4.1-16.3-8-18.1
	c-1.7-0.8-2.6-0.4-9.4,0c-4.3,0.3-8.6,0.3-12.9,0.3c-225.3,0-430.3-0.8-420-0.8c2.5,0-37.5-1.8-44,1.5c0,0-7.5,3.7-15.7,37.6
	c3.1,0,7.9,0.1,13.9,0c6-0.1,11.9-0.3,20.6-0.3C93.2,580.8,94.1,581.1,95.1,581.6z"/>
<path class="st3" d="M88.6,581.7c58.1,5.1,120.3,8.4,186.3,9.1c86.5,0.9,167-2.9,240.4-9.5"/>
<path class="st3" d="M167,628.3c40.8,3.4,84.8,5.6,131.6,5.8c49.4,0.2,95.6-1.8,138.3-5.1"/>
<path class="st4" d="M315.3,41.9"/>
<path class="st4" d="M414.1,69.9"/>
<path class="st4" d="M390.5,78.1"/>
<path class="st2" d="M382.7,83.9c0.4,9.3,4.2,26.1,3.6,31.5c-0.6,5.8-1.3,9.1-2.8,12.5c0,0-2.4,5.6-7,10.4
	c-56.4,59.7-128.2,95.4-128.2,95.4c-38.6,21.5-63.1,31.7-79,36.9c0,0-28.1,9.3-26.2,15.7c0.2,0.6,1.8,3.5,1.8,3.5c0,0,0.9,0.4,2.4,1
	c11.4,4.6,37.5,15,38.3,15.4c24.3,9.8,76.7,27.7,131.7,47c27.9,9.8,41.8,14.7,50.2,17.8c31,11.4,42.6,16.5,101,39
	c44.3,17.1,38,14.3,40.4,15.3c18,7.9,23,11.6,25.6,9.4c6.3-5.2-15.8-32.8-36.3-85.7c-1.9-4.9-3.1-8.4-3.7-9.9
	c-5.8-16.3-12.3-37.4-21.8-83.5c-4.6-22.5-7.7-40.3-7.7-40.3c0,0,6.7,36.9,7,36.8c0.2,0-1.8-16.6-7-36.8c-1.4-5.5-1.4-5-2.7-10.2
	c-3.2-12.9-5.9-23.2-5.6-34.8c0.2-6.7,0.3-13.3,3.2-20.5c6.9-17.4,24.6-25.3,31.3-27.9"/>
<path class="st4" d="M443.8,415.2"/>
<path class="st3" d="M387.2,115.8c7.2,5.8,17.8,13.1,31.8,18.8c17.8,7.3,33.8,9,44.3,9.4"/>
<path class="st3" d="M380.5,133.7c7.4,5.7,18.9,13.3,34.3,19.2c17.1,6.6,32.2,8.3,42.1,8.8"/>
<path class="st3" d="M227.6,245.1c31.3,20.6,74.4,44.6,128.7,63.7c53.4,18.7,101.2,27,138.2,30.6"/>
<path class="st3" d="M286.6,213.6c21.5,13.3,46.6,26.7,75.4,38.6c42.6,17.5,82.3,27.2,115.9,32.5"/>
<path class="st4" d="M415.5,338.8"/>
<path class="st4" d="M391.9,347"/>
<line class="st4" x1="336.9" y1="92.2" x2="339.3" y2="92.2"/>
<path class="st3" d="M383.1,78.1c-0.1-0.3-0.2-0.9,1.3-2.9c1.7-2.2,3.2-4.1,5.1-4.1c0.9,0,1.5,0.5,1.7,0.6
	c1.3,0.9,3.8,1.3,39.1,13.6c46.7,16.3,51.1,18.7,54.6,19.3c3.2,0.5,5.4,1.5,9.7,3.4c0.2,0.1,0.4,0.2,0.7,0.4
	c2.5,2.1,0.5,8.8,0.5,8.8l0,0c0,0-1.7-0.2-2.2-0.3c-2-0.3-3.5-1.1-4.1-1.3c-5.6-2.7-11.8-3.9-17.6-6c-14.1-4.9-31.5-11-31.6-11
	c-16.7-5.8-25-8.8-27.1-9.4c-6.4-2.2-12.5-5-19-6.6c-3.1-0.8-5.9-2.7-9-3.3C384.8,79.2,383.4,79,383.1,78.1z"/>
<path class="st2" d="M437.2,81.8c6.2,2.1,6.2,2.2,15.5,5.4c11.3,3.9,11.6,3.9,18.4,6.3c17,5.9,28.5,10.4,28.9,9.8
	c0.1-0.1-0.4-0.4-1.7-1.5c-2.1-1.8-3.2-3.2-3.8-3.9c-1.9-2.2-10.6-10.6-22-18.7c-7.5-5.3-11.3-7.9-16.4-10.1
	c-14.2-6.1-29.8-4.8-32.2-4.7c-0.9,0.1-3.7,0.2-7.9,0.4c-3.3,0.2-5.3,0.2-9.8,0.4c-12.7,0.5-15.6,0.6-15.4,1.1
	c0.1,0.2,0.7,0.4,2.6,1c2.8,0.8,5.5,1.9,8.3,2.7c3.4,1,4.8,1.6,14.4,4.9C426.9,78.5,426.3,78.1,437.2,81.8z"/>
<path class="st5" d="M522.9,641.5"/>
<path class="st6" d="M419.1,512.1"/>
<path class="st6" d="M404.7,495.8"/>
<path class="st6" d="M410.3,507.3"/>
<path class="st7" d="M435,574"/>
<path class="st7" d="M163.6,647.5"/>
<path class="st0" d="M423.1,482.7"/>
<path class="st4" d="M463,495.2"/>
<path class="st5" d="M477.9,455.1"/>
<path class="st5" d="M485.9,496.9"/>
<path class="st8" d="M482.7,474"/>
<path class="st7" d="M415.3,521.3"/>
<path class="st7" d="M459.2,476.4"/>
<path class="st9" d="M155.1,501c-0.6,0.1-2.5,0.6-3.4,2.3c-1,1.9-0.4,4.5,1.2,5.9c2.1,1.7,5.3,1.3,7-0.6c1.1-1.2,1.7-3.2,0.9-5
	C159.9,501.3,157.1,500.6,155.1,501z"/>
<path class="st9" d="M175.5,493.7c-0.6,0.1-2.5,0.6-3.4,2.3c-1,1.9-0.4,4.5,1.2,5.9c2.1,1.7,5.3,1.3,7-0.6c1.1-1.2,1.7-3.2,0.9-5
	C180.3,494.1,177.5,493.3,175.5,493.7z"/>
<path class="st10" d="M175.4,510.5c-0.7,0.1-2.7,0.6-3.7,2.5c-1.1,2.1-0.5,4.8,1.3,6.4c2.2,1.9,5.7,1.4,7.5-0.7
	c1.2-1.3,1.8-3.5,1-5.4C180.6,510.9,177.6,510.1,175.4,510.5z"/>
<path class="st10" d="M190.5,481.1c-0.7,0.1-2.7,0.6-3.7,2.5c-1.1,2.1-0.5,4.8,1.3,6.4c2.2,1.9,5.7,1.4,7.5-0.7
	c1.2-1.3,1.8-3.5,1-5.4C195.7,481.5,192.7,480.7,190.5,481.1z"/>
<path class="st11" d="M192.7,500.9c-0.5,0.1-1.8,0.4-2.5,1.7c-0.7,1.4-0.3,3.2,0.9,4.3c1.5,1.3,3.8,0.9,5-0.4
	c0.8-0.9,1.2-2.3,0.7-3.6C196.1,501.1,194.1,500.6,192.7,500.9z"/>
<path class="st11" d="M205.5,515.4c-0.3-0.1-1.3-0.4-1.8-1.5c-0.6-1.2-0.2-2.9,0.7-3.8c1.1-1.1,2.9-0.8,3.8,0.4
	c0.6,0.8,0.9,2.1,0.5,3.2C208.1,515.2,206.6,515.7,205.5,515.4z"/>
<path class="st9" d="M195.1,523.5c-0.5-0.1-2.2-0.6-3-2.4c-0.9-2-0.4-4.6,1.1-6.1c1.8-1.8,4.6-1.3,6.1,0.6c1,1.3,1.5,3.3,0.8,5.1
	C199.3,523.2,196.9,523.9,195.1,523.5z"/>
<path class="st10" d="M206.1,483.9c-0.7-0.1-2.7-0.8-3.7-3c-1.1-2.4-0.5-5.7,1.3-7.5c2.2-2.2,5.7-1.6,7.5,0.8c1.2,1.6,1.8,4.1,1,6.3
	C211.2,483.5,208.3,484.4,206.1,483.9z"/>
<path class="st11" d="M201.5,499.7c-0.2,0-0.8-0.2-1.1-0.9c-0.3-0.8-0.1-1.8,0.4-2.3c0.7-0.7,1.8-0.5,2.4,0.2c0.4,0.5,0.6,1.3,0.3,2
	C203.1,499.5,202.2,499.8,201.5,499.7z"/>
<path class="st11" d="M162.5,518.7c-0.2,0-0.8-0.2-1.1-0.9c-0.3-0.8-0.1-1.8,0.4-2.3c0.7-0.7,1.8-0.5,2.4,0.2c0.4,0.5,0.6,1.3,0.3,2
	C164.1,518.6,163.2,518.9,162.5,518.7z"/>
<path class="st11" d="M187.6,498.9c-0.2,0-0.8-0.2-1.1-0.9c-0.3-0.8-0.1-1.8,0.4-2.3c0.7-0.7,1.8-0.5,2.4,0.2c0.4,0.5,0.6,1.3,0.3,2
	C189.2,498.8,188.3,499.1,187.6,498.9z"/>
<path class="st11" d="M207.4,495.8c-0.2,0-0.8-0.2-1.1-0.9c-0.3-0.8-0.1-1.8,0.4-2.3c0.7-0.7,1.8-0.5,2.4,0.2c0.4,0.5,0.6,1.3,0.3,2
	C209.1,495.7,208.1,496,207.4,495.8z"/>
<path class="st11" d="M206.9,504.5c-0.2,0-0.8-0.2-1.1-0.9c-0.3-0.8-0.1-1.8,0.4-2.3c0.7-0.7,1.8-0.5,2.4,0.2c0.4,0.5,0.6,1.3,0.3,2
	C208.5,504.4,207.6,504.7,206.9,504.5z"/>
<path class="st11" d="M213.6,510.6c-0.3-0.1-1.3-0.4-1.8-1.5c-0.6-1.2-0.2-2.9,0.7-3.8c1.1-1.1,2.9-0.8,3.8,0.4
	c0.6,0.8,0.9,2.1,0.5,3.2C216.1,510.3,214.6,510.8,213.6,510.6z"/>
<path class="st11" d="M219,498.8c-0.3-0.1-1.3-0.4-1.8-1.5c-0.6-1.2-0.2-2.9,0.7-3.8c1.1-1.1,2.9-0.8,3.8,0.4
	c0.6,0.8,0.9,2.1,0.5,3.2C221.5,498.6,220,499,219,498.8z"/>
<path class="st11" d="M208.2,525.6c-0.3-0.1-1.3-0.4-1.8-1.5c-0.6-1.2-0.2-2.9,0.7-3.8c1.1-1.1,2.9-0.8,3.8,0.4
	c0.6,0.8,0.9,2.1,0.5,3.2C210.8,525.4,209.3,525.8,208.2,525.6z"/>
<path class="st11" d="M219,525.7c-0.3-0.1-1.3-0.4-1.8-1.5c-0.6-1.2-0.2-2.9,0.7-3.8c1.1-1.1,2.9-0.8,3.8,0.4
	c0.6,0.8,0.9,2.1,0.5,3.2C221.5,525.4,220,525.9,219,525.7z"/>
<path class="st9" d="M221.1,487.9c-0.7-0.1-2.7-0.8-3.7-3c-1.1-2.4-0.5-5.7,1.3-7.5c2.2-2.2,5.7-1.6,7.5,0.8c1.2,1.6,1.8,4.1,1,6.3
	C226.2,487.5,223.2,488.4,221.1,487.9z"/>
<path class="st11" d="M221.7,515.4c-0.3-0.1-1.3-0.4-1.8-1.5c-0.6-1.2-0.2-2.9,0.7-3.8c1.1-1.1,2.9-0.8,3.8,0.4
	c0.6,0.8,0.9,2.1,0.5,3.2C224.2,515.2,222.7,515.7,221.7,515.4z"/>
<path class="st11" d="M150.2,523.5c-0.5-0.1-2.2-0.6-3-2.4c-0.9-2-0.4-4.6,1.1-6.1c1.8-1.8,4.6-1.3,6.1,0.6c1,1.3,1.5,3.3,0.8,5.1
	C154.4,523.2,152,523.9,150.2,523.5z"/>
<path class="st10" d="M136.6,510.9c-0.6,0.1-2.5,0.6-3.4,2.3c-1,1.9-0.4,4.5,1.2,5.9c2.1,1.7,5.3,1.3,7-0.6c1.1-1.2,1.7-3.2,0.9-5
	C141.4,511.2,138.6,510.5,136.6,510.9z"/>
<path class="st11" d="M125.1,521.8c-0.5,1.5-2,1.9-3.1,1.7c-0.3-0.1-1.3-0.4-1.8-1.5"/>
<path class="st9" d="M223.8,470c-0.7-0.1-2.7-0.8-3.7-3c-1.1-2.4-0.5-5.7,1.3-7.5c2.2-2.2,5.7-1.6,7.5,0.8c1.2,1.6,1.8,4.1,1,6.3
	C228.9,469.6,225.9,470.5,223.8,470z"/>
<path class="st11" d="M228.1,499.4c1.1-1.1,2.9-0.8,3.8,0.4c0.6,0.8,0.9,2.1,0.5,3.2"/>
<path class="st9" d="M240.2,492c-0.7-0.1-2.7-0.8-3.7-3c-1.1-2.4-0.5-5.7,1.3-7.5c2.2-2.2,5.7-1.6,7.5,0.8c1.2,1.6,1.8,4.1,1,6.3
	C245.4,491.5,242.4,492.5,240.2,492z"/>
<path class="st9" d="M234.8,519.8c-0.7-0.1-2.7-0.8-3.7-3c-1.1-2.4-0.5-5.7,1.3-7.5c2.2-2.2,5.7-1.6,7.5,0.8c1.2,1.6,1.8,4.1,1,6.3
	C240,519.4,237,520.3,234.8,519.8z"/>
<path class="st10" d="M267.3,490.2c-0.6,0.1-2.5,0.6-3.4,2.3c-1,1.9-0.4,4.5,1.2,5.9c2.1,1.7,5.3,1.3,7-0.6c1.1-1.2,1.7-3.2,0.9-5
	C272.1,490.5,269.3,489.8,267.3,490.2z"/>
<path class="st10" d="M287.7,482.9c-0.6,0.1-2.5,0.6-3.4,2.3c-1,1.9-0.4,4.5,1.2,5.9c2.1,1.7,5.3,1.3,7-0.6c1.1-1.2,1.7-3.2,0.9-5
	C292.5,483.3,289.7,482.6,287.7,482.9z"/>
<path class="st9" d="M287.6,499.8c-0.7,0.1-2.7,0.6-3.7,2.5c-1.1,2.1-0.5,4.8,1.3,6.4c2.2,1.9,5.7,1.4,7.5-0.7
	c1.2-1.3,1.8-3.5,1-5.4C292.8,500.1,289.8,499.3,287.6,499.8z"/>
<path class="st9" d="M302.7,470.3c-0.7,0.1-2.7,0.6-3.7,2.5c-1.1,2.1-0.5,4.8,1.3,6.4c2.2,1.9,5.7,1.4,7.5-0.7
	c1.2-1.3,1.8-3.5,1-5.4C307.9,470.7,304.9,469.9,302.7,470.3z"/>
<path class="st11" d="M304.9,490.1c-0.5,0.1-1.8,0.4-2.5,1.7c-0.7,1.4-0.3,3.2,0.9,4.3c1.5,1.3,3.8,0.9,5-0.4
	c0.8-0.9,1.2-2.3,0.7-3.6C308.4,490.4,306.4,489.8,304.9,490.1z"/>
<path class="st11" d="M317.8,504.7c-0.3-0.1-1.3-0.4-1.8-1.5c-0.6-1.2-0.2-2.9,0.7-3.8c1.1-1.1,2.9-0.8,3.8,0.4
	c0.6,0.8,0.9,2.1,0.5,3.2C320.3,504.4,318.8,504.9,317.8,504.7z"/>
<path class="st9" d="M307.3,512.7c-0.5-0.1-2.2-0.6-3-2.4c-0.9-2-0.4-4.6,1.1-6.1c1.8-1.8,4.6-1.3,6.1,0.6c1,1.3,1.5,3.3,0.8,5.1
	C311.5,512.4,309.1,513.1,307.3,512.7z"/>
<path class="st9" d="M318.3,473.2c-0.7-0.1-2.7-0.8-3.7-3c-1.1-2.4-0.5-5.7,1.3-7.5c2.2-2.2,5.7-1.6,7.5,0.8c1.2,1.6,1.8,4.1,1,6.3
	C323.5,472.7,320.5,473.6,318.3,473.2z"/>
<path class="st11" d="M313.7,488.9c-0.2,0-0.8-0.2-1.1-0.9c-0.3-0.8-0.1-1.8,0.4-2.3c0.7-0.7,1.8-0.5,2.4,0.2c0.4,0.5,0.6,1.3,0.3,2
	C315.3,488.7,314.4,489,313.7,488.9z"/>
<path class="st11" d="M274.8,508c-0.2,0-0.8-0.2-1.1-0.9c-0.3-0.8-0.1-1.8,0.4-2.3c0.7-0.7,1.8-0.5,2.4,0.2c0.4,0.5,0.6,1.3,0.3,2
	C276.4,507.8,275.4,508.1,274.8,508z"/>
<path class="st11" d="M299.8,488.1c-0.2,0-0.8-0.2-1.1-0.9c-0.3-0.8-0.1-1.8,0.4-2.3c0.7-0.7,1.8-0.5,2.4,0.2c0.4,0.5,0.6,1.3,0.3,2
	C301.4,488,300.5,488.3,299.8,488.1z"/>
<path class="st11" d="M319.7,485c-0.2,0-0.8-0.2-1.1-0.9c-0.3-0.8-0.1-1.8,0.4-2.3c0.7-0.7,1.8-0.5,2.4,0.2c0.4,0.5,0.6,1.3,0.3,2
	C321.3,484.9,320.3,485.2,319.7,485z"/>
<path class="st11" d="M319.1,493.7c-0.2,0-0.8-0.2-1.1-0.9c-0.3-0.8-0.1-1.8,0.4-2.3c0.7-0.7,1.8-0.5,2.4,0.2c0.4,0.5,0.6,1.3,0.3,2
	C320.7,493.6,319.8,493.9,319.1,493.7z"/>
<path class="st11" d="M325.8,499.8c-0.3-0.1-1.3-0.4-1.8-1.5c-0.6-1.2-0.2-2.9,0.7-3.8c1.1-1.1,2.9-0.8,3.8,0.4
	c0.6,0.8,0.9,2.1,0.5,3.2C328.3,499.6,326.8,500,325.8,499.8z"/>
<path class="st11" d="M331.2,488c-0.3-0.1-1.3-0.4-1.8-1.5c-0.6-1.2-0.2-2.9,0.7-3.8c1.1-1.1,2.9-0.8,3.8,0.4
	c0.6,0.8,0.9,2.1,0.5,3.2C333.7,487.8,332.2,488.2,331.2,488z"/>
<path class="st10" d="M333.3,477.1c-0.7-0.1-2.7-0.8-3.7-3c-1.1-2.4-0.5-5.7,1.3-7.5c2.2-2.2,5.7-1.6,7.5,0.8c1.2,1.6,1.8,4.1,1,6.3
	C338.4,476.7,335.4,477.6,333.3,477.1z"/>
<path class="st11" d="M333.9,504.7c-0.3-0.1-1.3-0.4-1.8-1.5c-0.6-1.2-0.2-2.9,0.7-3.8c1.1-1.1,2.9-0.8,3.8,0.4
	c0.6,0.8,0.9,2.1,0.5,3.2C336.4,504.4,334.9,504.9,333.9,504.7z"/>
<path class="st11" d="M262.4,512.7c-0.5-0.1-2.2-0.6-3-2.4c-0.9-2-0.4-4.6,1.1-6.1c1.8-1.8,4.6-1.3,6.1,0.6c1,1.3,1.5,3.3,0.8,5.1
	C266.6,512.4,264.2,513.1,262.4,512.7z"/>
<path class="st9" d="M248.8,500.1c-0.6,0.1-2.5,0.6-3.4,2.3c-1,1.9-0.4,4.5,1.2,5.9c2.1,1.7,5.3,1.3,7-0.6c1.1-1.2,1.7-3.2,0.9-5
	C253.6,500.4,250.9,499.7,248.8,500.1z"/>
<path class="st10" d="M341.6,455.7c-0.7-0.1-2.7-0.8-3.7-3c-1.1-2.4-0.5-5.7,1.3-7.5c2.2-2.2,5.7-1.6,7.5,0.8c1.2,1.6,1.8,4.1,1,6.3
	C346.8,455.3,343.8,456.2,341.6,455.7z"/>
<path class="st11" d="M340.3,488.7c1.1-1.1,2.9-0.8,3.8,0.4c0.6,0.8,0.9,2.1,0.5,3.2"/>
<path class="st9" d="M352.4,481.2c-0.7-0.1-2.7-0.8-3.7-3c-1.1-2.4-0.5-5.7,1.3-7.5c2.2-2.2,5.7-1.6,7.5,0.8c1.2,1.6,1.8,4.1,1,6.3
	C357.6,480.8,354.6,481.7,352.4,481.2z"/>
<path class="st10" d="M347,509c-0.7-0.1-2.7-0.8-3.7-3c-1.1-2.4-0.5-5.7,1.3-7.5c2.2-2.2,5.7-1.6,7.5,0.8c1.2,1.6,1.8,4.1,1,6.3
	C352.2,508.6,349.2,509.5,347,509z"/>
<path class="st10" d="M202.5,485.6c-0.6,0.1-2.5,0.6-3.4,2.3c-1,1.9-0.4,4.5,1.2,5.9c2.1,1.7,5.3,1.3,7-0.6c1.1-1.2,1.7-3.2,0.9-5
	C207.3,486,204.5,485.2,202.5,485.6z"/>
<path class="st9" d="M392.9,522.1c-0.6,0.1-2.5,0.6-3.4,2.3c-1,1.9-0.4,4.5,1.2,5.9c2.1,1.7,5.3,1.3,7-0.6c1.1-1.2,1.7-3.2,0.9-5
	C397.7,522.4,394.9,521.7,392.9,522.1z"/>
<path class="st9" d="M307.2,452.2c-0.7,0.1-2.7,0.6-3.7,2.5c-1.1,2.1-0.5,4.8,1.3,6.4c2.2,1.9,5.7,1.4,7.5-0.7
	c1.2-1.3,1.8-3.5,1-5.4C312.3,452.6,309.3,451.8,307.2,452.2z"/>
<path class="st9" d="M287,519.8c-0.7,0.1-2.7,0.6-3.7,2.5c-1.1,2.1-0.5,4.8,1.3,6.4c2.2,1.9,5.7,1.4,7.5-0.7c1.2-1.3,1.8-3.5,1-5.4
	C292.1,520.2,289.1,519.4,287,519.8z"/>
<path class="st11" d="M131.9,520.6c-0.5,0.1-1.8,0.4-2.5,1.7c-0.7,1.4-0.3,3.2,0.9,4.3c1.5,1.3,3.8,0.9,5-0.4
	c0.8-0.9,1.2-2.3,0.7-3.6C135.4,520.9,133.4,520.4,131.9,520.6z"/>
<path class="st11" d="M254.4,480.4c-0.3-0.1-1.3-0.4-1.8-1.5c-0.6-1.2-0.2-2.9,0.7-3.8c1.1-1.1,2.9-0.8,3.8,0.4
	c0.6,0.8,0.9,2.1,0.5,3.2C257,480.2,255.5,480.6,254.4,480.4z"/>
<path class="st9" d="M114.8,527.2c-0.5-0.1-2.2-0.6-3-2.4c-0.9-2-0.4-4.6,1.1-6.1c1.8-1.8,4.6-1.3,6.1,0.6c1,1.3,1.5,3.3,0.8,5.1
	C119,526.8,116.6,527.6,114.8,527.2z"/>
<path class="st10" d="M326,497.6c-0.7-0.1-2.7-0.8-3.7-3c-1.1-2.4-0.5-5.7,1.3-7.5c2.2-2.2,5.7-1.6,7.5,0.8c1.2,1.6,1.8,4.1,1,6.3
	C331.2,497.2,328.2,498.1,326,497.6z"/>
<path class="st11" d="M481.1,528.1c-0.2,0-0.8-0.2-1.1-0.9c-0.3-0.8-0.1-1.8,0.4-2.3c0.7-0.7,1.8-0.5,2.4,0.2c0.4,0.5,0.6,1.3,0.3,2
	C482.7,528,481.8,528.3,481.1,528.1z"/>
<path class="st11" d="M449,494.1c-0.2,0-0.8-0.2-1.1-0.9c-0.3-0.8-0.1-1.8,0.4-2.3c0.7-0.7,1.8-0.5,2.4,0.2c0.4,0.5,0.6,1.3,0.3,2
	C450.6,494,449.7,494.3,449,494.1z"/>
<path class="st11" d="M467.2,527.3c-0.2,0-0.8-0.2-1.1-0.9c-0.3-0.8-0.1-1.8,0.4-2.3c0.7-0.7,1.8-0.5,2.4,0.2c0.4,0.5,0.6,1.3,0.3,2
	C468.8,527.2,467.9,527.5,467.2,527.3z"/>
<path class="st11" d="M222.8,526c-0.2,0-0.8-0.2-1.1-0.9c-0.3-0.8-0.1-1.8,0.4-2.3c0.7-0.7,1.8-0.5,2.4,0.2c0.4,0.5,0.6,1.3,0.3,2
	C224.4,525.9,223.4,526.2,222.8,526z"/>
<path class="st11" d="M255.8,469.5c-0.2,0-0.8-0.2-1.1-0.9c-0.3-0.8-0.1-1.8,0.4-2.3c0.7-0.7,1.8-0.5,2.4,0.2c0.4,0.5,0.6,1.3,0.3,2
	C257.4,469.3,256.5,469.6,255.8,469.5z"/>
<path class="st11" d="M262.4,475.5c-0.3-0.1-1.3-0.4-1.8-1.5c-0.6-1.2-0.2-2.9,0.7-3.8c1.1-1.1,2.9-0.8,3.8,0.4
	c0.6,0.8,0.9,2.1,0.5,3.2C265,475.3,263.5,475.8,262.4,475.5z"/>
<path class="st11" d="M234.3,529c-0.3-0.1-1.3-0.4-1.8-1.5c-0.6-1.2-0.2-2.9,0.7-3.8c1.1-1.1,2.9-0.8,3.8,0.4
	c0.6,0.8,0.9,2.1,0.5,3.2C236.8,528.8,235.3,529.3,234.3,529z"/>
<path class="st9" d="M232.7,522.4c-0.7-0.1-2.7-0.8-3.7-3c-1.1-2.4-0.5-5.7,1.3-7.5c2.2-2.2,5.7-1.6,7.5,0.8c1.2,1.6,1.8,4.1,1,6.3
	C237.8,521.9,234.8,522.8,232.7,522.4z"/>
<path class="st11" d="M164.4,510.2c-0.3-0.1-1.3-0.4-1.8-1.5c-0.6-1.2-0.2-2.9,0.7-3.8c1.1-1.1,2.9-0.8,3.8,0.4
	c0.6,0.8,0.9,2.1,0.5,3.2C167,510,165.5,510.5,164.4,510.2z"/>
<path class="st11" d="M262.4,524.7c-0.5-0.1-2.2-0.6-3-2.4c-0.9-2-0.4-4.6,1.1-6.1c1.8-1.8,4.6-1.3,6.1,0.6c1,1.3,1.5,3.3,0.8,5.1
	C266.6,524.3,264.2,525.1,262.4,524.7z"/>
<path class="st9" d="M423.1,486.3c-0.6,0.1-2.5,0.6-3.4,2.3c-1,1.9-0.4,4.5,1.2,5.9c2.1,1.7,5.3,1.3,7-0.6c1.1-1.2,1.7-3.2,0.9-5
	C427.9,486.6,425.1,485.9,423.1,486.3z"/>
<path class="st10" d="M340,487.9c-0.7-0.1-2.7-0.8-3.7-3c-1.1-2.4-0.5-5.7,1.3-7.5c2.2-2.2,5.7-1.6,7.5,0.8c1.2,1.6,1.8,4.1,1,6.3
	C345.1,487.5,342.1,488.4,340,487.9z"/>
<path class="st11" d="M167.2,498.4c1.1-1.1,2.9-0.8,3.8,0.4c0.6,0.8,0.9,2.1,0.5,3.2"/>
<path class="st10" d="M356.4,509.9c-0.7-0.1-2.7-0.8-3.7-3c-1.1-2.4-0.5-5.7,1.3-7.5c2.2-2.2,5.7-1.6,7.5,0.8c1.2,1.6,1.8,4.1,1,6.3
	C361.6,509.4,358.6,510.4,356.4,509.9z"/>
<path class="st10" d="M185.1,525.1c-0.7-0.1-2.7-0.8-3.7-3c-1.1-2.4-0.5-5.7,1.3-7.5c2.2-2.2,5.7-1.6,7.5,0.8c1.2,1.6,1.8,4.1,1,6.3
	C190.3,524.7,187.3,525.6,185.1,525.1z"/>
<path class="st6" d="M295.8,480.9"/>
<path class="st9" d="M272.8,469.2c-0.5-0.1-2.2-0.6-3-2.4c-0.9-2-0.4-4.6,1.1-6.1c1.8-1.8,4.6-1.3,6.1,0.6c1,1.3,1.5,3.3,0.8,5.1
	C276.9,468.9,274.5,469.6,272.8,469.2z"/>
<path class="st11" d="M279.2,445.4c-0.2,0-0.8-0.2-1.1-0.9c-0.3-0.8-0.1-1.8,0.4-2.3c0.7-0.7,1.8-0.5,2.4,0.2c0.4,0.5,0.6,1.3,0.3,2
	C280.8,445.2,279.8,445.5,279.2,445.4z"/>
<path class="st11" d="M285.1,441.5c-0.2,0-0.8-0.2-1.1-0.9c-0.3-0.8-0.1-1.8,0.4-2.3c0.7-0.7,1.8-0.5,2.4,0.2c0.4,0.5,0.6,1.3,0.3,2
	C286.7,441.4,285.8,441.7,285.1,441.5z"/>
<path class="st11" d="M296.6,444.5c-0.3-0.1-1.3-0.4-1.8-1.5c-0.6-1.2-0.2-2.9,0.7-3.8c1.1-1.1,2.9-0.8,3.8,0.4
	c0.6,0.8,0.9,2.1,0.5,3.2C299.2,444.3,297.7,444.7,296.6,444.5z"/>
<path class="st11" d="M299.3,461.2c-0.3-0.1-1.3-0.4-1.8-1.5c-0.6-1.2-0.2-2.9,0.7-3.8c1.1-1.1,2.9-0.8,3.8,0.4
	c0.6,0.8,0.9,2.1,0.5,3.2C301.9,460.9,300.4,461.4,299.3,461.2z"/>
<path class="st11" d="M305.8,445.2c1.1-1.1,2.9-0.8,3.8,0.4c0.6,0.8,0.9,2.1,0.5,3.2"/>
<path class="st10" d="M295.1,475.2c-0.7-0.1-2.7-0.8-3.7-3c-1.1-2.4-0.5-5.7,1.3-7.5c2.2-2.2,5.7-1.6,7.5,0.8c1.2,1.6,1.8,4.1,1,6.3
	C300.2,474.7,297.2,475.6,295.1,475.2z"/>
<path class="st6" d="M356.1,534.1"/>
<path class="st11" d="M272.9,481.8c-0.5,0.1-1.8,0.4-2.5,1.7c-0.7,1.4-0.3,3.2,0.9,4.3c1.5,1.3,3.8,0.9,5-0.4
	c0.8-0.9,1.2-2.3,0.7-3.6C276.4,482.1,274.4,481.6,272.9,481.8z"/>
<path class="st9" d="M333.1,522.4c-0.5-0.1-2.2-0.6-3-2.4c-0.9-2-0.4-4.6,1.1-6.1c1.8-1.8,4.6-1.3,6.1,0.6c1,1.3,1.5,3.3,0.8,5.1
	C337.3,522.1,334.8,522.8,333.1,522.4z"/>
<path class="st11" d="M359.6,514.3c-0.3-0.1-1.3-0.4-1.8-1.5c-0.6-1.2-0.2-2.9,0.7-3.8c1.1-1.1,2.9-0.8,3.8,0.4
	c0.6,0.8,0.9,2.1,0.5,3.2C362.2,514.1,360.7,514.6,359.6,514.3z"/>
<path class="st10" d="M372.8,518.7c-0.7-0.1-2.7-0.8-3.7-3c-1.1-2.4-0.5-5.7,1.3-7.5c2.2-2.2,5.7-1.6,7.5,0.8c1.2,1.6,1.8,4.1,1,6.3
	C377.9,518.2,374.9,519.2,372.8,518.7z"/>
<path class="st6" d="M277.4,492.1"/>
<path class="st11" d="M252,457.8c-0.5,0.1-1.8,0.4-2.5,1.7c-0.7,1.4-0.3,3.2,0.9,4.3c1.5,1.3,3.8,0.9,5-0.4c0.8-0.9,1.2-2.3,0.7-3.6
	C255.4,458,253.4,457.5,252,457.8z"/>
<path class="st9" d="M254.4,480.4c-0.5-0.1-2.2-0.6-3-2.4c-0.9-2-0.4-4.6,1.1-6.1c1.8-1.8,4.6-1.3,6.1,0.6c1,1.3,1.5,3.3,0.8,5.1
	C258.6,480,256.2,480.8,254.4,480.4z"/>
<path class="st11" d="M260.8,456.5c-0.2,0-0.8-0.2-1.1-0.9c-0.3-0.8-0.1-1.8,0.4-2.3c0.7-0.7,1.8-0.5,2.4,0.2c0.4,0.5,0.6,1.3,0.3,2
	C262.4,456.4,261.5,456.7,260.8,456.5z"/>
<path class="st11" d="M246.9,455.8c-0.2,0-0.8-0.2-1.1-0.9c-0.3-0.8-0.1-1.8,0.4-2.3c0.7-0.7,1.8-0.5,2.4,0.2c0.4,0.5,0.6,1.3,0.3,2
	C248.5,455.6,247.6,455.9,246.9,455.8z"/>
<path class="st11" d="M266.8,452.7c-0.2,0-0.8-0.2-1.1-0.9c-0.3-0.8-0.1-1.8,0.4-2.3c0.7-0.7,1.8-0.5,2.4,0.2c0.4,0.5,0.6,1.3,0.3,2
	C268.4,452.5,267.4,452.8,266.8,452.7z"/>
<path class="st11" d="M278.3,455.7c-0.3-0.1-1.3-0.4-1.8-1.5c-0.6-1.2-0.2-2.9,0.7-3.8c1.1-1.1,2.9-0.8,3.8,0.4
	c0.6,0.8,0.9,2.1,0.5,3.2C280.8,455.4,279.3,455.9,278.3,455.7z"/>
<path class="st11" d="M281,472.3c-0.3-0.1-1.3-0.4-1.8-1.5c-0.6-1.2-0.2-2.9,0.7-3.8c1.1-1.1,2.9-0.8,3.8,0.4
	c0.6,0.8,0.9,2.1,0.5,3.2C283.5,472.1,282,472.6,281,472.3z"/>
<path class="st11" d="M287.4,456.3c1.1-1.1,2.9-0.8,3.8,0.4c0.6,0.8,0.9,2.1,0.5,3.2"/>
<path class="st6" d="M392.6,521.1"/>
<path class="st12" d="M405.9,573.8c2.2,0.2,4.5,0.5,6.7,0.7"/>
<path class="st10" d="M365,467c-0.7,0.1-2.7,0.6-3.7,2.5c-1.1,2.1-0.5,4.8,1.3,6.4c2.2,1.9,5.7,1.4,7.5-0.7c1.2-1.3,1.8-3.5,1-5.4
	C370.2,467.3,367.2,466.5,365,467z"/>
<path class="st11" d="M367.2,486.7c-0.5,0.1-1.8,0.4-2.5,1.7c-0.7,1.4-0.3,3.2,0.9,4.3c1.5,1.3,3.8,0.9,5-0.4
	c0.8-0.9,1.2-2.3,0.7-3.6C370.6,487,368.6,486.5,367.2,486.7z"/>
<path class="st10" d="M369.6,509.4c-0.5-0.1-2.2-0.6-3-2.4c-0.9-2-0.4-4.6,1.1-6.1c1.8-1.8,4.6-1.3,6.1,0.6c1,1.3,1.5,3.3,0.8,5.1
	C373.8,509,371.3,509.8,369.6,509.4z"/>
<path class="st11" d="M376,485.5c-0.2,0-0.8-0.2-1.1-0.9c-0.3-0.8-0.1-1.8,0.4-2.3c0.7-0.7,1.8-0.5,2.4,0.2c0.4,0.5,0.6,1.3,0.3,2
	C377.6,485.4,376.7,485.6,376,485.5z"/>
<path class="st11" d="M362.1,484.7c-0.2,0-0.8-0.2-1.1-0.9c-0.3-0.8-0.1-1.8,0.4-2.3c0.7-0.7,1.8-0.5,2.4,0.2c0.4,0.5,0.6,1.3,0.3,2
	C363.7,484.6,362.8,484.9,362.1,484.7z"/>
<path class="st11" d="M381.9,481.7c-0.2,0-0.8-0.2-1.1-0.9c-0.3-0.8-0.1-1.8,0.4-2.3c0.7-0.7,1.8-0.5,2.4,0.2c0.4,0.5,0.6,1.3,0.3,2
	C383.5,481.5,382.6,481.8,381.9,481.7z"/>
<path class="st11" d="M393.4,484.6c-0.3-0.1-1.3-0.4-1.8-1.5c-0.6-1.2-0.2-2.9,0.7-3.8c1.1-1.1,2.9-0.8,3.8,0.4
	c0.6,0.8,0.9,2.1,0.5,3.2C396,484.4,394.5,484.9,393.4,484.6z"/>
<path class="st11" d="M297.9,517.3c-0.3-0.1-1.3-0.4-1.8-1.5c-0.6-1.2-0.2-2.9,0.7-3.8c1.1-1.1,2.9-0.8,3.8,0.4
	c0.6,0.8,0.9,2.1,0.5,3.2C300.5,517.1,299,517.6,297.9,517.3z"/>
<path class="st11" d="M375.8,468.5c1.1-1.1,2.9-0.8,3.8,0.4c0.6,0.8,0.9,2.1,0.5,3.2"/>
<path class="st9" d="M403.9,475.8c-0.7-0.1-2.7-0.8-3.7-3c-1.1-2.4-0.5-5.7,1.3-7.5c2.2-2.2,5.7-1.6,7.5,0.8c1.2,1.6,1.8,4.1,1,6.3
	C409,475.3,406.1,476.3,403.9,475.8z"/>
<path class="st10" d="M247.8,523.5c-0.7-0.1-2.7-0.8-3.7-3c-1.1-2.4-0.5-5.7,1.3-7.5c2.2-2.2,5.7-1.6,7.5,0.8c1.2,1.6,1.8,4.1,1,6.3
	C252.9,523.1,250,524,247.8,523.5z"/>
<path class="st9" d="M339.8,459.9c-0.6,0.1-2.5,0.6-3.4,2.3c-1,1.9-0.4,4.5,1.2,5.9c2.1,1.7,5.3,1.3,7-0.6c1.1-1.2,1.7-3.2,0.9-5
	C344.5,460.2,341.8,459.5,339.8,459.9z"/>
<path class="st9" d="M338.3,488.3c-0.7,0.1-2.7,0.6-3.7,2.5c-1.1,2.1-0.5,4.8,1.3,6.4c2.2,1.9,5.7,1.4,7.5-0.7
	c1.2-1.3,1.8-3.5,1-5.4C343.5,488.7,340.5,487.9,338.3,488.3z"/>
<path class="st10" d="M353.4,458.9c-0.7,0.1-2.7,0.6-3.7,2.5c-1.1,2.1-0.5,4.8,1.3,6.4c2.2,1.9,5.7,1.4,7.5-0.7
	c1.2-1.3,1.8-3.5,1-5.4C358.6,459.3,355.6,458.5,353.4,458.9z"/>
<path class="st11" d="M355.6,478.7c-0.5,0.1-1.8,0.4-2.5,1.7c-0.7,1.4-0.3,3.2,0.9,4.3c1.5,1.3,3.8,0.9,5-0.4
	c0.8-0.9,1.2-2.3,0.7-3.6C359,478.9,357,478.4,355.6,478.7z"/>
<path class="st9" d="M358,501.3c-0.5-0.1-2.2-0.6-3-2.4c-0.9-2-0.4-4.6,1.1-6.1c1.8-1.8,4.6-1.3,6.1,0.6c1,1.3,1.5,3.3,0.8,5.1
	C362.2,501,359.8,501.7,358,501.3z"/>
<path class="st9" d="M369,461.7c-0.7-0.1-2.7-0.8-3.7-3c-1.1-2.4-0.5-5.7,1.3-7.5c2.2-2.2,5.7-1.6,7.5,0.8c1.2,1.6,1.8,4.1,1,6.3
	C374.1,461.3,371.2,462.2,369,461.7z"/>
<path class="st11" d="M364.4,477.5c-0.2,0-0.8-0.2-1.1-0.9c-0.3-0.8-0.1-1.8,0.4-2.3c0.7-0.7,1.8-0.5,2.4,0.2c0.4,0.5,0.6,1.3,0.3,2
	C366,477.3,365.1,477.6,364.4,477.5z"/>
<path class="st11" d="M350.5,476.7c-0.2,0-0.8-0.2-1.1-0.9c-0.3-0.8-0.1-1.8,0.4-2.3c0.7-0.7,1.8-0.5,2.4,0.2c0.4,0.5,0.6,1.3,0.3,2
	C352.1,476.6,351.2,476.8,350.5,476.7z"/>
<path class="st11" d="M370.3,473.6c-0.2,0-0.8-0.2-1.1-0.9c-0.3-0.8-0.1-1.8,0.4-2.3c0.7-0.7,1.8-0.5,2.4,0.2c0.4,0.5,0.6,1.3,0.3,2
	C372,473.5,371,473.8,370.3,473.6z"/>
<path class="st10" d="M235.3,475.5c-0.7-0.1-2.7-0.8-3.7-3c-1.1-2.4-0.5-5.7,1.3-7.5c2.2-2.2,5.7-1.6,7.5,0.8c1.2,1.6,1.8,4.1,1,6.3
	C240.5,475,237.5,475.9,235.3,475.5z"/>
<path class="st9" d="M322.7,448.2c-0.7-0.1-2.7-0.8-3.7-3c-1.1-2.4-0.5-5.7,1.3-7.5c2.2-2.2,5.7-1.6,7.5,0.8c1.2,1.6,1.8,4.1,1,6.3
	C327.9,447.8,324.9,448.7,322.7,448.2z"/>
<path class="st11" d="M327.1,477.6c1.1-1.1,2.9-0.8,3.8,0.4c0.6,0.8,0.9,2.1,0.5,3.2"/>
<path class="st10" d="M325.9,461.1c-0.7-0.1-2.7-0.8-3.7-3c-1.1-2.4-0.5-5.7,1.3-7.5c2.2-2.2,5.7-1.6,7.5,0.8c1.2,1.6,1.8,4.1,1,6.3
	C331,460.7,328.1,461.6,325.9,461.1z"/>
<path class="st9" d="M255,496.1c-0.7-0.1-2.7-0.8-3.7-3c-1.1-2.4-0.5-5.7,1.3-7.5c2.2-2.2,5.7-1.6,7.5,0.8c1.2,1.6,1.8,4.1,1,6.3
	C260.1,495.7,257.1,496.6,255,496.1z"/>
<path class="st6" d="M438.8,538.1"/>
<path class="st10" d="M323.8,519.3c-0.6,0.1-2.5,0.6-3.4,2.3c-1,1.9-0.4,4.5,1.2,5.9c2.1,1.7,5.3,1.3,7-0.6c1.1-1.2,1.7-3.2,0.9-5
	C328.6,519.7,325.8,519,323.8,519.3z"/>
<path class="st9" d="M384.4,517.5c-0.7,0.1-2.7,0.6-3.7,2.5c-1.1,2.1-0.5,4.8,1.3,6.4c2.2,1.9,5.7,1.4,7.5-0.7
	c1.2-1.3,1.8-3.5,1-5.4C389.6,517.9,386.6,517.1,384.4,517.5z"/>
<path class="st9" d="M346.8,517.8c-0.7,0.1-2.7,0.6-3.7,2.5c-1.1,2.1-0.5,4.8,1.3,6.4c2.2,1.9,5.7,1.4,7.5-0.7
	c1.2-1.3,1.8-3.5,1-5.4C351.9,518.1,348.9,517.4,346.8,517.8z"/>
<path class="st11" d="M298.8,517.2c-0.5,0.1-1.8,0.4-2.5,1.7c-0.7,1.4-0.3,3.2,0.9,4.3c1.5,1.3,3.8,0.9,5-0.4
	c0.8-0.9,1.2-2.3,0.7-3.6C302.3,517.5,300.3,517,298.8,517.2z"/>
<path class="st9" d="M280.3,522.4c-0.5-0.1-2.2-0.6-3-2.4c-0.9-2-0.4-4.6,1.1-6.1c1.8-1.8,4.6-1.3,6.1,0.6c1,1.3,1.5,3.3,0.8,5.1
	C284.4,522.1,282,522.8,280.3,522.4z"/>
<path class="st9" d="M426.7,486.8c-0.7-0.1-2.7-0.8-3.7-3c-1.1-2.4-0.5-5.7,1.3-7.5c2.2-2.2,5.7-1.6,7.5,0.8c1.2,1.6,1.8,4.1,1,6.3
	C431.9,486.3,428.9,487.2,426.7,486.8z"/>
<path class="st11" d="M384,510.8c-0.2,0-0.8-0.2-1.1-0.9c-0.3-0.8-0.1-1.8,0.4-2.3c0.7-0.7,1.8-0.5,2.4,0.2c0.4,0.5,0.6,1.3,0.3,2
	C385.6,510.6,384.7,510.9,384,510.8z"/>
<path class="st11" d="M254.6,522.4c-0.2,0-0.8-0.2-1.1-0.9c-0.3-0.8-0.1-1.8,0.4-2.3c0.7-0.7,1.8-0.5,2.4,0.2c0.4,0.5,0.6,1.3,0.3,2
	C256.3,522.3,255.3,522.6,254.6,522.4z"/>
<path class="st11" d="M237.3,500c-0.2,0-0.8-0.2-1.1-0.9c-0.3-0.8-0.1-1.8,0.4-2.3c0.7-0.7,1.8-0.5,2.4,0.2c0.4,0.5,0.6,1.3,0.3,2
	C238.9,499.9,238,500.1,237.3,500z"/>
<path class="st11" d="M290.3,518.4c-0.3-0.1-1.3-0.4-1.8-1.5c-0.6-1.2-0.2-2.9,0.7-3.8c1.1-1.1,2.9-0.8,3.8,0.4
	c0.6,0.8,0.9,2.1,0.5,3.2C292.8,518.2,291.3,518.7,290.3,518.4z"/>
<path class="st9" d="M356.3,457c-0.7-0.1-2.7-0.8-3.7-3c-1.1-2.4-0.5-5.7,1.3-7.5c2.2-2.2,5.7-1.6,7.5,0.8c1.2,1.6,1.8,4.1,1,6.3
	C361.5,456.6,358.5,457.5,356.3,457z"/>
<path class="st11" d="M415.9,477c-0.3-0.1-1.3-0.4-1.8-1.5c-0.6-1.2-0.2-2.9,0.7-3.8c1.1-1.1,2.9-0.8,3.8,0.4
	c0.6,0.8,0.9,2.1,0.5,3.2C418.5,476.8,417,477.2,415.9,477z"/>
<path class="st11" d="M263.5,524.2c1.1-1.1,2.9-0.8,3.8,0.4c0.6,0.8,0.9,2.1,0.5,3.2"/>
<path class="st6" d="M465.5,535.6"/>
<path class="st5" d="M519.9,514.4"/>
<path class="st9" d="M378.3,491.1c-0.6,0.1-2.5,0.6-3.4,2.3c-1,1.9-0.4,4.5,1.2,5.9c2.1,1.7,5.3,1.3,7-0.6c1.1-1.2,1.7-3.2,0.9-5
	C383,491.4,380.3,490.7,378.3,491.1z"/>
<path class="st10" d="M361.4,517.2c-0.6,0.1-2.5,0.6-3.4,2.3c-1,1.9-0.4,4.5,1.2,5.9c2.1,1.7,5.3,1.3,7-0.6c1.1-1.2,1.7-3.2,0.9-5
	C366.2,517.5,363.4,516.8,361.4,517.2z"/>
<path class="st9" d="M317.9,510.5c-0.7,0.1-2.7,0.6-3.7,2.5c-1.1,2.1-0.5,4.8,1.3,6.4c2.2,1.9,5.7,1.4,7.5-0.7
	c1.2-1.3,1.8-3.5,1-5.4C323,510.9,320,510.1,317.9,510.5z"/>
<path class="st11" d="M373.1,522.2c-0.5,0.1-1.8,0.4-2.5,1.7c-0.7,1.4-0.3,3.2,0.9,4.3c1.5,1.3,3.8,0.9,5-0.4
	c0.8-0.9,1.2-2.3,0.7-3.6C376.5,522.5,374.5,522,373.1,522.2z"/>
<path class="st9" d="M493.4,528.4c-0.5-0.1-2.2-0.6-3-2.4c-0.9-2-0.4-4.6,1.1-6.1c1.8-1.8,4.6-1.3,6.1,0.6c1,1.3,1.5,3.3,0.8,5.1
	C497.5,528,495.1,528.8,493.4,528.4z"/>
<path class="st11" d="M311.2,521.5c-0.2,0-0.8-0.2-1.1-0.9c-0.3-0.8-0.1-1.8,0.4-2.3c0.7-0.7,1.8-0.5,2.4,0.2c0.4,0.5,0.6,1.3,0.3,2
	C312.8,521.4,311.8,521.6,311.2,521.5z"/>
<path class="st11" d="M385.2,473.8c-0.2,0-0.8-0.2-1.1-0.9c-0.3-0.8-0.1-1.8,0.4-2.3c0.7-0.7,1.8-0.5,2.4,0.2c0.4,0.5,0.6,1.3,0.3,2
	C386.8,473.6,385.9,473.9,385.2,473.8z"/>
<path class="st11" d="M388.9,514.7c-0.2,0-0.8-0.2-1.1-0.9c-0.3-0.8-0.1-1.8,0.4-2.3c0.7-0.7,1.8-0.5,2.4,0.2c0.4,0.5,0.6,1.3,0.3,2
	C390.5,514.5,389.5,514.8,388.9,514.7z"/>
<path class="st11" d="M385,466.9c-0.3-0.1-1.3-0.4-1.8-1.5c-0.6-1.2-0.2-2.9,0.7-3.8c1.1-1.1,2.9-0.8,3.8,0.4
	c0.6,0.8,0.9,2.1,0.5,3.2C387.6,466.6,386.1,467.1,385,466.9z"/>
<path class="st11" d="M487.9,515.3c-0.3-0.1-1.3-0.4-1.8-1.5c-0.6-1.2-0.2-2.9,0.7-3.8c1.1-1.1,2.9-0.8,3.8,0.4
	c0.6,0.8,0.9,2.1,0.5,3.2C490.5,515.1,489,515.5,487.9,515.3z"/>
<path class="st11" d="M503.6,524.2c1.1-1.1,2.9-0.8,3.8,0.4c0.6,0.8,0.9,2.1,0.5,3.2"/>
<path class="st9" d="M478.5,531.5c-0.7-0.1-2.7-0.8-3.7-3c-1.1-2.4-0.5-5.7,1.3-7.5c2.2-2.2,5.7-1.6,7.5,0.8c1.2,1.6,1.8,4.1,1,6.3
	C483.6,531.1,480.7,532,478.5,531.5z"/>
<g>
	<path class="st5" d="M468,510.2"/>
	<g>
		<path class="st13" d="M468,512.7c3.2,0,3.2-5,0-5C464.8,507.7,464.7,512.7,468,512.7L468,512.7z"/>
	</g>
</g>
<g>
	<path class="st7" d="M432.6,483"/>
	<g>
		<path class="st13" d="M432.6,485.5c3.2,0,3.2-5,0-5C429.4,480.5,429.4,485.5,432.6,485.5L432.6,485.5z"/>
	</g>
</g>
<g>
	<path class="st14" d="M482.1,521.9c-0.2,0.8,0.7,1.3,2.1,3.2c0.7,1,2.6,3.6,1.9,4.7c-0.5,0.8-2.4,0.6-3,0.5
		c-8.4-1-16.9-0.4-25.4-0.8c-0.3,0,0,0-11.4,0.2c-9.8,0.1-19.6,0-29.4,0.3c-1.8,0.1-4.6,0.5-8.2-0.2c0,0-1.1-0.2-2.2-0.6
		c-2.8-0.9-7.6-2.8-10.7-7.4c0,0-5.3-6.6-5.4-16.9c0-0.1,0-0.6,0-1.1c0-2.9,0-4.4,0.2-5.5c0.2-1.2,0.3-2,0.6-3
		c0.5-1.5,1.1-1.8,0.9-2.5c-0.3-1.3-2-1.6-3.3-2.4c-3-1.9-4.1-6.7-3.6-10.1c0.7-5.5,5.4-9.3,9.9-10.4c5.5-1.4,9.9,1.5,10.6,1.9
		c0.9,0.6,3.3,2.2,4.7,5.5c0,0,1.6,3.8,0.6,7.7c-0.1,0.4-0.2,0.7-0.2,0.7c-0.3,0.8-0.6,1.4-0.7,1.5c-0.5,0.9,0,2,0.5,4.1
		c0.8,3.2,0.3,3.2,0.8,3.9c1.1,1.5,3.1,1.8,5.4,2.1c1.2,0.1,2,0.3,3,0c2-0.6,3-2.5,3.6-3.6c1.6-2.8,3.8-5.2,5.4-8
		c4.1-7.3,13.8-9.3,15.5-9.6c2.5-0.5,9.1-1.8,16.1,1.9c5.6,3,9.8,8.6,10.1,10.9c0,0.2,0.1,1.1,0.8,1.7c0.8,0.8,1.9,0.7,2.7,0.8
		c3.4,0.4,7.1,5.2,6.8,8.8c-0.1,0.9-0.4,1.5,0,2.4c0.5,1.3,1.9,1.7,3,2.4c3.1,2,3.7,6.2,3.8,6.8c0.4,2.6-0.1,6.8-2.7,8.5
		C483.6,521,482.3,521,482.1,521.9z"/>
	<g>
		<path class="st15" d="M479.6,521.9c0.2,1.7,0.9,2.4,1.9,3.8c0.4,0.5,1.4,2.8,2.2,2.2c-0.5,0.4-3.9-0.4-4.6-0.4
			c-7.2-0.5-14.4-0.3-21.6-0.4c-8.7-0.1-17.3,0.2-26,0.2c-6.5,0-13.1,0.7-19.6,0.4c-5.7-0.3-11.6-3.6-14.3-7.4
			c-2.1-2.9-3.5-6.3-4.2-9.8c-0.6-2.8-0.6-5.5-0.6-8.3c0-1.1-0.1-2.2,0.1-3.2c0.2-1.7,1.3-3.3,1.5-4.9c0.6-4.6-4-4.3-5.9-7.6
			c-4.7-8.2,5.1-16.4,13-13.9c3.4,1.1,6.2,3.7,7,7.2c0.7,2.8-0.3,4.4-0.9,6.8c-0.6,2.4,0.3,4.4,0.7,6.8c0.5,2.7,1,4.4,4,5.6
			c4.4,1.8,9.1,1.4,12.1-2.4c3.3-4.1,5.2-9.6,9.2-13.1c3.1-2.7,7.2-4.2,11.2-5c7.3-1.5,14.5,0.4,19.8,5.9c2,2.1,2.6,4,3.8,6.4
			c1.1,2.2,2.5,2.3,4.6,3c3.9,1.3,4.6,3.7,5,7.6c0.3,2.5,1.2,3.7,3.2,5.1c2.6,1.8,4,4.2,3.8,7.5c-0.2,3.9-3.1,4.2-5.1,6.8
			c-2,2.5,2.4,5,4.3,2.5c0.5-0.6,2-1,2.7-1.6c0.9-0.8,1.5-1.8,2-2.9c1.1-2.4,1.3-5.1,0.9-7.7c-0.3-2-1-4-2.2-5.6
			c-0.7-1-1.6-1.7-2.5-2.5c-2-1.8-1.6-1.5-2-3.9c-0.4-2.4-1.2-4.4-2.7-6.3c-1.9-2.3-3.8-2.7-6.2-3.9c-2-1-2.5-3.6-3.9-5.5
			c-1.9-2.5-4.2-4.7-6.7-6.4c-8.8-5.9-21.1-5-30,0.4c-5.7,3.5-8.8,9.6-12.4,15c-1.5,2.2-2.3,2.7-5.1,2.3c-1.3-0.2-2-0.2-2.6-1.1
			c-1.3-2.1-0.7-5.3-0.2-7.4c2.4-9.8-4.9-19.1-15.1-19.2c-11.5-0.1-21.3,14.5-12.6,24c0.8,0.9,1.8,1.5,2.9,2.1
			c1.4,0.8,1.2-0.7,0.3,1.3c-1.1,2.6-1,5.9-1,8.7c0,5.7,0.9,11.2,3.5,16.4c4.8,9.5,14.2,13.6,24.5,13.2c13.8-0.7,27.8-0.6,41.7-0.5
			c4.9,0,9.8,0.1,14.7,0.2c4,0.1,9,1.4,12.9,0.6c2-0.4,3.5-1.6,3.4-3.8c0-1.4-0.8-2.8-1.5-3.9c-0.4-0.7-2.5-2.6-2.6-3.2
			C484.3,518.8,479.3,518.7,479.6,521.9z"/>
	</g>
</g>
<g>
	<path class="st16" d="M468.5,483.3c-1.8-1.7-6.8-6.2-14.5-7.2c-8.9-1.2-19.6,2.5-25.4,11.8c-0.4,0.6-7.7,12.8-1.4,24.9
		c5.4,10.4,16.3,12.4,18.4,12.9c2.3,0.4,11.8,1.9,20.6-4.3c1.2-0.8,11.9-8.7,11.2-21.3C476.9,491.1,470.7,485.3,468.5,483.3z"/>
	<g>
		<path class="st15" d="M470.2,481.5c-9.3-8.5-22.6-10.7-33.8-4.4c-10.6,5.9-16.2,18.8-13.7,30.6c5,23.5,37,27,50.9,10
			C483.1,506.2,480.9,491.4,470.2,481.5c-2.4-2.2-5.9,1.3-3.5,3.5c10,9.3,10.6,22.7,0.5,32.3c-7,6.6-17.4,7.9-26.2,4.5
			c-13.2-5.1-17.5-20.7-10.4-32.6c7.7-12.9,25.5-13.8,36-4.2C469.1,487.2,472.6,483.7,470.2,481.5z"/>
	</g>
</g>
<g>
	<path class="st16" d="M483,498.8c-0.7-2.1-2-5.8-5.7-8.4c-4-2.8-8.3-2.6-9.8-2.5c-5.5,0.3-12.3,3.6-15.3,10.5
		c-2.4,5.6-1.9,12.7,2.6,17.9c6.3,7.2,15.9,5.4,16.5,5.3c1.7-0.4,7.1-1.8,10.2-6.6c1.8-2.7,2.1-5.4,2.3-7
		C484.5,503.5,483.4,500,483,498.8z"/>
	<g>
		<path class="st15" d="M485.4,498.2c-3.7-10.5-13.8-15.4-24.3-11.3c-10.8,4.2-16.1,17.1-10.6,27.5c4.2,7.9,13.8,11.6,22.4,9.4
			C484.3,520.8,488.9,508.8,485.4,498.2c-1-3-5.8-1.7-4.8,1.3c2.5,7.9-0.1,17-8.7,19.4c-5.1,1.4-11.1,0.1-14.8-3.7
			c-6.7-7-4.1-18.5,4.2-22.9c7.7-4,16.3-1.1,19.3,7.2C481.7,502.5,486.5,501.2,485.4,498.2z"/>
	</g>
</g>
<g>
	<path class="st16" d="M486.4,501c-0.5-0.3-4.8-2.3-8.8-0.2c-4.6,2.4-7,9.2-3.9,14.1c3.4,5.3,11.4,5.4,15.5,1.6
		c2.3-2.2,3.6-5.8,2.7-9.3C490.7,503.1,487.1,501.3,486.4,501z"/>
	<g>
		<path class="st15" d="M487.7,498.8c-6.2-2.9-13.3-1.2-16.5,5.1c-3.1,6.1-1,13.9,5.5,16.6c6.1,2.6,13.8,0.2,16.7-5.9
			C496.2,508.6,493.6,501.7,487.7,498.8c-2.9-1.4-5.4,2.9-2.5,4.3c3,1.5,5.1,4.4,4.2,7.9c-1,4.3-5.7,6.3-9.8,5.2
			c-9.3-2.6-3.6-17.4,5.6-13.1C488.1,504.5,490.6,500.2,487.7,498.8z"/>
	</g>
</g>
<g>
	<line class="st14" x1="402.9" y1="448.9" x2="399.8" y2="466.6"/>
	<g>
		<path class="st15" d="M400.5,448.2c-1,5.9-2.1,11.8-3.1,17.7c-0.5,3.1,4.3,4.5,4.8,1.3c1-5.9,2.1-11.8,3.1-17.7
			C405.9,446.4,401,445.1,400.5,448.2L400.5,448.2z"/>
	</g>
</g>
<g>
	<line class="st14" x1="381.3" y1="457.7" x2="388.9" y2="471"/>
	<g>
		<path class="st15" d="M379.1,458.9c2.6,4.4,5.1,8.9,7.7,13.3c1.6,2.8,5.9,0.3,4.3-2.5c-2.6-4.4-5.1-8.9-7.7-13.3
			C381.8,453.6,377.5,456.2,379.1,458.9L379.1,458.9z"/>
	</g>
</g>
</svg>
