<?xml version="1.0" encoding="utf-8"?>
<!-- Generator: Adobe Illustrator 22.1.0, SVG Export Plug-In . SVG Version: 6.00 Build 0)  -->
<svg version="1.1" id="Calque_1" xmlns="http://www.w3.org/2000/svg" xmlns:xlink="http://www.w3.org/1999/xlink" x="0px" y="0px"
	 viewBox="0 0 595.3 841.9" style="enable-background:new 0 0 595.3 841.9;" xml:space="preserve">
<style type="text/css">
	.st0{fill:#FFFFFF;stroke:#000000;stroke-miterlimit:10;}
	.st1{fill:#F4961F;}
	.st2{fill:#34672C;}
	.st3{fill:none;stroke:#000000;stroke-miterlimit:10;}
	.st4{fill:#EACF06;}
	.st5{fill:#34672C;stroke:#4A2E13;stroke-miterlimit:10;}
	.st6{fill:#223C1D;stroke:#000000;stroke-miterlimit:10;}
	.st7{fill:#2DAA57;}
	.st8{fill:#235627;}
	.st9{fill:#E73C2B;}
	.st10{fill:#E73E2A;}
	.st11{fill:#D68B31;}
	.st12{fill:#27140E;}
	.st13{fill:none;stroke:#27140E;stroke-miterlimit:10;}
	.st14{fill:#A15B29;}
	.st15{fill:#D68B31;stroke:#27140E;stroke-miterlimit:10;}
</style>
<path class="st0" d="M195.9,375.5"/>
<path class="st1" d="M222,503.8c13.1,0.1,13.1,0.3,32.8,0.5c24,0.3,24.5,0,39,0.3c36.1,0.5,60.7,2.5,61,0c0.1-0.5-1-0.8-4.3-3
	c-5.1-3.5-8.1-6.7-9.8-8.3c-5.1-4.8-26.9-21.9-53.8-35c-17.6-8.6-26.4-12.8-37.5-14.3c-30.8-3.9-59.5,16.3-64,19.3
	c-1.7,1.1-6.8,4.6-14.8,9.8c-6.2,4-10,6.3-18.3,11.5c-23.8,14.9-29.1,18.4-28.5,19.8c0.3,0.6,1.6,0.5,5.5,0.3
	c5.8-0.3,11.7,0,17.5-0.5c7.1-0.6,10.2-0.1,30.5,0C200.4,504.2,199.1,503.7,222,503.8z"/>
<path class="st2" d="M407.6,444.9c0.3,0.8,0.4,2.3-3.7,7.5c-4.5,5.7-8.5,10.7-13.6,10.4c-2.3-0.1-3.9-1.3-4.4-1.6
	c-3.4-2.3-9.9-3.5-101.5-37.5c-121.3-44.9-132.7-51.3-141.7-53c-8.4-1.6-14-4.2-25.3-9.3c-0.5-0.2-1.2-0.5-1.8-1.1
	c-6.5-5.6-1-23-1-23l0,0c0,0,4.5,0.6,5.8,0.8c5.1,0.8,9.1,2.9,10.6,3.7c14.5,7.2,30.5,10.8,45.7,16.4c36.6,13.5,81.7,30.2,82,30.3
	c43.4,16,65,24,70.3,25.9c16.5,5.9,32.4,13.7,49.4,18.2c8.1,2.2,15.2,7.4,23.3,9.1C403.3,442,406.8,442.6,407.6,444.9z"/>
<path class="st3" d="M28.3,567.2"/>
<path class="st2" d="M91,540.4c3.8,2,3.4,5,9.5,11.3c1.9,1.9,3.5,3.2,5.2,4.7c4.2,3.5,8,5.8,10.6,7.3c3.7,2.3,10.9,6.6,17.5,8.3
	c9.2,2.3,10.1,2.5,10.3,2.3c0.2-0.4,1.6-0.2,2.5,0.5c0.8,0.7,0.6,1.7,1,3.5c0.3,1.3,0.6,1.8,1.4,3.6c2.2,5.2,1.8,6.8,3.8,10.9
	c1.1,2.1,1.6,3.1,2.5,4c4.1,3.9,10.8,2.8,12.8,2.5c20.2-2.8,157.5-0.1,159-0.3c1.2-0.6,2.9-1.5,4.5-3.3c3.6-3.9,4.3-9.1,4.8-12.3
	c0.7-5-0.2-7.1,1.5-8.8c1.9-1.9,5.2-1.4,6.3-1.3c0,0,10.1,1.1,46-32c1.5-0.3,4-0.8,7.3-1.3c0,0,7.1-0.9,25.5-0.3
	c0.3-1.9,0.4-4.3,0.3-7.3c-0.1-1.1-0.3-3.4-1.3-7.3c-1.9-7.8-2.9-11.7-5.8-13c-1.2-0.6-1.8-0.3-6.8,0c-3.1,0.2-6.2,0.3-9.3,0.3
	c-161.7,0-308.9-0.5-301.4-0.6c1.8,0-26.9-1.3-31.6,1.1c0,0-5.4,2.7-11.3,27c2.2,0,5.7,0.1,10,0c4.3-0.1,8.5-0.2,14.8-0.3
	C89.6,539.8,90.2,540,91,540.4z"/>
<path class="st4" d="M86.3,540.4c41.7,3.7,86.4,6.1,133.7,6.6c62.1,0.6,119.8-2.1,172.5-6.8"/>
<path class="st4" d="M142.5,573.8c29.3,2.4,60.8,4,94.5,4.2c35.4,0.2,68.6-1.3,99.3-3.7"/>
<path class="st3" d="M-156.3,181.3"/>
<path class="st3" d="M-23.7,83.3"/>
<path class="st3" d="M60.5,276.5"/>
<path class="st3" d="M249,153"/>
<path class="st3" d="M333,130.5"/>
<line class="st3" x1="266.2" y1="80.4" x2="266.2" y2="80.4"/>
<path class="st3" d="M234,25"/>
<path class="st3" d="M319.9,173.1"/>
<path class="st3" d="M303,179"/>
<path class="st5" d="M297.4,183.1c0.3,6.7,3,18.7,2.6,22.6c-0.4,4.2-0.9,6.5-2,9c0,0-1.7,4-5,7.5c-40.5,42.8-92,68.5-92,68.5
	c-27.7,15.5-45.3,22.7-56.7,26.5c0,0-20.1,6.6-18.8,11.2c0.1,0.5,1.3,2.5,1.3,2.5c0,0,0.7,0.3,1.8,0.7c8.2,3.3,26.9,10.8,27.5,11
	c17.5,7,55,19.9,94.5,33.7c20,7,30,10.5,36,12.8c22.2,8.2,30.5,11.8,72.5,28c31.8,12.2,27.3,10.2,29,11c12.9,5.7,16.5,8.3,18.3,6.8
	c4.5-3.7-11.3-23.5-26.1-61.5c-1.4-3.5-2.3-6.1-2.6-7.1c-4.2-11.7-8.9-26.8-15.7-59.9c-3.3-16.2-5.6-28.9-5.6-28.9
	c0,0,4.8,26.5,5,26.4c0.2,0-1.3-11.9-5-26.4c-1-4-1-3.6-1.9-7.3c-2.3-9.2-4.2-16.7-4-25c0.1-4.8,0.2-9.6,2.3-14.7
	c5-12.5,17.6-18.1,22.5-20"/>
<path class="st3" d="M341.2,420.9"/>
<path class="st3" d="M55.7,436.3"/>
<path class="st4" d="M300.6,206.1c5.2,4.2,12.8,9.4,22.8,13.5c12.8,5.2,24.3,6.5,31.8,6.7"/>
<path class="st4" d="M295.8,218.9c5.3,4.1,13.6,9.6,24.6,13.8c12.3,4.7,23.1,6,30.2,6.3"/>
<path class="st4" d="M186.1,298.8c22.5,14.8,53.4,32,92.4,45.7c38.3,13.5,72.7,19.3,99.2,21.9"/>
<path class="st6" d="M460.8,703.9"/>
<path class="st4" d="M223.7,275.7c16.4,9.5,35.5,19.2,57.3,28c32.2,13.1,62,20.8,87,25.6"/>
<path class="st3" d="M320.9,366.1"/>
<path class="st3" d="M304,372"/>
<path class="st3" d="M482.5,424.5"/>
<line class="st3" x1="264.5" y1="189.1" x2="266.2" y2="189.1"/>
<path class="st4" d="M297.6,179c-0.1-0.2-0.1-0.6,1-2.1c1.2-1.6,2.3-3,3.7-2.9c0.6,0,1.1,0.3,1.2,0.4c0.9,0.6,2.7,0.9,28.1,9.8
	c33.5,11.7,36.7,13.4,39.2,13.8c2.3,0.4,3.9,1.1,7,2.4c0.1,0.1,0.3,0.1,0.5,0.3c1.8,1.5,0.4,6.3,0.4,6.3l0,0c0,0-1.2-0.1-1.6-0.2
	c-1.4-0.2-2.5-0.8-2.9-1c-4-1.9-8.4-2.8-12.6-4.3c-10.1-3.5-22.6-7.9-22.7-7.9c-12-4.2-18-6.3-19.4-6.8c-4.6-1.5-9-3.6-13.6-4.8
	c-2.2-0.6-4.2-1.9-6.5-2.4C298.9,179.8,297.9,179.6,297.6,179z"/>
<path class="st2" d="M336.5,181.7c4.4,1.5,4.4,1.6,11.1,3.9c8.1,2.8,8.3,2.8,13.2,4.5c12.2,4.3,20.4,7.5,20.7,7
	c0.1-0.1-0.3-0.3-1.2-1.1c-1.5-1.3-2.3-2.3-2.7-2.8c-1.4-1.6-7.6-7.6-15.8-13.4c-5.4-3.8-8.1-5.7-11.7-7.3
	c-10.2-4.4-21.4-3.5-23.1-3.4c-0.6,0-2.6,0.2-5.7,0.3c-2.4,0.1-3.8,0.2-7,0.3c-9.1,0.3-11.2,0.5-11.1,0.8c0,0.2,0.5,0.3,1.9,0.7
	c2,0.6,4,1.3,6,1.9c2.4,0.7,3.5,1.1,10.4,3.5C329.1,179.3,328.7,179,336.5,181.7z"/>
<path class="st7" d="M398,583.3"/>
<path class="st8" d="M448.5,529.1"/>
<path class="st8" d="M549.1,504.8"/>
<path class="st8" d="M516.2,488.7"/>
<path class="st8" d="M439.1,528.4"/>
<path class="st8" d="M454.8,489.8"/>
<path class="st8" d="M444.5,478"/>
<path class="st8" d="M450.3,518.3"/>
<path class="st8" d="M444.5,467.3"/>
<path class="st8" d="M448.5,486.3"/>
<path class="st7" d="M555.2,473.5"/>
<path class="st9" d="M431.9,528.4c0.9,0.1,1.8,0.2,2.7,0.3"/>
<path class="st10" d="M5.2,709.9"/>
<path class="st10" d="M334.9,534.9"/>
<path class="st10" d="M140.1,587.6"/>
<g>
	<path class="st11" d="M423.2,604.3c-0.3,1.5,1.3,2.4,3.7,5.6c1.2,1.7,4.6,6.5,3.4,8.5c-0.9,1.5-4.2,1-5.4,0.8
		c-15-1.8-30.2-0.8-45.4-1.4c-0.5,0,0,0-20.3,0.3c-17.5,0.2-34.9,0-52.4,0.6c-3.3,0.1-8.2,0.9-14.7-0.4c0,0-2-0.4-3.9-1
		c-5-1.5-13.7-5-19.2-13.2c0,0-9.5-11.8-9.6-30.1c0-0.2,0-1.1,0-2c0-5.2,0-7.9,0.3-9.9c0.3-2.2,0.5-3.6,1.1-5.4c1-2.6,2-3.3,1.7-4.5
		c-0.6-2.3-3.6-2.8-5.9-4.2c-5.4-3.3-7.2-11.9-6.5-18c1.2-9.8,9.6-16.6,17.8-18.6c9.8-2.4,17.7,2.6,18.9,3.4c1.5,1,5.9,4,8.5,9.9
		c0,0,2.9,6.8,1.1,13.8c-0.2,0.7-0.4,1.3-0.4,1.3c-0.5,1.5-1.1,2.4-1.3,2.7c-0.9,1.6-0.1,3.5,0.8,7.3c1.3,5.8,0.5,5.7,1.4,7
		c1.9,2.7,5.6,3.2,9.6,3.7c2.1,0.3,3.6,0.6,5.4,0c3.5-1.1,5.3-4.4,6.5-6.5c2.8-5,6.8-9.3,9.6-14.4c7.3-13.1,24.6-16.6,27.6-17.2
		c4.4-0.9,16.3-3.2,28.7,3.4c10,5.3,17.4,15.4,18,19.4c0.1,0.4,0.2,1.9,1.4,3.1c1.4,1.4,3.4,1.2,4.8,1.4c6.1,0.7,12.6,9.4,12.1,15.8
		c-0.1,1.5-0.6,2.7,0,4.2c0.9,2.4,3.3,3,5.4,4.2c5.5,3.5,6.6,11.1,6.8,12.1c0.7,4.7-0.2,12.1-4.8,15.2
		C425.8,602.7,423.6,602.7,423.2,604.3z"/>
	<g>
		<path class="st12" d="M417.2,604.3c-0.1,4.3,3.4,6.9,5.5,10.2c0.4,0.5,0.8,1.7,1.3,2c0.1,0.2,0.3,0.5,0.4,0.7
			c4.1-2.8,4.8-4.1,2.2-3.9c-2-1.2-6.9-0.7-9.2-0.9c-12.6-0.8-25.3-0.6-37.9-0.7c-15.2-0.1-30.3,0.4-45.5,0.4
			c-6.5,0-12.9,0.1-19.4,0.2c-5.6,0.1-11.4,0.9-17,0.5c-9.6-0.6-18.6-5.3-24.2-13.2c1.6,2.2-1.2-2-1.7-2.7c-2-3.4-3.4-7.1-4.5-10.9
			c-1.3-4.7-1.7-9.3-1.7-14.2c0-4.7-0.3-9.6,1.4-14.1c1.7-4.4,2.7-8.1-1.4-11.7c-1.7-1.6-4.1-2-5.9-3.4c-1.8-1.4-2.6-3.5-3.1-5.6
			c-2.3-9.3,3.8-17.9,13-20c7.4-1.7,16.4,1.9,19.8,9c1.5,3.2,2.2,7.3,1.2,10.7c-0.4,1.4-1.2,2.6-1.7,4c-0.9,2.5-0.5,4.7,0,7.2
			c0.6,3.2,0.9,8,2.4,10.9c2.2,4.3,6.9,6.2,11.4,6.9c5.1,0.8,10,1.5,14.5-1.5c4.3-2.8,6.3-7.8,9.1-11.8c5.7-8.3,10-16.5,19.5-20.9
			c4.9-2.3,10.5-3.8,15.9-4.3c12.3-1.2,24,4,31.6,13.8c2.5,3.2,2.8,7.1,5.1,10.1c3.5,4.6,9.3,2.8,13,6.8c1.5,1.6,2.8,3.6,3.1,5.8
			c0.4,2.8-0.6,5.3,0.6,8.1c2,5.1,7.7,5.5,10.1,9.9c1.7,3.1,2,6,1.6,9.1c-0.3,2.3-0.9,4.2-2.7,5.6c-2.4,1.8-4.6,1.9-6.1,4.8
			c-3.6,6.8,6.7,12.9,10.4,6.1c-0.3,0.3-0.6,0.5-0.9,0.8c0.8-0.3,1.5-0.7,2.3-1c1.2-0.7,2.4-1.5,3.4-2.4c1.9-1.8,3.3-4.1,4.2-6.6
			c1.7-4.4,2-9.4,1.2-14c-0.7-3.9-2.1-7.6-4.5-10.8c-1.7-2.2-3.6-3.8-6-5.2c-0.3-0.2-0.7-0.4-1-0.5c-1.2-0.5-1.4-0.7-0.5-0.5
			c-0.2-0.9,0.2-2.9,0.1-3.9c-0.5-5.4-3.5-10.7-7.5-14.4c-1.9-1.8-4.2-3.4-6.8-4.3c-1-0.3-2.7-1-3.8-0.8c-0.4,0-0.8-0.1-1.1-0.1
			c0.8,1,1.1,1,0.7,0c-2.2-9.3-11.5-17.6-19.4-22.3c-15.9-9.3-37.5-7.3-53,2.3c-4.5,2.8-8.5,6.3-11.5,10.7c-3.7,5.4-7.6,11-11,16.6
			c-1.1,1.8-1.7,3.4-3.9,3.8c-1,0.2-7.4-1.7-7.6-1.5c0.4-0.4,0.4,3.4,0.7,1.4c0.1-1.1-0.3-2.4-0.4-3.4c-0.2-1-0.4-2.1-0.6-3.1
			c-0.1-0.5-0.8-5.2-1.1-3.1c0.3-2.2,1.9-4.4,2.3-6.7c0.6-3.2,0.5-6.4,0-9.6c-0.7-4.6-2.5-8.7-5.4-12.4
			c-5.4-6.9-13.9-11.1-22.7-11.5c-11.4-0.5-23.1,6.3-27.9,16.7c-4.4,9.3-3.2,23.1,4.9,30.1c1,0.9,2.2,1.6,3.4,2.3
			c0.4,0.2,0.8,0.4,1.2,0.6c1.9,1.3,2.2,0.3,0.7-3.1c-1.4,0.4-2.4,6.3-2.6,7.6c-0.8,4.9-0.8,10-0.7,14.9c0.2,10.4,2.8,20.9,8.2,29.9
			c4.2,7,10.1,12.9,17.6,16.4c10.4,4.9,20.3,4.7,31.5,4.4c22.9-0.6,45.9-0.9,68.7-0.7c15.4,0.1,30.8,0.3,46.2,1.5
			c5.5,0.4,11.2-2.3,10.9-8.6c-0.2-3-1.7-5.8-3.4-8.3c-0.6-1-1.3-1.9-2-2.8c-0.6-0.8-1.2-1.5-1.8-2.2c-1-1.4-1-1.1-0.1,0.9
			C429.5,596.6,417.5,596.6,417.2,604.3z"/>
	</g>
</g>
<line class="st13" x1="431.5" y1="491.2" x2="431.5" y2="491.2"/>
<g>
	<path class="st14" d="M398.9,535.3c-3.2-3-12.1-11-25.9-12.8c-15.9-2.1-35,4.5-45.3,21c-0.6,1-13.7,22.8-2.4,44.5
		c9.6,18.5,29.1,22.2,32.9,22.9c4.1,0.8,21.1,3.5,36.7-7.6c2.1-1.5,21.3-15.6,20-38C413.9,549.2,402.8,539,398.9,535.3z"/>
	<g>
		<path class="st12" d="M404.2,530c-18.1-16.7-44.6-20.5-66-7.3c-19.4,12-29.3,36.8-23.5,59c5.2,19.9,23.1,33.6,42.9,36.8
			c19.9,3.2,40-3.9,52.7-19.7c8.9-11,13.5-24.4,11.3-38.5C419.9,548.3,412.9,538.1,404.2,530c-7.1-6.6-17.7,4-10.6,10.6
			c5.4,5,10.1,10.6,12.3,17.7c2.9,9.3,1.1,18.7-4.1,26.8c-1.7,2.7-3.7,5.1-5.9,7.3c-1.1,1.1-2.2,2.1-3.4,3.2
			c-0.3,0.3-0.6,0.5-0.9,0.8c-1.3,1.1,1.3-0.9-0.2,0.1c-7.9,5.5-16.7,8.1-26.3,7.7c-0.8,0-1.6-0.1-2.4-0.2c-0.1,0-2.8-0.4-1.1-0.1
			c-0.7-0.1-1.5-0.2-2.2-0.4c-2.3-0.5-4.6-1.1-6.9-1.8c-7.4-2.5-14.3-7.2-18.6-13.7c-9.7-14.5-6.6-35.4,5.5-47.4
			c15.2-14.9,38.9-14.1,54.1,0C400.7,547.2,411.3,536.6,404.2,530z"/>
	</g>
</g>
<path class="st13" d="M474.3,484.7"/>
<g>
	<path class="st14" d="M424.9,563.1c-1.3-3.7-3.5-10.3-10.1-14.9c-7.1-5-14.7-4.7-17.5-4.5c-9.9,0.6-22,6.3-27.3,18.7
		c-4.3,9.9-3.5,22.6,4.6,31.9c11.2,12.9,28.3,9.6,29.5,9.4c3.1-0.6,12.6-3.2,18.2-11.8c3.1-4.8,3.8-9.6,4.2-12.5
		C427.5,571.4,425.6,565.2,424.9,563.1z"/>
	<g>
		<path class="st12" d="M432.1,561.1c-2.8-8.1-7-15.1-14.3-19.9c-6.5-4.2-14.6-5.7-22.2-4.9c-16.3,1.7-30.9,13.1-34.6,29.5
			c-4.1,18,4.9,36.6,22.3,43.3c9.9,3.8,21.1,3.4,30.7-0.9C431.8,600.3,438,578.9,432.1,561.1c-3-9.1-17.5-5.2-14.5,4
			c3.2,9.6,2.1,22.2-7.1,28c-2.7,1.7-5.6,2.7-8.7,3.4c-0.3,0.1-1.5,0.2-0.3,0.1c1.2-0.2-0.8,0.1-1.1,0.1c-1.9,0.1-3.8,0.1-5.7-0.1
			c-10.9-1.2-19.4-9.8-19.7-20.9c-0.3-10.8,6.6-20.3,17-23.4c11.5-3.4,21.8,1.3,25.8,12.8C420.8,574.2,435.3,570.3,432.1,561.1z"/>
	</g>
</g>
<g>
	<path class="st14" d="M430.9,566.9c-0.9-0.5-8.6-4.1-15.8-0.4c-8.2,4.2-12.6,16.4-7,25.2c6,9.4,20.4,9.6,27.6,2.8
		c4.1-3.8,6.5-10.4,4.8-16.6C438.6,570.6,432.2,567.5,430.9,566.9z"/>
	<g>
		<path class="st12" d="M434.7,560.4c-12.5-5.9-27.1-2.5-33.6,10.3c-6.4,12.6-1.9,28.4,11.5,34c12.1,5,27.4,0.4,33.3-11.7
			C451.8,580.8,446.8,566.4,434.7,560.4c-8.6-4.3-16.2,8.7-7.6,13c4.5,2.2,7.7,6.4,5.9,11.7c-1.8,5.6-8.4,7.8-13.8,6.1
			c-5.5-1.8-7.4-7.5-5.3-12.6c1.1-2.6,3-4.9,5.7-5.8c1.6-0.5,3.3-0.5,5-0.1c0.7,0.1,1.5,0.4,2.2,0.6c1.5,0.5-0.8-0.4,0.3,0.1
			C435.8,577.5,443.5,564.6,434.7,560.4z"/>
	</g>
</g>
<path class="st15" d="M405.1,552.6"/>
<g>
	<line class="st11" x1="281.8" y1="473.9" x2="276.3" y2="505.6"/>
	<g>
		<path class="st12" d="M276.1,472.3c-1.8,10.5-3.7,21.1-5.5,31.6c-1.3,7.6,10.3,10.8,11.6,3.2c1.8-10.5,3.7-21.1,5.5-31.6
			C288.9,468,277.4,464.7,276.1,472.3L276.1,472.3z"/>
	</g>
</g>
<g>
	<line class="st11" x1="243.2" y1="489.6" x2="256.9" y2="513.4"/>
	<g>
		<path class="st12" d="M238,492.7c4.6,7.9,9.1,15.8,13.7,23.7c3.9,6.7,14.2,0.7,10.4-6.1c-4.6-7.9-9.1-15.8-13.7-23.7
			C244.5,479.9,234.1,485.9,238,492.7L238,492.7z"/>
	</g>
</g>
</svg>
