<?xml version="1.0" encoding="utf-8"?>
<!-- Generator: Adobe Illustrator 22.1.0, SVG Export Plug-In . SVG Version: 6.00 Build 0)  -->
<svg version="1.1" id="Calque_1" xmlns="http://www.w3.org/2000/svg" xmlns:xlink="http://www.w3.org/1999/xlink" x="0px" y="0px"
	 viewBox="0 0 595.3 841.9" style="enable-background:new 0 0 595.3 841.9;" xml:space="preserve">
<style type="text/css">
	.st0{fill:#084722;}
	.st1{fill:#D80F16;}
	.st2{fill:#931914;}
	.st3{fill:#35642A;}
	.st4{fill:#C66D1E;}
</style>
<g>
	<g>
		<g>
			<path class="st0" d="M368.8,109.8c-12.8,4.3-24.7,11.5-33.3,22.1c-8.3,10.2-13.2,22.3-16.8,34.8c-7.3,24.8-10,50.7-7.8,76.5
				c0.8,9.5,15.8,9.6,15,0c-2-23-0.2-46.2,6.1-68.4c3-10.5,6.3-20.9,12.5-30c6.8-9.8,17.1-16.7,28.3-20.4
				C381.9,121.2,378,106.8,368.8,109.8L368.8,109.8z"/>
		</g>
	</g>
</g>
<g>
	<path class="st1" d="M199.1,245.9c-6.3-4.3-31.4-13.2-57.6-8.5c-38.8,7-60.8,40.2-66,48c-26.4,39.7-21.1,83.8-17,117
		c4.6,37.9,15.8,63.8,38,114c22.3,50.4,39.7,89.8,75,136c0,0,44.4,58,105,89c4.4,2.2,11.4,5.6,21,7c29,4.3,54.4-13.2,72-27
		c61.7-48.6,106.2-116.2,108-119c54.9-84.5,71.8-148.9,76-171c7.4-39.1,4.2-74.1,4.2-74.1c-0.3-3.6-0.6-6.1-1.2-10.9
		c-4.8-39.8-7.3-59.7-13-70c-3.6-6.4-6.3-38.7-120-38c-6,0-16.7-3.7-20,1c-3.4,4.8,3.8,13.3,17,36c8.3,14.3,14.6,28.2,27,56
		c0,0,3.8,8.6,6,21c1.6,9.3,2.5,13.9,0,16c-5.1,4.4-20.8-5.4-33-13c-8.1-5.1-13.6-9.4-13.9-9.6c-20.4-15.9-36-29.7-45.1-37.4
		c-25.3-21.5-38.2-32.3-50-33c-15.8-1-28,8.5-39,17c-93,72-100.9,75.1-104,73c0,0-10.5-7.1,40-113
		C208.4,252.3,199.4,246.1,199.1,245.9z"/>
	<g>
		<path class="st2" d="M202.9,239.4c-7.1-4.7-16.3-7.1-24.6-8.7c-12.8-2.5-25.9-2.9-38.8-0.6c-20.1,3.6-38.3,14.8-52.6,29.2
			c-10.7,10.8-20.1,23.9-26.5,37.7c-10,21.7-13.4,45.4-12.6,69.1c0.7,20.5,3,41.6,7.5,61.6c4.5,20,11.9,39.2,19.8,58.1
			c19.2,45.6,38.6,92.1,64.9,134.2c16.3,26.1,34.9,49.9,56.9,71.4c15.3,15,31.9,28.8,49.6,40.8c19.1,12.9,40.4,25.7,64.4,24.1
			c23.9-1.6,44.5-14.5,62.9-28.9c19.4-15.2,37.3-32.3,54-50.4c20.2-21.9,39.3-45.3,55.8-70.2c24.6-37.1,45.4-77.1,61.1-118.8
			c11.2-29.8,18.7-59.8,20.7-91.7c0.9-14.7,1.1-29.5-0.6-44.2c-2.3-20.8-4.2-42.1-8.8-62.5c-1.3-5.9-3.1-11.8-5.9-17.1
			c-0.5-0.9-1-2.3,0,0.2c-0.5-1.2-1-2.5-1.5-3.7c-2.1-4.8-5.2-9.2-9-12.9c-18.6-17.8-48.6-21.5-72.9-23.8
			c-12.4-1.1-24.9-1.6-37.4-1.6c-5,0-9.7-0.4-14.7-1c-4.8-0.6-10-0.6-14.1,2.3c-6.4,4.6-5.8,12.1-2.9,18.5
			c3.9,8.8,9.8,16.9,14.7,25.2c10.1,17,18.1,35.1,26.2,53.2c0.6,1.4,1.3,2.9,1.9,4.3c0.6,1.3,1.3,3.1,0.3,0.6
			c0.4,1.1,0.9,2.2,1.3,3.3c2,5.6,3.4,11.3,4.5,17.2c0.4,2.3,0.9,4.7,1.1,7c0,0.2,0.1,3.1,0.1,3.1c-0.4-0.1,2-3.4,1.6-2.2
			c0-0.1,0.7-0.3,0.7-0.3c0.1,0.2-2-0.4-2.1-0.4c-2.4-0.7-4.7-1.8-7-2.9c-10.2-5.2-19.8-11.7-29.1-18.3c-0.3-0.2-0.6-0.5-0.9-0.7
			c3.4,2.6-1.7-1.4-1.9-1.5c-2.5-2-4.9-3.9-7.4-5.9c-5.3-4.3-10.5-8.6-15.7-13c-16.4-13.8-32.1-28.6-49.6-41
			c-5.7-4.1-12.1-8.1-19.1-9.6c-10.7-2.4-21.8,0.5-31.3,5.5c-11,5.9-20.7,14.6-30.6,22.1c-9.3,7.2-18.6,14.3-27.9,21.4
			c-12.4,9.4-24.9,18.8-37.6,27.8c-5.8,4.1-11.7,8.4-18,11.7c-0.7,0.4-1.4,0.7-2.1,1.1c2-1.1,1-0.1-0.2,0c-2,0.2,2.1-0.1,0.7-0.1
			c-1.4,0,2.5,0.5,1.1,0.1c1.4,0.4,2.9,1.5,3.7,2.9c-0.7-1.1,0.9,2.3,0.5,1.1c-0.4-1.2,0.3-1.7,0,0.6c0.2-1.5,0-3.3,0.1-4.8
			c0.1-2.1-0.1,0.6,0-0.1c0.1-0.6,0.2-1.2,0.3-1.8c0.3-1.8,0.7-3.6,1.1-5.3c2.8-11.7,7.1-23.2,11.5-34.4
			c8.1-20.5,17.3-40.6,26.8-60.5c1.8-3.9,0.9-7.8-2.7-10.3C209.1,243.7,206,241.5,202.9,239.4c-8-5.5-15.5,7.5-7.6,13
			c3.1,2.2,6.2,4.3,9.4,6.5c-0.9-3.4-1.8-6.8-2.7-10.3c-9.9,20.7-19.4,41.7-27.9,63.1c-4.4,11.2-8.7,22.7-11.7,34.4
			c-1.7,6.7-5.2,18.7,0.7,24.6c6.6,6.5,16.7-0.6,22.7-4.4c25.3-16.3,48.9-35.4,72.7-53.7c9.9-7.6,19.6-16,30.1-22.7
			c4.7-3,9.7-5.5,15.2-6.6c2.5-0.5,5.1-0.6,7.7-0.4c2.2,0.1-0.9-0.2,0.5,0c0.9,0.1,1.7,0.4,2.5,0.6c6.2,1.8,12.4,6.4,18,10.6
			c8.9,6.8,17.4,14.2,25.9,21.4c15.7,13.4,31.2,27.3,47.9,39.3c9.2,6.6,19.2,13.1,29.5,17.9c7.6,3.5,19.5,7.6,24.9-1.7
			c1.9-3.3,1.9-7.3,1.5-11c-0.8-6.4-1.9-12.8-3.6-19.1c-2.2-8.3-5.8-15.9-9.3-23.7c-8-17.8-16.2-35.4-26.2-52.2
			c-2.7-4.6-5.6-9.1-8.3-13.7c-1.5-2.5-3.7-6.7-4.3-7.9c-0.3-0.5-0.3-1.2-0.5-1.8c0.8,1.6-0.3,0.9,0.1,0.2c0.5-1-1.1,3.1-1.5,2.5
			c0.1,0.2,4.7,0.1,5.1,0.2c2.5,0.3,5,0.8,7.6,1c12,1,24.3,0.2,36.4,1c9.5,0.6,18.9,1.6,28.3,3.2c7.1,1.3,14.2,2.9,21.1,5.1
			c5.6,1.8,8.4,2.9,13.4,5.7c1.6,0.9,3.2,1.9,4.8,3c2.1,1.4-0.1-0.2,1.3,0.9c0.7,0.6,1.4,1.2,2,1.8c1,0.9,1.9,1.9,2.8,2.9
			c0.9,1,1.1,1.5,0.3,0.3c0.4,0.6,0.8,1.2,1.2,1.8c1.1,1.7,1.9,3.4,2.7,5.2c-1-2.1-0.4-1,0.1,0.2c0.5,1.1,0.9,2.2,1.4,3.2
			c1.4,2.9,1.1,1.8,2.1,4.8c1,3,1.8,6.1,2.5,9.3c1.8,8.2,2.9,16.5,4,24.8c2.1,16.2,4.7,32.5,5.2,48.8c0.6,21.3-0.7,43-4.9,63.9
			c-5.6,27.6-15.6,54.5-27.1,80.2c-30.7,68.4-73.9,130.9-128.8,182.1c-16.5,15.4-34.4,31.3-55.1,40.9c-10.5,4.9-22.2,7.6-33.8,6.4
			c-10.7-1.1-20-5.8-29.2-11c-33.3-18.8-62.5-45.1-87.3-74c-2.3-2.7-4.6-5.5-6.9-8.3c-0.2-0.3-0.4-0.5-0.6-0.8
			c2.9,3.7-0.8-1.1-1.2-1.6c-4.1-5.5-8.2-11.1-12.1-16.8c-13.5-19.6-25.2-40.3-35.7-61.6c-11.1-22.5-21-45.5-31.1-68.5
			c-8.6-19.7-17.3-39.5-23.3-60.2c-5.4-18.4-8.1-37.3-9.8-56.4c-2-22.4-1.8-45.2,5.4-66.8c10.3-31,35.8-61.1,68.5-69.5
			c11.7-3,24.1-3.1,36-0.9c7.3,1.4,15.5,3.2,21.8,7.3C203.4,257.7,210.9,244.7,202.9,239.4z"/>
	</g>
</g>
<g>
	<path class="st3" d="M303.3,228.3c-11.3-11.6-18.8-22.1-23.6-29.7c-7.4-11.9-10.3-19.6-18.4-22.5c-7.5-2.7-14.4,0.8-22.5,4.1
		c-20.6,8.5-7.4-0.6-59.4,16.4C148,206.8,132.3,212,132.1,216c-0.8,15.3,79.3,34.3,81,34.8c-25.2,85.5-38.3,119.6-45.2,129.7
		c-0.4,0.5-1.3,1.9-0.9,2.5c4.2,5.9,121.4-71.7,133.2-79.9c0,0,0.1-0.1,10.2-7.2c93.7,60.4,132.2,87.6,138.9,95.3
		c0.2,0.3,1,1.2,1.5,1c3-1.3-13.6-46.8-45.1-133.2c42.3-11.9,91.7-27.7,90.2-37.9c-0.3-2.3-3.2-3.4-15.4-7.2
		c-38.6-11.9-74-20.4-83.5-22.7c-10.5-2.6-15.7-3.8-17.7-4.6c-7.7-2.8-10.8-5.1-15.7-4.5c-5.9,0.8-9.9,5.3-12.3,8.2
		c-19.7,23.5-26.4,44.7-36.9,45.1C312.1,235.6,308.3,234.7,303.3,228.3z"/>
	<g>
		<path class="st0" d="M308.6,223c-11.9-12.3-20.5-25.7-29.5-40.1c-3.9-6.2-8.6-11.7-15.8-14.1c-9.2-3.1-18.1,0.6-26.5,4.1
			c-10.8,4.4-22.1,5.4-33.3,8.4c-16.5,4.5-32.7,9.9-48.8,15.5c-6,2.1-12,4.2-17.9,6.7c-3.3,1.4-6.7,3-9.2,5.7
			c-6.9,7.2-0.5,16,5.8,20.7c7.6,5.7,16.9,9.2,25.8,12.6c17,6.4,34.7,10.3,52,15.6c-1.7-3.1-3.5-6.2-5.2-9.2
			c-9.8,33.1-19.6,66.4-31.5,98.8c-1.7,4.5-3.4,9-5.2,13.5c-0.2,0.5-1.1,2.6-0.5,1.2c-0.4,0.9-0.8,1.8-1.2,2.7
			c-0.6,1.4-1.3,2.8-2,4.2c-1,2.2-2.1,4.3-3.4,6.3c-3.2,5.2-4,12.9,3.2,14.9c5.7,1.6,12.3-2.5,17.1-4.9c8.5-4.3,16.8-9.2,25-14.1
			c21.4-12.8,42.3-26.2,63.2-39.8c14.7-9.6,29.3-19.3,43.6-29.3c-2.5,0-5,0-7.6,0c42.6,27.5,86.2,54.4,126.7,85
			c0.5,0.4,1,0.8,1.5,1.1c1.4,1-0.7-0.6,0.3,0.2c0.9,0.7,1.9,1.5,2.8,2.2c1.4,1.1,2.8,2.3,4.1,3.5c1.9,1.8,3.4,3.7,6,4.7
			c5.1,1.8,9.8-1.5,10.5-6.6c0.6-4.3-1.1-9-2.3-13.1c-2.2-7.7-4.9-15.3-7.5-22.9c-11.5-33.3-23.7-66.4-35.8-99.5
			c-1.7,3.1-3.5,6.2-5.2,9.2c26.3-7.4,53.6-14.6,78.2-26.7c6.4-3.1,15.1-7.5,17.2-15.1c2.7-10-7.6-13.7-15-16.1
			c-26.5-8.6-53.5-15.7-80.6-22.4c-8.2-2-16.7-3.7-24.8-6.2c-4.7-1.4-9-4.1-13.9-4.9c-6.6-1.1-12.8,1.1-17.9,5.2
			c-5.8,4.8-10.3,11.5-14.7,17.6c-4.4,6.1-8.4,12.5-12.5,18.9c-1.5,2.4-3.1,4.8-4.8,7c-0.6,0.8-1.3,1.5-2,2.2
			c-0.4,0.4-2.2,1.9-1.6,1.5c-0.3,0.2-0.7,0.3-1,0.6c-0.9,0.6,0.5-0.7-0.2,0c-0.1,0.1-0.2-0.2,0.4,0.1
			C312.6,227.2,310.6,225.4,308.6,223c-6.2-7.4-16.7,3.2-10.6,10.6c6.3,7.6,15.7,12.5,24.9,6.8c8.1-5,13.1-14.9,18.1-22.7
			c3.5-5.4,7.1-10.8,11-16c2.8-3.8,7.2-11.1,12.4-12c4.2-0.8,9.3,2.9,13.1,4.2c3.6,1.2,7.4,2.1,11.2,3c20.3,5,40.6,10.1,60.7,15.7
			c6.6,1.9,13.3,3.8,19.9,5.8c6.6,2,13.7,3.6,20,6.3c-0.9-0.4,1,0.5,1,0.5c0.2,0.1,0.3,0.2,0.5,0.3c-0.6-0.4-1.1-0.9-1.5-1.5
			c-0.7-1.2-0.6-2.3-0.5-3.6c0,0.1-0.1,0.3-0.1,0.4c0.5-1.1,0.5-1.3,0.1-0.5c-0.1,0,1.1-1-0.3,0.2c-0.5,0.5-1,0.9-1.5,1.4
			c1.1-0.8-1.2,0.7-1.1,0.7c-1.1,0.7-2.1,1.3-3.2,1.9c-10.4,5.8-22,9.7-33.2,13.5c-15.1,5.1-30.3,9.6-45.6,13.9
			c-3.7,1-6.6,5.4-5.2,9.2c9.7,26.7,19.5,53.4,29,80.1c5.2,14.5,10.6,29.1,14.7,43.9c0.5,1.9,0.9,3.9,1.4,5.9c0.5,2,0-1.7,0,0
			c0,1.4,0.1-1,0.2-1.2c0.2-0.5,1.9-3.3,3.1-4c1.9-0.3,3.9-0.5,5.8-0.8c2.9,1.2,1.7,0.9,0.8-0.2c-0.5-0.6-1.2-1.1-1.8-1.7
			c-1.5-1.3-3.1-2.6-4.6-3.9c-5.5-4.4-11.2-8.5-16.9-12.6c-20.1-14.4-40.7-28-61.4-41.6c-18.2-12-36.4-23.8-54.7-35.6
			c-2.1-1.3-5.5-1.5-7.6,0c-39.2,27.5-79.6,54.1-121.4,77.6c-4.6,2.6-9.3,5.1-14.1,7.4c-0.4,0.2-0.9,0.4-1.3,0.6
			c-1.3,0.6,1.6-0.6,0.2-0.1c-0.7,0.2-1.3,0.5-2,0.7c-0.4,0.2-1.2,0.1-1.6,0.4c1.4-0.9,4.6,0.3,5.8,1.7c0.7,1.8,1.5,3.5,2.2,5.3
			c0-0.3,0-0.6,0-0.8c-0.3,1.3-0.7,2.5-1,3.8c1.6-3.4,3.8-6.4,5.4-9.8c2.6-5.5,4.9-11.1,7.1-16.8c7.1-18.3,13.2-37.1,19.1-55.9
			c5.3-16.9,10.4-33.8,15.4-50.7c1.2-4-1.4-8-5.2-9.2c-12.9-4-26.1-6.9-39-11.1c-8.8-2.9-17.6-5.9-25.9-10c-1.7-0.8-3.3-1.7-5-2.7
			c-0.7-0.4-1.5-0.9-2.2-1.3c-0.4-0.2-2.6-2-1.4-0.9c-0.5-0.4-1-0.9-1.5-1.3c-0.7-0.6-1.4-0.9-0.3-0.2c-0.6-0.4-0.4-1.7-0.5-0.6
			c0,0.7,0.2,0.6,0.1,0.1c-0.2-1.4,0,1.5,0.1,0.7c-0.2,1.1-0.7,2.3-1.5,3.6c0.8-1.3-0.7,0.3,0.1-0.2c1.3-0.9,2.8-1.6,4.2-2.3
			c4-1.9,9-3.6,13.5-5.2c15.4-5.3,30.9-10.5,46.5-15c6.9-2,13.9-3.8,21.1-4.9c3.8-0.6,7.4-1.2,11-2.5c5.9-2.1,11.5-5.2,17.7-6.7
			c7.4-1.8,11.1,2.9,14.6,8.6c9.2,15.1,18.8,29.2,31.1,41.9C304.7,240.6,315.3,230,308.6,223z"/>
	</g>
</g>
<path class="st4" d="M173.5,569.2c-0.9,0-1.8,0.2-2.7,0.5c-4.3,1.3-7.2,5.3-7.4,9.8c-0.1,2,0.1,4.2,1.1,5.7c2.7,4.4,11.9,5.6,16,2
	c0.6-0.5,1-1.1,1.4-1.7c3.8-6.1,0.6-14.4-6.4-16C174.9,569.3,174.2,569.2,173.5,569.2z"/>
<path class="st4" d="M235.7,579.3c-0.9,0-1.8,0.2-2.7,0.5c-4.3,1.3-7.2,5.3-7.4,9.8c-0.1,2,0.1,4.2,1.1,5.7c2.7,4.4,11.9,5.6,16,2
	c0.6-0.5,1-1.1,1.4-1.7c3.8-6.1,0.6-14.4-6.4-16C237.1,579.3,236.4,579.2,235.7,579.3z"/>
<path class="st4" d="M202.2,611.3c-0.9,0-1.8,0.2-2.7,0.5c-4.3,1.3-7.2,5.3-7.4,9.8c-0.1,2,0.1,4.2,1.1,5.7c2.7,4.4,11.9,5.6,16,2
	c0.6-0.5,1-1.1,1.4-1.7c3.8-6.1,0.6-14.4-6.4-16C203.6,611.3,202.9,611.2,202.2,611.3z"/>
<path class="st4" d="M217.7,524.8c-0.9,0-1.8,0.2-2.7,0.5c-4.3,1.3-7.2,5.3-7.4,9.8c-0.1,2,0.1,4.2,1.1,5.7c2.7,4.4,11.9,5.6,16,2
	c0.6-0.5,1-1.1,1.4-1.7c3.8-6.1,0.6-14.4-6.4-16C219.1,524.8,218.4,524.7,217.7,524.8z"/>
<path class="st4" d="M183.6,534.8c-0.9,0-1.8,0.2-2.7,0.5c-4.3,1.3-7.2,5.3-7.4,9.8c-0.1,2,0.1,4.2,1.1,5.7c2.7,4.4,11.9,5.6,16,2
	c0.6-0.5,1-1.1,1.4-1.7c3.8-6.1,0.6-14.4-6.4-16C185,534.9,184.3,534.8,183.6,534.8z"/>
<path class="st4" d="M138.1,514.7c-0.9,0-1.8,0.2-2.7,0.5c-4.3,1.3-7.2,5.3-7.4,9.8c-0.1,2,0.1,4.2,1.1,5.7c2.7,4.4,11.9,5.6,16,2
	c0.6-0.5,1-1.1,1.4-1.7c3.8-6.1,0.6-14.4-6.4-16C139.5,514.8,138.8,514.7,138.1,514.7z"/>
<path class="st4" d="M255.9,544.9c-0.9,0-1.8,0.2-2.7,0.5c-4.3,1.3-7.2,5.3-7.4,9.8c-0.1,2,0.1,4.2,1.1,5.7c2.7,4.4,11.9,5.6,16,2
	c0.6-0.5,1-1.1,1.4-1.7c3.8-6.1,0.6-14.4-6.4-16C257.3,544.9,256.6,544.8,255.9,544.9z"/>
<path class="st4" d="M120.6,471.2c-0.9,0-1.8,0.2-2.7,0.5c-4.3,1.3-7.2,5.3-7.4,9.8c-0.1,2,0.1,4.2,1.1,5.7c2.7,4.4,11.9,5.6,16,2
	c0.6-0.5,1-1.1,1.4-1.7c3.8-6.1,0.6-14.4-6.4-16C122,471.3,121.3,471.2,120.6,471.2z"/>
<path class="st4" d="M173.5,482.4c-0.9,0-1.8,0.2-2.7,0.5c-4.3,1.3-7.2,5.3-7.4,9.8c-0.1,2,0.1,4.2,1.1,5.7c2.7,4.4,11.9,5.6,16,2
	c0.6-0.5,1-1.1,1.4-1.7c3.8-6.1,0.6-14.4-6.4-16C174.9,482.5,174.2,482.4,173.5,482.4z"/>
<path class="st4" d="M235.7,654.1c-0.9,0-1.8,0.2-2.7,0.5c-4.3,1.3-7.2,5.3-7.4,9.8c-0.1,2,0.1,4.2,1.1,5.7c2.7,4.4,11.9,5.6,16,2
	c0.6-0.5,1-1.1,1.4-1.7c3.8-6.1,0.6-14.4-6.4-16C237.1,654.1,236.4,654,235.7,654.1z"/>
</svg>
