<?xml version="1.0" encoding="utf-8"?>
<!-- Generator: Adobe Illustrator 22.1.0, SVG Export Plug-In . SVG Version: 6.00 Build 0)  -->
<svg version="1.1" id="Calque_1" xmlns="http://www.w3.org/2000/svg" xmlns:xlink="http://www.w3.org/1999/xlink" x="0px" y="0px"
	 viewBox="0 0 595.3 841.9" style="enable-background:new 0 0 595.3 841.9;" xml:space="preserve">
<style type="text/css">
	.st0{fill:#084722;}
	.st1{fill:#D80F16;}
	.st2{fill:#931914;}
	.st3{fill:#C66D1E;}
	.st4{fill:#D3AD50;}
	.st5{fill:#138035;}
</style>
<g>
	<g>
		<g>
			<path class="st0" d="M368.8,109.8c-12.8,4.3-24.7,11.5-33.3,22.1c-8.3,10.2-13.2,22.3-16.8,34.8c-7.3,24.8-10,50.7-7.8,76.5
				c0.8,9.5,15.8,9.6,15,0c-2-23-0.2-46.2,6.1-68.4c3-10.5,6.3-20.9,12.5-30c6.8-9.8,17.1-16.7,28.3-20.4
				C381.9,121.2,378,106.8,368.8,109.8L368.8,109.8z"/>
		</g>
	</g>
</g>
<g>
	<path class="st1" d="M199.1,245.9c-6.3-4.3-31.4-13.2-57.6-8.5c-38.8,7-60.8,40.2-66,48c-26.4,39.7-21.1,83.8-17,117
		c4.6,37.9,15.8,63.8,38,114c22.3,50.4,39.7,89.8,75,136c0,0,44.4,58,105,89c4.4,2.2,11.4,5.6,21,7c29,4.3,54.4-13.2,72-27
		c61.7-48.6,106.2-116.2,108-119c54.9-84.5,71.8-148.9,76-171c7.4-39.1,4.2-74.1,4.2-74.1c-0.3-3.6-0.6-6.1-1.2-10.9
		c-4.8-39.8-7.3-59.7-13-70c-3.6-6.4-6.3-38.7-120-38c-6,0-16.7-3.7-20,1c-3.4,4.8,3.8,13.3,17,36c8.3,14.3,14.6,28.2,27,56
		c0,0,3.8,8.6,6,21c1.6,9.3,2.5,13.9,0,16c-5.1,4.4-20.8-5.4-33-13c-8.1-5.1-13.6-9.4-13.9-9.6c-20.4-15.9-36-29.7-45.1-37.4
		c-25.3-21.5-38.2-32.3-50-33c-15.8-1-28,8.5-39,17c-93,72-100.9,75.1-104,73c0,0-10.5-7.1,40-113
		C208.4,252.3,199.4,246.1,199.1,245.9z"/>
	<g>
		<path class="st2" d="M202.9,239.4c-7.1-4.7-16.3-7.1-24.6-8.7c-12.8-2.5-25.9-2.9-38.8-0.6c-20.1,3.6-38.3,14.8-52.6,29.2
			c-10.7,10.8-20.1,23.9-26.5,37.7c-10,21.7-13.4,45.4-12.6,69.1c0.7,20.5,3,41.6,7.5,61.6c4.5,20,11.9,39.2,19.8,58.1
			c19.2,45.6,38.6,92.1,64.9,134.2c16.3,26.1,34.9,49.9,56.9,71.4c15.3,15,31.9,28.8,49.6,40.8c19.1,12.9,40.4,25.7,64.4,24.1
			c23.9-1.6,44.5-14.5,62.9-28.9c19.4-15.2,37.3-32.3,54-50.4c20.2-21.9,39.3-45.3,55.8-70.2c24.6-37.1,45.4-77.1,61.1-118.8
			c11.2-29.8,18.7-59.8,20.7-91.7c0.9-14.7,1.1-29.5-0.6-44.2c-2.3-20.8-4.2-42.1-8.8-62.5c-1.3-5.9-3.1-11.8-5.9-17.1
			c-0.5-0.9-1-2.3,0,0.2c-0.5-1.2-1-2.5-1.5-3.7c-2.1-4.8-5.2-9.2-9-12.9c-18.6-17.8-48.6-21.5-72.9-23.8
			c-12.4-1.1-24.9-1.6-37.4-1.6c-5,0-9.7-0.4-14.7-1c-4.8-0.6-10-0.6-14.1,2.3c-6.4,4.6-5.8,12.1-2.9,18.5
			c3.9,8.8,9.8,16.9,14.7,25.2c10.1,17,18.1,35.1,26.2,53.2c0.6,1.4,1.3,2.9,1.9,4.3c0.6,1.3,1.3,3.1,0.3,0.6
			c0.4,1.1,0.9,2.2,1.3,3.3c2,5.6,3.4,11.3,4.5,17.2c0.4,2.3,0.9,4.7,1.1,7c0,0.2,0.1,3.1,0.1,3.1c-0.4-0.1,2-3.4,1.6-2.2
			c0-0.1,0.7-0.3,0.7-0.3c0.1,0.2-2-0.4-2.1-0.4c-2.4-0.7-4.7-1.8-7-2.9c-10.2-5.2-19.8-11.7-29.1-18.3c-0.3-0.2-0.6-0.5-0.9-0.7
			c3.4,2.6-1.7-1.4-1.9-1.5c-2.5-2-4.9-3.9-7.4-5.9c-5.3-4.3-10.5-8.6-15.7-13c-16.4-13.8-32.1-28.6-49.6-41
			c-5.7-4.1-12.1-8.1-19.1-9.6c-10.7-2.4-21.8,0.5-31.3,5.5c-11,5.9-20.7,14.6-30.6,22.1c-9.3,7.2-18.6,14.3-27.9,21.4
			c-12.4,9.4-24.9,18.8-37.6,27.8c-5.8,4.1-11.7,8.4-18,11.7c-0.7,0.4-1.4,0.7-2.1,1.1c2-1.1,1-0.1-0.2,0c-2,0.2,2.1-0.1,0.7-0.1
			c-1.4,0,2.5,0.5,1.1,0.1c1.4,0.4,2.9,1.5,3.7,2.9c-0.7-1.1,0.9,2.3,0.5,1.1c-0.4-1.2,0.3-1.7,0,0.6c0.2-1.5,0-3.3,0.1-4.8
			c0.1-2.1-0.1,0.6,0-0.1c0.1-0.6,0.2-1.2,0.3-1.8c0.3-1.8,0.7-3.6,1.1-5.3c2.8-11.7,7.1-23.2,11.5-34.4
			c8.1-20.5,17.3-40.6,26.8-60.5c1.8-3.9,0.9-7.8-2.7-10.3C209.1,243.7,206,241.5,202.9,239.4c-8-5.5-15.5,7.5-7.6,13
			c3.1,2.2,6.2,4.3,9.4,6.5c-0.9-3.4-1.8-6.8-2.7-10.3c-9.9,20.7-19.4,41.7-27.9,63.1c-4.4,11.2-8.7,22.7-11.7,34.4
			c-1.7,6.7-5.2,18.7,0.7,24.6c6.6,6.5,16.7-0.6,22.7-4.4c25.3-16.3,48.9-35.4,72.7-53.7c9.9-7.6,19.6-16,30.1-22.7
			c4.7-3,9.7-5.5,15.2-6.6c2.5-0.5,5.1-0.6,7.7-0.4c2.2,0.1-0.9-0.2,0.5,0c0.9,0.1,1.7,0.4,2.5,0.6c6.2,1.8,12.4,6.4,18,10.6
			c8.9,6.8,17.4,14.2,25.9,21.4c15.7,13.4,31.2,27.3,47.9,39.3c9.2,6.6,19.2,13.1,29.5,17.9c7.6,3.5,19.5,7.6,24.9-1.7
			c1.9-3.3,1.9-7.3,1.5-11c-0.8-6.4-1.9-12.8-3.6-19.1c-2.2-8.3-5.8-15.9-9.3-23.7c-8-17.8-16.2-35.4-26.2-52.2
			c-2.7-4.6-5.6-9.1-8.3-13.7c-1.5-2.5-3.7-6.7-4.3-7.9c-0.3-0.5-0.3-1.2-0.5-1.8c0.8,1.6-0.3,0.9,0.1,0.2c0.5-1-1.1,3.1-1.5,2.5
			c0.1,0.2,4.7,0.1,5.1,0.2c2.5,0.3,5,0.8,7.6,1c12,1,24.3,0.2,36.4,1c9.5,0.6,18.9,1.6,28.3,3.2c7.1,1.3,14.2,2.9,21.1,5.1
			c5.6,1.8,8.4,2.9,13.4,5.7c1.6,0.9,3.2,1.9,4.8,3c2.1,1.4-0.1-0.2,1.3,0.9c0.7,0.6,1.4,1.2,2,1.8c1,0.9,1.9,1.9,2.8,2.9
			c0.9,1,1.1,1.5,0.3,0.3c0.4,0.6,0.8,1.2,1.2,1.8c1.1,1.7,1.9,3.4,2.7,5.2c-1-2.1-0.4-1,0.1,0.2c0.5,1.1,0.9,2.2,1.4,3.2
			c1.4,2.9,1.1,1.8,2.1,4.8c1,3,1.8,6.1,2.5,9.3c1.8,8.2,2.9,16.5,4,24.8c2.1,16.2,4.7,32.5,5.2,48.8c0.6,21.3-0.7,43-4.9,63.9
			c-5.6,27.6-15.6,54.5-27.1,80.2c-30.7,68.4-73.9,130.9-128.8,182.1c-16.5,15.4-34.4,31.3-55.1,40.9c-10.5,4.9-22.2,7.6-33.8,6.4
			c-10.7-1.1-20-5.8-29.2-11c-33.3-18.8-62.5-45.1-87.3-74c-2.3-2.7-4.6-5.5-6.9-8.3c-0.2-0.3-0.4-0.5-0.6-0.8
			c2.9,3.7-0.8-1.1-1.2-1.6c-4.1-5.5-8.2-11.1-12.1-16.8c-13.5-19.6-25.2-40.3-35.7-61.6c-11.1-22.5-21-45.5-31.1-68.5
			c-8.6-19.7-17.3-39.5-23.3-60.2c-5.4-18.4-8.1-37.3-9.8-56.4c-2-22.4-1.8-45.2,5.4-66.8c10.3-31,35.8-61.1,68.5-69.5
			c11.7-3,24.1-3.1,36-0.9c7.3,1.4,15.5,3.2,21.8,7.3C203.4,257.7,210.9,244.7,202.9,239.4z"/>
	</g>
</g>
<path class="st3" d="M205.5,514.7c-0.5,0-0.9,0.1-1.4,0.2c-2.1,0.7-3.6,2.7-3.7,4.9c0,1,0.1,2.1,0.5,2.9c1.3,2.2,6,2.8,8,1
	c0.3-0.2,0.5-0.5,0.7-0.9c1.9-3.1,0.3-7.2-3.2-8C206.2,514.7,205.8,514.7,205.5,514.7z"/>
<path class="st3" d="M182.3,506.1c-0.2,0-0.5,0.1-0.7,0.1c-1.2,0.4-1.9,1.4-2,2.6c0,0.5,0,1.1,0.3,1.5c0.7,1.2,3.2,1.5,4.3,0.5
	c0.1-0.1,0.3-0.3,0.4-0.5c1-1.6,0.2-3.9-1.7-4.3C182.6,506.2,182.4,506.1,182.3,506.1z"/>
<path class="st3" d="M169,599.8c-0.5,0-0.9,0.1-1.4,0.2c-2.1,0.7-3.6,2.7-3.7,4.9c0,1,0.1,2.1,0.5,2.9c1.3,2.2,6,2.8,8,1
	c0.3-0.2,0.5-0.5,0.7-0.9c1.9-3.1,0.3-7.2-3.2-8C169.7,599.9,169.3,599.8,169,599.8z"/>
<path class="st3" d="M137.2,528.4c-0.4,0-0.7,0.1-1.1,0.2c-1.7,0.5-2.8,2.1-2.8,3.8c0,0.8,0.1,1.6,0.4,2.2c1,1.7,4.6,2.2,6.2,0.8
	c0.2-0.2,0.4-0.4,0.6-0.7c1.5-2.4,0.2-5.5-2.5-6.2C137.7,528.4,137.4,528.4,137.2,528.4z"/>
<path class="st3" d="M162.4,556.7c-0.4,0-0.8,0.1-1.1,0.2c-1.8,0.6-3,2.2-3,4c0,0.8,0.1,1.7,0.4,2.4c1.1,1.8,4.9,2.3,6.6,0.8
	c0.2-0.2,0.4-0.4,0.6-0.7c1.6-2.5,0.3-5.9-2.6-6.6C163,556.7,162.7,556.7,162.4,556.7z"/>
<path class="st4" d="M166.6,484c-0.5,0-0.9,0.1-1.4,0.2c-2.1,0.7-3.6,2.7-3.7,4.9c0,1,0.1,2.1,0.5,2.9c1.3,2.2,6,2.8,8,1
	c0.3-0.2,0.5-0.5,0.7-0.9c1.9-3.1,0.3-7.2-3.2-8C167.3,484,166.9,484,166.6,484z"/>
<path class="st3" d="M221.7,532.2c-0.2,0-0.4,0-0.6,0.1c-1,0.3-1.7,1.3-1.7,2.3c0,0.5,0,1,0.3,1.3c0.6,1,2.8,1.3,3.8,0.5
	c0.1-0.1,0.2-0.3,0.3-0.4c0.9-1.4,0.1-3.4-1.5-3.8C222.1,532.3,221.9,532.2,221.7,532.2z"/>
<path class="st3" d="M200.5,483.4c-0.5,0-1,0.1-1.5,0.3c-2.4,0.8-4,3-4.1,5.5c0,1.1,0.1,2.3,0.6,3.2c1.5,2.4,6.7,3.1,8.9,1.1
	c0.3-0.3,0.6-0.6,0.8-1c2.1-3.4,0.4-8-3.6-9C201.2,483.5,200.8,483.4,200.5,483.4z"/>
<path class="st3" d="M158.3,466.9c-0.5,0-0.9,0.1-1.4,0.2c-2.1,0.7-3.6,2.7-3.7,4.9c0,1,0.1,2.1,0.5,2.9c1.3,2.2,6,2.8,8,1
	c0.3-0.2,0.5-0.5,0.7-0.9c1.9-3.1,0.3-7.2-3.2-8C159,466.9,158.6,466.9,158.3,466.9z"/>
<path class="st3" d="M148.2,575.5c-0.2,0-0.5,0.1-0.7,0.1c-1.2,0.4-1.9,1.4-2,2.6c0,0.5,0,1.1,0.3,1.5c0.7,1.2,3.2,1.5,4.3,0.5
	c0.1-0.1,0.3-0.3,0.4-0.5c1-1.6,0.2-3.9-1.7-4.3C148.6,575.5,148.4,575.5,148.2,575.5z"/>
<path class="st4" d="M117.1,508.9c-0.2,0-0.5,0.1-0.7,0.1c-1.1,0.4-1.9,1.4-2,2.6c0,0.5,0,1.1,0.3,1.5c0.7,1.2,3.2,1.5,4.3,0.5
	c0.1-0.1,0.3-0.3,0.4-0.5c1-1.6,0.2-3.8-1.7-4.3C117.5,508.9,117.3,508.9,117.1,508.9z"/>
<path class="st4" d="M205.5,542.2c-0.5,0-0.9,0.1-1.4,0.2c-2.1,0.7-3.6,2.7-3.7,4.9c0,1,0.1,2.1,0.5,2.9c1.3,2.2,6,2.8,8,1
	c0.3-0.2,0.5-0.5,0.7-0.9c1.9-3.1,0.3-7.2-3.2-8C206.2,542.2,205.8,542.2,205.5,542.2z"/>
<path class="st4" d="M226.8,494.7c-0.5,0-0.9,0.1-1.4,0.2c-2.1,0.7-3.6,2.7-3.7,4.9c0,1,0.1,2.1,0.5,2.9c1.3,2.2,6,2.8,8,1
	c0.3-0.2,0.5-0.5,0.7-0.9c1.9-3.1,0.3-7.2-3.2-8C227.5,494.7,227.1,494.6,226.8,494.7z"/>
<path class="st4" d="M153.3,539.5c-0.5,0-0.9,0.1-1.4,0.2c-2.1,0.7-3.6,2.7-3.7,4.9c0,1,0.1,2.1,0.5,2.9c1.3,2.2,6,2.8,8,1
	c0.3-0.2,0.5-0.5,0.7-0.9c1.9-3.1,0.3-7.2-3.2-8C153.9,539.6,153.6,539.5,153.3,539.5z"/>
<path class="st3" d="M178.6,565.3c-0.2,0.3-0.3,0.7-0.4,1.1c-0.5,1.8,0.3,3.7,1.8,4.7c0.7,0.5,1.5,0.9,2.2,0.9
	c2.1,0,4.6-2.9,4.2-5.1c0-0.3-0.1-0.6-0.3-0.9c-1.3-2.7-4.9-3.4-7-1.3C179,564.9,178.8,565.1,178.6,565.3z"/>
<path class="st4" d="M182.3,525.7c-0.5,0-0.9,0.1-1.4,0.2c-2.1,0.7-3.6,2.7-3.7,4.9c0,1,0.1,2.1,0.5,2.9c1.3,2.2,6,2.8,8,1
	c0.3-0.2,0.5-0.5,0.7-0.9c1.9-3.1,0.3-7.2-3.2-8C183,525.7,182.6,525.7,182.3,525.7z"/>
<path class="st4" d="M132.1,473.4c-0.5,0-0.9,0.1-1.4,0.2c-2.1,0.7-3.6,2.7-3.7,4.9c0,1,0.1,2.1,0.5,2.9c1.3,2.2,6,2.8,8,1
	c0.3-0.2,0.5-0.5,0.7-0.9c1.9-3.1,0.3-7.2-3.2-8C132.8,473.4,132.5,473.3,132.1,473.4z"/>
<path class="st3" d="M137.2,554c-0.2,0-0.5,0.1-0.7,0.1c-1.2,0.4-1.9,1.4-2,2.6c0,0.5,0,1.1,0.3,1.5c0.7,1.2,3.2,1.5,4.3,0.5
	c0.1-0.1,0.3-0.3,0.4-0.5c1-1.6,0.2-3.9-1.7-4.3C137.5,554,137.4,554,137.2,554z"/>
<path class="st3" d="M205.5,578.2c-0.2,0-0.5,0.1-0.7,0.1c-1.2,0.4-1.9,1.4-2,2.6c0,0.5,0,1.1,0.3,1.5c0.7,1.2,3.2,1.5,4.3,0.5
	c0.1-0.1,0.3-0.3,0.4-0.5c1-1.6,0.2-3.9-1.7-4.3C205.9,578.2,205.7,578.2,205.5,578.2z"/>
<path class="st3" d="M169,583.8c-0.2,0-0.5,0.1-0.7,0.1c-1.2,0.4-1.9,1.4-2,2.6c0,0.5,0,1.1,0.3,1.5c0.7,1.2,3.2,1.5,4.3,0.5
	c0.1-0.1,0.3-0.3,0.4-0.5c1-1.6,0.2-3.9-1.7-4.3C169.3,583.8,169.2,583.8,169,583.8z"/>
<path class="st4" d="M174,458c-0.5,0-0.9,0.1-1.4,0.2c-2.1,0.7-3.6,2.7-3.7,4.9c0,1,0.1,2.1,0.5,2.9c1.3,2.2,6,2.8,8,1
	c0.3-0.2,0.5-0.5,0.7-0.9c1.9-3.1,0.3-7.2-3.2-8C174.7,458,174.4,458,174,458z"/>
<path class="st4" d="M166,534c-0.5,0-0.9,0.1-1.4,0.2c-2.1,0.7-3.6,2.7-3.7,4.9c0,1,0.1,2.1,0.5,2.9c1.3,2.2,6,2.8,8,1
	c0.3-0.2,0.5-0.5,0.7-0.9c1.9-3.1,0.3-7.2-3.2-8C166.7,534,166.4,534,166,534z"/>
<path class="st4" d="M153.3,511.8c-0.5,0-0.9,0.1-1.4,0.2c-2.1,0.7-3.6,2.7-3.7,4.9c0,1,0.1,2.1,0.5,2.9c1.3,2.2,6,2.8,8,1
	c0.3-0.2,0.5-0.5,0.7-0.9c1.9-3.1,0.3-7.2-3.2-8C153.9,511.8,153.6,511.8,153.3,511.8z"/>
<path class="st4" d="M134.5,453c-0.5,0-0.9,0.1-1.4,0.2c-2.1,0.7-3.6,2.7-3.7,4.9c0,1,0.1,2.1,0.5,2.9c1.3,2.2,6,2.8,8,1
	c0.3-0.2,0.5-0.5,0.7-0.9c1.9-3.1,0.3-7.2-3.2-8C135.1,453,134.8,452.9,134.5,453z"/>
<path class="st4" d="M194.8,461.8c-0.5,0-0.9,0.1-1.4,0.2c-2.1,0.7-3.6,2.7-3.7,4.9c0,1,0.1,2.1,0.5,2.9c1.3,2.2,6,2.8,8,1
	c0.3-0.2,0.5-0.5,0.7-0.9c1.9-3.1,0.3-7.2-3.2-8C195.5,461.9,195.2,461.8,194.8,461.8z"/>
<path class="st4" d="M153.3,437c-0.5,0-0.9,0.1-1.4,0.2c-2.1,0.7-3.6,2.7-3.7,4.9c0,1,0.1,2.1,0.5,2.9c1.3,2.2,6,2.8,8,1
	c0.3-0.2,0.5-0.5,0.7-0.9c1.9-3.1,0.3-7.2-3.2-8C153.9,437,153.6,437,153.3,437z"/>
<path class="st4" d="M132.1,437c-0.5,0-0.9,0.1-1.4,0.2c-2.1,0.7-3.6,2.7-3.7,4.9c0,1,0.1,2.1,0.5,2.9c1.3,2.2,6,2.8,8,1
	c0.3-0.2,0.5-0.5,0.7-0.9c1.9-3.1,0.3-7.2-3.2-8C132.8,437,132.5,437,132.1,437z"/>
<path class="st4" d="M109.4,466.8c0,0.5,0.1,0.9,0.2,1.4c0.7,2.1,2.7,3.6,4.9,3.7c1,0,2.1-0.1,2.9-0.5c2.2-1.3,2.8-6,1-8
	c-0.2-0.3-0.5-0.5-0.9-0.7c-3-1.9-7.2-0.3-8,3.2C109.4,466.1,109.4,466.5,109.4,466.8z"/>
<path class="st3" d="M109.4,442c-0.5,0-0.9,0.1-1.4,0.2c-2.1,0.7-3.6,2.7-3.7,4.9c0,1,0.1,2.1,0.5,2.9c1.3,2.2,6,2.8,8,1
	c0.3-0.2,0.5-0.5,0.7-0.9c1.9-3.1,0.3-7.2-3.2-8C110.1,442.1,109.7,442,109.4,442z"/>
<path class="st3" d="M117.1,422.2c-0.5,0-0.9,0.1-1.4,0.2c-2.1,0.7-3.6,2.7-3.7,4.9c0,1,0.1,2.1,0.5,2.9c1.3,2.2,6,2.8,8,1
	c0.3-0.2,0.5-0.5,0.7-0.9c1.9-3.1,0.3-7.2-3.2-8C117.8,422.3,117.4,422.2,117.1,422.2z"/>
<path class="st3" d="M299.7,617.9c-0.2,0-0.5,0.1-0.7,0.1c-1.2,0.4-1.9,1.4-2,2.6c0,0.5,0,1.1,0.3,1.5c0.7,1.2,3.2,1.5,4.3,0.5
	c0.1-0.1,0.3-0.3,0.4-0.5c1-1.6,0.2-3.9-1.7-4.3C300,618,299.9,617.9,299.7,617.9z"/>
<path class="st3" d="M286.4,711.6c-0.5,0-0.9,0.1-1.4,0.2c-2.1,0.7-3.6,2.7-3.7,4.9c0,1,0.1,2.1,0.5,2.9c1.3,2.2,6,2.8,8,1
	c0.3-0.2,0.5-0.5,0.7-0.9c1.9-3.1,0.3-7.2-3.2-8C287.1,711.7,286.7,711.6,286.4,711.6z"/>
<path class="st3" d="M254.6,640.2c-0.4,0-0.7,0.1-1.1,0.2c-1.7,0.5-2.8,2.1-2.8,3.8c0,0.8,0.1,1.6,0.4,2.2c1,1.7,4.6,2.2,6.2,0.8
	c0.2-0.2,0.4-0.4,0.6-0.7c1.5-2.4,0.2-5.5-2.5-6.2C255.1,640.2,254.8,640.2,254.6,640.2z"/>
<path class="st3" d="M279.9,668.5c-0.4,0-0.8,0.1-1.1,0.2c-1.8,0.6-3,2.2-3,4c0,0.8,0.1,1.7,0.4,2.4c1.1,1.8,4.9,2.3,6.6,0.8
	c0.2-0.2,0.4-0.4,0.6-0.7c1.6-2.5,0.3-5.9-2.6-6.6C280.4,668.5,280.1,668.5,279.9,668.5z"/>
<path class="st4" d="M284,595.8c-0.5,0-0.9,0.1-1.4,0.2c-2.1,0.7-3.6,2.7-3.7,4.9c0,1,0.1,2.1,0.5,2.9c1.3,2.2,6,2.8,8,1
	c0.3-0.2,0.5-0.5,0.7-0.9c1.9-3.1,0.3-7.2-3.2-8C284.7,595.8,284.4,595.8,284,595.8z"/>
<path class="st3" d="M317.9,595.2c-0.5,0-1,0.1-1.5,0.3c-2.4,0.8-4,3-4.1,5.5c0,1.1,0.1,2.3,0.6,3.2c1.5,2.4,6.7,3.1,8.9,1.1
	c0.3-0.3,0.6-0.6,0.8-1c2.1-3.4,0.4-8-3.6-9C318.6,595.2,318.3,595.2,317.9,595.2z"/>
<path class="st3" d="M275.7,578.7c-0.5,0-0.9,0.1-1.4,0.2c-2.1,0.7-3.6,2.7-3.7,4.9c0,1,0.1,2.1,0.5,2.9c1.3,2.2,6,2.8,8,1
	c0.3-0.2,0.5-0.5,0.7-0.9c1.9-3.1,0.3-7.2-3.2-8C276.4,578.7,276,578.7,275.7,578.7z"/>
<path class="st3" d="M265.6,687.3c-0.2,0-0.5,0.1-0.7,0.1c-1.2,0.4-1.9,1.4-2,2.6c0,0.5,0,1.1,0.3,1.5c0.7,1.2,3.2,1.5,4.3,0.5
	c0.1-0.1,0.3-0.3,0.4-0.5c1-1.6,0.2-3.9-1.7-4.3C266,687.3,265.8,687.3,265.6,687.3z"/>
<path class="st4" d="M234.5,620.7c-0.2,0-0.5,0.1-0.7,0.1c-1.1,0.4-1.9,1.4-2,2.6c0,0.5,0,1.1,0.3,1.5c0.7,1.2,3.2,1.5,4.3,0.5
	c0.1-0.1,0.3-0.3,0.4-0.5c1-1.6,0.2-3.8-1.7-4.3C234.9,620.7,234.7,620.7,234.5,620.7z"/>
<path class="st4" d="M270.7,651.3c-0.5,0-0.9,0.1-1.4,0.2c-2.1,0.7-3.6,2.7-3.7,4.9c0,1,0.1,2.1,0.5,2.9c1.3,2.2,6,2.8,8,1
	c0.3-0.2,0.5-0.5,0.7-0.9c1.9-3.1,0.3-7.2-3.2-8C271.4,651.4,271,651.3,270.7,651.3z"/>
<path class="st3" d="M296,677.1c-0.2,0.3-0.3,0.7-0.4,1.1c-0.5,1.8,0.3,3.7,1.8,4.7c0.7,0.5,1.5,0.9,2.2,0.9c2.1,0,4.6-2.9,4.2-5.1
	c0-0.3-0.1-0.6-0.3-0.9c-1.3-2.7-4.9-3.4-7-1.3C296.4,676.7,296.2,676.9,296,677.1z"/>
<path class="st4" d="M299.7,637.5c-0.5,0-0.9,0.1-1.4,0.2c-2.1,0.7-3.6,2.7-3.7,4.9c0,1,0.1,2.1,0.5,2.9c1.3,2.2,6,2.8,8,1
	c0.3-0.2,0.5-0.5,0.7-0.9c1.9-3.1,0.3-7.2-3.2-8C300.4,637.5,300,637.5,299.7,637.5z"/>
<path class="st4" d="M249.5,585.2c-0.5,0-0.9,0.1-1.4,0.2c-2.1,0.7-3.6,2.7-3.7,4.9c0,1,0.1,2.1,0.5,2.9c1.3,2.2,6,2.8,8,1
	c0.3-0.2,0.5-0.5,0.7-0.9c1.9-3.1,0.3-7.2-3.2-8C250.2,585.2,249.9,585.1,249.5,585.2z"/>
<path class="st3" d="M254.6,665.8c-0.2,0-0.5,0.1-0.7,0.1c-1.2,0.4-1.9,1.4-2,2.6c0,0.5,0,1.1,0.3,1.5c0.7,1.2,3.2,1.5,4.3,0.5
	c0.1-0.1,0.3-0.3,0.4-0.5c1-1.6,0.2-3.9-1.7-4.3C254.9,665.8,254.8,665.8,254.6,665.8z"/>
<path class="st3" d="M286.4,695.6c-0.2,0-0.5,0.1-0.7,0.1c-1.2,0.4-1.9,1.4-2,2.6c0,0.5,0,1.1,0.3,1.5c0.7,1.2,3.2,1.5,4.3,0.5
	c0.1-0.1,0.3-0.3,0.4-0.5c1-1.6,0.2-3.9-1.7-4.3C286.8,695.6,286.6,695.6,286.4,695.6z"/>
<path class="st4" d="M291.4,569.8c-0.5,0-0.9,0.1-1.4,0.2c-2.1,0.7-3.6,2.7-3.7,4.9c0,1,0.1,2.1,0.5,2.9c1.3,2.2,6,2.8,8,1
	c0.3-0.2,0.5-0.5,0.7-0.9c1.9-3.1,0.3-7.2-3.2-8C292.1,569.8,291.8,569.8,291.4,569.8z"/>
<path class="st4" d="M283.4,645.8c-0.5,0-0.9,0.1-1.4,0.2c-2.1,0.7-3.6,2.7-3.7,4.9c0,1,0.1,2.1,0.5,2.9c1.3,2.2,6,2.8,8,1
	c0.3-0.2,0.5-0.5,0.7-0.9c1.9-3.1,0.3-7.2-3.2-8C284.1,645.8,283.8,645.8,283.4,645.8z"/>
<path class="st4" d="M270.7,623.6c-0.5,0-0.9,0.1-1.4,0.2c-2.1,0.7-3.6,2.7-3.7,4.9c0,1,0.1,2.1,0.5,2.9c1.3,2.2,6,2.8,8,1
	c0.3-0.2,0.5-0.5,0.7-0.9c1.9-3.1,0.3-7.2-3.2-8C271.4,623.6,271,623.6,270.7,623.6z"/>
<path class="st4" d="M251.9,564.7c-0.5,0-0.9,0.1-1.4,0.2c-2.1,0.7-3.6,2.7-3.7,4.9c0,1,0.1,2.1,0.5,2.9c1.3,2.2,6,2.8,8,1
	c0.3-0.2,0.5-0.5,0.7-0.9c1.9-3.1,0.3-7.2-3.2-8C252.6,564.8,252.2,564.7,251.9,564.7z"/>
<path class="st4" d="M312.2,573.6c-0.5,0-0.9,0.1-1.4,0.2c-2.1,0.7-3.6,2.7-3.7,4.9c0,1,0.1,2.1,0.5,2.9c1.3,2.2,6,2.8,8,1
	c0.3-0.2,0.5-0.5,0.7-0.9c1.9-3.1,0.3-7.2-3.2-8C312.9,573.7,312.6,573.6,312.2,573.6z"/>
<path class="st4" d="M270.7,548.8c-0.5,0-0.9,0.1-1.4,0.2c-2.1,0.7-3.6,2.7-3.7,4.9c0,1,0.1,2.1,0.5,2.9c1.3,2.2,6,2.8,8,1
	c0.3-0.2,0.5-0.5,0.7-0.9c1.9-3.1,0.3-7.2-3.2-8C271.4,548.8,271,548.8,270.7,548.8z"/>
<path class="st4" d="M249.5,548.8c-0.5,0-0.9,0.1-1.4,0.2c-2.1,0.7-3.6,2.7-3.7,4.9c0,1,0.1,2.1,0.5,2.9c1.3,2.2,6,2.8,8,1
	c0.3-0.2,0.5-0.5,0.7-0.9c1.9-3.1,0.3-7.2-3.2-8C250.2,548.8,249.9,548.8,249.5,548.8z"/>
<path class="st4" d="M226.8,578.6c0,0.5,0.1,0.9,0.2,1.4c0.7,2.1,2.7,3.6,4.9,3.7c1,0,2.1-0.1,2.9-0.5c2.2-1.3,2.8-6,1-8
	c-0.2-0.3-0.5-0.5-0.9-0.7c-3-1.9-7.2-0.3-8,3.2C226.8,577.9,226.8,578.3,226.8,578.6z"/>
<path class="st3" d="M226.8,553.8c-0.5,0-0.9,0.1-1.4,0.2c-2.1,0.7-3.6,2.7-3.7,4.9c0,1,0.1,2.1,0.5,2.9c1.3,2.2,6,2.8,8,1
	c0.3-0.2,0.5-0.5,0.7-0.9c1.9-3.1,0.3-7.2-3.2-8C227.5,553.9,227.1,553.8,226.8,553.8z"/>
<path class="st3" d="M234.5,534c-0.5,0-0.9,0.1-1.4,0.2c-2.1,0.7-3.6,2.7-3.7,4.9c0,1,0.1,2.1,0.5,2.9c1.3,2.2,6,2.8,8,1
	c0.3-0.2,0.5-0.5,0.7-0.9c1.9-3.1,0.3-7.2-3.2-8C235.2,534.1,234.8,534,234.5,534z"/>
<path class="st3" d="M386,603.5c-0.2,0-0.5,0.1-0.7,0.1c-1.2,0.4-1.9,1.4-2,2.6c0,0.5,0,1.1,0.3,1.5c0.7,1.2,3.2,1.5,4.3,0.5
	c0.1-0.1,0.3-0.3,0.4-0.5c1-1.6,0.2-3.9-1.7-4.3C386.4,603.6,386.2,603.5,386,603.5z"/>
<path class="st3" d="M525.7,386.1c-0.5,0-0.9,0.1-1.4,0.2c-2.1,0.7-3.6,2.7-3.7,4.9c0,1,0.1,2.1,0.5,2.9c1.3,2.2,6,2.8,8,1
	c0.3-0.2,0.5-0.5,0.7-0.9c1.9-3.1,0.3-7.2-3.2-8C526.4,386.1,526,386.1,525.7,386.1z"/>
<path class="st3" d="M341,625.8c-0.4,0-0.7,0.1-1.1,0.2c-1.7,0.5-2.8,2.1-2.8,3.8c0,0.8,0.1,1.6,0.4,2.2c1,1.7,4.6,2.2,6.2,0.8
	c0.2-0.2,0.4-0.4,0.6-0.7c1.5-2.4,0.2-5.5-2.5-6.2C341.5,625.8,341.2,625.8,341,625.8z"/>
<path class="st3" d="M468.1,557.6c-0.4,0-0.8,0.1-1.1,0.2c-1.8,0.6-3,2.2-3,4c0,0.8,0.1,1.7,0.4,2.4c1.1,1.8,4.9,2.3,6.6,0.8
	c0.2-0.2,0.4-0.4,0.6-0.7c1.6-2.5,0.3-5.9-2.6-6.6C468.7,557.6,468.4,557.6,468.1,557.6z"/>
<path class="st4" d="M472.3,484.9c-0.5,0-0.9,0.1-1.4,0.2c-2.1,0.7-3.6,2.7-3.7,4.9c0,1,0.1,2.1,0.5,2.9c1.3,2.2,6,2.8,8,1
	c0.3-0.2,0.5-0.5,0.7-0.9c1.9-3.1,0.3-7.2-3.2-8C473,484.9,472.6,484.9,472.3,484.9z"/>
<path class="st3" d="M491.2,385.2c-0.5,0-1,0.1-1.5,0.3c-2.4,0.8-4,3-4.1,5.5c0,1.1,0.1,2.3,0.6,3.2c1.5,2.4,6.7,3.1,8.9,1.1
	c0.3-0.3,0.6-0.6,0.8-1c2.1-3.4,0.4-8-3.6-9C492,385.2,491.6,385.2,491.2,385.2z"/>
<path class="st3" d="M464,467.8c-0.5,0-0.9,0.1-1.4,0.2c-2.1,0.7-3.6,2.7-3.7,4.9c0,1,0.1,2.1,0.5,2.9c1.3,2.2,6,2.8,8,1
	c0.3-0.2,0.5-0.5,0.7-0.9c1.9-3.1,0.3-7.2-3.2-8C464.7,467.8,464.3,467.8,464,467.8z"/>
<path class="st3" d="M443.8,559.7c-0.2,0-0.5,0.1-0.7,0.1c-1.2,0.4-1.9,1.4-2,2.6c0,0.5,0,1.1,0.3,1.5c0.7,1.2,3.2,1.5,4.3,0.5
	c0.1-0.1,0.3-0.3,0.4-0.5c1-1.6,0.2-3.9-1.7-4.3C444.2,559.7,444,559.7,443.8,559.7z"/>
<path class="st4" d="M317.7,714.1c-0.2,0-0.5,0.1-0.7,0.1c-1.1,0.4-1.9,1.4-2,2.6c0,0.5,0,1.1,0.3,1.5c0.7,1.2,3.2,1.5,4.3,0.5
	c0.1-0.1,0.3-0.3,0.4-0.5c1-1.6,0.2-3.8-1.7-4.3C318,714.1,317.8,714.1,317.7,714.1z"/>
<path class="st4" d="M357,637c-0.5,0-0.9,0.1-1.4,0.2c-2.1,0.7-3.6,2.7-3.7,4.9c0,1,0.1,2.1,0.5,2.9c1.3,2.2,6,2.8,8,1
	c0.3-0.2,0.5-0.5,0.7-0.9c1.9-3.1,0.3-7.2-3.2-8C357.7,637,357.4,636.9,357,637z"/>
<path class="st3" d="M382.4,662.8c-0.2,0.3-0.3,0.7-0.4,1.1c-0.5,1.8,0.3,3.7,1.8,4.7c0.7,0.5,1.5,0.9,2.2,0.9
	c2.1,0,4.6-2.9,4.2-5.1c0-0.3-0.1-0.6-0.3-0.9c-1.3-2.7-4.9-3.4-7-1.3C382.7,662.3,382.6,662.5,382.4,662.8z"/>
<path class="st4" d="M386,623.1c-0.5,0-0.9,0.1-1.4,0.2c-2.1,0.7-3.6,2.7-3.7,4.9c0,1,0.1,2.1,0.5,2.9c1.3,2.2,6,2.8,8,1
	c0.3-0.2,0.5-0.5,0.7-0.9c1.9-3.1,0.3-7.2-3.2-8C386.7,623.2,386.4,623.1,386,623.1z"/>
<path class="st4" d="M408.3,632.8c-0.5,0-0.9,0.1-1.4,0.2c-2.1,0.7-3.6,2.7-3.7,4.9c0,1,0.1,2.1,0.5,2.9c1.3,2.2,6,2.8,8,1
	c0.3-0.2,0.5-0.5,0.7-0.9c1.9-3.1,0.3-7.2-3.2-8C409,632.8,408.6,632.8,408.3,632.8z"/>
<path class="st3" d="M340.9,651.4c-0.2,0-0.5,0.1-0.7,0.1c-1.2,0.4-1.9,1.4-2,2.6c0,0.5,0,1.1,0.3,1.5c0.7,1.2,3.2,1.5,4.3,0.5
	c0.1-0.1,0.3-0.3,0.4-0.5c1-1.6,0.2-3.9-1.7-4.3C341.3,651.4,341.1,651.4,340.9,651.4z"/>
<path class="st3" d="M525.7,352.9c-0.2,0-0.5,0.1-0.7,0.1c-1.2,0.4-1.9,1.4-2,2.6c0,0.5,0,1.1,0.3,1.5c0.7,1.2,3.2,1.5,4.3,0.5
	c0.1-0.1,0.3-0.3,0.4-0.5c1-1.6,0.2-3.9-1.7-4.3C526.1,352.9,525.9,352.9,525.7,352.9z"/>
<path class="st4" d="M377.8,555.4c-0.5,0-0.9,0.1-1.4,0.2c-2.1,0.7-3.6,2.7-3.7,4.9c0,1,0.1,2.1,0.5,2.9c1.3,2.2,6,2.8,8,1
	c0.3-0.2,0.5-0.5,0.7-0.9c1.9-3.1,0.3-7.2-3.2-8C378.5,555.4,378.1,555.4,377.8,555.4z"/>
<path class="st4" d="M471.7,534.9c-0.5,0-0.9,0.1-1.4,0.2c-2.1,0.7-3.6,2.7-3.7,4.9c0,1,0.1,2.1,0.5,2.9c1.3,2.2,6,2.8,8,1
	c0.3-0.2,0.5-0.5,0.7-0.9c1.9-3.1,0.3-7.2-3.2-8C472.4,534.9,472,534.9,471.7,534.9z"/>
<path class="st4" d="M357,609.2c-0.5,0-0.9,0.1-1.4,0.2c-2.1,0.7-3.6,2.7-3.7,4.9c0,1,0.1,2.1,0.5,2.9c1.3,2.2,6,2.8,8,1
	c0.3-0.2,0.5-0.5,0.7-0.9c1.9-3.1,0.3-7.2-3.2-8C357.7,609.2,357.4,609.2,357,609.2z"/>
<path class="st4" d="M449.5,586.3c-0.5,0-0.9,0.1-1.4,0.2c-2.1,0.7-3.6,2.7-3.7,4.9c0,1,0.1,2.1,0.5,2.9c1.3,2.2,6,2.8,8,1
	c0.3-0.2,0.5-0.5,0.7-0.9c1.9-3.1,0.3-7.2-3.2-8C450.2,586.4,449.9,586.3,449.5,586.3z"/>
<path class="st4" d="M530.7,419.2c-0.5,0-0.9,0.1-1.4,0.2c-2.1,0.7-3.6,2.7-3.7,4.9c0,1,0.1,2.1,0.5,2.9c1.3,2.2,6,2.8,8,1
	c0.3-0.2,0.5-0.5,0.7-0.9c1.9-3.1,0.3-7.2-3.2-8C531.4,419.2,531.1,419.2,530.7,419.2z"/>
<path class="st4" d="M429.4,596.4c-0.5,0-0.9,0.1-1.4,0.2c-2.1,0.7-3.6,2.7-3.7,4.9c0,1,0.1,2.1,0.5,2.9c1.3,2.2,6,2.8,8,1
	c0.3-0.2,0.5-0.5,0.7-0.9c1.9-3.1,0.3-7.2-3.2-8C430.1,596.5,429.7,596.4,429.4,596.4z"/>
<path class="st4" d="M408.3,596.4c-0.5,0-0.9,0.1-1.4,0.2c-2.1,0.7-3.6,2.7-3.7,4.9c0,1,0.1,2.1,0.5,2.9c1.3,2.2,6,2.8,8,1
	c0.3-0.2,0.5-0.5,0.7-0.9c1.9-3.1,0.3-7.2-3.2-8C409,596.5,408.6,596.4,408.3,596.4z"/>
<path class="st4" d="M385.5,626.3c0,0.5,0.1,0.9,0.2,1.4c0.7,2.1,2.7,3.6,4.9,3.7c1,0,2.1-0.1,2.9-0.5c2.2-1.3,2.8-6,1-8
	c-0.2-0.3-0.5-0.5-0.9-0.7c-3-1.9-7.2-0.3-8,3.2C385.5,625.6,385.5,625.9,385.5,626.3z"/>
<path class="st3" d="M385.5,601.5c-0.5,0-0.9,0.1-1.4,0.2c-2.1,0.7-3.6,2.7-3.7,4.9c0,1,0.1,2.1,0.5,2.9c1.3,2.2,6,2.8,8,1
	c0.3-0.2,0.5-0.5,0.7-0.9c1.9-3.1,0.3-7.2-3.2-8C386.2,601.5,385.9,601.5,385.5,601.5z"/>
<path class="st3" d="M393.2,581.7c-0.5,0-0.9,0.1-1.4,0.2c-2.1,0.7-3.6,2.7-3.7,4.9c0,1,0.1,2.1,0.5,2.9c1.3,2.2,6,2.8,8,1
	c0.3-0.2,0.5-0.5,0.7-0.9c1.9-3.1,0.3-7.2-3.2-8C393.9,581.7,393.6,581.7,393.2,581.7z"/>
<path class="st3" d="M202.9,636.7c-0.5,0-0.9,0.1-1.4,0.2c-2.1,0.7-3.6,2.7-3.7,4.9c0,1,0.1,2.1,0.5,2.9c1.3,2.2,6,2.8,8,1
	c0.3-0.2,0.5-0.5,0.7-0.9c1.9-3.1,0.3-7.2-3.2-8C203.5,636.7,203.2,636.7,202.9,636.7z"/>
<path class="st3" d="M182.1,612.4c-0.2,0-0.5,0.1-0.7,0.1c-1.2,0.4-1.9,1.4-2,2.6c0,0.5,0,1.1,0.3,1.5c0.7,1.2,3.2,1.5,4.3,0.5
	c0.1-0.1,0.3-0.3,0.4-0.5c1-1.6,0.2-3.9-1.7-4.3C182.5,612.4,182.3,612.4,182.1,612.4z"/>
<path class="st3" d="M212.5,602.2c-0.2,0.3-0.3,0.7-0.4,1.1c-0.5,1.8,0.3,3.7,1.8,4.7c0.7,0.5,1.5,0.9,2.2,0.9
	c2.1,0,4.6-2.9,4.2-5.1c0-0.3-0.1-0.6-0.3-0.9c-1.3-2.7-4.9-3.4-7-1.3C212.8,601.8,212.7,602,212.5,602.2z"/>
<path class="st3" d="M202.8,620.7c-0.2,0-0.5,0.1-0.7,0.1c-1.2,0.4-1.9,1.4-2,2.6c0,0.5,0,1.1,0.3,1.5c0.7,1.2,3.2,1.5,4.3,0.5
	c0.1-0.1,0.3-0.3,0.4-0.5c1-1.6,0.2-3.9-1.7-4.3C203.2,620.7,203,620.7,202.8,620.7z"/>
<path class="st3" d="M220.4,474.3c-0.5,0-0.9,0.1-1.4,0.2c-2.1,0.7-3.6,2.7-3.7,4.9c0,1,0.1,2.1,0.5,2.9c1.3,2.2,6,2.8,8,1
	c0.3-0.2,0.5-0.5,0.7-0.9c1.9-3.1,0.3-7.2-3.2-8C221.1,474.4,220.8,474.3,220.4,474.3z"/>
<path class="st3" d="M213.9,431.2c-0.4,0-0.8,0.1-1.1,0.2c-1.8,0.6-3,2.2-3,4c0,0.8,0.1,1.7,0.4,2.4c1.1,1.8,4.9,2.3,6.6,0.8
	c0.2-0.2,0.4-0.4,0.6-0.7c1.6-2.5,0.3-5.9-2.6-6.6C214.5,431.2,214.2,431.2,213.9,431.2z"/>
<path class="st3" d="M199.7,450c-0.2,0-0.5,0.1-0.7,0.1c-1.2,0.4-1.9,1.4-2,2.6c0,0.5,0,1.1,0.3,1.5c0.7,1.2,3.2,1.5,4.3,0.5
	c0.1-0.1,0.3-0.3,0.4-0.5c1-1.6,0.2-3.9-1.7-4.3C200.1,450,199.9,450,199.7,450z"/>
<path class="st3" d="M230.1,439.9c-0.2,0.3-0.3,0.7-0.4,1.1c-0.5,1.8,0.3,3.7,1.8,4.7c0.7,0.5,1.5,0.9,2.2,0.9
	c2.1,0,4.6-2.9,4.2-5.1c0-0.3-0.1-0.6-0.3-0.9c-1.3-2.7-4.9-3.4-7-1.3C230.4,439.4,230.3,439.6,230.1,439.9z"/>
<path class="st3" d="M188.6,428.5c-0.2,0-0.5,0.1-0.7,0.1c-1.2,0.4-1.9,1.4-2,2.6c0,0.5,0,1.1,0.3,1.5c0.7,1.2,3.2,1.5,4.3,0.5
	c0.1-0.1,0.3-0.3,0.4-0.5c1-1.6,0.2-3.9-1.7-4.3C189,428.5,188.8,428.5,188.6,428.5z"/>
<path class="st3" d="M220.4,458.3c-0.2,0-0.5,0.1-0.7,0.1c-1.2,0.4-1.9,1.4-2,2.6c0,0.5,0,1.1,0.3,1.5c0.7,1.2,3.2,1.5,4.3,0.5
	c0.1-0.1,0.3-0.3,0.4-0.5c1-1.6,0.2-3.9-1.7-4.3C220.8,458.4,220.6,458.3,220.4,458.3z"/>
<path class="st3" d="M231.7,691.9c-0.5,0-0.9,0.1-1.4,0.2c-2.1,0.7-3.6,2.7-3.7,4.9c0,1,0.1,2.1,0.5,2.9c1.3,2.2,6,2.8,8,1
	c0.3-0.2,0.5-0.5,0.7-0.9c1.9-3.1,0.3-7.2-3.2-8C232.4,692,232,691.9,231.7,691.9z"/>
<path class="st3" d="M225.2,648.8c-0.4,0-0.8,0.1-1.1,0.2c-1.8,0.6-3,2.2-3,4c0,0.8,0.1,1.7,0.4,2.4c1.1,1.8,4.9,2.3,6.6,0.8
	c0.2-0.2,0.4-0.4,0.6-0.7c1.6-2.5,0.3-5.9-2.6-6.6C225.7,648.8,225.4,648.8,225.2,648.8z"/>
<path class="st3" d="M210.9,667.6c-0.2,0-0.5,0.1-0.7,0.1c-1.2,0.4-1.9,1.4-2,2.6c0,0.5,0,1.1,0.3,1.5c0.7,1.2,3.2,1.5,4.3,0.5
	c0.1-0.1,0.3-0.3,0.4-0.5c1-1.6,0.2-3.9-1.7-4.3C211.3,667.6,211.1,667.6,210.9,667.6z"/>
<path class="st3" d="M241.3,657.5c-0.2,0.3-0.3,0.7-0.4,1.1c-0.5,1.8,0.3,3.7,1.8,4.7c0.7,0.5,1.5,0.9,2.2,0.9
	c2.1,0,4.6-2.9,4.2-5.1c0-0.3-0.1-0.6-0.3-0.9c-1.3-2.7-4.9-3.4-7-1.3C241.7,657,241.5,657.2,241.3,657.5z"/>
<path class="st3" d="M199.9,646.1c-0.2,0-0.5,0.1-0.7,0.1c-1.2,0.4-1.9,1.4-2,2.6c0,0.5,0,1.1,0.3,1.5c0.7,1.2,3.2,1.5,4.3,0.5
	c0.1-0.1,0.3-0.3,0.4-0.5c1-1.6,0.2-3.9-1.7-4.3C200.2,646.1,200.1,646.1,199.9,646.1z"/>
<path class="st3" d="M231.7,675.9c-0.2,0-0.5,0.1-0.7,0.1c-1.2,0.4-1.9,1.4-2,2.6c0,0.5,0,1.1,0.3,1.5c0.7,1.2,3.2,1.5,4.3,0.5
	c0.1-0.1,0.3-0.3,0.4-0.5c1-1.6,0.2-3.9-1.7-4.3C232.1,675.9,231.9,675.9,231.7,675.9z"/>
<path class="st4" d="M303.3,516c-0.5,0-0.9,0.1-1.4,0.2c-2.1,0.7-3.6,2.7-3.7,4.9c0,1,0.1,2.1,0.5,2.9c1.3,2.2,6,2.8,8,1
	c0.3-0.2,0.5-0.5,0.7-0.9c1.9-3.1,0.3-7.2-3.2-8C304,516,303.6,516,303.3,516z"/>
<path class="st3" d="M295,498.9c-0.5,0-0.9,0.1-1.4,0.2c-2.1,0.7-3.6,2.7-3.7,4.9c0,1,0.1,2.1,0.5,2.9c1.3,2.2,6,2.8,8,1
	c0.3-0.2,0.5-0.5,0.7-0.9c1.9-3.1,0.3-7.2-3.2-8C295.7,498.9,295.3,498.9,295,498.9z"/>
<path class="st4" d="M253.8,540.9c-0.2,0-0.5,0.1-0.7,0.1c-1.1,0.4-1.9,1.4-2,2.6c0,0.5,0,1.1,0.3,1.5c0.7,1.2,3.2,1.5,4.3,0.5
	c0.1-0.1,0.3-0.3,0.4-0.5c1-1.6,0.2-3.8-1.7-4.3C254.1,540.9,254,540.9,253.8,540.9z"/>
<path class="st4" d="M268.8,505.4c-0.5,0-0.9,0.1-1.4,0.2c-2.1,0.7-3.6,2.7-3.7,4.9c0,1,0.1,2.1,0.5,2.9c1.3,2.2,6,2.8,8,1
	c0.3-0.2,0.5-0.5,0.7-0.9c1.9-3.1,0.3-7.2-3.2-8C269.5,505.4,269.2,505.3,268.8,505.4z"/>
<path class="st4" d="M310.7,490c-0.5,0-0.9,0.1-1.4,0.2c-2.1,0.7-3.6,2.7-3.7,4.9c0,1,0.1,2.1,0.5,2.9c1.3,2.2,6,2.8,8,1
	c0.3-0.2,0.5-0.5,0.7-0.9c1.9-3.1,0.3-7.2-3.2-8C311.4,490,311.1,490,310.7,490z"/>
<path class="st4" d="M289.9,543.8c-0.5,0-0.9,0.1-1.4,0.2c-2.1,0.7-3.6,2.7-3.7,4.9c0,1,0.1,2.1,0.5,2.9c1.3,2.2,6,2.8,8,1
	c0.3-0.2,0.5-0.5,0.7-0.9c1.9-3.1,0.3-7.2-3.2-8C290.6,543.8,290.3,543.8,289.9,543.8z"/>
<path class="st4" d="M271.1,485c-0.5,0-0.9,0.1-1.4,0.2c-2.1,0.7-3.6,2.7-3.7,4.9c0,1,0.1,2.1,0.5,2.9c1.3,2.2,6,2.8,8,1
	c0.3-0.2,0.5-0.5,0.7-0.9c1.9-3.1,0.3-7.2-3.2-8C271.8,485,271.5,484.9,271.1,485z"/>
<path class="st4" d="M289.9,469c-0.5,0-0.9,0.1-1.4,0.2c-2.1,0.7-3.6,2.7-3.7,4.9c0,1,0.1,2.1,0.5,2.9c1.3,2.2,6,2.8,8,1
	c0.3-0.2,0.5-0.5,0.7-0.9c1.9-3.1,0.3-7.2-3.2-8C290.6,469,290.3,469,289.9,469z"/>
<path class="st4" d="M268.8,469c-0.5,0-0.9,0.1-1.4,0.2c-2.1,0.7-3.6,2.7-3.7,4.9c0,1,0.1,2.1,0.5,2.9c1.3,2.2,6,2.8,8,1
	c0.3-0.2,0.5-0.5,0.7-0.9c1.9-3.1,0.3-7.2-3.2-8C269.5,469,269.2,469,268.8,469z"/>
<path class="st4" d="M246.1,498.8c0,0.5,0.1,0.9,0.2,1.4c0.7,2.1,2.7,3.6,4.9,3.7c1,0,2.1-0.1,2.9-0.5c2.2-1.3,2.8-6,1-8
	c-0.2-0.3-0.5-0.5-0.9-0.7c-3-1.9-7.2-0.3-8,3.2C246.1,498.1,246,498.5,246.1,498.8z"/>
<path class="st3" d="M246.1,474c-0.5,0-0.9,0.1-1.4,0.2c-2.1,0.7-3.6,2.7-3.7,4.9c0,1,0.1,2.1,0.5,2.9c1.3,2.2,6,2.8,8,1
	c0.3-0.2,0.5-0.5,0.7-0.9c1.9-3.1,0.3-7.2-3.2-8C246.8,474.1,246.4,474,246.1,474z"/>
<path class="st3" d="M253.8,454.2c-0.5,0-0.9,0.1-1.4,0.2c-2.1,0.7-3.6,2.7-3.7,4.9c0,1,0.1,2.1,0.5,2.9c1.3,2.2,6,2.8,8,1
	c0.3-0.2,0.5-0.5,0.7-0.9c1.9-3.1,0.3-7.2-3.2-8C254.5,454.3,254.1,454.2,253.8,454.2z"/>
<path class="st3" d="M342.8,486.2c-0.2,0-0.5,0.1-0.7,0.1c-1.2,0.4-1.9,1.4-2,2.6c0,0.5,0,1.1,0.3,1.5c0.7,1.2,3.2,1.5,4.3,0.5
	c0.1-0.1,0.3-0.3,0.4-0.5c1-1.6,0.2-3.9-1.7-4.3C343.2,486.2,343,486.2,342.8,486.2z"/>
<path class="st3" d="M297.7,508.4c-0.4,0-0.7,0.1-1.1,0.2c-1.7,0.5-2.8,2.1-2.8,3.8c0,0.8,0.1,1.6,0.4,2.2c1,1.7,4.6,2.2,6.2,0.8
	c0.2-0.2,0.4-0.4,0.6-0.7c1.5-2.4,0.2-5.5-2.5-6.2C298.2,508.4,298,508.4,297.7,508.4z"/>
<path class="st4" d="M327.1,464c-0.5,0-0.9,0.1-1.4,0.2c-2.1,0.7-3.6,2.7-3.7,4.9c0,1,0.1,2.1,0.5,2.9c1.3,2.2,6,2.8,8,1
	c0.3-0.2,0.5-0.5,0.7-0.9c1.9-3.1,0.3-7.2-3.2-8C327.8,464.1,327.5,464,327.1,464z"/>
<path class="st3" d="M361,463.4c-0.5,0-1,0.1-1.5,0.3c-2.4,0.8-4,3-4.1,5.5c0,1.1,0.1,2.3,0.6,3.2c1.5,2.4,6.7,3.1,8.9,1.1
	c0.3-0.3,0.6-0.6,0.8-1c2.1-3.4,0.4-8-3.6-9C361.8,463.5,361.4,463.4,361,463.4z"/>
<path class="st3" d="M318.8,446.9c-0.5,0-0.9,0.1-1.4,0.2c-2.1,0.7-3.6,2.7-3.7,4.9c0,1,0.1,2.1,0.5,2.9c1.3,2.2,6,2.8,8,1
	c0.3-0.2,0.5-0.5,0.7-0.9c1.9-3.1,0.3-7.2-3.2-8C319.5,446.9,319.2,446.9,318.8,446.9z"/>
<path class="st4" d="M277.6,488.9c-0.2,0-0.5,0.1-0.7,0.1c-1.1,0.4-1.9,1.4-2,2.6c0,0.5,0,1.1,0.3,1.5c0.7,1.2,3.2,1.5,4.3,0.5
	c0.1-0.1,0.3-0.3,0.4-0.5c1-1.6,0.2-3.8-1.7-4.3C278,488.9,277.8,488.9,277.6,488.9z"/>
<path class="st4" d="M342.8,505.7c-0.5,0-0.9,0.1-1.4,0.2c-2.1,0.7-3.6,2.7-3.7,4.9c0,1,0.1,2.1,0.5,2.9c1.3,2.2,6,2.8,8,1
	c0.3-0.2,0.5-0.5,0.7-0.9c1.9-3.1,0.3-7.2-3.2-8C343.5,505.8,343.1,505.7,342.8,505.7z"/>
<path class="st4" d="M292.7,453.4c-0.5,0-0.9,0.1-1.4,0.2c-2.1,0.7-3.6,2.7-3.7,4.9c0,1,0.1,2.1,0.5,2.9c1.3,2.2,6,2.8,8,1
	c0.3-0.2,0.5-0.5,0.7-0.9c1.9-3.1,0.3-7.2-3.2-8C293.4,453.4,293,453.4,292.7,453.4z"/>
<path class="st4" d="M334.6,438c-0.5,0-0.9,0.1-1.4,0.2c-2.1,0.7-3.6,2.7-3.7,4.9c0,1,0.1,2.1,0.5,2.9c1.3,2.2,6,2.8,8,1
	c0.3-0.2,0.5-0.5,0.7-0.9c1.9-3.1,0.3-7.2-3.2-8C335.2,438.1,334.9,438,334.6,438z"/>
<path class="st4" d="M313.8,491.8c-0.5,0-0.9,0.1-1.4,0.2c-2.1,0.7-3.6,2.7-3.7,4.9c0,1,0.1,2.1,0.5,2.9c1.3,2.2,6,2.8,8,1
	c0.3-0.2,0.5-0.5,0.7-0.9c1.9-3.1,0.3-7.2-3.2-8C314.5,491.8,314.1,491.8,313.8,491.8z"/>
<path class="st4" d="M295,433c-0.5,0-0.9,0.1-1.4,0.2c-2.1,0.7-3.6,2.7-3.7,4.9c0,1,0.1,2.1,0.5,2.9c1.3,2.2,6,2.8,8,1
	c0.3-0.2,0.5-0.5,0.7-0.9c1.9-3.1,0.3-7.2-3.2-8C295.7,433,295.3,433,295,433z"/>
<path class="st4" d="M355.4,441.9c-0.5,0-0.9,0.1-1.4,0.2c-2.1,0.7-3.6,2.7-3.7,4.9c0,1,0.1,2.1,0.5,2.9c1.3,2.2,6,2.8,8,1
	c0.3-0.2,0.5-0.5,0.7-0.9c1.9-3.1,0.3-7.2-3.2-8C356,441.9,355.7,441.9,355.4,441.9z"/>
<path class="st4" d="M313.8,417c-0.5,0-0.9,0.1-1.4,0.2c-2.1,0.7-3.6,2.7-3.7,4.9c0,1,0.1,2.1,0.5,2.9c1.3,2.2,6,2.8,8,1
	c0.3-0.2,0.5-0.5,0.7-0.9c1.9-3.1,0.3-7.2-3.2-8C314.5,417.1,314.1,417,313.8,417z"/>
<path class="st4" d="M292.7,417c-0.5,0-0.9,0.1-1.4,0.2c-2.1,0.7-3.6,2.7-3.7,4.9c0,1,0.1,2.1,0.5,2.9c1.3,2.2,6,2.8,8,1
	c0.3-0.2,0.5-0.5,0.7-0.9c1.9-3.1,0.3-7.2-3.2-8C293.4,417.1,293,417,292.7,417z"/>
<path class="st4" d="M269.9,446.9c0,0.5,0.1,0.9,0.2,1.4c0.7,2.1,2.7,3.6,4.9,3.7c1,0,2.1-0.1,2.9-0.5c2.2-1.3,2.8-6,1-8
	c-0.2-0.3-0.5-0.5-0.9-0.7c-3-1.9-7.2-0.3-8,3.2C269.9,446.2,269.9,446.5,269.9,446.9z"/>
<path class="st3" d="M269.9,422.1c-0.5,0-0.9,0.1-1.4,0.2c-2.1,0.7-3.6,2.7-3.7,4.9c0,1,0.1,2.1,0.5,2.9c1.3,2.2,6,2.8,8,1
	c0.3-0.2,0.5-0.5,0.7-0.9c1.9-3.1,0.3-7.2-3.2-8C270.6,422.1,270.3,422.1,269.9,422.1z"/>
<path class="st3" d="M277.6,402.3c-0.5,0-0.9,0.1-1.4,0.2c-2.1,0.7-3.6,2.7-3.7,4.9c0,1,0.1,2.1,0.5,2.9c1.3,2.2,6,2.8,8,1
	c0.3-0.2,0.5-0.5,0.7-0.9c1.9-3.1,0.3-7.2-3.2-8C278.3,402.3,278,402.3,277.6,402.3z"/>
<path class="st3" d="M356.6,694.6c-0.2,0-0.5,0.1-0.7,0.1c-1.2,0.4-1.9,1.4-2,2.6c0,0.5,0,1.1,0.3,1.5c0.7,1.2,3.2,1.5,4.3,0.5
	c0.1-0.1,0.3-0.3,0.4-0.5c1-1.6,0.2-3.9-1.7-4.3C356.9,694.6,356.7,694.6,356.6,694.6z"/>
<path class="st3" d="M311.5,716.8c-0.4,0-0.7,0.1-1.1,0.2c-1.7,0.5-2.8,2.1-2.8,3.8c0,0.8,0.1,1.6,0.4,2.2c1,1.7,4.6,2.2,6.2,0.8
	c0.2-0.2,0.4-0.4,0.6-0.7c1.5-2.4,0.2-5.5-2.5-6.2C312,716.8,311.7,716.8,311.5,716.8z"/>
<path class="st4" d="M340.9,672.5c-0.5,0-0.9,0.1-1.4,0.2c-2.1,0.7-3.6,2.7-3.7,4.9c0,1,0.1,2.1,0.5,2.9c1.3,2.2,6,2.8,8,1
	c0.3-0.2,0.5-0.5,0.7-0.9c1.9-3.1,0.3-7.2-3.2-8C341.6,672.5,341.2,672.4,340.9,672.5z"/>
<path class="st3" d="M374.8,671.9c-0.5,0-1,0.1-1.5,0.3c-2.4,0.8-4,3-4.1,5.5c0,1.1,0.1,2.3,0.6,3.2c1.5,2.4,6.7,3.1,8.9,1.1
	c0.3-0.3,0.6-0.6,0.8-1c2.1-3.4,0.4-8-3.6-9C375.5,671.9,375.1,671.9,374.8,671.9z"/>
<path class="st3" d="M332.6,655.3c-0.5,0-0.9,0.1-1.4,0.2c-2.1,0.7-3.6,2.7-3.7,4.9c0,1,0.1,2.1,0.5,2.9c1.3,2.2,6,2.8,8,1
	c0.3-0.2,0.5-0.5,0.7-0.9c1.9-3.1,0.3-7.2-3.2-8C333.3,655.4,332.9,655.3,332.6,655.3z"/>
<path class="st4" d="M291.4,697.3c-0.2,0-0.5,0.1-0.7,0.1c-1.1,0.4-1.9,1.4-2,2.6c0,0.5,0,1.1,0.3,1.5c0.7,1.2,3.2,1.5,4.3,0.5
	c0.1-0.1,0.3-0.3,0.4-0.5c1-1.6,0.2-3.8-1.7-4.3C291.7,697.3,291.6,697.3,291.4,697.3z"/>
<path class="st4" d="M371.1,655.9c-0.5,0-0.9,0.1-1.4,0.2c-2.1,0.7-3.6,2.7-3.7,4.9c0,1,0.1,2.1,0.5,2.9c1.3,2.2,6,2.8,8,1
	c0.3-0.2,0.5-0.5,0.7-0.9c1.9-3.1,0.3-7.2-3.2-8C371.8,655.9,371.4,655.9,371.1,655.9z"/>
<path class="st4" d="M306.4,661.8c-0.5,0-0.9,0.1-1.4,0.2c-2.1,0.7-3.6,2.7-3.7,4.9c0,1,0.1,2.1,0.5,2.9c1.3,2.2,6,2.8,8,1
	c0.3-0.2,0.5-0.5,0.7-0.9c1.9-3.1,0.3-7.2-3.2-8C307.1,661.8,306.8,661.8,306.4,661.8z"/>
<path class="st4" d="M348.3,646.4c-0.5,0-0.9,0.1-1.4,0.2c-2.1,0.7-3.6,2.7-3.7,4.9c0,1,0.1,2.1,0.5,2.9c1.3,2.2,6,2.8,8,1
	c0.3-0.2,0.5-0.5,0.7-0.9c1.9-3.1,0.3-7.2-3.2-8C349,646.5,348.7,646.4,348.3,646.4z"/>
<path class="st4" d="M327.6,700.2c-0.5,0-0.9,0.1-1.4,0.2c-2.1,0.7-3.6,2.7-3.7,4.9c0,1,0.1,2.1,0.5,2.9c1.3,2.2,6,2.8,8,1
	c0.3-0.2,0.5-0.5,0.7-0.9c1.9-3.1,0.3-7.2-3.2-8C328.2,700.3,327.9,700.2,327.6,700.2z"/>
<path class="st4" d="M308.7,641.4c-0.5,0-0.9,0.1-1.4,0.2c-2.1,0.7-3.6,2.7-3.7,4.9c0,1,0.1,2.1,0.5,2.9c1.3,2.2,6,2.8,8,1
	c0.3-0.2,0.5-0.5,0.7-0.9c1.9-3.1,0.3-7.2-3.2-8C309.4,641.4,309.1,641.4,308.7,641.4z"/>
<path class="st4" d="M369.1,650.3c-0.5,0-0.9,0.1-1.4,0.2c-2.1,0.7-3.6,2.7-3.7,4.9c0,1,0.1,2.1,0.5,2.9c1.3,2.2,6,2.8,8,1
	c0.3-0.2,0.5-0.5,0.7-0.9c1.9-3.1,0.3-7.2-3.2-8C369.8,650.3,369.5,650.3,369.1,650.3z"/>
<path class="st4" d="M327.6,625.4c-0.5,0-0.9,0.1-1.4,0.2c-2.1,0.7-3.6,2.7-3.7,4.9c0,1,0.1,2.1,0.5,2.9c1.3,2.2,6,2.8,8,1
	c0.3-0.2,0.5-0.5,0.7-0.9c1.9-3.1,0.3-7.2-3.2-8C328.2,625.5,327.9,625.4,327.6,625.4z"/>
<path class="st4" d="M306.4,625.4c-0.5,0-0.9,0.1-1.4,0.2c-2.1,0.7-3.6,2.7-3.7,4.9c0,1,0.1,2.1,0.5,2.9c1.3,2.2,6,2.8,8,1
	c0.3-0.2,0.5-0.5,0.7-0.9c1.9-3.1,0.3-7.2-3.2-8C307.1,625.5,306.8,625.4,306.4,625.4z"/>
<path class="st4" d="M283.7,655.3c0,0.5,0.1,0.9,0.2,1.4c0.7,2.1,2.7,3.6,4.9,3.7c1,0,2.1-0.1,2.9-0.5c2.2-1.3,2.8-6,1-8
	c-0.2-0.3-0.5-0.5-0.9-0.7c-3-1.9-7.2-0.3-8,3.2C283.7,654.6,283.7,654.9,283.7,655.3z"/>
<path class="st3" d="M283.7,630.5c-0.5,0-0.9,0.1-1.4,0.2c-2.1,0.7-3.6,2.7-3.7,4.9c0,1,0.1,2.1,0.5,2.9c1.3,2.2,6,2.8,8,1
	c0.3-0.2,0.5-0.5,0.7-0.9c1.9-3.1,0.3-7.2-3.2-8C284.4,630.5,284,630.5,283.7,630.5z"/>
<path class="st3" d="M291.4,610.7c-0.5,0-0.9,0.1-1.4,0.2c-2.1,0.7-3.6,2.7-3.7,4.9c0,1,0.1,2.1,0.5,2.9c1.3,2.2,6,2.8,8,1
	c0.3-0.2,0.5-0.5,0.7-0.9c1.9-3.1,0.3-7.2-3.2-8C292.1,610.7,291.7,610.7,291.4,610.7z"/>
<path class="st3" d="M407.4,613.5c-0.2,0-0.5,0.1-0.7,0.1c-1.2,0.4-1.9,1.4-2,2.6c0,0.5,0,1.1,0.3,1.5c0.7,1.2,3.2,1.5,4.3,0.5
	c0.1-0.1,0.3-0.3,0.4-0.5c1-1.6,0.2-3.9-1.7-4.3C407.8,613.5,407.6,613.5,407.4,613.5z"/>
<path class="st3" d="M362.3,635.7c-0.4,0-0.7,0.1-1.1,0.2c-1.7,0.5-2.8,2.1-2.8,3.8c0,0.8,0.1,1.6,0.4,2.2c1,1.7,4.6,2.2,6.2,0.8
	c0.2-0.2,0.4-0.4,0.6-0.7c1.5-2.4,0.2-5.5-2.5-6.2C362.9,635.8,362.6,635.7,362.3,635.7z"/>
<path class="st4" d="M391.8,591.4c-0.5,0-0.9,0.1-1.4,0.2c-2.1,0.7-3.6,2.7-3.7,4.9c0,1,0.1,2.1,0.5,2.9c1.3,2.2,6,2.8,8,1
	c0.3-0.2,0.5-0.5,0.7-0.9c1.9-3.1,0.3-7.2-3.2-8C392.5,591.4,392.1,591.4,391.8,591.4z"/>
<path class="st3" d="M425.6,590.8c-0.5,0-1,0.1-1.5,0.3c-2.4,0.8-4,3-4.1,5.5c0,1.1,0.1,2.3,0.6,3.2c1.5,2.4,6.7,3.1,8.9,1.1
	c0.3-0.3,0.6-0.6,0.8-1c2.1-3.4,0.4-8-3.6-9C426.4,590.8,426,590.8,425.6,590.8z"/>
<path class="st3" d="M383.5,574.2c-0.5,0-0.9,0.1-1.4,0.2c-2.1,0.7-3.6,2.7-3.7,4.9c0,1,0.1,2.1,0.5,2.9c1.3,2.2,6,2.8,8,1
	c0.3-0.2,0.5-0.5,0.7-0.9c1.9-3.1,0.3-7.2-3.2-8C384.2,574.3,383.8,574.2,383.5,574.2z"/>
<path class="st4" d="M342.3,616.2c-0.2,0-0.5,0.1-0.7,0.1c-1.1,0.4-1.9,1.4-2,2.6c0,0.5,0,1.1,0.3,1.5c0.7,1.2,3.2,1.5,4.3,0.5
	c0.1-0.1,0.3-0.3,0.4-0.5c1-1.6,0.2-3.8-1.7-4.3C342.6,616.2,342.4,616.2,342.3,616.2z"/>
<path class="st4" d="M407.4,633.1c-0.5,0-0.9,0.1-1.4,0.2c-2.1,0.7-3.6,2.7-3.7,4.9c0,1,0.1,2.1,0.5,2.9c1.3,2.2,6,2.8,8,1
	c0.3-0.2,0.5-0.5,0.7-0.9c1.9-3.1,0.3-7.2-3.2-8C408.1,633.1,407.8,633.1,407.4,633.1z"/>
<path class="st4" d="M357.3,580.7c-0.5,0-0.9,0.1-1.4,0.2c-2.1,0.7-3.6,2.7-3.7,4.9c0,1,0.1,2.1,0.5,2.9c1.3,2.2,6,2.8,8,1
	c0.3-0.2,0.5-0.5,0.7-0.9c1.9-3.1,0.3-7.2-3.2-8C358,580.8,357.7,580.7,357.3,580.7z"/>
<path class="st4" d="M399.2,565.3c-0.5,0-0.9,0.1-1.4,0.2c-2.1,0.7-3.6,2.7-3.7,4.9c0,1,0.1,2.1,0.5,2.9c1.3,2.2,6,2.8,8,1
	c0.3-0.2,0.5-0.5,0.7-0.9c1.9-3.1,0.3-7.2-3.2-8C399.9,565.4,399.5,565.3,399.2,565.3z"/>
<path class="st4" d="M378.4,619.1c-0.5,0-0.9,0.1-1.4,0.2c-2.1,0.7-3.6,2.7-3.7,4.9c0,1,0.1,2.1,0.5,2.9c1.3,2.2,6,2.8,8,1
	c0.3-0.2,0.5-0.5,0.7-0.9c1.9-3.1,0.3-7.2-3.2-8C379.1,619.2,378.8,619.1,378.4,619.1z"/>
<path class="st4" d="M359.6,560.3c-0.5,0-0.9,0.1-1.4,0.2c-2.1,0.7-3.6,2.7-3.7,4.9c0,1,0.1,2.1,0.5,2.9c1.3,2.2,6,2.8,8,1
	c0.3-0.2,0.5-0.5,0.7-0.9c1.9-3.1,0.3-7.2-3.2-8C360.3,560.4,360,560.3,359.6,560.3z"/>
<path class="st4" d="M420,569.2c-0.5,0-0.9,0.1-1.4,0.2c-2.1,0.7-3.6,2.7-3.7,4.9c0,1,0.1,2.1,0.5,2.9c1.3,2.2,6,2.8,8,1
	c0.3-0.2,0.5-0.5,0.7-0.9c1.9-3.1,0.3-7.2-3.2-8C420.7,569.2,420.3,569.2,420,569.2z"/>
<path class="st4" d="M378.4,544.4c-0.5,0-0.9,0.1-1.4,0.2c-2.1,0.7-3.6,2.7-3.7,4.9c0,1,0.1,2.1,0.5,2.9c1.3,2.2,6,2.8,8,1
	c0.3-0.2,0.5-0.5,0.7-0.9c1.9-3.1,0.3-7.2-3.2-8C379.1,544.4,378.8,544.4,378.4,544.4z"/>
<path class="st4" d="M357.3,544.4c-0.5,0-0.9,0.1-1.4,0.2c-2.1,0.7-3.6,2.7-3.7,4.9c0,1,0.1,2.1,0.5,2.9c1.3,2.2,6,2.8,8,1
	c0.3-0.2,0.5-0.5,0.7-0.9c1.9-3.1,0.3-7.2-3.2-8C358,544.4,357.7,544.4,357.3,544.4z"/>
<path class="st4" d="M334.5,574.2c0,0.5,0.1,0.9,0.2,1.4c0.7,2.1,2.7,3.6,4.9,3.7c1,0,2.1-0.1,2.9-0.5c2.2-1.3,2.8-6,1-8
	c-0.2-0.3-0.5-0.5-0.9-0.7c-3-1.9-7.2-0.3-8,3.2C334.6,573.5,334.5,573.9,334.5,574.2z"/>
<path class="st3" d="M334.6,549.4c-0.5,0-0.9,0.1-1.4,0.2c-2.1,0.7-3.6,2.7-3.7,4.9c0,1,0.1,2.1,0.5,2.9c1.3,2.2,6,2.8,8,1
	c0.3-0.2,0.5-0.5,0.7-0.9c1.9-3.1,0.3-7.2-3.2-8C335.2,549.4,334.9,549.4,334.6,549.4z"/>
<path class="st3" d="M342.3,529.6c-0.5,0-0.9,0.1-1.4,0.2c-2.1,0.7-3.6,2.7-3.7,4.9c0,1,0.1,2.1,0.5,2.9c1.3,2.2,6,2.8,8,1
	c0.3-0.2,0.5-0.5,0.7-0.9c1.9-3.1,0.3-7.2-3.2-8C343,529.6,342.6,529.6,342.3,529.6z"/>
<path class="st3" d="M281.1,470c-0.2,0-0.5,0.1-0.7,0.1c-1.2,0.4-1.9,1.4-2,2.6c0,0.5,0,1.1,0.3,1.5c0.7,1.2,3.2,1.5,4.3,0.5
	c0.1-0.1,0.3-0.3,0.4-0.5c1-1.6,0.2-3.9-1.7-4.3C281.5,470,281.3,470,281.1,470z"/>
<path class="st3" d="M236,492.2c-0.4,0-0.7,0.1-1.1,0.2c-1.7,0.5-2.8,2.1-2.8,3.8c0,0.8,0.1,1.6,0.4,2.2c1,1.7,4.6,2.2,6.2,0.8
	c0.2-0.2,0.4-0.4,0.6-0.7c1.5-2.4,0.2-5.5-2.5-6.2C236.5,492.3,236.3,492.2,236,492.2z"/>
<path class="st4" d="M265.4,447.9c-0.5,0-0.9,0.1-1.4,0.2c-2.1,0.7-3.6,2.7-3.7,4.9c0,1,0.1,2.1,0.5,2.9c1.3,2.2,6,2.8,8,1
	c0.3-0.2,0.5-0.5,0.7-0.9c1.9-3.1,0.3-7.2-3.2-8C266.1,447.9,265.8,447.9,265.4,447.9z"/>
<path class="st3" d="M299.3,447.3c-0.5,0-1,0.1-1.5,0.3c-2.4,0.8-4,3-4.1,5.5c0,1.1,0.1,2.3,0.6,3.2c1.5,2.4,6.7,3.1,8.9,1.1
	c0.3-0.3,0.6-0.6,0.8-1c2.1-3.4,0.4-8-3.6-9C300.1,447.3,299.7,447.3,299.3,447.3z"/>
<path class="st3" d="M257.1,430.7c-0.5,0-0.9,0.1-1.4,0.2c-2.1,0.7-3.6,2.7-3.7,4.9c0,1,0.1,2.1,0.5,2.9c1.3,2.2,6,2.8,8,1
	c0.3-0.2,0.5-0.5,0.7-0.9c1.9-3.1,0.3-7.2-3.2-8C257.8,430.8,257.5,430.7,257.1,430.7z"/>
<path class="st4" d="M215.9,472.7c-0.2,0-0.5,0.1-0.7,0.1c-1.1,0.4-1.9,1.4-2,2.6c0,0.5,0,1.1,0.3,1.5c0.7,1.2,3.2,1.5,4.3,0.5
	c0.1-0.1,0.3-0.3,0.4-0.5c1-1.6,0.2-3.8-1.7-4.3C216.3,472.7,216.1,472.7,215.9,472.7z"/>
<path class="st4" d="M281.1,489.6c-0.5,0-0.9,0.1-1.4,0.2c-2.1,0.7-3.6,2.7-3.7,4.9c0,1,0.1,2.1,0.5,2.9c1.3,2.2,6,2.8,8,1
	c0.3-0.2,0.5-0.5,0.7-0.9c1.9-3.1,0.3-7.2-3.2-8C281.8,489.6,281.4,489.6,281.1,489.6z"/>
<path class="st4" d="M231,437.2c-0.5,0-0.9,0.1-1.4,0.2c-2.1,0.7-3.6,2.7-3.7,4.9c0,1,0.1,2.1,0.5,2.9c1.3,2.2,6,2.8,8,1
	c0.3-0.2,0.5-0.5,0.7-0.9c1.9-3.1,0.3-7.2-3.2-8C231.6,437.3,231.3,437.2,231,437.2z"/>
<path class="st4" d="M272.8,421.8c-0.5,0-0.9,0.1-1.4,0.2c-2.1,0.7-3.6,2.7-3.7,4.9c0,1,0.1,2.1,0.5,2.9c1.3,2.2,6,2.8,8,1
	c0.3-0.2,0.5-0.5,0.7-0.9c1.9-3.1,0.3-7.2-3.2-8C273.5,421.9,273.2,421.8,272.8,421.8z"/>
<path class="st4" d="M252.1,475.6c-0.5,0-0.9,0.1-1.4,0.2c-2.1,0.7-3.6,2.7-3.7,4.9c0,1,0.1,2.1,0.5,2.9c1.3,2.2,6,2.8,8,1
	c0.3-0.2,0.5-0.5,0.7-0.9c1.9-3.1,0.3-7.2-3.2-8C252.8,475.7,252.4,475.6,252.1,475.6z"/>
<path class="st4" d="M233.3,416.8c-0.5,0-0.9,0.1-1.4,0.2c-2.1,0.7-3.6,2.7-3.7,4.9c0,1,0.1,2.1,0.5,2.9c1.3,2.2,6,2.8,8,1
	c0.3-0.2,0.5-0.5,0.7-0.9c1.9-3.1,0.3-7.2-3.2-8C234,416.9,233.6,416.8,233.3,416.8z"/>
<path class="st4" d="M293.6,425.7c-0.5,0-0.9,0.1-1.4,0.2c-2.1,0.7-3.6,2.7-3.7,4.9c0,1,0.1,2.1,0.5,2.9c1.3,2.2,6,2.8,8,1
	c0.3-0.2,0.5-0.5,0.7-0.9c1.9-3.1,0.3-7.2-3.2-8C294.3,425.8,294,425.7,293.6,425.7z"/>
<path class="st4" d="M252.1,400.9c-0.5,0-0.9,0.1-1.4,0.2c-2.1,0.7-3.6,2.7-3.7,4.9c0,1,0.1,2.1,0.5,2.9c1.3,2.2,6,2.8,8,1
	c0.3-0.2,0.5-0.5,0.7-0.9c1.9-3.1,0.3-7.2-3.2-8C252.8,400.9,252.4,400.9,252.1,400.9z"/>
<path class="st4" d="M231,400.9c-0.5,0-0.9,0.1-1.4,0.2c-2.1,0.7-3.6,2.7-3.7,4.9c0,1,0.1,2.1,0.5,2.9c1.3,2.2,6,2.8,8,1
	c0.3-0.2,0.5-0.5,0.7-0.9c1.9-3.1,0.3-7.2-3.2-8C231.6,400.9,231.3,400.9,231,400.9z"/>
<path class="st4" d="M208.2,430.7c0,0.5,0.1,0.9,0.2,1.4c0.7,2.1,2.7,3.6,4.9,3.7c1,0,2.1-0.1,2.9-0.5c2.2-1.3,2.8-6,1-8
	c-0.2-0.3-0.5-0.5-0.9-0.7c-3-1.9-7.2-0.3-8,3.2C208.2,430,208.2,430.4,208.2,430.7z"/>
<path class="st3" d="M208.2,405.9c-0.5,0-0.9,0.1-1.4,0.2c-2.1,0.7-3.6,2.7-3.7,4.9c0,1,0.1,2.1,0.5,2.9c1.3,2.2,6,2.8,8,1
	c0.3-0.2,0.5-0.5,0.7-0.9c1.9-3.1,0.3-7.2-3.2-8C208.9,405.9,208.5,405.9,208.2,405.9z"/>
<path class="st3" d="M215.9,386.1c-0.5,0-0.9,0.1-1.4,0.2c-2.1,0.7-3.6,2.7-3.7,4.9c0,1,0.1,2.1,0.5,2.9c1.3,2.2,6,2.8,8,1
	c0.3-0.2,0.5-0.5,0.7-0.9c1.9-3.1,0.3-7.2-3.2-8C216.6,386.1,216.3,386.1,215.9,386.1z"/>
<path class="st3" d="M152.3,402.3c-0.2,0-0.5,0.1-0.7,0.1c-1.2,0.4-1.9,1.4-2,2.6c0,0.5,0,1.1,0.3,1.5c0.7,1.2,3.2,1.5,4.3,0.5
	c0.1-0.1,0.3-0.3,0.4-0.5c1-1.6,0.2-3.9-1.7-4.3C152.7,402.3,152.5,402.3,152.3,402.3z"/>
<path class="st3" d="M107.2,424.5c-0.4,0-0.7,0.1-1.1,0.2c-1.7,0.5-2.8,2.1-2.8,3.8c0,0.8,0.1,1.6,0.4,2.2c1,1.7,4.6,2.2,6.2,0.8
	c0.2-0.2,0.4-0.4,0.6-0.7c1.5-2.4,0.2-5.5-2.5-6.2C107.7,424.6,107.5,424.5,107.2,424.5z"/>
<path class="st4" d="M136.6,380.2c-0.5,0-0.9,0.1-1.4,0.2c-2.1,0.7-3.6,2.7-3.7,4.9c0,1,0.1,2.1,0.5,2.9c1.3,2.2,6,2.8,8,1
	c0.3-0.2,0.5-0.5,0.7-0.9c1.9-3.1,0.3-7.2-3.2-8C137.3,380.2,137,380.2,136.6,380.2z"/>
<path class="st3" d="M170.5,379.6c-0.5,0-1,0.1-1.5,0.3c-2.4,0.8-4,3-4.1,5.5c0,1.1,0.1,2.3,0.6,3.2c1.5,2.4,6.7,3.1,8.9,1.1
	c0.3-0.3,0.6-0.6,0.8-1c2.1-3.4,0.4-8-3.6-9C171.3,379.6,170.9,379.6,170.5,379.6z"/>
<path class="st3" d="M128.3,363c-0.5,0-0.9,0.1-1.4,0.2c-2.1,0.7-3.6,2.7-3.7,4.9c0,1,0.1,2.1,0.5,2.9c1.3,2.2,6,2.8,8,1
	c0.3-0.2,0.5-0.5,0.7-0.9c1.9-3.1,0.3-7.2-3.2-8C129,363.1,128.7,363,128.3,363z"/>
<path class="st4" d="M87.1,405c-0.2,0-0.5,0.1-0.7,0.1c-1.1,0.4-1.9,1.4-2,2.6c0,0.5,0,1.1,0.3,1.5c0.7,1.2,3.2,1.5,4.3,0.5
	c0.1-0.1,0.3-0.3,0.4-0.5c1-1.6,0.2-3.8-1.7-4.3C87.5,405,87.3,405,87.1,405z"/>
<path class="st4" d="M152.3,421.9c-0.5,0-0.9,0.1-1.4,0.2c-2.1,0.7-3.6,2.7-3.7,4.9c0,1,0.1,2.1,0.5,2.9c1.3,2.2,6,2.8,8,1
	c0.3-0.2,0.5-0.5,0.7-0.9c1.9-3.1,0.3-7.2-3.2-8C153,421.9,152.6,421.9,152.3,421.9z"/>
<path class="st4" d="M102.2,369.5c-0.5,0-0.9,0.1-1.4,0.2c-2.1,0.7-3.6,2.7-3.7,4.9c0,1,0.1,2.1,0.5,2.9c1.3,2.2,6,2.8,8,1
	c0.3-0.2,0.5-0.5,0.7-0.9c1.9-3.1,0.3-7.2-3.2-8C102.8,369.6,102.5,369.5,102.2,369.5z"/>
<path class="st4" d="M144,354.1c-0.5,0-0.9,0.1-1.4,0.2c-2.1,0.7-3.6,2.7-3.7,4.9c0,1,0.1,2.1,0.5,2.9c1.3,2.2,6,2.8,8,1
	c0.3-0.2,0.5-0.5,0.7-0.9c1.9-3.1,0.3-7.2-3.2-8C144.7,354.2,144.4,354.1,144,354.1z"/>
<path class="st4" d="M123.3,407.9c-0.5,0-0.9,0.1-1.4,0.2c-2.1,0.7-3.6,2.7-3.7,4.9c0,1,0.1,2.1,0.5,2.9c1.3,2.2,6,2.8,8,1
	c0.3-0.2,0.5-0.5,0.7-0.9c1.9-3.1,0.3-7.2-3.2-8C124,408,123.6,407.9,123.3,407.9z"/>
<path class="st4" d="M104.5,349.1c-0.5,0-0.9,0.1-1.4,0.2c-2.1,0.7-3.6,2.7-3.7,4.9c0,1,0.1,2.1,0.5,2.9c1.3,2.2,6,2.8,8,1
	c0.3-0.2,0.5-0.5,0.7-0.9c1.9-3.1,0.3-7.2-3.2-8C105.2,349.2,104.8,349.1,104.5,349.1z"/>
<path class="st4" d="M164.8,358c-0.5,0-0.9,0.1-1.4,0.2c-2.1,0.7-3.6,2.7-3.7,4.9c0,1,0.1,2.1,0.5,2.9c1.3,2.2,6,2.8,8,1
	c0.3-0.2,0.5-0.5,0.7-0.9c1.9-3.1,0.3-7.2-3.2-8C165.5,358,165.2,358,164.8,358z"/>
<path class="st4" d="M123.3,333.2c-0.5,0-0.9,0.1-1.4,0.2c-2.1,0.7-3.6,2.7-3.7,4.9c0,1,0.1,2.1,0.5,2.9c1.3,2.2,6,2.8,8,1
	c0.3-0.2,0.5-0.5,0.7-0.9c1.9-3.1,0.3-7.2-3.2-8C124,333.2,123.6,333.2,123.3,333.2z"/>
<path class="st4" d="M102.2,333.2c-0.5,0-0.9,0.1-1.4,0.2c-2.1,0.7-3.6,2.7-3.7,4.9c0,1,0.1,2.1,0.5,2.9c1.3,2.2,6,2.8,8,1
	c0.3-0.2,0.5-0.5,0.7-0.9c1.9-3.1,0.3-7.2-3.2-8C102.8,333.2,102.5,333.2,102.2,333.2z"/>
<path class="st4" d="M79.4,363c0,0.5,0.1,0.9,0.2,1.4c0.7,2.1,2.7,3.6,4.9,3.7c1,0,2.1-0.1,2.9-0.5c2.2-1.3,2.8-6,1-8
	c-0.2-0.3-0.5-0.5-0.9-0.7c-3-1.9-7.2-0.3-8,3.2C79.4,362.3,79.4,362.7,79.4,363z"/>
<path class="st3" d="M79.4,338.2c-0.5,0-0.9,0.1-1.4,0.2c-2.1,0.7-3.6,2.7-3.7,4.9c0,1,0.1,2.1,0.5,2.9c1.3,2.2,6,2.8,8,1
	c0.3-0.2,0.5-0.5,0.7-0.9c1.9-3.1,0.3-7.2-3.2-8C80.1,338.2,79.7,338.2,79.4,338.2z"/>
<path class="st3" d="M87.1,318.4c-0.5,0-0.9,0.1-1.4,0.2c-2.1,0.7-3.6,2.7-3.7,4.9c0,1,0.1,2.1,0.5,2.9c1.3,2.2,6,2.8,8,1
	c0.3-0.2,0.5-0.5,0.7-0.9c1.9-3.1,0.3-7.2-3.2-8C87.8,318.4,87.5,318.4,87.1,318.4z"/>
<path class="st3" d="M334.2,430.9c-0.2,0-0.5,0.1-0.7,0.1c-1.2,0.4-1.9,1.4-2,2.6c0,0.5,0,1.1,0.3,1.5c0.7,1.2,3.2,1.5,4.3,0.5
	c0.1-0.1,0.3-0.3,0.4-0.5c1-1.6,0.2-3.9-1.7-4.3C334.6,430.9,334.4,430.9,334.2,430.9z"/>
<path class="st3" d="M289.1,453.1c-0.4,0-0.7,0.1-1.1,0.2c-1.7,0.5-2.8,2.1-2.8,3.8c0,0.8,0.1,1.6,0.4,2.2c1,1.7,4.6,2.2,6.2,0.8
	c0.2-0.2,0.4-0.4,0.6-0.7c1.5-2.4,0.2-5.5-2.5-6.2C289.7,453.2,289.4,453.1,289.1,453.1z"/>
<path class="st4" d="M318.6,408.8c-0.5,0-0.9,0.1-1.4,0.2c-2.1,0.7-3.6,2.7-3.7,4.9c0,1,0.1,2.1,0.5,2.9c1.3,2.2,6,2.8,8,1
	c0.3-0.2,0.5-0.5,0.7-0.9c1.9-3.1,0.3-7.2-3.2-8C319.3,408.8,318.9,408.8,318.6,408.8z"/>
<path class="st3" d="M352.4,408.2c-0.5,0-1,0.1-1.5,0.3c-2.4,0.8-4,3-4.1,5.5c0,1.1,0.1,2.3,0.6,3.2c1.5,2.4,6.7,3.1,8.9,1.1
	c0.3-0.3,0.6-0.6,0.8-1c2.1-3.4,0.4-8-3.6-9C353.2,408.2,352.8,408.2,352.4,408.2z"/>
<path class="st3" d="M310.3,391.6c-0.5,0-0.9,0.1-1.4,0.2c-2.1,0.7-3.6,2.7-3.7,4.9c0,1,0.1,2.1,0.5,2.9c1.3,2.2,6,2.8,8,1
	c0.3-0.2,0.5-0.5,0.7-0.9c1.9-3.1,0.3-7.2-3.2-8C311,391.7,310.6,391.6,310.3,391.6z"/>
<path class="st4" d="M269.1,433.6c-0.2,0-0.5,0.1-0.7,0.1c-1.1,0.4-1.9,1.4-2,2.6c0,0.5,0,1.1,0.3,1.5c0.7,1.2,3.2,1.5,4.3,0.5
	c0.1-0.1,0.3-0.3,0.4-0.5c1-1.6,0.2-3.8-1.7-4.3C269.4,433.6,269.2,433.6,269.1,433.6z"/>
<path class="st4" d="M334.2,450.5c-0.5,0-0.9,0.1-1.4,0.2c-2.1,0.7-3.6,2.7-3.7,4.9c0,1,0.1,2.1,0.5,2.9c1.3,2.2,6,2.8,8,1
	c0.3-0.2,0.5-0.5,0.7-0.9c1.9-3.1,0.3-7.2-3.2-8C334.9,450.5,334.6,450.5,334.2,450.5z"/>
<path class="st4" d="M284.1,398.1c-0.5,0-0.9,0.1-1.4,0.2c-2.1,0.7-3.6,2.7-3.7,4.9c0,1,0.1,2.1,0.5,2.9c1.3,2.2,6,2.8,8,1
	c0.3-0.2,0.5-0.5,0.7-0.9c1.9-3.1,0.3-7.2-3.2-8C284.8,398.2,284.5,398.1,284.1,398.1z"/>
<path class="st4" d="M326,382.7c-0.5,0-0.9,0.1-1.4,0.2c-2.1,0.7-3.6,2.7-3.7,4.9c0,1,0.1,2.1,0.5,2.9c1.3,2.2,6,2.8,8,1
	c0.3-0.2,0.5-0.5,0.7-0.9c1.9-3.1,0.3-7.2-3.2-8C326.7,382.8,326.3,382.7,326,382.7z"/>
<path class="st4" d="M305.2,436.5c-0.5,0-0.9,0.1-1.4,0.2c-2.1,0.7-3.6,2.7-3.7,4.9c0,1,0.1,2.1,0.5,2.9c1.3,2.2,6,2.8,8,1
	c0.3-0.2,0.5-0.5,0.7-0.9c1.9-3.1,0.3-7.2-3.2-8C305.9,436.6,305.6,436.5,305.2,436.5z"/>
<path class="st4" d="M286.4,377.7c-0.5,0-0.9,0.1-1.4,0.2c-2.1,0.7-3.6,2.7-3.7,4.9c0,1,0.1,2.1,0.5,2.9c1.3,2.2,6,2.8,8,1
	c0.3-0.2,0.5-0.5,0.7-0.9c1.9-3.1,0.3-7.2-3.2-8C287.1,377.8,286.8,377.7,286.4,377.7z"/>
<path class="st4" d="M346.8,386.6c-0.5,0-0.9,0.1-1.4,0.2c-2.1,0.7-3.6,2.7-3.7,4.9c0,1,0.1,2.1,0.5,2.9c1.3,2.2,6,2.8,8,1
	c0.3-0.2,0.5-0.5,0.7-0.9c1.9-3.1,0.3-7.2-3.2-8C347.5,386.6,347.1,386.6,346.8,386.6z"/>
<path class="st4" d="M305.2,361.8c-0.5,0-0.9,0.1-1.4,0.2c-2.1,0.7-3.6,2.7-3.7,4.9c0,1,0.1,2.1,0.5,2.9c1.3,2.2,6,2.8,8,1
	c0.3-0.2,0.5-0.5,0.7-0.9c1.9-3.1,0.3-7.2-3.2-8C305.9,361.8,305.6,361.8,305.2,361.8z"/>
<path class="st4" d="M284.1,361.8c-0.5,0-0.9,0.1-1.4,0.2c-2.1,0.7-3.6,2.7-3.7,4.9c0,1,0.1,2.1,0.5,2.9c1.3,2.2,6,2.8,8,1
	c0.3-0.2,0.5-0.5,0.7-0.9c1.9-3.1,0.3-7.2-3.2-8C284.8,361.8,284.5,361.8,284.1,361.8z"/>
<path class="st4" d="M261.3,391.6c0,0.5,0.1,0.9,0.2,1.4c0.7,2.1,2.7,3.6,4.9,3.7c1,0,2.1-0.1,2.9-0.5c2.2-1.3,2.8-6,1-8
	c-0.2-0.3-0.5-0.5-0.9-0.7c-3-1.9-7.2-0.3-8,3.2C261.4,390.9,261.3,391.3,261.3,391.6z"/>
<path class="st3" d="M261.3,366.8c-0.5,0-0.9,0.1-1.4,0.2c-2.1,0.7-3.6,2.7-3.7,4.9c0,1,0.1,2.1,0.5,2.9c1.3,2.2,6,2.8,8,1
	c0.3-0.2,0.5-0.5,0.7-0.9c1.9-3.1,0.3-7.2-3.2-8C262,366.8,261.7,366.8,261.3,366.8z"/>
<path class="st3" d="M269.1,347c-0.5,0-0.9,0.1-1.4,0.2c-2.1,0.7-3.6,2.7-3.7,4.9c0,1,0.1,2.1,0.5,2.9c1.3,2.2,6,2.8,8,1
	c0.3-0.2,0.5-0.5,0.7-0.9c1.9-3.1,0.3-7.2-3.2-8C269.8,347,269.4,347,269.1,347z"/>
<path class="st3" d="M426.2,551.7c-0.2,0-0.5,0.1-0.7,0.1c-1.2,0.4-1.9,1.4-2,2.6c0,0.5,0,1.1,0.3,1.5c0.7,1.2,3.2,1.5,4.3,0.5
	c0.1-0.1,0.3-0.3,0.4-0.5c1-1.6,0.2-3.9-1.7-4.3C426.6,551.7,426.4,551.7,426.2,551.7z"/>
<path class="st3" d="M381.2,573.9c-0.4,0-0.7,0.1-1.1,0.2c-1.7,0.5-2.8,2.1-2.8,3.8c0,0.8,0.1,1.6,0.4,2.2c1,1.7,4.6,2.2,6.2,0.8
	c0.2-0.2,0.4-0.4,0.6-0.7c1.5-2.4,0.2-5.5-2.5-6.2C381.7,574,381.4,573.9,381.2,573.9z"/>
<path class="st4" d="M410.6,529.6c-0.5,0-0.9,0.1-1.4,0.2c-2.1,0.7-3.6,2.7-3.7,4.9c0,1,0.1,2.1,0.5,2.9c1.3,2.2,6,2.8,8,1
	c0.3-0.2,0.5-0.5,0.7-0.9c1.9-3.1,0.3-7.2-3.2-8C411.3,529.6,410.9,529.6,410.6,529.6z"/>
<path class="st3" d="M444.4,529c-0.5,0-1,0.1-1.5,0.3c-2.4,0.8-4,3-4.1,5.5c0,1.1,0.1,2.3,0.6,3.2c1.5,2.4,6.7,3.1,8.9,1.1
	c0.3-0.3,0.6-0.6,0.8-1c2.1-3.4,0.4-8-3.6-9C445.2,529,444.8,529,444.4,529z"/>
<path class="st3" d="M402.3,512.4c-0.5,0-0.9,0.1-1.4,0.2c-2.1,0.7-3.6,2.7-3.7,4.9c0,1,0.1,2.1,0.5,2.9c1.3,2.2,6,2.8,8,1
	c0.3-0.2,0.5-0.5,0.7-0.9c1.9-3.1,0.3-7.2-3.2-8C403,512.5,402.6,512.4,402.3,512.4z"/>
<path class="st4" d="M361.1,554.4c-0.2,0-0.5,0.1-0.7,0.1c-1.1,0.4-1.9,1.4-2,2.6c0,0.5,0,1.1,0.3,1.5c0.7,1.2,3.2,1.5,4.3,0.5
	c0.1-0.1,0.3-0.3,0.4-0.5c1-1.6,0.2-3.8-1.7-4.3C361.4,554.5,361.3,554.4,361.1,554.4z"/>
<path class="st4" d="M426.2,571.3c-0.5,0-0.9,0.1-1.4,0.2c-2.1,0.7-3.6,2.7-3.7,4.9c0,1,0.1,2.1,0.5,2.9c1.3,2.2,6,2.8,8,1
	c0.3-0.2,0.5-0.5,0.7-0.9c1.9-3.1,0.3-7.2-3.2-8C426.9,571.3,426.6,571.3,426.2,571.3z"/>
<path class="st4" d="M376.1,518.9c-0.5,0-0.9,0.1-1.4,0.2c-2.1,0.7-3.6,2.7-3.7,4.9c0,1,0.1,2.1,0.5,2.9c1.3,2.2,6,2.8,8,1
	c0.3-0.2,0.5-0.5,0.7-0.9c1.9-3.1,0.3-7.2-3.2-8C376.8,519,376.5,518.9,376.1,518.9z"/>
<path class="st4" d="M418,503.6c-0.5,0-0.9,0.1-1.4,0.2c-2.1,0.7-3.6,2.7-3.7,4.9c0,1,0.1,2.1,0.5,2.9c1.3,2.2,6,2.8,8,1
	c0.3-0.2,0.5-0.5,0.7-0.9c1.9-3.1,0.3-7.2-3.2-8C418.7,503.6,418.3,503.6,418,503.6z"/>
<path class="st4" d="M397.2,557.4c-0.5,0-0.9,0.1-1.4,0.2c-2.1,0.7-3.6,2.7-3.7,4.9c0,1,0.1,2.1,0.5,2.9c1.3,2.2,6,2.8,8,1
	c0.3-0.2,0.5-0.5,0.7-0.9c1.9-3.1,0.3-7.2-3.2-8C397.9,557.4,397.6,557.4,397.2,557.4z"/>
<path class="st4" d="M378.4,498.5c-0.5,0-0.9,0.1-1.4,0.2c-2.1,0.7-3.6,2.7-3.7,4.9c0,1,0.1,2.1,0.5,2.9c1.3,2.2,6,2.8,8,1
	c0.3-0.2,0.5-0.5,0.7-0.9c1.9-3.1,0.3-7.2-3.2-8C379.1,498.6,378.8,498.5,378.4,498.5z"/>
<path class="st4" d="M438.8,507.4c-0.5,0-0.9,0.1-1.4,0.2c-2.1,0.7-3.6,2.7-3.7,4.9c0,1,0.1,2.1,0.5,2.9c1.3,2.2,6,2.8,8,1
	c0.3-0.2,0.5-0.5,0.7-0.9c1.9-3.1,0.3-7.2-3.2-8C439.5,507.5,439.2,507.4,438.8,507.4z"/>
<path class="st4" d="M397.2,482.6c-0.5,0-0.9,0.1-1.4,0.2c-2.1,0.7-3.6,2.7-3.7,4.9c0,1,0.1,2.1,0.5,2.9c1.3,2.2,6,2.8,8,1
	c0.3-0.2,0.5-0.5,0.7-0.9c1.9-3.1,0.3-7.2-3.2-8C397.9,482.6,397.6,482.6,397.2,482.6z"/>
<path class="st4" d="M376.1,482.6c-0.5,0-0.9,0.1-1.4,0.2c-2.1,0.7-3.6,2.7-3.7,4.9c0,1,0.1,2.1,0.5,2.9c1.3,2.2,6,2.8,8,1
	c0.3-0.2,0.5-0.5,0.7-0.9c1.9-3.1,0.3-7.2-3.2-8C376.8,482.6,376.5,482.6,376.1,482.6z"/>
<path class="st4" d="M353.3,512.4c0,0.5,0.1,0.9,0.2,1.4c0.7,2.1,2.7,3.6,4.9,3.7c1,0,2.1-0.1,2.9-0.5c2.2-1.3,2.8-6,1-8
	c-0.2-0.3-0.5-0.5-0.9-0.7c-3-1.9-7.2-0.3-8,3.2C353.4,511.7,353.3,512.1,353.3,512.4z"/>
<path class="st3" d="M353.4,487.6c-0.5,0-0.9,0.1-1.4,0.2c-2.1,0.7-3.6,2.7-3.7,4.9c0,1,0.1,2.1,0.5,2.9c1.3,2.2,6,2.8,8,1
	c0.3-0.2,0.5-0.5,0.7-0.9c1.9-3.1,0.3-7.2-3.2-8C354,487.6,353.7,487.6,353.4,487.6z"/>
<path class="st3" d="M361.1,467.8c-0.5,0-0.9,0.1-1.4,0.2c-2.1,0.7-3.6,2.7-3.7,4.9c0,1,0.1,2.1,0.5,2.9c1.3,2.2,6,2.8,8,1
	c0.3-0.2,0.5-0.5,0.7-0.9c1.9-3.1,0.3-7.2-3.2-8C361.8,467.8,361.4,467.8,361.1,467.8z"/>
<path class="st3" d="M442,468.5c-0.2,0-0.5,0.1-0.7,0.1c-1.2,0.4-1.9,1.4-2,2.6c0,0.5,0,1.1,0.3,1.5c0.7,1.2,3.2,1.5,4.3,0.5
	c0.1-0.1,0.3-0.3,0.4-0.5c1-1.6,0.2-3.9-1.7-4.3C442.4,468.6,442.2,468.5,442,468.5z"/>
<path class="st3" d="M396.9,490.8c-0.4,0-0.7,0.1-1.1,0.2c-1.7,0.5-2.8,2.1-2.8,3.8c0,0.8,0.1,1.6,0.4,2.2c1,1.7,4.6,2.2,6.2,0.8
	c0.2-0.2,0.4-0.4,0.6-0.7c1.5-2.4,0.2-5.5-2.5-6.2C397.4,490.8,397.2,490.8,396.9,490.8z"/>
<path class="st4" d="M426.3,446.4c-0.5,0-0.9,0.1-1.4,0.2c-2.1,0.7-3.6,2.7-3.7,4.9c0,1,0.1,2.1,0.5,2.9c1.3,2.2,6,2.8,8,1
	c0.3-0.2,0.5-0.5,0.7-0.9c1.9-3.1,0.3-7.2-3.2-8C427,446.4,426.7,446.4,426.3,446.4z"/>
<path class="st3" d="M460.2,445.8c-0.5,0-1,0.1-1.5,0.3c-2.4,0.8-4,3-4.1,5.5c0,1.1,0.1,2.3,0.6,3.2c1.5,2.4,6.7,3.1,8.9,1.1
	c0.3-0.3,0.6-0.6,0.8-1c2.1-3.4,0.4-8-3.6-9C461,445.8,460.6,445.8,460.2,445.8z"/>
<path class="st3" d="M418,429.3c-0.5,0-0.9,0.1-1.4,0.2c-2.1,0.7-3.6,2.7-3.7,4.9c0,1,0.1,2.1,0.5,2.9c1.3,2.2,6,2.8,8,1
	c0.3-0.2,0.5-0.5,0.7-0.9c1.9-3.1,0.3-7.2-3.2-8C418.7,429.3,418.4,429.3,418,429.3z"/>
<path class="st4" d="M376.8,471.3c-0.2,0-0.5,0.1-0.7,0.1c-1.1,0.4-1.9,1.4-2,2.6c0,0.5,0,1.1,0.3,1.5c0.7,1.2,3.2,1.5,4.3,0.5
	c0.1-0.1,0.3-0.3,0.4-0.5c1-1.6,0.2-3.8-1.7-4.3C377.2,471.3,377,471.3,376.8,471.3z"/>
<path class="st4" d="M442,488.1c-0.5,0-0.9,0.1-1.4,0.2c-2.1,0.7-3.6,2.7-3.7,4.9c0,1,0.1,2.1,0.5,2.9c1.3,2.2,6,2.8,8,1
	c0.3-0.2,0.5-0.5,0.7-0.9c1.9-3.1,0.3-7.2-3.2-8C442.7,488.1,442.4,488.1,442,488.1z"/>
<path class="st4" d="M391.9,435.8c-0.5,0-0.9,0.1-1.4,0.2c-2.1,0.7-3.6,2.7-3.7,4.9c0,1,0.1,2.1,0.5,2.9c1.3,2.2,6,2.8,8,1
	c0.3-0.2,0.5-0.5,0.7-0.9c1.9-3.1,0.3-7.2-3.2-8C392.6,435.8,392.2,435.7,391.9,435.8z"/>
<path class="st4" d="M433.8,420.4c-0.5,0-0.9,0.1-1.4,0.2c-2.1,0.7-3.6,2.7-3.7,4.9c0,1,0.1,2.1,0.5,2.9c1.3,2.2,6,2.8,8,1
	c0.3-0.2,0.5-0.5,0.7-0.9c1.9-3.1,0.3-7.2-3.2-8C434.5,420.4,434.1,420.4,433.8,420.4z"/>
<path class="st4" d="M413,474.2c-0.5,0-0.9,0.1-1.4,0.2c-2.1,0.7-3.6,2.7-3.7,4.9c0,1,0.1,2.1,0.5,2.9c1.3,2.2,6,2.8,8,1
	c0.3-0.2,0.5-0.5,0.7-0.9c1.9-3.1,0.3-7.2-3.2-8C413.7,474.2,413.3,474.2,413,474.2z"/>
<path class="st4" d="M394.2,415.4c-0.5,0-0.9,0.1-1.4,0.2c-2.1,0.7-3.6,2.7-3.7,4.9c0,1,0.1,2.1,0.5,2.9c1.3,2.2,6,2.8,8,1
	c0.3-0.2,0.5-0.5,0.7-0.9c1.9-3.1,0.3-7.2-3.2-8C394.9,415.4,394.5,415.3,394.2,415.4z"/>
<path class="st4" d="M454.6,424.2c-0.5,0-0.9,0.1-1.4,0.2c-2.1,0.7-3.6,2.7-3.7,4.9c0,1,0.1,2.1,0.5,2.9c1.3,2.2,6,2.8,8,1
	c0.3-0.2,0.5-0.5,0.7-0.9c1.9-3.1,0.3-7.2-3.2-8C455.3,424.3,454.9,424.2,454.6,424.2z"/>
<path class="st4" d="M413,399.4c-0.5,0-0.9,0.1-1.4,0.2c-2.1,0.7-3.6,2.7-3.7,4.9c0,1,0.1,2.1,0.5,2.9c1.3,2.2,6,2.8,8,1
	c0.3-0.2,0.5-0.5,0.7-0.9c1.9-3.1,0.3-7.2-3.2-8C413.7,399.4,413.3,399.4,413,399.4z"/>
<path class="st4" d="M391.9,399.4c-0.5,0-0.9,0.1-1.4,0.2c-2.1,0.7-3.6,2.7-3.7,4.9c0,1,0.1,2.1,0.5,2.9c1.3,2.2,6,2.8,8,1
	c0.3-0.2,0.5-0.5,0.7-0.9c1.9-3.1,0.3-7.2-3.2-8C392.6,399.4,392.2,399.4,391.9,399.4z"/>
<path class="st4" d="M369.1,429.2c0,0.5,0.1,0.9,0.2,1.4c0.7,2.1,2.7,3.6,4.9,3.7c1,0,2.1-0.1,2.9-0.5c2.2-1.3,2.8-6,1-8
	c-0.2-0.3-0.5-0.5-0.9-0.7c-3-1.9-7.2-0.3-8,3.2C369.1,428.5,369.1,428.9,369.1,429.2z"/>
<path class="st3" d="M369.1,404.4c-0.5,0-0.9,0.1-1.4,0.2c-2.1,0.7-3.6,2.7-3.7,4.9c0,1,0.1,2.1,0.5,2.9c1.3,2.2,6,2.8,8,1
	c0.3-0.2,0.5-0.5,0.7-0.9c1.9-3.1,0.3-7.2-3.2-8C369.8,404.5,369.5,404.4,369.1,404.4z"/>
<path class="st3" d="M376.8,384.6c-0.5,0-0.9,0.1-1.4,0.2c-2.1,0.7-3.6,2.7-3.7,4.9c0,1,0.1,2.1,0.5,2.9c1.3,2.2,6,2.8,8,1
	c0.3-0.2,0.5-0.5,0.7-0.9c1.9-3.1,0.3-7.2-3.2-8C377.5,384.7,377.2,384.6,376.8,384.6z"/>
<path class="st3" d="M367.1,360.1c-0.2,0-0.5,0.1-0.7,0.1c-1.2,0.4-1.9,1.4-2,2.6c0,0.5,0,1.1,0.3,1.5c0.7,1.2,3.2,1.5,4.3,0.5
	c0.1-0.1,0.3-0.3,0.4-0.5c1-1.6,0.2-3.9-1.7-4.3C367.5,360.2,367.3,360.1,367.1,360.1z"/>
<path class="st3" d="M322,382.4c-0.4,0-0.7,0.1-1.1,0.2c-1.7,0.5-2.8,2.1-2.8,3.8c0,0.8,0.1,1.6,0.4,2.2c1,1.7,4.6,2.2,6.2,0.8
	c0.2-0.2,0.4-0.4,0.6-0.7c1.5-2.4,0.2-5.5-2.5-6.2C322.6,382.4,322.3,382.3,322,382.4z"/>
<path class="st4" d="M351.5,338c-0.5,0-0.9,0.1-1.4,0.2c-2.1,0.7-3.6,2.7-3.7,4.9c0,1,0.1,2.1,0.5,2.9c1.3,2.2,6,2.8,8,1
	c0.3-0.2,0.5-0.5,0.7-0.9c1.9-3.1,0.3-7.2-3.2-8C352.2,338,351.8,338,351.5,338z"/>
<path class="st3" d="M385.3,337.4c-0.5,0-1,0.1-1.5,0.3c-2.4,0.8-4,3-4.1,5.5c0,1.1,0.1,2.3,0.6,3.2c1.5,2.4,6.7,3.1,8.9,1.1
	c0.3-0.3,0.6-0.6,0.8-1c2.1-3.4,0.4-8-3.6-9C386.1,337.4,385.7,337.4,385.3,337.4z"/>
<path class="st3" d="M343.2,320.9c-0.5,0-0.9,0.1-1.4,0.2c-2.1,0.7-3.6,2.7-3.7,4.9c0,1,0.1,2.1,0.5,2.9c1.3,2.2,6,2.8,8,1
	c0.3-0.2,0.5-0.5,0.7-0.9c1.9-3.1,0.3-7.2-3.2-8C343.9,320.9,343.5,320.9,343.2,320.9z"/>
<path class="st4" d="M301.9,362.8c-0.2,0-0.5,0.1-0.7,0.1c-1.1,0.4-1.9,1.4-2,2.6c0,0.5,0,1.1,0.3,1.5c0.7,1.2,3.2,1.5,4.3,0.5
	c0.1-0.1,0.3-0.3,0.4-0.5c1-1.6,0.2-3.8-1.7-4.3C302.3,362.9,302.1,362.8,301.9,362.8z"/>
<path class="st4" d="M367.1,379.7c-0.5,0-0.9,0.1-1.4,0.2c-2.1,0.7-3.6,2.7-3.7,4.9c0,1,0.1,2.1,0.5,2.9c1.3,2.2,6,2.8,8,1
	c0.3-0.2,0.5-0.5,0.7-0.9c1.9-3.1,0.3-7.2-3.2-8C367.8,379.7,367.5,379.7,367.1,379.7z"/>
<path class="st4" d="M317,327.3c-0.5,0-0.9,0.1-1.4,0.2c-2.1,0.7-3.6,2.7-3.7,4.9c0,1,0.1,2.1,0.5,2.9c1.3,2.2,6,2.8,8,1
	c0.3-0.2,0.5-0.5,0.7-0.9c1.9-3.1,0.3-7.2-3.2-8C317.7,327.4,317.3,327.3,317,327.3z"/>
<path class="st4" d="M358.9,312c-0.5,0-0.9,0.1-1.4,0.2c-2.1,0.7-3.6,2.7-3.7,4.9c0,1,0.1,2.1,0.5,2.9c1.3,2.2,6,2.8,8,1
	c0.3-0.2,0.5-0.5,0.7-0.9c1.9-3.1,0.3-7.2-3.2-8C359.6,312,359.2,312,358.9,312z"/>
<path class="st4" d="M338.1,365.8c-0.5,0-0.9,0.1-1.4,0.2c-2.1,0.7-3.6,2.7-3.7,4.9c0,1,0.1,2.1,0.5,2.9c1.3,2.2,6,2.8,8,1
	c0.3-0.2,0.5-0.5,0.7-0.9c1.9-3.1,0.3-7.2-3.2-8C338.8,365.8,338.5,365.8,338.1,365.8z"/>
<path class="st4" d="M319.3,306.9c-0.5,0-0.9,0.1-1.4,0.2c-2.1,0.7-3.6,2.7-3.7,4.9c0,1,0.1,2.1,0.5,2.9c1.3,2.2,6,2.8,8,1
	c0.3-0.2,0.5-0.5,0.7-0.9c1.9-3.1,0.3-7.2-3.2-8C320,307,319.7,306.9,319.3,306.9z"/>
<path class="st4" d="M379.7,315.8c-0.5,0-0.9,0.1-1.4,0.2c-2.1,0.7-3.6,2.7-3.7,4.9c0,1,0.1,2.1,0.5,2.9c1.3,2.2,6,2.8,8,1
	c0.3-0.2,0.5-0.5,0.7-0.9c1.9-3.1,0.3-7.2-3.2-8C380.4,315.9,380,315.8,379.7,315.8z"/>
<path class="st4" d="M338.1,291c-0.5,0-0.9,0.1-1.4,0.2c-2.1,0.7-3.6,2.7-3.7,4.9c0,1,0.1,2.1,0.5,2.9c1.3,2.2,6,2.8,8,1
	c0.3-0.2,0.5-0.5,0.7-0.9c1.9-3.1,0.3-7.2-3.2-8C338.8,291,338.5,291,338.1,291z"/>
<path class="st4" d="M317,291c-0.5,0-0.9,0.1-1.4,0.2c-2.1,0.7-3.6,2.7-3.7,4.9c0,1,0.1,2.1,0.5,2.9c1.3,2.2,6,2.8,8,1
	c0.3-0.2,0.5-0.5,0.7-0.9c1.9-3.1,0.3-7.2-3.2-8C317.7,291,317.3,291,317,291z"/>
<path class="st4" d="M294.2,320.8c0,0.5,0.1,0.9,0.2,1.4c0.7,2.1,2.7,3.6,4.9,3.7c1,0,2.1-0.1,2.9-0.5c2.2-1.3,2.8-6,1-8
	c-0.2-0.3-0.5-0.5-0.9-0.7c-3-1.9-7.2-0.3-8,3.2C294.3,320.1,294.2,320.5,294.2,320.8z"/>
<path class="st3" d="M294.2,296c-0.5,0-0.9,0.1-1.4,0.2c-2.1,0.7-3.6,2.7-3.7,4.9c0,1,0.1,2.1,0.5,2.9c1.3,2.2,6,2.8,8,1
	c0.3-0.2,0.5-0.5,0.7-0.9c1.9-3.1,0.3-7.2-3.2-8C294.9,296.1,294.6,296,294.2,296z"/>
<path class="st3" d="M302,276.2c-0.5,0-0.9,0.1-1.4,0.2c-2.1,0.7-3.6,2.7-3.7,4.9c0,1,0.1,2.1,0.5,2.9c1.3,2.2,6,2.8,8,1
	c0.3-0.2,0.5-0.5,0.7-0.9c1.9-3.1,0.3-7.2-3.2-8C302.6,276.3,302.3,276.2,302,276.2z"/>
<path class="st3" d="M506.9,338.9c-0.2,0-0.5,0.1-0.7,0.1c-1.2,0.4-1.9,1.4-2,2.6c0,0.5,0,1.1,0.3,1.5c0.7,1.2,3.2,1.5,4.3,0.5
	c0.1-0.1,0.3-0.3,0.4-0.5c1-1.6,0.2-3.9-1.7-4.3C507.3,339,507.1,338.9,506.9,338.9z"/>
<path class="st3" d="M461.8,361.2c-0.4,0-0.7,0.1-1.1,0.2c-1.7,0.5-2.8,2.1-2.8,3.8c0,0.8,0.1,1.6,0.4,2.2c1,1.7,4.6,2.2,6.2,0.8
	c0.2-0.2,0.4-0.4,0.6-0.7c1.5-2.4,0.2-5.5-2.5-6.2C462.3,361.2,462.1,361.2,461.8,361.2z"/>
<path class="st4" d="M491.2,316.8c-0.5,0-0.9,0.1-1.4,0.2c-2.1,0.7-3.6,2.7-3.7,4.9c0,1,0.1,2.1,0.5,2.9c1.3,2.2,6,2.8,8,1
	c0.3-0.2,0.5-0.5,0.7-0.9c1.9-3.1,0.3-7.2-3.2-8C491.9,316.8,491.6,316.8,491.2,316.8z"/>
<path class="st3" d="M525.1,316.2c-0.5,0-1,0.1-1.5,0.3c-2.4,0.8-4,3-4.1,5.5c0,1.1,0.1,2.3,0.6,3.2c1.5,2.4,6.7,3.1,8.9,1.1
	c0.3-0.3,0.6-0.6,0.8-1c2.1-3.4,0.4-8-3.6-9C525.9,316.3,525.5,316.2,525.1,316.2z"/>
<path class="st3" d="M482.9,299.7c-0.5,0-0.9,0.1-1.4,0.2c-2.1,0.7-3.6,2.7-3.7,4.9c0,1,0.1,2.1,0.5,2.9c1.3,2.2,6,2.8,8,1
	c0.3-0.2,0.5-0.5,0.7-0.9c1.9-3.1,0.3-7.2-3.2-8C483.6,299.7,483.3,299.7,482.9,299.7z"/>
<path class="st4" d="M441.7,341.7c-0.2,0-0.5,0.1-0.7,0.1c-1.1,0.4-1.9,1.4-2,2.6c0,0.5,0,1.1,0.3,1.5c0.7,1.2,3.2,1.5,4.3,0.5
	c0.1-0.1,0.3-0.3,0.4-0.5c1-1.6,0.2-3.8-1.7-4.3C442.1,341.7,441.9,341.7,441.7,341.7z"/>
<path class="st4" d="M506.9,358.5c-0.5,0-0.9,0.1-1.4,0.2c-2.1,0.7-3.6,2.7-3.7,4.9c0,1,0.1,2.1,0.5,2.9c1.3,2.2,6,2.8,8,1
	c0.3-0.2,0.5-0.5,0.7-0.9c1.9-3.1,0.3-7.2-3.2-8C507.6,358.5,507.3,358.5,506.9,358.5z"/>
<path class="st4" d="M456.8,306.2c-0.5,0-0.9,0.1-1.4,0.2c-2.1,0.7-3.6,2.7-3.7,4.9c0,1,0.1,2.1,0.5,2.9c1.3,2.2,6,2.8,8,1
	c0.3-0.2,0.5-0.5,0.7-0.9c1.9-3.1,0.3-7.2-3.2-8C457.5,306.2,457.1,306.2,456.8,306.2z"/>
<path class="st4" d="M498.7,290.8c-0.5,0-0.9,0.1-1.4,0.2c-2.1,0.7-3.6,2.7-3.7,4.9c0,1,0.1,2.1,0.5,2.9c1.3,2.2,6,2.8,8,1
	c0.3-0.2,0.5-0.5,0.7-0.9c1.9-3.1,0.3-7.2-3.2-8C499.3,290.8,499,290.8,498.7,290.8z"/>
<path class="st4" d="M477.9,344.6c-0.5,0-0.9,0.1-1.4,0.2c-2.1,0.7-3.6,2.7-3.7,4.9c0,1,0.1,2.1,0.5,2.9c1.3,2.2,6,2.8,8,1
	c0.3-0.2,0.5-0.5,0.7-0.9c1.9-3.1,0.3-7.2-3.2-8C478.6,344.6,478.2,344.6,477.9,344.6z"/>
<path class="st4" d="M459.1,285.8c-0.5,0-0.9,0.1-1.4,0.2c-2.1,0.7-3.6,2.7-3.7,4.9c0,1,0.1,2.1,0.5,2.9c1.3,2.2,6,2.8,8,1
	c0.3-0.2,0.5-0.5,0.7-0.9c1.9-3.1,0.3-7.2-3.2-8C459.8,285.8,459.4,285.7,459.1,285.8z"/>
<path class="st4" d="M519.5,294.6c-0.5,0-0.9,0.1-1.4,0.2c-2.1,0.7-3.6,2.7-3.7,4.9c0,1,0.1,2.1,0.5,2.9c1.3,2.2,6,2.8,8,1
	c0.3-0.2,0.5-0.5,0.7-0.9c1.9-3.1,0.3-7.2-3.2-8C520.2,294.7,519.8,294.6,519.5,294.6z"/>
<path class="st4" d="M477.9,269.8c-0.5,0-0.9,0.1-1.4,0.2c-2.1,0.7-3.6,2.7-3.7,4.9c0,1,0.1,2.1,0.5,2.9c1.3,2.2,6,2.8,8,1
	c0.3-0.2,0.5-0.5,0.7-0.9c1.9-3.1,0.3-7.2-3.2-8C478.6,269.8,478.2,269.8,477.9,269.8z"/>
<path class="st4" d="M456.8,269.8c-0.5,0-0.9,0.1-1.4,0.2c-2.1,0.7-3.6,2.7-3.7,4.9c0,1,0.1,2.1,0.5,2.9c1.3,2.2,6,2.8,8,1
	c0.3-0.2,0.5-0.5,0.7-0.9c1.9-3.1,0.3-7.2-3.2-8C457.5,269.8,457.1,269.8,456.8,269.8z"/>
<path class="st4" d="M434,299.6c0,0.5,0.1,0.9,0.2,1.4c0.7,2.1,2.7,3.6,4.9,3.7c1,0,2.1-0.1,2.9-0.5c2.2-1.3,2.8-6,1-8
	c-0.2-0.3-0.5-0.5-0.9-0.7c-3-1.9-7.2-0.3-8,3.2C434,298.9,434,299.3,434,299.6z"/>
<path class="st3" d="M434,274.8c-0.5,0-0.9,0.1-1.4,0.2c-2.1,0.7-3.6,2.7-3.7,4.9c0,1,0.1,2.1,0.5,2.9c1.3,2.2,6,2.8,8,1
	c0.3-0.2,0.5-0.5,0.7-0.9c1.9-3.1,0.3-7.2-3.2-8C434.7,274.9,434.4,274.8,434,274.8z"/>
<path class="st3" d="M441.7,255c-0.5,0-0.9,0.1-1.4,0.2c-2.1,0.7-3.6,2.7-3.7,4.9c0,1,0.1,2.1,0.5,2.9c1.3,2.2,6,2.8,8,1
	c0.3-0.2,0.5-0.5,0.7-0.9c1.9-3.1,0.3-7.2-3.2-8C442.4,255.1,442.1,255,441.7,255z"/>
<path class="st3" d="M491.2,468.8c-0.2,0-0.5,0.1-0.7,0.1c-1.2,0.4-1.9,1.4-2,2.6c0,0.5,0,1.1,0.3,1.5c0.7,1.2,3.2,1.5,4.3,0.5
	c0.1-0.1,0.3-0.3,0.4-0.5c1-1.6,0.2-3.9-1.7-4.3C491.5,468.8,491.4,468.8,491.2,468.8z"/>
<path class="st3" d="M446.1,491c-0.4,0-0.7,0.1-1.1,0.2c-1.7,0.5-2.8,2.1-2.8,3.8c0,0.8,0.1,1.6,0.4,2.2c1,1.7,4.6,2.2,6.2,0.8
	c0.2-0.2,0.4-0.4,0.6-0.7c1.5-2.4,0.2-5.5-2.5-6.2C446.6,491,446.4,491,446.1,491z"/>
<path class="st4" d="M475.5,446.6c-0.5,0-0.9,0.1-1.4,0.2c-2.1,0.7-3.6,2.7-3.7,4.9c0,1,0.1,2.1,0.5,2.9c1.3,2.2,6,2.8,8,1
	c0.3-0.2,0.5-0.5,0.7-0.9c1.9-3.1,0.3-7.2-3.2-8C476.2,446.7,475.9,446.6,475.5,446.6z"/>
<path class="st3" d="M509.4,446c-0.5,0-1,0.1-1.5,0.3c-2.4,0.8-4,3-4.1,5.5c0,1.1,0.1,2.3,0.6,3.2c1.5,2.4,6.7,3.1,8.9,1.1
	c0.3-0.3,0.6-0.6,0.8-1c2.1-3.4,0.4-8-3.6-9C510.2,446.1,509.8,446,509.4,446z"/>
<path class="st3" d="M467.2,429.5c-0.5,0-0.9,0.1-1.4,0.2c-2.1,0.7-3.6,2.7-3.7,4.9c0,1,0.1,2.1,0.5,2.9c1.3,2.2,6,2.8,8,1
	c0.3-0.2,0.5-0.5,0.7-0.9c1.9-3.1,0.3-7.2-3.2-8C467.9,429.5,467.6,429.5,467.2,429.5z"/>
<path class="st4" d="M426,471.5c-0.2,0-0.5,0.1-0.7,0.1c-1.1,0.4-1.9,1.4-2,2.6c0,0.5,0,1.1,0.3,1.5c0.7,1.2,3.2,1.5,4.3,0.5
	c0.1-0.1,0.3-0.3,0.4-0.5c1-1.6,0.2-3.8-1.7-4.3C426.4,471.5,426.2,471.5,426,471.5z"/>
<path class="st4" d="M491.2,488.3c-0.5,0-0.9,0.1-1.4,0.2c-2.1,0.7-3.6,2.7-3.7,4.9c0,1,0.1,2.1,0.5,2.9c1.3,2.2,6,2.8,8,1
	c0.3-0.2,0.5-0.5,0.7-0.9c1.9-3.1,0.3-7.2-3.2-8C491.9,488.4,491.5,488.3,491.2,488.3z"/>
<path class="st4" d="M441,436c-0.5,0-0.9,0.1-1.4,0.2c-2.1,0.7-3.6,2.7-3.7,4.9c0,1,0.1,2.1,0.5,2.9c1.3,2.2,6,2.8,8,1
	c0.3-0.2,0.5-0.5,0.7-0.9c1.9-3.1,0.3-7.2-3.2-8C441.7,436,441.4,436,441,436z"/>
<path class="st4" d="M482.9,420.6c-0.5,0-0.9,0.1-1.4,0.2c-2.1,0.7-3.6,2.7-3.7,4.9c0,1,0.1,2.1,0.5,2.9c1.3,2.2,6,2.8,8,1
	c0.3-0.2,0.5-0.5,0.7-0.9c1.9-3.1,0.3-7.2-3.2-8C483.6,420.7,483.3,420.6,482.9,420.6z"/>
<path class="st4" d="M462.2,474.4c-0.5,0-0.9,0.1-1.4,0.2c-2.1,0.7-3.6,2.7-3.7,4.9c0,1,0.1,2.1,0.5,2.9c1.3,2.2,6,2.8,8,1
	c0.3-0.2,0.5-0.5,0.7-0.9c1.9-3.1,0.3-7.2-3.2-8C462.9,474.5,462.5,474.4,462.2,474.4z"/>
<path class="st4" d="M443.4,415.6c-0.5,0-0.9,0.1-1.4,0.2c-2.1,0.7-3.6,2.7-3.7,4.9c0,1,0.1,2.1,0.5,2.9c1.3,2.2,6,2.8,8,1
	c0.3-0.2,0.5-0.5,0.7-0.9c1.9-3.1,0.3-7.2-3.2-8C444.1,415.6,443.7,415.6,443.4,415.6z"/>
<path class="st4" d="M503.7,424.5c-0.5,0-0.9,0.1-1.4,0.2c-2.1,0.7-3.6,2.7-3.7,4.9c0,1,0.1,2.1,0.5,2.9c1.3,2.2,6,2.8,8,1
	c0.3-0.2,0.5-0.5,0.7-0.9c1.9-3.1,0.3-7.2-3.2-8C504.4,424.5,504.1,424.5,503.7,424.5z"/>
<path class="st4" d="M462.2,399.6c-0.5,0-0.9,0.1-1.4,0.2c-2.1,0.7-3.6,2.7-3.7,4.9c0,1,0.1,2.1,0.5,2.9c1.3,2.2,6,2.8,8,1
	c0.3-0.2,0.5-0.5,0.7-0.9c1.9-3.1,0.3-7.2-3.2-8C462.9,399.7,462.5,399.6,462.2,399.6z"/>
<path class="st4" d="M441,399.6c-0.5,0-0.9,0.1-1.4,0.2c-2.1,0.7-3.6,2.7-3.7,4.9c0,1,0.1,2.1,0.5,2.9c1.3,2.2,6,2.8,8,1
	c0.3-0.2,0.5-0.5,0.7-0.9c1.9-3.1,0.3-7.2-3.2-8C441.7,399.7,441.4,399.6,441,399.6z"/>
<path class="st4" d="M418.3,429.5c0,0.5,0.1,0.9,0.2,1.4c0.7,2.1,2.7,3.6,4.9,3.7c1,0,2.1-0.1,2.9-0.5c2.2-1.3,2.8-6,1-8
	c-0.2-0.3-0.5-0.5-0.9-0.7c-3-1.9-7.2-0.3-8,3.2C418.3,428.8,418.3,429.1,418.3,429.5z"/>
<path class="st3" d="M418.3,404.7c-0.5,0-0.9,0.1-1.4,0.2c-2.1,0.7-3.6,2.7-3.7,4.9c0,1,0.1,2.1,0.5,2.9c1.3,2.2,6,2.8,8,1
	c0.3-0.2,0.5-0.5,0.7-0.9c1.9-3.1,0.3-7.2-3.2-8C419,404.7,418.6,404.7,418.3,404.7z"/>
<path class="st3" d="M426,384.9c-0.5,0-0.9,0.1-1.4,0.2c-2.1,0.7-3.6,2.7-3.7,4.9c0,1,0.1,2.1,0.5,2.9c1.3,2.2,6,2.8,8,1
	c0.3-0.2,0.5-0.5,0.7-0.9c1.9-3.1,0.3-7.2-3.2-8C426.7,384.9,426.4,384.9,426,384.9z"/>
<path class="st3" d="M177.5,352.9c-0.2,0-0.5,0.1-0.7,0.1c-1.2,0.4-1.9,1.4-2,2.6c0,0.5,0,1.1,0.3,1.5c0.7,1.2,3.2,1.5,4.3,0.5
	c0.1-0.1,0.3-0.3,0.4-0.5c1-1.6,0.2-3.9-1.7-4.3C177.8,352.9,177.6,352.9,177.5,352.9z"/>
<path class="st3" d="M132.4,375.1c-0.4,0-0.7,0.1-1.1,0.2c-1.7,0.5-2.8,2.1-2.8,3.8c0,0.8,0.1,1.6,0.4,2.2c1,1.7,4.6,2.2,6.2,0.8
	c0.2-0.2,0.4-0.4,0.6-0.7c1.5-2.4,0.2-5.5-2.5-6.2C132.9,375.1,132.6,375.1,132.4,375.1z"/>
<path class="st4" d="M161.8,330.7c-0.5,0-0.9,0.1-1.4,0.2c-2.1,0.7-3.6,2.7-3.7,4.9c0,1,0.1,2.1,0.5,2.9c1.3,2.2,6,2.8,8,1
	c0.3-0.2,0.5-0.5,0.7-0.9c1.9-3.1,0.3-7.2-3.2-8C162.5,330.8,162.1,330.7,161.8,330.7z"/>
<path class="st3" d="M195.7,330.1c-0.5,0-1,0.1-1.5,0.3c-2.4,0.8-4,3-4.1,5.5c0,1.1,0.1,2.3,0.6,3.2c1.5,2.4,6.7,3.1,8.9,1.1
	c0.3-0.3,0.6-0.6,0.8-1c2.1-3.4,0.4-8-3.6-9C196.4,330.2,196,330.1,195.7,330.1z"/>
<path class="st3" d="M153.5,313.6c-0.5,0-0.9,0.1-1.4,0.2c-2.1,0.7-3.6,2.7-3.7,4.9c0,1,0.1,2.1,0.5,2.9c1.3,2.2,6,2.8,8,1
	c0.3-0.2,0.5-0.5,0.7-0.9c1.9-3.1,0.3-7.2-3.2-8C154.2,313.6,153.8,313.6,153.5,313.6z"/>
<path class="st4" d="M112.3,355.6c-0.2,0-0.5,0.1-0.7,0.1c-1.1,0.4-1.9,1.4-2,2.6c0,0.5,0,1.1,0.3,1.5c0.7,1.2,3.2,1.5,4.3,0.5
	c0.1-0.1,0.3-0.3,0.4-0.5c1-1.6,0.2-3.8-1.7-4.3C112.6,355.6,112.5,355.6,112.3,355.6z"/>
<path class="st4" d="M177.5,372.4c-0.5,0-0.9,0.1-1.4,0.2c-2.1,0.7-3.6,2.7-3.7,4.9c0,1,0.1,2.1,0.5,2.9c1.3,2.2,6,2.8,8,1
	c0.3-0.2,0.5-0.5,0.7-0.9c1.9-3.1,0.3-7.2-3.2-8C178.1,372.5,177.8,372.4,177.5,372.4z"/>
<path class="st4" d="M127.3,320.1c-0.5,0-0.9,0.1-1.4,0.2c-2.1,0.7-3.6,2.7-3.7,4.9c0,1,0.1,2.1,0.5,2.9c1.3,2.2,6,2.8,8,1
	c0.3-0.2,0.5-0.5,0.7-0.9c1.9-3.1,0.3-7.2-3.2-8C128,320.1,127.7,320.1,127.3,320.1z"/>
<path class="st4" d="M169.2,304.7c-0.5,0-0.9,0.1-1.4,0.2c-2.1,0.7-3.6,2.7-3.7,4.9c0,1,0.1,2.1,0.5,2.9c1.3,2.2,6,2.8,8,1
	c0.3-0.2,0.5-0.5,0.7-0.9c1.9-3.1,0.3-7.2-3.2-8C169.9,304.7,169.6,304.7,169.2,304.7z"/>
<path class="st4" d="M148.4,358.5c-0.5,0-0.9,0.1-1.4,0.2c-2.1,0.7-3.6,2.7-3.7,4.9c0,1,0.1,2.1,0.5,2.9c1.3,2.2,6,2.8,8,1
	c0.3-0.2,0.5-0.5,0.7-0.9c1.9-3.1,0.3-7.2-3.2-8C149.1,358.5,148.8,358.5,148.4,358.5z"/>
<path class="st4" d="M129.6,299.7c-0.5,0-0.9,0.1-1.4,0.2c-2.1,0.7-3.6,2.7-3.7,4.9c0,1,0.1,2.1,0.5,2.9c1.3,2.2,6,2.8,8,1
	c0.3-0.2,0.5-0.5,0.7-0.9c1.9-3.1,0.3-7.2-3.2-8C130.3,299.7,130,299.7,129.6,299.7z"/>
<path class="st4" d="M190,308.6c-0.5,0-0.9,0.1-1.4,0.2c-2.1,0.7-3.6,2.7-3.7,4.9c0,1,0.1,2.1,0.5,2.9c1.3,2.2,6,2.8,8,1
	c0.3-0.2,0.5-0.5,0.7-0.9c1.9-3.1,0.3-7.2-3.2-8C190.7,308.6,190.4,308.6,190,308.6z"/>
<path class="st4" d="M148.4,283.7c-0.5,0-0.9,0.1-1.4,0.2c-2.1,0.7-3.6,2.7-3.7,4.9c0,1,0.1,2.1,0.5,2.9c1.3,2.2,6,2.8,8,1
	c0.3-0.2,0.5-0.5,0.7-0.9c1.9-3.1,0.3-7.2-3.2-8C149.1,283.8,148.8,283.7,148.4,283.7z"/>
<path class="st4" d="M127.3,283.7c-0.5,0-0.9,0.1-1.4,0.2c-2.1,0.7-3.6,2.7-3.7,4.9c0,1,0.1,2.1,0.5,2.9c1.3,2.2,6,2.8,8,1
	c0.3-0.2,0.5-0.5,0.7-0.9c1.9-3.1,0.3-7.2-3.2-8C128,283.8,127.7,283.7,127.3,283.7z"/>
<path class="st4" d="M104.6,313.6c0,0.5,0.1,0.9,0.2,1.4c0.7,2.1,2.7,3.6,4.9,3.7c1,0,2.1-0.1,2.9-0.5c2.2-1.3,2.8-6,1-8
	c-0.2-0.3-0.5-0.5-0.9-0.7c-3-1.9-7.2-0.3-8,3.2C104.6,312.9,104.5,313.2,104.6,313.6z"/>
<path class="st3" d="M104.6,288.7c-0.5,0-0.9,0.1-1.4,0.2c-2.1,0.7-3.6,2.7-3.7,4.9c0,1,0.1,2.1,0.5,2.9c1.3,2.2,6,2.8,8,1
	c0.3-0.2,0.5-0.5,0.7-0.9c1.9-3.1,0.3-7.2-3.2-8C105.3,288.8,104.9,288.7,104.6,288.7z"/>
<path class="st3" d="M112.3,268.9c-0.5,0-0.9,0.1-1.4,0.2c-2.1,0.7-3.6,2.7-3.7,4.9c0,1,0.1,2.1,0.5,2.9c1.3,2.2,6,2.8,8,1
	c0.3-0.2,0.5-0.5,0.7-0.9c1.9-3.1,0.3-7.2-3.2-8C113,269,112.6,268.9,112.3,268.9z"/>
<g>
	<path class="st5" d="M303.3,228.3c-11.3-11.6-18.8-22.1-23.6-29.7c-7.4-11.9-10.3-19.6-18.4-22.5c-7.5-2.7-14.4,0.8-22.5,4.1
		c-20.6,8.5-7.4-0.6-59.4,16.4C148,206.8,132.3,212,132.1,216c-0.8,15.3,79.3,34.3,81,34.8c-25.2,85.5-38.3,119.6-45.2,129.7
		c-0.4,0.5-1.3,1.9-0.9,2.5c4.2,5.9,121.4-71.7,133.2-79.9c0,0,0.1-0.1,10.2-7.2c93.7,60.4,132.2,87.6,138.9,95.3
		c0.2,0.3,1,1.2,1.5,1c3-1.3-13.6-46.8-45.1-133.2c42.3-11.9,91.7-27.7,90.2-37.9c-0.3-2.3-3.2-3.4-15.4-7.2
		c-38.6-11.9-74-20.4-83.5-22.7c-10.5-2.6-15.7-3.8-17.7-4.6c-7.7-2.8-10.8-5.1-15.7-4.5c-5.9,0.8-9.9,5.3-12.3,8.2
		c-19.7,23.5-26.4,44.7-36.9,45.1C312.1,235.6,308.3,234.7,303.3,228.3z"/>
	<g>
		<path class="st0" d="M308.6,223c-11.9-12.3-20.5-25.7-29.5-40.1c-3.9-6.2-8.6-11.7-15.8-14.1c-9.2-3.1-18.1,0.6-26.5,4.1
			c-10.8,4.4-22.1,5.4-33.3,8.4c-16.5,4.5-32.7,9.9-48.8,15.5c-6,2.1-12,4.2-17.9,6.7c-3.3,1.4-6.7,3-9.2,5.7
			c-6.9,7.2-0.5,16,5.8,20.7c7.6,5.7,16.9,9.2,25.8,12.6c17,6.4,34.7,10.3,52,15.6c-1.7-3.1-3.5-6.2-5.2-9.2
			c-9.8,33.1-19.6,66.4-31.5,98.8c-1.7,4.5-3.4,9-5.2,13.5c-0.2,0.5-1.1,2.6-0.5,1.2c-0.4,0.9-0.8,1.8-1.2,2.7
			c-0.6,1.4-1.3,2.8-2,4.2c-1,2.2-2.1,4.3-3.4,6.3c-3.2,5.2-4,12.9,3.2,14.9c5.7,1.6,12.3-2.5,17.1-4.9c8.5-4.3,16.8-9.2,25-14.1
			c21.4-12.8,42.3-26.2,63.2-39.8c14.7-9.6,29.3-19.3,43.6-29.3c-2.5,0-5,0-7.6,0c42.6,27.5,86.2,54.4,126.7,85
			c0.5,0.4,1,0.8,1.5,1.1c1.4,1-0.7-0.6,0.3,0.2c0.9,0.7,1.9,1.5,2.8,2.2c1.4,1.1,2.8,2.3,4.1,3.5c1.9,1.8,3.4,3.7,6,4.7
			c5.1,1.8,9.8-1.5,10.5-6.6c0.6-4.3-1.1-9-2.3-13.1c-2.2-7.7-4.9-15.3-7.5-22.9c-11.5-33.3-23.7-66.4-35.8-99.5
			c-1.7,3.1-3.5,6.2-5.2,9.2c26.3-7.4,53.6-14.6,78.2-26.7c6.4-3.1,15.1-7.5,17.2-15.1c2.7-10-7.6-13.7-15-16.1
			c-26.5-8.6-53.5-15.7-80.6-22.4c-8.2-2-16.7-3.7-24.8-6.2c-4.7-1.4-9-4.1-13.9-4.9c-6.6-1.1-12.8,1.1-17.9,5.2
			c-5.8,4.8-10.3,11.5-14.7,17.6c-4.4,6.1-8.4,12.5-12.5,18.9c-1.5,2.4-3.1,4.8-4.8,7c-0.6,0.8-1.3,1.5-2,2.2
			c-0.4,0.4-2.2,1.9-1.6,1.5c-0.3,0.2-0.7,0.3-1,0.6c-0.9,0.6,0.5-0.7-0.2,0c-0.1,0.1-0.2-0.2,0.4,0.1
			C312.6,227.2,310.6,225.4,308.6,223c-6.2-7.4-16.7,3.2-10.6,10.6c6.3,7.6,15.7,12.5,24.9,6.8c8.1-5,13.1-14.9,18.1-22.7
			c3.5-5.4,7.1-10.8,11-16c2.8-3.8,7.2-11.1,12.4-12c4.2-0.8,9.3,2.9,13.1,4.2c3.6,1.2,7.4,2.1,11.2,3c20.3,5,40.6,10.1,60.7,15.7
			c6.6,1.9,13.3,3.8,19.9,5.8c6.6,2,13.7,3.6,20,6.3c-0.9-0.4,1,0.5,1,0.5c0.2,0.1,0.3,0.2,0.5,0.3c-0.6-0.4-1.1-0.9-1.5-1.5
			c-0.7-1.2-0.6-2.3-0.5-3.6c0,0.1-0.1,0.3-0.1,0.4c0.5-1.1,0.5-1.3,0.1-0.5c-0.1,0,1.1-1-0.3,0.2c-0.5,0.5-1,0.9-1.5,1.4
			c1.1-0.8-1.2,0.7-1.1,0.7c-1.1,0.7-2.1,1.3-3.2,1.9c-10.4,5.8-22,9.7-33.2,13.5c-15.1,5.1-30.3,9.6-45.6,13.9
			c-3.7,1-6.6,5.4-5.2,9.2c9.7,26.7,19.5,53.4,29,80.1c5.2,14.5,10.6,29.1,14.7,43.9c0.5,1.9,0.9,3.9,1.4,5.9c0.5,2,0-1.7,0,0
			c0,1.4,0.1-1,0.2-1.2c0.2-0.5,1.9-3.3,3.1-4c1.9-0.3,3.9-0.5,5.8-0.8c2.9,1.2,1.7,0.9,0.8-0.2c-0.5-0.6-1.2-1.1-1.8-1.7
			c-1.5-1.3-3.1-2.6-4.6-3.9c-5.5-4.4-11.2-8.5-16.9-12.6c-20.1-14.4-40.7-28-61.4-41.6c-18.2-12-36.4-23.8-54.7-35.6
			c-2.1-1.3-5.5-1.5-7.6,0c-39.2,27.5-79.6,54.1-121.4,77.6c-4.6,2.6-9.3,5.1-14.1,7.4c-0.4,0.2-0.9,0.4-1.3,0.6
			c-1.3,0.6,1.6-0.6,0.2-0.1c-0.7,0.2-1.3,0.5-2,0.7c-0.4,0.2-1.2,0.1-1.6,0.4c1.4-0.9,4.6,0.3,5.8,1.7c0.7,1.8,1.5,3.5,2.2,5.3
			c0-0.3,0-0.6,0-0.8c-0.3,1.3-0.7,2.5-1,3.8c1.6-3.4,3.8-6.4,5.4-9.8c2.6-5.5,4.9-11.1,7.1-16.8c7.1-18.3,13.2-37.1,19.1-55.9
			c5.3-16.9,10.4-33.8,15.4-50.7c1.2-4-1.4-8-5.2-9.2c-12.9-4-26.1-6.9-39-11.1c-8.8-2.9-17.6-5.9-25.9-10c-1.7-0.8-3.3-1.7-5-2.7
			c-0.7-0.4-1.5-0.9-2.2-1.3c-0.4-0.2-2.6-2-1.4-0.9c-0.5-0.4-1-0.9-1.5-1.3c-0.7-0.6-1.4-0.9-0.3-0.2c-0.6-0.4-0.4-1.7-0.5-0.6
			c0,0.7,0.2,0.6,0.1,0.1c-0.2-1.4,0,1.5,0.1,0.7c-0.2,1.1-0.7,2.3-1.5,3.6c0.8-1.3-0.7,0.3,0.1-0.2c1.3-0.9,2.8-1.6,4.2-2.3
			c4-1.9,9-3.6,13.5-5.2c15.4-5.3,30.9-10.5,46.5-15c6.9-2,13.9-3.8,21.1-4.9c3.8-0.6,7.4-1.2,11-2.5c5.9-2.1,11.5-5.2,17.7-6.7
			c7.4-1.8,11.1,2.9,14.6,8.6c9.2,15.1,18.8,29.2,31.1,41.9C304.7,240.6,315.3,230,308.6,223z"/>
	</g>
</g>
<path class="st4" d="M277.9,523.8c-0.5,0-0.9,0.1-1.4,0.2c-2.1,0.7-3.6,2.7-3.7,4.9c0,1,0.1,2.1,0.5,2.9c1.3,2.2,6,2.8,8,1
	c0.3-0.2,0.5-0.5,0.7-0.9c1.9-3.1,0.3-7.2-3.2-8C278.6,523.9,278.2,523.8,277.9,523.8z"/>
</svg>
