<?xml version="1.0" encoding="utf-8"?>
<!-- Generator: Adobe Illustrator 22.1.0, SVG Export Plug-In . SVG Version: 6.00 Build 0)  -->
<svg version="1.1" id="Calque_1" xmlns="http://www.w3.org/2000/svg" xmlns:xlink="http://www.w3.org/1999/xlink" x="0px" y="0px"
	 viewBox="0 0 558.3 352.3" style="enable-background:new 0 0 558.3 352.3;" xml:space="preserve">
<style type="text/css">
	.st0{fill:#E73E2A;}
	.st1{fill:#9FA51E;}
	.st2{fill:#747D25;}
	.st3{fill:none;stroke:#000000;stroke-miterlimit:10;}
	.st4{fill:none;stroke:#FFFFFF;stroke-miterlimit:10;}
	.st5{fill:#B9CE00;stroke:#747D25;stroke-miterlimit:10;}
	.st6{fill:#69812A;}
	.st7{fill:#B9CE00;}
	.st8{fill:#D8D031;}
	.st9{fill:#C4C30F;}
	.st10{fill:#235627;}
	.st11{fill:#953A8E;stroke:#501E53;stroke-miterlimit:10;}
	.st12{fill:#953A8E;}
	.st13{fill:#501E53;}
	.st14{fill:#AB63A4;}
	.st15{fill:#E6E460;}
	.st16{fill:#A2AA1D;}
	.st17{fill:#AA64A5;}
</style>
<path class="st0" d="M291.1,165.3"/>
<g>
	<path class="st1" d="M472,132.3c0.8-1.3,1.9-3.1,2.9-5.3c4-8.6,5-17.7,3.8-18c-0.8-0.2-1.5,3.7-5.8,8.1c-2.9,3-4.3,3-7.9,6.6
		c-3.2,3.2-4.5,5.6-4.8,5.4c-0.6-0.3,8.1-11,10-24.4c1.8-13-3.6-23-8.7-32.4c-2.7-4.9-5.5-9.7-8.7-9.2c-5,0.8-6.8,13.7-9.8,13.6
		c-2.3,0-2.7-7.3-4.4-14c-4.3-17.1-18-33.5-27.9-31.4c-1,0.2-2.4,0.7-10.5,10.2c-10.6,12.4-15.8,18.7-19.5,25.9
		c-7.6,14.6-7.9,26.6-9.7,26.5c-1.9-0.1-3.5-8.8-2.8-16.8c0.6-7.4,2.8-11.5,1.8-12c-1.5-0.8-8.9,8.8-14.4,18.7
		c0,0-10.7,19.3-9.9,33.3c0.3,5.6,2.3,10,2.3,10c0.7,1.5,1.3,2.6,1.7,3.2c0.9,1.5,10.3,16.6,8.7,18.1c-0.4,0.3-1.1-0.5-4-1.9
		c-2.6-1.2-3-1-7.1-2.4c-2.8-1-5.2-1.9-8-3.5c-3.1-1.8-3.7-2.7-4.1-2.5c-1.8,1.1,2.9,18.4,11.3,30.3c13.2,18.6,35.4,23.5,47.9,25"/>
	<g>
		<path class="st2" d="M473.4,132.4c1.2-1.9,11.8-25.6,5-24.5c-0.9,0.1-1.2,0.8-1.8,1.4c-1.9,2.2-2.9,5.1-5,7.3
			c-2,2-4.5,3.5-6.7,5.4c-1.5,1.4-3.9,5.6-5.5,6.2c0.7,0.2,1.4,0.3,2.1,0.5c-0.1-0.4,3.1-5.1,3.7-6.2c2.4-4.4,4.3-9,5.5-13.8
			c2.6-10.4,0.4-20.4-4.3-29.8c-2.3-4.8-7.6-19.5-15.2-16.4c-2.2,0.9-3.6,3.3-4.6,5.3c-0.8,1.5-1.4,3.1-2.1,4.7
			c-0.2,0.4-0.5,1.2-0.8,1.7c-1.5,1.9-1.1,1.4-1.7-0.9c-2.7-10.7-4.6-20.5-11.1-29.8c-4.1-5.8-10.5-13-18.2-13.2
			c-4-0.1-6.3,2.4-8.9,5.2c-7,7.5-13.9,15.5-19.8,23.9c-5.2,7.3-8.8,15.4-11.2,24c-0.9,3.1-2,6.5-2.7,9.7c0.4-0.1,0.7-0.1,1.1-0.2
			c-0.4-0.7-0.7-1.4-0.9-2.2c-0.3-1-0.5-2.1-0.6-3.2c-0.5-3.4-0.6-6.9-0.3-10.4c0.2-2.7,0.7-5.4,1.4-8c0.2-0.9,1-2.6,0.7-3.5
			c-0.4-1.5-1.4-1.6-2.8-1.1c-2.5,0.8-4.8,4.4-6.2,6.3c-3.1,4.1-6,8.6-8.4,13.1c-6.8,12.5-13.6,29.2-7.9,43.2
			c2.1,5.1,5.6,9.6,8.1,14.5c0.8,1.5,1.3,3.2,2.2,4.7c0.3,0.5,0.2,1.1,0.4,1.6c0,0.1,0,0.2,0.1,0.3c1.3-0.7,1.2-1.2-0.1-1.6
			c-2.4-2.6-9-3.3-12.1-4.5c-3-1.2-12.3-9.1-11.5-0.8c0.9,9.2,5.8,19.1,10.9,26.7c11,16.6,30.4,24.3,49.5,26.7c1.4,0.2,3-1.9,1-2.1
			c-16.9-2.1-34.2-8.4-45.2-22.1c-5.9-7.3-10-16.4-12.4-25.4c-0.4-1.4-0.4-3.1-0.9-4.5c-0.1-0.4,0.1-1.1,0-1.5
			c-0.4,0.2-0.8,0.4-1.2,0.6c0.4,0.3,0.8,0.6,1.2,0.8c3,3.1,9.4,4.6,13.3,5.8c2,0.6,9.4,6.1,10.4,1.7c0.4-1.7-1.3-4.2-1.9-5.6
			c-1.4-2.8-2.9-5.6-4.5-8.2c-3.5-5.9-6.4-11-6.5-18.1c-0.1-8.8,3.2-17.7,6.9-25.6c2.8-6.2,6.2-12,10.2-17.5c1.1-1.6,2.6-3,3.7-4.7
			c0.1-0.1,0.2-0.3,0.4-0.4c1.3-0.6,1.4-1,0.5-1.3c0,0.2-0.2,1.2-0.3,1.4c-1.8,4.3-2,10.1-1.9,14.7c0.1,2.3,0.1,14.3,5.1,12.4
			c1.3-0.5,1.6-1.7,2-2.9c1.3-3.7,1.9-7.7,3.1-11.4c5.6-17.5,18.1-32.6,30.9-45.5c1.2-1.2,2.2-2.4,3.8-2.8c4.5-1,9.8,3.8,12.5,6.6
			c7.3,7.5,11.8,17.4,13.9,27.6c0.6,2.7,2,15.7,7.5,10c2-2,2.7-5.5,4-8c1.6-3.3,3.5-5.4,7.1-1.6c1.9,2,3.1,4.9,4.4,7.3
			c6.1,11.2,10.3,22.6,6.9,35.4c-1.4,5.3-3.8,10.2-6.5,14.9c-0.6,1-2.9,3.6-2.5,4.9c0.3,0.9,1.5,0.7,2.1,0.5
			c0.7-0.3,1.1-0.9,1.6-1.5c2-2.1,3.6-4.4,5.9-6.3c3.3-2.7,6.5-4.9,8.9-8.6c0.7-1.1,2.7-3.5,1.3-3.7c-1.2-0.1-0.9,3.7-1.2,5
			c-1,6.1-3.4,11.9-6.7,17.1C469.8,133.5,472.7,133.5,473.4,132.4L473.4,132.4z"/>
	</g>
</g>
<path class="st2" d="M395.7,201.5c-0.6-1.8-1.8-4.6-4.1-7.5c-0.4-0.5-1.9-2.4-4.9-4.6c-3.8-2.9-6.9-4.1-8.1-4.7
	c-9.4-4.7-10.1-25.5-9-25.8c0.7-0.2,1.6,7.7,8.4,17.5c3.1,4.5,8.4,10.7,10.2,9.8c1.4-0.7,0-5.4-0.7-8.7c-1.5-6.9-1-10.7,1.8-34.4
	c3.7-31.7,4-35.7,4.7-35.6c1.4,0.1,1.7,20.8,1.8,26.7c0.4,33.7-2.6,54.8,0.7,55.5c0.8,0.2,1.2-1,6.1-7.9
	c8.2-11.5,9.4-11.5,12.4-17.3c3.3-6.3,4.2-10.8,5.2-10.6c1,0.2,1.1,4.9,0.5,9c-0.7,5-2.5,8.2-10.2,20.5c-4.7,7.5-9.9,15.5-9.9,15.5
	l0,0"/>
<path class="st3" d="M442.5,114.6"/>
<line class="st3" x1="459.8" y1="42" x2="459.8" y2="42"/>
<path class="st4" d="M385.9,181.2"/>
<path class="st5" d="M450.5,185.2c-2.4,0.3-5.9,0.7-9.7,3c-7.8,4.8-9.8,13.6-10.3,16c-0.3,1.4-0.9,3.9-0.6,7.2
	c0.1,1.4,0.6,6.5,3.9,10.8c5.2,6.8,14.2,7.2,16.7,7.3c2.4,0.1,11.3,0.4,18.5-5.8c1.6-1.4,2.6-2.7,3.2-3.5c0,0,1-1.4,1.8-3
	c4.1-8.1,1.8-16.7,1.8-16.7c-0.5-1.8-1.6-5.8-5-9.3C463.7,183.8,453,185,450.5,185.2z"/>
<path class="st5" d="M425.9,212.2c-2.5-0.2-6.3-0.1-10.7,1.3c-2.1,0.7-10.8,3.5-15.3,12.3c-0.7,1.4-6.1,12.1-0.3,21.7
	c5.1,8.5,15,9.7,17.7,10c7.4,0.9,13.2-1.8,18-4c3.9-1.8,7-3.2,9.7-6.7c4.2-5.5,3.9-12,3.7-14.3"/>
<path class="st5" d="M427.1,257.2c-0.1,1.7-0.3,4-1,6.7c-0.9,3.4-2,5.8-3,7.7c-2.5,4.9-3.7,7.4-6.3,9c-2,1.2-3.3,1.2-3.7,2.3
	c-0.5,1.9,2.4,4.4,4,5.7c0.4,0.4,2.2,1.8,5,3c0.9,0.4,3.2,1.3,6.3,1.7c0.6,0.1,2.6,0.3,5.3,0c2.1-0.2,6.8-0.8,11.7-4
	c3.1-2.1,4.9-4.3,5.7-5.3c3-4,3.7-7.7,4.7-12.3c0.7-3.4,1.1-5.5,0-6.3c-1.3-1-3,0.9-7.3,1.3c-1.4,0.1-4.7,0.4-8.2-1.3
	c-0.9-0.5-3.8-2-5.5-5.3c-1.4-2.8-1.5-5.6-1.3-5.7c0.3-0.1,0.1,4.9,3.2,8.3c3.7,4,10.1,3.6,23,2.7c1.9-0.1,3.7-0.3,5.7-1.3
	c2.8-1.5,4.3-3.8,7-8c2.1-3.3,3.1-4.9,3.7-7.3c0.7-3,0.4-5.5,0-8.7c-0.3-2.2-0.5-3.9-1.3-6c-1.1-2.7-2.6-4.5-3.7-5.7"/>
<path class="st5" d="M429.2,198.9c-2.5-0.1-6.3-0.7-9.3-3.3c-6.1-5.2-3.1-12.9-7.7-16c-5.4-3.7-17.7,1.6-23.7,10.3
	c-0.9,1.3-6.5,9.8-3.3,19.3c0.3,1,2.6,7.5,8,10.7c2.6,1.5,4.4,1.3,5.7,3c2.1,2.9,0.3,7.9-1.8,11.8"/>
<g>
	<g>
		<path class="st6" d="M327.6,148.4c3.1-4.7,6.2,4.1,6,6.6c-0.4,5-5.4,10-10.5,8.4c-5.8-1.9-11-8.1-12.6-13.9
			c-4.1-14.6,17.6-17.3,27.5-14.9c16.7,4,28.8,20.9,35.3,35.8c0.5,1.1,3.4,0.3,2.9-0.8c-7.7-17.5-22.9-37.3-43.7-37.6
			c-9-0.1-25.7,2.9-25.4,14.8c0.2,9.5,12.2,22.9,22.4,17.9c5.6-2.7,8.8-9.7,6.1-15.5c-2.3-4.9-7.6-5.6-10.7-1
			C324,149.5,327,149.3,327.6,148.4L327.6,148.4z"/>
	</g>
</g>
<path class="st5" d="M468.5,244.6"/>
<path class="st5" d="M452.5,226.6"/>
<path class="st5" d="M461.4,288.5"/>
<path class="st5" d="M452.5,210"/>
<path class="st5" d="M458.7,239.3"/>
<path class="st5" d="M370,222.1c-2.2,0.2-5.5,0.6-8.9,2.8c-7.2,4.4-9,12.5-9.5,14.8c-0.3,1.3-0.8,3.6-0.5,6.6c0.1,1.3,0.6,6,3.6,10
	c4.8,6.3,13.1,6.7,15.4,6.8c2.2,0.1,10.5,0.4,17-5.4c1.5-1.3,2.4-2.5,3-3.2c0,0,0.9-1.3,1.7-2.7c3.8-7.5,1.7-15.4,1.7-15.4
	c-0.4-1.7-1.5-5.3-4.6-8.6C382.1,220.8,372.2,221.9,370,222.1z"/>
<g>
	<path class="st7" d="M384.2,243.1c-2.4,0.3-5.9,0.7-9.7,3c-7.8,4.8-9.8,13.6-10.3,16c-0.3,1.4-0.9,3.9-0.6,7.2
		c0.1,1.4,0.6,6.5,3.9,10.8c5.2,6.8,14.2,7.2,16.7,7.3c2.4,0.1,11.3,0.4,18.5-5.8c1.6-1.4,2.6-2.7,3.2-3.5c0,0,1-1.4,1.8-3
		c4.1-8.1,1.8-16.7,1.8-16.7c-0.5-1.8-1.6-5.8-5-9.3C397.4,241.7,386.6,242.9,384.2,243.1z"/>
	<g>
		<path class="st2" d="M384.4,242.4c-11,1.3-18.7,8.2-21.4,18.9c-2.7,10.8,1.5,22.2,12.7,25.7c18.5,5.8,40.3-7.8,35.3-28.9
			C408,245.7,396,241.1,384.4,242.4c-1.4,0.1-2.5,1.7-0.4,1.5c10.9-1.2,21.7,3.9,24.2,15.4c3,13.9-6.4,26.9-20.8,27.4
			c-10.8,0.4-20.7-5.1-22.2-16.6c-1.6-12.2,6.2-24.8,18.8-26.3C385.3,243.7,386.4,242.2,384.4,242.4z"/>
	</g>
</g>
<g>
	<path class="st7" d="M412.1,297.3c-2.4,0.3-5.9,0.7-9.7,3c-7.8,4.8-9.8,13.6-10.3,16c-0.3,1.4-0.9,3.9-0.6,7.2
		c0.1,1.4,0.6,6.5,3.9,10.8c5.2,6.8,14.2,7.2,16.7,7.3c2.4,0.1,11.3,0.4,18.5-5.8c1.6-1.4,2.6-2.7,3.2-3.5c0,0,1-1.4,1.8-3
		c4.1-8.1,1.8-16.7,1.8-16.7c-0.5-1.8-1.6-5.8-5-9.3C425.3,295.8,414.5,297,412.1,297.3z"/>
	<g>
		<path class="st2" d="M412.3,296.5c-11,1.3-18.7,8.2-21.4,18.9c-2.7,10.6,1.3,21.9,12.3,25.6c18.6,6.2,40.8-7.5,35.7-28.8
			C435.9,299.8,423.9,295.2,412.3,296.5c-1.4,0.2-2.4,1.8-0.4,1.6c10.9-1.2,21.7,3.9,24.2,15.4c3,13.9-6.4,26.8-20.8,27.4
			c-10.8,0.4-20.7-5-22.2-16.5c-1.6-12.2,6.2-24.8,18.8-26.3C413.3,297.9,414.3,296.2,412.3,296.5z"/>
	</g>
</g>
<g>
	<path class="st7" d="M441.9,274.9c-2.4,0.3-5.9,0.7-9.7,3c-7.8,4.8-9.8,13.6-10.3,16c-0.3,1.4-0.9,3.9-0.6,7.2
		c0.1,1.4,0.6,6.5,3.9,10.8c5.2,6.8,14.2,7.2,16.7,7.3c2.4,0.1,11.3,0.4,18.5-5.8c1.6-1.4,2.6-2.7,3.2-3.5c0,0,1-1.4,1.8-3
		c4.1-8.1,1.8-16.7,1.8-16.7c-0.5-1.8-1.6-5.8-5-9.3C455.1,273.5,444.3,274.7,441.9,274.9z"/>
	<g>
		<path class="st2" d="M442.1,274.2c-11,1.3-18.7,8.2-21.4,18.9c-2.7,10.8,1.5,22.2,12.7,25.7c18.5,5.8,40.3-7.8,35.3-28.9
			C465.7,277.5,453.7,272.9,442.1,274.2c-1.4,0.1-2.4,1.7-0.4,1.5c10.9-1.2,21.7,3.9,24.2,15.4c3,13.9-6.4,26.9-20.8,27.4
			c-10.8,0.4-20.7-5.1-22.2-16.6c-1.6-12.2,6.2-24.8,18.8-26.3C443,275.5,444.1,274,442.1,274.2z"/>
	</g>
</g>
<g>
	<path class="st7" d="M360.9,176.9c-2.4,0.3-5.9,0.7-9.7,3c-7.8,4.8-9.8,13.6-10.3,16c-0.3,1.4-0.9,3.9-0.6,7.2
		c0.1,1.4,0.6,6.5,3.9,10.8c5.2,6.8,14.2,7.2,16.7,7.3c2.4,0.1,11.3,0.4,18.5-5.8c1.6-1.4,2.6-2.7,3.2-3.5c0,0,1-1.4,1.8-3
		c4.1-8.1,1.8-16.7,1.8-16.7c-0.5-1.8-1.6-5.8-5-9.3C374.1,175.4,363.3,176.6,360.9,176.9z"/>
	<g>
		<path class="st2" d="M359.4,175.1c-11.6,1.4-18.9,9.7-21,20.8c-2.1,11.2,3.8,22,14.7,25.6c8.9,2.9,20,2,27.4-4
			c8-6.5,10.6-18,7-27.6C383.1,178.3,371.1,173.9,359.4,175.1c-2.4,0.3,1.1,3.7,2.9,3.5c10.7-1.2,20.8,4.1,22.1,15.6
			c1.6,13.6-8.3,24.7-21.9,25.2c-3.5,0.1-7.3-0.2-10.5-1.5c-7-2.8-10-10.3-9.5-17.4c0.9-11.3,8.2-20.5,19.8-21.8
			C364.7,178.4,361.2,174.9,359.4,175.1z"/>
	</g>
</g>
<g>
	<path class="st7" d="M391.2,181.5c-2.4,0.3-5.9,0.7-9.7,3c-7.8,4.8-9.8,13.6-10.3,16c-0.3,1.4-0.9,3.9-0.6,7.2
		c0.1,1.4,0.6,6.5,3.9,10.8c5.2,6.8,14.2,7.2,16.7,7.3c2.4,0.1,11.3,0.4,18.5-5.8c1.6-1.4,2.6-2.7,3.2-3.5c0,0,1-1.4,1.8-3
		c4.1-8.1,1.8-16.7,1.8-16.7c-0.5-1.8-1.6-5.8-5-9.3C404.4,180,393.7,181.2,391.2,181.5z"/>
	<g>
		<path class="st2" d="M391.4,180.6c-11,1.3-18.7,8.3-21.4,19c-2.6,10.4,1.2,21.7,11.9,25.5c18.7,6.6,41.3-7.2,36.1-28.7
			C415.1,184,403,179.3,391.4,180.6c-1.5,0.2-2.4,2-0.4,1.7c10.9-1.2,21.7,3.8,24.2,15.3c3,13.7-6.2,26.4-20.2,27.3
			c-10.9,0.7-21.2-4.7-22.8-16.4c-1.6-12.2,6.2-24.7,18.8-26.2C392.5,182.2,393.4,180.4,391.4,180.6z"/>
	</g>
</g>
<g>
	<path class="st7" d="M456,248.8c-2.4,0.3-5.9,0.7-9.7,3c-7.8,4.8-9.8,13.6-10.3,16c-0.3,1.4-0.9,3.9-0.6,7.2
		c0.1,1.4,0.6,6.5,3.9,10.8c5.2,6.8,14.2,7.2,16.7,7.3c2.4,0.1,11.3,0.4,18.5-5.8c1.6-1.4,2.6-2.7,3.2-3.5c0,0,1-1.4,1.8-3
		c4.1-8.1,1.8-16.7,1.8-16.7c-0.5-1.8-1.6-5.8-5-9.3C469.2,247.3,458.5,248.5,456,248.8z"/>
	<g>
		<path class="st2" d="M456.7,248.2c-10.8,1.3-18.7,7.5-21.6,18.1c-2.9,10.6,0.7,22.2,11.8,25.9c18.4,6.2,41-7.2,36-28.4
			C480,251.6,468.2,247,456.7,248.2c-0.7,0.1-3.1,1.3-1.3,1.1c11-1.2,21.9,3.8,24.5,15.3c3.1,13.4-5.5,27-19.7,27.9
			c-10.8,0.7-21.1-4.4-23.1-15.8c-2.1-12.1,5.4-25.8,18.2-27.4C456.1,249.2,458.6,248,456.7,248.2z"/>
	</g>
</g>
<g>
	<path class="st7" d="M465.2,212.9c-2.4,0.3-5.9,0.7-9.7,3c-7.8,4.8-9.8,13.6-10.3,16c-0.3,1.4-0.9,3.9-0.6,7.2
		c0.1,1.4,0.6,6.5,3.9,10.8c5.2,6.8,14.2,7.2,16.7,7.3c2.4,0.1,11.3,0.4,18.5-5.8c1.6-1.4,2.6-2.7,3.2-3.5c0,0,1-1.4,1.8-3
		c4.1-8.1,1.8-16.7,1.8-16.7c-0.5-1.8-1.6-5.8-5-9.3C478.4,211.4,467.6,212.6,465.2,212.9z"/>
	<g>
		<path class="st2" d="M465.3,211.8c-11.1,1.3-18.7,8.4-21.3,19.2c-2.6,10.5,1.2,21.8,11.9,25.7c18.9,6.9,41.2-7.4,36.1-28.9
			C489,215.5,477,210.5,465.3,211.8c-1.7,0.2-2.2,2.5-0.2,2.2c10.8-1.2,21.6,3.5,24.1,15c3,13.7-6.4,26.1-20.3,27
			c-10.8,0.7-21.2-4.5-22.7-16.2c-1.6-12.2,6.4-24.4,18.9-25.9C466.8,213.8,467.3,211.5,465.3,211.8z"/>
	</g>
</g>
<g>
	<path class="st7" d="M477.4,184.5c-2.2,0.2-5.4,0.6-8.7,2.7c-7.1,4.3-8.9,12.3-9.4,14.5c-0.3,1.3-0.8,3.5-0.5,6.5
		c0.1,1.2,0.6,5.9,3.5,9.8c4.7,6.1,12.8,6.5,15.1,6.6c2.1,0.1,10.3,0.4,16.7-5.3c1.4-1.3,2.4-2.5,2.9-3.2c0,0,0.9-1.3,1.6-2.7
		c3.7-7.3,1.7-15.1,1.7-15.1c-0.4-1.6-1.4-5.2-4.5-8.4c-4.5-4.7-10.3-5.3-12.5-5.5C480.6,184.1,478.5,184.3,477.4,184.5z"/>
	<g>
		<path class="st2" d="M477.6,183.7c-10.1,1.2-17.1,7.5-19.6,17.3c-2.3,9.5,1.2,19.6,11,22.9c16.9,5.7,37.4-6.7,32.7-26.1
			C499.1,186.7,488.1,182.6,477.6,183.7c-1.3,0.2-2.5,1.7-0.4,1.5c9.9-1.1,19.6,3.7,21.8,14.1c2.7,12.8-6.2,24.5-19.5,24.6
			c-9.4,0.1-17.8-4.9-19.2-14.8c-1.5-11,5.4-22.5,16.8-23.9C478.5,185,479.6,183.5,477.6,183.7z"/>
	</g>
</g>
<path class="st8" d="M412.6,166.6c-1.3,0.6-3.2,1.4-3.7,3.3c-0.4,1.5,0.4,2.9,0.7,3.3c2.9,2.3,6.4,2.6,8.7,1
	c0.2-0.1,2.6-1.9,2.3-4.7c0-0.1-0.3-2.2-2-3.3C416.5,164.9,413.9,166.1,412.6,166.6z"/>
<path class="st8" d="M353.5,186c-1.3,0.6-3.2,1.4-3.7,3.3c-0.4,1.5,0.4,2.9,0.7,3.3c2.9,2.3,6.4,2.6,8.7,1c0.2-0.1,2.6-1.9,2.3-4.7
	c0-0.1-0.3-2.2-2-3.3C357.4,184.3,354.8,185.4,353.5,186z"/>
<path class="st8" d="M361.4,228.5c-1.3,0.6-3.2,1.4-3.7,3.3c-0.4,1.5,0.4,2.9,0.7,3.3c2.9,2.3,6.4,2.6,8.7,1
	c0.2-0.1,2.6-1.9,2.3-4.7c0-0.1-0.3-2.2-2-3.3C365.3,226.8,362.7,227.9,361.4,228.5z"/>
<path class="st5" d="M395.8,217.4c-1.3,0.6-3.2,1.4-3.7,3.3c-0.4,1.5,0.4,2.9,0.7,3.3c2.9,2.3,6.4,2.6,8.7,1
	c0.2-0.1,2.6-1.9,2.3-4.7c0-0.1-0.3-2.2-2-3.3C399.7,215.7,397.1,216.9,395.8,217.4z"/>
<g>
	<path class="st7" d="M401.6,207.5c-2.4,0.3-5.9,0.7-9.7,3c-7.8,4.8-9.8,13.6-10.3,16c-0.3,1.4-0.9,3.9-0.6,7.2
		c0.1,1.4,0.6,6.5,3.9,10.8c5.2,6.8,14.2,7.2,16.7,7.3c2.4,0.1,11.3,0.4,18.5-5.8c1.6-1.4,2.6-2.7,3.2-3.5c0,0,1-1.4,1.8-3
		c4.1-8.1,1.8-16.7,1.8-16.7c-0.5-1.8-1.6-5.8-5-9.3C414.8,206.1,404,207.3,401.6,207.5z"/>
	<g>
		<path class="st2" d="M401.8,206.6c-11,1.3-18.7,8.3-21.4,19c-2.6,10.4,1.2,21.7,11.9,25.5c18.7,6.7,41.3-7.2,36.1-28.7
			C425.4,210.1,413.4,205.4,401.8,206.6c-1.5,0.2-2.3,2-0.3,1.8c10.9-1.2,21.6,3.8,24.2,15.3c3,13.7-6.2,26.4-20.2,27.3
			c-10.9,0.7-21.2-4.7-22.8-16.4c-1.6-12.2,6.3-24.6,18.8-26.1C402.9,208.3,403.8,206.4,401.8,206.6z"/>
	</g>
</g>
<g>
	<path class="st7" d="M392.5,274c-2.4,0.3-5.9,0.7-9.7,3c-7.8,4.8-9.8,13.6-10.3,16c-0.3,1.4-0.9,3.9-0.6,7.2
		c0.1,1.4,0.6,6.5,3.9,10.8c5.2,6.8,14.2,7.2,16.7,7.3c2.4,0.1,11.3,0.4,18.5-5.8c1.6-1.4,2.6-2.7,3.2-3.5c0,0,1-1.4,1.8-3
		c4.1-8.1,1.8-16.7,1.8-16.7c-0.5-1.8-1.6-5.8-5-9.3C405.7,272.5,394.9,273.7,392.5,274z"/>
	<g>
		<path class="st2" d="M392,272c-11.6,1.4-19.3,9-21.9,20.3c-2.6,11,2.1,22.4,13.1,26.3c8.7,3.1,19.8,2.3,27.5-3.1
			c8.6-6,12.2-17.2,9.4-27.3C416.6,275.7,404.1,270.7,392,272c-3.2,0.4-2,4.3,0.9,3.9c10.4-1.1,20.5,3.5,22.6,14.6
			c2.5,13.3-6.6,24.9-20,25.8c-10.5,0.7-20.1-4.6-21.2-15.9c-1.1-11.7,6.6-23,18.6-24.5C396.2,275.6,394.9,271.7,392,272z"/>
	</g>
</g>
<g>
	<path class="st7" d="M414.6,246.8c-2.4,0.3-5.9,0.7-9.7,3c-7.8,4.8-9.8,13.6-10.3,16c-0.3,1.4-0.9,3.9-0.6,7.2
		c0.1,1.4,0.6,6.5,3.9,10.8c5.2,6.8,14.2,7.2,16.7,7.3c2.4,0.1,11.3,0.4,18.5-5.8c1.6-1.4,2.6-2.7,3.2-3.5c0,0,1-1.4,1.8-3
		c4.1-8.1,1.8-16.7,1.8-16.7c-0.5-1.8-1.6-5.8-5-9.3C427.7,245.4,417,246.6,414.6,246.8z"/>
	<g>
		<path class="st2" d="M414.8,246.1c-11,1.3-18.7,8.2-21.4,18.9c-2.7,10.8,1.5,22.2,12.7,25.7c18.5,5.8,40.3-7.8,35.3-28.9
			C438.4,249.4,426.3,244.8,414.8,246.1c-1.4,0.1-2.5,1.7-0.4,1.5c10.9-1.2,21.7,3.9,24.2,15.4c3,13.9-6.4,26.9-20.8,27.4
			c-10.8,0.4-20.7-5.1-22.2-16.6c-1.6-12.2,6.2-24.8,18.8-26.3C415.7,247.4,416.8,245.9,414.8,246.1z"/>
	</g>
</g>
<g>
	<path class="st7" d="M435.4,187.9c-2.4,0.3-5.9,0.7-9.7,3c-7.8,4.8-9.8,13.6-10.3,16c-0.3,1.4-0.9,3.9-0.6,7.2
		c0.1,1.4,0.6,6.5,3.9,10.8c5.2,6.8,14.2,7.2,16.7,7.3c2.4,0.1,11.3,0.4,18.5-5.8c1.6-1.4,2.6-2.7,3.2-3.5c0,0,1-1.4,1.8-3
		c4.1-8.1,1.8-16.7,1.8-16.7c-0.5-1.8-1.6-5.8-5-9.3C448.6,186.5,437.8,187.7,435.4,187.9z"/>
	<g>
		<path class="st2" d="M435.7,187.3c-10.8,1.3-18.6,7.9-21.4,18.5c-2.8,10.6,1,22,12,25.7c18.5,6.2,40.9-7.4,35.9-28.6
			c-2.9-12.2-14.7-16.9-26.2-15.7c-0.8,0.1-3.1,1.5-1.2,1.3c11-1.2,21.8,3.6,24.5,15.2c3.2,13.7-5.8,27.1-20.2,27.8
			c-10.8,0.6-20.9-4.7-22.7-16.2c-1.9-12.3,5.9-25.3,18.7-26.9C436.4,188.4,437.7,187.1,435.7,187.3z"/>
	</g>
</g>
<path class="st8" d="M395.8,214c-1.3,0.6-3.2,1.4-3.7,3.3c-0.4,1.5,0.4,2.9,0.7,3.3c2.9,2.3,6.4,2.6,8.7,1c0.2-0.1,2.6-1.9,2.3-4.7
	c0-0.1-0.3-2.2-2-3.3C399.7,212.3,397.1,213.4,395.8,214z"/>
<path class="st8" d="M426.1,204.4c-1.3,0.6-3.2,1.4-3.7,3.3c-0.4,1.5,0.4,2.9,0.7,3.3c2.9,2.3,6.4,2.6,8.7,1
	c0.2-0.1,2.6-1.9,2.3-4.7c0-0.1-0.3-2.2-2-3.3C430,202.7,427.4,203.8,426.1,204.4z"/>
<path class="st8" d="M453.4,171.5c-1.3,0.6-3.2,1.4-3.7,3.3c-0.4,1.5,0.4,2.9,0.7,3.3c2.9,2.3,6.4,2.6,8.7,1
	c0.2-0.1,2.6-1.9,2.3-4.7c0-0.1-0.3-2.2-2-3.3C457.2,169.7,454.7,170.9,453.4,171.5z"/>
<g>
	<path class="st9" d="M479.8,188.4c1.2,0,3,0,5-0.2c7.9-0.8,14.9-4.3,14.6-5.3c-0.2-0.7-3.3,0.5-8.3-0.8c-3.3-0.9-4-2-8.1-3.1
		c-3.7-1-5.9-0.9-5.9-1.3c0-0.6,11.3,1.3,21.8-3.4c10.2-4.6,15.3-13.4,19.9-21.8c2.4-4.4,4.8-8.8,3.1-11.1c-2.6-3.5-12.7,1-13.9-1.4
		c-0.9-1.8,4.2-5.5,8.4-9.9c10.6-11.3,16.9-29.6,11.3-36.4c-0.6-0.7-1.5-1.5-11.7-3.5c-13.3-2.6-20-3.7-26.8-3.3
		c-13.7,0.8-22.6,6.1-23.2,4.6c-0.7-1.5,4.9-6.8,11-10c5.6-2.9,9.5-3.1,9.5-4.1c-0.1-2.3-19.3-2.6-19.4-2.6c0,0,0,0-0.1,0
		c0,0,0,0,0,0c0,0-18.4,0.5-28.2,7.6c-4,2.9-6.3,6.4-6.3,6.4c-0.8,1.3-1.3,2.2-1.6,2.9c-0.7,1.4-7.8,15.7-9.5,15.1
		c-0.4-0.1-0.1-1.1-0.3-4c-0.2-2.6-0.5-2.8-1.1-6.7c-0.4-2.7-0.8-5-0.8-7.9c0-3.2,0.5-4.1,0.1-4.3c-1.5-0.9-12.2,10.8-17.3,22.8
		c-8.1,18.9-2.5,38.6,1.5,49.1"/>
	<g>
		<path class="st2" d="M479.3,189.4c5.3,0.1,10.6-0.7,15.5-2.6c1.1-0.4,6.6-2.2,6.1-4.3c-0.5-2.1-7.6-1.3-8.8-1.6
			c-2.6-0.7-4.8-2.1-7.4-2.9c-1.4-0.4-5.3-0.6-6.4-1.4c-0.1,0.5-0.1,1-0.2,1.5c-0.5,0.4,2.3,0.3,2.9,0.3c1.7,0,3.4-0.1,5-0.2
			c4.6-0.4,9.3-1.4,13.5-3.3c7.6-3.4,12.9-9.6,17.2-16.5c2.3-3.7,11.3-15.5,5.1-19c-1.9-1.1-4.7-0.7-6.7-0.5c-0.7,0.1-4.7,1-5.2,0.5
			c-1.2-1.2,3.5-5,4.2-5.7c6.6-6.3,11.9-13.6,15-22.3c1.8-5.1,4-13,0.4-17.9c-2.4-3.2-7.6-3.5-11.2-4.2c-8.2-1.7-16.7-3.6-25.1-3.8
			c-8-0.2-15.6,1.7-23.2,4c-0.3,0.1-1.1,0.5-1.6,0.5c-1.5,0.1-0.7,0.7-0.8-0.2c-0.1-1.2,3.9-3.8,4.9-4.6c4.3-3.2,9-4.1,13.5-6.5
			c3.5-1.8,0.7-3.4-1.9-4c-5.1-1.1-10.5-1.2-15.7-1.3c-8.4-0.2-20.6,1.9-28.7,6.6c-5.1,3-8.5,7.3-11.1,12.4
			c-1.3,2.7-2.7,5.3-4.2,7.9c-0.7,1.3-1.7,2.4-2.3,3.7c-0.1,0.2-0.3,0.4-0.4,0.6c-0.6,0.5-0.6,0.7,0.2,0.4c0.8,0,1-0.4,0.6-1.3
			c0-0.6,0-1.1-0.1-1.7c-0.4-4.9-1.9-9.5-1.9-14.5c0-1.7,1.2-4.8-1.1-5.3c-4.3-1.1-10.9,9.9-12.7,12.5
			c-12.7,18.7-12.8,40.3-4.9,60.9c0.5,1.3,3.4,0.5,2.9-0.8c-7-18.3-8.2-38.2,2.1-55.6c2.2-3.7,4.7-7.2,7.5-10.4
			c0.9-1,3.2-2.6,3.6-3.7c0.4-0.9,0.8,0,0.3-0.8c-0.5-1-0.6,1.6-0.6,1.8c-0.6,3.8,0.4,8.4,1.1,12.1c0.4,1.9,0.7,3.7,0.8,5.7
			c0,0.7-0.3,2.1,0.1,2.7c3.3,4.7,11.5-13.4,12.5-15.3c6.5-12.3,21.7-15.6,34.6-15.9c-0.5,0,1.4,0,1.8,0c2.6,0.1,5.1,0.2,7.7,0.4
			c2,0.2,6.2-0.1,7.9,1.1c0.7,0.5-0.6,0.3-1.7,0.7c-2.1,0.7-4.2,1.5-6.1,2.6c-2.6,1.4-12.7,6.7-11.9,10.8c0.6,2.9,6,0.4,7.5-0.1
			c7.7-2.4,15.6-4,23.7-3.3c8.5,0.7,17.2,2.4,25.5,4.4c5.6,1.4,7.4,3.7,7,10c-0.5,8.6-5,17.2-10.2,23.9c-2.9,3.7-6.7,6.6-9.8,10.2
			c-1,1.2-2.6,3-1.3,4.5c1.2,1.4,4.2,0.7,5.8,0.5c1.7-0.2,4.1-0.9,5.8-0.4c4.4,1.2,1.6,6.2,0.2,8.8c-4.8,9.3-10.5,19.1-20.5,23.6
			c-5.3,2.4-11.2,3.1-17,3.1c-1.4,0-3.9-0.5-5.1,0.5c-0.5,0.4-0.8,1.1-0.2,1.5c1.9,1.4,5.5,1.1,7.7,1.9c2.9,1.1,5.5,2.6,8.6,3.1
			c1.5,0.3,3.1,0.1,4.5,0.3c1,0.2,1.2,0,0.6-0.5c-0.8,0.5-1.6,0.9-2.4,1.3c-4.6,2.1-9.8,2.9-14.9,2.8
			C478.9,187.3,477.3,189.4,479.3,189.4L479.3,189.4z"/>
	</g>
</g>
<g>
	<path class="st7" d="M418.6,159.2c-2.4,0.3-5.9,0.7-9.7,3c-7.8,4.8-9.8,13.6-10.3,16c-0.3,1.4-0.9,3.9-0.6,7.2
		c0.1,1.4,0.6,6.5,3.9,10.8c5.2,6.8,14.2,7.2,16.7,7.3c2.4,0.1,11.3,0.4,18.5-5.8c1.6-1.4,2.6-2.7,3.2-3.5c0,0,1-1.4,1.8-3
		c4.1-8.1,1.8-16.7,1.8-16.7c-0.5-1.8-1.6-5.8-5-9.3C431.7,157.7,421,158.9,418.6,159.2z"/>
	<g>
		<path class="st2" d="M418.7,158.2c-11.1,1.3-18.7,8.4-21.4,19.1c-2.6,10.4,1.2,21.8,11.9,25.6c18.8,6.8,41.2-7.4,36.1-28.8
			C442.4,161.7,430.4,156.9,418.7,158.2c-1.6,0.2-2.3,2.2-0.3,2c10.9-1.2,21.6,3.6,24.1,15.2c3,13.7-6.3,26.2-20.3,27.1
			c-10.9,0.7-21.2-4.6-22.7-16.3c-1.6-12.2,6.3-24.5,18.9-26C420,160,420.7,157.9,418.7,158.2z"/>
	</g>
</g>
<g>
	<path class="st7" d="M456.9,165.6c-2.1,0.2-5.1,0.6-8.3,2.6c-6.7,4.1-8.4,11.6-8.9,13.7c-0.3,1.2-0.7,3.4-0.5,6.2
		c0.1,1.2,0.5,5.6,3.4,9.3c4.5,5.8,12.1,6.2,14.3,6.3c2,0.1,9.7,0.3,15.8-5c1.4-1.2,2.3-2.3,2.7-3c0,0,0.9-1.2,1.6-2.5
		c3.5-6.9,1.6-14.3,1.6-14.3c-0.4-1.5-1.4-5-4.3-8C468.2,164.3,459,165.4,456.9,165.6z"/>
	<g>
		<path class="st2" d="M457.2,164.9c-9.3,1.1-16,6.8-18.5,15.9c-2.5,9.4,1,19.5,10.8,22.6c16,5,35-6.6,30.6-24.9
			C477.6,167.7,467.2,163.8,457.2,164.9c-1.4,0.1-2.4,1.7-0.4,1.5c9.4-1,18.5,3.5,20.6,13.3c2.5,11.9-5.6,23-18,23.3
			c-9,0.2-17.4-4.5-18.5-14.2c-1.2-10.3,5.1-21,15.9-22.3C458.1,166.2,459.2,164.6,457.2,164.9z"/>
	</g>
</g>
<path class="st2" d="M430.8,159.9c1.1-1.6,2.7-4.2,3.7-7.7c0.2-0.6,0.8-2.9,0.9-6.6c0.1-4.7-0.7-8-0.9-9.4
	c-1.6-10.4,14.8-23.1,15.7-22.3c0.5,0.4-5.4,5.8-9.3,17c-1.8,5.2-3.8,13.1-2,14c1.4,0.7,4.4-3.2,6.7-5.7c4.7-5.3,8.1-7.1,29-18.7
	c27.9-15.5,31.3-17.5,31.7-17c0.8,1.2-15.9,13.5-20.7,17c-27.1,20-46.1,29.8-44.7,33c0.3,0.7,1.5,0.4,10,0.3
	c14.1-0.1,14.9,0.9,21.3,0c7.1-1,11.3-2.9,11.7-2c0.4,0.9-3.3,3.8-7,5.7c-4.5,2.3-8.1,2.8-22.7,3.7c-8.8,0.5-18.3,1-18.3,1l0,0"/>
<path class="st8" d="M410.9,169.9c-1.3,0.6-3.2,1.4-3.7,3.3c-0.4,1.5,0.4,2.9,0.7,3.3c2.9,2.3,6.4,2.6,8.7,1
	c0.2-0.1,2.6-1.9,2.3-4.7c0-0.1-0.3-2.2-2-3.3C414.8,168.2,412.2,169.3,410.9,169.9z"/>
<path class="st8" d="M384.7,190.3c-1.3,0.6-3.2,1.4-3.7,3.3c-0.4,1.5,0.4,2.9,0.7,3.3c2.9,2.3,6.4,2.6,8.7,1
	c0.2-0.1,2.6-1.9,2.3-4.7c0-0.1-0.3-2.2-2-3.3C388.6,188.6,386,189.7,384.7,190.3z"/>
<path class="st8" d="M448.4,172.8c-1.3,0.6-3.2,1.4-3.7,3.3c-0.4,1.5,0.4,2.9,0.7,3.3c2.9,2.3,6.4,2.6,8.7,1
	c0.2-0.1,2.6-1.9,2.3-4.7c0-0.1-0.3-2.2-2-3.3C452.3,171.1,449.7,172.3,448.4,172.8z"/>
<g>
	<path class="st7" d="M435.4,224.5c-2.4,0.3-5.9,0.7-9.7,3c-7.8,4.8-9.8,13.6-10.3,16c-0.3,1.4-0.9,3.9-0.6,7.2
		c0.1,1.4,0.6,6.5,3.9,10.8c5.2,6.8,14.2,7.2,16.7,7.3c2.4,0.1,11.3,0.4,18.5-5.8c1.6-1.4,2.6-2.7,3.2-3.5c0,0,1-1.4,1.8-3
		c4.1-8.1,1.8-16.7,1.8-16.7c-0.5-1.8-1.6-5.8-5-9.3C448.6,223.1,437.8,224.2,435.4,224.5z"/>
	<g>
		<path class="st2" d="M435.7,223.9c-10.8,1.3-18.6,7.9-21.4,18.5c-2.8,10.6,1,22,12,25.7c18.5,6.2,40.9-7.4,35.9-28.6
			c-2.9-12.2-14.7-16.9-26.2-15.6c-0.8,0.1-3.1,1.5-1.2,1.3c11-1.2,21.8,3.7,24.5,15.2c3.2,13.7-5.8,27.1-20.2,27.9
			c-10.8,0.5-20.9-4.8-22.7-16.2c-1.9-12.3,5.9-25.4,18.7-26.9C436.4,225,437.7,223.7,435.7,223.9z"/>
	</g>
</g>
<path class="st2" d="M364.9,113.3c-0.2-1.7,0.3,3.4,0.5,5.1c0.5,3.9,1.5,6.8,2.2,8.6c0.4,1,1.6,4.1,3.9,7.8c0.8,1.2,1.5,2.3,2.1,3
	c2.2,2.9,2.2,2.2,4.2,4.9c0.4,0.6,0.6,0.8,0.8,0.8c1-0.1,1.8-5.3,1.5-8.9C379,122.9,364.9,113.3,364.9,113.3L364.9,113.3z"/>
<path class="st2" d="M453.7,124.4c0.9,0.2,1.7-1.1,5-6.1c4.1-6.3,4.4-6.8,4.9-8.2c0.8-2.2,1-4.1,1.4-7.9c0.5-4.5,0.7-6.8-0.2-7.3
	c-1.5-0.9-5.4,2.6-7.8,5.9c-1.4,2.1-2.3,5.1-4,11.2c-0.7,2.3-1.3,4.9-0.9,8.3C452.3,121.6,452.6,124.1,453.7,124.4z"/>
<path class="st2" d="M413.6,114.7c-2.8,0.6-3.8,7.8-3.3,12.7c0.5,5.5,2.9,9.4,4.3,11.6c4.5,7.4,9.7,8.9,12.3,11.7
	c0.1,0.1,0.3,0.3,0.5,0.3c0.7-0.2,0-4.3-0.4-6.7c-2.1-12.5-3.3-18.9-7-24.2C418.3,117.8,415.8,114.2,413.6,114.7z"/>
<path class="st2" d="M460.7,148.3c0.3,0.9,1.9,0.8,7.9,0.8c7.5-0.1,8.1-0.1,9.6-0.4c2.2-0.6,4-1.4,7.4-3.2c4-2.1,6-3.1,6-4.1
	c-0.1-1.8-5.2-3.1-9.2-3.2c-2.5-0.1-5.5,0.9-11.6,2.8c-2.3,0.7-4.8,1.6-7.4,3.8C462.2,145.5,460.3,147.2,460.7,148.3z"/>
<path class="st2" d="M480.5,132.2c0.2,1.3,2,1.3,8.7,1.6c8.4,0.4,9.1,0.5,10.7,0c2.6-0.7,4.6-1.9,8.6-4.2c4.7-2.8,7.1-4.2,7.1-5.7
	c0.1-2.6-5.4-5-10-5.4c-2.8-0.3-6.3,1-13.2,3.4c-2.7,0.9-5.6,2.1-8.7,5.1C482.6,128.2,480.2,130.6,480.5,132.2z"/>
<g>
	<g>
		<path class="st6" d="M313.2,127.6c3.3-5.8,7,3.9,7.5,6.5c0.7,3.9,0.4,7.9-1.3,11.6c-2.1,4.5-6.3,8-11.2,5.3
			c-2.8-1.5-5.2-4-7.2-6.5c-8.3-10.3-16.1-32.2,1.3-38.1c27.4-9.3,47.2,20,57.3,40.8c3.7,7.7,7,15.6,9.5,23.7
			c0.4,1.1,3.2,0.4,2.9-0.8c-3.3-10.7-7.8-21.2-13.2-31c-7.5-13.8-18.1-28.7-33.5-34.1c-12.3-4.3-34.2-2.5-36.2,13.8
			c-1,8.5,2.8,17.6,7.5,24.5c3.4,4.9,9,11.4,15.6,10.7c8.8-0.9,12.6-11.8,11.6-19.4c-0.5-3.8-2.3-10.4-6.7-11.2
			c-2.8-0.5-5.3,1.6-6.6,3.9C309.8,128.7,312.7,128.5,313.2,127.6L313.2,127.6z"/>
	</g>
</g>
<g>
	<path class="st7" d="M384.2,148.4c-2.4,0.3-5.9,0.7-9.7,3c-7.8,4.8-9.8,13.6-10.3,16c-0.3,1.4-0.9,3.9-0.6,7.2
		c0.1,1.4,0.6,6.5,3.9,10.8c5.2,6.8,14.2,7.2,16.7,7.3c2.4,0.1,11.3,0.4,18.5-5.8c1.6-1.4,2.6-2.7,3.2-3.5c0,0,1-1.4,1.8-3
		c4.1-8.1,1.8-16.7,1.8-16.7c-0.5-1.8-1.6-5.8-5-9.3C397.4,146.9,386.6,148.1,384.2,148.4z"/>
	<g>
		<path class="st2" d="M384.5,147.8c-10.8,1.3-18.6,7.9-21.4,18.5c-2.8,10.6,1,22,12,25.7c18.5,6.2,40.9-7.4,35.9-28.6
			c-2.9-12.2-14.7-16.9-26.2-15.6c-0.8,0.1-3.1,1.5-1.2,1.3c11-1.2,21.8,3.6,24.5,15.2c3.2,13.7-5.8,27.1-20.2,27.9
			c-10.8,0.5-20.9-4.8-22.7-16.2c-1.9-12.3,5.9-25.4,18.7-26.9C385.2,148.9,386.5,147.6,384.5,147.8z"/>
	</g>
</g>
<path class="st8" d="M374.2,161.8c-1.3,0.6-3.2,1.4-3.7,3.3c-0.4,1.5,0.4,2.9,0.7,3.3c2.9,2.3,6.4,2.6,8.7,1
	c0.2-0.1,2.6-1.9,2.3-4.7c0-0.1-0.3-2.2-2-3.3C378.1,160.1,375.5,161.2,374.2,161.8z"/>
<g>
	<path class="st7" d="M209.3,124.1c0.8-1.3,1.9-3.1,2.9-5.3c4-8.6,5-17.7,3.8-18c-0.8-0.2-1.5,3.7-5.8,8.1c-2.9,3-4.3,3-7.9,6.6
		c-3.2,3.2-4.5,5.6-4.8,5.4c-0.6-0.3,8.1-11,10-24.4c1.8-13-3.6-23-8.7-32.4c-2.7-4.9-5.5-9.7-8.7-9.2c-5,0.8-6.8,13.7-9.8,13.6
		c-2.3,0-2.7-7.3-4.4-14c-4.3-17.1-18-33.5-27.9-31.4c-1,0.2-2.4,0.7-10.5,10.2c-10.6,12.4-15.8,18.7-19.5,25.9
		c-7.6,14.6-7.9,26.6-9.7,26.5c-1.9-0.1-3.5-8.8-2.8-16.8c0.6-7.4,2.8-11.5,1.8-12c-1.5-0.8-8.9,8.8-14.4,18.7
		c0,0-10.7,19.3-9.9,33.3c0.3,5.6,2.3,10,2.3,10c0.7,1.5,1.3,2.6,1.7,3.2c0.9,1.5,10.3,16.6,8.7,18.1c-0.4,0.3-1.1-0.5-4-1.9
		c-2.6-1.2-3-1-7.1-2.4c-2.8-1-5.2-1.9-8-3.5c-3.1-1.8-3.7-2.7-4.1-2.5c-1.8,1.1,2.9,18.4,11.3,30.3c13.2,18.6,35.4,23.5,47.9,25"/>
	<g>
		<path class="st2" d="M210.6,124.1c1.4-2.3,11.7-25.2,5.1-24.1c-0.9,0.1-1.2,0.7-1.8,1.3c-2,2.2-2.9,5.1-5,7.3
			c-2,2.1-4.5,3.5-6.7,5.4c-1.3,1.1-2.5,2.4-3.6,3.7c-0.3,0.4-1.4,2.3-1.9,2.5c0.7,0.1,1.4,0.2,2,0.2c-0.3-1,3.8-6.6,4.2-7.4
			c2.3-4.5,4.3-9.3,5.3-14.3c2.3-11.1-1-21.4-6.2-31.2c-2.5-4.6-6.8-16.3-13.9-13c-2.4,1.1-3.7,3.7-4.7,5.9c-0.7,1.5-1.3,3.1-2,4.6
			c-1.2,2.5-1.2,2.5-2.1-0.2c-1.6-5-1.9-10.4-3.7-15.4c-1.8-5.1-4.3-9.9-7.4-14.3c-4.1-5.8-10.6-13.1-18.4-13.1
			c-4.4,0-6.8,3-9.6,6.1c-6.7,7.4-13.4,15.1-19.2,23.2c-5.3,7.5-9,16.1-11.4,25c-0.8,2.9-1.8,5.9-2.5,8.9c0.4-0.2,0.9-0.4,1.3-0.6
			c-0.4-0.7-0.7-1.4-0.9-2.2c-0.2-0.8-0.4-1.6-0.5-2.5c-0.7-3.7-0.7-7.5-0.4-11.2c0.2-2.7,0.7-5.4,1.4-8c0.2-0.9,1-2.6,0.7-3.5
			c-0.4-1.3-1.5-1.3-2.8-0.9c-2.3,0.8-4.2,3.6-5.6,5.4c-3.4,4.4-6.5,9.1-9.1,14c-6.8,12.5-13.6,29-8,43.1c2.1,5.3,5.9,10,8.5,15.1
			c0.6,1.3,1.1,2.9,1.8,4c0.3,0.4,0.2,1.4,0.5,1.7c0.6-0.1,1.1-0.2,1.7-0.3c-0.4-0.2-0.8-0.5-1.3-0.7c-3.2-2.7-9.5-3.5-13.1-5
			c-2.4-1-11.1-8.4-11.1-1.4c0,4.1,1.9,8.6,3.3,12.4c2,5.2,4.5,10.3,7.6,14.9c11.1,16.6,30.4,24.2,49.5,26.5
			c1.2,0.1,3.1-1.5,1.1-1.7c-17-2.1-34.2-8.6-45.2-22.3c-6.1-7.5-10.4-17.1-12.7-26.5c-0.3-1.2-0.3-2.7-0.7-3.8
			c-0.1-0.3,0.2-1.5,0-1.6c-0.6,0.2-1.2,0.4-1.8,0.6c0.2,0.1,0.3,0.2,0.5,0.3c0.6,1.5,4.9,3,6.3,3.6c2.3,1,4.8,1.9,7.2,2.7
			c1.6,0.5,3.2,0.9,4.7,1.6c1.1,0.5,2.7,1.9,4,2.1c1.1,0.1,2.3-0.2,2.8-1.3c0.6-1.4-0.9-3.8-1.5-5c-1.4-3-3-5.8-4.7-8.6
			c-3.4-5.7-6.3-10.7-6.7-17.6c-0.5-9.1,3.1-18.5,6.8-26.7c2.6-5.8,5.8-11.3,9.5-16.5c1.5-2.2,3.2-4.1,4.8-6.1
			c1.3-1.6,0.9-1.6,0.3-0.1c-1.8,4.5-2.1,10.3-2,15.1c0.1,2.3-0.1,13.6,4.8,12.2c3.6-1.1,4.1-10.2,5-13.1
			c5.5-18.1,18.3-33.8,31.5-47.1c1.1-1.1,2-2.2,3.5-2.5c4.8-0.9,10.2,4.3,13,7.3c7.4,8,11.7,18.2,13.8,28.8
			c0.6,3.1,2.2,13.5,7.3,7.9c2.2-2.4,2.9-6.3,4.5-9c1.5-2.5,3-3.8,5.5-1.4c2.6,2.6,4.2,6.4,5.9,9.6c5.9,10.9,9.6,22.1,6.3,34.5
			c-1.3,5.1-3.6,9.9-6.2,14.5c-0.5,0.9-3.1,4-2.7,5.2c0.2,0.8,1.6,0.4,2,0.2c1-0.4,1.4-1.3,2.1-2c2.5-3,5-5.3,8.1-7.7
			c1.6-1.3,3.1-2.6,4.5-4.2c0.4-0.5,4-6.2,3.5-6.1c-0.5-0.1-1-0.1-1.5-0.2c1.6,1.3-0.4,7.6-0.8,9.2c-1.3,4.8-3.2,9.3-5.8,13.5
			C207.2,125.2,210.1,125,210.6,124.1L210.6,124.1z"/>
	</g>
</g>
<path class="st2" d="M133,193.3c-0.6-1.8-1.8-4.6-4.1-7.5c-0.4-0.5-1.9-2.4-4.9-4.6c-3.8-2.9-6.9-4.1-8.1-4.7
	c-9.4-4.7-10.1-25.5-9-25.8c0.7-0.2,1.6,7.7,8.4,17.5c3.1,4.5,8.4,10.7,10.2,9.8c1.4-0.7,0-5.4-0.7-8.7c-1.5-6.9-1-10.7,1.8-34.4
	c3.7-31.7,4-35.7,4.7-35.6c1.4,0.1,1.7,20.8,1.8,26.7c0.4,33.7-2.6,54.8,0.7,55.5c0.8,0.2,1.2-1,6.1-7.9
	c8.2-11.5,9.4-11.5,12.4-17.3c3.3-6.3,4.2-10.8,5.2-10.6c1,0.2,1.1,4.9,0.5,9c-0.7,5-2.5,8.2-10.2,20.5c-4.7,7.5-9.9,15.5-9.9,15.5
	l0,0"/>
<path class="st3" d="M179.8,106.4"/>
<path class="st3" d="M263.8,83.9"/>
<line class="st3" x1="197" y1="33.8" x2="197" y2="33.8"/>
<path class="st4" d="M123.1,173"/>
<path class="st4" d="M187.8,177c-2.4,0.3-5.9,0.7-9.7,3c-7.8,4.8-9.8,13.6-10.3,16c-0.3,1.4-0.9,3.9-0.6,7.2
	c0.1,1.4,0.6,6.5,3.9,10.8c5.2,6.8,14.2,7.2,16.7,7.3c2.4,0.1,11.3,0.4,18.5-5.8c1.6-1.4,2.6-2.7,3.2-3.5c0,0,1-1.4,1.8-3
	c4.1-8.1,1.8-16.7,1.8-16.7c-0.5-1.8-1.6-5.8-5-9.3C201,175.6,190.2,176.8,187.8,177z"/>
<path class="st4" d="M163.1,204c-2.5-0.2-6.3-0.1-10.7,1.3c-2.1,0.7-10.8,3.5-15.3,12.3c-0.7,1.4-6.1,12.1-0.3,21.7
	c5.1,8.5,15,9.7,17.7,10c7.4,0.9,13.2-1.8,18-4c3.9-1.8,7-3.2,9.7-6.7c4.2-5.5,3.9-12,3.7-14.3"/>
<path class="st4" d="M164.3,249c-0.1,1.7-0.3,4-1,6.7c-0.9,3.4-2,5.8-3,7.7c-2.5,4.9-3.7,7.4-6.3,9c-2,1.2-3.3,1.2-3.7,2.3
	c-0.5,1.9,2.4,4.4,4,5.7c0.4,0.4,2.2,1.8,5,3c0.9,0.4,3.2,1.3,6.3,1.7c0.6,0.1,2.6,0.3,5.3,0c2.1-0.2,6.8-0.8,11.7-4
	c3.1-2.1,4.9-4.3,5.7-5.3c3-4,3.7-7.7,4.7-12.3c0.7-3.4,1.1-5.5,0-6.3c-1.3-1-3,0.9-7.3,1.3c-1.4,0.1-4.7,0.4-8.2-1.3
	c-0.9-0.5-3.8-2-5.5-5.3c-1.4-2.8-1.5-5.6-1.3-5.7c0.3-0.1,0.1,4.9,3.2,8.3c3.7,4,10.1,3.6,23,2.7c1.9-0.1,3.7-0.3,5.7-1.3
	c2.8-1.5,4.3-3.8,7-8c2.1-3.3,3.1-4.9,3.7-7.3c0.7-3,0.4-5.5,0-8.7c-0.3-2.2-0.5-3.9-1.3-6c-1.1-2.7-2.6-4.5-3.7-5.7"/>
<path class="st4" d="M166.5,190.7c-2.5-0.1-6.3-0.7-9.3-3.3c-6.1-5.2-3.1-12.9-7.7-16c-5.4-3.7-17.7,1.6-23.7,10.3
	c-0.9,1.3-6.5,9.8-3.3,19.3c0.3,1,2.6,7.5,8,10.7c2.6,1.5,4.4,1.3,5.7,3c2.1,2.9,0.3,7.9-1.8,11.8"/>
<g>
	<g>
		<path class="st6" d="M64.8,140.2c3.1-4.7,6.2,4.1,6,6.6c-0.4,5-5.4,10-10.5,8.4c-5.8-1.9-11-8.1-12.6-13.9
			c-4.1-14.6,17.6-17.3,27.5-14.9c16.7,4,28.8,20.9,35.3,35.8c0.5,1.1,3.4,0.3,2.9-0.8c-7.7-17.5-22.9-37.3-43.7-37.6
			c-9-0.1-25.7,2.9-25.4,14.8c0.2,9.5,12.2,22.9,22.4,17.9c5.6-2.7,8.8-9.7,6.1-15.5c-2.3-4.9-7.6-5.6-10.7-1
			C61.3,141.3,64.2,141.1,64.8,140.2L64.8,140.2z"/>
	</g>
</g>
<path class="st10" d="M205.7,236.4"/>
<path class="st10" d="M189.8,218.4"/>
<path class="st10" d="M198.7,280.3"/>
<path class="st10" d="M189.8,201.8"/>
<path class="st10" d="M196,231.1"/>
<path class="st11" d="M107.2,213.9c-2.2,0.2-5.5,0.6-8.9,2.8c-7.2,4.4-9,12.5-9.5,14.8c-0.3,1.3-0.8,3.6-0.5,6.6
	c0.1,1.3,0.6,6,3.6,10c4.8,6.3,13.1,6.7,15.4,6.8c2.2,0.1,10.5,0.4,17-5.4c1.5-1.3,2.4-2.5,3-3.2c0,0,0.9-1.3,1.7-2.7
	c3.8-7.5,1.7-15.4,1.7-15.4c-0.4-1.7-1.5-5.3-4.6-8.6C119.4,212.6,109.5,213.7,107.2,213.9z"/>
<g>
	<path class="st12" d="M121.5,234.9c-2.4,0.3-5.9,0.7-9.7,3c-7.8,4.8-9.8,13.6-10.3,16c-0.3,1.4-0.9,3.9-0.6,7.2
		c0.1,1.4,0.6,6.5,3.9,10.8c5.2,6.8,14.2,7.2,16.7,7.3c2.4,0.1,11.3,0.4,18.5-5.8c1.6-1.4,2.6-2.7,3.2-3.5c0,0,1-1.4,1.8-3
		c4.1-8.1,1.8-16.7,1.8-16.7c-0.5-1.8-1.6-5.8-5-9.3C134.6,233.5,123.9,234.7,121.5,234.9z"/>
	<g>
		<path class="st13" d="M121.6,233.9c-11.1,1.3-18.6,8.4-21.4,19.1c-2.6,10.4,1.2,21.8,11.9,25.6c18.8,6.8,41.2-7.4,36.1-28.8
			C145.3,237.5,133.3,232.7,121.6,233.9c-1.6,0.2-2.3,2.2-0.3,2c10.9-1.2,21.6,3.6,24.1,15.1c3,13.7-6.3,26.2-20.3,27.1
			c-10.9,0.7-21.2-4.6-22.7-16.3c-1.6-12.2,6.3-24.5,18.9-26C122.9,235.8,123.6,233.7,121.6,233.9z"/>
	</g>
</g>
<g>
	<path class="st12" d="M149.4,289.1c-2.4,0.3-5.9,0.7-9.7,3c-7.8,4.8-9.8,13.6-10.3,16c-0.3,1.4-0.9,3.9-0.6,7.2
		c0.1,1.4,0.6,6.5,3.9,10.8c5.2,6.8,14.2,7.2,16.7,7.3c2.4,0.1,11.3,0.4,18.5-5.8c1.6-1.4,2.6-2.7,3.2-3.5c0,0,1-1.4,1.8-3
		c4.1-8.1,1.8-16.7,1.8-16.7c-0.5-1.8-1.6-5.8-5-9.3C162.5,287.6,151.8,288.8,149.4,289.1z"/>
	<g>
		<path class="st13" d="M150,288.5c-10.8,1.3-18.7,7.5-21.6,18.1c-2.8,10.4,0.5,21.9,11.4,25.8c18.5,6.6,41.5-6.8,36.5-28.3
			C173.3,291.9,161.5,287.2,150,288.5c-0.8,0.1-3.1,1.4-1.3,1.2c11-1.2,21.8,3.7,24.5,15.2c3.1,13.5-5.5,26.9-19.7,27.9
			c-10.7,0.7-21.1-4.4-23.1-15.8c-2.1-12.1,5.4-25.8,18.2-27.3C149.5,289.6,151.9,288.2,150,288.5z"/>
	</g>
</g>
<g>
	<path class="st12" d="M179.2,266.7c-2.4,0.3-5.9,0.7-9.7,3c-7.8,4.8-9.8,13.6-10.3,16c-0.3,1.4-0.9,3.9-0.6,7.2
		c0.1,1.4,0.6,6.5,3.9,10.8c5.2,6.8,14.2,7.2,16.7,7.3c2.4,0.1,11.3,0.4,18.5-5.8c1.6-1.4,2.6-2.7,3.2-3.5c0,0,1-1.4,1.8-3
		c4.1-8.1,1.8-16.7,1.8-16.7c-0.5-1.8-1.6-5.8-5-9.3C192.3,265.3,181.6,266.5,179.2,266.7z"/>
	<g>
		<path class="st13" d="M179.4,265.9c-11,1.3-18.7,8.3-21.4,19c-2.7,10.6,1.3,21.9,12.3,25.6c18.6,6.2,40.8-7.6,35.7-28.8
			C203,269.3,191,264.7,179.4,265.9c-1.4,0.2-2.4,1.9-0.4,1.6c10.9-1.2,21.7,3.8,24.2,15.3c3,13.7-6.1,26.5-20.2,27.3
			c-10.9,0.7-21.2-4.8-22.8-16.5c-1.6-12.2,6.2-24.7,18.8-26.2C180.4,267.4,181.4,265.7,179.4,265.9z"/>
	</g>
</g>
<g>
	<path class="st12" d="M98.2,168.7c-2.4,0.3-5.9,0.7-9.7,3c-7.8,4.8-9.8,13.6-10.3,16c-0.3,1.4-0.9,3.9-0.6,7.2
		c0.1,1.4,0.6,6.5,3.9,10.8c5.2,6.8,14.2,7.2,16.7,7.3c2.4,0.1,11.3,0.4,18.5-5.8c1.6-1.4,2.6-2.7,3.2-3.5c0,0,1-1.4,1.8-3
		c4.1-8.1,1.8-16.7,1.8-16.7c-0.5-1.8-1.6-5.8-5-9.3C111.3,167.2,100.6,168.4,98.2,168.7z"/>
	<g>
		<path class="st13" d="M96.8,166.6c-12,1.4-19.8,11-20.7,22.8c-0.7,9.4,4.7,19.9,13.5,23.8c9.1,3.9,21.5,2.5,28.8-4.3
			c7.4-6.9,8.8-18.4,4.8-27.4C118.5,170.4,108.5,165.3,96.8,166.6c0,0,1.4,4.4,2.6,4.2c11-1.2,22.8,3.4,23.2,15.9
			c0.5,13.3-9.2,23.3-22.3,24.1c-3.8,0.3-7.7-0.1-11.3-1.3c-7.9-2.6-11.1-9.8-10-17.7c1.6-11.2,8.8-19.7,20.4-21.1
			C99.5,170.8,98.1,166.4,96.8,166.6z"/>
	</g>
</g>
<g>
	<path class="st12" d="M128.5,173.3c-2.4,0.3-5.9,0.7-9.7,3c-7.8,4.8-9.8,13.6-10.3,16c-0.3,1.4-0.9,3.9-0.6,7.2
		c0.1,1.4,0.6,6.5,3.9,10.8c5.2,6.8,14.2,7.2,16.7,7.3c2.4,0.1,11.3,0.4,18.5-5.8c1.6-1.4,2.6-2.7,3.2-3.5c0,0,1-1.4,1.8-3
		c4.1-8.1,1.8-16.7,1.8-16.7c-0.5-1.8-1.6-5.8-5-9.3C141.7,171.8,130.9,173,128.5,173.3z"/>
	<g>
		<path class="st13" d="M128.6,172.2c-11.1,1.3-18.6,8.4-21.4,19.1c-2.6,10.5,1.2,21.8,11.9,25.7c18.8,6.8,41.2-7.4,36.1-28.8
			C152.3,175.8,140.3,170.9,128.6,172.2c-1.6,0.2-2.2,2.3-0.3,2.1c10.8-1.2,21.6,3.6,24.1,15.1c3,13.7-6.3,26.2-20.3,27.1
			c-10.9,0.7-21.2-4.5-22.7-16.2c-1.6-12.2,6.4-24.5,18.9-26C130,174.1,130.6,172,128.6,172.2z"/>
	</g>
</g>
<g>
	<path class="st12" d="M193.3,240.6c-2.4,0.3-5.9,0.7-9.7,3c-7.8,4.8-9.8,13.6-10.3,16c-0.3,1.4-0.9,3.9-0.6,7.2
		c0.1,1.4,0.6,6.5,3.9,10.8c5.2,6.8,14.2,7.2,16.7,7.3c2.4,0.1,11.3,0.4,18.5-5.8c1.6-1.4,2.6-2.7,3.2-3.5c0,0,1-1.4,1.8-3
		c4.1-8.1,1.8-16.7,1.8-16.7c-0.5-1.8-1.6-5.8-5-9.3C206.5,239.1,195.7,240.3,193.3,240.6z"/>
	<g>
		<path class="st13" d="M193.5,239.8c-11,1.3-18.7,8.3-21.4,18.9c-2.7,10.6,1.3,21.9,12.3,25.6c18.6,6.2,40.8-7.5,35.7-28.8
			C217.1,243.1,205.1,238.5,193.5,239.8c-1.4,0.2-2.4,1.8-0.4,1.6c10.9-1.2,21.7,3.9,24.2,15.4c3,13.9-6.4,26.8-20.8,27.4
			c-10.8,0.4-20.7-5-22.2-16.5c-1.6-12.2,6.2-24.7,18.8-26.2C194.5,241.2,195.5,239.5,193.5,239.8z"/>
	</g>
</g>
<g>
	<path class="st12" d="M202.5,204.7c-2.4,0.3-5.9,0.7-9.7,3c-7.8,4.8-9.8,13.6-10.3,16c-0.3,1.4-0.9,3.9-0.6,7.2
		c0.1,1.4,0.6,6.5,3.9,10.8c5.2,6.8,14.2,7.2,16.7,7.3c2.4,0.1,11.3,0.4,18.5-5.8c1.6-1.4,2.6-2.7,3.2-3.5c0,0,1-1.4,1.8-3
		c4.1-8.1,1.8-16.7,1.8-16.7c-0.5-1.8-1.6-5.8-5-9.3C215.6,203.2,204.9,204.4,202.5,204.7z"/>
	<g>
		<path class="st13" d="M202.7,204.1c-10.8,1.3-18.6,7.9-21.4,18.5c-2.8,10.6,1,22,12,25.7c18.5,6.2,40.9-7.4,35.9-28.6
			c-2.9-12.2-14.7-16.9-26.2-15.6c-0.8,0.1-3.1,1.5-1.2,1.3c11-1.2,21.8,3.6,24.5,15.2c3.2,13.7-5.8,27.1-20.2,27.9
			c-10.8,0.5-20.9-4.8-22.7-16.2c-1.9-12.3,5.9-25.4,18.7-26.9C203.5,205.1,204.8,203.8,202.7,204.1z"/>
	</g>
</g>
<g>
	<path class="st12" d="M214.7,176.3c-2.2,0.2-5.4,0.6-8.7,2.7c-7.1,4.3-8.9,12.3-9.4,14.5c-0.3,1.3-0.8,3.5-0.5,6.5
		c0.1,1.2,0.6,5.9,3.5,9.8c4.7,6.1,12.8,6.5,15.1,6.6c2.1,0.1,10.3,0.4,16.7-5.3c1.4-1.3,2.4-2.5,2.9-3.2c0,0,0.9-1.3,1.6-2.7
		c3.7-7.3,1.7-15.1,1.7-15.1c-0.4-1.6-1.4-5.2-4.5-8.4c-4.5-4.7-10.3-5.3-12.5-5.5C217.9,175.9,215.8,176.1,214.7,176.3z"/>
	<g>
		<path class="st13" d="M214.8,175.3c-10.1,1.2-17.1,7.6-19.5,17.5c-2.3,9.2,1,19.2,10.2,22.8c17.1,6.7,38.3-6.2,33.5-25.9
			C236.3,178.6,225.4,174.1,214.8,175.3c-1.5,0.2-2.3,2.1-0.3,1.9c9.8-1.1,19.5,3.4,21.7,13.8c2.7,12.7-6.3,24.1-19.3,24.4
			c-9.5,0.2-18-4.5-19.4-14.6c-1.6-11,5.6-22.3,16.9-23.6C216,177,216.8,175.1,214.8,175.3z"/>
	</g>
</g>
<path class="st8" d="M149.9,158.4c-1.3,0.6-3.2,1.4-3.7,3.3c-0.4,1.5,0.4,2.9,0.7,3.3c2.9,2.3,6.4,2.6,8.7,1
	c0.2-0.1,2.6-1.9,2.3-4.7c0-0.1-0.3-2.2-2-3.3C153.8,156.7,151.2,157.9,149.9,158.4z"/>
<path class="st14" d="M90.8,177.8c-1.3,0.6-3.2,1.4-3.7,3.3c-0.4,1.5,0.4,2.9,0.7,3.3c2.9,2.3,6.4,2.6,8.7,1
	c0.2-0.1,2.6-1.9,2.3-4.7c0-0.1-0.3-2.2-2-3.3C94.6,176.1,92.1,177.2,90.8,177.8z"/>
<path class="st14" d="M98.7,220.3c-1.3,0.6-3.2,1.4-3.7,3.3c-0.4,1.5,0.4,2.9,0.7,3.3c2.9,2.3,6.4,2.6,8.7,1
	c0.2-0.1,2.6-1.9,2.3-4.7c0-0.1-0.3-2.2-2-3.3C102.6,218.6,100,219.7,98.7,220.3z"/>
<path class="st15" d="M133.1,209.2c-1.3,0.6-3.2,1.4-3.7,3.3c-0.4,1.5,0.4,2.9,0.7,3.3c2.9,2.3,6.4,2.6,8.7,1
	c0.2-0.1,2.6-1.9,2.3-4.7c0-0.1-0.3-2.2-2-3.3C136.9,207.5,134.4,208.7,133.1,209.2z"/>
<g>
	<path class="st12" d="M138.9,199.3c-2.4,0.3-5.9,0.7-9.7,3c-7.8,4.8-9.8,13.6-10.3,16c-0.3,1.4-0.9,3.9-0.6,7.2
		c0.1,1.4,0.6,6.5,3.9,10.8c5.2,6.8,14.2,7.2,16.7,7.3c2.4,0.1,11.3,0.4,18.5-5.8c1.6-1.4,2.6-2.7,3.2-3.5c0,0,1-1.4,1.8-3
		c4.1-8.1,1.8-16.7,1.8-16.7c-0.5-1.8-1.6-5.8-5-9.3C152.1,197.9,141.3,199.1,138.9,199.3z"/>
	<g>
		<path class="st13" d="M139.1,198.6c-11,1.3-18.7,8.2-21.4,18.9c-2.7,10.8,1.5,22.2,12.7,25.7c18.6,5.8,40.3-7.8,35.3-28.9
			C162.7,201.9,150.7,197.3,139.1,198.6c-1.4,0.2-2.4,1.8-0.4,1.5c10.9-1.2,21.7,3.9,24.2,15.4c3,13.9-6.4,26.8-20.8,27.4
			c-10.8,0.4-20.7-5-22.2-16.5c-1.6-12.2,6.2-24.8,18.8-26.3C140.1,200,141.1,198.3,139.1,198.6z"/>
	</g>
</g>
<g>
	<path class="st12" d="M128.5,265.8c-2.4,0.3-5.9,0.7-9.7,3c-7.8,4.8-9.8,13.6-10.3,16c-0.3,1.4-0.9,3.9-0.6,7.2
		c0.1,1.4,0.6,6.5,3.9,10.8c5.2,6.8,14.2,7.2,16.7,7.3c2.4,0.1,11.3,0.4,18.5-5.8c1.6-1.4,2.6-2.7,3.2-3.5c0,0,1-1.4,1.8-3
		c4.1-8.1,1.8-16.7,1.8-16.7c-0.5-1.8-1.6-5.8-5-9.3C141.7,264.3,130.9,265.5,128.5,265.8z"/>
	<g>
		<path class="st13" d="M128.1,264.1c-11.5,1.4-19.3,8.7-21.9,19.9c-2.6,10.9,2.1,22.2,13.1,26.1c8.6,3.1,19.4,2.4,27-2.6
			c8.9-5.8,12.7-17.1,9.9-27.3C152.6,267.7,140,262.8,128.1,264.1c-3.3,0.4-1.8,3.7,0.9,3.4c10.5-1.1,20.5,3.6,22.6,14.7
			c2.5,13.3-6.5,25.2-20,26.2c-10.6,0.7-20.1-4.7-21.2-16c-1.1-11.7,6.5-23.4,18.5-24.8C132.2,267.1,130.8,263.8,128.1,264.1z"/>
	</g>
</g>
<g>
	<path class="st12" d="M151.8,238.6c-2.4,0.3-5.9,0.7-9.7,3c-7.8,4.8-9.8,13.6-10.3,16c-0.3,1.4-0.9,3.9-0.6,7.2
		c0.1,1.4,0.6,6.5,3.9,10.8c5.2,6.8,14.2,7.2,16.7,7.3c2.4,0.1,11.3,0.4,18.5-5.8c1.6-1.4,2.6-2.7,3.2-3.5c0,0,1-1.4,1.8-3
		c4.1-8.1,1.8-16.7,1.8-16.7c-0.5-1.8-1.6-5.8-5-9.3C165,237.2,154.2,238.4,151.8,238.6z"/>
	<g>
		<path class="st13" d="M152.1,238c-10.8,1.3-18.6,7.9-21.4,18.5c-2.8,10.6,1,22,12,25.7c18.5,6.2,40.9-7.4,35.9-28.6
			c-2.9-12.2-14.7-16.9-26.2-15.7c-0.8,0.1-3.1,1.5-1.2,1.3c11-1.2,21.8,3.6,24.5,15.2c3.2,13.7-5.8,27.1-20.2,27.8
			c-10.8,0.6-20.9-4.7-22.7-16.2c-1.9-12.3,5.9-25.3,18.7-26.9C152.8,239.1,154.1,237.8,152.1,238z"/>
	</g>
</g>
<g>
	<path class="st12" d="M172.7,179.7c-2.4,0.3-5.9,0.7-9.7,3c-7.8,4.8-9.8,13.6-10.3,16c-0.3,1.4-0.9,3.9-0.6,7.2
		c0.1,1.4,0.6,6.5,3.9,10.8c5.2,6.8,14.2,7.2,16.7,7.3c2.4,0.1,11.3,0.4,18.5-5.8c1.6-1.4,2.6-2.7,3.2-3.5c0,0,1-1.4,1.8-3
		c4.1-8.1,1.8-16.7,1.8-16.7c-0.5-1.8-1.6-5.8-5-9.3C185.9,178.3,175.1,179.5,172.7,179.7z"/>
	<g>
		<path class="st13" d="M172.9,179.1c-10.8,1.3-18.6,7.9-21.4,18.5c-2.8,10.6,1,22,12,25.7c18.5,6.2,40.9-7.4,35.9-28.6
			c-2.9-12.2-14.7-16.9-26.2-15.6c-0.8,0.1-3.1,1.5-1.2,1.3c11-1.2,21.8,3.7,24.5,15.2c3.2,13.7-5.8,27.1-20.2,27.9
			c-10.8,0.5-20.9-4.8-22.7-16.2c-1.9-12.3,5.9-25.4,18.7-26.9C173.7,180.2,175,178.9,172.9,179.1z"/>
	</g>
</g>
<path class="st14" d="M133.1,205.8c-1.3,0.6-3.2,1.4-3.7,3.3c-0.4,1.5,0.4,2.9,0.7,3.3c2.9,2.3,6.4,2.6,8.7,1
	c0.2-0.1,2.6-1.9,2.3-4.7c0-0.1-0.3-2.2-2-3.3C136.9,204.1,134.4,205.2,133.1,205.8z"/>
<path class="st14" d="M163.4,196.2c-1.3,0.6-3.2,1.4-3.7,3.3c-0.4,1.5,0.4,2.9,0.7,3.3c2.9,2.3,6.4,2.6,8.7,1
	c0.2-0.1,2.6-1.9,2.3-4.7c0-0.1-0.3-2.2-2-3.3C167.2,194.5,164.7,195.6,163.4,196.2z"/>
<path class="st8" d="M190.6,163.3c-1.3,0.6-3.2,1.4-3.7,3.3c-0.4,1.5,0.4,2.9,0.7,3.3c2.9,2.3,6.4,2.6,8.7,1
	c0.2-0.1,2.6-1.9,2.3-4.7c0-0.1-0.3-2.2-2-3.3C194.5,161.5,191.9,162.7,190.6,163.3z"/>
<g>
	<path class="st16" d="M221,182.2c1.2,0,3,0,5-0.2c7.9-0.8,14.9-4.3,14.6-5.3c-0.2-0.7-3.3,0.5-8.3-0.8c-3.3-0.9-4-2-8.1-3.1
		c-3.7-1-5.9-0.9-5.9-1.3c0-0.6,11.3,1.3,21.8-3.4c10.2-4.6,15.3-13.4,19.9-21.8c2.4-4.4,4.8-8.8,3.1-11.1c-2.6-3.5-12.7,1-13.9-1.4
		c-0.9-1.8,4.2-5.5,8.4-9.9c10.6-11.3,16.9-29.6,11.3-36.4c-0.6-0.7-1.5-1.5-11.7-3.5c-13.3-2.6-20-3.7-26.8-3.3
		c-13.7,0.8-22.6,6.1-23.2,4.6c-0.7-1.5,4.9-6.8,11-10c5.6-2.9,9.5-3.1,9.5-4.1c-0.1-2.3-19.3-2.6-19.4-2.6c0,0,0,0-0.1,0
		c0,0,0,0,0,0c0,0-18.4,0.5-28.2,7.6c-4,2.9-6.3,6.4-6.3,6.4c-0.8,1.3-1.3,2.2-1.6,2.9c-0.7,1.4-7.8,15.7-9.5,15.1
		c-0.4-0.1-0.1-1.1-0.3-4c-0.2-2.6-0.5-2.8-1.1-6.7c-0.4-2.7-0.8-5-0.8-7.9c0-3.2,0.5-4.1,0.1-4.3c-1.5-0.9-12.2,10.8-17.3,22.8
		c-8.1,18.9-2.5,38.6,1.5,49.1"/>
	<g>
		<path class="st2" d="M220.5,182.9c4.8,0.1,9.6-0.6,14.1-2.1c1.1-0.4,7.1-2.1,7.4-3.9c0.2-1.5-0.8-1.2-2.1-1.3
			c-3.1-0.2-5.7-0.1-8.7-1.3c-2-0.8-3.8-1.8-6-2.4c0.4,0.1-7.9-1.6-6.6,0.1c0.3,0.3,3.8,0,4.3,0c4.8-0.1,9.6-0.7,14.1-2.1
			c9-2.9,15.6-9.2,20.6-17.1c2.3-3.6,12.6-17.4,4.5-19.6c-2.9-0.8-5.8,0.6-8.7,0.4c-4.5-0.4-0.8-3.5,0.8-5.1c1.9-1.9,4-3.7,5.8-5.7
			c6.2-7,11.4-16.4,12.4-25.7c0.5-4.4,0.1-9.7-4.4-11.5c-3.6-1.4-7.8-1.9-11.6-2.7c-5.2-1-10.5-2-15.7-2.6
			c-8.1-0.9-16.1-0.1-23.9,2.1c-1.9,0.5-3.7,1.2-5.6,1.7c-1.7,0.5-2.9,1.5-1.7-0.7c3-5.5,11.5-8.4,16.9-10.4c4.4-1.6,2.7-3.2-1-3.9
			c-9.9-1.9-19.3-1.6-29,0.3c-7.9,1.5-15.6,4.2-21.3,10.1c-4.1,4.3-6.2,10.1-9.1,15.2c-0.8,1.3-2.5,3.1-3,4.6
			c-0.6,1.9,0.5,0.3,0.9-0.5c0.4-0.9,0-2.8-0.2-3.8c-0.3-2.4-0.9-4.7-1.3-7.1c-0.2-1.3-0.4-2.6-0.4-3.8c-0.1-1.3,0.8-4.8,0.1-6
			c-0.7-1.2-0.9-1.6-2.7-1c-2.5,0.8-4.7,3.7-6.3,5.6c-8.3,9.5-14.2,21.2-15.3,33.9c-1,11.4,1.4,22.7,5.4,33.3c0.4,1,3.2,0.1,2.9-0.8
			c-7-18.3-8.2-38.4,2.1-55.7c2-3.4,4.3-6.6,6.8-9.7c1.2-1.5,2.5-2.9,3.9-4.2c0.1-0.1,0.2-0.2,0.3-0.3c0.7-0.6,0.8-0.7,0.3-0.2
			c-0.1-0.2-0.5,2.8-0.5,3.2c0,3.9,0.7,7.7,1.4,11.4c0.3,1.7-0.3,6.4,0.8,7.5c3.7,3.7,11.3-13.7,12.4-15.8
			c6.4-12.1,22.3-15.8,34.2-15.9c3.8,0,7.6,0.2,11.4,0.6c0.7,0.1,7,0.4,7.1,1.4c0,0.2-7.9,3.1-8.7,3.6c-2.1,1.1-13.3,7.4-11.6,10.7
			c1.1,2.1,7.2-0.8,8.4-1.2c16.4-5,33.1-2.6,49.4,1.8c14.4,3.9,0.9,27.6-4.3,34.2c-2.9,3.7-6.7,6.6-9.8,10.2c-1,1.2-2.5,2.8-1,4.1
			c1.4,1.2,5,0.3,6.6,0.1c2.2-0.3,6.2-1.2,7.2,1.6c0.9,2.6-2,7-3,8.9c-5,9.3-10.9,18.8-21.2,22.8c-5.4,2.1-11.1,2.3-16.9,2.4
			c-1.3,0-2.8-0.2-3.9,0.7c-0.2,0.1-0.5,0.5-0.2,0.8c1.8,1.3,5.6,1.1,7.7,1.9c2.6,0.9,4.9,2.3,7.7,2.9c1.4,0.3,2.8,0.5,4.2,0.5
			c2.5,0,2.5,0-0.1,1.4c-4.4,2.3-10,2.9-14.9,2.8C220.6,181.4,218.5,182.9,220.5,182.9L220.5,182.9z"/>
	</g>
</g>
<g>
	<path class="st12" d="M155.9,151c-2.4,0.3-5.9,0.7-9.7,3c-7.8,4.8-9.8,13.6-10.3,16c-0.3,1.4-0.9,3.9-0.6,7.2
		c0.1,1.4,0.6,6.5,3.9,10.8c5.2,6.8,14.2,7.2,16.7,7.3c2.4,0.1,11.3,0.4,18.5-5.8c1.6-1.4,2.6-2.7,3.2-3.5c0,0,1-1.4,1.8-3
		c4.1-8.1,1.8-16.7,1.8-16.7c-0.5-1.8-1.6-5.8-5-9.3C169,149.5,158.3,150.7,155.9,151z"/>
	<g>
		<path class="st13" d="M156.5,150.4c-10.8,1.3-18.7,7.5-21.6,18.1c-2.9,10.6,0.7,22.2,11.8,25.9c18.4,6.2,41-7.2,36-28.5
			C179.8,153.8,168,149.2,156.5,150.4c-0.7,0.1-3.1,1.3-1.3,1.1c11-1.2,21.9,3.7,24.5,15.3c3.1,13.4-5.5,27-19.7,27.9
			c-10.8,0.7-21.1-4.4-23.1-15.8c-2.1-12.1,5.4-25.8,18.2-27.4C156,151.4,158.4,150.2,156.5,150.4z"/>
	</g>
</g>
<g>
	<path class="st12" d="M194.2,157.4c-2.1,0.2-5.1,0.6-8.3,2.6c-6.7,4.1-8.4,11.6-8.9,13.7c-0.3,1.2-0.7,3.4-0.5,6.2
		c0.1,1.2,0.5,5.6,3.4,9.3c4.5,5.8,12.1,6.2,14.3,6.3c2,0.1,9.7,0.3,15.8-5c1.4-1.2,2.3-2.3,2.7-3c0,0,0.9-1.2,1.6-2.5
		c3.5-6.9,1.6-14.3,1.6-14.3c-0.4-1.5-1.4-5-4.3-8C205.5,156.1,196.3,157.2,194.2,157.4z"/>
	<g>
		<path class="st13" d="M194.4,156.6c-9.3,1.1-16,6.8-18.5,15.9c-2.5,9.4,1,19.5,10.8,22.6c16,5,35-6.6,30.6-24.9
			C214.9,159.5,204.4,155.6,194.4,156.6c-1.4,0.1-2.4,1.7-0.4,1.5c9.4-1,18.5,3.5,20.6,13.3c2.5,11.9-5.6,23-18,23.2
			c-9,0.2-17.4-4.5-18.5-14.2c-1.2-10.3,5.1-21,15.9-22.3C195.4,158,196.4,156.4,194.4,156.6z"/>
	</g>
</g>
<path class="st2" d="M168,151.7c1.1-1.6,2.7-4.2,3.7-7.7c0.2-0.6,0.8-2.9,0.9-6.6c0.1-4.7-0.7-8-0.9-9.4
	c-1.6-10.4,14.8-23.1,15.7-22.3c0.5,0.4-5.4,5.8-9.3,17c-1.8,5.2-3.8,13.1-2,14c1.4,0.7,4.4-3.2,6.7-5.7c4.7-5.3,8.1-7.1,29-18.7
	c27.9-15.5,31.3-17.5,31.7-17c0.8,1.2-15.9,13.5-20.7,17c-27.1,20-46.1,29.8-44.7,33c0.3,0.7,1.5,0.4,10,0.3
	c14.1-0.1,14.9,0.9,21.3,0c7.1-1,11.3-2.9,11.7-2c0.4,0.9-3.3,3.8-7,5.7c-4.5,2.3-8.1,2.8-22.7,3.7c-8.8,0.5-18.3,1-18.3,1l0,0"/>
<path class="st14" d="M148.2,161.7c-1.3,0.6-3.2,1.4-3.7,3.3c-0.4,1.5,0.4,2.9,0.7,3.3c2.9,2.3,6.4,2.6,8.7,1
	c0.2-0.1,2.6-1.9,2.3-4.7c0-0.1-0.3-2.2-2-3.3C152.1,160,149.5,161.1,148.2,161.7z"/>
<path class="st14" d="M122,182.1c-1.3,0.6-3.2,1.4-3.7,3.3c-0.4,1.5,0.4,2.9,0.7,3.3c2.9,2.3,6.4,2.6,8.7,1c0.2-0.1,2.6-1.9,2.3-4.7
	c0-0.1-0.3-2.2-2-3.3C125.9,180.4,123.3,181.5,122,182.1z"/>
<path class="st17" d="M185.7,164.6c-1.3,0.6-3.2,1.4-3.7,3.3c-0.4,1.5,0.4,2.9,0.7,3.3c2.9,2.3,6.4,2.6,8.7,1
	c0.2-0.1,2.6-1.9,2.3-4.7c0-0.1-0.3-2.2-2-3.3C189.6,162.9,187,164.1,185.7,164.6z"/>
<g>
	<path class="st12" d="M172.7,216.3c-2.4,0.3-5.9,0.7-9.7,3c-7.8,4.8-9.8,13.6-10.3,16c-0.3,1.4-0.9,3.9-0.6,7.2
		c0.1,1.4,0.6,6.5,3.9,10.8c5.2,6.8,14.2,7.2,16.7,7.3c2.4,0.1,11.3,0.4,18.5-5.8c1.6-1.4,2.6-2.7,3.2-3.5c0,0,1-1.4,1.8-3
		c4.1-8.1,1.8-16.7,1.8-16.7c-0.5-1.8-1.6-5.8-5-9.3C185.9,214.8,175.1,216,172.7,216.3z"/>
	<g>
		<path class="st13" d="M172.8,215.2c-11.1,1.3-18.6,8.4-21.3,19.2c-2.6,10.5,1.2,21.8,11.9,25.7c18.9,6.9,41.2-7.4,36.1-28.9
			C196.5,218.9,184.5,213.9,172.8,215.2c-1.7,0.2-2.2,2.5-0.2,2.2c10.8-1.2,21.6,3.5,24.1,15c3,13.7-6.4,26.1-20.3,27
			c-10.8,0.7-21.2-4.5-22.7-16.2c-1.6-12.2,6.4-24.4,18.9-25.9C174.2,217.2,174.8,215,172.8,215.2z"/>
	</g>
</g>
<path class="st2" d="M102.2,105.1c-0.2-1.7,0.3,3.4,0.5,5.1c0.5,3.9,1.5,6.8,2.2,8.6c0.4,1,1.6,4.1,3.9,7.8c0.8,1.2,1.5,2.3,2.1,3
	c2.2,2.9,2.2,2.2,4.2,4.9c0.4,0.6,0.6,0.8,0.8,0.8c1-0.1,1.8-5.3,1.5-8.9C116.3,114.7,102.2,105.1,102.2,105.1L102.2,105.1z"/>
<path class="st2" d="M191,116.2c0.9,0.2,1.7-1.1,5-6.1c4.1-6.3,4.4-6.8,4.9-8.2c0.8-2.2,1-4.1,1.4-7.9c0.5-4.5,0.7-6.8-0.2-7.3
	c-1.5-0.9-5.4,2.6-7.8,5.9c-1.4,2.1-2.3,5.1-4,11.2c-0.7,2.3-1.3,4.9-0.9,8.3C189.6,113.4,189.9,115.9,191,116.2z"/>
<path class="st2" d="M150.8,106.5c-2.8,0.6-3.8,7.8-3.3,12.7c0.5,5.5,2.9,9.4,4.3,11.6c4.5,7.4,9.7,8.9,12.3,11.7
	c0.1,0.1,0.3,0.3,0.5,0.3c0.7-0.2,0-4.3-0.4-6.7c-2.1-12.5-3.3-18.9-7-24.2C155.6,109.6,153,106,150.8,106.5z"/>
<path class="st2" d="M197.9,140.1c0.3,0.9,1.9,0.8,7.9,0.8c7.5-0.1,8.1-0.1,9.6-0.4c2.2-0.6,4-1.4,7.4-3.2c4-2.1,6-3.1,6-4.1
	c-0.1-1.8-5.2-3.1-9.2-3.2c-2.5-0.1-5.5,0.9-11.6,2.8c-2.3,0.7-4.8,1.6-7.4,3.8C199.5,137.3,197.6,139,197.9,140.1z"/>
<path class="st2" d="M222.8,124c0.2,1.3,2,1.3,8.7,1.6c8.4,0.4,9.1,0.5,10.7,0c2.6-0.7,4.6-1.9,8.6-4.2c4.7-2.8,7.1-4.2,7.1-5.7
	c0.1-2.6-5.4-5-10-5.4c-2.8-0.3-6.3,1-13.2,3.4c-2.7,0.9-5.6,2.1-8.7,5.1C224.8,120,222.5,122.4,222.8,124z"/>
<g>
	<g>
		<path class="st6" d="M50.5,119.4c3.3-5.8,7,3.9,7.5,6.5c0.7,3.9,0.4,7.9-1.3,11.6c-2.1,4.5-6.3,8-11.2,5.3c-2.8-1.5-5.2-4-7.2-6.5
			c-8.3-10.3-16.1-32.2,1.3-38.1C67,89,86.8,118.2,96.9,139c3.7,7.7,7,15.6,9.5,23.7c0.4,1.1,3.2,0.4,2.9-0.8
			c-3.3-10.7-7.8-21.2-13.2-31c-7.5-13.8-18.1-28.7-33.5-34.1c-12.3-4.3-34.2-2.5-36.2,13.8c-1,8.5,2.8,17.6,7.5,24.5
			c3.4,4.9,9,11.4,15.6,10.7c8.8-0.9,12.6-11.8,11.6-19.4c-0.5-3.8-2.3-10.4-6.7-11.2c-2.8-0.5-5.3,1.6-6.6,3.9
			C47,120.5,50,120.3,50.5,119.4L50.5,119.4z"/>
	</g>
</g>
<g>
	<path class="st12" d="M121.5,140.2c-2.4,0.3-5.9,0.7-9.7,3c-7.8,4.8-9.8,13.6-10.3,16c-0.3,1.4-0.9,3.9-0.6,7.2
		c0.1,1.4,0.6,6.5,3.9,10.8c5.2,6.8,14.2,7.2,16.7,7.3c2.4,0.1,11.3,0.4,18.5-5.8c1.6-1.4,2.6-2.7,3.2-3.5c0,0,1-1.4,1.8-3
		c4.1-8.1,1.8-16.7,1.8-16.7c-0.5-1.8-1.6-5.8-5-9.3C134.6,138.7,123.9,139.9,121.5,140.2z"/>
	<g>
		<path class="st13" d="M121.7,139.6c-10.8,1.3-18.6,7.9-21.4,18.5c-2.8,10.6,1,22,12,25.7c18.5,6.2,40.9-7.4,35.9-28.6
			c-2.9-12.2-14.7-16.9-26.2-15.6c-0.8,0.1-3.1,1.5-1.2,1.3c11-1.2,21.8,3.6,24.5,15.2c3.2,13.7-5.8,27.1-20.2,27.8
			c-10.8,0.6-20.9-4.8-22.7-16.2c-1.9-12.3,5.9-25.3,18.7-26.9C122.5,140.7,123.8,139.3,121.7,139.6z"/>
	</g>
</g>
<path class="st14" d="M111.5,153.6c-1.3,0.6-3.2,1.4-3.7,3.3c-0.4,1.5,0.4,2.9,0.7,3.3c2.9,2.3,6.4,2.6,8.7,1
	c0.2-0.1,2.6-1.9,2.3-4.7c0-0.1-0.3-2.2-2-3.3C115.4,151.9,112.8,153,111.5,153.6z"/>
</svg>
