<?xml version="1.0" encoding="utf-8"?>
<!-- Generator: Adobe Illustrator 22.1.0, SVG Export Plug-In . SVG Version: 6.00 Build 0)  -->
<svg version="1.1" id="Calque_1" xmlns="http://www.w3.org/2000/svg" xmlns:xlink="http://www.w3.org/1999/xlink" x="0px" y="0px"
	 viewBox="0 0 529 358.6" style="enable-background:new 0 0 529 358.6;" xml:space="preserve">
<style type="text/css">
	.st0{fill:#91388D;}
	.st1{fill:#A7AF1A;}
	.st2{fill:#E73E2A;}
	.st3{fill:#9FA51E;}
	.st4{fill:#747D25;}
	.st5{fill:none;stroke:#000000;stroke-miterlimit:10;}
	.st6{fill:none;stroke:#FFFFFF;stroke-miterlimit:10;}
	.st7{fill:#B9CE00;stroke:#747D25;stroke-miterlimit:10;}
	.st8{fill:#69812A;}
	.st9{fill:#B5BC25;}
	.st10{fill:#AEB815;}
	.st11{fill:#CDCC2D;}
	.st12{fill:#B9CE00;}
	.st13{fill:#B7B70F;}
	.st14{fill:#707121;}
	.st15{fill:#878C23;}
	.st16{fill:#D8D031;}
	.st17{fill:#D2D821;}
	.st18{fill:#7F8022;}
	.st19{fill:#C4C30F;}
	.st20{fill:#B4BC10;}
	.st21{fill:#235627;}
	.st22{fill:#8C2B86;}
	.st23{fill:#973E90;}
	.st24{fill:#572059;}
	.st25{fill:#742373;}
	.st26{fill:#953A8E;}
	.st27{fill:#341435;}
	.st28{fill:#421D4B;}
	.st29{fill:#AB63A4;}
	.st30{fill:#E6E460;}
	.st31{fill:#6F2472;}
	.st32{fill:#A15099;}
	.st33{fill:#6B2B69;}
	.st34{fill:#852882;}
	.st35{fill:#A2AA1D;}
	.st36{fill:#832584;}
	.st37{fill:#AA64A5;}
	.st38{fill:#74237D;}
	.st39{fill:#984C97;}
	.st40{fill:#9A9A1E;}
	.st41{fill:#BFBB1A;}
	.st42{fill:#C1BC15;}
	.st43{fill:#B7A60E;}
</style>
<g>
	<path class="st0" d="M140.1,297.7c-2.4,0.3-5.9,0.8-9.6,3.1c-7.8,4.9-9.6,13.7-10.1,16.1c-0.3,1.4-0.8,3.9-0.5,7.2
		c0.1,1.4,0.7,6.5,4.1,10.8c5.3,6.7,14.2,7,16.8,7.1c2.4,0.1,11.3,0.3,18.4-6.1c1.6-1.4,2.6-2.7,3.2-3.5c0,0,1-1.4,1.8-3
		c4-8.1,1.6-16.7,1.6-16.7c-0.5-1.8-1.6-5.7-5.1-9.3C153.3,296,142.5,297.4,140.1,297.7z"/>
</g>
<g>
	<path class="st1" d="M405.8,299.6c-2.4,0.3-5.9,0.7-9.7,3c-7.8,4.8-9.8,13.6-10.3,16c-0.3,1.4-0.9,3.9-0.6,7.2
		c0.1,1.4,0.6,6.5,3.9,10.8c5.2,6.8,14.2,7.2,16.7,7.3c2.4,0.1,11.3,0.4,18.5-5.8c1.6-1.4,2.6-2.7,3.2-3.5c0,0,1-1.4,1.8-3
		c4.1-8.1,1.8-16.7,1.8-16.7c-0.5-1.8-1.6-5.8-5-9.3C419,298.1,408.2,299.3,405.8,299.6z"/>
</g>
<path class="st2" d="M274,159.2"/>
<g>
	<path class="st3" d="M454.9,126.2c0.8-1.3,1.9-3.1,2.9-5.3c4-8.6,5-17.7,3.8-18c-0.8-0.2-1.5,3.7-5.8,8.1c-2.9,3-4.3,3-7.9,6.6
		c-3.2,3.2-4.5,5.6-4.8,5.4c-0.6-0.3,8.1-11,10-24.4c1.8-13-3.6-23-8.7-32.4c-2.7-4.9-5.5-9.7-8.7-9.2c-5,0.8-6.8,13.7-9.8,13.6
		c-2.3,0-2.7-7.3-4.4-14c-4.3-17.1-18-33.5-27.9-31.4c-1,0.2-2.4,0.7-10.5,10.2c-10.6,12.4-15.8,18.7-19.5,25.9
		c-7.6,14.6-7.9,26.6-9.7,26.5c-1.9-0.1-3.5-8.8-2.8-16.8c0.6-7.4,2.8-11.5,1.8-12c-1.5-0.8-8.9,8.8-14.4,18.7
		c0,0-10.7,19.3-9.9,33.3c0.3,5.6,2.3,10,2.3,10c0.7,1.5,1.3,2.6,1.7,3.2c0.9,1.5,10.3,16.6,8.7,18.1c-0.4,0.3-1.1-0.5-4-1.9
		c-2.6-1.2-3-1-7.1-2.4c-2.8-1-5.2-1.9-8-3.5c-3.1-1.8-3.7-2.7-4.1-2.5c-1.8,1.1,2.9,18.4,11.3,30.3c13.2,18.6,35.4,23.5,47.9,25"/>
</g>
<path class="st4" d="M378.6,195.4c-0.6-1.8-1.8-4.6-4.1-7.5c-0.4-0.5-1.9-2.4-4.9-4.6c-3.8-2.9-6.9-4.1-8.1-4.7
	c-9.4-4.7-10.1-25.5-9-25.8c0.7-0.2,1.6,7.7,8.4,17.5c3.1,4.5,8.4,10.7,10.2,9.8c1.4-0.7,0-5.4-0.7-8.7c-1.5-6.9-1-10.7,1.8-34.4
	c3.7-31.7,4-35.7,4.7-35.6c1.4,0.1,1.7,20.8,1.8,26.7c0.4,33.7-2.6,54.8,0.7,55.5c0.8,0.2,1.2-1,6.1-7.9
	c8.2-11.5,9.4-11.5,12.4-17.3c3.3-6.3,4.2-10.8,5.2-10.6c1,0.2,1.1,4.9,0.5,9c-0.7,5-2.5,8.2-10.2,20.5c-4.7,7.5-9.9,15.5-9.9,15.5
	l0,0"/>
<path class="st5" d="M425.4,108.5"/>
<path class="st5" d="M509.4,86"/>
<line class="st5" x1="442.6" y1="36" x2="442.6" y2="36"/>
<path class="st6" d="M368.7,175.2"/>
<path class="st7" d="M433.4,179.2c-2.4,0.3-5.9,0.7-9.7,3c-7.8,4.8-9.8,13.6-10.3,16c-0.3,1.4-0.9,3.9-0.6,7.2
	c0.1,1.4,0.6,6.5,3.9,10.8c5.2,6.8,14.2,7.2,16.7,7.3c2.4,0.1,11.3,0.4,18.5-5.8c1.6-1.4,2.6-2.7,3.2-3.5c0,0,1-1.4,1.8-3
	c4.1-8.1,1.8-16.7,1.8-16.7c-0.5-1.8-1.6-5.8-5-9.3C446.6,177.7,435.8,178.9,433.4,179.2z"/>
<path class="st7" d="M408.7,206.2c-2.5-0.2-6.3-0.1-10.7,1.3c-2.1,0.7-10.8,3.5-15.3,12.3c-0.7,1.4-6.1,12.1-0.3,21.7
	c5.1,8.5,15,9.7,17.7,10c7.4,0.9,13.2-1.8,18-4c3.9-1.8,7-3.2,9.7-6.7c4.2-5.5,3.9-12,3.7-14.3"/>
<path class="st7" d="M409.9,251.2c-0.1,1.7-0.3,4-1,6.7c-0.9,3.4-2,5.8-3,7.7c-2.5,4.9-3.7,7.4-6.3,9c-2,1.2-3.3,1.2-3.7,2.3
	c-0.5,1.9,2.4,4.4,4,5.7c0.4,0.4,2.2,1.8,5,3c0.9,0.4,3.2,1.3,6.3,1.7c0.6,0.1,2.6,0.3,5.3,0c2.1-0.2,6.8-0.8,11.7-4
	c3.1-2.1,4.9-4.3,5.7-5.3c3-4,3.7-7.7,4.7-12.3c0.7-3.4,1.1-5.5,0-6.3c-1.3-1-3,0.9-7.3,1.3c-1.4,0.1-4.7,0.4-8.2-1.3
	c-0.9-0.5-3.8-2-5.5-5.3c-1.4-2.8-1.5-5.6-1.3-5.7c0.3-0.1,0.1,4.9,3.2,8.3c3.7,4,10.1,3.6,23,2.7c1.9-0.1,3.7-0.3,5.7-1.3
	c2.8-1.5,4.3-3.8,7-8c2.1-3.3,3.1-4.9,3.7-7.3c0.7-3,0.4-5.5,0-8.7c-0.3-2.2-0.5-3.9-1.3-6c-1.1-2.7-2.6-4.5-3.7-5.7"/>
<path class="st7" d="M412.1,192.9c-2.5-0.1-6.3-0.7-9.3-3.3c-6.1-5.2-3.1-12.9-7.7-16c-5.4-3.7-17.7,1.6-23.7,10.3
	c-0.9,1.3-6.5,9.8-3.3,19.3c0.3,1,2.6,7.5,8,10.7c2.6,1.5,4.4,1.3,5.7,3c2.1,2.9,0.3,7.9-1.8,11.8"/>
<g>
	<g>
		<path class="st8" d="M310.4,142.4c3.1-4.7,6.2,4.1,6,6.6c-0.4,5-5.4,10-10.5,8.4c-5.8-1.9-11-8.1-12.6-13.9
			c-4.1-14.6,17.6-17.3,27.5-14.9c16.7,4,28.8,20.9,35.3,35.8c0.5,1.1,3.4,0.3,2.9-0.8c-7.7-17.5-22.9-37.3-43.7-37.6
			c-9-0.1-25.7,2.9-25.4,14.8c0.2,9.5,12.2,22.9,22.4,17.9c5.6-2.7,8.8-9.7,6.1-15.5c-2.3-4.9-7.6-5.6-10.7-1
			C306.9,143.4,309.8,143.3,310.4,142.4L310.4,142.4z"/>
	</g>
</g>
<path class="st7" d="M451.3,238.6"/>
<path class="st7" d="M435.4,220.5"/>
<path class="st7" d="M444.2,282.5"/>
<path class="st7" d="M435.4,204"/>
<path class="st7" d="M441.5,233.2"/>
<path class="st9" d="M352.8,212.1c-2.2,0.2-5.5,0.6-8.9,2.8c-7.2,4.4-9,12.5-9.5,14.8c-0.3,1.3-0.8,3.6-0.5,6.6
	c0.1,1.3,0.6,6,3.6,10c4.8,6.3,13.1,6.7,15.4,6.8c2.2,0.1,10.5,0.4,17-5.4c1.5-1.3,2.4-2.5,3-3.2c0,0,0.9-1.3,1.7-2.7
	c3.8-7.5,1.7-15.4,1.7-15.4c-0.4-1.7-1.5-5.3-4.6-8.6C364.9,210.7,355,211.8,352.8,212.1z"/>
<g>
	<path class="st10" d="M367.1,237.1c-2.4,0.3-5.9,0.7-9.7,3c-7.8,4.8-9.8,13.6-10.3,16c-0.3,1.4-0.9,3.9-0.6,7.2
		c0.1,1.4,0.6,6.5,3.9,10.8c5.2,6.8,14.2,7.2,16.7,7.3c2.4,0.1,11.3,0.4,18.5-5.8c1.6-1.4,2.6-2.7,3.2-3.5c0,0,1-1.4,1.8-3
		c4.1-8.1,1.8-16.7,1.8-16.7c-0.5-1.8-1.6-5.8-5-9.3C380.2,235.6,369.5,236.8,367.1,237.1z"/>
</g>
<g>
	<path class="st11" d="M395,284.2c-2.4,0.3-5.9,0.7-9.7,3c-7.8,4.8-9.8,13.6-10.3,16c-0.3,1.4-0.9,3.9-0.6,7.2
		c0.1,1.4,0.6,6.5,3.9,10.8c5.2,6.8,14.2,7.2,16.7,7.3c2.4,0.1,11.3,0.4,18.5-5.8c1.6-1.4,2.6-2.7,3.2-3.5c0,0,1-1.4,1.8-3
		c4.1-8.1,1.8-16.7,1.8-16.7c-0.5-1.8-1.6-5.8-5-9.3C408.1,282.7,397.4,283.9,395,284.2z"/>
</g>
<g>
	<path class="st3" d="M429.1,268c-2.4,0.3-5.9,0.7-9.7,3c-7.8,4.8-9.8,13.6-10.3,16c-0.3,1.4-0.9,3.9-0.6,7.2
		c0.1,1.4,0.6,6.5,3.9,10.8c5.2,6.8,14.2,7.2,16.7,7.3c2.4,0.1,11.3,0.4,18.5-5.8c1.6-1.4,2.6-2.7,3.2-3.5c0,0,1-1.4,1.8-3
		c4.1-8.1,1.8-16.7,1.8-16.7c-0.5-1.8-1.6-5.8-5-9.3C442.3,266.5,431.5,267.7,429.1,268z"/>
</g>
<g>
	<path class="st12" d="M343.8,170.8c-2.4,0.3-5.9,0.7-9.7,3c-7.8,4.8-9.8,13.6-10.3,16c-0.3,1.4-0.9,3.9-0.6,7.2
		c0.1,1.4,0.6,6.5,3.9,10.8c5.2,6.8,14.2,7.2,16.7,7.3c2.4,0.1,11.3,0.4,18.5-5.8c1.6-1.4,2.6-2.7,3.2-3.5c0,0,1-1.4,1.8-3
		c4.1-8.1,1.8-16.7,1.8-16.7c-0.5-1.8-1.6-5.8-5-9.3C356.9,169.4,346.2,170.6,343.8,170.8z"/>
</g>
<g>
	<path class="st13" d="M371.7,176.8c-2.4,0.3-5.9,0.7-9.7,3c-7.8,4.8-9.8,13.6-10.3,16c-0.3,1.4-0.9,3.9-0.6,7.2
		c0.1,1.4,0.6,6.5,3.9,10.8c5.2,6.8,14.2,7.2,16.7,7.3c2.4,0.1,11.3,0.4,18.5-5.8c1.6-1.4,2.6-2.7,3.2-3.5c0,0,1-1.4,1.8-3
		c4.1-8.1,1.8-16.7,1.8-16.7c-0.5-1.8-1.6-5.8-5-9.3C384.8,175.3,374.1,176.5,371.7,176.8z"/>
</g>
<path class="st14" d="M438.9,242.7c-2.4,0.3-5.9,0.7-9.7,3c-7.8,4.8-9.8,13.6-10.3,16c-0.3,1.4-0.9,3.9-0.6,7.2
	c0.1,1.4,0.6,6.5,3.9,10.8c5.2,6.8,14.2,7.2,16.7,7.3c2.4,0.1,11.3,0.4,18.5-5.8c1.6-1.4,2.6-2.7,3.2-3.5c0,0,1-1.4,1.8-3
	c4.1-8.1,1.8-16.7,1.8-16.7c-0.5-1.8-1.6-5.8-5-9.3C452.1,241.2,441.3,242.4,438.9,242.7z"/>
<g>
	<path class="st15" d="M448.1,206.8c-2.4,0.3-5.9,0.7-9.7,3c-7.8,4.8-9.8,13.6-10.3,16c-0.3,1.4-0.9,3.9-0.6,7.2
		c0.1,1.4,0.6,6.5,3.9,10.8c5.2,6.8,14.2,7.2,16.7,7.3c2.4,0.1,11.3,0.4,18.5-5.8c1.6-1.4,2.6-2.7,3.2-3.5c0,0,1-1.4,1.8-3
		c4.1-8.1,1.8-16.7,1.8-16.7c-0.5-1.8-1.6-5.8-5-9.3C461.2,205.4,450.5,206.6,448.1,206.8z"/>
</g>
<g>
	<path class="st1" d="M460.2,178.4c-2.2,0.2-5.4,0.6-8.7,2.7c-7.1,4.3-8.9,12.3-9.4,14.5c-0.3,1.3-0.8,3.5-0.5,6.5
		c0.1,1.2,0.6,5.9,3.5,9.8c4.7,6.1,12.8,6.5,15.1,6.6c2.1,0.1,10.3,0.4,16.7-5.3c1.4-1.3,2.4-2.5,2.9-3.2c0,0,0.9-1.3,1.6-2.7
		c3.7-7.3,1.7-15.1,1.7-15.1c-0.4-1.6-1.4-5.2-4.5-8.4c-4.5-4.7-10.3-5.3-12.5-5.5C463.5,178,461.3,178.3,460.2,178.4z"/>
</g>
<path class="st16" d="M395.5,160.6c-1.3,0.6-3.2,1.4-3.7,3.3c-0.4,1.5,0.4,2.9,0.7,3.3c2.9,2.3,6.4,2.6,8.7,1
	c0.2-0.1,2.6-1.9,2.3-4.7c0-0.1-0.3-2.2-2-3.3C399.4,158.9,396.8,160,395.5,160.6z"/>
<path class="st16" d="M336.4,180c-1.3,0.6-3.2,1.4-3.7,3.3c-0.4,1.5,0.4,2.9,0.7,3.3c2.9,2.3,6.4,2.6,8.7,1c0.2-0.1,2.6-1.9,2.3-4.7
	c0-0.1-0.3-2.2-2-3.3C340.2,178.2,337.7,179.4,336.4,180z"/>
<path class="st16" d="M344.3,222.4c-1.3,0.6-3.2,1.4-3.7,3.3c-0.4,1.5,0.4,2.9,0.7,3.3c2.9,2.3,6.4,2.6,8.7,1
	c0.2-0.1,2.6-1.9,2.3-4.7c0-0.1-0.3-2.2-2-3.3C348.2,220.7,345.6,221.8,344.3,222.4z"/>
<path class="st7" d="M378.7,211.4c-1.3,0.6-3.2,1.4-3.7,3.3c-0.4,1.5,0.4,2.9,0.7,3.3c2.9,2.3,6.4,2.6,8.7,1
	c0.2-0.1,2.6-1.9,2.3-4.7c0-0.1-0.3-2.2-2-3.3C382.5,209.7,380,210.8,378.7,211.4z"/>
<g>
	<path class="st12" d="M384.5,201.5c-2.4,0.3-5.9,0.7-9.7,3c-7.8,4.8-9.8,13.6-10.3,16c-0.3,1.4-0.9,3.9-0.6,7.2
		c0.1,1.4,0.6,6.5,3.9,10.8c5.2,6.8,14.2,7.2,16.7,7.3c2.4,0.1,11.3,0.4,18.5-5.8c1.6-1.4,2.6-2.7,3.2-3.5c0,0,1-1.4,1.8-3
		c4.1-8.1,1.8-16.7,1.8-16.7c-0.5-1.8-1.6-5.8-5-9.3C397.6,200,386.9,201.2,384.5,201.5z"/>
</g>
<g>
	<path class="st12" d="M375.4,268c-2.4,0.3-5.9,0.7-9.7,3c-7.8,4.8-9.8,13.6-10.3,16c-0.3,1.4-0.9,3.9-0.6,7.2
		c0.1,1.4,0.6,6.5,3.9,10.8c5.2,6.8,14.2,7.2,16.7,7.3c2.4,0.1,11.3,0.4,18.5-5.8c1.6-1.4,2.6-2.7,3.2-3.5c0,0,1-1.4,1.8-3
		c4.1-8.1,1.8-16.7,1.8-16.7c-0.5-1.8-1.6-5.8-5-9.3C388.5,266.5,377.8,267.7,375.4,268z"/>
</g>
<g>
	<path class="st17" d="M397.4,240.8c-2.4,0.3-5.9,0.7-9.7,3c-7.8,4.8-9.8,13.6-10.3,16c-0.3,1.4-0.9,3.9-0.6,7.2
		c0.1,1.4,0.6,6.5,3.9,10.8c5.2,6.8,14.2,7.2,16.7,7.3c2.4,0.1,11.3,0.4,18.5-5.8c1.6-1.4,2.6-2.7,3.2-3.5c0,0,1-1.4,1.8-3
		c4.1-8.1,1.8-16.7,1.8-16.7c-0.5-1.8-1.6-5.8-5-9.3C410.6,239.3,399.8,240.5,397.4,240.8z"/>
</g>
<g>
	<path class="st18" d="M418.3,181.9c-2.4,0.3-5.9,0.7-9.7,3c-7.8,4.8-9.8,13.6-10.3,16c-0.3,1.4-0.9,3.9-0.6,7.2
		c0.1,1.4,0.6,6.5,3.9,10.8c5.2,6.8,14.2,7.2,16.7,7.3c2.4,0.1,11.3,0.4,18.5-5.8c1.6-1.4,2.6-2.7,3.2-3.5c0,0,1-1.4,1.8-3
		c4.1-8.1,1.8-16.7,1.8-16.7c-0.5-1.8-1.6-5.8-5-9.3C431.4,180.4,420.7,181.6,418.3,181.9z"/>
</g>
<path class="st16" d="M378.7,208c-1.3,0.6-3.2,1.4-3.7,3.3c-0.4,1.5,0.4,2.9,0.7,3.3c2.9,2.3,6.4,2.6,8.7,1c0.2-0.1,2.6-1.9,2.3-4.7
	c0-0.1-0.3-2.2-2-3.3C382.5,206.2,380,207.4,378.7,208z"/>
<path class="st16" d="M408.9,198.4c-1.3,0.6-3.2,1.4-3.7,3.3c-0.4,1.5,0.4,2.9,0.7,3.3c2.9,2.3,6.4,2.6,8.7,1
	c0.2-0.1,2.6-1.9,2.3-4.7c0-0.1-0.3-2.2-2-3.3C412.8,196.7,410.2,197.8,408.9,198.4z"/>
<path class="st16" d="M436.2,165.4c-1.3,0.6-3.2,1.4-3.7,3.3c-0.4,1.5,0.4,2.9,0.7,3.3c2.9,2.3,6.4,2.6,8.7,1
	c0.2-0.1,2.6-1.9,2.3-4.7c0-0.1-0.3-2.2-2-3.3C440.1,163.7,437.5,164.8,436.2,165.4z"/>
<g>
	<path class="st19" d="M462.6,182.3c1.2,0,3,0,5-0.2c7.9-0.8,14.9-4.3,14.6-5.3c-0.2-0.7-3.3,0.5-8.3-0.8c-3.3-0.9-4-2-8.1-3.1
		c-3.7-1-5.9-0.9-5.9-1.3c0-0.6,11.3,1.3,21.8-3.4c10.2-4.6,15.3-13.4,19.9-21.8c2.4-4.4,4.8-8.8,3.1-11.1c-2.6-3.5-12.7,1-13.9-1.4
		c-0.9-1.8,4.2-5.5,8.4-9.9c10.6-11.3,16.9-29.6,11.3-36.4c-0.6-0.7-1.5-1.5-11.7-3.5c-13.3-2.6-20-3.7-26.8-3.3
		c-13.7,0.8-22.6,6.1-23.2,4.6c-0.7-1.5,4.9-6.8,11-10c5.6-2.9,9.5-3.1,9.5-4.1c-0.1-2.3-19.3-2.6-19.4-2.6c0,0,0,0-0.1,0
		c0,0,0,0,0,0c0,0-18.4,0.5-28.2,7.6c-4,2.9-6.3,6.4-6.3,6.4c-0.8,1.3-1.3,2.2-1.6,2.9c-0.7,1.4-7.8,15.7-9.5,15.1
		c-0.4-0.1-0.1-1.1-0.3-4c-0.2-2.6-0.5-2.8-1.1-6.7c-0.4-2.7-0.8-5-0.8-7.9c0-3.2,0.5-4.1,0.1-4.3c-1.5-0.9-12.2,10.8-17.3,22.8
		c-8.1,18.9-2.5,38.6,1.5,49.1"/>
</g>
<g>
	<path class="st3" d="M401.4,153.1c-2.4,0.3-5.9,0.7-9.7,3c-7.8,4.8-9.8,13.6-10.3,16c-0.3,1.4-0.9,3.9-0.6,7.2
		c0.1,1.4,0.6,6.5,3.9,10.8c5.2,6.8,14.2,7.2,16.7,7.3c2.4,0.1,11.3,0.4,18.5-5.8c1.6-1.4,2.6-2.7,3.2-3.5c0,0,1-1.4,1.8-3
		c4.1-8.1,1.8-16.7,1.8-16.7c-0.5-1.8-1.6-5.8-5-9.3C414.6,151.7,403.9,152.9,401.4,153.1z"/>
</g>
<g>
	<path class="st12" d="M439.8,159.6c-2.1,0.2-5.1,0.6-8.3,2.6c-6.7,4.1-8.4,11.6-8.9,13.7c-0.3,1.2-0.7,3.4-0.5,6.2
		c0.1,1.2,0.5,5.6,3.4,9.3c4.5,5.8,12.1,6.2,14.3,6.3c2,0.1,9.7,0.3,15.8-5c1.4-1.2,2.3-2.3,2.7-3c0,0,0.9-1.2,1.6-2.5
		c3.5-6.9,1.6-14.3,1.6-14.3c-0.4-1.5-1.4-5-4.3-8C451.1,158.3,441.9,159.3,439.8,159.6z"/>
</g>
<path class="st4" d="M413.6,153.8c1.1-1.6,2.7-4.2,3.7-7.7c0.2-0.6,0.8-2.9,0.9-6.6c0.1-4.7-0.7-8-0.9-9.4
	c-1.6-10.4,14.8-23.1,15.7-22.3c0.5,0.4-5.4,5.8-9.3,17c-1.8,5.2-3.8,13.1-2,14c1.4,0.7,4.4-3.2,6.7-5.7c4.7-5.3,8.1-7.1,29-18.7
	C485.2,99,488.6,97,489,97.5c0.8,1.2-15.9,13.5-20.7,17c-27.1,20-46.1,29.8-44.7,33c0.3,0.7,1.5,0.4,10,0.3
	c14.1-0.1,14.9,0.9,21.3,0c7.1-1,11.3-2.9,11.7-2c0.4,0.9-3.3,3.8-7,5.7c-4.5,2.3-8.1,2.8-22.7,3.7c-8.8,0.5-18.3,1-18.3,1l0,0"/>
<path class="st16" d="M393.8,163.8c-1.3,0.6-3.2,1.4-3.7,3.3c-0.4,1.5,0.4,2.9,0.7,3.3c2.9,2.3,6.4,2.6,8.7,1
	c0.2-0.1,2.6-1.9,2.3-4.7c0-0.1-0.3-2.2-2-3.3C397.6,162.1,395.1,163.3,393.8,163.8z"/>
<path class="st16" d="M367.6,184.3c-1.3,0.6-3.2,1.4-3.7,3.3c-0.4,1.5,0.4,2.9,0.7,3.3c2.9,2.3,6.4,2.6,8.7,1
	c0.2-0.1,2.6-1.9,2.3-4.7c0-0.1-0.3-2.2-2-3.3C371.5,182.5,368.9,183.7,367.6,184.3z"/>
<path class="st16" d="M431.3,166.8c-1.3,0.6-3.2,1.4-3.7,3.3c-0.4,1.5,0.4,2.9,0.7,3.3c2.9,2.3,6.4,2.6,8.7,1
	c0.2-0.1,2.6-1.9,2.3-4.7c0-0.1-0.3-2.2-2-3.3C435.1,165.1,432.6,166.2,431.3,166.8z"/>
<g>
	<path class="st3" d="M418.3,218.5c-2.4,0.3-5.9,0.7-9.7,3c-7.8,4.8-9.8,13.6-10.3,16c-0.3,1.4-0.9,3.9-0.6,7.2
		c0.1,1.4,0.6,6.5,3.9,10.8c5.2,6.8,14.2,7.2,16.7,7.3c2.4,0.1,11.3,0.4,18.5-5.8c1.6-1.4,2.6-2.7,3.2-3.5c0,0,1-1.4,1.8-3
		c4.1-8.1,1.8-16.7,1.8-16.7c-0.5-1.8-1.6-5.8-5-9.3C431.4,217,420.7,218.2,418.3,218.5z"/>
</g>
<path class="st4" d="M347.8,107.2c-0.2-1.7,0.3,3.4,0.5,5.1c0.5,3.9,1.5,6.8,2.2,8.6c0.4,1,1.6,4.1,3.9,7.8c0.8,1.2,1.5,2.3,2.1,3
	c2.2,2.9,2.2,2.2,4.2,4.9c0.4,0.6,0.6,0.8,0.8,0.8c1-0.1,1.8-5.3,1.5-8.9C361.9,116.8,347.8,107.2,347.8,107.2L347.8,107.2z"/>
<path class="st4" d="M436.6,118.3c0.9,0.2,1.7-1.1,5-6.1c4.1-6.3,4.4-6.8,4.9-8.2c0.8-2.2,1-4.1,1.4-7.9c0.5-4.5,0.7-6.8-0.2-7.3
	c-1.5-0.9-5.4,2.6-7.8,5.9c-1.4,2.1-2.3,5.1-4,11.2c-0.7,2.3-1.3,4.9-0.9,8.3C435.1,115.5,435.5,118.1,436.6,118.3z"/>
<path class="st4" d="M398.4,113.6c-2.8,0.6-3.8,7.8-3.3,12.7c0.5,5.5,2.9,9.4,4.3,11.6c4.5,7.4,9.7,8.9,12.3,11.7
	c0.1,0.1,0.3,0.3,0.5,0.3c0.7-0.2,0-4.3-0.4-6.7c-2.1-12.5-3.3-18.9-7-24.2C403.2,116.8,400.6,113.1,398.4,113.6z"/>
<path class="st4" d="M443.5,142.2c0.3,0.9,1.9,0.8,7.9,0.8c7.5-0.1,8.1-0.1,9.6-0.4c2.2-0.6,4-1.4,7.4-3.2c4-2.1,6-3.1,6-4.1
	c-0.1-1.8-5.2-3.1-9.2-3.2c-2.5-0.1-5.5,0.9-11.6,2.8c-2.3,0.7-4.8,1.6-7.4,3.8C445.1,139.5,443.2,141.1,443.5,142.2z"/>
<path class="st4" d="M463.4,126.1c0.2,1.3,2,1.3,8.7,1.6c8.4,0.4,9.1,0.5,10.7,0c2.6-0.7,4.6-1.9,8.6-4.2c4.7-2.8,7.1-4.2,7.1-5.7
	c0.1-2.6-5.4-5-10-5.4c-2.8-0.3-6.3,1-13.2,3.4c-2.7,0.9-5.6,2.1-8.7,5.1C465.4,122.2,463.1,124.5,463.4,126.1z"/>
<g>
	<g>
		<path class="st8" d="M296.1,121.5c3.3-5.8,7,3.9,7.5,6.5c0.7,3.9,0.4,7.9-1.3,11.6c-2.1,4.5-6.3,8-11.2,5.3
			c-2.8-1.5-5.2-4-7.2-6.5c-8.3-10.3-16.1-32.2,1.3-38.1c27.4-9.3,47.2,20,57.3,40.8c3.7,7.7,7,15.6,9.5,23.7
			c0.4,1.1,3.2,0.4,2.9-0.8c-3.3-10.7-7.8-21.2-13.2-31c-7.5-13.8-18.1-28.7-33.5-34.1c-12.3-4.3-34.2-2.5-36.2,13.8
			c-1,8.5,2.8,17.6,7.5,24.5c3.4,4.9,9,11.4,15.6,10.7c8.8-0.9,12.6-11.8,11.6-19.4c-0.5-3.8-2.3-10.4-6.7-11.2
			c-2.8-0.5-5.3,1.6-6.6,3.9C292.6,122.6,295.5,122.5,296.1,121.5L296.1,121.5z"/>
	</g>
</g>
<g>
	<path class="st20" d="M367.1,142.4c-2.4,0.3-5.9,0.7-9.7,3c-7.8,4.8-9.8,13.6-10.3,16c-0.3,1.4-0.9,3.9-0.6,7.2
		c0.1,1.4,0.6,6.5,3.9,10.8c5.2,6.8,14.2,7.2,16.7,7.3c2.4,0.1,11.3,0.4,18.5-5.8c1.6-1.4,2.6-2.7,3.2-3.5c0,0,1-1.4,1.8-3
		c4.1-8.1,1.8-16.7,1.8-16.7c-0.5-1.8-1.6-5.8-5-9.3C380.2,140.9,369.5,142.1,367.1,142.4z"/>
</g>
<path class="st16" d="M357.1,155.8c-1.3,0.6-3.2,1.4-3.7,3.3c-0.4,1.5,0.4,2.9,0.7,3.3c2.9,2.3,6.4,2.6,8.7,1
	c0.2-0.1,2.6-1.9,2.3-4.7c0-0.1-0.3-2.2-2-3.3C360.9,154.1,358.4,155.2,357.1,155.8z"/>
<g>
	<path class="st12" d="M192.1,118c0.8-1.3,1.9-3.1,2.9-5.3c4-8.6,5-17.7,3.8-18c-0.8-0.2-1.5,3.7-5.8,8.1c-2.9,3-4.3,3-7.9,6.6
		c-3.2,3.2-4.5,5.6-4.8,5.4c-0.6-0.3,8.1-11,10-24.4c1.8-13-3.6-23-8.7-32.4c-2.7-4.9-5.5-9.7-8.7-9.2c-5,0.8-6.8,13.7-9.8,13.6
		c-2.3,0-2.7-7.3-4.4-14c-4.3-17.1-18-33.5-27.9-31.4c-1,0.2-2.4,0.7-10.5,10.2c-10.6,12.4-15.8,18.7-19.5,25.9
		C93.1,68,92.8,79.9,91,79.8c-1.9-0.1-3.5-8.8-2.8-16.8c0.6-7.4,2.8-11.5,1.8-12c-1.5-0.8-8.9,8.8-14.4,18.7c0,0-10.7,19.3-9.9,33.3
		c0.3,5.6,2.3,10,2.3,10c0.7,1.5,1.3,2.6,1.7,3.2c0.9,1.5,10.3,16.6,8.7,18.1c-0.4,0.3-1.1-0.5-4-1.9c-2.6-1.2-3-1-7.1-2.4
		c-2.8-1-5.2-1.9-8-3.5c-3.1-1.8-3.7-2.7-4.1-2.5c-1.8,1.1,2.9,18.4,11.3,30.3c13.2,18.6,35.4,23.5,47.9,25"/>
</g>
<path class="st4" d="M115.9,187.2c-0.6-1.8-1.8-4.6-4.1-7.5c-0.4-0.5-1.9-2.4-4.9-4.6c-3.8-2.9-6.9-4.1-8.1-4.7
	c-9.4-4.7-10.1-25.5-9-25.8c0.7-0.2,1.6,7.7,8.4,17.5c3.1,4.5,8.4,10.7,10.2,9.8c1.4-0.7,0-5.4-0.7-8.7c-1.5-6.9-1-10.7,1.8-34.4
	c3.7-31.7,4-35.7,4.7-35.6c1.4,0.1,1.7,20.8,1.8,26.7c0.4,33.7-2.6,54.8,0.7,55.5c0.8,0.2,1.2-1,6.1-7.9
	c8.2-11.5,9.4-11.5,12.4-17.3c3.3-6.3,4.2-10.8,5.2-10.6c1,0.2,1.1,4.9,0.5,9c-0.7,5-2.5,8.2-10.2,20.5c-4.7,7.5-9.9,15.5-9.9,15.5
	l0,0"/>
<path class="st5" d="M162.7,100.3"/>
<path class="st5" d="M246.7,77.8"/>
<path class="st6" d="M106,167"/>
<path class="st6" d="M170.7,171c-2.4,0.3-5.9,0.7-9.7,3c-7.8,4.8-9.8,13.6-10.3,16c-0.3,1.4-0.9,3.9-0.6,7.2
	c0.1,1.4,0.6,6.5,3.9,10.8c5.2,6.8,14.2,7.2,16.7,7.3c2.4,0.1,11.3,0.4,18.5-5.8c1.6-1.4,2.6-2.7,3.2-3.5c0,0,1-1.4,1.8-3
	c4.1-8.1,1.8-16.7,1.8-16.7c-0.5-1.8-1.6-5.8-5-9.3C183.8,169.5,173.1,170.7,170.7,171z"/>
<path class="st6" d="M146,198c-2.5-0.2-6.3-0.1-10.7,1.3c-2.1,0.7-10.8,3.5-15.3,12.3c-0.7,1.4-6.1,12.1-0.3,21.7
	c5.1,8.5,15,9.7,17.7,10c7.4,0.9,13.2-1.8,18-4c3.9-1.8,7-3.2,9.7-6.7c4.2-5.5,3.9-12,3.7-14.3"/>
<path class="st6" d="M147.2,243c-0.1,1.7-0.3,4-1,6.7c-0.9,3.4-2,5.8-3,7.7c-2.5,4.9-3.7,7.4-6.3,9c-2,1.2-3.3,1.2-3.7,2.3
	c-0.5,1.9,2.4,4.4,4,5.7c0.4,0.4,2.2,1.8,5,3c0.9,0.4,3.2,1.3,6.3,1.7c0.6,0.1,2.6,0.3,5.3,0c2.1-0.2,6.8-0.8,11.7-4
	c3.1-2.1,4.9-4.3,5.7-5.3c3-4,3.7-7.7,4.7-12.3c0.7-3.4,1.1-5.5,0-6.3c-1.3-1-3,0.9-7.3,1.3c-1.4,0.1-4.7,0.4-8.2-1.3
	c-0.9-0.5-3.8-2-5.5-5.3c-1.4-2.8-1.5-5.6-1.3-5.7c0.3-0.1,0.1,4.9,3.2,8.3c3.7,4,10.1,3.6,23,2.7c1.9-0.1,3.7-0.3,5.7-1.3
	c2.8-1.5,4.3-3.8,7-8c2.1-3.3,3.1-4.9,3.7-7.3c0.7-3,0.4-5.5,0-8.7c-0.3-2.2-0.5-3.9-1.3-6c-1.1-2.7-2.6-4.5-3.7-5.7"/>
<path class="st6" d="M149.3,184.7c-2.5-0.1-6.3-0.7-9.3-3.3c-6.1-5.2-3.1-12.9-7.7-16c-5.4-3.7-17.7,1.6-23.7,10.3
	c-0.9,1.3-6.5,9.8-3.3,19.3c0.3,1,2.6,7.5,8,10.7c2.6,1.5,4.4,1.3,5.7,3c2.1,2.9,0.3,7.9-1.8,11.8"/>
<g>
	<g>
		<path class="st8" d="M47.7,134.2c3.1-4.7,6.2,4.1,6,6.6c-0.4,5-5.4,10-10.5,8.4c-5.8-1.9-11-8.1-12.6-13.9
			c-4.1-14.6,17.6-17.3,27.5-14.9c16.7,4,28.8,20.9,35.3,35.8c0.5,1.1,3.4,0.3,2.9-0.8c-7.7-17.5-22.9-37.3-43.7-37.6
			c-9-0.1-25.7,2.9-25.4,14.8c0.2,9.5,12.2,22.9,22.4,17.9c5.6-2.7,8.8-9.7,6.1-15.5c-2.3-4.9-7.6-5.6-10.7-1
			C44.2,135.2,47.1,135.1,47.7,134.2L47.7,134.2z"/>
	</g>
</g>
<path class="st21" d="M188.6,230.4"/>
<path class="st21" d="M172.7,212.3"/>
<path class="st21" d="M181.5,274.3"/>
<path class="st21" d="M172.7,195.8"/>
<path class="st21" d="M178.8,225"/>
<path class="st22" d="M90.1,203.9c-2.2,0.2-5.5,0.6-8.9,2.8c-7.2,4.4-9,12.5-9.5,14.8c-0.3,1.3-0.8,3.6-0.5,6.6
	c0.1,1.3,0.6,6,3.6,10c4.8,6.3,13.1,6.7,15.4,6.8c2.2,0.1,10.5,0.4,17-5.4c1.5-1.3,2.4-2.5,3-3.2c0,0,0.9-1.3,1.7-2.7
	c3.8-7.5,1.7-15.4,1.7-15.4c-0.4-1.7-1.5-5.3-4.6-8.6C102.2,202.5,92.3,203.6,90.1,203.9z"/>
<g>
	<path class="st23" d="M104.3,228.9c-2.4,0.3-5.9,0.7-9.7,3c-7.8,4.8-9.8,13.6-10.3,16c-0.3,1.4-0.9,3.9-0.6,7.2
		c0.1,1.4,0.6,6.5,3.9,10.8c5.2,6.8,14.2,7.2,16.7,7.3c2.4,0.1,11.3,0.4,18.5-5.8c1.6-1.4,2.6-2.7,3.2-3.5c0,0,1-1.4,1.8-3
		c4.1-8.1,1.8-16.7,1.8-16.7c-0.5-1.8-1.6-5.8-5-9.3C117.5,227.4,106.7,228.6,104.3,228.9z"/>
</g>
<g>
	<path class="st24" d="M132,283c-2.4,0.3-5.9,0.8-9.6,3.1c-7.8,4.9-9.6,13.7-10.1,16.1c-0.3,1.4-0.8,3.9-0.5,7.2
		c0.1,1.4,0.7,6.5,4.1,10.8c5.3,6.7,14.2,7,16.8,7.1c2.4,0.1,11.3,0.3,18.4-6.1c1.6-1.4,2.6-2.7,3.2-3.5c0,0,1-1.4,1.8-3
		c4-8.1,1.6-16.7,1.6-16.7c-0.5-1.8-1.6-5.7-5.1-9.3C145.1,281.4,134.4,282.7,132,283z"/>
</g>
<g>
	<path class="st25" d="M162,260.7c-2.4,0.3-5.9,0.7-9.7,3c-7.8,4.8-9.8,13.6-10.3,16c-0.3,1.4-0.9,3.9-0.6,7.2
		c0.1,1.4,0.6,6.5,3.9,10.8c5.2,6.8,14.2,7.2,16.7,7.3c2.4,0.1,11.3,0.4,18.5-5.8c1.6-1.4,2.6-2.7,3.2-3.5c0,0,1-1.4,1.8-3
		c4.1-8.1,1.8-16.7,1.8-16.7c-0.5-1.8-1.6-5.8-5-9.3C175.2,259.2,164.4,260.4,162,260.7z"/>
</g>
<g>
	<path class="st26" d="M81,162.6c-2.4,0.3-5.9,0.7-9.7,3c-7.8,4.8-9.8,13.6-10.3,16c-0.3,1.4-0.9,3.9-0.6,7.2
		c0.1,1.4,0.6,6.5,3.9,10.8c5.2,6.8,14.2,7.2,16.7,7.3c2.4,0.1,11.3,0.4,18.5-5.8c1.6-1.4,2.6-2.7,3.2-3.5c0,0,1-1.4,1.8-3
		c4.1-8.1,1.8-16.7,1.8-16.7c-0.5-1.8-1.6-5.8-5-9.3C94.2,161.2,83.4,162.4,81,162.6z"/>
</g>
<g>
	<path class="st26" d="M111.4,167.2c-2.4,0.3-5.9,0.7-9.7,3c-7.8,4.8-9.8,13.6-10.3,16c-0.3,1.4-0.9,3.9-0.6,7.2
		c0.1,1.4,0.6,6.5,3.9,10.8c5.2,6.8,14.2,7.2,16.7,7.3c2.4,0.1,11.3,0.4,18.5-5.8c1.6-1.4,2.6-2.7,3.2-3.5c0,0,1-1.4,1.8-3
		c4.1-8.1,1.8-16.7,1.8-16.7c-0.5-1.8-1.6-5.8-5-9.3C124.5,165.8,113.8,167,111.4,167.2z"/>
</g>
<g>
	<path class="st27" d="M176.2,234.5c-2.4,0.3-5.9,0.7-9.7,3c-7.8,4.8-9.8,13.6-10.3,16c-0.3,1.4-0.9,3.9-0.6,7.2
		c0.1,1.4,0.6,6.5,3.9,10.8c5.2,6.8,14.2,7.2,16.7,7.3c2.4,0.1,11.3,0.4,18.5-5.8c1.6-1.4,2.6-2.7,3.2-3.5c0,0,1-1.4,1.8-3
		c4.1-8.1,1.8-16.7,1.8-16.7c-0.5-1.8-1.6-5.8-5-9.3C189.3,233,178.6,234.2,176.2,234.5z"/>
</g>
<g>
	<path class="st28" d="M185.3,198.6c-2.4,0.3-5.9,0.7-9.7,3c-7.8,4.8-9.8,13.6-10.3,16c-0.3,1.4-0.9,3.9-0.6,7.2
		c0.1,1.4,0.6,6.5,3.9,10.8c5.2,6.8,14.2,7.2,16.7,7.3c2.4,0.1,11.3,0.4,18.5-5.8c1.6-1.4,2.6-2.7,3.2-3.5c0,0,1-1.4,1.8-3
		c4.1-8.1,1.8-16.7,1.8-16.7c-0.5-1.8-1.6-5.8-5-9.3C198.5,197.2,187.7,198.4,185.3,198.6z"/>
</g>
<g>
	<path class="st24" d="M197.5,170.2c-2.2,0.2-5.4,0.6-8.7,2.7c-7.1,4.3-8.9,12.3-9.4,14.5c-0.3,1.3-0.8,3.5-0.5,6.5
		c0.1,1.2,0.6,5.9,3.5,9.8c4.7,6.1,12.8,6.5,15.1,6.6c2.1,0.1,10.3,0.4,16.7-5.3c1.4-1.3,2.4-2.5,2.9-3.2c0,0,0.9-1.3,1.6-2.7
		c3.7-7.3,1.7-15.1,1.7-15.1c-0.4-1.6-1.4-5.2-4.5-8.4c-4.5-4.7-10.3-5.3-12.5-5.5C200.7,169.8,198.6,170.1,197.5,170.2z"/>
</g>
<path class="st16" d="M132.8,152.4c-1.3,0.6-3.2,1.4-3.7,3.3c-0.4,1.5,0.4,2.9,0.7,3.3c2.9,2.3,6.4,2.6,8.7,1
	c0.2-0.1,2.6-1.9,2.3-4.7c0-0.1-0.3-2.2-2-3.3C136.6,150.7,134.1,151.8,132.8,152.4z"/>
<path class="st29" d="M73.6,171.8c-1.3,0.6-3.2,1.4-3.7,3.3c-0.4,1.5,0.4,2.9,0.7,3.3c2.9,2.3,6.4,2.6,8.7,1
	c0.2-0.1,2.6-1.9,2.3-4.7c0-0.1-0.3-2.2-2-3.3C77.5,170,74.9,171.2,73.6,171.8z"/>
<path class="st29" d="M81.5,214.2c-1.3,0.6-3.2,1.4-3.7,3.3c-0.4,1.5,0.4,2.9,0.7,3.3c2.9,2.3,6.4,2.6,8.7,1
	c0.2-0.1,2.6-1.9,2.3-4.7c0-0.1-0.3-2.2-2-3.3C85.4,212.5,82.8,213.6,81.5,214.2z"/>
<path class="st30" d="M115.9,203.2c-1.3,0.6-3.2,1.4-3.7,3.3c-0.4,1.5,0.4,2.9,0.7,3.3c2.9,2.3,6.4,2.6,8.7,1
	c0.2-0.1,2.6-1.9,2.3-4.7c0-0.1-0.3-2.2-2-3.3C119.8,201.5,117.2,202.6,115.9,203.2z"/>
<g>
	<path class="st31" d="M121.8,193.3c-2.4,0.3-5.9,0.7-9.7,3c-7.8,4.8-9.8,13.6-10.3,16c-0.3,1.4-0.9,3.9-0.6,7.2
		c0.1,1.4,0.6,6.5,3.9,10.8c5.2,6.8,14.2,7.2,16.7,7.3c2.4,0.1,11.3,0.4,18.5-5.8c1.6-1.4,2.6-2.7,3.2-3.5c0,0,1-1.4,1.8-3
		c4.1-8.1,1.8-16.7,1.8-16.7c-0.5-1.8-1.6-5.8-5-9.3C134.9,191.8,124.2,193,121.8,193.3z"/>
</g>
<g>
	<path class="st32" d="M111.4,259.8c-2.4,0.3-5.9,0.7-9.7,3c-7.8,4.8-9.8,13.6-10.3,16c-0.3,1.4-0.9,3.9-0.6,7.2
		c0.1,1.4,0.6,6.5,3.9,10.8c5.2,6.8,14.2,7.2,16.7,7.3c2.4,0.1,11.3,0.4,18.5-5.8c1.6-1.4,2.6-2.7,3.2-3.5c0,0,1-1.4,1.8-3
		c4.1-8.1,1.8-16.7,1.8-16.7c-0.5-1.8-1.6-5.8-5-9.3C124.5,258.3,113.8,259.5,111.4,259.8z"/>
</g>
<g>
	<path class="st33" d="M134.7,232.6c-2.4,0.3-5.9,0.7-9.7,3c-7.8,4.8-9.8,13.6-10.3,16c-0.3,1.4-0.9,3.9-0.6,7.2
		c0.1,1.4,0.6,6.5,3.9,10.8c5.2,6.8,14.2,7.2,16.7,7.3c2.4,0.1,11.3,0.4,18.5-5.8c1.6-1.4,2.6-2.7,3.2-3.5c0,0,1-1.4,1.8-3
		c4.1-8.1,1.8-16.7,1.8-16.7c-0.5-1.8-1.6-5.8-5-9.3C147.8,231.1,137.1,232.3,134.7,232.6z"/>
</g>
<g>
	<path class="st34" d="M155.5,173.7c-2.4,0.3-5.9,0.7-9.7,3c-7.8,4.8-9.8,13.6-10.3,16c-0.3,1.4-0.9,3.9-0.6,7.2
		c0.1,1.4,0.6,6.5,3.9,10.8c5.2,6.8,14.2,7.2,16.7,7.3c2.4,0.1,11.3,0.4,18.5-5.8c1.6-1.4,2.6-2.7,3.2-3.5c0,0,1-1.4,1.8-3
		c4.1-8.1,1.8-16.7,1.8-16.7c-0.5-1.8-1.6-5.8-5-9.3C168.7,172.2,158,173.4,155.5,173.7z"/>
</g>
<path class="st29" d="M115.9,199.8c-1.3,0.6-3.2,1.4-3.7,3.3c-0.4,1.5,0.4,2.9,0.7,3.3c2.9,2.3,6.4,2.6,8.7,1
	c0.2-0.1,2.6-1.9,2.3-4.7c0-0.1-0.3-2.2-2-3.3C119.8,198,117.2,199.2,115.9,199.8z"/>
<path class="st29" d="M146.2,190.2c-1.3,0.6-3.2,1.4-3.7,3.3c-0.4,1.5,0.4,2.9,0.7,3.3c2.9,2.3,6.4,2.6,8.7,1
	c0.2-0.1,2.6-1.9,2.3-4.7c0-0.1-0.3-2.2-2-3.3C150.1,188.5,147.5,189.6,146.2,190.2z"/>
<path class="st16" d="M173.5,157.2c-1.3,0.6-3.2,1.4-3.7,3.3c-0.4,1.5,0.4,2.9,0.7,3.3c2.9,2.3,6.4,2.6,8.7,1
	c0.2-0.1,2.6-1.9,2.3-4.7c0-0.1-0.3-2.2-2-3.3C177.4,155.5,174.8,156.6,173.5,157.2z"/>
<g>
	<path class="st35" d="M203.9,176.1c1.2,0,3,0,5-0.2c7.9-0.8,14.9-4.3,14.6-5.3c-0.2-0.7-3.3,0.5-8.3-0.8c-3.3-0.9-4-2-8.1-3.1
		c-3.7-1-5.9-0.9-5.9-1.3c0-0.6,11.3,1.3,21.8-3.4c10.2-4.6,15.3-13.4,19.9-21.8c2.4-4.4,4.8-8.8,3.1-11.1c-2.6-3.5-12.7,1-13.9-1.4
		c-0.9-1.8,4.2-5.5,8.4-9.9c10.6-11.3,16.9-29.6,11.3-36.4c-0.6-0.7-1.5-1.5-11.7-3.5c-13.3-2.6-20-3.7-26.8-3.3
		c-13.7,0.8-22.6,6.1-23.2,4.6c-0.7-1.5,4.9-6.8,11-10c5.6-2.9,9.5-3.1,9.5-4.1c-0.1-2.3-19.3-2.6-19.4-2.6c0,0,0,0-0.1,0
		c0,0,0,0,0,0c0,0-18.4,0.5-28.2,7.6c-4,2.9-6.3,6.4-6.3,6.4c-0.8,1.3-1.3,2.2-1.6,2.9c-0.7,1.4-7.8,15.7-9.5,15.1
		c-0.4-0.1-0.1-1.1-0.3-4c-0.2-2.6-0.5-2.8-1.1-6.7c-0.4-2.7-0.8-5-0.8-7.9c0-3.2,0.5-4.1,0.1-4.3c-1.5-0.9-12.2,10.8-17.3,22.8
		c-8.1,18.9-2.5,38.6,1.5,49.1"/>
</g>
<g>
	<path class="st26" d="M138.7,144.9c-2.4,0.3-5.9,0.7-9.7,3c-7.8,4.8-9.8,13.6-10.3,16c-0.3,1.4-0.9,3.9-0.6,7.2
		c0.1,1.4,0.6,6.5,3.9,10.8c5.2,6.8,14.2,7.2,16.7,7.3c2.4,0.1,11.3,0.4,18.5-5.8c1.6-1.4,2.6-2.7,3.2-3.5c0,0,1-1.4,1.8-3
		c4.1-8.1,1.8-16.7,1.8-16.7c-0.5-1.8-1.6-5.8-5-9.3C151.9,143.5,141.1,144.7,138.7,144.9z"/>
</g>
<g>
	<path class="st36" d="M177.1,151.3c-2.1,0.2-5.1,0.6-8.3,2.6c-6.7,4.1-8.4,11.6-8.9,13.7c-0.3,1.2-0.7,3.4-0.5,6.2
		c0.1,1.2,0.5,5.6,3.4,9.3c4.5,5.8,12.1,6.2,14.3,6.3c2,0.1,9.7,0.3,15.8-5c1.4-1.2,2.3-2.3,2.7-3c0,0,0.9-1.2,1.6-2.5
		c3.5-6.9,1.6-14.3,1.6-14.3c-0.4-1.5-1.4-5-4.3-8C188.4,150.1,179.1,151.1,177.1,151.3z"/>
</g>
<path class="st4" d="M150.9,145.6c1.1-1.6,2.7-4.2,3.7-7.7c0.2-0.6,0.8-2.9,0.9-6.6c0.1-4.7-0.7-8-0.9-9.4
	c-1.6-10.4,14.8-23.1,15.7-22.3c0.5,0.4-5.4,5.8-9.3,17c-1.8,5.2-3.8,13.1-2,14c1.4,0.7,4.4-3.2,6.7-5.7c4.7-5.3,8.1-7.1,29-18.7
	c27.9-15.5,31.3-17.5,31.7-17c0.8,1.2-15.9,13.5-20.7,17c-27.1,20-46.1,29.8-44.7,33c0.3,0.7,1.5,0.4,10,0.3
	c14.1-0.1,14.9,0.9,21.3,0c7.1-1,11.3-2.9,11.7-2c0.4,0.9-3.3,3.8-7,5.7c-4.5,2.3-8.1,2.8-22.7,3.7c-8.8,0.5-18.3,1-18.3,1l0,0"/>
<path class="st29" d="M131,155.6c-1.3,0.6-3.2,1.4-3.7,3.3c-0.4,1.5,0.4,2.9,0.7,3.3c2.9,2.3,6.4,2.6,8.7,1c0.2-0.1,2.6-1.9,2.3-4.7
	c0-0.1-0.3-2.2-2-3.3C134.9,153.9,132.3,155.1,131,155.6z"/>
<path class="st29" d="M104.9,176.1c-1.3,0.6-3.2,1.4-3.7,3.3c-0.4,1.5,0.4,2.9,0.7,3.3c2.9,2.3,6.4,2.6,8.7,1
	c0.2-0.1,2.6-1.9,2.3-4.7c0-0.1-0.3-2.2-2-3.3C108.7,174.3,106.2,175.5,104.9,176.1z"/>
<path class="st37" d="M168.5,158.6c-1.3,0.6-3.2,1.4-3.7,3.3c-0.4,1.5,0.4,2.9,0.7,3.3c2.9,2.3,6.4,2.6,8.7,1
	c0.2-0.1,2.6-1.9,2.3-4.7c0-0.1-0.3-2.2-2-3.3C172.4,156.9,169.8,158,168.5,158.6z"/>
<g>
	<path class="st38" d="M155.5,210.3c-2.4,0.3-5.9,0.7-9.7,3c-7.8,4.8-9.8,13.6-10.3,16c-0.3,1.4-0.9,3.9-0.6,7.2
		c0.1,1.4,0.6,6.5,3.9,10.8c5.2,6.8,14.2,7.2,16.7,7.3c2.4,0.1,11.3,0.4,18.5-5.8c1.6-1.4,2.6-2.7,3.2-3.5c0,0,1-1.4,1.8-3
		c4.1-8.1,1.8-16.7,1.8-16.7c-0.5-1.8-1.6-5.8-5-9.3C168.7,208.8,158,210,155.5,210.3z"/>
</g>
<path class="st4" d="M85,99c-0.2-1.7,0.3,3.4,0.5,5.1c0.5,3.9,1.5,6.8,2.2,8.6c0.4,1,1.6,4.1,3.9,7.8c0.8,1.2,1.5,2.3,2.1,3
	c2.2,2.9,2.2,2.2,4.2,4.9c0.4,0.6,0.6,0.8,0.8,0.8c1-0.1,1.8-5.3,1.5-8.9C99.1,108.6,85,99,85,99L85,99z"/>
<path class="st4" d="M173.8,110.1c0.9,0.2,1.7-1.1,5-6.1c4.1-6.3,4.4-6.8,4.9-8.2c0.8-2.2,1-4.1,1.4-7.9c0.5-4.5,0.7-6.8-0.2-7.3
	c-1.5-0.9-5.4,2.6-7.8,5.9c-1.4,2.1-2.3,5.1-4,11.2c-0.7,2.3-1.3,4.9-0.9,8.3C172.4,107.3,172.7,109.9,173.8,110.1z"/>
<path class="st4" d="M137.7,105.4c-2.8,0.6-3.8,7.8-3.3,12.7c0.5,5.5,2.9,9.4,4.3,11.6c4.5,7.4,9.7,8.9,12.3,11.7
	c0.1,0.1,0.3,0.3,0.5,0.3c0.7-0.2,0-4.3-0.4-6.7c-2.1-12.5-3.3-18.9-7-24.2C142.5,108.6,139.9,104.9,137.7,105.4z"/>
<path class="st4" d="M180.8,134c0.3,0.9,1.9,0.8,7.9,0.8c7.5-0.1,8.1-0.1,9.6-0.4c2.2-0.6,4-1.4,7.4-3.2c4-2.1,6-3.1,6-4.1
	c-0.1-1.8-5.2-3.1-9.2-3.2c-2.5-0.1-5.5,0.9-11.6,2.8c-2.3,0.7-4.8,1.6-7.4,3.8C182.4,131.3,180.4,132.9,180.8,134z"/>
<path class="st4" d="M205.6,117.9c0.2,1.3,2,1.3,8.7,1.6c8.4,0.4,9.1,0.5,10.7,0c2.6-0.7,4.6-1.9,8.6-4.2c4.7-2.8,7.1-4.2,7.1-5.7
	c0.1-2.6-5.4-5-10-5.4c-2.8-0.3-6.3,1-13.2,3.4c-2.7,0.9-5.6,2.1-8.7,5.1C207.7,114,205.4,116.3,205.6,117.9z"/>
<g>
	<g>
		<path class="st8" d="M33.4,113.3c3.3-5.8,7,3.9,7.5,6.5c0.7,3.9,0.4,7.9-1.3,11.6c-2.1,4.5-6.3,8-11.2,5.3c-2.8-1.5-5.2-4-7.2-6.5
			C12.9,120,5.1,98.1,22.5,92.2c27.4-9.3,47.2,20,57.3,40.8c3.7,7.7,7,15.6,9.5,23.7c0.4,1.1,3.2,0.4,2.9-0.8
			c-3.3-10.7-7.8-21.2-13.2-31c-7.5-13.8-18.1-28.7-33.5-34.1c-12.3-4.3-34.2-2.5-36.2,13.8c-1,8.5,2.8,17.6,7.5,24.5
			c3.4,4.9,9,11.4,15.6,10.7c8.8-0.9,12.6-11.8,11.6-19.4c-0.5-3.8-2.3-10.4-6.7-11.2c-2.8-0.5-5.3,1.6-6.6,3.9
			C29.9,114.4,32.8,114.3,33.4,113.3L33.4,113.3z"/>
	</g>
</g>
<g>
	<path class="st39" d="M104.3,134.1c-2.4,0.2-5.9,0.7-9.7,2.8c-7.8,4.5-9.8,12.7-10.3,15c-0.3,1.3-0.9,3.7-0.6,6.7
		c0.1,1.3,0.6,6.1,3.9,10.1c5.2,6.4,14.2,6.8,16.7,6.9c2.4,0.1,11.3,0.4,18.5-5.5c1.6-1.3,2.6-2.5,3.2-3.3c0,0,1-1.3,1.8-2.8
		c4.1-7.6,1.8-15.6,1.8-15.6c-0.5-1.7-1.6-5.4-5-8.7C117.5,132.8,106.7,133.9,104.3,134.1z"/>
</g>
<path class="st29" d="M94.3,147.6c-1.3,0.6-3.2,1.4-3.7,3.3c-0.4,1.5,0.4,2.9,0.7,3.3c2.9,2.3,6.4,2.6,8.7,1
	c0.2-0.1,2.6-1.9,2.3-4.7c0-0.1-0.3-2.2-2-3.3C98.2,145.9,95.6,147,94.3,147.6z"/>
<path class="st29" d="M144,221.1c-1.3,0.6-3.2,1.4-3.7,3.3c-0.4,1.5,0.4,2.9,0.7,3.3c2.9,2.3,6.4,2.6,8.7,1c0.2-0.1,2.6-1.9,2.3-4.7
	c0-0.1-0.3-2.2-2-3.3C147.9,219.4,145.3,220.5,144,221.1z"/>
<path class="st40" d="M83.7,63c-3.4,4.5-5.5,8.5-6.5,11.4c-3,8.6-3.3,12.8-3.4,15.6c-0.1,4.2-0.4,7.7-0.2,10.3"/>
<path class="st41" d="M193.4,67.1c-6.9,1-12.5,2.3-16.6,3.3c-8.1,2.1-10.2,3.3-11.9,4.6c-4.5,3.7-6,9-6.6,11.9"/>
<path class="st41" d="M135.7,82.3c-3.1,5.3-5.4,9.9-7,13.2c-3.2,6.7-3.6,8.7-3.7,10.5c-0.2,4.9,2,8.3,3.5,10.1"/>
<path class="st40" d="M62.1,130.9c1.2,5.1,2.5,9.3,3.5,12.2c2.1,6,3.1,7.5,4.3,8.7c3.2,3.2,7.6,4,10,4.3"/>
<path class="st40" d="M132.5,23.3c-4.2,3.3-9.6,8.2-14.6,15.2c-3.9,5.5-6.2,10.6-8.6,15.9c-2.4,5.3-4.2,9.9-5.3,13.2"/>
<path class="st41" d="M236.3,80.7c-6.8-1.3-12.6-2-16.7-2.3c-8.3-0.7-10.7-0.3-12.8,0.5c-5.5,2-8.6,6.5-10.2,9.1"/>
<path class="st41" d="M210.5,159c6.2-3.1,11.2-6,14.8-8.2c7.1-4.4,8.8-6.2,9.9-8c3.2-4.9,3-10.4,2.7-13.4"/>
<g>
	<path class="st36" d="M138.7,259.4c-2.4,0.3-5.9,0.7-9.7,3c-7.8,4.8-9.8,13.6-10.3,16c-0.3,1.4-0.9,3.9-0.6,7.2
		c0.1,1.4,0.6,6.5,3.9,10.8c5.2,6.8,14.2,7.2,16.7,7.3c2.4,0.1,11.3,0.4,18.5-5.8c1.6-1.4,2.6-2.7,3.2-3.5c0,0,1-1.4,1.8-3
		c4.1-8.1,1.8-16.7,1.8-16.7c-0.5-1.8-1.6-5.8-5-9.3C151.9,257.9,141.1,259.1,138.7,259.4z"/>
</g>
<path class="st42" d="M397.2,32.6c-4.2,3.3-9.6,8.2-14.6,15.2c-3.9,5.5-6.2,10.6-8.6,15.9c-2.4,5.3-4.2,9.9-5.3,13.2"/>
<path class="st42" d="M347.8,72.2c-3.4,4.5-5.5,8.5-6.5,11.4c-3,8.6-3.3,12.8-3.4,15.6c-0.1,4.2-0.4,7.7-0.2,10.3"/>
<path class="st42" d="M323.7,139.1c1.2,5.1,2.5,9.3,3.5,12.2c2.1,6,3.1,7.5,4.3,8.7c3.2,3.2,7.6,4,10,4.3"/>
<path class="st43" d="M451.6,72c-6.4,1-11.6,2.3-15.4,3.3c-7.6,2.1-9.5,3.3-11.1,4.6c-4.2,3.7-5.6,9-6.2,11.9"/>
<path class="st43" d="M395,90c-3.1,5.3-5.4,9.9-7,13.2c-3.2,6.7-3.6,8.7-3.7,10.5c-0.2,4.9,2,8.3,3.5,10.1"/>
<path class="st43" d="M500.3,87.6c-6.8-1.3-12.6-2-16.7-2.3c-8.3-0.7-10.7-0.3-12.8,0.5c-5.5,2-8.6,6.5-10.2,9.1"/>
<path class="st43" d="M469,165.9c6.2-3.1,11.2-6,14.8-8.2c7.1-4.4,8.8-6.2,9.9-8c3.2-4.9,3-10.4,2.7-13.4"/>
<path class="st16" d="M408.9,225.9c-1.3,0.6-3.2,1.4-3.7,3.3c-0.4,1.5,0.4,2.9,0.7,3.3c2.9,2.3,6.4,2.6,8.7,1
	c0.2-0.1,2.6-1.9,2.3-4.7c0-0.1-0.3-2.2-2-3.3C412.8,224.2,410.2,225.4,408.9,225.9z"/>
</svg>
