<?xml version="1.0" encoding="utf-8"?>
<!-- Generator: Adobe Illustrator 22.1.0, SVG Export Plug-In . SVG Version: 6.00 Build 0)  -->
<svg version="1.1" id="Calque_1" xmlns="http://www.w3.org/2000/svg" xmlns:xlink="http://www.w3.org/1999/xlink" x="0px" y="0px"
	 viewBox="0 0 465.3 304" style="enable-background:new 0 0 465.3 304;" xml:space="preserve">
<style type="text/css">
	.st0{fill:none;stroke:#000000;stroke-miterlimit:10;}
	.st1{fill:#223C1D;stroke:#000000;stroke-miterlimit:10;}
	.st2{fill:#235627;}
	.st3{fill:#2DAA57;}
	.st4{fill:#E73C2B;}
	.st5{fill:#E73E2A;}
	.st6{fill:none;stroke:#FFFFFF;stroke-miterlimit:10;}
	.st7{fill:#B9CE00;stroke:#747D25;stroke-miterlimit:10;}
	.st8{fill:#B9CE00;}
	.st9{fill:#747D25;}
	.st10{fill:#D8D031;}
	.st11{fill:#E6E460;}
	.st12{fill:#69812A;}
	.st13{fill:#953A8E;stroke:#501E53;stroke-miterlimit:10;}
	.st14{fill:#953A8E;}
	.st15{fill:#501E53;}
	.st16{fill:#AB63A4;}
	.st17{fill:#AA64A5;}
</style>
<path class="st0" d="M-101.7,475.2"/>
<path class="st0" d="M-286.3,89.3"/>
<path class="st0" d="M-153.7-8.7"/>
<path class="st0" d="M-69.5,184.5"/>
<path class="st0" d="M119,61"/>
<path class="st0" d="M203,38.5"/>
<line class="st0" x1="136.2" y1="-11.6" x2="136.2" y2="-11.6"/>
<path class="st0" d="M104-67"/>
<path class="st0" d="M-74.3,344.3"/>
<path class="st1" d="M384,447"/>
<path class="st0" d="M352.5,332.5"/>
<path class="st2" d="M425.1,435.8"/>
<path class="st2" d="M419.1,412.8"/>
<path class="st2" d="M386.2,396.7"/>
<path class="st2" d="M408.4,434.4"/>
<path class="st2" d="M382.2,191.1"/>
<path class="st2" d="M366.3,173"/>
<path class="st2" d="M375.1,234.9"/>
<path class="st2" d="M366.3,156.4"/>
<path class="st2" d="M372.5,185.7"/>
<path class="st3" d="M425.2,381.5"/>
<path class="st4" d="M395.7,434.5c1.6,0.2,3.2,0.3,4.8,0.5"/>
<path class="st5" d="M10.1,495.6"/>
<path class="st6" d="M97,104c-1.5-1.1-1.1-2.6-2.7-5.3c0,0-1.8-3.1-5.7-5.7c-6.4-4.3-18.7-2.8-26.3,4.3c-0.9,0.9-8.1,7.6-7.7,16
	c0.2,3.8,1.9,6.6,0.3,8.3c-1.6,1.8-4.7,0.1-8.3,0.3c-7.6,0.5-16.9,9.4-17,20c-0.1,8.5,5.6,15.5,11.7,18.7
	c10.3,5.3,23.2,0.2,23.3,0.7c0.1,0.4-11.8,0.3-19,7.7c-5.3,5.4-7.8,14.4-5.3,22.7c1.5,5.3,6.2,12.7,12.7,14.3c1.8,0.5,4,0.5,4.7,2
	c0.8,1.9-1.8,3.7-2.7,8c-0.2,0.9-0.7,3.8,0.3,7c1.6,4.6,5.5,7,6,7.3c2.7,1.6,4.1,1.1,4.7,2.3c1,2.2-2.8,4.3-4,8.7
	c-1.8,6.2,2.7,13.4,6.7,17c1.5,1.4,5.1,4.7,10.3,5.3c3,0.4,5.8-0.2,6.7,1.3c0.6,1.1-0.5,2.2-0.7,4.7c-0.1,2.4,0.8,4.2,1.7,6
	c2.3,4.6,10.1,13.1,19,12.3c6-0.5,12.7-5.3,12.7-5.3c0,0,3.6-2.3,6.7-5.3c3-2.9,3.5-4.3,3.7-5c0.8-2.7-0.5-3.9,0.3-5.3
	c1.3-2.4,5.6-0.8,10.3-2c6.4-1.6,10.4-6.3,14-10.7c2.9-3.4,4.6-5.6,4.7-8.7c0.1-3.5-2.1-5.1-1-7c0.9-1.5,2.6-1.2,7.3-4.3
	c1.4-0.9,8.3-5.6,10.7-13c0,0,1.1-3.5-1-18.7c0,0,4.5-4.2,7-8.7c2.5-4.5,2.6-9.1,2.7-11c0.1-6.5-2.2-8.2-0.7-11.7c1.4-3,3.3-2.2,6-6
	c2.6-3.6,3-7.5,3.3-10.7c0.3-2.5,0.6-5.3-0.3-8.7c-0.4-1.3-1.8-6.4-6.3-10c-4.8-3.7-7.7-1.7-11-5.3c-2.7-3-1.2-5-4-9.3
	c-2.9-4.5-7.2-6.5-9.7-7.7c-2-0.9-8.6-4-16-2.3c-6.3,1.4-8.7,5.2-12.3,3.7c-0.5-0.2-0.9-0.5-4.6-4.6c-5.2-5.7-4.7-5.5-5.4-6.1
	c-4.4-3.3-11-2.1-15.7-1.3C101.6,103.9,99.1,105.6,97,104z"/>
<path class="st6" d="M62.3,127.7"/>
<path class="st6" d="M127,131.7c-2.4,0.3-5.9,0.7-9.7,3c-7.8,4.8-9.8,13.6-10.3,16c-0.3,1.4-0.9,3.9-0.6,7.2
	c0.1,1.4,0.6,6.5,3.9,10.8c5.2,6.8,14.2,7.2,16.7,7.3c2.4,0.1,11.3,0.4,18.5-5.8c1.6-1.4,2.6-2.7,3.2-3.5c0,0,1-1.4,1.8-3
	c4.1-8.1,1.8-16.7,1.8-16.7c-0.5-1.8-1.6-5.8-5-9.3C140.2,130.2,129.4,131.4,127,131.7z"/>
<path class="st6" d="M102.3,158.7c-2.5-0.2-6.3-0.1-10.7,1.3c-2.1,0.7-10.8,3.5-15.3,12.3c-0.7,1.4-6.1,12.1-0.3,21.7
	c5.1,8.5,15,9.7,17.7,10c7.4,0.9,13.2-1.8,18-4c3.9-1.8,7-3.2,9.7-6.7c4.2-5.5,3.9-12,3.7-14.3"/>
<path class="st6" d="M103.5,203.7c-0.1,1.7-0.3,4-1,6.7c-0.9,3.4-2,5.8-3,7.7c-2.5,4.9-3.7,7.4-6.3,9c-2,1.2-3.3,1.2-3.7,2.3
	c-0.5,1.9,2.4,4.4,4,5.7c0.4,0.4,2.2,1.8,5,3c0.9,0.4,3.2,1.3,6.3,1.7c0.6,0.1,2.6,0.3,5.3,0c2.1-0.2,6.8-0.8,11.7-4
	c3.1-2.1,4.9-4.3,5.7-5.3c3-4,3.7-7.7,4.7-12.3c0.7-3.4,1.1-5.5,0-6.3c-1.3-1-3,0.9-7.3,1.3c-1.4,0.1-4.7,0.4-8.2-1.3
	c-0.9-0.5-3.8-2-5.5-5.3c-1.4-2.8-1.5-5.6-1.3-5.7c0.3-0.1,0.1,4.9,3.2,8.3c3.7,4,10.1,3.6,23,2.7c1.9-0.1,3.7-0.3,5.7-1.3
	c2.8-1.5,4.3-3.8,7-8c2.1-3.3,3.1-4.9,3.7-7.3c0.7-3,0.4-5.5,0-8.7c-0.3-2.2-0.5-3.9-1.3-6c-1.1-2.7-2.6-4.5-3.7-5.7"/>
<path class="st6" d="M105.7,145.3c-2.5-0.1-6.3-0.7-9.3-3.3c-6.1-5.2-3.1-12.9-7.7-16c-5.4-3.7-17.7,1.6-23.7,10.3
	c-0.9,1.3-6.5,9.8-3.3,19.3c0.3,1,2.6,7.5,8,10.7c2.6,1.5,4.4,1.3,5.7,3c2.1,2.9,0.3,7.9-1.8,11.8"/>
<path class="st7" d="M283.7,168.5c-2.2,0.2-5.5,0.6-8.9,2.8c-7.2,4.4-9,12.5-9.5,14.8c-0.3,1.3-0.8,3.6-0.5,6.6
	c0.1,1.3,0.6,6,3.6,10c4.8,6.3,13.1,6.7,15.4,6.8c2.2,0.1,10.5,0.4,17-5.4c1.5-1.3,2.4-2.5,3-3.2c0,0,0.9-1.3,1.7-2.7
	c3.8-7.5,1.7-15.4,1.7-15.4c-0.4-1.7-1.5-5.3-4.6-8.6C295.8,167.2,285.9,168.3,283.7,168.5z"/>
<g>
	<path class="st8" d="M298,189.6c-2.4,0.3-5.9,0.7-9.7,3c-7.8,4.8-9.8,13.6-10.3,16c-0.3,1.4-0.9,3.9-0.6,7.2
		c0.1,1.4,0.6,6.5,3.9,10.8c5.2,6.8,14.2,7.2,16.7,7.3c2.4,0.1,11.3,0.4,18.5-5.8c1.6-1.4,2.6-2.7,3.2-3.5c0,0,1-1.4,1.8-3
		c4.1-8.1,1.8-16.7,1.8-16.7c-0.5-1.8-1.6-5.8-5-9.3C311.1,188.1,300.4,189.3,298,189.6z"/>
	<g>
		<path class="st9" d="M298.6,189c-10.8,1.3-18.7,7.5-21.7,18.1c-2.9,10.6,0.7,22.2,11.8,25.9c18.4,6.1,41-7.2,36-28.4
			C321.9,192.3,310.1,187.8,298.6,189c-0.7,0.1-3.2,1.3-1.3,1.1c11-1.2,21.9,3.8,24.6,15.3c3.2,13.7-5.8,27.4-20.3,28
			c-10.6,0.4-20.5-4.7-22.5-15.9c-2.1-12.1,5.4-25.9,18.2-27.4C298,190,300.5,188.8,298.6,189z"/>
	</g>
</g>
<g>
	<path class="st8" d="M325.9,243.7c-2.4,0.3-5.9,0.7-9.7,3c-7.8,4.8-9.8,13.6-10.3,16c-0.3,1.4-0.9,3.9-0.6,7.2
		c0.1,1.4,0.6,6.5,3.9,10.8c5.2,6.8,14.2,7.2,16.7,7.3c2.4,0.1,11.3,0.4,18.5-5.8c1.6-1.4,2.6-2.7,3.2-3.5c0,0,1-1.4,1.8-3
		c4.1-8.1,1.8-16.7,1.8-16.7c-0.5-1.8-1.6-5.8-5-9.3C339,242.2,328.3,243.4,325.9,243.7z"/>
	<g>
		<path class="st9" d="M326.1,243c-11,1.3-18.7,8.2-21.4,18.9c-2.7,10.8,1.5,22.2,12.7,25.6c18.5,5.7,40.3-7.8,35.3-28.9
			C349.7,246.2,337.7,241.7,326.1,243c-1.3,0.1-2.5,1.7-0.4,1.4c10.9-1.2,21.7,4,24.2,15.4c3,13.9-6.4,26.9-20.8,27.4
			c-10.8,0.4-20.7-5.1-22.2-16.6c-1.6-12.2,6.2-24.8,18.8-26.3C327,244.2,328.1,242.7,326.1,243z"/>
	</g>
</g>
<g>
	<path class="st8" d="M355.7,221.4c-2.4,0.3-5.9,0.7-9.7,3c-7.8,4.8-9.8,13.6-10.3,16c-0.3,1.4-0.9,3.9-0.6,7.2
		c0.1,1.4,0.6,6.5,3.9,10.8c5.2,6.8,14.2,7.2,16.7,7.3c2.4,0.1,11.3,0.4,18.5-5.8c1.6-1.4,2.6-2.7,3.2-3.5c0,0,1-1.4,1.8-3
		c4.1-8.1,1.8-16.7,1.8-16.7c-0.5-1.8-1.6-5.8-5-9.3C368.8,219.9,358.1,221.1,355.7,221.4z"/>
	<g>
		<path class="st9" d="M355.9,220.7c-10.9,1.3-18.7,8.1-21.4,18.8c-2.7,10.8,1.5,22.2,12.7,25.6c18.5,5.7,40.3-7.7,35.3-28.8
			C379.5,223.9,367.5,219.5,355.9,220.7c-1.3,0.1-2.5,1.5-0.5,1.3c11-1.2,21.7,4,24.2,15.5c3,13.9-6.3,27-20.7,27.5
			c-10.9,0.4-20.7-5.1-22.3-16.6c-1.6-12.2,6.2-24.9,18.8-26.4C356.7,221.9,357.9,220.5,355.9,220.7z"/>
	</g>
</g>
<g>
	<path class="st8" d="M274.7,123.3c-2.4,0.3-5.9,0.7-9.7,3c-7.8,4.8-9.8,13.6-10.3,16c-0.3,1.4-0.9,3.9-0.6,7.2
		c0.1,1.4,0.6,6.5,3.9,10.8c5.2,6.8,14.2,7.2,16.7,7.3c2.4,0.1,11.3,0.4,18.5-5.8c1.6-1.4,2.6-2.7,3.2-3.5c0,0,1-1.4,1.8-3
		c4.1-8.1,1.8-16.7,1.8-16.7c-0.5-1.8-1.6-5.8-5-9.3C287.8,121.9,277.1,123,274.7,123.3z"/>
	<g>
		<path class="st9" d="M274,122.3c-11.4,1.3-19.1,8.3-21.8,19.4c-2.6,11.2,2.5,22.2,13.8,25.6c8.3,2.5,18.5,1.9,26-2.6
			c9.2-5.5,13.1-16.9,10.2-27C298.6,125.2,285.8,121,274,122.3c-3.4,0.4-0.9,2.3,1.2,2c10.8-1.2,20.7,4.6,22.5,15.9
			c2.1,13.2-6.6,25.5-20.2,26.4c-10.8,0.7-20.2-5.7-21-17c-0.9-11.7,6.5-23.8,18.7-25.3C278.6,123.9,276.2,122,274,122.3z"/>
	</g>
</g>
<g>
	<path class="st8" d="M298,94.8c-2.4,0.3-5.9,0.7-9.7,3c-7.8,4.8-9.8,13.6-10.3,16c-0.3,1.4-0.9,3.9-0.6,7.2
		c0.1,1.4,0.6,6.5,3.9,10.8c5.2,6.8,14.2,7.2,16.7,7.3c2.4,0.1,11.3,0.4,18.5-5.8c1.6-1.4,2.6-2.7,3.2-3.5c0,0,1-1.4,1.8-3
		c4.1-8.1,1.8-16.7,1.8-16.7c-0.5-1.8-1.6-5.8-5-9.3C311.1,93.4,300.4,94.6,298,94.8z"/>
	<g>
		<path class="st9" d="M298.2,94.2c-10.8,1.3-18.6,7.9-21.4,18.5c-2.8,10.6,1,22,12,25.7c18.5,6.2,40.9-7.4,35.9-28.6
			c-2.9-12.2-14.7-16.9-26.2-15.6c-0.8,0.1-3.1,1.5-1.2,1.3c11-1.2,21.8,3.6,24.5,15.2c3.2,13.7-5.8,27.1-20.2,27.8
			c-10.8,0.6-20.9-4.8-22.7-16.2c-1.9-12.3,5.9-25.3,18.7-26.9C299,95.3,300.3,94,298.2,94.2z"/>
	</g>
</g>
<g>
	<path class="st8" d="M305,127.9c-2.4,0.3-5.9,0.7-9.7,3c-7.8,4.8-9.8,13.6-10.3,16c-0.3,1.4-0.9,3.9-0.6,7.2
		c0.1,1.4,0.6,6.5,3.9,10.8c5.2,6.8,14.2,7.2,16.7,7.3c2.4,0.1,11.3,0.4,18.5-5.8c1.6-1.4,2.6-2.7,3.2-3.5c0,0,1-1.4,1.8-3
		c4.1-8.1,1.8-16.7,1.8-16.7c-0.5-1.8-1.6-5.8-5-9.3C318.2,126.4,307.4,127.6,305,127.9z"/>
	<g>
		<path class="st9" d="M305.1,126.9c-11.1,1.3-18.6,8.4-21.4,19.1c-2.6,10.5,1.2,21.8,11.9,25.7c18.8,6.8,41.2-7.4,36.1-28.8
			C328.8,130.5,316.8,125.6,305.1,126.9c-1.6,0.2-2.2,2.3-0.3,2.1c10.9-1.2,21.6,3.6,24.1,15.1c3,13.7-6.3,26.2-20.3,27.1
			c-10.9,0.7-21.2-4.5-22.7-16.2c-1.6-12.2,6.4-24.5,18.9-26C306.5,128.8,307.1,126.6,305.1,126.9z"/>
	</g>
</g>
<g>
	<path class="st8" d="M369.8,195.2c-2.4,0.3-5.9,0.7-9.7,3c-7.8,4.8-9.8,13.6-10.3,16c-0.3,1.4-0.9,3.9-0.6,7.2
		c0.1,1.4,0.6,6.5,3.9,10.8c5.2,6.8,14.2,7.2,16.7,7.3c2.4,0.1,11.3,0.4,18.5-5.8c1.6-1.4,2.6-2.7,3.2-3.5c0,0,1-1.4,1.8-3
		c4.1-8.1,1.8-16.7,1.8-16.7c-0.5-1.8-1.6-5.8-5-9.3C383,193.7,372.2,194.9,369.8,195.2z"/>
	<g>
		<path class="st9" d="M369.9,194.1c-11.1,1.3-18.7,8.4-21.3,19.2c-2.6,10.5,1.2,21.8,11.9,25.7c18.9,6.9,41.2-7.4,36.1-28.9
			C393.6,197.8,381.6,192.8,369.9,194.1c-1.7,0.2-2.2,2.5-0.2,2.2c10.8-1.2,21.6,3.5,24.1,15c3,13.7-6.4,26.1-20.3,27
			c-10.8,0.7-21.2-4.5-22.7-16.2c-1.6-12.2,6.4-24.4,18.9-25.9C371.3,196.1,371.9,193.8,369.9,194.1z"/>
	</g>
</g>
<g>
	<path class="st8" d="M379,159.3c-2.4,0.3-5.9,0.7-9.7,3c-7.8,4.8-9.8,13.6-10.3,16c-0.3,1.4-0.9,3.9-0.6,7.2
		c0.1,1.4,0.6,6.5,3.9,10.8c5.2,6.8,14.2,7.2,16.7,7.3c2.4,0.1,11.3,0.4,18.5-5.8c1.6-1.4,2.6-2.7,3.2-3.5c0,0,1-1.4,1.8-3
		c4.1-8.1,1.8-16.7,1.8-16.7c-0.5-1.8-1.6-5.8-5-9.3C392.1,157.9,381.4,159,379,159.3z"/>
	<g>
		<path class="st9" d="M379.6,158.7c-10.8,1.3-18.7,7.5-21.6,18.2c-2.8,10.4,0.5,21.9,11.4,25.8c18.5,6.6,41.5-6.9,36.5-28.3
			C402.9,162.1,391.1,157.5,379.6,158.7c-0.8,0.1-3.1,1.4-1.2,1.2c11-1.2,21.8,3.7,24.5,15.2c3.1,13.5-5.5,26.9-19.7,27.9
			c-10.7,0.7-21.1-4.4-23.1-15.8c-2.1-12.1,5.5-25.8,18.2-27.3C379.1,159.8,381.5,158.5,379.6,158.7z"/>
	</g>
</g>
<g>
	<path class="st8" d="M391.2,130.9c-2.2,0.2-5.4,0.6-8.7,2.7c-7.1,4.3-8.9,12.3-9.4,14.5c-0.3,1.3-0.8,3.5-0.5,6.5
		c0.1,1.2,0.6,5.9,3.5,9.8c4.7,6.1,12.8,6.5,15.1,6.6c2.1,0.1,10.3,0.4,16.7-5.3c1.4-1.3,2.4-2.5,2.9-3.2c0,0,0.9-1.3,1.6-2.7
		c3.7-7.3,1.7-15.1,1.7-15.1c-0.4-1.6-1.4-5.2-4.5-8.4c-4.5-4.7-10.3-5.3-12.5-5.5C394.4,130.5,392.2,130.8,391.2,130.9z"/>
	<g>
		<path class="st9" d="M391.3,129.8c-10.2,1.2-17.1,7.7-19.5,17.6c-2.3,9.2,1,19.2,10.3,22.9c17.1,6.8,38.2-6.2,33.5-26
			C412.8,133.2,401.9,128.7,391.3,129.8c-1.6,0.2-2.2,2.3-0.3,2.1c9.8-1.1,19.5,3.4,21.7,13.7c2.7,12.7-6.2,23.9-19.1,24.3
			c-9.5,0.3-18.1-4.4-19.6-14.5c-1.5-11,5.6-22.2,16.9-23.5C392.6,131.7,393.3,129.6,391.3,129.8z"/>
	</g>
</g>
<path class="st10" d="M326.4,113.1c-1.3,0.6-3.2,1.4-3.7,3.3c-0.4,1.5,0.4,2.9,0.7,3.3c2.9,2.3,6.4,2.6,8.7,1
	c0.2-0.1,2.6-1.9,2.3-4.7c0-0.1-0.3-2.2-2-3.3C330.3,111.3,327.7,112.5,326.4,113.1z"/>
<path class="st10" d="M292.6,101.9c-1.3,0.6-3.2,1.4-3.7,3.3c-0.4,1.5,0.4,2.9,0.7,3.3c2.9,2.3,6.4,2.6,8.7,1
	c0.2-0.1,2.6-1.9,2.3-4.7c0-0.1-0.3-2.2-2-3.3C296.5,100.2,293.9,101.4,292.6,101.9z"/>
<path class="st10" d="M267.3,132.4c-1.3,0.6-3.2,1.4-3.7,3.3c-0.4,1.5,0.4,2.9,0.7,3.3c2.9,2.3,6.4,2.6,8.7,1
	c0.2-0.1,2.6-1.9,2.3-4.7c0-0.1-0.3-2.2-2-3.3C271.1,130.7,268.6,131.8,267.3,132.4z"/>
<path class="st10" d="M275.2,174.9c-1.3,0.6-3.2,1.4-3.7,3.3c-0.4,1.5,0.4,2.9,0.7,3.3c2.9,2.3,6.4,2.6,8.7,1
	c0.2-0.1,2.6-1.9,2.3-4.7c0-0.1-0.3-2.2-2-3.3C279.1,173.2,276.5,174.3,275.2,174.9z"/>
<path class="st11" d="M309.6,163.9c-1.3,0.6-3.2,1.4-3.7,3.3c-0.4,1.5,0.4,2.9,0.7,3.3c2.9,2.3,6.4,2.6,8.7,1
	c0.2-0.1,2.6-1.9,2.3-4.7c0-0.1-0.3-2.2-2-3.3C313.4,162.1,310.9,163.3,309.6,163.9z"/>
<g>
	<path class="st8" d="M315.4,154c-2.4,0.3-5.9,0.7-9.7,3c-7.8,4.8-9.8,13.6-10.3,16c-0.3,1.4-0.9,3.9-0.6,7.2
		c0.1,1.4,0.6,6.5,3.9,10.8c5.2,6.8,14.2,7.2,16.7,7.3c2.4,0.1,11.3,0.4,18.5-5.8c1.6-1.4,2.6-2.7,3.2-3.5c0,0,1-1.4,1.8-3
		c4.1-8.1,1.8-16.7,1.8-16.7c-0.5-1.8-1.6-5.8-5-9.3C328.5,152.5,317.8,153.7,315.4,154z"/>
	<g>
		<path class="st9" d="M315.6,153.2c-11,1.3-18.7,8.3-21.4,19c-2.7,10.6,1.3,21.9,12.3,25.6c18.6,6.2,40.8-7.6,35.7-28.8
			C339.2,156.5,327.2,151.9,315.6,153.2c-1.4,0.2-2.4,1.9-0.4,1.6c10.9-1.2,21.7,3.8,24.2,15.3c3,13.7-6.1,26.5-20.2,27.3
			c-10.9,0.7-21.2-4.8-22.8-16.5c-1.6-12.2,6.2-24.7,18.8-26.2C316.6,154.6,317.6,152.9,315.6,153.2z"/>
	</g>
</g>
<g>
	<path class="st8" d="M305,220.4c-2.4,0.3-5.9,0.7-9.7,3c-7.8,4.8-9.8,13.6-10.3,16c-0.3,1.4-0.9,3.9-0.6,7.2
		c0.1,1.4,0.6,6.5,3.9,10.8c5.2,6.8,14.2,7.2,16.7,7.3c2.4,0.1,11.3,0.4,18.5-5.8c1.6-1.4,2.6-2.7,3.2-3.5c0,0,1-1.4,1.8-3
		c4.1-8.1,1.8-16.7,1.8-16.7c-0.5-1.8-1.6-5.8-5-9.3C318.2,219,307.4,220.2,305,220.4z"/>
	<g>
		<path class="st9" d="M302.8,219.4c-12,1.4-19.8,10.9-20.7,22.7c-0.8,11,6.1,19,16.2,22.3c8.8,2.8,19.4,2.1,26.7-3.9
			c8.3-6.8,10.6-19.7,5.4-29.1C325.3,221.9,313,218.2,302.8,219.4c0.4,0,2.9,2.3,4.3,2.2c6.9-0.8,14,0.4,18.1,6.7
			c2.3,3.6,3.4,7.6,3.4,11.8c0.2,13-9.4,22.7-22.2,23.6c-5.3,0.4-11.1-0.3-15-4.4c-4.1-4.3-5.4-10.9-4.6-16.6
			c1.6-11.2,8.7-19.8,20.3-21.2C306.8,221.6,304.2,219.2,302.8,219.4z"/>
	</g>
</g>
<g>
	<path class="st8" d="M330.3,195.2c-2.4,0.3-5.9,0.7-9.7,3c-7.8,4.8-9.8,13.6-10.3,16c-0.3,1.4-0.9,3.9-0.6,7.2
		c0.1,1.4,0.6,6.5,3.9,10.8c5.2,6.8,14.2,7.2,16.7,7.3c2.4,0.1,11.3,0.4,18.5-5.8c1.6-1.4,2.6-2.7,3.2-3.5c0,0,1-1.4,1.8-3
		c4.1-8.1,1.8-16.7,1.8-16.7c-0.5-1.8-1.6-5.8-5-9.3C343.5,193.7,332.7,194.9,330.3,195.2z"/>
	<g>
		<path class="st9" d="M330.5,194.3c-11,1.3-18.7,8.3-21.4,19c-2.6,10.4,1.2,21.7,11.9,25.5c18.7,6.7,41.3-7.3,36.1-28.7
			C354.1,197.7,342.1,193,330.5,194.3c-1.5,0.2-2.3,2-0.3,1.8c10.9-1.2,21.6,3.7,24.2,15.3c3,13.7-6.2,26.4-20.2,27.2
			c-10.9,0.7-21.2-4.7-22.8-16.4c-1.6-12.2,6.3-24.6,18.8-26.1C331.6,195.9,332.5,194,330.5,194.3z"/>
	</g>
</g>
<g>
	<path class="st8" d="M349.2,134.4c-2.4,0.3-5.9,0.7-9.7,3c-7.8,4.8-9.8,13.6-10.3,16c-0.3,1.4-0.9,3.9-0.6,7.2
		c0.1,1.4,0.6,6.5,3.9,10.8c5.2,6.8,14.2,7.2,16.7,7.3c2.4,0.1,11.3,0.4,18.5-5.8c1.6-1.4,2.6-2.7,3.2-3.5c0,0,1-1.4,1.8-3
		c4.1-8.1,1.8-16.7,1.8-16.7c-0.5-1.8-1.6-5.8-5-9.3C362.3,132.9,351.6,134.1,349.2,134.4z"/>
	<g>
		<path class="st9" d="M349.4,133.5c-11,1.3-18.7,8.3-21.4,19c-2.7,10.6,1.3,21.9,12.3,25.6c18.6,6.2,40.8-7.6,35.7-28.8
			C373,136.9,361,132.3,349.4,133.5c-1.4,0.2-2.4,1.9-0.4,1.6c10.9-1.2,21.7,3.8,24.2,15.3c3,13.7-6.1,26.5-20.2,27.3
			c-10.9,0.7-21.2-4.8-22.8-16.5c-1.6-12.2,6.2-24.7,18.8-26.2C350.4,135,351.4,133.3,349.4,133.5z"/>
	</g>
</g>
<path class="st10" d="M309.6,160.4c-1.3,0.6-3.2,1.4-3.7,3.3c-0.4,1.5,0.4,2.9,0.7,3.3c2.9,2.3,6.4,2.6,8.7,1
	c0.2-0.1,2.6-1.9,2.3-4.7c0-0.1-0.3-2.2-2-3.3C313.4,158.7,310.9,159.9,309.6,160.4z"/>
<path class="st10" d="M339.8,150.8c-1.3,0.6-3.2,1.4-3.7,3.3c-0.4,1.5,0.4,2.9,0.7,3.3c2.9,2.3,6.4,2.6,8.7,1
	c0.2-0.1,2.6-1.9,2.3-4.7c0-0.1-0.3-2.2-2-3.3C343.7,149.1,341.1,150.3,339.8,150.8z"/>
<path class="st10" d="M367.1,117.9c-1.3,0.6-3.2,1.4-3.7,3.3c-0.4,1.5,0.4,2.9,0.7,3.3c2.9,2.3,6.4,2.6,8.7,1
	c0.2-0.1,2.6-1.9,2.3-4.7c0-0.1-0.3-2.2-2-3.3C371,116.2,368.4,117.3,367.1,117.9z"/>
<g>
	<g>
		<path class="st12" d="M284.2,74.2c4.5-3.7,4.7,6,4.5,7c-0.2,1.1-0.6,2-1.1,3c-3.1,5.2-9,5.8-13.2,2c-4.3-4.1-7.2-10.9-6.7-16.9
			c1.4-15.2,24.7-9.1,32.7-3.4c13.4,9.4,19.5,27.7,21.4,43.3c0.1,1.1,3,0.4,2.9-0.8c-2.3-18.5-10.9-41.4-29.9-48.1
			c-8.6-3-25.3-4.9-29.3,6.1c-3.4,9.2,4.5,26.5,16,24.2c5.7-1.1,10.6-6.4,10.3-12.4c-0.3-6.1-5.3-8.4-9.9-4.6
			C280.5,74.6,283.4,74.8,284.2,74.2L284.2,74.2z"/>
	</g>
</g>
<g>
	<path class="st8" d="M401.7,130.4c1.2-0.1,3-0.2,5-0.7c7.8-1.6,14.4-5.7,14-6.8c-0.2-0.7-3.2,0.9-8.3,0c-3.4-0.6-4.1-1.6-8.3-2.3
		c-3.8-0.7-6-0.3-6-0.7c-0.1-0.6,11.4,0.1,21.3-5.6c9.7-5.6,13.9-14.9,17.7-23.7c2-4.6,3.9-9.2,2-11.3c-3-3.3-12.5,2.3-14,0
		c-1.1-1.7,3.6-5.9,7.3-10.7c9.5-12.3,13.9-31.1,7.7-37.3c-0.6-0.6-1.6-1.4-12-2.3c-13.5-1.2-20.3-1.7-27-0.7
		c-13.6,2.1-21.8,8.3-22.7,6.9c-0.9-1.5,4.3-7.2,10-11c5.3-3.5,9.1-4,9-5c-0.2-1.6-10.3-1.9-19.7-0.7c0,0-18.3,2.3-27.3,10.3
		c-3.7,3.2-5.7,7-5.7,7c-0.7,1.3-1.1,2.4-1.3,3c-0.6,1.5-6.2,16.4-8,16c-0.4-0.1-0.2-1.1-0.7-4c-0.4-2.6-0.8-2.8-1.8-6.5
		c-0.7-2.6-1.3-4.9-1.5-7.8c-0.3-3.2,0.1-4.2-0.3-4.3c-1.6-0.7-11.1,11.9-15,24.4c-6.2,19.6,1.3,38.7,6.3,48.7"/>
	<g>
		<path class="st9" d="M401.1,131.1c3.7-0.3,7.4-1,10.9-2.2c2.6-0.9,7.7-2.4,9.4-4.9c0.8-1.2,1.1-1.3-0.3-1.8
			c-0.9-0.3-2.9,0.4-3.7,0.4c-3.2,0.2-5.8-0.7-8.7-1.6c-2-0.6-4.1-1-6.2-1.3c-1.1-0.1-5.8,0.2-2.7,0.6c3.3,0.4,7.6-0.9,10.8-1.7
			c8.6-2.3,15.9-7,21-14.4c2.6-3.9,4.6-8.1,6.5-12.4c1.3-2.9,5.3-9.6,2.6-12.7c-1.2-1.5-3.4-1.4-5.2-1.2c-1.5,0.1-3,0.5-4.5,0.9
			c-1.2,0.3-3.7,1.4-4.4-0.6c-0.3-0.9,1.7-2.7,2.2-3.4c6.4-8,12-15.5,14.6-25.8c1.2-5,2.9-14.3-1.9-18.1c-1.1-0.9-2.5-1.1-3.9-1.3
			c-5.1-1-10.3-1.2-15.5-1.7c-7.8-0.6-15.5-1.1-23.2,0.5c-3.9,0.8-7.8,2-11.6,3.4c-1.7,0.7-3.4,1.4-5,2.1c-2.5,1-2.8,0.6-1.1-1.8
			c3.5-4.9,9-8.3,14.4-10.7c0.9-0.4,3.9-1.2,3.2-2.6c-0.7-1.5-5.8-1.3-6.8-1.4c-4.6-0.2-9.4,0.1-14,0.7c-5.4,0.7-10.7,2-15.8,3.9
			c-7.3,2.6-14.2,6.5-18.3,13.3c-2.9,4.8-4.3,10.5-6.8,15.5c-0.4,0.7-1,1.6-1.2,2.4c-0.2,0.3-0.4,0.7-0.6,1
			c-0.8,0.8-0.3,0.8,1.3-0.1c0.7-1.3-0.7-4.9-1.1-6.2c-0.7-2.5-1.5-5-2-7.5c-0.3-1.7,0.1-6.5-0.8-7.7c-2.6-3.5-7.5,4-8.8,5.9
			c-7,10-11.6,21.7-11.6,34c0,11.7,3.5,23,8.7,33.3c0.4,0.8,3.2-0.2,2.9-0.8c-8.1-16.3-11.9-35-4.9-52.4c2.9-7.3,6.9-14.3,12.4-19.9
			c-2.3,2.4-0.9-0.3-1.4,1.4c-0.2,0.7,0.1,2.1,0.1,2.9c0.2,2.1,0.6,4.2,1.1,6.3c0.4,1.8,1,3.5,1.5,5.2c0.5,1.7,0.4,3.8,1,5.5
			c0.8,2.2,2.4,2,4.1,0.2c3.1-3.2,4.6-9,6.2-13c2.3-5.8,5.1-10.8,10.6-14.3c6.1-4,13.6-6,20.7-7.2c2.1-0.4,4.2-0.6,6.4-0.8
			c2.4-0.2,4.8-0.3,7.2-0.3c1,0,5.6-0.3,6.4,0.6c1,1.2-1,1.4-2.1,1.9c-1.4,0.7-2.9,1.4-4.2,2.2c-3.5,2.1-7,4.8-9.6,8
			c-1.5,1.8-4,5.2-0.1,4.9c1.5-0.1,3.2-1.1,4.6-1.7c3.6-1.5,7.2-3,11-4c8-2.1,15.8-2,23.9-1.4c4.5,0.3,9,0.7,13.5,1.3
			c1.9,0.2,4.7,0.2,6.3,1.4c4.5,3.3,3.3,11.9,2.3,16.4c-1.9,8.6-6,16.6-11.7,23.3c-1.6,1.9-9.3,9.2-2.7,9.3c3.1,0,7.4-2.8,10.3-1.4
			c4.6,2.1-0.7,11.3-2.1,14.3c-4.7,10.7-11,20-22.8,23.6c-3.9,1.2-7.8,1.4-11.8,2c-1,0.1-2.4,0.1-3.2,1c-0.1,0.1-0.2,0.3,0,0.5
			c2.1,1.2,6,0.6,8.4,1.3c3.2,0.9,6,2.1,9.4,2.1c1,0,2.1-0.2,3.1-0.2c1.5,0,2.1-0.8,0.7,0.7c-3.5,3.7-11.2,5-16,5.4
			C401.4,129.8,399.1,131.2,401.1,131.1L401.1,131.1z"/>
	</g>
</g>
<g>
	<path class="st8" d="M332.3,105.6c-2.4,0.3-5.9,0.7-9.7,3c-7.8,4.8-9.8,13.6-10.3,16c-0.3,1.4-0.9,3.9-0.6,7.2
		c0.1,1.4,0.6,6.5,3.9,10.8c5.2,6.8,14.2,7.2,16.7,7.3c2.4,0.1,11.3,0.4,18.5-5.8c1.6-1.4,2.6-2.7,3.2-3.5c0,0,1-1.4,1.8-3
		c4.1-8.1,1.8-16.7,1.8-16.7c-0.5-1.8-1.6-5.8-5-9.3C345.5,104.1,334.8,105.3,332.3,105.6z"/>
	<g>
		<path class="st9" d="M332.6,104.9c-11,1.3-18.7,8.2-21.4,18.9c-2.7,10.8,1.5,22.2,12.7,25.7c18.5,5.8,40.3-7.8,35.3-28.9
			C356.2,108.2,344.1,103.6,332.6,104.9c-1.4,0.1-2.5,1.7-0.4,1.5c10.9-1.2,21.7,3.9,24.2,15.4c3,13.9-6.4,26.9-20.8,27.4
			c-10.8,0.4-20.7-5.1-22.2-16.6c-1.6-12.2,6.2-24.8,18.8-26.3C333.5,106.2,334.6,104.6,332.6,104.9z"/>
	</g>
</g>
<g>
	<path class="st8" d="M370.7,112c-2.1,0.2-5.1,0.6-8.3,2.6c-6.7,4.1-8.4,11.6-8.9,13.7c-0.3,1.2-0.7,3.4-0.5,6.2
		c0.1,1.2,0.5,5.6,3.4,9.3c4.5,5.8,12.1,6.2,14.3,6.3c2,0.1,9.7,0.3,15.8-5c1.4-1.2,2.3-2.3,2.7-3c0,0,0.9-1.2,1.6-2.5
		c3.5-6.9,1.6-14.3,1.6-14.3c-0.4-1.5-1.4-5-4.3-8C382,110.8,372.8,111.8,370.7,112z"/>
	<g>
		<path class="st9" d="M370.9,111.1c-9.4,1.1-16,6.9-18.4,16c-2.4,9,0.7,19,10,22.5c16.2,5.9,35.8-6.2,31.4-24.7
			C391.4,114.1,380.9,110,370.9,111.1c-1.5,0.2-2.3,2.1-0.3,1.9c9.3-1,18.5,3.2,20.6,13.1c2.5,11.7-5.5,22.5-17.5,23
			c-9.2,0.4-17.7-4.1-18.9-14c-1.3-10.3,5.3-20.8,15.9-22.1C372.1,112.8,372.9,110.8,370.9,111.1z"/>
	</g>
</g>
<path class="st9" d="M344.5,106.3c1.1-1.6,2.7-4.2,3.7-7.7c0.2-0.6,0.8-2.9,0.9-6.6c0.1-4.7-0.7-8-0.9-9.4
	c-1.6-10.4,14.8-23.1,15.7-22.3c0.5,0.4-5.4,5.8-9.3,17c-1.8,5.2-3.8,13.1-2,14c1.4,0.7,4.4-3.2,6.7-5.7c4.7-5.3,8.1-7.1,29-18.7
	c27.9-15.5,31.3-17.5,31.7-17c0.8,1.2-15.9,13.5-20.7,17c-27.1,20-46.1,29.8-44.7,33c0.3,0.7,1.5,0.4,10,0.3
	c14.1-0.1,14.9,0.9,21.3,0c7.1-1,11.3-2.9,11.7-2c0.4,0.9-3.3,3.8-7,5.7c-4.5,2.3-8.1,2.8-22.7,3.7c-8.8,0.5-18.3,1-18.3,1l0,0"/>
<path class="st10" d="M324.7,116.3c-1.3,0.6-3.2,1.4-3.7,3.3c-0.4,1.5,0.4,2.9,0.7,3.3c2.9,2.3,6.4,2.6,8.7,1
	c0.2-0.1,2.6-1.9,2.3-4.7c0-0.1-0.3-2.2-2-3.3C328.5,114.6,326,115.7,324.7,116.3z"/>
<path class="st10" d="M298.5,136.7c-1.3,0.6-3.2,1.4-3.7,3.3c-0.4,1.5,0.4,2.9,0.7,3.3c2.9,2.3,6.4,2.6,8.7,1
	c0.2-0.1,2.6-1.9,2.3-4.7c0-0.1-0.3-2.2-2-3.3C302.4,135,299.8,136.2,298.5,136.7z"/>
<path class="st10" d="M361.2,117.5c-1.3,0.6-3.2,1.4-3.7,3.3c-0.4,1.5,0.4,2.9,0.7,3.3c2.9,2.3,6.4,2.6,8.7,1
	c0.2-0.1,2.6-1.9,2.3-4.7c0-0.1-0.3-2.2-2-3.3C365.1,115.8,362.5,117,361.2,117.5z"/>
<g>
	<path class="st8" d="M349.2,170.9c-2.4,0.3-5.9,0.7-9.7,3c-7.8,4.8-9.8,13.6-10.3,16c-0.3,1.4-0.9,3.9-0.6,7.2
		c0.1,1.4,0.6,6.5,3.9,10.8c5.2,6.8,14.2,7.2,16.7,7.3c2.4,0.1,11.3,0.4,18.5-5.8c1.6-1.4,2.6-2.7,3.2-3.5c0,0,1-1.4,1.8-3
		c4.1-8.1,1.8-16.7,1.8-16.7c-0.5-1.8-1.6-5.8-5-9.3C362.3,169.5,351.6,170.7,349.2,170.9z"/>
	<g>
		<path class="st9" d="M349.8,170.4c-10.8,1.3-18.7,7.5-21.6,18.1c-2.9,10.6,0.7,22.2,11.8,25.9c18.4,6.1,41-7.2,36-28.4
			C373.1,173.7,361.3,169.1,349.8,170.4c-0.7,0.1-3.1,1.3-1.3,1.1c11-1.2,21.9,3.8,24.5,15.3c3.1,13.4-5.5,27-19.7,27.9
			c-10.8,0.7-21.1-4.4-23.1-15.8c-2.1-12.1,5.4-25.8,18.2-27.4C349.3,171.4,351.7,170.2,349.8,170.4z"/>
	</g>
</g>
<path class="st2" d="M144.9,191.1"/>
<path class="st2" d="M129,173"/>
<path class="st2" d="M137.8,234.9"/>
<path class="st2" d="M129,156.4"/>
<path class="st2" d="M135.1,185.7"/>
<path class="st13" d="M46.4,168.5c-2.2,0.2-5.5,0.6-8.9,2.8c-7.2,4.4-9,12.5-9.5,14.8c-0.3,1.3-0.8,3.6-0.5,6.6
	c0.1,1.3,0.6,6,3.6,10c4.8,6.3,13.1,6.7,15.4,6.8c2.2,0.1,10.5,0.4,17-5.4c1.5-1.3,2.4-2.5,3-3.2c0,0,0.9-1.3,1.7-2.7
	c3.8-7.5,1.7-15.4,1.7-15.4c-0.4-1.7-1.5-5.3-4.6-8.6C58.5,167.2,48.6,168.3,46.4,168.5z"/>
<g>
	<path class="st14" d="M60.7,189.6c-2.4,0.3-5.9,0.7-9.7,3c-7.8,4.8-9.8,13.6-10.3,16c-0.3,1.4-0.9,3.9-0.6,7.2
		c0.1,1.4,0.6,6.5,3.9,10.8c5.2,6.8,14.2,7.2,16.7,7.3C63,234,72,234.3,79.1,228c1.6-1.4,2.6-2.7,3.2-3.5c0,0,1-1.4,1.8-3
		c4.1-8.1,1.8-16.7,1.8-16.7c-0.5-1.8-1.6-5.8-5-9.3C73.8,188.1,63.1,189.3,60.7,189.6z"/>
	<g>
		<path class="st15" d="M60.9,188.8c-11,1.3-18.7,8.2-21.4,18.9c-2.7,10.8,1.5,22.2,12.7,25.7c18.5,5.8,40.3-7.8,35.3-28.9
			C84.5,192.1,72.5,187.5,60.9,188.8c-1.4,0.2-2.4,1.7-0.4,1.5c10.9-1.2,21.7,3.9,24.2,15.4c3,13.9-6.4,26.8-20.8,27.4
			c-10.8,0.4-20.7-5.1-22.2-16.5c-1.6-12.2,6.2-24.8,18.8-26.3C61.8,190.2,62.9,188.6,60.9,188.8z"/>
	</g>
</g>
<g>
	<path class="st14" d="M88.6,243.7c-2.4,0.3-5.9,0.7-9.7,3c-7.8,4.8-9.8,13.6-10.3,16c-0.3,1.4-0.9,3.9-0.6,7.2
		c0.1,1.4,0.6,6.5,3.9,10.8c5.2,6.8,14.2,7.2,16.7,7.3c2.4,0.1,11.3,0.4,18.5-5.8c1.6-1.4,2.6-2.7,3.2-3.5c0,0,1-1.4,1.8-3
		c4.1-8.1,1.8-16.7,1.8-16.7c-0.5-1.8-1.6-5.8-5-9.3C101.7,242.2,91,243.4,88.6,243.7z"/>
	<g>
		<path class="st15" d="M89.2,243.1c-10.8,1.3-18.7,7.5-21.6,18.1c-2.8,10.4,0.5,21.9,11.4,25.8c18.5,6.6,41.5-6.8,36.5-28.3
			C112.5,246.5,100.7,241.8,89.2,243.1c-0.8,0.1-3.1,1.4-1.3,1.2c11-1.2,21.8,3.7,24.5,15.2c3.1,13.5-5.5,26.9-19.7,27.9
			c-10.7,0.7-21.1-4.4-23.1-15.8c-2.1-12.1,5.4-25.8,18.2-27.3C88.7,244.2,91.1,242.9,89.2,243.1z"/>
	</g>
</g>
<g>
	<path class="st14" d="M118.4,221.4c-2.4,0.3-5.9,0.7-9.7,3c-7.8,4.8-9.8,13.6-10.3,16c-0.3,1.4-0.9,3.9-0.6,7.2
		c0.1,1.4,0.6,6.5,3.9,10.8c5.2,6.8,14.2,7.2,16.7,7.3c2.4,0.1,11.3,0.4,18.5-5.8c1.6-1.4,2.6-2.7,3.2-3.5c0,0,1-1.4,1.8-3
		c4.1-8.1,1.8-16.7,1.8-16.7c-0.5-1.8-1.6-5.8-5-9.3C131.5,219.9,120.8,221.1,118.4,221.4z"/>
	<g>
		<path class="st15" d="M118.5,220.4c-11.1,1.3-18.7,8.4-21.4,19.1c-2.6,10.4,1.2,21.8,11.9,25.6c18.8,6.8,41.2-7.4,36.1-28.8
			C142.2,223.9,130.2,219.1,118.5,220.4c-1.6,0.2-2.3,2.2-0.3,2c10.9-1.2,21.6,3.6,24.1,15.2c3,13.7-6.2,26.2-20.3,27.2
			c-10.9,0.7-21.2-4.6-22.7-16.3c-1.6-12.2,6.3-24.5,18.9-26C119.8,222.2,120.5,220.1,118.5,220.4z"/>
	</g>
</g>
<g>
	<path class="st14" d="M37.4,123.3c-2.4,0.3-5.9,0.7-9.7,3c-7.8,4.8-9.8,13.6-10.3,16c-0.3,1.4-0.9,3.9-0.6,7.2
		c0.1,1.4,0.6,6.5,3.9,10.8c5.2,6.8,14.2,7.2,16.7,7.3c2.4,0.1,11.3,0.4,18.5-5.8c1.6-1.4,2.6-2.7,3.2-3.5c0,0,1-1.4,1.8-3
		c4.1-8.1,1.8-16.7,1.8-16.7c-0.5-1.8-1.6-5.8-5-9.3C50.5,121.8,39.8,123,37.4,123.3z"/>
	<g>
		<path class="st15" d="M36.4,121.2c-11.5,1.4-18.9,9.4-21.3,20.4c-2.4,11.1,2.6,22.6,13.6,26.6c8.8,3.2,19.9,2.2,27.5-3.5
			c8.3-6.3,11.3-17.8,8.2-27.6C60.5,124.8,48.4,119.8,36.4,121.2c-2.8,0.3-0.4,4.6,1.9,4.3c10.4-1.1,20.7,3.4,22.5,14.7
			c2.1,13.4-7.5,24.5-20.8,25.3c-10.9,0.6-21-5.1-21-17.1c0-11.6,7.7-21.5,19.4-22.9C41.2,125.1,38.7,120.9,36.4,121.2z"/>
	</g>
</g>
<g>
	<path class="st14" d="M60.7,94.8c-2.4,0.3-5.9,0.7-9.7,3c-7.8,4.8-9.8,13.6-10.3,16c-0.3,1.4-0.9,3.9-0.6,7.2
		c0.1,1.4,0.6,6.5,3.9,10.8c5.2,6.8,14.2,7.2,16.7,7.3c2.4,0.1,11.3,0.4,18.5-5.8c1.6-1.4,2.6-2.7,3.2-3.5c0,0,1-1.4,1.8-3
		c4.1-8.1,1.8-16.7,1.8-16.7c-0.5-1.8-1.6-5.8-5-9.3C73.8,93.3,63.1,94.5,60.7,94.8z"/>
	<g>
		<path class="st15" d="M60.9,94.2c-10.8,1.3-18.6,7.9-21.4,18.5c-2.8,10.6,1,22,12,25.7c18.5,6.2,40.9-7.4,35.9-28.6
			c-2.9-12.2-14.7-16.9-26.2-15.6c-0.8,0.1-3.1,1.5-1.2,1.3c11-1.2,21.8,3.6,24.5,15.2c3.2,13.7-5.8,27.1-20.2,27.8
			c-10.8,0.6-20.9-4.8-22.7-16.2c-1.9-12.3,5.9-25.3,18.7-26.9C61.7,95.3,63,94,60.9,94.2z"/>
	</g>
</g>
<g>
	<path class="st14" d="M67.7,127.9c-2.4,0.3-5.9,0.7-9.7,3c-7.8,4.8-9.8,13.6-10.3,16c-0.3,1.4-0.9,3.9-0.6,7.2
		c0.1,1.4,0.6,6.5,3.9,10.8c5.2,6.8,14.2,7.2,16.7,7.3c2.4,0.1,11.3,0.4,18.5-5.8c1.6-1.4,2.6-2.7,3.2-3.5c0,0,1-1.4,1.8-3
		c4.1-8.1,1.8-16.7,1.8-16.7c-0.5-1.8-1.6-5.8-5-9.3C80.9,126.4,70.1,127.6,67.7,127.9z"/>
	<g>
		<path class="st15" d="M68.3,127.4c-10.8,1.3-18.7,7.5-21.7,18.1c-2.9,10.6,0.7,22.2,11.8,25.9c18.4,6.1,41-7.2,36-28.4
			C91.6,130.7,79.8,126.1,68.3,127.4c-0.7,0.1-3.2,1.3-1.3,1.1c11-1.2,21.9,3.8,24.6,15.3c3.2,13.7-5.8,27.4-20.3,28
			c-10.6,0.4-20.5-4.7-22.5-15.9c-2.1-12.1,5.4-25.9,18.2-27.4C67.8,128.3,70.2,127.1,68.3,127.4z"/>
	</g>
</g>
<g>
	<path class="st14" d="M132.5,195.2c-2.4,0.3-5.9,0.7-9.7,3c-7.8,4.8-9.8,13.6-10.3,16c-0.3,1.4-0.9,3.9-0.6,7.2
		c0.1,1.4,0.6,6.5,3.9,10.8c5.2,6.8,14.2,7.2,16.7,7.3c2.4,0.1,11.3,0.4,18.5-5.8c1.6-1.4,2.6-2.7,3.2-3.5c0,0,1-1.4,1.8-3
		c4.1-8.1,1.8-16.7,1.8-16.7c-0.5-1.8-1.6-5.8-5-9.3C145.7,193.7,134.9,194.9,132.5,195.2z"/>
	<g>
		<path class="st15" d="M132.7,194.2c-11,1.3-18.7,8.3-21.4,19c-2.6,10.4,1.2,21.7,11.9,25.6c18.7,6.7,41.3-7.3,36.1-28.7
			C156.3,197.8,144.3,193,132.7,194.2c-1.5,0.2-2.3,2.1-0.3,1.9c10.9-1.2,21.6,3.7,24.1,15.2c3,13.7-6.2,26.3-20.2,27.2
			c-10.9,0.7-21.2-4.6-22.7-16.3c-1.6-12.2,6.3-24.6,18.8-26.1C133.8,195.9,134.7,194,132.7,194.2z"/>
	</g>
</g>
<g>
	<path class="st14" d="M141.7,159.3c-2.4,0.3-5.9,0.7-9.7,3c-7.8,4.8-9.8,13.6-10.3,16c-0.3,1.4-0.9,3.9-0.6,7.2
		c0.1,1.4,0.6,6.5,3.9,10.8c5.2,6.8,14.2,7.2,16.7,7.3c2.4,0.1,11.3,0.4,18.5-5.8c1.6-1.4,2.6-2.7,3.2-3.5c0,0,1-1.4,1.8-3
		c4.1-8.1,1.8-16.7,1.8-16.7c-0.5-1.8-1.6-5.8-5-9.3C154.8,157.8,144.1,159,141.7,159.3z"/>
	<g>
		<path class="st15" d="M141.8,158.2c-11.1,1.3-18.6,8.4-21.3,19.2c-2.6,10.5,1.2,21.8,11.9,25.7c18.9,6.9,41.2-7.4,36.1-28.8
			C165.5,161.9,153.5,156.9,141.8,158.2c-1.6,0.2-2.2,2.4-0.2,2.2c10.8-1.2,21.6,3.5,24.1,15.1c3,13.7-6.3,26.1-20.3,27.1
			c-10.8,0.7-21.2-4.5-22.7-16.2c-1.6-12.2,6.4-24.5,18.9-25.9C143.2,160.2,143.8,158,141.8,158.2z"/>
	</g>
</g>
<g>
	<path class="st14" d="M153.8,130.9c-2.2,0.2-5.4,0.6-8.7,2.7c-7.1,4.3-8.9,12.3-9.4,14.5c-0.3,1.3-0.8,3.5-0.5,6.5
		c0.1,1.2,0.6,5.9,3.5,9.8c4.7,6.1,12.8,6.5,15.1,6.6c2.1,0.1,10.3,0.4,16.7-5.3c1.4-1.3,2.4-2.5,2.9-3.2c0,0,0.9-1.3,1.6-2.7
		c3.7-7.3,1.7-15.1,1.7-15.1c-0.4-1.6-1.4-5.2-4.5-8.4c-4.5-4.7-10.3-5.3-12.5-5.5C157.1,130.5,154.9,130.8,153.8,130.9z"/>
	<g>
		<path class="st15" d="M154,129.9c-10.2,1.2-17.1,7.7-19.5,17.5c-2.3,9.2,1,19.2,10.3,22.9c17.1,6.8,38.3-6.2,33.5-25.9
			C175.5,133.2,164.6,128.7,154,129.9c-1.6,0.2-2.3,2.2-0.3,2c9.8-1.1,19.5,3.4,21.7,13.8c2.7,12.7-6.2,23.9-19.1,24.3
			c-9.5,0.3-18.1-4.4-19.6-14.5c-1.6-11,5.6-22.2,16.9-23.6C155.3,131.7,156,129.6,154,129.9z"/>
	</g>
</g>
<path class="st10" d="M89.1,113.1c-1.3,0.6-3.2,1.4-3.7,3.3c-0.4,1.5,0.4,2.9,0.7,3.3c2.9,2.3,6.4,2.6,8.7,1
	c0.2-0.1,2.6-1.9,2.3-4.7c0-0.1-0.3-2.2-2-3.3C93,111.3,90.4,112.5,89.1,113.1z"/>
<path class="st16" d="M55.3,101.9c-1.3,0.6-3.2,1.4-3.7,3.3c-0.4,1.5,0.4,2.9,0.7,3.3c2.9,2.3,6.4,2.6,8.7,1
	c0.2-0.1,2.6-1.9,2.3-4.7c0-0.1-0.3-2.2-2-3.3C59.2,100.2,56.6,101.4,55.3,101.9z"/>
<path class="st16" d="M30,132.4c-1.3,0.6-3.2,1.4-3.7,3.3c-0.4,1.5,0.4,2.9,0.7,3.3c2.9,2.3,6.4,2.6,8.7,1c0.2-0.1,2.6-1.9,2.3-4.7
	c0-0.1-0.3-2.2-2-3.3C33.8,130.7,31.3,131.8,30,132.4z"/>
<path class="st16" d="M37.9,174.9c-1.3,0.6-3.2,1.4-3.7,3.3c-0.4,1.5,0.4,2.9,0.7,3.3c2.9,2.3,6.4,2.6,8.7,1
	c0.2-0.1,2.6-1.9,2.3-4.7c0-0.1-0.3-2.2-2-3.3C41.8,173.2,39.2,174.3,37.9,174.9z"/>
<path class="st11" d="M72.2,163.8c-1.3,0.6-3.2,1.4-3.7,3.3c-0.4,1.5,0.4,2.9,0.7,3.3c2.9,2.3,6.4,2.6,8.7,1
	c0.2-0.1,2.6-1.9,2.3-4.7c0-0.1-0.3-2.2-2-3.3C76.1,162.1,73.5,163.3,72.2,163.8z"/>
<g>
	<path class="st14" d="M78.1,154c-2.4,0.3-5.9,0.7-9.7,3c-7.8,4.8-9.8,13.6-10.3,16c-0.3,1.4-0.9,3.9-0.6,7.2
		c0.1,1.4,0.6,6.5,3.9,10.8c5.2,6.8,14.2,7.2,16.7,7.3c2.4,0.1,11.3,0.4,18.5-5.8c1.6-1.4,2.6-2.7,3.2-3.5c0,0,1-1.4,1.8-3
		c4.1-8.1,1.8-16.7,1.8-16.7c-0.5-1.8-1.6-5.8-5-9.3C91.2,152.5,80.5,153.7,78.1,154z"/>
	<g>
		<path class="st15" d="M78.3,153.1c-11,1.3-18.7,8.3-21.4,19c-2.7,10.6,1.3,22,12.3,25.6c18.7,6.2,40.8-7.6,35.7-28.8
			C101.9,156.5,89.9,151.8,78.3,153.1c-1.4,0.2-2.4,1.9-0.4,1.7c10.9-1.2,21.7,3.8,24.2,15.3c3,13.7-6.1,26.4-20.2,27.3
			c-10.9,0.7-21.2-4.7-22.8-16.4c-1.6-12.2,6.2-24.7,18.8-26.2C79.3,154.6,80.3,152.9,78.3,153.1z"/>
	</g>
</g>
<g>
	<path class="st14" d="M67.7,220.4c-2.4,0.3-5.9,0.7-9.7,3c-7.8,4.8-9.8,13.6-10.3,16c-0.3,1.4-0.9,3.9-0.6,7.2
		c0.1,1.4,0.6,6.5,3.9,10.8c5.2,6.8,14.2,7.2,16.7,7.3c2.4,0.1,11.3,0.4,18.5-5.8c1.6-1.4,2.6-2.7,3.2-3.5c0,0,1-1.4,1.8-3
		c4.1-8.1,1.8-16.7,1.8-16.7c-0.5-1.8-1.6-5.8-5-9.3C80.9,219,70.1,220.2,67.7,220.4z"/>
	<g>
		<path class="st15" d="M67.2,218.7c-11.5,1.4-19.3,8.7-21.9,19.9c-2.6,10.9,2.1,22.2,13.1,26.1c8.6,3.1,19.4,2.4,27-2.6
			c8.9-5.8,12.7-17.1,9.9-27.3C91.8,222.3,79.2,217.4,67.2,218.7c-3.3,0.4-1.8,3.7,0.9,3.4c10.5-1.1,20.5,3.6,22.6,14.7
			c2.5,13.3-6.5,25.2-20,26.2c-10.6,0.7-20.1-4.7-21.2-16c-1.1-11.7,6.5-23.4,18.5-24.8C71.4,221.8,70,218.4,67.2,218.7z"/>
	</g>
</g>
<g>
	<path class="st14" d="M91,193.2c-2.4,0.3-5.9,0.7-9.7,3c-7.8,4.8-9.8,13.6-10.3,16c-0.3,1.4-0.9,3.9-0.6,7.2
		c0.1,1.4,0.6,6.5,3.9,10.8c5.2,6.8,14.2,7.2,16.7,7.3c2.4,0.1,11.3,0.4,18.5-5.8c1.6-1.4,2.6-2.7,3.2-3.5c0,0,1-1.4,1.8-3
		c4.1-8.1,1.8-16.7,1.8-16.7c-0.5-1.8-1.6-5.8-5-9.3C104.2,191.8,93.4,193,91,193.2z"/>
	<g>
		<path class="st15" d="M91.3,192.6c-10.9,1.3-18.7,8.1-21.4,18.8c-2.7,10.8,1.5,22.1,12.7,25.6c18.5,5.7,40.3-7.7,35.3-28.8
			C114.8,195.8,102.8,191.4,91.3,192.6c-1.3,0.1-2.5,1.5-0.5,1.2c11-1.2,21.7,4.1,24.2,15.5c3,13.8-6.3,27-20.7,27.5
			c-10.9,0.4-20.7-5.2-22.3-16.7c-1.6-12.2,6.2-24.9,18.8-26.4C92,193.7,93.3,192.4,91.3,192.6z"/>
	</g>
</g>
<g>
	<path class="st14" d="M111.9,134.3c-2.4,0.3-5.9,0.7-9.7,3c-7.8,4.8-9.8,13.6-10.3,16c-0.3,1.4-0.9,3.9-0.6,7.2
		c0.1,1.4,0.6,6.5,3.9,10.8c5.2,6.8,14.2,7.2,16.7,7.3c2.4,0.1,11.3,0.4,18.5-5.8c1.6-1.4,2.6-2.7,3.2-3.5c0,0,1-1.4,1.8-3
		c4.1-8.1,1.8-16.7,1.8-16.7c-0.5-1.8-1.6-5.8-5-9.3C125,132.9,114.3,134.1,111.9,134.3z"/>
	<g>
		<path class="st15" d="M112,133.3c-11.1,1.3-18.6,8.4-21.4,19.1c-2.6,10.5,1.2,21.8,11.9,25.7c18.8,6.8,41.2-7.4,36.1-28.8
			C135.7,136.9,123.7,132,112,133.3c-1.6,0.2-2.2,2.3-0.3,2.1c10.8-1.2,21.6,3.6,24.1,15.1c3,13.7-6.3,26.2-20.3,27.1
			c-10.9,0.7-21.2-4.5-22.7-16.2c-1.6-12.2,6.4-24.5,18.9-26C113.4,135.2,114,133.1,112,133.3z"/>
	</g>
</g>
<path class="st16" d="M72.2,160.4c-1.3,0.6-3.2,1.4-3.7,3.3c-0.4,1.5,0.4,2.9,0.7,3.3c2.9,2.3,6.4,2.6,8.7,1
	c0.2-0.1,2.6-1.9,2.3-4.7c0-0.1-0.3-2.2-2-3.3C76.1,158.7,73.5,159.8,72.2,160.4z"/>
<path class="st16" d="M102.5,150.8c-1.3,0.6-3.2,1.4-3.7,3.3c-0.4,1.5,0.4,2.9,0.7,3.3c2.9,2.3,6.4,2.6,8.7,1
	c0.2-0.1,2.6-1.9,2.3-4.7c0-0.1-0.3-2.2-2-3.3C106.4,149.1,103.8,150.3,102.5,150.8z"/>
<path class="st10" d="M129.8,117.9c-1.3,0.6-3.2,1.4-3.7,3.3c-0.4,1.5,0.4,2.9,0.7,3.3c2.9,2.3,6.4,2.6,8.7,1
	c0.2-0.1,2.6-1.9,2.3-4.7c0-0.1-0.3-2.2-2-3.3C133.7,116.2,131.1,117.3,129.8,117.9z"/>
<g>
	<g>
		<path class="st12" d="M46.9,74.2c4.5-3.7,4.7,6,4.5,7c-0.2,1.1-0.6,2-1.1,3c-3.1,5.2-9,5.8-13.2,2c-4.3-4.1-7.2-10.9-6.7-16.9
			c1.4-15.2,24.7-9.1,32.7-3.4c13.4,9.4,19.5,27.7,21.4,43.3c0.1,1.1,3,0.4,2.9-0.8c-2.3-18.5-10.9-41.4-29.9-48.1
			c-8.6-3-25.3-4.9-29.3,6.1c-3.4,9.2,4.5,26.5,16,24.2c5.7-1.1,10.6-6.4,10.3-12.4c-0.3-6.1-5.3-8.4-9.9-4.6
			C43.2,74.6,46.1,74.8,46.9,74.2L46.9,74.2z"/>
	</g>
</g>
<g>
	<path class="st8" d="M164.4,130.4c1.2-0.1,3-0.2,5-0.7c7.8-1.6,14.4-5.7,14-6.8c-0.2-0.7-3.2,0.9-8.3,0c-3.4-0.6-4.1-1.6-8.3-2.3
		c-3.8-0.7-6-0.3-6-0.7c-0.1-0.6,11.4,0.1,21.3-5.6c9.7-5.6,13.9-14.9,17.7-23.7c2-4.6,3.9-9.2,2-11.3c-3-3.3-12.5,2.3-14,0
		c-1.1-1.7,3.6-5.9,7.3-10.7c9.5-12.3,13.9-31.1,7.7-37.3c-0.6-0.6-1.6-1.4-12-2.3c-13.5-1.2-20.3-1.7-27-0.7
		c-13.6,2.1-21.8,8.3-22.7,6.9c-0.9-1.5,4.3-7.2,10-11c5.3-3.5,9.1-4,9-5c-0.2-1.6-10.3-1.9-19.7-0.7c0,0-18.3,2.3-27.3,10.3
		c-3.7,3.2-5.7,7-5.7,7c-0.7,1.3-1.1,2.4-1.3,3c-0.6,1.5-6.2,16.4-8,16c-0.4-0.1-0.2-1.1-0.7-4c-0.4-2.6-0.8-2.8-1.8-6.5
		c-0.7-2.6-1.3-4.9-1.5-7.8c-0.3-3.2,0.1-4.2-0.3-4.3c-1.6-0.7-11.1,11.9-15,24.4C72.5,76.4,80,95.4,85,105.4"/>
	<g>
		<path class="st9" d="M164.1,131.2c4.1-0.3,8.2-1.2,12-2.7c1.9-0.7,7.5-2.6,8.3-4.8c0.4-1.3,0.2-1.2-1.1-1.6
			c-1.2-0.3-3.5,0.5-4.7,0.4c-3.1,0-5.7-1.2-8.6-2c-1.8-0.5-3.9-1.1-5.7-1c-1.3,0.1-4.6,0.4-2,0.9c3.5,0.6,8.9-1.1,12.3-2.1
			c8.7-2.6,15.7-7.9,20.5-15.7c2.2-3.6,4-7.5,5.7-11.4c1.2-2.8,5-9.3,2.2-12.3c-1.5-1.6-4.2-1.3-6.1-1.1c-1.5,0.2-3,0.8-4.5,1
			c-5.4,0.6-2.1-2.8-0.2-5.1c6.3-7.4,11.3-15.2,13.6-24.7c1.2-5,2.9-14.6-2.1-18.3c-1.1-0.8-2.7-1-4-1.3c-5-0.9-10.2-1.2-15.2-1.6
			c-8.1-0.7-16.1-1.1-24.1,0.6c-4.1,0.9-8,2.1-11.9,3.7c-1.6,0.6-3.1,1.3-4.7,2c-2.2,0.9-2.1,0.7-0.5-1.5c3.6-4.9,8.8-8.4,14.2-10.9
			c0.8-0.4,4.1-1.3,3.9-2.7c-0.6-3.8-18.6-1.3-20.9-1c-4.9,0.7-9.8,1.9-14.6,3.4c-7.8,2.6-15.3,6.7-19.6,14c-2.6,4.5-4,9.8-6.2,14.4
			c-0.4,0.9-1.4,2.2-1.6,3.1c-0.2,0.3-0.4,0.6-0.6,0.9c-0.5,0.6-0.1,0.6,1.2,0.2c0.3-1.9-0.6-4.4-1.1-6.2c-0.8-2.7-1.7-5.4-2.2-8.2
			c-0.3-1.7,0.3-5.7-0.6-6.9c-2.7-3.8-8,4.5-9.2,6.4c-6.7,10-11.2,21.3-11.2,33.5c0,11.7,3.5,23,8.7,33.3c0.5,0.9,3.3,0,2.9-0.8
			c-8.1-16.2-11.9-35-4.9-52.4c1.7-4.4,3.9-8.5,6.5-12.5c0.9-1.4,1.9-2.8,2.9-4.2c0.4-0.5,0.9-1,1.3-1.6c0.4-0.4,0.8-0.8,1.2-1.2
			c-0.3,0.1-0.7,0.1-1,0.2c0.2,3.9,0.6,7.6,1.7,11.5c0.4,1.5,1,3,1.3,4.5c0.4,1.5,0.2,3.6,0.8,5c2.7,6.4,9.9-12.2,10.5-13.9
			c5.2-13.4,17.9-18.5,31.4-20.8c2.2-0.4,20.3-1.5,19.7,0.3c-0.3,0.8-7.2,3.6-8,4.2c-3.1,2.1-6.1,4.6-8.5,7.5c-1.6,2-3.2,5,0.5,4.5
			c1.6-0.2,3.3-1.2,4.8-1.8c3.7-1.6,7.4-3,11.4-4c7.7-2,15.3-1.8,23.1-1.2c4.5,0.3,9,0.7,13.5,1.3c1.9,0.2,4.7,0.2,6.4,1.4
			c4.7,3.2,3.1,12.5,2.1,16.9c-1.9,8.4-6,16.1-11.5,22.6c-1.6,1.9-9.3,9.3-2.7,9.4c3,0.1,6.2-2.1,9.2-1.6c6.2,1.1,0.5,11.2-1,14.4
			c-4.7,10.7-11.1,19.9-22.8,23.5c-3.8,1.1-7.6,1.5-11.5,2c-1.2,0.1-2.6,0.1-3.5,1.1c-0.2,0.3-0.1,0.5,0.2,0.7
			c0.4,0.2,0.9,0.1,1.3,0.3c2.3,0.9,5.6,0.5,8.1,1.3c2.9,0.9,5.5,1.8,8.6,1.8c1.1,0,2.7-0.5,3.7-0.3c0.7,0.1,0.5-0.2,0.5-0.1
			c0,0.4-1.9,1.5-2.2,1.6c-4.5,2.7-9.8,4.1-15,4.5C163.2,129.8,162.1,131.3,164.1,131.2L164.1,131.2z"/>
	</g>
</g>
<g>
	<path class="st14" d="M95,105.6c-2.4,0.3-5.9,0.7-9.7,3c-7.8,4.8-9.8,13.6-10.3,16c-0.3,1.4-0.9,3.9-0.6,7.2
		c0.1,1.4,0.6,6.5,3.9,10.8c5.2,6.8,14.2,7.2,16.7,7.3c2.4,0.1,11.3,0.4,18.5-5.8c1.6-1.4,2.6-2.7,3.2-3.5c0,0,1-1.4,1.8-3
		c4.1-8.1,1.8-16.7,1.8-16.7c-0.5-1.8-1.6-5.8-5-9.3C108.2,104.1,97.5,105.3,95,105.6z"/>
	<g>
		<path class="st15" d="M95.2,104.6c-11.1,1.3-18.7,8.3-21.4,19.1c-2.6,10.4,1.2,21.7,11.9,25.6c18.8,6.7,41.2-7.3,36.1-28.7
			C118.8,108.2,106.8,103.4,95.2,104.6c-1.5,0.2-2.3,2.1-0.3,1.9c10.9-1.2,21.6,3.7,24.1,15.2c3,13.7-6.2,26.3-20.2,27.2
			c-10.9,0.7-21.2-4.6-22.7-16.3c-1.6-12.2,6.3-24.6,18.8-26.1C96.4,106.4,97.2,104.4,95.2,104.6z"/>
	</g>
</g>
<g>
	<path class="st14" d="M133.4,112c-2.1,0.2-5.1,0.6-8.3,2.6c-6.7,4.1-8.4,11.6-8.9,13.7c-0.3,1.2-0.7,3.4-0.5,6.2
		c0.1,1.2,0.5,5.6,3.4,9.3c4.5,5.8,12.1,6.2,14.3,6.3c2,0.1,9.7,0.3,15.8-5c1.4-1.2,2.3-2.3,2.7-3c0,0,0.9-1.2,1.6-2.5
		c3.5-6.9,1.6-14.3,1.6-14.3c-0.4-1.5-1.4-5-4.3-8C144.7,110.8,135.5,111.8,133.4,112z"/>
	<g>
		<path class="st15" d="M133.6,111.4c-9.3,1.1-16.1,6.7-18.5,15.8c-2.5,9.1,0.7,19.1,10.3,22.3c15.9,5.4,35.5-6.2,31.2-24.6
			c-2.5-10.6-12.7-14.6-22.6-13.5c-0.8,0.1-3.1,1.5-1.2,1.3c9.4-1,18.7,3.2,20.9,13c2.7,11.8-5,23.2-17.4,23.7
			c-9.3,0.4-17.7-4.5-19-14.3c-1.4-10.3,5.2-21.2,15.9-22.5C134.4,112.5,135.7,111.2,133.6,111.4z"/>
	</g>
</g>
<path class="st9" d="M107.2,106.3c1.1-1.6,2.7-4.2,3.7-7.7c0.2-0.6,0.8-2.9,0.9-6.6c0.1-4.7-0.7-8-0.9-9.4
	c-1.6-10.4,14.8-23.1,15.7-22.3c0.5,0.4-5.4,5.8-9.3,17c-1.8,5.2-3.8,13.1-2,14c1.4,0.7,4.4-3.2,6.7-5.7c4.7-5.3,8.1-7.1,29-18.7
	c27.9-15.5,31.3-17.5,31.7-17c0.8,1.2-15.9,13.5-20.7,17c-27.1,20-46.1,29.8-44.7,33c0.3,0.7,1.5,0.4,10,0.3
	c14.1-0.1,14.9,0.9,21.3,0c7.1-1,11.3-2.9,11.7-2c0.4,0.9-3.3,3.8-7,5.7c-4.5,2.3-8.1,2.8-22.7,3.7c-8.8,0.5-18.3,1-18.3,1l0,0"/>
<path class="st16" d="M87.4,116.3c-1.3,0.6-3.2,1.4-3.7,3.3c-0.4,1.5,0.4,2.9,0.7,3.3c2.9,2.3,6.4,2.6,8.7,1
	c0.2-0.1,2.6-1.9,2.3-4.7c0-0.1-0.3-2.2-2-3.3C91.2,114.6,88.7,115.7,87.4,116.3z"/>
<path class="st16" d="M61.2,136.7c-1.3,0.6-3.2,1.4-3.7,3.3c-0.4,1.5,0.4,2.9,0.7,3.3c2.9,2.3,6.4,2.6,8.7,1
	c0.2-0.1,2.6-1.9,2.3-4.7c0-0.1-0.3-2.2-2-3.3C65.1,135,62.5,136.1,61.2,136.7z"/>
<path class="st17" d="M124.9,119.3c-1.3,0.6-3.2,1.4-3.7,3.3c-0.4,1.5,0.4,2.9,0.7,3.3c2.9,2.3,6.4,2.6,8.7,1
	c0.2-0.1,2.6-1.9,2.3-4.7c0-0.1-0.3-2.2-2-3.3C128.7,117.5,126.2,118.7,124.9,119.3z"/>
<g>
	<path class="st14" d="M111.9,170.9c-2.4,0.3-5.9,0.7-9.7,3c-7.8,4.8-9.8,13.6-10.3,16c-0.3,1.4-0.9,3.9-0.6,7.2
		c0.1,1.4,0.6,6.5,3.9,10.8c5.2,6.8,14.2,7.2,16.7,7.3c2.4,0.1,11.3,0.4,18.5-5.8c1.6-1.4,2.6-2.7,3.2-3.5c0,0,1-1.4,1.8-3
		c4.1-8.1,1.8-16.7,1.8-16.7c-0.5-1.8-1.6-5.8-5-9.3C125,169.5,114.3,170.7,111.9,170.9z"/>
	<g>
		<path class="st15" d="M112.1,170.3c-10.8,1.3-18.6,7.9-21.4,18.5c-2.8,10.6,1,22,12,25.7c18.5,6.2,40.9-7.4,35.9-28.6
			c-2.9-12.2-14.7-16.9-26.2-15.7c-0.8,0.1-3.1,1.5-1.2,1.3c11-1.2,21.8,3.6,24.5,15.2c3.2,13.7-5.8,27.1-20.2,27.8
			c-10.8,0.6-20.9-4.8-22.7-16.2c-1.9-12.3,5.9-25.3,18.7-26.9C112.9,171.4,114.2,170.1,112.1,170.3z"/>
	</g>
</g>
</svg>
