<?xml version="1.0" encoding="utf-8"?>
<!-- Generator: Adobe Illustrator 22.1.0, SVG Export Plug-In . SVG Version: 6.00 Build 0)  -->
<svg version="1.1" id="Calque_1" xmlns="http://www.w3.org/2000/svg" xmlns:xlink="http://www.w3.org/1999/xlink" x="0px" y="0px"
	 viewBox="0 0 595.3 841.9" style="enable-background:new 0 0 595.3 841.9;" xml:space="preserve">
<style type="text/css">
	.st0{fill:#542B12;}
	.st1{fill:#774E11;}
	.st2{fill:#9C5523;}
	.st3{fill:#961915;}
	.st4{fill:#821810;}
	.st5{fill:#187633;}
	.st6{fill:#1B4F25;}
	.st7{fill:#385F34;}
	.st8{fill:#162A19;}
</style>
<g>
	<rect x="77" y="147" class="st0" width="441.3" height="547.3"/>
	<g>
		<path class="st1" d="M77,701.8c14.6,0,29.3,0,43.9,0c35.2,0,70.3,0,105.5,0c42.4,0,84.7,0,127.1,0c36.8,0,73.6,0,110.4,0
			c17.8,0,35.8,0.7,53.7,0c0.3,0,0.5,0,0.8,0c4.1,0,7.5-3.4,7.5-7.5c0-18.3,0-36.5,0-54.8c0-43.5,0-87,0-130.4
			c0-52.7,0-105.5,0-158.2c0-45.6,0-91.1,0-136.7c0-22,0.8-44.2,0-66.3c0-0.3,0-0.6,0-1c0-4.1-3.4-7.5-7.5-7.5
			c-14.6,0-29.3,0-43.9,0c-35.2,0-70.3,0-105.5,0c-42.4,0-84.7,0-127.1,0c-36.8,0-73.6,0-110.4,0c-17.8,0-35.8-0.7-53.7,0
			c-0.3,0-0.5,0-0.8,0c-4.1,0-7.5,3.4-7.5,7.5c0,18.3,0,36.5,0,54.8c0,43.5,0,87,0,130.4c0,52.7,0,105.5,0,158.2
			c0,45.6,0,91.1,0,136.7c0,22-0.8,44.2,0,66.3c0,0.3,0,0.6,0,1c0,9.7,15,9.7,15,0c0-18.3,0-36.5,0-54.8c0-43.5,0-87,0-130.4
			c0-52.7,0-105.5,0-158.2c0-45.6,0-91.1,0-136.7c0-15,0-29.9,0-44.9c0-7,0.7-14.4,0-21.4c0-0.3,0-0.6,0-1c-2.5,2.5-5,5-7.5,7.5
			c14.6,0,29.3,0,43.9,0c35.2,0,70.3,0,105.5,0c42.4,0,84.7,0,127.1,0c36.8,0,73.6,0,110.4,0c12.1,0,24.2,0,36.3,0
			c5.7,0,11.7,0.6,17.4,0c0.2,0,0.5,0,0.8,0c-2.5-2.5-5-5-7.5-7.5c0,18.3,0,36.5,0,54.8c0,43.5,0,87,0,130.4c0,52.7,0,105.5,0,158.2
			c0,45.6,0,91.1,0,136.7c0,15,0,29.9,0,44.9c0,7-0.7,14.4,0,21.4c0,0.3,0,0.6,0,1c2.5-2.5,5-5,7.5-7.5c-14.6,0-29.3,0-43.9,0
			c-35.2,0-70.3,0-105.5,0c-42.4,0-84.7,0-127.1,0c-36.8,0-73.6,0-110.4,0c-17.8,0-35.8-0.7-53.7,0c-0.3,0-0.5,0-0.8,0
			C67.3,686.8,67.3,701.8,77,701.8z"/>
	</g>
</g>
<g>
	<rect x="113.6" y="195.8" class="st2" width="359.3" height="452"/>
	<g>
		<path class="st1" d="M113.6,655.3c11.9,0,23.7,0,35.6,0c28.7,0,57.3,0,86,0c34.5,0,69.1,0,103.6,0c29.9,0,59.8,0,89.6,0
			c14.6,0,29.3,0.7,43.9,0c0.2,0,0.4,0,0.6,0c4.1,0,7.5-3.4,7.5-7.5c0-15,0-30,0-45c0-36,0-72.1,0-108.1c0-43.4,0-86.8,0-130.3
			c0-37.7,0-75.3,0-113c0-18.2,0.7-36.6,0-54.8c0-0.3,0-0.5,0-0.8c0-4.1-3.4-7.5-7.5-7.5c-11.9,0-23.7,0-35.6,0c-28.7,0-57.3,0-86,0
			c-34.5,0-69.1,0-103.6,0c-29.9,0-59.8,0-89.6,0c-14.6,0-29.3-0.7-43.9,0c-0.2,0-0.4,0-0.6,0c-4.1,0-7.5,3.4-7.5,7.5
			c0,15,0,30,0,45c0,36,0,72.1,0,108.1c0,43.4,0,86.8,0,130.3c0,37.7,0,75.3,0,113c0,18.2-0.7,36.6,0,54.8c0,0.3,0,0.5,0,0.8
			c0,9.7,15,9.7,15,0c0-15,0-30,0-45c0-36,0-72.1,0-108.1c0-43.4,0-86.8,0-130.3c0-37.7,0-75.3,0-113c0-12.4,0-24.7,0-37.1
			c0-5.8,0.6-11.9,0-17.7c0-0.3,0-0.5,0-0.8c-2.5,2.5-5,5-7.5,7.5c11.9,0,23.7,0,35.6,0c28.7,0,57.3,0,86,0c34.5,0,69.1,0,103.6,0
			c29.9,0,59.8,0,89.6,0c9.9,0,19.9,0,29.8,0c4.5,0,9.5,0.6,14,0c0.2,0,0.4,0,0.6,0c-2.5-2.5-5-5-7.5-7.5c0,15,0,30,0,45
			c0,36,0,72.1,0,108.1c0,43.4,0,86.8,0,130.3c0,37.7,0,75.3,0,113c0,12.4,0,24.7,0,37.1c0,5.8-0.6,11.9,0,17.7c0,0.3,0,0.5,0,0.8
			c2.5-2.5,5-5,7.5-7.5c-11.9,0-23.7,0-35.6,0c-28.7,0-57.3,0-86,0c-34.5,0-69.1,0-103.6,0c-29.9,0-59.8,0-89.6,0
			c-14.6,0-29.3-0.7-43.9,0c-0.2,0-0.4,0-0.6,0C104,640.3,104,655.3,113.6,655.3z"/>
	</g>
</g>
<g>
	<g>
		<path class="st1" d="M83.5,99c0,16,0,32,0,48c0,9.7,15,9.7,15,0c0-16,0-32,0-48C98.5,89.3,83.5,89.3,83.5,99L83.5,99z"/>
	</g>
</g>
<g>
	<g>
		<path class="st1" d="M113.5,99c0,16,0,32,0,48c0,9.7,15,9.7,15,0c0-16,0-32,0-48C128.5,89.3,113.5,89.3,113.5,99L113.5,99z"/>
	</g>
</g>
<g>
	<g>
		<path class="st1" d="M147.5,99.3c0,16,0,32,0,48c0,9.7,15,9.7,15,0c0-16,0-32,0-48C162.5,89.6,147.5,89.6,147.5,99.3L147.5,99.3z"
			/>
	</g>
</g>
<g>
	<g>
		<path class="st1" d="M177.5,99.3c0,16,0,32,0,48c0,9.7,15,9.7,15,0c0-16,0-32,0-48C192.5,89.6,177.5,89.6,177.5,99.3L177.5,99.3z"
			/>
	</g>
</g>
<g>
	<g>
		<path class="st1" d="M211.5,99c0,16,0,32,0,48c0,9.7,15,9.7,15,0c0-16,0-32,0-48C226.5,89.3,211.5,89.3,211.5,99L211.5,99z"/>
	</g>
</g>
<g>
	<g>
		<path class="st1" d="M242.1,98c0,16,0,32,0,48c0,9.7,15,9.7,15,0c0-16,0-32,0-48C257.1,88.3,242.1,88.3,242.1,98L242.1,98z"/>
	</g>
</g>
<g>
	<g>
		<path class="st1" d="M273.1,98c0,16,0,32,0,48c0,9.7,15,9.7,15,0c0-16,0-32,0-48C288.1,88.3,273.1,88.3,273.1,98L273.1,98z"/>
	</g>
</g>
<g>
	<g>
		<path class="st1" d="M306.5,98c0,16,0,32,0,48c0,9.7,15,9.7,15,0c0-16,0-32,0-48C321.5,88.3,306.5,88.3,306.5,98L306.5,98z"/>
	</g>
</g>
<g>
	<g>
		<path class="st1" d="M338.8,98c0,16,0,32,0,48c0,9.7,15,9.7,15,0c0-16,0-32,0-48C353.8,88.3,338.8,88.3,338.8,98L338.8,98z"/>
	</g>
</g>
<g>
	<g>
		<path class="st1" d="M369.5,98c0,16,0,32,0,48c0,9.7,15,9.7,15,0c0-16,0-32,0-48C384.5,88.3,369.5,88.3,369.5,98L369.5,98z"/>
	</g>
</g>
<g>
	<g>
		<path class="st1" d="M401.5,98c0,16,0,32,0,48c0,9.7,15,9.7,15,0c0-16,0-32,0-48C416.5,88.3,401.5,88.3,401.5,98L401.5,98z"/>
	</g>
</g>
<g>
	<g>
		<path class="st1" d="M434.8,98c0,16,0,32,0,48c0,9.7,15,9.7,15,0c0-16,0-32,0-48C449.8,88.3,434.8,88.3,434.8,98L434.8,98z"/>
	</g>
</g>
<g>
	<g>
		<path class="st1" d="M465.5,98c0,16,0,32,0,48c0,9.7,15,9.7,15,0c0-16,0-32,0-48C480.5,88.3,465.5,88.3,465.5,98L465.5,98z"/>
	</g>
</g>
<g>
	<g>
		<path class="st1" d="M496.8,99.3c0,16,0,32,0,48c0,9.7,15,9.7,15,0c0-16,0-32,0-48C511.8,89.6,496.8,89.6,496.8,99.3L496.8,99.3z"
			/>
	</g>
</g>
<g>
	<g>
		<path class="st1" d="M90.5,701.3c0,16,0,32,0,48c0,9.7,15,9.7,15,0c0-16,0-32,0-48C105.5,691.6,90.5,691.6,90.5,701.3L90.5,701.3z
			"/>
	</g>
</g>
<g>
	<g>
		<path class="st1" d="M120.5,701.3c0,16,0,32,0,48c0,9.7,15,9.7,15,0c0-16,0-32,0-48C135.5,691.6,120.5,691.6,120.5,701.3
			L120.5,701.3z"/>
	</g>
</g>
<g>
	<g>
		<path class="st1" d="M154.5,701.6c0,16,0,32,0,48c0,9.7,15,9.7,15,0c0-16,0-32,0-48C169.5,692,154.5,692,154.5,701.6L154.5,701.6z
			"/>
	</g>
</g>
<g>
	<g>
		<path class="st1" d="M184.5,701.6c0,16,0,32,0,48c0,9.7,15,9.7,15,0c0-16,0-32,0-48C199.5,692,184.5,692,184.5,701.6L184.5,701.6z
			"/>
	</g>
</g>
<g>
	<g>
		<path class="st1" d="M218.5,701.3c0,16,0,32,0,48c0,9.7,15,9.7,15,0c0-16,0-32,0-48C233.5,691.6,218.5,691.6,218.5,701.3
			L218.5,701.3z"/>
	</g>
</g>
<g>
	<g>
		<path class="st1" d="M249.1,700.3c0,16,0,32,0,48c0,9.7,15,9.7,15,0c0-16,0-32,0-48C264.1,690.6,249.1,690.6,249.1,700.3
			L249.1,700.3z"/>
	</g>
</g>
<g>
	<g>
		<path class="st1" d="M280.1,700.3c0,16,0,32,0,48c0,9.7,15,9.7,15,0c0-16,0-32,0-48C295.1,690.6,280.1,690.6,280.1,700.3
			L280.1,700.3z"/>
	</g>
</g>
<g>
	<g>
		<path class="st1" d="M313.5,700.3c0,16,0,32,0,48c0,9.7,15,9.7,15,0c0-16,0-32,0-48C328.5,690.6,313.5,690.6,313.5,700.3
			L313.5,700.3z"/>
	</g>
</g>
<g>
	<g>
		<path class="st1" d="M345.8,700.3c0,16,0,32,0,48c0,9.7,15,9.7,15,0c0-16,0-32,0-48C360.8,690.6,345.8,690.6,345.8,700.3
			L345.8,700.3z"/>
	</g>
</g>
<g>
	<g>
		<path class="st1" d="M376.5,700.3c0,16,0,32,0,48c0,9.7,15,9.7,15,0c0-16,0-32,0-48C391.5,690.6,376.5,690.6,376.5,700.3
			L376.5,700.3z"/>
	</g>
</g>
<g>
	<g>
		<path class="st1" d="M408.5,700.3c0,16,0,32,0,48c0,9.7,15,9.7,15,0c0-16,0-32,0-48C423.5,690.6,408.5,690.6,408.5,700.3
			L408.5,700.3z"/>
	</g>
</g>
<g>
	<g>
		<path class="st1" d="M441.8,700.3c0,16,0,32,0,48c0,9.7,15,9.7,15,0c0-16,0-32,0-48C456.8,690.6,441.8,690.6,441.8,700.3
			L441.8,700.3z"/>
	</g>
</g>
<g>
	<g>
		<path class="st1" d="M472.5,700.3c0,16,0,32,0,48c0,9.7,15,9.7,15,0c0-16,0-32,0-48C487.5,690.6,472.5,690.6,472.5,700.3
			L472.5,700.3z"/>
	</g>
</g>
<g>
	<g>
		<path class="st1" d="M503.8,701.6c0,16,0,32,0,48c0,9.7,15,9.7,15,0c0-16,0-32,0-48C518.8,692,503.8,692,503.8,701.6L503.8,701.6z
			"/>
	</g>
</g>
<g>
	<path class="st3" d="M303.5,555.8l131.5-131.5c4.7-4.7,4.7-12.3,0-17L303.5,275.9c-4.7-4.7-12.3-4.7-17,0L155,407.4
		c-4.7,4.7-4.7,12.3,0,17l131.5,131.5C291.2,560.5,298.8,560.5,303.5,555.8z"/>
	<g>
		<path class="st4" d="M308.8,561.1c16.7-16.7,33.3-33.3,50-50c24-24,48.1-48.1,72.1-72.1c7.6-7.6,17.6-15.3,14.5-27.8
			c-2.1-8.4-11.1-15.1-16.9-21c-24.6-24.6-49.2-49.2-73.8-73.8c-11.2-11.2-22.4-22.4-33.7-33.7c-5.6-5.6-12.2-14.5-20.1-17
			c-12.7-4.1-20.6,5.7-28.5,13.6c-10.5,10.5-20.9,20.9-31.4,31.4c-25.2,25.2-50.4,50.4-75.6,75.6c-5.2,5.2-10.6,10.2-15.6,15.6
			c-7.6,8.2-7.3,19.8,0.3,27.9c1.9,2.1,4,4,6,6c23.2,23.2,46.4,46.4,69.6,69.6c18.4,18.4,36.3,37.4,55.2,55.2
			C289,568.4,300.4,568.6,308.8,561.1c7.2-6.4-3.4-17-10.6-10.6c-5.2,4.6-13.6-7.2-16.7-10.3c-10.3-10.3-20.6-20.6-30.8-30.8
			c-24.4-24.4-48.8-48.8-73.2-73.2c-5.5-5.5-11.9-10.8-16.8-16.8c-4.3-5.3,3.9-10.8,7.4-14.3c22.5-22.5,45-45,67.6-67.6
			c18.4-18.4,36.6-37.2,55.3-55.3c5.1-5,9.2,1,12.8,4.6c9,9,18,18,27,27c24.9,24.9,49.8,49.8,74.7,74.7c7.4,7.4,14.8,14.8,22.2,22.2
			c2.3,2.3,4.7,4.6,2.3,8.1c-1,1.4-2.6,2.7-3.9,3.9c-20.7,20.7-41.4,41.4-62.2,62.2s-41.4,41.4-62.2,62.2c-1.2,1.2-2.4,2.4-3.6,3.6
			C291.3,557.3,301.9,567.9,308.8,561.1z"/>
	</g>
</g>
<g>
	<path class="st5" d="M301.8,494.5l64.2-64.2c4.7-4.7,4.7-12.3,0-17l-64.2-64.2c-4.7-4.7-12.3-4.7-17,0l-64.2,64.2
		c-4.7,4.7-4.7,12.3,0,17l64.2,64.2C289.5,499.2,297.1,499.2,301.8,494.5z"/>
	<g>
		<path class="st6" d="M307.1,499.8c20.7-20.7,41.5-41.5,62.2-62.2c6.6-6.6,10.1-15.7,5.5-24.7c-2.2-4.4-6.6-7.9-10-11.4
			c-13-13-26-26-38.9-38.9c-5.2-5.2-10.5-10.5-15.7-15.7c-5.7-5.7-12.2-10.1-20.8-8.3c-6.4,1.3-10.3,5.7-14.6,10.1
			c-5.7,5.7-11.5,11.5-17.2,17.2c-12.6,12.6-25.1,25.1-37.7,37.7c-4.6,4.6-9.1,8.9-9.9,15.9c-1,8.3,3.4,14.1,8.9,19.5
			c12.4,12.4,24.7,24.7,37.1,37.1c5.9,5.9,11.8,11.8,17.7,17.7c3.9,3.9,7.5,8.3,12.7,10.3C293.6,507,301.3,505,307.1,499.8
			c7.2-6.4-3.4-17-10.6-10.6c-4.1,3.6-7.6-1.2-10.2-3.9c-4.9-4.9-9.7-9.7-14.6-14.6c-12.3-12.3-24.6-24.6-36.9-36.9
			c-2.8-2.8-6.3-5.6-8.7-8.7c-3.1-4-0.1-6.5,2.6-9.2c11-11,21.9-21.9,32.9-32.9c9.3-9.3,18.3-19.3,28.1-28.1c3.3-3,6-1.3,8.6,1.3
			c4.1,4.1,8.2,8.2,12.4,12.4c12.5,12.5,25,25,37.4,37.4c3.9,3.9,7.8,7.7,11.6,11.6c2.7,2.8,2.8,5.6,0.1,8.4
			c-20.1,20.8-40.9,40.9-61.3,61.3c-0.6,0.6-1.2,1.2-1.9,1.9C289.7,496,300.3,506.6,307.1,499.8z"/>
	</g>
</g>
<g>
	<path class="st7" d="M301.8,447.1l21.1-21.1c4.7-4.7,4.7-12.3,0-17l-21.1-21.1c-4.7-4.7-12.3-4.7-17,0L263.7,409
		c-4.7,4.7-4.7,12.3,0,17l21.1,21.1C289.5,451.8,297.1,451.8,301.8,447.1z"/>
	<g>
		<path class="st8" d="M307.1,452.5c4.2-4.2,8.4-8.4,12.7-12.7c4.6-4.6,10.8-9.4,13-15.7c3.3-9.5-1.3-17-7.7-23.5
			c-5.3-5.3-10.7-10.7-16-16c-6.8-6.8-16.2-10.3-25.3-5.2c-5.5,3.1-10.1,9-14.5,13.4c-4.4,4.4-9.9,8.8-13.4,14
			c-5.8,8.8-2.9,19,4.1,26c5.8,5.8,11.6,11.6,17.4,17.4C285.9,458.8,297.5,461,307.1,452.5c7.2-6.4-3.4-17-10.6-10.6
			c-4.2,3.7-7.9-1.5-10.6-4.3c-4.5-4.5-9-9-13.4-13.4c-2.9-2.9-6.6-5.6-3.4-9.8c2.8-3.7,6.9-6.9,10.2-10.2
			c3.5-3.5,6.9-7.7,10.7-10.7c3.9-3.1,6.5-0.3,9.2,2.5c4.5,4.5,9.1,9.1,13.6,13.6c2.4,2.4,7.6,5.9,5.8,9.9c-0.7,1.5-2.5,2.8-3.6,3.9
			c-2.3,2.3-4.6,4.6-6.8,6.8c-3.9,3.9-7.8,7.8-11.6,11.6C289.7,448.7,300.3,459.3,307.1,452.5z"/>
	</g>
</g>
</svg>
