<?xml version="1.0" encoding="utf-8"?>
<!-- Generator: Adobe Illustrator 22.1.0, SVG Export Plug-In . SVG Version: 6.00 Build 0)  -->
<svg version="1.1" id="Calque_1" xmlns="http://www.w3.org/2000/svg" xmlns:xlink="http://www.w3.org/1999/xlink" x="0px" y="0px"
	 viewBox="0 0 595.3 841.9" style="enable-background:new 0 0 595.3 841.9;" xml:space="preserve">
<style type="text/css">
	.st0{fill:#FFFAF1;}
	.st1{fill:#5A3911;}
	.st2{fill:#010202;}
	.st3{fill:none;stroke:#000000;stroke-miterlimit:10;}
	.st4{fill:#D28759;}
	.st5{fill:#DF0A45;}
	.st6{fill:#1779A8;}
	.st7{fill:#62102A;}
	.st8{fill:#542B12;}
</style>
<g>
	<rect x="51.6" y="120.5" class="st0" width="441.3" height="547.3"/>
	<g>
		<path class="st1" d="M51.6,673.8c14.6,0,29.3,0,43.9,0c35.2,0,70.3,0,105.5,0c42.4,0,84.7,0,127.1,0c36.8,0,73.6,0,110.4,0
			c17.8,0,35.9,0.7,53.7,0c0.3,0,0.5,0,0.8,0c3.2,0,6-2.7,6-6c0-18.3,0-36.5,0-54.8c0-43.5,0-87,0-130.4c0-52.7,0-105.5,0-158.2
			c0-45.6,0-91.1,0-136.7c0-22,0.8-44.3,0-66.3c0-0.3,0-0.6,0-1c0-3.2-2.7-6-6-6c-14.6,0-29.3,0-43.9,0c-35.2,0-70.3,0-105.5,0
			c-42.4,0-84.7,0-127.1,0c-36.8,0-73.6,0-110.4,0c-17.8,0-35.9-0.7-53.7,0c-0.3,0-0.5,0-0.8,0c-3.2,0-6,2.7-6,6
			c0,18.3,0,36.5,0,54.8c0,43.5,0,87,0,130.4c0,52.7,0,105.5,0,158.2c0,45.6,0,91.1,0,136.7c0,22-0.8,44.3,0,66.3c0,0.3,0,0.6,0,1
			c0,7.7,12,7.7,12,0c0-18.3,0-36.5,0-54.8c0-43.5,0-87,0-130.4c0-52.7,0-105.5,0-158.2c0-45.6,0-91.1,0-136.7c0-15,0-29.9,0-44.9
			c0-6.9,0.8-14.5,0-21.4c0-0.3,0-0.6,0-1c-2,2-4,4-6,6c14.6,0,29.3,0,43.9,0c35.2,0,70.3,0,105.5,0c42.4,0,84.7,0,127.1,0
			c36.8,0,73.6,0,110.4,0c12.1,0,24.2,0,36.3,0c5.6,0,11.8,0.8,17.4,0c0.2,0,0.5,0,0.8,0c-2-2-4-4-6-6c0,18.3,0,36.5,0,54.8
			c0,43.5,0,87,0,130.4c0,52.7,0,105.5,0,158.2c0,45.6,0,91.1,0,136.7c0,15,0,29.9,0,44.9c0,6.9-0.8,14.5,0,21.4c0,0.3,0,0.6,0,1
			c2-2,4-4,6-6c-14.6,0-29.3,0-43.9,0c-35.2,0-70.3,0-105.5,0c-42.4,0-84.7,0-127.1,0c-36.8,0-73.6,0-110.4,0
			c-17.8,0-35.9-0.7-53.7,0c-0.3,0-0.5,0-0.8,0C43.9,661.8,43.9,673.8,51.6,673.8z"/>
	</g>
</g>
<g>
	<rect x="88.3" y="158" class="st0" width="359.3" height="452"/>
	<g>
		<g>
			<g>
				<g>
					<path class="st1" d="M90.7,608.1c0,2.4,0.4,1.5,0.5,1.9C91.1,606,90.6,608.2,90.7,608.1z"/>
					<polygon class="st1" points="89.8,568.6 89.9,569.3 89.5,563.4 					"/>
					<path class="st1" d="M89.8,531.6c-0.7,3.5,0.1,13.4-0.1,20l-0.2,1.1l0.6,3C90,547.6,89.6,537.2,89.8,531.6z"/>
					<path class="st1" d="M91.3,511.9c-0.3,1.2-0.2-4.3-0.1,4.6c0-0.4,0-0.6,0.1-0.8C91.3,514.8,91.3,513.7,91.3,511.9z"/>
					<path class="st1" d="M91.3,515.6C91.3,519.5,91.5,513.1,91.3,515.6L91.3,515.6z"/>
					<path class="st1" d="M91.1,497.7l0.2,5.1c0.2-1.1,0.2-5.6,0.3-3.9C91.6,493.6,91.4,494.7,91.1,497.7z"/>
					<path class="st1" d="M90.6,492.8l0.1,2.7C90.8,495,90.8,494.3,90.6,492.8z"/>
					<path class="st1" d="M90.9,501.1l-0.2-5.6c-0.1,0.7-0.3,0.8,0.1,2.6C90.6,497.6,90.8,498.7,90.9,501.1z"/>
					<path class="st1" d="M90.8,504.3c-0.2,2.9-0.3,6.6-0.5,1.4C90.4,515.5,90.9,514.1,90.8,504.3z"/>
					<path class="st1" d="M89,529.7l-0.2,3.8l0.2,3.3C88.9,535.2,89.3,529.5,89,529.7z"/>
					<path class="st1" d="M91.5,465.7c-0.2-0.3-0.4,1.7-0.6,2.1l0.2,3.8C91.2,469.6,91.3,466,91.5,465.7z"/>
					<path class="st1" d="M90.9,467.8l-0.3-5.7C90.6,467.2,90.7,468.1,90.9,467.8z"/>
					<polygon class="st1" points="89.8,491.9 90.4,501.2 89.8,490.1 					"/>
					<polygon class="st1" points="91.5,444 91.9,447.3 91.4,441.5 					"/>
					<path class="st1" d="M91.5,429.7c0.3,2.4,0.5-3.3,0.7-0.7c-0.1-3.9-0.3-7.2-0.5-10.2C91.7,421.9,91.7,425.3,91.5,429.7z"/>
					<path class="st1" d="M91.3,413.7c0.1,1.6,0.2,3.2,0.3,5C91.5,417,91.5,415.3,91.3,413.7z"/>
					<path class="st1" d="M90.7,452.5c0.1-0.4,0.3-1.3,0.4-4.5l-0.4,2.2C90.7,450.9,90.7,451.7,90.7,452.5z"/>
					<path class="st1" d="M90.7,450.3L90.7,450.3c0-2.5,0-4.2,0-4.9C90.8,446,90.7,447.5,90.7,450.3z"/>
					<path class="st1" d="M90.7,453c0-0.2,0-0.4,0-0.6C90.7,452.7,90.7,452.8,90.7,453z"/>
					<path class="st1" d="M90.2,477c-0.2-3.3-0.5-10.3-0.9-3.6C89.6,475.8,89.9,472,90.2,477z"/>
					<path class="st1" d="M90.2,455.8l-0.1,6c0.1-0.1,0.3-1.2,0.4,0.4L90.2,455.8z"/>
					<polygon class="st1" points="90.1,452.9 90.2,455.8 90.2,453.6 					"/>
					<path class="st1" d="M90.9,424c-0.2-2.6-0.2-5.4-0.2-8.7c-0.1,3.4-0.1,7-0.1,10.4C90.7,426.2,90.9,427.7,90.9,424z"/>
					<path class="st1" d="M90.8,436.8c0-0.2,0-0.4,0-0.6C90.7,436.6,90.7,436.8,90.8,436.8z"/>
					<path class="st1" d="M90.7,383.7c0,0.2-0.1,0.3-0.1,0.5c0,0,0,0.1,0.1,0.1L90.7,383.7z"/>
					<path class="st1" d="M90.4,426.3c-0.1,2.6,0,4.1,0.2,5.6c0-1.9-0.1-4-0.1-6.2C90.5,425.5,90.4,425.5,90.4,426.3z"/>
					<path class="st1" d="M91.1,404.8c-0.1,1.3-0.2,2.9-0.2,4.5C91,408,91.2,405.3,91.1,404.8z"/>
					<path class="st1" d="M90.9,435.3c0,0.1,0,0.2,0,0.4C91,434.9,90.9,435,90.9,435.3z"/>
					<path class="st1" d="M90.9,435.3c-0.1-1.3-0.2-2.4-0.3-3.4c0,1.6,0.1,3,0.1,4.3C90.8,435.9,90.8,435.6,90.9,435.3z"/>
					<path class="st1" d="M87.9,374.1c0.4,0.5,0.8,7.3,0.3,13.1c0.3,5.8,1.6,2,2.3-3c-0.2-0.2-0.3-0.2-0.6-6.1
						c-0.2,2.1-0.5,13.2-0.9,8.2c-0.2-7.9,0.1-6.5,0.3-10.3c-0.5,3.3-0.7-10-1.4-8.3l0.3,6.9C88.2,374.7,88,372.2,87.9,374.1z"/>
					<path class="st1" d="M90.5,395.5l0,2.4c0.1-2.8,0.2-4.8,0.5-8.5c-0.2-4.1-0.3-4.9-0.5-5.2l-0.1,12.1L90.5,395.5z"/>
					<path class="st1" d="M90.6,409c-0.4-1.9-0.6-7.8-1.1-4.2c0,7.2,0.4,5,0.5,9.3C90,402.5,90.3,417.4,90.6,409
						c0,2.4,0,4.4,0.1,6.4c0.1-2.1,0.1-4.1,0.2-6c0,0.1,0,0.2,0,0.3l0,0.1l0,0c-0.1,0.5-0.1,0.7-0.1,0.1c0,0,0-0.2,0-0.2
						C90.7,409.4,90.6,409.2,90.6,409c0.1-3.4,0.1-0.5,0.2,0.5c0,0,0,0.1,0.1,0.1c0,0,0,0,0,0L90.6,398
						C90.5,400.4,90.5,403.5,90.6,409z"/>
					<path class="st1" d="M88.4,467.3c0-0.4,0.1-0.3,0.1-0.4C88.5,466.1,88.4,465.9,88.4,467.3z"/>
					<path class="st1" d="M88.7,462.5c0.1,0.8,0.2,1.5,0.2,4.3c-0.1,2.4-0.2,0-0.3,0.1c0.1,1.7,0.3,5.8,0.5,0.6l-0.1-0.8
						c0.1-4.7,0.7-10.7,0.7-9.9C89.3,458.2,89.1,459.4,88.7,462.5z"/>
					<path class="st1" d="M89.5,435.4l-0.2-9.7l-0.4,4.9l0.2-0.2C89.1,435.9,89.4,434.7,89.5,435.4z"/>
					<polygon class="st1" points="90.9,382.6 91.3,383.9 90.7,378.3 					"/>
					<polygon class="st1" points="90.8,370 91.2,370.5 91,367.1 					"/>
					<path class="st1" d="M450,296.1l0.1,2.8C450.1,297.6,450,296.7,450,296.1z"/>
					<path class="st1" d="M450,275.5l-0.2-0.5C449.9,276,450,276.3,450,275.5z"/>
					<path class="st1" d="M185,160.5c4.1,0.4,8.8,0.9,8.3,0.5l-1.3-0.4C189.1,160.7,186.9,160.6,185,160.5z"/>
					<path class="st1" d="M396.5,157.9c-0.4,0-0.8-0.1-1.2-0.1c-1,0.1-2,0.3-2.8,0.4C393.7,158.1,395,158,396.5,157.9z"/>
					<path class="st1" d="M399.4,156.1l5.5,0.3C403.6,156.3,401.9,156.2,399.4,156.1z"/>
					<path class="st1" d="M450.5,408.5l0.4,3.3C450.9,406.6,450.7,408.9,450.5,408.5z"/>
					<path class="st1" d="M90.7,241.2c0.2-3.6,0.2-6.4,0.3-8.9C90.7,236.6,90.3,240.1,90.7,241.2z"/>
					<path class="st1" d="M445.4,288c0.1,1.7,0.2,2.5,0.3,2.4C445.6,288.6,445.5,287.6,445.4,288z"/>
					<path class="st1" d="M90.9,222c0,0.6-0.1,1.2-0.1,1.9c0.1,2.6,0.1,5.2,0.1,8.4C91.1,229.2,91.2,225.5,90.9,222z"/>
					<path class="st1" d="M241.6,612.5c-0.3,0-0.7,0-0.9-0.1C240.5,612.5,241,612.5,241.6,612.5z"/>
					<path class="st1" d="M122.8,608.1c1.2,0,3.1,0,4.9,0C126.8,608.1,125.3,608.1,122.8,608.1z"/>
					<path class="st1" d="M91,319.4C91,322.1,91.1,319.8,91,319.4L91,319.4z"/>
					<path class="st1" d="M89.3,332.4c0-0.6-0.1-1-0.2-1.1C89.2,331.5,89.3,331.9,89.3,332.4z"/>
					<path class="st1" d="M88.2,195.5c0-0.1,0-0.1,0-0.2C88.1,196,88.2,195.9,88.2,195.5z"/>
					<path class="st1" d="M90.8,323.4c0.1-1,0.1-2.2,0.1-3.4C90.9,320.6,90.9,321.6,90.8,323.4z"/>
					<path class="st1" d="M91,322.9c0,0.9,0,1.6,0,2.3C91,325.6,91.1,325.3,91,322.9z"/>
					<path class="st1" d="M91,315.7c0,1.5,0,2.9,0,4.3c0-0.5,0.1-0.7,0.1-0.6C91,318.6,91,317.5,91,315.7z"/>
					<path class="st1" d="M448.9,597.7c0,0.2,0,0.4,0,0.6C449.1,600.9,449,599.8,448.9,597.7z"/>
					<path class="st1" d="M254.4,156c-0.1,0-0.2,0-0.3,0C254.2,156,254.4,156,254.4,156L254.4,156z"/>
					<path class="st1" d="M264,155.7c-4.1,0.5-6.4,0.5-9.5,0.4l3.2,1.3L264,155.7z"/>
					<path class="st1" d="M450.1,345.4l0.4-6.7c0.6,8.1,0.4,14,1,7.7c-1.4-1-0.1-26.1-1.5-27.1l0.3-4.4c0,1.3,0.1,1.5,0.1,2.7
						c0.7-8.6-1-6.4-0.8-17.5c0.1-3.9,0.3-6.6,0.5-3.9l-0.3-8.6c0-2.5,0.3-1.9,0.2,0.6l-0.1-13.2l0,0.1c-0.2-1.9-0.5-6.1-0.7-8.2
						c0.2-3.3,0.1,1.7,0.3,0.8l-0.3-7.3c0.4-3,0.7,3.1,0.6,8.1c1.4-6.8-0.3-6,0.5-20.7l0.2,6.9c0.8-4.4,0.5-9.8,1-17.6
						c-0.3,1.8-1.2,15.6-1.5,7.7c0.1-2.2,0.2-5.2-0.1-9.4c0.5,0,0.4-4.2,0.3-9.4l0.6,0.4c-0.2-5.6-0.5-5.2-0.8-8.5
						c0.1-6.3,0.6-7.6,1-9.1c0.1-10.1-0.8,6.9-0.9-5c0.2-8.4,0-14.2-0.4-24.2c0.2-5.9,0.4,1,0.6-1.1l-0.5-5.2c0-1.3,0.2-0.9,0.2-0.7
						c-0.2-4.4-0.6-0.4-0.8-7.2c-0.2-0.4-0.2-1.3-0.2-2.6c0.1-1.7,0.1-3.8,0.2-6.2c-1.6-0.1-3.3-0.1-5.1-0.2c-0.7,0-1.3-0.1-2-0.1
						c-0.7,0-1.3,0-2-0.1c-2.7-0.1-5.4,0-7.7,0.2c-2.1-0.2,1-0.4,0.4-0.6c-11.7,0.5-10,0.4-19.6,1.1l-8.2-0.4c6,0.5-1.7,1-8.4,1.5
						c2.1,0.2,3.9,0.4,5.2,0.5l-10.7,0.3c-1.3-0.1-0.2-0.3,1.5-0.6c-0.7,0.1-1.4,0.1-2,0.2c-3.8-0.2-1.8-0.6,0.9-1
						c1.3,0.1,2.6,0.3,3.9,0.4c2.6-0.4,5.1-0.8,4.6-1.2c-0.7,0.1-2,0.1-3.5,0.2c0.7-0.1,1.1-0.2,0.8-0.3c-0.4-0.1-1.5,0.1-3.2,0.2
						l-2.4-0.7l-0.6,0.3l-14-0.4c-10,0.7-18.8,1.8-34.7,2.1c3.9-0.5,0.8-0.9,1.1-1.5c4.3,0.7,12.3-0.3,20.6-0.1
						c-4.3-0.1-3.4-0.4-2.3-0.5l-14.7,0.6c0.3-0.5-3.1-0.4-7-0.6c2.9,1-11,0.7-17,1c-0.4-0.3,1.1-0.7,8.4-0.6
						c-8.1-0.8-10.4,1.2-18.3,0.5c1.8,0,2.7,0,3.4-0.1c-4.2,0.3-14.3,0.1-12-0.2l1.8,0c-11.8-0.1-36,0-37.8,0.8
						c-0.1-0.1,1.6-1,2.3-1.2l-21.1,2.9c1.9-0.7-5.3-2.5,4.5-2.9c-2.8-0.1-6.3-0.2-12.3,0c1.9,0.1,4.8,1.1,2.2,1.1
						c-7.2-0.8-5-0.4-13.9-1.1c2.9,0.2-0.3,1.3-4.9,1.3c0.7-0.2-0.4-1.1,1.3-1.3l-11.3,1.1c2.8-0.2,0.5-1-2-1.3
						c1.2,0.2-9.8,0-12.8,0.1l4.8,0.3c-12.8-0.2-12.6,1.6-25.3,1.5c1.5-0.2,3.8-1.4-2.7-1.6c-3,0.6-13.1,2.8-24.3,3.2l-2.2-0.3
						l-8.6,0.4c5.4-0.9,20.4-2.7,28.7-3.4c-4.8-0.3-1.3-0.4-8.5-0.4c-2.5-0.3,3.9-0.5,6-0.5l-16.7-0.2c0.7,0.7-12.8,0.7-12.1,1.2
						l18.1-0.7c0.7,0.7-10.5,1.9-22.3,1.8c-3-0.3,2.3-1.2,2-1.4c-1.5,0.2-11.2,0.4-12.3,0.3l5-0.4c-6.6-0.3-10.8,0.9-18.7,0.2
						c-2.7,0-8.2-0.9-8.6-0.5c4.5,0.8,5.3,3.1,2.4,3.7c-0.5,0-3.7-0.2-7.3-0.4c-1.8-0.1-3.7-0.2-5.3-0.3c-1.5-0.1-2.9-0.2-3.7-0.3
						c0,0.4,0,0.6-0.1,0.7c-0.3,1.8-0.6,0.6-0.9-1.7c0.9-0.2,2.1-0.4,2.8-0.5c0.7-0.2,0.8-0.3-0.8-0.5c-0.1,0.1-1.5,0.3-2.7,0.4
						c0.1,0.9,0.1,1.7,0.1,2.2c-0.1,1.9-0.2,1.4-0.3,1.6c-0.1,0.1-0.1,0.3-0.1,1.1c0,0.3,0,0.7,0,1.2c0,0.5,0,1.1,0,1.9
						c0.7,1-0.1,12.7,0.6,2.9c0.2,6.1-0.1,6.5-0.1,13.6c0.4-2.3,1.5,6.4,1.7,12.5c-0.2-0.4-0.4,1-0.5,1.7
						c-0.1,12.5-0.4,19.2-0.4,30.9c-0.2,1.1-0.4,6.7-0.7,4.3c0.1,1.7,0.4,3.2,0.4,6.8c-0.6,7-0.1-8-0.8-2.7
						c0.4,0.5,0.5,9.3,0.8,14.4c0.6-1.6,0.1-11.8-0.1-17c0.8,0,1.7,8.9,2.1,21.1c0.2,9.7-0.5,4.2-0.4,5.9
						c-0.1,18.2,1.5,15.5,0.9,30.6c-0.5,6-1.1,0.3-1.5,1.6c-0.2-7.9,0.3-12.1,0.3-17.5l-0.3,6.6c-0.2-2.5-0.3-7.8-0.2-10.6
						c-0.5,5-0.1,30.7-0.5,44.8c0.2,2.5,0.4,6.8,0.6,4.8l-0.1-4.4c0.4-4.1,0.6,8.4,0.8,2.7c0.3,6,0.8,12.6,0.5,21l-0.6,1.6
						c0.2-0.2,0.4-5.5,0.2-7.8c0.3,3.5-0.8,12.9,0,16.7l0.4-5.9c0.3,6,1,13.4,0.8,20.8c0.6-3.4-0.1-1.7,0.6-7
						c-0.9,4.6,0-19-0.9-11.7c0.8-5.4,0.3-9.4,1-16.5c-0.2,0.2-0.4,2.5-0.3-3.7c-0.1-0.3-0.1-0.9-0.2-1.4c0-0.2,0-0.3,0-0.4
						c0,0.1,0,0.2,0,0.3c0-0.3,0-0.3,0,0.1c-0.1,1.5-0.2,2.7-0.3,3.2c-0.5-3.1-0.4-13-0.7-16.4c0.1-3.7,0.2,1.5,0.4-0.5l-0.4-5
						c0.4-0.5,0.7-9.8,1-1.1l0-7.9c0.3-4.6,0.4-11,0.2-14.9c0.1-3.7-0.5-9.4-0.1-6.1l-0.3-12.3l0.1-0.1c0.1-12.1-0.7-25,0.1-38.9
						c-0.1-4.1-0.3-8.3-0.1-15.2l0.4-1.3c-0.1-5.2,0.4-15.8,0-18c0.5-2.5,0.6-7.9,0.5-13.8c0-3-0.1-6.1-0.1-9.1c0-1.5,0-3,0-4.4
						c0-0.3,0-0.6,0-0.8c0.2,0,0.4,0,0.6,0c0-0.2,0-0.3,0-0.5c1.6,0,3.1,0,4.6,0c1.6,0,3.2,0,4.8-0.1c3.3-0.1,6.8-0.2,10.7-0.2
						l-0.5-0.4c6.8-0.4,17.5,0.3,28.3,0.3c-0.7,0.2-3.5,0.1-5.4,0c12.9,1,27.1-0.7,38.8,0c2.9-0.2,5-0.1,7,0c-0.3,0-0.5,0-0.7,0
						c0.3,0,0.7,0,1.2,0c1.3,0.1,2.6,0.2,4,0.2c-1.2-0.1-2.4-0.2-3.4-0.2c2.2,0,5.6-0.1,9-0.2l1.4,0.5c0.3,0,0.5,0,0.8,0
						c3.3,0.2,2.6-0.2,0.9-0.6c1.7-0.1,3.2-0.2,4.4-0.3c2.7,0.8,8.7-0.3,12.4,0.6c2.2-0.4,16.7-0.3,18.5-1.2
						c0.1,0.1,1.1,0.2-0.7,0.2c3.7,0.1,7.4,0.2,10.8,0l1.6,0.6l8.1-0.8c4.9,0.4,7,0.6,2.1,1.1c11.8-0.7,9.6-0.3,19.6-1l-0.5,0.4
						c3.6,0,9.3-0.5,11.5-0.2c8,0.8,39.7,0.1,60.4,0.8c-4-1.2,9.6,0.5,10.4-0.4c1.2,0.3,4.1,0.4,0.7,0.7c10.5-0.3,15.8,0.4,23.1-0.3
						c1.2,0.3-2.3,0.4-1.2,0.6c0.8-0.1,3.3-0.2,4.4-0.1c1.1,0.2-1.5,0.2-3.2,0.4c10.7,0,11.8-0.9,12.6-1.7c5.4,0.4,8.2,0.3,12.1-0.2
						c1.9,0.3,5.1,0.5-1.6,0.6c3.8,0,23,0.4,23.3-0.3c1.2,0.2,5.3,0,6.2,0c4.2,0,6.5,0,8.8,0.1c1.1,0,2.3,0,3.6,0c1.1,0,2.5,0,4.2,0
						l-1.5-0.1c0.8-0.3,1.8-0.4,2.9-0.4c0,0.5,0,1,0,1.6c0,0.6,0,1.2-0.1,1.8c0,1.6-0.1,3.4-0.1,5.6l-0.1-0.2
						c-0.6,15.3,0.3,6.6-0.4,21.7l0.5-0.8c1,1.4-0.6,13.4-0.2,22.1l0.3-3.2c0.4,4.8-1.4,13.4-1.5,18.2c-0.1,1-0.1-1.7-0.2-3.1
						c-0.6,12.6,0.6,1.6,0.8,11c-0.3,1.7-0.9-2.2-0.9,4.1c-0.3,3.1,1.1,18.3,0.5,26.9c0.3-1.9,0.5-3.8,0.7,0.6
						c0.1,6.7-1,18-0.2,24.1c-0.1,0.8-0.1,1.2-0.2,1.2c0.2,5.1,0.4,16.6,0.8,19.7c-1.7,4.7,0.8,31.7-0.7,31.6l0.1,15.7l-0.2-0.4
						c-0.1,10,0.3,13.6,0.6,17.1c-0.1,2.3-0.2,0.6-0.3,0.4c-0.3,14.7-0.2,16.1,0.5,28.4l-0.5,1.3c0.3,3.3-0.8,21.2-0.2,35.6
						c-0.1-0.1-0.2-0.4-0.2-1.6c0.6,16.2-1.4,38.7,0.4,44.7l0.4,10.7c0.1-13.8,0.8,2.1,1.1-3.6c0.1,5.4-0.5,14-0.6,7.4l0.1-1
						c-0.9-2.5-0.3,17.2-1,16.8c0,27.2-0.5,53.7-0.5,79.1l0.7-2.9l0,8.9c-0.2,2.3-0.6,3.1-0.5-3.2c-0.4,3.3,0.3,10.6,0.5,10.8
						c0,0.3,0,0.5,0,0.8c0,0.2,0,0.3,0,0.5c0,0.3,0,0.5-0.1,0.7c0,0.4-0.1,0.6-0.1,0.6c-0.2,0-0.2-0.1-0.1-0.1
						c-0.1-0.2-0.1-0.6-0.2-1c0-0.2-0.1-0.4-0.1-0.6l0-0.3c0-0.1,0-0.1,0-0.4c-0.1-1.5-0.2-2.6-0.2-1.3l0,2l0,1.1l0.1-0.4
						c0,0.3,0.1,0.5,0.1,0.7c-0.3,0.1-0.6,0.1-0.8,0.2c-0.2,0-0.3,0.1-0.5,0.1c-0.1,0-0.2,0-0.3,0c-0.1,0-0.2,0-0.4,0
						c-1.5,0.1-3.4,0.1-6.7,0.1c-4.8-0.1-2.5-0.5-4.4-0.5c0,0-0.2,0-0.6-0.1s-1.2,0-2.3,0l-11.2-0.1l4.5,0.6c-5,0.3-10.5,0-5.4,0.6
						c-7.6-1-41.7-0.4-46.4-0.7c-6.9,0.4-13.8,0.4-22.3,0.4c2.1,0.1,3.4,0.8-3.9,0.7c2.7-1.3-13.4-0.6-19.3-1.5
						c5.3,0.6-20.8,0.2-12.5,1.1c-6.1-0.1-0.4-0.5-5-0.8c-14.5,0.5-32.1-0.3-50-0.2c-0.3,0.2,2.7,0.4-1.1,0.7l-9.5-0.9
						c-3.6,0.1-3.3,1-9.8,0.4c0.9,0.1,2.3,0.4-0.1,0.4c-35.2-0.9-72,0.7-107.7-0.9c4.8,0.3,1.6,0.4-2.1,0.4c2.4,0.1-0.1,0.4,0.4,0.7
						l-15-0.7c-2.7,0.7-16.1,0-17.6,0.7l4.7-0.1c-6.3,0.7,8.8,1.7,7.9,2.6c7.1-0.8,18.6,1.3,30.2,0c2.6,0.2-2.2,0.3-0.8,0.5
						c2.9-0.4,6.5-0.5,13.1-0.3l-0.7,0.1c18.5-0.1,26.4,0.3,47.1,0.6l-1.5-0.5c4.5,0.1,5.4,0.2,7.5,0.3c5.1-0.7-12.5,0-7.9-0.8
						c5.9,1,31.4,0,35.4,1.1c6.9,0-2-0.5,4.8-0.5l1.8,0.3l1.7-0.4c4.5,0.1,6.8,0.4,6.9,0.7c-1.1,0-3.1,0.1-4.3,0.1
						c5.8,0.3,16.4-0.1,18.4,0l-6.6-0.2c18.7-0.3,41.6,0.1,59.6-0.5l-1.4-0.2c13.8-0.4,11.1,0.2,26.2,0.1l-0.6,0.1
						c3-0.2,7.1-0.3,11.2-0.3c-3.8,0.3,7.2,0.5,2.2,0.8c15-0.4,7.4-0.3,17.3-1.2l2.3,0.4c3.4-0.3,3.7-0.5,11.2-0.6
						c-6.2,0.3,4.8,0.6-2.1,1c15.9,0.8,23.6-0.8,30.9,0.4c7.3-1-13.7-0.6-9.7-0.8c-3.4-0.3,6-0.8,11-0.7c5.1,0,8.6,1.3,21.4,1.3
						c-1.3,0-1.4,0.1-2.6,0.1c2.4,0.1,4.7,0,7.2,0c1.2,0,2.5-0.1,3.8-0.1c0.7,0,1.3,0,2,0c1,0,2.1,0.1,3.2,0.1
						c0.9-0.1,1.8-0.2,2.8-0.2c0-1.1-0.1-2.2-0.1-3.2c0-1,0-1.9,0-2.8c0-1.2-0.1-2.1-0.4-2.5l0.1,8l-6.6,0.1c1,0,2-0.1,3-0.1
						c1.1-0.1,2.2-0.1,3.4-0.2c-0.1-1.7-0.2-3.4-0.2-5.1c-0.1-1.4-0.2-2.8-0.2-4.3c-0.1-3-0.1-6.4,0-10.5c0.2,0.9,0.4,4.1,0.5,6.3
						c0.2-3.2-0.2-6.2,0.1-9.5c0.4,0.5,0.4,4,0.5,8.4c0,2.2,0,4.5,0.1,6.8c0,1.2,0.1,2.4,0.1,3.5c0,1.6,0.1,3.1,0.2,4.6
						c0.1-1.2,0.1-3.4,0.1-5.4c0-1.4-0.1-2.8-0.1-4.1c-0.1-2.5-0.1-4.1,0.3-2.3c-1.1-5.1,0.1-12.6-0.7-21.2l0.5,0.6
						c-0.1-1.4-0.3-4.2-0.3-6.7l0.6,4.6c-0.5-7,0.5-13.5,0.2-20.2c0,14.1-0.6,3.2-0.9,9.1c-0.6-17.3,1.2-10,1-29.4
						c0.1,2.6-0.3,9.9-0.5,5.8c0.1-3.7,0.3-8.6,0.5-10.8c-0.1-12.9-0.5,2-0.8-3.5c0.6-4.4-0.2-6.3-0.4-12l0.5,0
						c0.3-14.7-1-3.9-0.6-17.1l0.7,5.6l-0.2-6.9l0.5,1.4c-0.4-7.5-0.3-9.8-0.1-17.1c-0.3,1.7-0.9-1-0.9-7.4c0.3-4.4,0.5,2.5,0.4-6.7
						c0.3,2.1,0.7,4.4,0.2,8.4c0.2,0.4,0.3,2,0.5,2.5c0.3-4.8,0.1-12,0.1-15.3c0,1.3,0,2.8-0.1,3.6l-0.7-13.3
						c0.2-2.1,0.3-0.4,0.5,1.2c-0.1-2.7-0.3-4.6-0.3-8.5c0.4,1,0.8,0.8,1,6.4l-0.4-12.7c0.2-0.8,0.5-6.5,0.6-4.9
						c0.2-7-0.8-17.3-0.5-26.6c-0.1-0.5-0.1-1.5-0.2-3.4c0.1-8.8,0.6-16.6,0-27l0.7-5.9c-0.2-8.1-0.9,8-1.2-5.6
						c-0.2-9.6,0.6-3.6,0.8-7c-0.4-4.8-1.1-13.1-0.5-21.9C450.2,340.3,450.1,342.6,450.1,345.4z M449.8,244.9
						c0.1,1.9,0.4,5.8,0.1,7.3C449.4,249.9,449.6,248.2,449.8,244.9z M381.7,157c1.4-0.2,3.7-0.1,6.2,0.1
						C386.1,157.1,384,157.1,381.7,157z M90.6,290.2c0-0.1,0-0.1,0-0.2C90.8,285.6,90.7,287.2,90.6,290.2z M90.4,299.2
						c0.1,0.9,0.1,0.8,0.2,0.5c-0.1-0.6-0.1-2.7-0.1-5C90.4,295.4,90.3,296.5,90.4,299.2z M431.5,608.1l1.8,0.1
						C429.3,608.4,430.4,608.2,431.5,608.1z"/>
					<path class="st1" d="M399,156.3c0.6,0.1,0.7,0.2,0.8,0.3C400.6,156.5,400.6,156.4,399,156.3z"/>
					<path class="st1" d="M450.4,407.9l0,0.3c0,0.2,0.1,0.3,0.1,0.3L450.4,407.9z"/>
					<path class="st1" d="M86.3,158.3c0-0.9,0.1-1.7,0.1-2.1c1.6,0.1,2.5,0.1,3.2,0.2c0.1-0.1-0.7-0.2-3.3-0.2
						C86.3,156.6,86.3,157.4,86.3,158.3z"/>
					<path class="st1" d="M91.2,347l-0.1-5.8c0,2.8-0.1,3.8-0.2,5.2C91.1,346.3,91.2,345.2,91.2,347z"/>
					<path class="st1" d="M88.2,397.2c0.1,0.8,0,1.8,0.1,2.6l0.2-0.2C88.5,396,88.3,393.4,88.2,397.2z"/>
					<path class="st1" d="M89.6,352.4c-0.4,0.5-0.3,4.1-0.2,8.1c0-0.2,0-0.5,0-0.7C90,361,89.8,356.7,89.6,352.4z"/>
					<path class="st1" d="M89.4,361.4c0,1.2,0,2.5,0,3.7C89.7,365.6,89.5,363.7,89.4,361.4z"/>
					<path class="st1" d="M90.7,310.7c-0.1,1.9,0.5,1.2,0.4,2.3C91.5,315.1,90.4,300.2,90.7,310.7z"/>
					<polygon class="st1" points="88.3,355.6 88.8,354.2 88.4,351.9 					"/>
					<path class="st1" d="M88.7,323.7l-0.1,6.5c0.1-0.1,0.1,0.7,0.2,1.7C88.7,327.9,88.8,323.5,88.7,323.7z"/>
					<path class="st1" d="M88.7,331.9c0,2.1,0,4.1,0.1,5.2C88.8,336,88.7,333.6,88.7,331.9z"/>
					<polygon class="st1" points="88.1,346.8 88.2,344.9 88.3,340.3 					"/>
					<path class="st1" d="M88.7,254.2l-0.1-7.1c-0.2-0.7-0.3,1.2-0.2,3.8C88.5,252.6,88.6,255.2,88.7,254.2z"/>
					<path class="st1" d="M87.4,275.5c0.1-1.9,0.2-2,0.4-3.1l-0.6-0.2L87.4,275.5z"/>
					<path class="st1" d="M87.2,254.9c-0.2-0.7-0.5-10.2-0.5-1.3C86.9,254.3,87.1,261.4,87.2,254.9z"/>
					<polygon class="st1" points="97.7,157.8 95.9,157.8 96.2,158.8 					"/>
					<path class="st1" d="M191.5,155.3c-8.4-0.2-2,0.6-9.5,0.3c-2,0.2,6.2,0.2,4.2,0.5C191.1,155.8,193.8,156,191.5,155.3z"/>
					<path class="st1" d="M186.1,156.1c-0.8,0-1.7,0.1-2.6,0.2C185,156.2,185.7,156.1,186.1,156.1z"/>
					<polygon class="st1" points="103.1,607.6 97.7,607.4 101.2,607.7 					"/>
					<path class="st1" d="M92.8,608.3l-1.3-0.6l-3.2,0.6C89.5,608.2,91.9,608.2,92.8,608.3z"/>
					<path class="st1" d="M451.1,229.9l-0.2-0.4c-0.2,0.8-0.2,2.1-0.2,4.6L451.1,229.9z"/>
					<polygon class="st1" points="450.6,302.9 450.6,301.6 450.1,304 					"/>
					<path class="st1" d="M451.4,364.1c0-2.5-0.1-5.4-0.1-7.9C451.4,361.6,450.6,364.8,451.4,364.1z"/>
				</g>
			</g>
		</g>
	</g>
</g>
<g>
	<g>
		<g>
			<g>
				<g>
					<path class="st1" d="M68.4,645.7c0,2.7,0.4,1.7,0.5,2.1C68.8,643.4,68.3,645.8,68.4,645.7z"/>
					<polygon class="st1" points="67.5,601.3 67.7,602.1 67.2,595.5 					"/>
					<path class="st1" d="M67.5,559.8c-0.7,3.9,0.1,15.1-0.1,22.5l-0.2,1.2l0.6,3.3C67.7,577.8,67.3,566.1,67.5,559.8z"/>
					<path class="st1" d="M69,537.6c-0.3,1.4-0.2-4.8-0.1,5.2c0-0.5,0-0.6,0.1-0.9C69,541,69,539.7,69,537.6z"/>
					<path class="st1" d="M69,541.8C69,546.2,69.3,539,69,541.8L69,541.8z"/>
					<path class="st1" d="M68.9,521.6l0.2,5.8c0.2-1.2,0.2-6.3,0.3-4.4C69.3,517.1,69.1,518.3,68.9,521.6z"/>
					<path class="st1" d="M68.3,516.2l0.1,3C68.5,518.6,68.5,517.9,68.3,516.2z"/>
					<path class="st1" d="M68.7,525.5l-0.2-6.3c-0.1,0.8-0.3,0.9,0.1,2.9C68.3,521.6,68.5,522.8,68.7,525.5z"/>
					<path class="st1" d="M68.6,529.1c-0.2,3.2-0.3,7.4-0.5,1.6C68.2,541.7,68.7,540.1,68.6,529.1z"/>
					<path class="st1" d="M66.8,557.6l-0.2,4.3l0.2,3.7C66.7,563.8,67,557.4,66.8,557.6z"/>
					<path class="st1" d="M69.2,485.7c-0.2-0.4-0.4,1.9-0.6,2.4l0.2,4.3C68.9,490.2,69,486,69.2,485.7z"/>
					<path class="st1" d="M68.6,488.1l-0.3-6.4C68.3,487.4,68.5,488.5,68.6,488.1z"/>
					<polygon class="st1" points="67.6,515.2 68.1,525.6 67.5,513.1 					"/>
					<polygon class="st1" points="69.3,461.4 69.6,465 69.1,458.6 					"/>
					<path class="st1" d="M69.2,445.3c0.3,2.7,0.5-3.7,0.7-0.8c-0.1-4.4-0.3-8.1-0.5-11.5C69.5,436.5,69.4,440.4,69.2,445.3z"/>
					<path class="st1" d="M69,427.3c0.1,1.8,0.2,3.6,0.3,5.7C69.3,431.1,69.2,429.2,69,427.3z"/>
					<path class="st1" d="M68.5,470.9c0.1-0.5,0.3-1.4,0.4-5l-0.4,2.5C68.5,469.2,68.5,470,68.5,470.9z"/>
					<path class="st1" d="M68.4,468.5L68.4,468.5c0-2.8,0-4.7,0-5.5C68.5,463.7,68.5,465.3,68.4,468.5z"/>
					<path class="st1" d="M68.5,471.5c0-0.2,0-0.4,0-0.6C68.4,471.1,68.4,471.3,68.5,471.5z"/>
					<path class="st1" d="M67.9,498.5c-0.2-3.7-0.5-11.5-0.9-4C67.4,497.1,67.6,492.8,67.9,498.5z"/>
					<path class="st1" d="M67.9,474.6l-0.1,6.8c0.1-0.1,0.3-1.4,0.4,0.5L67.9,474.6z"/>
					<polygon class="st1" points="67.8,471.3 67.9,474.6 68,472.1 					"/>
					<path class="st1" d="M68.6,438.9c-0.2-2.9-0.2-6.1-0.2-9.7c-0.1,3.9-0.1,7.9-0.1,11.7C68.4,441.4,68.6,443,68.6,438.9z"/>
					<path class="st1" d="M68.5,453.3c0-0.2,0-0.5,0-0.6C68.4,453,68.4,453.3,68.5,453.3z"/>
					<path class="st1" d="M68.4,393.6c0,0.2-0.1,0.4-0.1,0.6c0,0,0,0.1,0.1,0.1L68.4,393.6z"/>
					<path class="st1" d="M68.2,441.5c-0.1,2.9,0,4.6,0.2,6.3c0-2.2-0.1-4.5-0.1-7C68.2,440.6,68.2,440.5,68.2,441.5z"/>
					<path class="st1" d="M68.8,417.4c-0.1,1.5-0.2,3.2-0.2,5C68.7,420.9,68.9,417.9,68.8,417.4z"/>
					<path class="st1" d="M68.6,451.6c0,0.1,0,0.3,0,0.4C68.7,451.1,68.7,451.2,68.6,451.6z"/>
					<path class="st1" d="M68.6,451.6c-0.1-1.5-0.2-2.7-0.3-3.9c0,1.8,0.1,3.4,0.1,4.8C68.5,452.3,68.5,451.9,68.6,451.6z"/>
					<path class="st1" d="M65.6,382.8c0.4,0.5,0.8,8.2,0.3,14.8c0.3,6.5,1.6,2.2,2.3-3.4c-0.2-0.2-0.3-0.2-0.6-6.9
						c-0.2,2.3-0.5,14.8-0.9,9.2c-0.2-8.9,0.1-7.3,0.3-11.6c-0.5,3.7-0.7-11.3-1.4-9.3l0.3,7.8C65.9,383.5,65.7,380.7,65.6,382.8z"
						/>
					<path class="st1" d="M68.3,406.9l0,2.8c0.1-3.1,0.2-5.4,0.5-9.5c-0.2-4.6-0.3-5.5-0.5-5.8l-0.1,13.5L68.3,406.9z"/>
					<path class="st1" d="M68.3,422c-0.4-2.1-0.6-8.8-1.1-4.7c0,8.1,0.4,5.7,0.5,10.5c-0.1-13,0.2,3.7,0.5-5.7
						c0.1,2.6,0.1,4.9,0.1,7c0.1-2.3,0.1-4.6,0.2-6.7c0,0.1,0,0.2,0,0.3l0,0.1l0,0c-0.1,0.6-0.1,0.7-0.1,0.1c0,0,0-0.2,0-0.3
						C68.4,422.5,68.4,422.3,68.3,422c0.1-3.8,0.1-0.6,0.2,0.6c0,0,0,0.1,0.1,0.2c0,0,0,0,0,0l-0.2-13
						C68.3,412.4,68.3,415.9,68.3,422z"/>
					<path class="st1" d="M66.2,487.5c0-0.4,0.1-0.4,0.1-0.4C66.2,486.2,66.2,485.9,66.2,487.5z"/>
					<path class="st1" d="M66.4,482.1c0.1,0.9,0.2,1.7,0.2,4.8c-0.1,2.7-0.2,0-0.3,0.1c0.1,1.9,0.3,6.5,0.5,0.7l-0.1-0.9
						c0.1-5.3,0.7-12,0.7-11.1C67.1,477.3,66.8,478.6,66.4,482.1z"/>
					<path class="st1" d="M67.3,451.7L67,440.8l-0.4,5.5l0.2-0.3C66.8,452.3,67.1,450.9,67.3,451.7z"/>
					<polygon class="st1" points="68.6,392.4 69.1,393.8 68.4,387.5 					"/>
					<polygon class="st1" points="68.5,378.3 68.9,378.8 68.7,375 					"/>
					<path class="st1" d="M472,295.2l0.1,3.2C472.1,296.9,472.1,295.9,472,295.2z"/>
					<path class="st1" d="M472,272.1l-0.2-0.6C472,272.6,472,273.1,472,272.1z"/>
					<path class="st1" d="M174.7,142.6c4.7,0.4,9.8,0.9,9.3,0.5l-1.4-0.4C179.3,142.8,176.8,142.7,174.7,142.6z"/>
					<path class="st1" d="M412.2,140c-0.4,0-0.9-0.1-1.4-0.1c-1.1,0.1-2.2,0.3-3.1,0.4C409.1,140.2,410.6,140.1,412.2,140z"/>
					<path class="st1" d="M415.5,138.2l6.1,0.3C420.2,138.4,418.3,138.3,415.5,138.2z"/>
					<path class="st1" d="M472.5,421.5l0.4,3.7C472.9,419.4,472.7,421.9,472.5,421.5z"/>
					<path class="st1" d="M68.4,233.6c0.2-4,0.2-7.2,0.3-10C68.4,228.4,68,232.3,68.4,233.6z"/>
					<path class="st1" d="M467.4,286.1c0.1,2,0.2,2.8,0.3,2.7C467.6,286.8,467.5,285.7,467.4,286.1z"/>
					<path class="st1" d="M68.6,212c0,0.7-0.1,1.4-0.1,2.1c0.1,2.9,0.1,5.9,0.1,9.5C68.8,220,68.9,216,68.6,212z"/>
					<path class="st1" d="M238.2,650.3c-0.3,0-0.7,0-1-0.1C237,650.3,237.5,650.3,238.2,650.3z"/>
					<path class="st1" d="M104.8,646c1.3,0,3.5,0,5.5,0C109.3,645.9,107.6,645.9,104.8,646z"/>
					<path class="st1" d="M68.7,321.4C68.8,324.4,68.8,321.9,68.7,321.4L68.7,321.4z"/>
					<path class="st1" d="M67,336c0-0.6-0.1-1.1-0.2-1.2C66.9,335,67,335.5,67,336z"/>
					<path class="st1" d="M65.9,182.2c0-0.1,0-0.2,0-0.3C65.9,182.8,65.9,182.7,65.9,182.2z"/>
					<path class="st1" d="M68.5,325.9c0.1-1.1,0.1-2.4,0.1-3.8C68.6,322.7,68.6,323.9,68.5,325.9z"/>
					<path class="st1" d="M68.7,325.3c0,1,0,1.8,0,2.6C68.8,328.3,68.8,328,68.7,325.3z"/>
					<path class="st1" d="M68.7,317.3c0,1.7,0,3.3,0,4.8c0-0.6,0.1-0.8,0.1-0.7C68.7,320.6,68.7,319.3,68.7,317.3z"/>
					<path class="st1" d="M471,634c0,0.2,0,0.4,0,0.6C471.1,637.7,471.1,636.3,471,634z"/>
					<path class="st1" d="M252.6,138.1c-0.1,0-0.2,0-0.3,0c0.1,0,0.3,0,0.4,0L252.6,138.1z"/>
					<path class="st1" d="M263.4,137.8c-4.6,0.5-7.2,0.5-10.7,0.4l3.6,1.3L263.4,137.8z"/>
					<path class="st1" d="M472.1,350.6l0.4-7.6c0.6,9.1,0.4,15.7,1,8.6c-1.4-1.1-0.1-29.4-1.5-30.4l0.3-5c0,1.4,0.1,1.7,0.1,3.1
						c0.7-9.7-1-7.2-0.8-19.7c0.1-4.3,0.3-7.4,0.5-4.4l-0.3-9.7c0-2.8,0.3-2.1,0.2,0.7l-0.1-14.8l0,0.1c-0.2-2.1-0.5-6.9-0.7-9.2
						c0.2-3.8,0.1,1.9,0.3,0.9l-0.3-8.2c0.4-3.3,0.7,3.4,0.6,9.1c1.4-7.6-0.3-6.8,0.5-23.3l0.2,7.7c0.8-5,0.5-11,1-19.7
						c-0.3,2.1-1.2,17.5-1.5,8.6c0.1-2.5,0.2-5.8-0.1-10.6c0.5,0,0.4-4.7,0.3-10.6l0.6,0.4c-0.2-6.3-0.5-5.8-0.8-9.6
						c0.1-7.1,0.6-8.5,1-10.2c0.1-11.3-0.8,7.8-0.9-5.6c0.2-9.4,0-16-0.4-27.2c0.2-6.6,0.4,1.1,0.6-1.2l-0.5-5.8
						c0-1.4,0.2-1,0.2-0.7c-0.2-4.9-0.6-0.4-0.8-8.1c-0.2-0.5-0.2-1.5-0.2-2.9c0.1-1.8,0.1-4.1,0.2-6.7c-1.8-0.1-3.7-0.1-5.6-0.2
						c-1.4-0.1-2.9-0.1-4.4-0.2c-3-0.1-6,0-8.7,0.2c-2.4-0.2,1.1-0.4,0.4-0.6c-13.1,0.5-11.2,0.4-22,1.1l-9.2-0.4
						c6.7,0.5-1.9,1-9.4,1.5c2.4,0.2,4.4,0.4,5.8,0.5l-12,0.3c-1.5-0.1-0.2-0.3,1.7-0.6c-0.8,0.1-1.6,0.1-2.2,0.2
						c-4.3-0.2-2.1-0.6,1-1c1.5,0.1,2.9,0.3,4.3,0.4c3-0.4,5.8-0.8,5.1-1.2c-0.8,0.1-2.3,0.1-3.9,0.2c0.8-0.1,1.3-0.2,0.9-0.3
						c-0.4-0.1-1.7,0.1-3.6,0.2l-2.7-0.7l-0.7,0.3l-15.7-0.4c-11.3,0.7-21.1,1.8-38.9,2.1c4.4-0.5,1-0.9,1.2-1.5
						c4.9,0.7,13.8-0.3,23.1-0.1c-4.8-0.1-3.8-0.4-2.5-0.5l-16.5,0.6c0.4-0.5-3.5-0.4-7.8-0.6c3.3,1-12.3,0.7-19,1
						c-0.4-0.3,1.2-0.7,9.4-0.6c-9.1-0.8-11.7,1.2-20.6,0.5c2,0,3.1,0,3.9-0.1c-4.7,0.3-16.1,0.1-13.4-0.2l2,0
						c-13.3-0.1-40.5,0-42.5,0.8c-0.1-0.1,1.7-1,2.5-1.2l-23.7,2.9c2.1-0.7-5.9-2.5,5.1-2.9c-3.2-0.1-7.1-0.2-13.8,0
						c2.2,0.1,5.4,1.1,2.4,1.1c-8.1-0.8-5.6-0.4-15.6-1.1c3.2,0.2-0.4,1.3-5.5,1.3c0.8-0.2-0.4-1.1,1.4-1.3l-12.7,1.1
						c3.2-0.2,0.6-1-2.3-1.3c1.3,0.2-11,0-14.4,0.1l5.4,0.3c-14.4-0.2-14.2,1.6-28.5,1.5c1.7-0.2,4.3-1.4-3-1.6
						c-3.3,0.6-14.7,2.8-27.3,3.2l-2.4-0.3l-9.7,0.4c6-0.9,23-2.7,32.2-3.4c-5.4-0.3-1.5-0.4-9.6-0.4c-2.8-0.3,4.4-0.5,6.8-0.5
						l-18.8-0.2c0.8,0.7-14.3,0.7-13.6,1.2l20.4-0.7c0.8,0.7-11.8,1.9-25.1,1.8c-3.4-0.3,2.5-1.2,2.3-1.4
						c-1.7,0.2-12.6,0.4-13.8,0.3l5.6-0.4c-7.4-0.3-12.1,0.9-21,0.2c-3.1,0-9.2-0.9-9.7-0.5c5,0.8,6,3.1,2.6,3.7
						c-0.5,0-4.2-0.2-8.2-0.4c-2-0.1-4.1-0.2-6-0.3c-0.9-0.1-1.6-0.1-2.4-0.2c-0.7-0.1-1.4-0.1-1.9-0.2c0,0.5,0,0.6-0.1,0.8
						c-0.1,1-0.3,1.2-0.4,0.8c-0.2-0.4-0.3-1.4-0.5-2.6c1-0.2,2.4-0.4,3.2-0.5c0.8-0.2,0.9-0.3-0.8-0.5c-0.1,0.1-1.7,0.3-3.1,0.4
						c0.1,1,0.1,1.9,0.1,2.5c-0.1,2.1-0.2,1.7-0.3,1.8c0,0-0.1,0.1-0.1,0.3c0,0.1,0,0.2,0,0.4c0,0.1,0,0.3,0,0.5c0,0.6,0,1.6,0,3.4
						c0.7,1.2-0.1,14.2,0.6,3.3c0.2,6.9-0.1,7.3-0.1,15.3c0.4-2.6,1.5,7.2,1.7,14.1c-0.2-0.4-0.4,1.1-0.5,1.9
						c-0.1,14-0.4,21.6-0.4,34.7c-0.2,1.2-0.4,7.5-0.7,4.8c0.1,1.9,0.4,3.6,0.4,7.7c-0.6,7.8-0.1-9-0.8-3c0.4,0.5,0.5,10.4,0.8,16.2
						c0.6-1.8,0.1-13.3-0.1-19.1c0.8,0,1.7,10,2.1,23.7c0.2,10.9-0.5,4.7-0.4,6.6c-0.1,20.4,1.5,17.4,0.9,34.4
						c-0.5,6.7-1.1,0.3-1.5,1.8c-0.2-8.9,0.3-13.6,0.3-19.6l-0.3,7.4c-0.2-2.8-0.3-8.7-0.2-12c-0.5,5.6-0.1,34.5-0.5,50.3
						c0.2,2.8,0.4,7.6,0.6,5.3l-0.1-5c0.4-4.6,0.6,9.4,0.8,3.1c0.3,6.7,0.8,14.2,0.5,23.6l-0.6,1.8c0.2-0.2,0.4-6.2,0.2-8.8
						c0.3,3.9-0.8,14.4,0,18.7l0.4-6.6c0.3,6.7,1,15,0.8,23.4c0.6-3.8-0.1-1.9,0.6-7.9c-0.9,5.1,0-21.4-0.9-13.1
						c0.8-6.1,0.3-10.5,1-18.5c-0.2,0.2-0.4,2.8-0.3-4.2c-0.1-0.3-0.1-1.1-0.2-1.5c0-0.2,0-0.3,0-0.5c0,0.1,0,0.2,0,0.4
						c0-0.3,0-0.3,0,0.1c-0.1,1.7-0.2,3-0.3,3.6c-0.5-3.5-0.4-14.6-0.7-18.4c0.1-4.2,0.2,1.7,0.4-0.5l-0.4-5.6c0.4-0.6,0.7-11,1-1.3
						l0-8.8c0.3-5.2,0.4-12.3,0.2-16.7c0.1-4.2-0.5-10.5-0.1-6.9L68.4,258l0.1-0.1c0.1-13.6-0.7-28.1,0.1-43.7
						c-0.1-4.6-0.3-9.3-0.1-17l0.4-1.5c-0.1-5.9,0.4-17.7,0-20.2c0.5-2.8,0.6-8.8,0.5-15.5c-0.1-5.6-0.1-11.8-0.2-16.5
						c0.2,0,0.5,0,0.7,0c0,0,0-0.1,0-0.1l0.1-0.1l0.2-0.3c7.1,0,14-0.1,22.9-0.3l-0.5-0.4c7.6-0.4,19.6,0.3,31.7,0.3
						c-0.8,0.2-3.9,0.1-6.1,0c14.4,1,30.5-0.7,43.6,0c3.3-0.2,5.6-0.1,7.9,0c-0.3,0-0.6,0-0.8,0c0.3,0,0.8,0,1.3,0
						c1.4,0.1,2.9,0.2,4.5,0.2c-1.4-0.1-2.7-0.2-3.8-0.2c2.5,0,6.3-0.1,10.1-0.2l1.6,0.5c0.3,0,0.5,0,0.9,0c3.7,0.2,3-0.2,1-0.6
						c1.9-0.1,3.6-0.2,4.9-0.3c3,0.8,9.8-0.3,13.9,0.6c2.5-0.4,18.8-0.3,20.8-1.2c0.1,0.1,1.2,0.2-0.8,0.2c4.2,0.1,8.3,0.2,12.1,0
						l1.8,0.6l9.1-0.8c5.5,0.4,7.8,0.6,2.3,1.1c13.3-0.7,10.8-0.3,22-1l-0.6,0.4c4,0,10.5-0.5,12.9-0.2c9,0.8,44.6,0.1,67.8,0.8
						c-4.5-1.2,10.8,0.5,11.7-0.4c1.3,0.3,4.6,0.4,0.8,0.7c11.8-0.3,17.8,0.4,25.9-0.3c1.4,0.3-2.5,0.4-1.3,0.6
						c0.9-0.1,3.8-0.2,5-0.1c1.2,0.2-1.7,0.2-3.6,0.4c12.1,0,13.3-0.9,14.2-1.7c6.1,0.4,9.2,0.3,13.6-0.2c2.1,0.3,5.7,0.5-1.8,0.6
						c4.2,0,25.8,0.4,26.2-0.3c1.3,0.2,5.9,0,7,0c4.7,0,7.3,0,9.9,0.1c2.4,0,4.7,0,9,0l-1.8-0.1c0.3-0.1,0.5-0.1,0.8-0.2
						c0.3,0,0.5-0.1,0.8-0.1c0.6-0.1,1.1-0.1,1.8-0.1c0,0.5,0,1.1,0,1.7c0,0.7,0,1.4-0.1,2.2c0,1.8-0.1,3.9-0.1,6.3l-0.1-0.2
						c-0.6,17.2,0.3,7.4-0.4,24.4l0.5-0.9c1,1.6-0.6,15-0.2,24.9l0.3-3.6c0.4,5.4-1.4,15-1.5,20.4c-0.1,1.2-0.1-1.9-0.2-3.5
						c-0.6,14.1,0.6,1.8,0.8,12.4c-0.3,1.9-0.9-2.5-0.9,4.6c-0.3,3.5,1.1,20.6,0.5,30.2c0.3-2.1,0.5-4.2,0.7,0.6
						c0.1,7.5-1,20.3-0.2,27c-0.1,1-0.1,1.3-0.2,1.4c0.2,5.7,0.4,18.6,0.8,22.1c-1.7,5.3,0.8,35.6-0.7,35.5l0.1,17.6l-0.2-0.5
						c-0.1,11.3,0.3,15.3,0.6,19.2c-0.1,2.6-0.2,0.7-0.3,0.5c-0.3,16.5-0.2,18.1,0.5,31.9l-0.5,1.4c0.3,3.7-0.8,23.8-0.2,40
						c-0.1-0.2-0.2-0.5-0.2-1.8c0.6,18.2-1.4,43.5,0.4,50.2l0.4,12c0.1-15.5,0.8,2.3,1.1-4.1c0.1,6.1-0.5,15.8-0.6,8.3l0.1-1.2
						c-0.9-2.8-0.3,19.3-1,18.9c0,30.5-0.5,60.3-0.5,88.9l0.7-3.3l0,10c-0.2,2.6-0.6,3.5-0.5-3.6c-0.4,3.7,0.3,11.9,0.5,12.1
						c0,0.4,0,0.7,0,1.1c0,0.2,0,0.4,0,0.6c0,0.3,0,0.6-0.1,0.8c0,0.4-0.1,0.7-0.1,0.7c-0.2,0-0.2-0.1-0.1-0.1
						c-0.1-0.2-0.1-0.7-0.2-1.1c0-0.2-0.1-0.4-0.1-0.7c0-0.1,0-0.2,0-0.3c0-0.2,0-0.4,0-0.7c-0.1-1.7-0.2-2.9-0.2-1.5l0,2.5l0,1.2
						l0.1-0.5c0,0.3,0.1,0.6,0.1,0.8c-0.4,0.1-0.7,0.1-1,0.2c-0.2,0-0.4,0.1-0.5,0.1c-0.1,0-0.2,0-0.3,0c-0.2,0-0.4,0-0.6,0
						c-1.7,0.1-3.9,0.1-7.6,0.1c-5.4-0.1-2.8-0.5-4.9-0.5c0,0-0.2,0-0.7-0.1c-0.5,0-1.3,0-2.6,0l-12.6-0.1l5,0.6
						c-5.6,0.3-11.8,0-6,0.6c-8.5-1-46.9-0.4-52.1-0.7c-7.8,0.4-15.5,0.4-25,0.4c2.4,0.1,3.8,0.8-4.4,0.7c3-1.3-15.1-0.6-21.7-1.5
						c5.9,0.6-23.4,0.2-14.1,1.1c-6.9-0.1-0.4-0.5-5.6-0.8c-16.3,0.5-36-0.3-56.2-0.2c-0.3,0.2,3.1,0.4-1.3,0.7l-10.7-0.9
						c-4,0.1-3.7,1-11,0.4c1,0.1,2.6,0.4-0.1,0.4c-39.6-0.9-80.8,0.7-121-0.9c5.4,0.3,1.8,0.4-2.3,0.4c2.7,0.1-0.1,0.4,0.5,0.7
						l-16.8-0.7c-3.1,0.7-18,0-19.8,0.7l5.3-0.1c-7.1,0.7,9.9,1.7,8.9,2.6c7.9-0.8,20.9,1.3,33.9,0c2.9,0.2-2.5,0.3-0.9,0.5
						c3.3-0.4,7.3-0.5,14.7-0.3l-0.8,0.1c20.7-0.1,29.6,0.3,52.9,0.6l-1.7-0.5c5,0.1,6.1,0.2,8.4,0.3c5.7-0.7-14.1,0-8.8-0.8
						c6.6,1,35.3,0,39.8,1.1c7.7,0-2.3-0.5,5.4-0.5l2,0.3l1.9-0.4c5,0.1,7.6,0.4,7.8,0.7c-1.2,0-3.5,0.1-4.8,0.1
						c6.5,0.3,18.5-0.1,20.7,0l-7.4-0.2c21-0.3,46.7,0.1,67-0.5l-1.5-0.2c15.5-0.4,12.4,0.2,29.4,0.1l-0.6,0.1
						c3.4-0.2,8-0.3,12.6-0.3c-4.3,0.3,8.1,0.5,2.5,0.8c16.8-0.4,8.3-0.3,19.4-1.2l2.6,0.4c3.8-0.3,4.1-0.5,12.6-0.6
						c-7,0.3,5.4,0.6-2.4,1c17.8,0.8,26.5-0.8,34.7,0.4c8.2-1-15.4-0.6-10.9-0.8c-3.8-0.3,6.8-0.8,12.4-0.7c5.7,0,9.7,1.3,24,1.3
						c-1.4,0-1.5,0.1-2.9,0.1c2.7,0.1,5.3,0,8.1,0c1.4,0,2.8-0.1,4.3-0.1c1.6,0,2.7,0,5.6,0.2c1-0.1,2.1-0.2,3.2-0.2
						c0-1.2-0.1-2.4-0.1-3.6c0-1,0-2,0-2.9c0-1.3-0.1-2.4-0.4-2.8l0.1,8.8l-7.2,0.1c2.3-0.1,4.6-0.2,7-0.3c-0.1-1.8-0.2-3.7-0.2-5.6
						c-0.1-1.5-0.2-3.1-0.2-4.8c-0.1-3.4-0.1-7.2,0-11.8c0.2,1,0.4,4.6,0.5,7.1c0.2-3.6-0.2-6.9,0.1-10.6c0.4,0.5,0.4,4.5,0.5,9.4
						c0,2.4,0,5.1,0.1,7.6c0,1.3,0.1,2.5,0.1,3.7c0,1.8,0.1,3.5,0.2,5.1c0-0.7,0.1-1.6,0.1-2.7c0-1,0-2,0-3.1c0-1.5-0.1-3.2-0.1-4.6
						c-0.1-2.8-0.1-4.6,0.3-2.6c-1.1-5.8,0.1-14.1-0.7-23.8l0.5,0.6c-0.1-1.5-0.3-4.7-0.3-7.5l0.6,5.1c-0.5-7.9,0.5-15.2,0.2-22.7
						c0,15.8-0.6,3.5-0.9,10.2c-0.6-19.5,1.2-11.2,1-33c0.1,3-0.3,11.1-0.5,6.5c0.1-4.2,0.3-9.6,0.5-12.2c-0.1-14.4-0.5,2.2-0.8-3.9
						c0.6-4.9-0.2-7.1-0.4-13.4l0.5,0c0.3-16.5-1-4.4-0.6-19.2l0.7,6.3l-0.2-7.7l0.5,1.6c-0.4-8.4-0.3-11-0.1-19.3
						c-0.3,1.9-0.9-1.1-0.9-8.4c0.3-5,0.5,2.8,0.4-7.6c0.3,2.3,0.7,4.9,0.2,9.4c0.2,0.5,0.3,2.3,0.5,2.8c0.3-5.4,0.1-13.5,0.1-17.2
						c0,1.4,0,3.2-0.1,4l-0.7-15c0.2-2.4,0.3-0.5,0.5,1.4c-0.1-3-0.3-5.1-0.3-9.6c0.4,1.2,0.8,0.9,1,7.2l-0.4-14.3
						c0.2-1,0.5-7.3,0.6-5.5c0.2-7.9-0.8-19.4-0.5-29.9c-0.1-0.5-0.1-1.6-0.2-3.9c0.1-9.9,0.6-18.6,0-30.3l0.7-6.6
						c-0.2-9.2-0.9,9-1.2-6.3c-0.2-10.8,0.6-4,0.8-7.8c-0.4-5.4-1.1-14.7-0.5-24.6C472.2,344.9,472.1,347.5,472.1,350.6z
						 M471.8,237.7c0.1,2.2,0.4,6.5,0.1,8.1C471.4,243.3,471.7,241.4,471.8,237.7z M395.6,139.1c1.6-0.2,4.1-0.1,7,0.1
						C400.5,139.2,398.2,139.2,395.6,139.1z M68.3,288.6c0-0.1,0-0.2,0-0.2C68.5,283.5,68.4,285.2,68.3,288.6z M68.1,298.7
						c0.1,1,0.1,0.9,0.2,0.5c-0.1-0.7-0.1-3-0.1-5.6C68.1,294.4,68,295.7,68.1,298.7z M451.5,645.9l2,0.1
						C449,646.2,450.3,646.1,451.5,645.9z"/>
					<path class="st1" d="M415,138.4c0.6,0.1,0.8,0.2,0.9,0.3C416.8,138.6,416.9,138.5,415,138.4z"/>
					<path class="st1" d="M472.4,420.8l0,0.3c0,0.2,0.1,0.3,0.1,0.3L472.4,420.8z"/>
					<path class="st1" d="M64,140.7c0-1,0.1-1.9,0.1-2.4c1.8,0.1,2.8,0.1,3.6,0.2c0.1-0.1-0.8-0.2-3.6-0.2
						C64.1,138.8,64.1,139.7,64,140.7z"/>
					<path class="st1" d="M69,352.4l-0.1-6.5c0,3.1-0.1,4.3-0.2,5.8C68.8,351.6,68.9,350.4,69,352.4z"/>
					<path class="st1" d="M66,408.8c0.1,0.9,0,2,0.1,2.9l0.2-0.3C66.2,407.4,66.1,404.6,66,408.8z"/>
					<path class="st1" d="M67.3,358.4c-0.4,0.5-0.3,4.6-0.2,9.1c0-0.3,0-0.5,0-0.8C67.7,368.1,67.5,363.3,67.3,358.4z"/>
					<path class="st1" d="M67.2,368.6c0,1.4,0,2.8,0,4.2C67.4,373.4,67.2,371.1,67.2,368.6z"/>
					<path class="st1" d="M68.4,311.6c-0.1,2.2,0.5,1.4,0.4,2.6C69.3,316.6,68.1,299.8,68.4,311.6z"/>
					<polygon class="st1" points="66,362.1 66.5,360.5 66.1,357.9 					"/>
					<path class="st1" d="M66.4,326.2l-0.1,7.3c0.1-0.1,0.1,0.8,0.2,1.9C66.4,331,66.5,326.1,66.4,326.2z"/>
					<path class="st1" d="M66.4,335.4c0,2.3,0,4.5,0.1,5.8C66.5,340,66.5,337.3,66.4,335.4z"/>
					<polygon class="st1" points="65.9,352.2 66,350 66,344.9 					"/>
					<path class="st1" d="M66.5,248.1l-0.1-7.9c-0.2-0.8-0.3,1.4-0.2,4.3C66.2,246.4,66.3,249.3,66.5,248.1z"/>
					<path class="st1" d="M65.1,272.1c0.1-2.1,0.2-2.3,0.4-3.5l-0.6-0.2L65.1,272.1z"/>
					<path class="st1" d="M65,249c-0.2-0.8-0.5-11.5-0.5-1.5C64.7,248.3,64.8,256.3,65,249z"/>
					<polygon class="st1" points="76.6,139.9 74.6,139.9 74.9,140.9 					"/>
					<path class="st1" d="M181.9,137.4c-9.4-0.2-2.2,0.6-10.7,0.3c-2.2,0.2,6.9,0.2,4.7,0.5C181.5,138,184.5,138.1,181.9,137.4z"/>
					<path class="st1" d="M175.9,138.2c-0.9,0-1.9,0.1-2.9,0.2C174.6,138.3,175.4,138.3,175.9,138.2z"/>
					<polygon class="st1" points="82.7,645.4 76.6,645.2 80.5,645.5 					"/>
					<path class="st1" d="M71.1,646.2l-1.4-0.6l-3.6,0.6C67.4,646.1,70,646,71.1,646.2z"/>
					<path class="st1" d="M473.1,220.9l-0.2-0.5c-0.2,0.9-0.2,2.3-0.2,5.2L473.1,220.9z"/>
					<polygon class="st1" points="472.7,302.8 472.7,301.4 472.1,304.1 					"/>
					<path class="st1" d="M473.4,371.6c0-2.8-0.1-6.1-0.1-8.9C473.4,368.8,472.7,372.4,473.4,371.6z"/>
				</g>
			</g>
		</g>
	</g>
</g>
<path class="st2" d="M335,293c-0.1-0.1-0.2,0-0.3,0c0,0-2.9,0.1-8.8,0.4c-4.1,0.2-11.1,0.1-17.5,0.1c0,0-3.7,0-25.2,0.3l-0.1,0
	c1.7,1.7,13.6,13.8,14.3,14.5c1,1,2,2,3,3c0,0,6.4,6.5,8.6,8.4c0,0,0,0,0,0c0,0,0.1,0.1,0.2,0.2c0.1,0.1,0.2,0.2,0.3,0.3
	c0.2,0.2,0.2,0.3,0.2,0.3c0.4,0.3,1.7-1,1.7-1c7.2-7.6,12.3-13.4,12.3-13.4c0.1-0.1,3.5-4,10.2-11.7
	C334.3,294.2,335.2,293.2,335,293z"/>
<path class="st3" d="M322.9,295.3"/>
<path class="st3" d="M294.2,305.4"/>
<path class="st2" d="M261.3,291.5c-0.1-0.1-0.2,0-0.3,0c0,0-2.9,0.1-8.8,0.4c-4.1,0.2-11.1,0.1-17.5,0.1c0,0-3.7,0-25.2,0.3l-0.1,0
	c-0.1,0.1,10.5,10.6,14.3,14.5c0,0,9.5,9.6,11.6,11.5c0,0,0.1,0.1,0.2,0.2c0.1,0.1,0.2,0.2,0.3,0.3c0.2,0.2,0.2,0.3,0.2,0.3
	c0.4,0.3,1.7-1,1.7-1c7.2-7.6,12.3-13.4,12.3-13.4c0.1-0.1,3.5-4,10.2-11.7C260.6,292.7,261.5,291.7,261.3,291.5z"/>
<path class="st2" d="M361.5,322.7c-0.1-0.1-0.2,0-0.3,0c0,0-2.9,0.1-8.8,0.4c-4.1,0.2-11.1,0.1-17.5,0.1c0,0-3.7,0-25.2,0.3l-0.1,0
	c-0.1,0.1,10.5,10.6,14.3,14.5c0,0,9.5,9.6,11.6,11.5c0,0,0.1,0.1,0.2,0.2c0.1,0.1,0.2,0.2,0.3,0.3c0.2,0.2,0.2,0.3,0.2,0.3
	c0.4,0.3,1.7-1,1.7-1c7.2-7.6,12.3-13.4,12.3-13.4c0.1-0.1,3.5-4,10.2-11.7C360.8,323.9,361.6,322.9,361.5,322.7z"/>
<path class="st2" d="M237,320.5c-0.1-0.1-0.2,0-0.3,0c0,0-2.9,0.1-8.8,0.4c-4.1,0.2-11.1,0.1-17.5,0.1c0,0-3.7,0-25.2,0.3l-0.1,0
	c-0.1,0.1,10.5,10.6,14.3,14.5c0,0,9.5,9.6,11.6,11.5c0,0,0.1,0.1,0.2,0.2c0.1,0.1,0.2,0.2,0.3,0.3c0.2,0.2,0.2,0.3,0.2,0.3
	c0.4,0.3,1.7-1,1.7-1c7.2-7.6,12.3-13.4,12.3-13.4c0.1-0.1,3.5-4,10.2-11.7C236.3,321.7,237.1,320.7,237,320.5z"/>
<path class="st2" d="M393.4,352.6c-0.1-0.1-0.3,0-0.3,0c0,0-3.3,0.1-9.8,0.4c-4.6,0.2-12.4,0.1-19.5,0.1c0,0-4.1,0-28.1,0.4l-0.1,0
	c-0.1,0.1,11.7,11.8,16,16.1c0,0,10.6,10.7,12.9,12.7c0,0,0.1,0.1,0.2,0.2c0.1,0.1,0.2,0.3,0.3,0.4c0.2,0.3,0.2,0.3,0.3,0.4
	c0.5,0.3,1.9-1.2,1.9-1.2c8.1-8.5,13.8-14.9,13.8-14.9c0.1-0.1,3.9-4.4,11.3-13C392.6,354,393.6,352.8,393.4,352.6z"/>
<path class="st2" d="M210.3,350.6c-0.1-0.1-0.3,0-0.3,0c0,0-3.3,0.1-9.8,0.4c-4.6,0.2-12.4,0.1-19.5,0.1c0,0-4.1,0-28.1,0.4l-0.1,0
	c-0.1,0.1,11.7,11.8,16,16.1c0,0,10.6,10.7,12.9,12.7c0,0,0.1,0.1,0.2,0.2c0.1,0.1,0.2,0.3,0.3,0.4c0.2,0.3,0.2,0.3,0.3,0.4
	c0.5,0.3,1.9-1.2,1.9-1.2c8.1-8.5,13.8-14.9,13.8-14.9c0.1-0.1,3.9-4.4,11.3-13C209.5,351.9,210.5,350.8,210.3,350.6z"/>
<path class="st2" d="M336.9,414.6c0.1,0.1,0.3,0,0.3,0c0,0,3.3,0,9.8-0.1c4.6,0,12.4,0.3,19.5,0.6c0,0,4.1,0.1,28.1,0.6l0.1,0
	c0.1-0.1-11.3-12.2-15.4-16.7c0,0-10.2-11-12.5-13.2c0,0-0.1-0.1-0.2-0.2c-0.1-0.1-0.2-0.3-0.3-0.4c-0.2-0.3-0.2-0.3-0.3-0.4
	c-0.4-0.4-1.9,1.1-1.9,1.1c-8.4,8.2-14.3,14.4-14.3,14.4c-0.1,0.1-4,4.3-11.8,12.6C337.8,413.3,336.8,414.4,336.9,414.6z"/>
<path class="st2" d="M154,412.1c0.1,0.1,0.3,0,0.3,0c0,0,3.3,0,9.8-0.1c4.6,0,12.4,0.3,19.5,0.6c0,0,4.1,0.1,28.1,0.6l0.1,0
	c0.1-0.1-11.3-12.2-15.4-16.7c0,0-10.2-11-12.5-13.2c0,0-0.1-0.1-0.2-0.2c-0.1-0.1-0.2-0.3-0.3-0.4c-0.2-0.3-0.2-0.3-0.3-0.4
	c-0.4-0.4-1.9,1.1-1.9,1.1c-8.4,8.2-14.3,14.4-14.3,14.4c-0.1,0.1-4,4.3-11.8,12.6C154.8,410.7,153.8,411.8,154,412.1z"/>
<path class="st2" d="M183.5,445.2c0.1,0.1,0.3,0,0.3,0c0,0,3.3,0,9.8-0.1c4.6,0,12.4,0.3,19.5,0.6c0,0,4.1,0.1,28.1,0.6l0.1,0
	c0.1-0.1-11.3-12.2-15.4-16.7c0,0-10.2-11-12.5-13.2c0,0-0.1-0.1-0.2-0.2c-0.1-0.1-0.2-0.3-0.3-0.4c-0.2-0.3-0.2-0.3-0.3-0.4
	c-0.4-0.4-1.9,1.1-1.9,1.1c-8.4,8.2-14.3,14.4-14.3,14.4c-0.1,0.1-4,4.3-11.8,12.6C184.4,443.8,183.3,444.9,183.5,445.2z"/>
<path class="st2" d="M307.3,446.7c0.1,0.1,0.3,0,0.3,0c0,0,3.3,0,9.8-0.1c4.6,0,12.4,0.3,19.5,0.6c0,0,4.1,0.1,28.1,0.6l0.1,0
	c0.1-0.1-11.3-12.2-15.4-16.7c0,0-10.2-11-12.5-13.2c0,0-0.1-0.1-0.2-0.2c-0.1-0.1-0.2-0.3-0.3-0.4c-0.2-0.3-0.2-0.3-0.3-0.4
	c-0.4-0.4-1.9,1.1-1.9,1.1c-8.4,8.2-14.3,14.4-14.3,14.4c-0.1,0.1-4,4.3-11.8,12.6C308.1,445.4,307.1,446.5,307.3,446.7z"/>
<path class="st2" d="M212.4,477.5c0.1,0.1,0.3,0,0.3,0c0,0,3.3,0,9.8-0.1c4.6,0,12.4,0.3,19.5,0.6c0,0,4.1,0.1,28.1,0.6l0.1,0
	c0.1-0.1-11.3-12.2-15.4-16.7c0,0-10.2-11-12.5-13.2c0,0-0.1-0.1-0.2-0.2c-0.1-0.1-0.2-0.3-0.3-0.4c-0.2-0.3-0.2-0.3-0.3-0.4
	c-0.4-0.4-1.9,1.1-1.9,1.1c-8.4,8.2-14.3,14.4-14.3,14.4c-0.1,0.1-4,4.3-11.8,12.6C213.3,476.2,212.3,477.3,212.4,477.5z"/>
<path class="st2" d="M276.9,478.6c0.1,0.1,0.3,0,0.3,0c0,0,3.3,0,9.8-0.1c4.6,0,12.4,0.3,19.5,0.6c0,0,4.1,0.1,28.1,0.6l0.1,0
	c0.1-0.1-11.3-12.2-15.4-16.7c0,0-10.2-11-12.5-13.2c0,0-0.1-0.1-0.2-0.2c-0.1-0.1-0.2-0.3-0.3-0.4c-0.2-0.3-0.2-0.3-0.3-0.4
	c-0.4-0.4-1.9,1.1-1.9,1.1c-8.4,8.2-14.3,14.4-14.3,14.4c-0.1,0.1-4,4.3-11.8,12.6C277.7,477.3,276.7,478.4,276.9,478.6z"/>
<path class="st4" d="M273.8,349.5c-9,10.9-18,21.7-27.1,32.6c8.4,9.8,16.7,19.7,25.1,29.5l0,0c0.1,0.2,0.2,0.5,0.5,0.6
	c0.8,0.2,1.9-1.6,2.2-2c1.3-2,8.9-11,23.8-28.1"/>
<path class="st5" d="M274.4,285.6c-9,10.9-18,21.7-27.1,32.6c8.4,9.8,16.7,19.7,25.1,29.5l0,0c0.1,0.2,0.2,0.5,0.5,0.6
	c0.8,0.2,1.9-1.6,2.2-2c1.3-2,8.9-11,23.8-28.1"/>
<path class="st6" d="M242.5,382.1c9.2-10.7,18.4-21.4,27.6-32.2c-8.2-10-16.4-19.9-24.6-29.9l0,0c-0.1-0.2-0.2-0.5-0.5-0.6
	c-0.8-0.2-2,1.6-2.2,2c-1.4,2-9.1,10.9-24.2,27.7"/>
<path class="st6" d="M302.3,382c9-10.9,17.9-21.8,26.9-32.7c-8.4-9.8-16.8-19.6-25.2-29.4l0,0c-0.1-0.2-0.2-0.5-0.5-0.6
	c-0.8-0.2-1.9,1.6-2.2,2c-1.3,2-8.9,11.1-23.6,28.2"/>
<path class="st6" d="M244.2,447.3c8.8-11,17.7-22,26.5-33c-8.5-9.7-17-19.4-25.6-29.1l0,0c-0.1-0.2-0.2-0.5-0.5-0.6
	c-0.8-0.2-1.9,1.7-2.2,2c-1.3,2.1-8.8,11.2-23.3,28.5"/>
<path class="st6" d="M303.1,383.8c-9,10.9-18,21.7-27.1,32.6c8.4,9.8,16.7,19.7,25.1,29.5l0,0c0.1,0.2,0.2,0.5,0.5,0.6
	c0.8,0.2,1.9-1.6,2.2-2c1.3-2,8.9-11,23.8-28.1"/>
<path class="st7" d="M216,351.2c-9,10.9-18,21.7-27.1,32.6c8.4,9.8,16.7,19.7,25.1,29.5l0,0c0.1,0.2,0.2,0.5,0.5,0.6
	c0.8,0.2,1.9-1.6,2.2-2c1.3-2,8.9-11,23.8-28.1"/>
<path class="st7" d="M331.7,350.8c-8.8,11.1-17.5,22.2-26.3,33.3c8.6,9.6,17.2,19.3,25.8,28.9l0,0c0.1,0.2,0.2,0.5,0.5,0.6
	c0.8,0.2,1.9-1.7,2.1-2.1c1.3-2.1,8.7-11.3,23.1-28.6"/>
<path class="st5" d="M275.1,417.1c-9,10.9-18,21.7-27.1,32.6c8.4,9.8,16.7,19.7,25.1,29.5l0,0c0.1,0.2,0.2,0.5,0.5,0.6
	c0.8,0.2,1.9-1.6,2.2-2c1.3-2,8.9-11,23.8-28.1"/>
<path class="st2" d="M273.6,481.4c-9,10.9-18,21.7-27.1,32.6c8.4,9.8,16.7,19.7,25.1,29.5l0,0c0.1,0.2,0.2,0.5,0.5,0.6
	c0.8,0.2,1.9-1.6,2.2-2c1.3-2,8.9-11,23.8-28.1"/>
<path class="st2" d="M276,220.6c-9,10.9-18,21.7-27.1,32.6c8.4,9.8,16.7,19.7,25.1,29.5l0,0c0.1,0.2,0.2,0.5,0.5,0.6
	c0.8,0.2,1.9-1.6,2.2-2c1.3-2,8.9-11,23.8-28.1"/>
<g>
	<g>
		<g>
			<g>
				<g>
					<path class="st1" d="M115.3,581.2c0,2.1,0.4,1.4,0.5,1.7C115.7,579.3,115.2,581.3,115.3,581.2z"/>
					<polygon class="st1" points="114.4,546.4 114.6,547 114.1,541.9 					"/>
					<path class="st1" d="M114.4,513.9c-0.7,3.1,0.1,11.8-0.1,17.6l-0.2,1l0.6,2.6C114.6,528,114.2,518.8,114.4,513.9z"/>
					<path class="st1" d="M115.9,496.5c-0.3,1.1-0.2-3.8-0.1,4c0-0.4,0-0.5,0.1-0.7C115.9,499.1,115.9,498.2,115.9,496.5z"/>
					<path class="st1" d="M115.9,499.8C116,503.3,116.2,497.6,115.9,499.8L115.9,499.8z"/>
					<path class="st1" d="M115.8,484l0.2,4.5c0.2-0.9,0.2-5,0.3-3.5C116.2,480.4,116,481.4,115.8,484z"/>
					<path class="st1" d="M115.3,479.7l0.1,2.3C115.4,481.7,115.4,481,115.3,479.7z"/>
					<path class="st1" d="M115.6,487l-0.2-5c-0.1,0.7-0.3,0.7,0.1,2.3C115.2,483.9,115.4,484.9,115.6,487z"/>
					<path class="st1" d="M115.5,489.8c-0.2,2.5-0.3,5.8-0.5,1.3C115.1,499.7,115.6,498.5,115.5,489.8z"/>
					<path class="st1" d="M113.7,512.2l-0.2,3.4l0.2,2.9C113.6,517.1,113.9,512,113.7,512.2z"/>
					<path class="st1" d="M116.1,455.9c-0.2-0.3-0.4,1.5-0.6,1.9l0.2,3.3C115.8,459.4,115.9,456.1,116.1,455.9z"/>
					<path class="st1" d="M115.5,457.7l-0.3-5C115.3,457.2,115.4,458,115.5,457.7z"/>
					<polygon class="st1" points="114.5,478.9 115,487.1 114.5,477.3 					"/>
					<polygon class="st1" points="116.2,436.8 116.5,439.7 116,434.6 					"/>
					<path class="st1" d="M116.1,424.2c0.3,2.1,0.5-2.9,0.7-0.7c-0.1-3.4-0.3-6.4-0.5-9C116.4,417.3,116.3,420.3,116.1,424.2z"/>
					<path class="st1" d="M115.9,410.1c0.1,1.4,0.2,2.9,0.3,4.4C116.2,413,116.1,411.6,115.9,410.1z"/>
					<path class="st1" d="M115.4,444.3c0.1-0.4,0.3-1.1,0.4-3.9l-0.4,2C115.4,442.9,115.4,443.6,115.4,444.3z"/>
					<path class="st1" d="M115.4,442.4L115.4,442.4c0-2.2,0-3.7,0-4.3C115.4,438.6,115.4,439.9,115.4,442.4z"/>
					<path class="st1" d="M115.4,444.8c0-0.2,0-0.3,0-0.5C115.3,444.4,115.3,444.6,115.4,444.8z"/>
					<path class="st1" d="M114.8,465.8c-0.2-2.9-0.5-9-0.9-3.1C114.3,464.8,114.5,461.4,114.8,465.8z"/>
					<path class="st1" d="M114.8,447.2l-0.1,5.3c0.1-0.1,0.3-1.1,0.4,0.4L114.8,447.2z"/>
					<polygon class="st1" points="114.7,444.6 114.8,447.2 114.9,445.2 					"/>
					<path class="st1" d="M115.5,419.2c-0.2-2.3-0.2-4.8-0.2-7.6c-0.1,3-0.1,6.2-0.1,9.1C115.3,421.1,115.5,422.4,115.5,419.2z"/>
					<path class="st1" d="M115.4,430.4c0-0.2,0-0.4,0-0.5C115.3,430.2,115.3,430.5,115.4,430.4z"/>
					<path class="st1" d="M115.3,383.7c0,0.2-0.1,0.3-0.1,0.4c0,0,0,0.1,0.1,0.1L115.3,383.7z"/>
					<path class="st1" d="M115.1,421.2c-0.1,2.3,0,3.6,0.2,4.9c0-1.7-0.1-3.5-0.1-5.4C115.1,420.5,115.1,420.5,115.1,421.2z"/>
					<path class="st1" d="M115.7,402.3c-0.1,1.2-0.2,2.5-0.2,3.9C115.6,405.1,115.8,402.8,115.7,402.3z"/>
					<path class="st1" d="M115.5,429.2c0,0.1,0,0.2,0,0.3C115.6,428.8,115.6,428.9,115.5,429.2z"/>
					<path class="st1" d="M115.5,429.2c-0.1-1.2-0.2-2.1-0.3-3c0,1.4,0.1,2.7,0.1,3.8C115.4,429.7,115.5,429.4,115.5,429.2z"/>
					<path class="st1" d="M112.5,375.3c0.4,0.4,0.8,6.4,0.3,11.6c0.3,5.1,1.6,1.8,2.3-2.7c-0.2-0.2-0.3-0.2-0.6-5.4
						c-0.2,1.8-0.5,11.6-0.9,7.2c-0.2-6.9,0.1-5.7,0.3-9.1c-0.5,2.9-0.7-8.8-1.4-7.3l0.3,6.1C112.8,375.8,112.6,373.6,112.5,375.3z"
						/>
					<path class="st1" d="M115.2,394.1l0,2.2c0.1-2.5,0.2-4.2,0.5-7.5c-0.2-3.6-0.3-4.3-0.5-4.6l-0.1,10.6L115.2,394.1z"/>
					<path class="st1" d="M115.2,406c-0.4-1.7-0.6-6.9-1.1-3.7c0,6.3,0.4,4.4,0.5,8.2C114.6,400.3,114.9,413.4,115.2,406
						c0,2.1,0,3.9,0.1,5.6c0.1-1.8,0.1-3.6,0.2-5.3c0,0.1,0,0.2,0,0.2l0,0l0,0c-0.1,0.4-0.1,0.6-0.1,0.1c0,0,0-0.2,0-0.2
						C115.3,406.4,115.3,406.2,115.2,406c0.1-3,0.1-0.5,0.2,0.5c0,0,0,0.1,0.1,0.1c0,0,0,0,0,0l-0.2-10.2
						C115.2,398.5,115.2,401.2,115.2,406z"/>
					<path class="st1" d="M113.1,457.3c0-0.3,0.1-0.3,0.1-0.3C113.1,456.3,113.1,456,113.1,457.3z"/>
					<path class="st1" d="M113.3,453.1c0.1,0.7,0.2,1.4,0.2,3.8c-0.1,2.1-0.2,0-0.3,0.1c0.1,1.5,0.3,5.1,0.5,0.5l-0.1-0.7
						c0.1-4.1,0.7-9.4,0.7-8.7C114,449.3,113.7,450.3,113.3,453.1z"/>
					<path class="st1" d="M114.2,429.2l-0.2-8.5l-0.4,4.3l0.2-0.2C113.7,429.7,114,428.6,114.2,429.2z"/>
					<polygon class="st1" points="115.5,382.7 116,383.9 115.3,379 					"/>
					<polygon class="st1" points="115.4,371.7 115.8,372.1 115.6,369.2 					"/>
					<path class="st1" d="M431.5,306.6l0.1,2.5C431.5,308,431.5,307.2,431.5,306.6z"/>
					<path class="st1" d="M431.5,288.5l-0.2-0.4C431.4,288.9,431.5,289.3,431.5,288.5z"/>
					<path class="st1" d="M198,187.7c3.6,0.4,7.7,0.9,7.3,0.5l-1.1-0.4C201.7,187.8,199.7,187.7,198,187.7z"/>
					<path class="st1" d="M384.1,185.1c-0.3,0-0.7-0.1-1.1-0.1c-0.9,0.1-1.7,0.3-2.5,0.4C381.6,185.3,382.8,185.2,384.1,185.1z"/>
					<path class="st1" d="M386.7,183.3l4.8,0.3C390.4,183.4,388.8,183.4,386.7,183.3z"/>
					<path class="st1" d="M431.9,405.5l0.4,2.9C432.4,403.9,432.1,405.9,431.9,405.5z"/>
					<path class="st1" d="M115.3,258.4c0.2-3.1,0.2-5.6,0.3-7.8C115.3,254.3,114.9,257.4,115.3,258.4z"/>
					<path class="st1" d="M426.9,299.5c0.1,1.5,0.2,2.2,0.3,2.1C427,300.1,427,299.2,426.9,299.5z"/>
					<path class="st1" d="M115.5,241.5c0,0.6-0.1,1.1-0.1,1.7c0.1,2.3,0.1,4.6,0.1,7.4C115.7,247.8,115.9,244.6,115.5,241.5z"/>
					<path class="st1" d="M247.8,585.4c-0.3,0-0.6,0-0.8-0.1C246.9,585.4,247.2,585.4,247.8,585.4z"/>
					<path class="st1" d="M143.3,581c1,0,2.7,0,4.3,0C146.8,580.9,145.5,580.9,143.3,581z"/>
					<path class="st1" d="M115.6,327.2C115.7,329.5,115.7,327.6,115.6,327.2L115.6,327.2z"/>
					<path class="st1" d="M113.9,338.6c0-0.5-0.1-0.9-0.2-0.9C113.8,337.8,113.9,338.2,113.9,338.6z"/>
					<path class="st1" d="M112.8,218.1c0-0.1,0-0.1,0-0.2C112.8,218.6,112.8,218.5,112.8,218.1z"/>
					<path class="st1" d="M115.4,330.7c0.1-0.9,0.1-1.9,0.1-3C115.5,328.2,115.5,329.1,115.4,330.7z"/>
					<path class="st1" d="M115.6,330.2c0,0.8,0,1.4,0,2.1C115.7,332.6,115.7,332.3,115.6,330.2z"/>
					<path class="st1" d="M115.6,323.9c0,1.3,0,2.6,0,3.8c0-0.5,0.1-0.7,0.1-0.5C115.6,326.5,115.6,325.5,115.6,323.9z"/>
					<path class="st1" d="M430.4,572c0,0.2,0,0.3,0,0.5C430.5,574.9,430.5,573.9,430.4,572z"/>
					<path class="st1" d="M259.1,183.1c-0.1,0-0.2,0-0.3,0C258.9,183.2,259.1,183.2,259.1,183.1L259.1,183.1z"/>
					<path class="st1" d="M267.5,182.8c-3.6,0.5-5.6,0.5-8.3,0.4l2.8,1.3L267.5,182.8z"/>
					<path class="st1" d="M431.6,350l0.4-5.9c0.6,7.1,0.4,12.3,1,6.8c-1.4-0.8-0.1-23-1.5-23.8l0.3-3.9c0,1.1,0.1,1.3,0.1,2.4
						c0.7-7.6-1-5.6-0.8-15.4c0.1-3.4,0.3-5.8,0.5-3.5l-0.3-7.6c0-2.2,0.3-1.7,0.2,0.5l-0.1-11.6l0,0.1c-0.2-1.7-0.5-5.4-0.7-7.2
						c0.2-2.9,0.1,1.5,0.3,0.7l-0.3-6.4c0.4-2.6,0.7,2.7,0.6,7.1c1.4-6-0.3-5.3,0.5-18.2l0.2,6.1c0.8-3.9,0.5-8.6,1-15.5
						c-0.3,1.6-1.2,13.7-1.5,6.7c0.1-2,0.2-4.5-0.1-8.3c0.5,0,0.4-3.7,0.3-8.3l0.6,0.3c-0.2-5-0.5-4.6-0.8-7.5c0.1-5.5,0.6-6.7,1-8
						c0.1-8.8-0.8,6.1-0.9-4.4c0.2-7.4,0-12.5-0.4-21.3c0.2-5.2,0.4,0.9,0.6-0.9l-0.5-4.6c0-1.1,0.2-0.8,0.2-0.6
						c-0.2-3.8-0.6-0.3-0.8-6.4c-0.2-0.4-0.2-1.2-0.2-2.3c0-0.7,0.1-1.5,0.1-2.4c0-1,0.1-2,0.1-3.2c-1.4-0.1-2.9-0.1-4.5-0.2
						c-1.2,0-2.5-0.1-3.7-0.2c-2.3-0.1-4.7,0-6.8,0.2c-1.8-0.2,0.9-0.4,0.3-0.6c-10.3,0.5-8.8,0.4-17.2,1.1l-7.2-0.4
						c5.3,0.5-1.5,1-7.4,1.5c1.9,0.2,3.5,0.4,4.5,0.5l-9.4,0.3c-1.1-0.1-0.2-0.3,1.4-0.6c-0.6,0.1-1.3,0.1-1.7,0.2
						c-3.4-0.2-1.6-0.6,0.8-1c1.1,0.1,2.3,0.3,3.4,0.4c2.3-0.4,4.5-0.8,4-1.2c-0.6,0.1-1.8,0.1-3.1,0.2c0.6-0.1,1-0.2,0.7-0.3
						c-0.3-0.1-1.3,0.1-2.8,0.2l-2.1-0.7l-0.5,0.3l-12.3-0.4c-8.8,0.7-16.5,1.8-30.5,2.1c3.5-0.5,0.7-0.9,0.9-1.5
						c3.8,0.7,10.8-0.3,18.1-0.1c-3.8-0.1-3-0.4-2-0.5l-12.9,0.6c0.3-0.5-2.7-0.4-6.1-0.6c2.6,1-9.7,0.7-14.9,1
						c-0.3-0.3,0.9-0.7,7.4-0.6c-7.1-0.8-9.2,1.2-16.1,0.5c1.6,0,2.4,0,3-0.1c-3.7,0.3-12.6,0.1-10.5-0.2l1.6,0
						c-10.4-0.1-31.7,0-33.3,0.8c-0.1-0.1,1.4-1,2-1.2l-18.6,2.9c1.6-0.7-4.6-2.5,4-2.9c-2.5-0.1-5.5-0.2-10.8,0
						c1.7,0.1,4.2,1.1,1.9,1.1c-6.3-0.8-4.4-0.4-12.2-1.1c2.5,0.2-0.3,1.3-4.3,1.3c0.6-0.2-0.3-1.1,1.1-1.3l-10,1.1
						c2.5-0.2,0.4-1-1.8-1.3c1,0.2-8.6,0-11.3,0.1l4.2,0.3c-11.3-0.2-11.1,1.6-22.3,1.5c1.4-0.2,3.3-1.4-2.3-1.6
						c-2.6,0.6-11.5,2.8-21.4,3.2l-1.9-0.3l-7.6,0.4c4.7-0.9,18-2.7,25.2-3.4c-4.2-0.3-1.2-0.4-7.5-0.4c-2.2-0.3,3.4-0.5,5.3-0.5
						l-14.7-0.2c0.7,0.7-11.2,0.7-10.7,1.2l16-0.7c0.6,0.7-9.2,1.9-19.6,1.8c-2.6-0.3,2-1.2,1.8-1.4c-1.4,0.2-9.9,0.4-10.8,0.3
						l4.4-0.4c-5.8-0.3-9.5,0.9-16.4,0.2c-2.4,0-7.2-0.9-7.6-0.5c3.9,0.8,4.7,3.1,2.1,3.7c-0.4,0-3.3-0.2-6.4-0.4
						c-1.6-0.1-3.2-0.2-4.6-0.3c-1.4-0.1-2.5-0.2-3.3-0.3c0,0.4,0,0.5-0.1,0.6c-0.3,1.5-0.6,0.4-0.9-1.6c0.8-0.2,1.8-0.4,2.4-0.5
						c0.6-0.2,0.7-0.3-0.7-0.5c-0.1,0.1-1.3,0.3-2.3,0.4c0.1,0.8,0.1,1.5,0.1,2c-0.1,1.6-0.2,1.2-0.3,1.3c-0.1,0.1-0.1,0.2-0.1,0.9
						c0,0.3,0,0.7,0,1.3c0,0.4,0,1,0,1.7c0.7,0.9-0.1,11.2,0.6,2.6c0.2,5.4-0.1,5.7-0.1,12c0.4-2,1.5,5.7,1.7,11
						c-0.2-0.3-0.4,0.9-0.5,1.5c-0.1,11-0.4,16.9-0.4,27.2c-0.2,0.9-0.4,5.9-0.7,3.8c0.1,1.5,0.4,2.8,0.4,6
						c-0.6,6.1-0.1-7.1-0.8-2.4c0.4,0.4,0.5,8.2,0.8,12.7c0.6-1.4,0.1-10.4-0.1-14.9c0.8,0,1.7,7.8,2.1,18.6
						c0.2,8.5-0.5,3.7-0.4,5.2c-0.1,16,1.5,13.6,0.9,26.9c-0.5,5.3-1.1,0.2-1.5,1.4c-0.2-6.9,0.3-10.7,0.3-15.4l-0.3,5.8
						c-0.2-2.2-0.3-6.8-0.2-9.4c-0.5,4.4-0.1,27-0.5,39.4c0.2,2.2,0.4,6,0.6,4.2l-0.1-3.9c0.4-3.6,0.6,7.4,0.8,2.4
						c0.3,5.2,0.8,11.1,0.5,18.5l-0.6,1.4c0.2-0.2,0.4-4.8,0.2-6.9c0.3,3.1-0.8,11.3,0,14.7l0.4-5.2c0.3,5.3,1,11.8,0.8,18.3
						c0.6-3-0.1-1.5,0.6-6.2c-0.9,4,0-16.7-0.9-10.3c0.8-4.8,0.3-8.3,1-14.5c-0.2,0.2-0.4,2.2-0.3-3.3c-0.1-0.2-0.1-0.8-0.2-1.2
						c0-0.2,0-0.2,0-0.4c0,0.1,0,0.2,0,0.3c0-0.2,0-0.3,0,0.1c-0.1,1.3-0.2,2.4-0.3,2.8c-0.5-2.7-0.4-11.5-0.7-14.4
						c0.1-3.3,0.2,1.4,0.4-0.4l-0.4-4.4c0.4-0.4,0.7-8.7,1-1l0-6.9c0.3-4.1,0.4-9.7,0.2-13.1c0.1-3.3-0.5-8.2-0.1-5.4l-0.3-10.8
						l0.1-0.1c0.1-10.7-0.7-22,0.1-34.2c-0.1-3.6-0.3-7.3-0.1-13.3l0.4-1.2c-0.1-4.6,0.4-13.9,0-15.9c0.5-2.2,0.6-6.9,0.5-12.2
						c0-2.6-0.1-5.4-0.1-8c0-1.2,0-2.4,0-3.6c0-0.2,0-0.4,0-0.6c0.2,0,0.4,0,0.5,0c0-0.2,0-0.3,0-0.5c1.3,0,2.5,0,3.8,0
						c1.4,0,2.8,0,4.3-0.1c2.9-0.1,6-0.2,9.5-0.2l-0.4-0.4c6-0.4,15.4,0.3,24.9,0.3c-0.6,0.2-3,0.1-4.7,0c11.3,1,23.9-0.7,34.1,0
						c2.6-0.2,4.4-0.1,6.2,0c-0.2,0-0.5,0-0.6,0c0.3,0,0.7,0,1,0c1.1,0.1,2.3,0.2,3.6,0.2c-1.1-0.1-2.1-0.2-3-0.2c2,0,5-0.1,7.9-0.2
						l1.2,0.5c0.2,0,0.4,0,0.7,0c2.9,0.2,2.3-0.2,0.8-0.6c1.5-0.1,2.8-0.2,3.9-0.3c2.3,0.8,7.7-0.3,10.9,0.6
						c2-0.4,14.7-0.3,16.3-1.2c0.1,0.1,1,0.2-0.6,0.2c3.3,0.1,6.5,0.2,9.5,0l1.4,0.6l7.1-0.8c4.3,0.4,6.1,0.6,1.8,1.1
						c10.4-0.7,8.4-0.3,17.3-1l-0.4,0.4c3.2,0,8.2-0.5,10.1-0.2c7.1,0.8,35,0.1,53.1,0.8c-3.5-1.2,8.4,0.5,9.2-0.4
						c1.1,0.3,3.6,0.4,0.6,0.7c9.3-0.3,13.9,0.4,20.3-0.3c1.1,0.3-2,0.4-1,0.6c0.7-0.1,2.9-0.2,3.9-0.1c0.9,0.2-1.4,0.2-2.8,0.4
						c9.5,0,10.4-0.9,11.1-1.7c4.8,0.4,7.2,0.3,10.6-0.2c1.7,0.3,4.5,0.5-1.4,0.6c3.3,0,20.2,0.4,20.5-0.3c1,0.2,4.6,0,5.5,0
						c3.7,0,5.7,0,7.7,0.1c1,0,2,0,3.2,0c1,0,2.1,0,3.5,0l-1.3-0.1c0.7-0.3,1.7-0.4,2.6-0.4c0,0.8,0,1.8-0.1,2.9
						c0,1.3-0.1,3-0.1,4.9l-0.1-0.2c-0.6,13.5,0.3,5.8-0.4,19.1l0.5-0.7c1,1.2-0.6,11.8-0.2,19.5l0.3-2.8c0.4,4.2-1.4,11.8-1.5,16
						c-0.1,0.9-0.1-1.5-0.2-2.7c-0.6,11.1,0.6,1.4,0.8,9.7c-0.3,1.5-0.9-2-0.9,3.6c-0.3,2.8,1.1,16.1,0.5,23.7
						c0.3-1.7,0.5-3.3,0.7,0.5c0.1,5.9-1,15.9-0.2,21.2c-0.1,0.7-0.1,1-0.2,1.1c0.2,4.5,0.4,14.6,0.8,17.3
						c-1.7,4.1,0.8,27.9-0.7,27.8l0.1,13.8l-0.2-0.4c-0.1,8.8,0.3,11.9,0.6,15.1c-0.1,2-0.2,0.6-0.3,0.4c-0.3,12.9-0.2,14.2,0.5,25
						l-0.5,1.1c0.3,2.9-0.8,18.6-0.2,31.3c-0.1-0.1-0.2-0.4-0.2-1.4c0.6,14.2-1.4,34.1,0.4,39.3l0.4,9.4c0.1-12.2,0.8,1.8,1.1-3.2
						c0.1,4.8-0.5,12.4-0.6,6.5l0.1-0.9c-0.9-2.2-0.3,15.1-1,14.8c0,23.9-0.5,47.2-0.5,69.6l0.7-2.6l0,7.8c-0.2,2.1-0.6,2.8-0.5-2.8
						c-0.4,2.9,0.3,9.4,0.5,9.5c-0.1,1.5-0.1,2-0.2,2.1c-0.2,0-0.2-0.1-0.1-0.1c-0.1-0.4-0.3-1.3-0.3-1.9l0-0.1c0-0.1,0-0.1,0-0.2
						c0-0.2,0-0.3,0-0.4c0-0.3,0-0.5-0.1-0.6c0-0.3,0-0.2,0,0.3l0,1.4l0,0.9l0.1-0.4c0,0.2,0.1,0.5,0.1,0.6
						c-0.5,0.1-0.9,0.3-1.6,0.3c-0.1,0-0.6,0-0.9,0.1c-0.4,0-0.8,0-1.3,0c-1,0-2.1,0-3.6,0c-4.2-0.1-2.2-0.5-3.8-0.5
						c0-0.1-0.6-0.1-2.6,0l-9.8-0.1l3.9,0.6c-4.4,0.3-9.3,0-4.7,0.6c-6.7-1-36.7-0.4-40.8-0.7c-6.1,0.4-12.1,0.4-19.6,0.4
						c1.9,0.1,3,0.8-3.5,0.7c2.4-1.3-11.8-0.6-17-1.5c4.7,0.6-18.3,0.2-11,1.1c-5.4-0.1-0.3-0.5-4.4-0.8c-12.8,0.5-28.2-0.3-44-0.2
						c-0.2,0.2,2.4,0.4-1,0.7l-8.4-0.9c-3.1,0.1-2.9,1-8.6,0.4c0.8,0.1,2,0.4-0.1,0.4c-31-0.9-63.3,0.7-94.8-0.9
						c4.3,0.3,1.4,0.4-1.8,0.4c2.1,0.1,0,0.4,0.4,0.7l-13.2-0.7c-2.4,0.7-14.1,0-15.5,0.7l4.2-0.1c-5.5,0.7,7.8,1.7,7,2.6
						c6.2-0.8,16.4,1.3,26.6,0c2.3,0.2-1.9,0.3-0.7,0.5c2.6-0.4,5.7-0.5,11.5-0.3l-0.7,0.1c16.2-0.1,23.2,0.3,41.5,0.6l-1.4-0.5
						c3.9,0.1,4.7,0.2,6.6,0.3c4.5-0.7-11,0-6.9-0.8c5.2,1,27.7,0,31.2,1.1c6,0-1.8-0.5,4.3-0.5l1.6,0.3l1.5-0.4
						c4,0.1,6,0.4,6.1,0.7c-1,0-2.7,0.1-3.8,0.1c5.1,0.3,14.5-0.1,16.2,0l-5.8-0.2c16.5-0.3,36.6,0.1,52.5-0.5l-1.2-0.2
						c12.1-0.4,9.7,0.2,23.1,0.1l-0.5,0.1c2.7-0.2,6.2-0.3,9.9-0.3c-3.4,0.3,6.3,0.5,1.9,0.8c13.2-0.4,6.5-0.3,15.2-1.2l2,0.4
						c3-0.3,3.2-0.5,9.9-0.6c-5.5,0.3,4.3,0.6-1.9,1c14,0.8,20.8-0.8,27.2,0.4c6.4-1-12.1-0.6-8.5-0.8c-3-0.3,5.3-0.8,9.7-0.7
						c4.5,0,7.6,1.3,18.8,1.3c-1.1,0-1.2,0.1-2.3,0.1c2.1,0.1,4.2,0,6.3,0c1.1,0,2.2-0.1,3.4-0.1c0.6,0,1.3,0,1.9,0
						c0.9,0,1.9,0.1,2.9,0.1c0.8-0.1,1.6-0.2,2.4-0.2c-0.1-1.9-0.1-3.8-0.1-5.3c0-0.4,0-0.6,0-0.9c0-0.2,0-0.4-0.1-0.6
						c-0.1-0.4-0.2-0.7-0.3-0.8l0.1,7.2l-5.9,0.1c0.9,0,1.9-0.1,2.8-0.1c1-0.1,1.9-0.1,2.9-0.2c-0.1-2.6-0.3-5.3-0.5-8.4
						c-0.1-2.7-0.1-5.7,0-9.2c0.2,0.7,0.4,3.6,0.5,5.6c0.2-2.8-0.2-5.4,0.1-8.3c0.4,0.4,0.4,3.5,0.5,7.4c0,1.9,0,4,0.1,6
						c0,1.2,0.1,2.3,0.1,3.3c0,1.4,0.1,2.8,0.2,4.1c0.1-1.1,0.1-2.9,0.1-4.8c0-0.4,0-0.8,0-1.1c0-0.3,0-0.6,0-0.9
						c0-0.6,0-1.2-0.1-1.8c-0.1-2.2-0.1-3.6,0.3-2c-1.1-4.5,0.1-11.1-0.7-18.7l0.5,0.5c-0.1-1.2-0.3-3.7-0.3-5.9l0.6,4
						c-0.5-6.2,0.5-11.9,0.2-17.8c0,12.4-0.6,2.8-0.9,8c-0.6-15.3,1.2-8.8,1-25.9c0.1,2.3-0.3,8.7-0.5,5.1c0.1-3.3,0.3-7.5,0.5-9.5
						c-0.1-11.3-0.5,1.7-0.8-3.1c0.6-3.9-0.2-5.6-0.4-10.5l0.5,0c0.3-12.9-1-3.4-0.6-15l0.7,4.9l-0.2-6.1l0.5,1.2
						c-0.4-6.6-0.3-8.6-0.1-15.1c-0.3,1.5-0.9-0.8-0.9-6.6c0.3-3.9,0.5,2.2,0.4-5.9c0.3,1.8,0.7,3.8,0.2,7.4
						c0.2,0.4,0.3,1.8,0.5,2.2c0.3-4.2,0.1-10.5,0.1-13.5c0,1.1,0,2.5-0.1,3.2L431,445c0.2-1.8,0.3-0.4,0.5,1.1
						c-0.1-2.4-0.3-4-0.3-7.5c0.4,0.9,0.8,0.7,1,5.6l-0.4-11.2c0.2-0.7,0.5-5.7,0.6-4.3c0.2-6.2-0.8-15.2-0.5-23.4
						c-0.1-0.4-0.1-1.3-0.2-3c0.1-7.7,0.6-14.6,0-23.7l0.7-5.2c-0.2-7.2-0.9,7-1.2-4.9c-0.2-8.5,0.6-3.2,0.8-6.1
						c-0.4-4.2-1.1-11.5-0.5-19.3C431.6,345.6,431.5,347.6,431.6,350z M431.3,261.6c0.1,1.7,0.4,5.1,0.1,6.4
						C430.9,266,431.1,264.5,431.3,261.6z M371.1,184.1c1.3-0.2,3.2-0.1,5.5,0.1C374.9,184.3,373.1,184.3,371.1,184.1z M115.2,301.5
						c0-0.1,0-0.1,0-0.2C115.4,297.5,115.3,298.8,115.2,301.5z M115,309.4c0.1,0.8,0.1,0.7,0.2,0.4c-0.1-0.6-0.1-2.3-0.1-4.4
						C115,306,114.9,307,115,309.4z M414.9,580.9l1.5,0.1C412.9,581.2,413.9,581.1,414.9,580.9z"/>
					<path class="st1" d="M386.3,183.5c0.5,0.1,0.6,0.2,0.7,0.3C387.7,183.7,387.7,183.6,386.3,183.5z"/>
					<path class="st1" d="M431.8,405l0,0.3c0,0.1,0.1,0.2,0.1,0.3L431.8,405z"/>
					<path class="st1" d="M110.9,185.1c0-0.8,0-1.5,0.1-1.9c1.4,0.1,2.2,0.1,2.9,0.2c0.1-0.1-0.6-0.2-2.9-0.2
						C111,183.7,111,184.4,110.9,185.1z"/>
					<path class="st1" d="M115.9,351.5l-0.1-5.1c0,2.5-0.1,3.3-0.2,4.6C115.7,350.8,115.8,349.9,115.9,351.5z"/>
					<path class="st1" d="M112.9,395.6c0.1,0.7,0,1.6,0.1,2.3l0.2-0.2C113.1,394.5,113,392.3,112.9,395.6z"/>
					<path class="st1" d="M114.3,356.2c-0.4,0.4-0.3,3.6-0.2,7.2c0-0.2,0-0.4,0-0.6C114.6,363.7,114.4,359.9,114.3,356.2z"/>
					<path class="st1" d="M114.1,364.1c0,1.1,0,2.2,0,3.3C114.3,367.9,114.1,366.1,114.1,364.1z"/>
					<path class="st1" d="M115.3,319.5c-0.1,1.7,0.5,1.1,0.4,2C116.2,323.4,115,310.2,115.3,319.5z"/>
					<polygon class="st1" points="112.9,359 113.4,357.8 113,355.8 					"/>
					<path class="st1" d="M113.3,330.9l-0.1,5.7c0.1-0.1,0.1,0.6,0.2,1.5C113.3,334.6,113.4,330.8,113.3,330.9z"/>
					<path class="st1" d="M113.3,338.1c0,1.8,0,3.6,0.1,4.6C113.4,341.7,113.4,339.6,113.3,338.1z"/>
					<polygon class="st1" points="112.8,351.3 112.9,349.6 112.9,345.6 					"/>
					<path class="st1" d="M113.4,269.8l-0.1-6.2c-0.2-0.6-0.3,1.1-0.2,3.4C113.1,268.4,113.2,270.7,113.4,269.8z"/>
					<path class="st1" d="M112,288.5c0.1-1.7,0.2-1.8,0.4-2.7l-0.6-0.2L112,288.5z"/>
					<path class="st1" d="M111.9,270.4c-0.2-0.6-0.5-9-0.5-1.1C111.6,269.9,111.7,276.1,111.9,270.4z"/>
					<polygon class="st1" points="121.2,184.9 119.6,184.9 119.9,185.9 					"/>
					<path class="st1" d="M203.7,182.5c-7.4-0.2-1.7,0.6-8.4,0.3c-1.7,0.2,5.4,0.2,3.7,0.5C203.4,183,205.7,183.1,203.7,182.5z"/>
					<path class="st1" d="M199,183.2c-0.7,0-1.5,0.1-2.3,0.2C198,183.3,198.6,183.3,199,183.2z"/>
					<polygon class="st1" points="126,580.4 121.2,580.2 124.3,580.6 					"/>
					<path class="st1" d="M116.9,581.2l-1.1-0.6l-2.8,0.6C114,581.1,116.1,581,116.9,581.2z"/>
					<path class="st1" d="M432.6,248.4l-0.2-0.4c-0.2,0.7-0.2,1.8-0.2,4.1L432.6,248.4z"/>
					<polygon class="st1" points="432.1,312.6 432.1,311.5 431.5,313.6 					"/>
					<path class="st1" d="M432.8,366.5c0-2.2-0.1-4.8-0.1-7C432.9,364.3,432.1,367.1,432.8,366.5z"/>
				</g>
			</g>
		</g>
	</g>
</g>
<g>
	<g>
		<g>
			<g>
				<g>
					<path class="st1" d="M134.2,557.5c0,1.9,0.4,1.2,0.5,1.5C134.5,555.8,134.1,557.6,134.2,557.5z"/>
					<polygon class="st1" points="133.2,526.8 133.4,527.3 133,522.8 					"/>
					<path class="st1" d="M133.2,498.1c-0.7,2.7,0.1,10.4-0.1,15.5l-0.2,0.8l0.6,2.3C133.4,510.5,133,502.5,133.2,498.1z"/>
					<path class="st1" d="M134.8,482.8c-0.3,0.9-0.2-3.3-0.1,3.6c0-0.3,0-0.4,0.1-0.6C134.8,485.1,134.8,484.2,134.8,482.8z"/>
					<path class="st1" d="M134.8,485.7C134.8,488.7,135,483.7,134.8,485.7L134.8,485.7z"/>
					<path class="st1" d="M134.6,471.8l0.2,4c0.2-0.8,0.2-4.4,0.3-3.1C135,468.6,134.9,469.4,134.6,471.8z"/>
					<path class="st1" d="M134.1,468l0.1,2.1C134.3,469.7,134.3,469.1,134.1,468z"/>
					<path class="st1" d="M134.4,474.4l-0.2-4.4c-0.1,0.6-0.3,0.6,0.1,2C134.1,471.7,134.3,472.6,134.4,474.4z"/>
					<path class="st1" d="M134.3,476.9c-0.2,2.2-0.3,5.1-0.5,1.1C133.9,485.6,134.4,484.5,134.3,476.9z"/>
					<path class="st1" d="M132.5,496.6l-0.2,3l0.2,2.6C132.4,500.9,132.7,496.4,132.5,496.6z"/>
					<path class="st1" d="M135,447c-0.2-0.2-0.4,1.3-0.6,1.6l0.2,2.9C134.6,450,134.7,447.2,135,447z"/>
					<path class="st1" d="M134.4,448.6l-0.3-4.4C134.1,448.1,134.2,448.9,134.4,448.6z"/>
					<polygon class="st1" points="133.3,467.3 133.8,474.5 133.3,465.9 					"/>
					<polygon class="st1" points="135,430.2 135.3,432.7 134.8,428.2 					"/>
					<path class="st1" d="M134.9,419c0.3,1.8,0.5-2.5,0.7-0.6c-0.1-3-0.3-5.6-0.5-7.9C135.2,413,135.2,415.6,134.9,419z"/>
					<path class="st1" d="M134.7,406.6c0.1,1.2,0.2,2.5,0.3,3.9C135,409.2,134.9,407.9,134.7,406.6z"/>
					<path class="st1" d="M134.2,436.7c0.1-0.3,0.3-1,0.4-3.5l-0.4,1.7C134.2,435.5,134.2,436.1,134.2,436.7z"/>
					<path class="st1" d="M134.2,435L134.2,435c0-1.9,0-3.2,0-3.8C134.2,431.7,134.2,432.9,134.2,435z"/>
					<path class="st1" d="M134.2,437.1c0-0.2,0-0.3,0-0.4C134.1,436.9,134.1,437,134.2,437.1z"/>
					<path class="st1" d="M133.7,455.7c-0.2-2.6-0.5-8-0.9-2.8C133.1,454.8,133.3,451.9,133.7,455.7z"/>
					<path class="st1" d="M133.6,439.3l-0.1,4.7c0.1-0.1,0.3-0.9,0.4,0.3L133.6,439.3z"/>
					<polygon class="st1" points="133.5,437 133.6,439.3 133.7,437.6 					"/>
					<path class="st1" d="M134.3,414.6c-0.2-2-0.2-4.2-0.2-6.7c-0.1,2.7-0.1,5.4-0.1,8.1C134.1,416.3,134.4,417.5,134.3,414.6z"/>
					<path class="st1" d="M134.2,424.5c0-0.1,0-0.3,0-0.4C134.2,424.4,134.2,424.6,134.2,424.5z"/>
					<path class="st1" d="M134.1,383.3c0,0.1-0.1,0.3-0.1,0.4c0,0,0,0.1,0.1,0.1L134.1,383.3z"/>
					<path class="st1" d="M133.9,416.4c-0.1,2,0,3.2,0.2,4.4c0-1.5-0.1-3.1-0.1-4.8C133.9,415.8,133.9,415.7,133.9,416.4z"/>
					<path class="st1" d="M134.5,399.7c-0.1,1-0.2,2.2-0.2,3.5C134.4,402.2,134.7,400.1,134.5,399.7z"/>
					<path class="st1" d="M134.3,423.4c0,0.1,0,0.2,0,0.3C134.4,423,134.4,423.1,134.3,423.4z"/>
					<path class="st1" d="M134.3,423.4c-0.1-1-0.2-1.8-0.3-2.7c0,1.2,0.1,2.4,0.1,3.3C134.2,423.8,134.3,423.6,134.3,423.4z"/>
					<path class="st1" d="M131.4,375.9c0.4,0.4,0.8,5.6,0.3,10.2c0.3,4.5,1.6,1.6,2.3-2.4c-0.2-0.1-0.3-0.1-0.6-4.8
						c-0.2,1.6-0.5,10.2-0.9,6.4c-0.2-6.1,0.1-5,0.3-8c-0.5,2.5-0.7-7.8-1.4-6.4l0.3,5.4C131.7,376.3,131.5,374.4,131.4,375.9z"/>
					<path class="st1" d="M134,392.5l0,1.9c0.1-2.2,0.2-3.7,0.5-6.6c-0.2-3.2-0.3-3.8-0.5-4l-0.1,9.4L134,392.5z"/>
					<path class="st1" d="M134,402.9c-0.4-1.5-0.6-6-1.1-3.3c0,5.6,0.4,3.9,0.5,7.2C133.4,397.9,133.8,409.5,134,402.9
						c0,1.8,0,3.4,0.1,4.9c0.1-1.6,0.1-3.2,0.2-4.7c0,0.1,0,0.1,0,0.2l0,0l0,0c-0.1,0.4-0.1,0.5-0.1,0.1c0,0,0-0.1,0-0.2
						C134.2,403.3,134.1,403.1,134,402.9c0.1-2.6,0.1-0.4,0.2,0.4c0,0,0,0.1,0.1,0.1c0,0,0,0,0,0l-0.2-9
						C134,396.3,134,398.7,134,402.9z"/>
					<path class="st1" d="M131.9,448.2c0-0.3,0.1-0.3,0.1-0.3C131.9,447.3,131.9,447.1,131.9,448.2z"/>
					<path class="st1" d="M132.1,444.5c0.1,0.7,0.2,1.2,0.2,3.3c-0.1,1.8-0.2,0-0.3,0.1c0.1,1.3,0.3,4.5,0.5,0.5l-0.1-0.6
						c0.1-3.6,0.7-8.3,0.7-7.7C132.8,441.1,132.5,442.1,132.1,444.5z"/>
					<path class="st1" d="M133,423.5l-0.2-7.5l-0.4,3.8l0.2-0.2C132.5,423.8,132.8,422.9,133,423.5z"/>
					<polygon class="st1" points="134.3,382.5 134.8,383.5 134.1,379.1 					"/>
					<polygon class="st1" points="134.3,372.7 134.7,373.1 134.4,370.5 					"/>
					<path class="st1" d="M412.9,315.4l0.1,2.2C413,316.5,413,315.9,412.9,315.4z"/>
					<path class="st1" d="M413,299.4l-0.2-0.4C412.9,299.7,412.9,300,413,299.4z"/>
					<path class="st1" d="M206.8,210.7c3.2,0.4,6.8,0.9,6.4,0.5l-1-0.4C210,210.9,208.3,210.8,206.8,210.7z"/>
					<path class="st1" d="M370.9,208.1c-0.3,0-0.6-0.1-0.9-0.1c-0.8,0.1-1.5,0.3-2.2,0.4C368.7,208.3,369.8,208.2,370.9,208.1z"/>
					<path class="st1" d="M373.1,206.3l4.2,0.3C376.4,206.5,375.1,206.4,373.1,206.3z"/>
					<path class="st1" d="M413.4,402.6l0.4,2.6C413.8,401.1,413.6,402.9,413.4,402.6z"/>
					<path class="st1" d="M134.1,272.8c0.2-2.8,0.2-5,0.3-6.9C134.1,269.2,133.8,271.9,134.1,272.8z"/>
					<path class="st1" d="M408.3,309.1c0.1,1.3,0.2,1.9,0.3,1.9C408.5,309.6,408.4,308.8,408.3,309.1z"/>
					<path class="st1" d="M134.4,257.9c0,0.5-0.1,1-0.1,1.5c0.1,2,0.1,4.1,0.1,6.5C134.6,263.4,134.7,260.6,134.4,257.9z"/>
					<path class="st1" d="M250.7,561.4c-0.2,0-0.5,0-0.7-0.1C249.9,561.4,250.2,561.4,250.7,561.4z"/>
					<path class="st1" d="M158.5,557c0.9,0,2.4,0,3.8,0C161.6,557,160.5,557,158.5,557z"/>
					<path class="st1" d="M134.5,333.5C134.5,335.5,134.5,333.8,134.5,333.5L134.5,333.5z"/>
					<path class="st1" d="M132.7,343.5c0-0.4-0.1-0.8-0.2-0.8C132.6,342.9,132.7,343.2,132.7,343.5z"/>
					<path class="st1" d="M131.7,237.3c0-0.1,0-0.1,0-0.2C131.6,237.7,131.6,237.6,131.7,237.3z"/>
					<path class="st1" d="M134.3,336.6c0.1-0.8,0.1-1.7,0.1-2.6C134.4,334.4,134.3,335.2,134.3,336.6z"/>
					<path class="st1" d="M134.5,336.2c0,0.7,0,1.3,0,1.8C134.5,338.2,134.5,338,134.5,336.2z"/>
					<path class="st1" d="M134.4,330.6c0,1.2,0,2.3,0,3.3c0-0.4,0.1-0.6,0.1-0.5C134.5,332.9,134.5,332,134.4,330.6z"/>
					<path class="st1" d="M411.9,549.4c0,0.1,0,0.3,0,0.4C412,551.9,412,551,411.9,549.4z"/>
					<path class="st1" d="M260.7,206.2c-0.1,0-0.1,0-0.2,0C260.5,206.2,260.6,206.2,260.7,206.2L260.7,206.2z"/>
					<path class="st1" d="M268.1,205.9c-3.2,0.5-5,0.5-7.4,0.4l2.5,1.3L268.1,205.9z"/>
					<path class="st1" d="M413.1,353.6l0.4-5.2c0.6,6.3,0.4,10.9,1,6c-1.4-0.7-0.1-20.3-1.5-21l0.3-3.4c0,1,0.1,1.1,0.1,2.1
						c0.7-6.7-1-5-0.8-13.6c0.1-3,0.3-5.1,0.5-3.1l-0.3-6.7c0-1.9,0.3-1.5,0.2,0.5l-0.1-10.2l0,0.1c-0.2-1.5-0.5-4.8-0.7-6.4
						c0.2-2.6,0.1,1.3,0.3,0.6l-0.3-5.7c0.4-2.3,0.7,2.4,0.6,6.3c1.4-5.3-0.3-4.7,0.5-16.1l0.2,5.3c0.8-3.4,0.5-7.6,1-13.6
						c-0.3,1.4-1.2,12.1-1.5,5.9c0.1-1.7,0.2-4-0.1-7.3c0.5,0,0.4-3.3,0.3-7.3l0.6,0.3c-0.2-4.4-0.5-4-0.8-6.6c0.1-4.9,0.6-5.9,1-7
						c0.1-7.8-0.8,5.4-0.9-3.8c0.2-6.5,0-11-0.4-18.8c0.2-4.5,0.4,0.8,0.6-0.8l-0.5-4c0-1,0.2-0.7,0.2-0.5c-0.2-3.4-0.6-0.3-0.8-5.6
						c-0.1-0.2-0.1-0.4-0.2-0.7c0-0.2,0-0.4,0-0.6c0-0.2,0-0.5,0-0.8c0-1.3,0.1-3,0.2-5c-2.2-0.1-5.7-0.3-7.4-0.4
						c-2.1-0.1-4.2,0-6,0.2c-1.6-0.2,0.8-0.4,0.3-0.6c-9.1,0.5-7.8,0.4-15.2,1.1l-6.3-0.4c4.7,0.5-1.3,1-6.5,1.5
						c1.7,0.2,3.1,0.4,4,0.5l-8.3,0.3c-1-0.1-0.2-0.3,1.2-0.6c-0.6,0.1-1.1,0.1-1.5,0.2c-3-0.2-1.4-0.6,0.7-1c1,0.1,2,0.3,3,0.4
						c2.1-0.4,4-0.8,3.5-1.2c-0.5,0.1-1.6,0.1-2.7,0.2c0.5-0.1,0.9-0.2,0.6-0.3c-0.3-0.1-1.1,0.1-2.5,0.2l-1.9-0.7l-0.5,0.3
						l-10.9-0.4c-7.8,0.7-14.6,1.8-26.9,2.1c3.1-0.5,0.7-0.9,0.8-1.5c3.4,0.7,9.6-0.3,16-0.1c-3.3-0.1-2.6-0.4-1.8-0.5l-11.4,0.6
						c0.3-0.5-2.4-0.4-5.4-0.6c2.3,1-8.5,0.7-13.2,1c-0.3-0.3,0.8-0.7,6.5-0.6c-6.3-0.8-8.1,1.2-14.2,0.5c1.4,0,2.1,0,2.7-0.1
						c-3.2,0.3-11.1,0.1-9.3-0.2l1.4,0c-9.2-0.1-28,0-29.3,0.8c-0.1-0.1,1.2-1,1.8-1.2l-16.4,2.9c1.4-0.7-4.1-2.5,3.5-2.9
						c-2.2-0.1-4.9-0.2-9.5,0c1.5,0.1,3.7,1.1,1.7,1.1c-5.6-0.8-3.9-0.4-10.8-1.1c2.2,0.2-0.2,1.3-3.8,1.3c0.6-0.2-0.3-1.1,1-1.3
						l-8.8,1.1c2.2-0.2,0.4-1-1.6-1.3c0.9,0.2-7.6,0-10,0.1l3.7,0.3c-9.9-0.2-9.8,1.6-19.7,1.5c1.2-0.2,2.9-1.4-2.1-1.6
						c-2.3,0.6-10.2,2.8-18.9,3.2l-1.7-0.3l-6.7,0.4c4.2-0.9,15.9-2.7,22.2-3.4c-3.7-0.3-1-0.4-6.6-0.4c-2-0.3,3-0.5,4.7-0.5
						l-13-0.2c0.6,0.7-9.9,0.7-9.4,1.2l14.1-0.7c0.6,0.7-8.1,1.9-17.3,1.8c-2.3-0.3,1.7-1.2,1.6-1.4c-1.2,0.2-8.7,0.4-9.6,0.3
						l3.9-0.4c-5.1-0.3-8.3,0.9-14.5,0.2c-2.1,0-6.3-0.9-6.7-0.5c3.5,0.8,4.1,3.1,1.8,3.7c-0.4,0-2.9-0.2-5.7-0.4
						c-0.7-0.1-1.4-0.1-2.1-0.2c-0.7-0.1-1.4-0.1-1.9-0.2c-1.1-0.1-2.2-0.2-2.9-0.3c0,0.3,0,0.4-0.1,0.5c-0.3,1.3-0.6,0.3-0.9-1.5
						c0.7-0.2,1.6-0.4,2-0.5c0.5-0.2,0.5-0.3-0.7-0.5c-0.1,0.1-1.1,0.3-2,0.4c0.1,0.7,0.1,1.3,0.1,1.7c-0.1,1.4-0.2,1.1-0.3,1.1
						c-0.1,0-0.1,0.2-0.1,0.8c0,0.3,0,0.7,0,1.3c0,0.4,0,0.9,0,1.5c0.7,0.8-0.1,9.8,0.6,2.3c0.2,4.7-0.1,5-0.1,10.6
						c0.4-1.8,1.5,5,1.7,9.7c-0.2-0.3-0.4,0.8-0.5,1.3c-0.1,9.7-0.4,14.9-0.4,24c-0.2,0.8-0.4,5.2-0.7,3.3c0.1,1.3,0.4,2.5,0.4,5.3
						c-0.6,5.4-0.1-6.2-0.8-2.1c0.4,0.4,0.5,7.2,0.8,11.2c0.6-1.2,0.1-9.2-0.1-13.2c0.8,0,1.7,6.9,2.1,16.4c0.2,7.5-0.5,3.3-0.4,4.6
						c-0.1,14.1,1.5,12,0.9,23.7c-0.5,4.7-1.1,0.2-1.5,1.2c-0.2-6.1,0.3-9.4,0.3-13.5l-0.3,5.1c-0.2-1.9-0.3-6-0.2-8.3
						c-0.5,3.9-0.1,23.8-0.5,34.7c0.2,1.9,0.4,5.3,0.6,3.7l-0.1-3.4c0.4-3.2,0.6,6.5,0.8,2.1c0.3,4.6,0.8,9.8,0.5,16.3l-0.6,1.2
						c0.2-0.1,0.4-4.3,0.2-6.1c0.3,2.7-0.8,10,0,13l0.4-4.6c0.3,4.6,1,10.4,0.8,16.1c0.6-2.6-0.1-1.3,0.6-5.4c-0.9,3.6,0-14.8-0.9-9
						c0.8-4.2,0.3-7.3,1-12.8c-0.2,0.2-0.4,1.9-0.3-2.9c-0.1-0.2-0.1-0.7-0.2-1.1c0-0.1,0-0.2,0-0.3c0,0.1,0,0.2,0,0.3
						c0-0.2,0-0.2,0,0.1c-0.1,1.2-0.2,2.1-0.3,2.5c-0.5-2.4-0.4-10.1-0.7-12.7c0.1-2.9,0.2,1.2,0.4-0.4l-0.4-3.9
						c0.4-0.4,0.7-7.6,1-0.9l0-6.1c0.3-3.6,0.4-8.5,0.2-11.6c0.1-2.9-0.5-7.3-0.1-4.8l-0.3-9.6l0.1-0.1c0.1-9.4-0.7-19.4,0.1-30.2
						c-0.1-3.2-0.3-6.5-0.1-11.8l0.4-1c-0.1-4.1,0.4-12.2,0-14c0.5-2,0.6-6.1,0.5-10.7c0-2.3-0.1-4.7-0.1-7.1c0-0.6,0-1.2,0-1.7
						c0-0.3,0-0.6,0-0.8l0-0.1l0,0l0-0.1c0-0.2,0-0.4,0-0.6c0.2,0,0.3,0,0.5,0c0-0.2-0.1-0.3-0.1-0.5c1,0,2,0,3,0
						c1.2,0,2.5,0,3.8-0.1c2.6-0.1,5.3-0.2,8.3-0.2l-0.4-0.4c5.3-0.4,13.6,0.3,21.9,0.3c-0.6,0.2-2.7,0.1-4.2,0c10,1,21-0.7,30.1,0
						c2.3-0.2,3.9-0.1,5.5,0c-0.2,0-0.4,0-0.6,0c0.2,0,0.6,0,0.9,0c1,0.1,2,0.2,3.1,0.2c-0.9-0.1-1.8-0.2-2.6-0.2
						c1.7,0,4.4-0.1,7-0.2l1.1,0.5c0.2,0,0.4,0,0.6,0c2.5,0.2,2-0.2,0.7-0.6c1.3-0.1,2.5-0.2,3.4-0.3c2.1,0.8,6.8-0.3,9.6,0.6
						c1.7-0.4,13-0.3,14.4-1.2c0.1,0.1,0.9,0.2-0.5,0.2c2.9,0.1,5.8,0.2,8.3,0l1.2,0.6l6.3-0.8c3.8,0.4,5.4,0.6,1.6,1.1
						c9.2-0.7,7.4-0.3,15.2-1l-0.4,0.4c2.8,0,7.2-0.5,8.9-0.2c6.2,0.8,30.8,0.1,46.8,0.8c-3.1-1.2,7.4,0.5,8.1-0.4
						c0.9,0.3,3.2,0.4,0.6,0.7c8.2-0.3,12.3,0.4,17.9-0.3c0.9,0.3-1.7,0.4-0.9,0.6c0.7-0.1,2.6-0.2,3.4-0.1c0.8,0.2-1.2,0.2-2.5,0.4
						c8.3,0,9.2-0.9,9.8-1.7c4.2,0.4,6.3,0.3,9.4-0.2c1.5,0.3,3.9,0.5-1.3,0.6c2.9,0,17.8,0.4,18.1-0.3c0.9,0.2,4.1,0,4.8,0
						c3.3,0,5,0,6.8,0.1c0.9,0,1.8,0,2.8,0c0.8,0,1.7,0,3,0l-1.1-0.1c0.7-0.3,1.5-0.4,2.4-0.4c0,0.7,0,1.6-0.1,2.6
						c0,0.4,0,1.2-0.1,1.9c0,0.7,0,1.5,0,2.3l-0.1-0.1c-0.6,11.9,0.3,5.1-0.4,16.8l0.5-0.6c1,1.1-0.6,10.4-0.2,17.2l0.3-2.5
						c0.4,3.7-1.4,10.4-1.5,14.1c-0.1,0.8-0.1-1.3-0.2-2.4c-0.6,9.8,0.6,1.3,0.8,8.5c-0.3,1.3-0.9-1.7-0.9,3.2
						c-0.3,2.4,1.1,14.2,0.5,20.9c0.3-1.5,0.5-2.9,0.7,0.4c0.1,5.2-1,14-0.2,18.7c-0.1,0.7-0.1,0.9-0.2,0.9c0.2,4,0.4,12.9,0.8,15.3
						c-1.7,3.7,0.8,24.6-0.7,24.5l0.1,12.2l-0.2-0.3c-0.1,7.8,0.3,10.5,0.6,13.3c-0.1,1.8-0.2,0.5-0.3,0.3
						c-0.3,11.4-0.2,12.5,0.5,22l-0.5,1c0.3,2.6-0.8,16.4-0.2,27.6c-0.1-0.1-0.2-0.3-0.2-1.2c0.6,12.6-1.4,30,0.4,34.6l0.4,8.3
						c0.1-10.7,0.8,1.6,1.1-2.8c0.1,4.2-0.5,10.9-0.6,5.7l0.1-0.8c-0.9-1.9-0.3,13.3-1,13c0,21.1-0.5,41.6-0.5,61.4l0.7-2.3l0,6.9
						c-0.2,1.8-0.6,2.4-0.5-2.5c-0.2,1.3-0.1,3.4,0,5.1c0.1,0.9,0.2,1.7,0.3,2.3c0.1,0.7,0.2,0.8,0.2,0.8c-0.1,1.3-0.1,1.8-0.2,1.9
						c-0.2,0-0.2-0.1-0.1-0.1c-0.1-0.4-0.3-1.2-0.3-1.7c0-0.2,0-0.2-0.1-0.4c0-0.2,0-0.4-0.1-0.5c0-0.2,0-0.2,0,0.3l0.1,1.8l0.1-0.3
						c0,0.2,0.1,0.4,0.1,0.6c-0.4,0.1-0.8,0.3-1.4,0.3c-0.1,0-0.2,0-0.2,0l-0.1,0c-0.1,0-0.2,0-0.2,0c-0.3,0-0.7,0-1.1,0
						c-0.8,0-1.9,0-3.1,0c-3.7-0.1-1.9-0.5-3.4-0.5c0-0.1-0.5-0.1-2.3,0l-8.7-0.1l3.5,0.6c-3.8,0.3-8.2,0-4.2,0.6
						c-5.9-1-32.4-0.4-36-0.7c-5.4,0.4-10.7,0.4-17.3,0.4c1.6,0.1,2.6,0.8-3.1,0.7c2.1-1.3-10.4-0.6-15-1.5
						c4.1,0.6-16.2,0.2-9.7,1.1c-4.7-0.1-0.3-0.5-3.9-0.8c-11.3,0.5-24.9-0.3-38.8-0.2c-0.2,0.2,2.1,0.4-0.9,0.7l-7.4-0.9
						c-2.8,0.1-2.5,1-7.6,0.4c0.7,0.1,1.8,0.4-0.1,0.4c-27.3-0.9-55.8,0.7-83.6-0.9c3.8,0.3,1.3,0.4-1.6,0.4c1.9,0.1,0,0.4,0.3,0.7
						L151,557c-2.1,0.7-12.5,0-13.7,0.7l3.7-0.1c-4.9,0.7,6.8,1.7,6.1,2.6c5.5-0.8,14.4,1.3,23.4,0c2,0.2-1.7,0.3-0.6,0.5
						c2.3-0.4,5-0.5,10.1-0.3l-0.6,0.1c14.3-0.1,20.5,0.3,36.6,0.6l-1.2-0.5c3.5,0.1,4.2,0.2,5.8,0.3c4-0.7-9.7,0-6.1-0.8
						c4.6,1,24.4,0,27.5,1.1c5.3,0-1.6-0.5,3.8-0.5l1.4,0.3l1.3-0.4c3.5,0.1,5.2,0.4,5.4,0.7c-0.8,0-2.4,0.1-3.3,0.1
						c4.5,0.3,12.8-0.1,14.3,0l-5.1-0.2c14.5-0.3,32.3,0.1,46.3-0.5l-1.1-0.2c10.7-0.4,8.6,0.2,20.3,0.1l-0.4,0.1
						c2.4-0.2,5.5-0.3,8.7-0.3c-3,0.3,5.6,0.5,1.7,0.8c11.6-0.4,5.7-0.3,13.4-1.2l1.8,0.4c2.6-0.3,2.8-0.5,8.7-0.6
						c-4.8,0.3,3.7,0.6-1.6,1c12.3,0.8,18.3-0.8,24,0.4c5.7-1-10.7-0.6-7.5-0.8c-2.7-0.3,4.7-0.8,8.5-0.7c3.9,0,6.7,1.3,16.6,1.3
						c-1,0-1.1,0.1-2,0.1c1.9,0.1,3.7,0,5.6,0c1,0,1.9-0.1,3-0.1c0.6,0,1.3,0,1.9,0c0.8,0,1.7,0.1,2.6,0.1c0.7-0.1,1.4-0.2,2.1-0.2
						c-0.1-1.7-0.1-3.3-0.1-4.7c0-0.3,0-0.7,0-1c0-0.2,0-0.4-0.1-0.6c-0.1-0.3-0.2-0.6-0.3-0.7l0.1,6.5l-5.4,0.1
						c1.8-0.1,3.6-0.2,5.2-0.3c-0.1-2.3-0.3-4.8-0.5-7.6c-0.1-2.3-0.1-5,0-8.1c0.2,0.7,0.4,3.2,0.5,4.9c0.2-2.5-0.2-4.8,0.1-7.4
						c0.4,0.4,0.4,3.1,0.5,6.5c0,1.7,0,3.5,0.1,5.3c0,1.1,0.1,2.2,0.1,3.2c0,1.2,0.1,2.5,0.2,3.6c0.1-1,0.1-2.5,0.1-4.2
						c0-0.4,0-0.8,0-1.3l0-0.8c0-0.5,0-1.1-0.1-1.5c-0.1-1.9-0.1-3.2,0.3-1.8c-1.1-4,0.1-9.8-0.7-16.5l0.5,0.4
						c-0.1-1.1-0.3-3.3-0.3-5.2l0.6,3.5c-0.5-5.4,0.5-10.5,0.2-15.7c0,10.9-0.6,2.4-0.9,7.1c-0.6-13.5,1.2-7.7,1-22.8
						c0.1,2-0.3,7.7-0.5,4.5c0.1-2.9,0.3-6.7,0.5-8.4c-0.1-10-0.5,1.5-0.8-2.7c0.6-3.4-0.2-4.9-0.4-9.3l0.5,0c0.3-11.4-1-3-0.6-13.3
						l0.7,4.3l-0.2-5.3l0.5,1.1c-0.4-5.8-0.3-7.6-0.1-13.3c-0.3,1.3-0.9-0.7-0.9-5.8c0.3-3.4,0.5,1.9,0.4-5.2
						c0.3,1.6,0.7,3.4,0.2,6.5c0.2,0.3,0.3,1.6,0.5,1.9c0.3-3.7,0.1-9.3,0.1-11.9c0,1,0,2.2-0.1,2.8l-0.7-10.3
						c0.2-1.6,0.3-0.3,0.5,0.9c-0.1-2.1-0.3-3.5-0.3-6.6c0.4,0.8,0.8,0.6,1,5l-0.4-9.9c0.2-0.7,0.5-5.1,0.6-3.8
						c0.2-5.5-0.8-13.4-0.5-20.7c-0.1-0.4-0.1-1.1-0.2-2.7c0.1-6.8,0.6-12.8,0-20.9l0.7-4.6c-0.2-6.3-0.9,6.2-1.2-4.3
						c-0.2-7.5,0.6-2.8,0.8-5.4c-0.4-3.7-1.1-10.2-0.5-17C413.1,349.7,413,351.5,413.1,353.6z M412.7,275.6c0.1,1.5,0.4,4.5,0.1,5.6
						C412.3,279.5,412.6,278.2,412.7,275.6z M359.4,207.2c1.1-0.2,2.9-0.1,4.8,0.1C362.8,207.3,361.2,207.3,359.4,207.2z
						 M134.1,310.8c0-0.1,0-0.1,0-0.2C134.2,307.3,134.2,308.5,134.1,310.8z M133.9,317.8c0.1,0.7,0.1,0.7,0.2,0.4
						c-0.1-0.5-0.1-2.1-0.1-3.8C133.8,314.8,133.8,315.7,133.9,317.8z M398,557l1.4,0.1C396.3,557.3,397.2,557.2,398,557z"/>
					<path class="st1" d="M372.8,206.5c0.4,0.1,0.5,0.2,0.6,0.3C374.1,206.7,374.1,206.6,372.8,206.5z"/>
					<path class="st1" d="M413.3,402.1l0,0.2c0,0.1,0.1,0.2,0.1,0.2L413.3,402.1z"/>
					<path class="st1" d="M129.8,208c0-0.7,0-1.3,0.1-1.7c1.2,0.1,2,0.1,2.5,0.2c0-0.1-0.6-0.2-2.6-0.2
						C129.8,206.7,129.8,207.3,129.8,208z"/>
					<path class="st1" d="M134.7,354.9l-0.1-4.5c0,2.2-0.1,2.9-0.2,4C134.5,354.3,134.7,353.5,134.7,354.9z"/>
					<path class="st1" d="M131.7,393.8c0.1,0.7,0,1.4,0.1,2l0.2-0.2C132,392.9,131.8,390.9,131.7,393.8z"/>
					<path class="st1" d="M133.1,359c-0.4,0.4-0.3,3.2-0.2,6.3c0-0.2,0-0.4,0-0.6C133.5,365.7,133.3,362.4,133.1,359z"/>
					<path class="st1" d="M132.9,366.1c0,1,0,2,0,2.9C133.1,369.3,133,367.8,132.9,366.1z"/>
					<path class="st1" d="M134.1,326.7c-0.1,1.5,0.5,0.9,0.4,1.8C135,330.1,133.9,318.5,134.1,326.7z"/>
					<polygon class="st1" points="131.7,361.6 132.2,360.4 131.8,358.7 					"/>
					<path class="st1" d="M132.1,336.8l-0.1,5c0.1-0.1,0.1,0.6,0.2,1.3C132.2,340,132.3,336.7,132.1,336.8z"/>
					<path class="st1" d="M132.1,343.1c0,1.6,0,3.1,0.1,4C132.2,346.3,132.2,344.4,132.1,343.1z"/>
					<polygon class="st1" points="131.6,354.7 131.7,353.2 131.7,349.7 					"/>
					<path class="st1" d="M132.2,282.8l-0.1-5.5c-0.2-0.6-0.3,0.9-0.2,3C132,281.6,132,283.7,132.2,282.8z"/>
					<path class="st1" d="M130.8,299.4c0.1-1.5,0.2-1.6,0.4-2.4l-0.6-0.2L130.8,299.4z"/>
					<path class="st1" d="M130.7,283.4c-0.2-0.5-0.5-7.9-0.5-1C130.4,283,130.5,288.5,130.7,283.4z"/>
					<polygon class="st1" points="139.1,208 137.7,208 137.9,209 					"/>
					<path class="st1" d="M211.8,205.5c-6.5-0.2-1.5,0.6-7.4,0.3c-1.5,0.2,4.8,0.2,3.2,0.5C211.5,206.1,213.6,206.2,211.8,205.5z"/>
					<path class="st1" d="M207.6,206.3c-0.6,0-1.3,0.1-2,0.2C206.8,206.4,207.3,206.4,207.6,206.3z"/>
					<polygon class="st1" points="143.2,556.5 139.1,556.3 141.8,556.6 					"/>
					<path class="st1" d="M135.2,557.3l-1-0.6l-2.5,0.6C132.7,557.2,134.5,557.1,135.2,557.3z"/>
					<path class="st1" d="M414.1,264l-0.2-0.3c-0.2,0.6-0.2,1.6-0.2,3.6L414.1,264z"/>
					<polygon class="st1" points="413.6,320.6 413.6,319.6 413,321.5 					"/>
					<path class="st1" d="M414.3,368.1c0-1.9-0.1-4.2-0.1-6.2C414.3,366.2,413.6,368.6,414.3,368.1z"/>
				</g>
			</g>
		</g>
	</g>
</g>
<g>
	<line class="st8" x1="76.1" y1="67.1" x2="76.1" y2="115.1"/>
	<g>
		<path class="st1" d="M73.6,67.1c0,16,0,32,0,48c0,3.2,5,3.2,5,0c0-16,0-32,0-48C78.6,63.9,73.6,63.9,73.6,67.1L73.6,67.1z"/>
	</g>
</g>
<g>
	<line class="st8" x1="106.1" y1="68.1" x2="106.1" y2="116.1"/>
	<g>
		<path class="st1" d="M103.6,68.1c0,16,0,32,0,48c0,3.2,5,3.2,5,0c0-16,0-32,0-48C108.6,64.9,103.6,64.9,103.6,68.1L103.6,68.1z"/>
	</g>
</g>
<g>
	<line class="st8" x1="140.1" y1="68.4" x2="140.1" y2="116.4"/>
	<g>
		<path class="st1" d="M137.6,68.4c0,16,0,32,0,48c0,3.2,5,3.2,5,0c0-16,0-32,0-48C142.6,65.2,137.6,65.2,137.6,68.4L137.6,68.4z"/>
	</g>
</g>
<g>
	<line class="st8" x1="170.1" y1="69.4" x2="170.1" y2="117.4"/>
	<g>
		<path class="st1" d="M167.6,69.4c0,16,0,32,0,48c0,3.2,5,3.2,5,0c0-16,0-32,0-48C172.6,66.2,167.6,66.2,167.6,69.4L167.6,69.4z"/>
	</g>
</g>
<g>
	<line class="st8" x1="204.1" y1="69.1" x2="204.1" y2="117.1"/>
	<g>
		<path class="st1" d="M201.6,69.1c0,16,0,32,0,48c0,3.2,5,3.2,5,0c0-16,0-32,0-48C206.6,65.9,201.6,65.9,201.6,69.1L201.6,69.1z"/>
	</g>
</g>
<g>
	<line class="st8" x1="234.8" y1="68.1" x2="234.8" y2="116.1"/>
	<g>
		<path class="st1" d="M232.3,68.1c0,16,0,32,0,48c0,3.2,5,3.2,5,0c0-16,0-32,0-48C237.3,64.9,232.3,64.9,232.3,68.1L232.3,68.1z"/>
	</g>
</g>
<g>
	<line class="st8" x1="265.8" y1="68.1" x2="265.8" y2="116.1"/>
	<g>
		<path class="st1" d="M263.3,68.1c0,16,0,32,0,48c0,3.2,5,3.2,5,0c0-16,0-32,0-48C268.3,64.9,263.3,64.9,263.3,68.1L263.3,68.1z"/>
	</g>
</g>
<g>
	<line class="st8" x1="299.1" y1="68.1" x2="299.1" y2="116.1"/>
	<g>
		<path class="st1" d="M296.6,68.1c0,16,0,32,0,48c0,3.2,5,3.2,5,0c0-16,0-32,0-48C301.6,64.9,296.6,64.9,296.6,68.1L296.6,68.1z"/>
	</g>
</g>
<g>
	<line class="st8" x1="331.5" y1="68.1" x2="331.5" y2="116.1"/>
	<g>
		<path class="st1" d="M329,68.1c0,16,0,32,0,48c0,3.2,5,3.2,5,0c0-16,0-32,0-48C334,64.9,329,64.9,329,68.1L329,68.1z"/>
	</g>
</g>
<g>
	<line class="st8" x1="362.1" y1="68.1" x2="362.1" y2="116.1"/>
	<g>
		<path class="st1" d="M359.6,68.1c0,16,0,32,0,48c0,3.2,5,3.2,5,0c0-16,0-32,0-48C364.6,64.9,359.6,64.9,359.6,68.1L359.6,68.1z"/>
	</g>
</g>
<g>
	<line class="st8" x1="394.1" y1="68.1" x2="394.1" y2="116.1"/>
	<g>
		<path class="st1" d="M391.6,68.1c0,16,0,32,0,48c0,3.2,5,3.2,5,0c0-16,0-32,0-48C396.6,64.9,391.6,64.9,391.6,68.1L391.6,68.1z"/>
	</g>
</g>
<g>
	<line class="st8" x1="427.5" y1="68.1" x2="427.5" y2="116.1"/>
	<g>
		<path class="st1" d="M425,68.1c0,16,0,32,0,48c0,3.2,5,3.2,5,0c0-16,0-32,0-48C430,64.9,425,64.9,425,68.1L425,68.1z"/>
	</g>
</g>
<g>
	<line class="st8" x1="458.1" y1="68.1" x2="458.1" y2="116.1"/>
	<g>
		<path class="st1" d="M455.6,68.1c0,16,0,32,0,48c0,3.2,5,3.2,5,0c0-16,0-32,0-48C460.6,64.9,455.6,64.9,455.6,68.1L455.6,68.1z"/>
	</g>
</g>
<g>
	<line class="st8" x1="489.5" y1="69.4" x2="489.5" y2="117.4"/>
	<g>
		<path class="st1" d="M487,69.4c0,16,0,32,0,48c0,3.2,5,3.2,5,0c0-16,0-32,0-48C492,66.2,487,66.2,487,69.4L487,69.4z"/>
	</g>
</g>
<g>
	<line class="st8" x1="59.1" y1="74.2" x2="59.1" y2="122.2"/>
	<g>
		<path class="st1" d="M56.6,74.2c0,16,0,32,0,48c0,3.2,5,3.2,5,0c0-16,0-32,0-48C61.6,70.9,56.6,70.9,56.6,74.2L56.6,74.2z"/>
	</g>
</g>
<g>
	<line class="st8" x1="89.1" y1="75.2" x2="89.1" y2="123.2"/>
	<g>
		<path class="st1" d="M86.6,75.2c0,16,0,32,0,48c0,3.2,5,3.2,5,0c0-16,0-32,0-48C91.6,71.9,86.6,71.9,86.6,75.2L86.6,75.2z"/>
	</g>
</g>
<g>
	<line class="st8" x1="123.1" y1="75.5" x2="123.1" y2="123.5"/>
	<g>
		<path class="st1" d="M120.6,75.5c0,16,0,32,0,48c0,3.2,5,3.2,5,0c0-16,0-32,0-48C125.6,72.3,120.6,72.3,120.6,75.5L120.6,75.5z"/>
	</g>
</g>
<g>
	<line class="st8" x1="153.1" y1="76.5" x2="153.1" y2="124.5"/>
	<g>
		<path class="st1" d="M150.6,76.5c0,16,0,32,0,48c0,3.2,5,3.2,5,0c0-16,0-32,0-48C155.6,73.3,150.6,73.3,150.6,76.5L150.6,76.5z"/>
	</g>
</g>
<g>
	<line class="st8" x1="187.1" y1="76.2" x2="187.1" y2="124.2"/>
	<g>
		<path class="st1" d="M184.6,76.2c0,16,0,32,0,48c0,3.2,5,3.2,5,0c0-16,0-32,0-48C189.6,72.9,184.6,72.9,184.6,76.2L184.6,76.2z"/>
	</g>
</g>
<g>
	<line class="st8" x1="217.8" y1="75.2" x2="217.8" y2="123.2"/>
	<g>
		<path class="st1" d="M215.3,75.2c0,16,0,32,0,48c0,3.2,5,3.2,5,0c0-16,0-32,0-48C220.3,71.9,215.3,71.9,215.3,75.2L215.3,75.2z"/>
	</g>
</g>
<g>
	<line class="st8" x1="248.8" y1="75.2" x2="248.8" y2="123.2"/>
	<g>
		<path class="st1" d="M246.3,75.2c0,16,0,32,0,48c0,3.2,5,3.2,5,0c0-16,0-32,0-48C251.3,71.9,246.3,71.9,246.3,75.2L246.3,75.2z"/>
	</g>
</g>
<g>
	<line class="st8" x1="282.1" y1="75.2" x2="282.1" y2="123.2"/>
	<g>
		<path class="st1" d="M279.6,75.2c0,16,0,32,0,48c0,3.2,5,3.2,5,0c0-16,0-32,0-48C284.6,71.9,279.6,71.9,279.6,75.2L279.6,75.2z"/>
	</g>
</g>
<g>
	<line class="st8" x1="314.5" y1="75.2" x2="314.5" y2="123.2"/>
	<g>
		<path class="st1" d="M312,75.2c0,16,0,32,0,48c0,3.2,5,3.2,5,0c0-16,0-32,0-48C317,71.9,312,71.9,312,75.2L312,75.2z"/>
	</g>
</g>
<g>
	<line class="st8" x1="345.1" y1="75.2" x2="345.1" y2="123.2"/>
	<g>
		<path class="st1" d="M342.6,75.2c0,16,0,32,0,48c0,3.2,5,3.2,5,0c0-16,0-32,0-48C347.6,71.9,342.6,71.9,342.6,75.2L342.6,75.2z"/>
	</g>
</g>
<g>
	<line class="st8" x1="377.1" y1="75.2" x2="377.1" y2="123.2"/>
	<g>
		<path class="st1" d="M374.6,75.2c0,16,0,32,0,48c0,3.2,5,3.2,5,0c0-16,0-32,0-48C379.6,71.9,374.6,71.9,374.6,75.2L374.6,75.2z"/>
	</g>
</g>
<g>
	<line class="st8" x1="410.5" y1="75.2" x2="410.5" y2="123.2"/>
	<g>
		<path class="st1" d="M408,75.2c0,16,0,32,0,48c0,3.2,5,3.2,5,0c0-16,0-32,0-48C413,71.9,408,71.9,408,75.2L408,75.2z"/>
	</g>
</g>
<g>
	<line class="st8" x1="441.1" y1="75.2" x2="441.1" y2="123.2"/>
	<g>
		<path class="st1" d="M438.6,75.2c0,16,0,32,0,48c0,3.2,5,3.2,5,0c0-16,0-32,0-48C443.6,71.9,438.6,71.9,438.6,75.2L438.6,75.2z"/>
	</g>
</g>
<g>
	<line class="st8" x1="472.5" y1="76.5" x2="472.5" y2="124.5"/>
	<g>
		<path class="st1" d="M470,76.5c0,16,0,32,0,48c0,3.2,5,3.2,5,0c0-16,0-32,0-48C475,73.3,470,73.3,470,76.5L470,76.5z"/>
	</g>
</g>
<g>
	<line class="st8" x1="74.4" y1="663.5" x2="74.4" y2="711.5"/>
	<g>
		<path class="st1" d="M71.9,663.5c0,16,0,32,0,48c0,3.2,5,3.2,5,0c0-16,0-32,0-48C76.9,660.3,71.9,660.3,71.9,663.5L71.9,663.5z"/>
	</g>
</g>
<g>
	<line class="st8" x1="104.4" y1="664.5" x2="104.4" y2="712.5"/>
	<g>
		<path class="st1" d="M101.9,664.5c0,16,0,32,0,48c0,3.2,5,3.2,5,0c0-16,0-32,0-48C106.9,661.3,101.9,661.3,101.9,664.5
			L101.9,664.5z"/>
	</g>
</g>
<g>
	<line class="st8" x1="138.4" y1="664.8" x2="138.4" y2="712.8"/>
	<g>
		<path class="st1" d="M135.9,664.8c0,16,0,32,0,48c0,3.2,5,3.2,5,0c0-16,0-32,0-48C140.9,661.6,135.9,661.6,135.9,664.8
			L135.9,664.8z"/>
	</g>
</g>
<g>
	<line class="st8" x1="168.4" y1="665.8" x2="168.4" y2="713.8"/>
	<g>
		<path class="st1" d="M165.9,665.8c0,16,0,32,0,48c0,3.2,5,3.2,5,0c0-16,0-32,0-48C170.9,662.6,165.9,662.6,165.9,665.8
			L165.9,665.8z"/>
	</g>
</g>
<g>
	<line class="st8" x1="202.4" y1="665.5" x2="202.4" y2="713.5"/>
	<g>
		<path class="st1" d="M199.9,665.5c0,16,0,32,0,48c0,3.2,5,3.2,5,0c0-16,0-32,0-48C204.9,662.3,199.9,662.3,199.9,665.5
			L199.9,665.5z"/>
	</g>
</g>
<g>
	<line class="st8" x1="233" y1="664.5" x2="233" y2="712.5"/>
	<g>
		<path class="st1" d="M230.5,664.5c0,16,0,32,0,48c0,3.2,5,3.2,5,0c0-16,0-32,0-48C235.5,661.3,230.5,661.3,230.5,664.5
			L230.5,664.5z"/>
	</g>
</g>
<g>
	<line class="st8" x1="264" y1="664.5" x2="264" y2="712.5"/>
	<g>
		<path class="st1" d="M261.5,664.5c0,16,0,32,0,48c0,3.2,5,3.2,5,0c0-16,0-32,0-48C266.5,661.3,261.5,661.3,261.5,664.5
			L261.5,664.5z"/>
	</g>
</g>
<g>
	<line class="st8" x1="297.4" y1="664.5" x2="297.4" y2="712.5"/>
	<g>
		<path class="st1" d="M294.9,664.5c0,16,0,32,0,48c0,3.2,5,3.2,5,0c0-16,0-32,0-48C299.9,661.3,294.9,661.3,294.9,664.5
			L294.9,664.5z"/>
	</g>
</g>
<g>
	<line class="st8" x1="329.7" y1="664.5" x2="329.7" y2="712.5"/>
	<g>
		<path class="st1" d="M327.2,664.5c0,16,0,32,0,48c0,3.2,5,3.2,5,0c0-16,0-32,0-48C332.2,661.3,327.2,661.3,327.2,664.5
			L327.2,664.5z"/>
	</g>
</g>
<g>
	<line class="st8" x1="360.4" y1="664.5" x2="360.4" y2="712.5"/>
	<g>
		<path class="st1" d="M357.9,664.5c0,16,0,32,0,48c0,3.2,5,3.2,5,0c0-16,0-32,0-48C362.9,661.3,357.9,661.3,357.9,664.5
			L357.9,664.5z"/>
	</g>
</g>
<g>
	<line class="st8" x1="392.4" y1="664.5" x2="392.4" y2="712.5"/>
	<g>
		<path class="st1" d="M389.9,664.5c0,16,0,32,0,48c0,3.2,5,3.2,5,0c0-16,0-32,0-48C394.9,661.3,389.9,661.3,389.9,664.5
			L389.9,664.5z"/>
	</g>
</g>
<g>
	<line class="st8" x1="425.7" y1="664.5" x2="425.7" y2="712.5"/>
	<g>
		<path class="st1" d="M423.2,664.5c0,16,0,32,0,48c0,3.2,5,3.2,5,0c0-16,0-32,0-48C428.2,661.3,423.2,661.3,423.2,664.5
			L423.2,664.5z"/>
	</g>
</g>
<g>
	<line class="st8" x1="456.4" y1="664.5" x2="456.4" y2="712.5"/>
	<g>
		<path class="st1" d="M453.9,664.5c0,16,0,32,0,48c0,3.2,5,3.2,5,0c0-16,0-32,0-48C458.9,661.3,453.9,661.3,453.9,664.5
			L453.9,664.5z"/>
	</g>
</g>
<g>
	<line class="st8" x1="487.7" y1="665.8" x2="487.7" y2="713.8"/>
	<g>
		<path class="st1" d="M485.2,665.8c0,16,0,32,0,48c0,3.2,5,3.2,5,0c0-16,0-32,0-48C490.2,662.6,485.2,662.6,485.2,665.8
			L485.2,665.8z"/>
	</g>
</g>
<g>
	<line class="st8" x1="57.4" y1="670.6" x2="57.4" y2="718.6"/>
	<g>
		<path class="st1" d="M54.9,670.6c0,16,0,32,0,48c0,3.2,5,3.2,5,0c0-16,0-32,0-48C59.9,667.3,54.9,667.3,54.9,670.6L54.9,670.6z"/>
	</g>
</g>
<g>
	<line class="st8" x1="87.4" y1="671.6" x2="87.4" y2="719.6"/>
	<g>
		<path class="st1" d="M84.9,671.6c0,16,0,32,0,48c0,3.2,5,3.2,5,0c0-16,0-32,0-48C89.9,668.3,84.9,668.3,84.9,671.6L84.9,671.6z"/>
	</g>
</g>
<g>
	<line class="st8" x1="121.4" y1="671.9" x2="121.4" y2="719.9"/>
	<g>
		<path class="st1" d="M118.9,671.9c0,16,0,32,0,48c0,3.2,5,3.2,5,0c0-16,0-32,0-48C123.9,668.7,118.9,668.7,118.9,671.9
			L118.9,671.9z"/>
	</g>
</g>
<g>
	<line class="st8" x1="151.4" y1="672.9" x2="151.4" y2="720.9"/>
	<g>
		<path class="st1" d="M148.9,672.9c0,16,0,32,0,48c0,3.2,5,3.2,5,0c0-16,0-32,0-48C153.9,669.7,148.9,669.7,148.9,672.9
			L148.9,672.9z"/>
	</g>
</g>
<g>
	<line class="st8" x1="185.4" y1="672.6" x2="185.4" y2="720.6"/>
	<g>
		<path class="st1" d="M182.9,672.6c0,16,0,32,0,48c0,3.2,5,3.2,5,0c0-16,0-32,0-48C187.9,669.3,182.9,669.3,182.9,672.6
			L182.9,672.6z"/>
	</g>
</g>
<g>
	<line class="st8" x1="216" y1="671.6" x2="216" y2="719.6"/>
	<g>
		<path class="st1" d="M213.5,671.6c0,16,0,32,0,48c0,3.2,5,3.2,5,0c0-16,0-32,0-48C218.5,668.3,213.5,668.3,213.5,671.6
			L213.5,671.6z"/>
	</g>
</g>
<g>
	<line class="st8" x1="247" y1="671.6" x2="247" y2="719.6"/>
	<g>
		<path class="st1" d="M244.5,671.6c0,16,0,32,0,48c0,3.2,5,3.2,5,0c0-16,0-32,0-48C249.5,668.3,244.5,668.3,244.5,671.6
			L244.5,671.6z"/>
	</g>
</g>
<g>
	<line class="st8" x1="280.4" y1="671.6" x2="280.4" y2="719.6"/>
	<g>
		<path class="st1" d="M277.9,671.6c0,16,0,32,0,48c0,3.2,5,3.2,5,0c0-16,0-32,0-48C282.9,668.3,277.9,668.3,277.9,671.6
			L277.9,671.6z"/>
	</g>
</g>
<g>
	<line class="st8" x1="312.7" y1="671.6" x2="312.7" y2="719.6"/>
	<g>
		<path class="st1" d="M310.2,671.6c0,16,0,32,0,48c0,3.2,5,3.2,5,0c0-16,0-32,0-48C315.2,668.3,310.2,668.3,310.2,671.6
			L310.2,671.6z"/>
	</g>
</g>
<g>
	<line class="st8" x1="343.4" y1="671.6" x2="343.4" y2="719.6"/>
	<g>
		<path class="st1" d="M340.9,671.6c0,16,0,32,0,48c0,3.2,5,3.2,5,0c0-16,0-32,0-48C345.9,668.3,340.9,668.3,340.9,671.6
			L340.9,671.6z"/>
	</g>
</g>
<g>
	<line class="st8" x1="375.4" y1="671.6" x2="375.4" y2="719.6"/>
	<g>
		<path class="st1" d="M372.9,671.6c0,16,0,32,0,48c0,3.2,5,3.2,5,0c0-16,0-32,0-48C377.9,668.3,372.9,668.3,372.9,671.6
			L372.9,671.6z"/>
	</g>
</g>
<g>
	<line class="st8" x1="408.7" y1="671.6" x2="408.7" y2="719.6"/>
	<g>
		<path class="st1" d="M406.2,671.6c0,16,0,32,0,48c0,3.2,5,3.2,5,0c0-16,0-32,0-48C411.2,668.3,406.2,668.3,406.2,671.6
			L406.2,671.6z"/>
	</g>
</g>
<g>
	<line class="st8" x1="439.4" y1="671.6" x2="439.4" y2="719.6"/>
	<g>
		<path class="st1" d="M436.9,671.6c0,16,0,32,0,48c0,3.2,5,3.2,5,0c0-16,0-32,0-48C441.9,668.3,436.9,668.3,436.9,671.6
			L436.9,671.6z"/>
	</g>
</g>
<g>
	<line class="st8" x1="470.7" y1="672.9" x2="470.7" y2="720.9"/>
	<g>
		<path class="st1" d="M468.2,672.9c0,16,0,32,0,48c0,3.2,5,3.2,5,0c0-16,0-32,0-48C473.2,669.7,468.2,669.7,468.2,672.9
			L468.2,672.9z"/>
	</g>
</g>
</svg>
