<?xml version="1.0" encoding="utf-8"?>
<!-- Generator: Adobe Illustrator 22.1.0, SVG Export Plug-In . SVG Version: 6.00 Build 0)  -->
<svg version="1.1" id="Calque_1" xmlns="http://www.w3.org/2000/svg" xmlns:xlink="http://www.w3.org/1999/xlink" x="0px" y="0px"
	 viewBox="0 0 595.3 841.9" style="enable-background:new 0 0 595.3 841.9;" xml:space="preserve">
<style type="text/css">
	.st0{fill:#010202;}
	.st1{fill:none;stroke:#000000;stroke-miterlimit:10;}
	.st2{fill:#D28759;}
	.st3{fill:#DF0A45;}
	.st4{fill:#1779A8;}
	.st5{fill:#62102A;}
	.st6{fill:#020304;}
</style>
<path class="st0" d="M378.7,292c-0.1-0.1-0.3,0-0.4,0c0,0-4,0.2-12,0.5c-5.6,0.2-15.2,0.2-23.9,0.2c0,0-5,0-34.5,0.4l-0.1,0
	c2.3,2.3,18.7,18.9,19.6,19.8c1.4,1.4,2.8,2.8,4.1,4.2c0,0,8.7,8.9,11.7,11.5c0,0,0,0,0,0c0,0,0.1,0.1,0.3,0.3
	c0.2,0.2,0.3,0.3,0.4,0.5c0.3,0.3,0.3,0.4,0.3,0.5c0.6,0.4,2.3-1.4,2.3-1.4c9.9-10.4,16.9-18.3,16.9-18.3c0.1-0.2,4.7-5.4,13.9-16
	C377.7,293.7,378.9,292.3,378.7,292z"/>
<path class="st1" d="M362.1,295.2"/>
<path class="st1" d="M322.8,309"/>
<path class="st0" d="M277.9,290c-0.1-0.1-0.3,0-0.4,0c0,0-4,0.2-12,0.5c-5.6,0.2-15.2,0.2-23.9,0.2c0,0-5,0-34.5,0.4l-0.1,0
	c-0.1,0.1,14.3,14.5,19.6,19.8c0,0,13,13.1,15.8,15.7c0,0,0.1,0.1,0.3,0.3c0.2,0.2,0.3,0.3,0.4,0.5c0.3,0.3,0.3,0.4,0.3,0.5
	c0.6,0.4,2.3-1.4,2.3-1.4c9.9-10.4,16.9-18.3,16.9-18.3c0.1-0.2,4.7-5.4,13.9-16C276.9,291.6,278.1,290.2,277.9,290z"/>
<path class="st0" d="M414.8,332.7c-0.1-0.1-0.3,0-0.4,0c0,0-4,0.2-12,0.5c-5.6,0.2-15.2,0.2-23.9,0.2c0,0-5,0-34.5,0.4l-0.1,0
	c-0.1,0.1,14.3,14.5,19.6,19.8c0,0,13,13.1,15.8,15.7c0,0,0.1,0.1,0.3,0.3c0.2,0.2,0.3,0.3,0.4,0.5c0.3,0.3,0.3,0.4,0.3,0.5
	c0.6,0.4,2.3-1.4,2.3-1.4c9.9-10.4,16.9-18.3,16.9-18.3c0.1-0.2,4.7-5.4,13.9-16C413.8,334.3,415.1,332.9,414.8,332.7z"/>
<path class="st0" d="M244.6,329.7c-0.1-0.1-0.3,0-0.4,0c0,0-4,0.2-12,0.5c-5.6,0.2-15.2,0.2-23.9,0.2c0,0-5,0-34.5,0.4l-0.1,0
	c-0.1,0.1,14.3,14.5,19.6,19.8c0,0,13,13.1,15.8,15.7c0,0,0.1,0.1,0.3,0.3c0.2,0.2,0.3,0.3,0.4,0.5c0.3,0.3,0.3,0.4,0.3,0.5
	c0.6,0.4,2.3-1.4,2.3-1.4c9.9-10.4,16.9-18.3,16.9-18.3c0.1-0.2,4.7-5.4,13.9-16C243.6,331.3,244.8,329.9,244.6,329.7z"/>
<path class="st0" d="M458.5,373.6c-0.1-0.1-0.4,0-0.4,0c0,0-4.5,0.2-13.4,0.6c-6.3,0.3-16.9,0.2-26.7,0.2c0,0-5.6,0-38.5,0.5l-0.1,0
	c-0.1,0.1,16,16.1,21.8,22c0,0,14.5,14.6,17.7,17.4c0,0,0.2,0.1,0.3,0.3c0.2,0.2,0.3,0.4,0.5,0.5c0.3,0.4,0.3,0.5,0.4,0.5
	c0.6,0.5,2.6-1.6,2.6-1.6c11-11.6,18.8-20.3,18.8-20.3c0.2-0.2,5.3-6,15.5-17.8C457.4,375.4,458.8,373.9,458.5,373.6z"/>
<path class="st0" d="M208.1,370.8c-0.1-0.1-0.4,0-0.4,0c0,0-4.5,0.2-13.4,0.6c-6.3,0.3-16.9,0.2-26.7,0.2c0,0-5.6,0-38.5,0.5l-0.1,0
	c-0.1,0.1,16,16.1,21.8,22c0,0,14.5,14.6,17.7,17.4c0,0,0.2,0.1,0.3,0.3c0.2,0.2,0.3,0.4,0.5,0.5c0.3,0.4,0.3,0.5,0.4,0.5
	c0.6,0.5,2.6-1.6,2.6-1.6c11-11.6,18.8-20.3,18.8-20.3c0.2-0.2,5.3-6,15.5-17.8C207,372.7,208.4,371.1,208.1,370.8z"/>
<path class="st0" d="M381.3,458.4c0.1,0.1,0.4,0,0.4,0c0,0,4.5,0,13.4-0.1c6.3,0,16.9,0.4,26.7,0.8c0,0,5.6,0.2,38.4,0.9l0.1,0
	c0.1-0.1-15.4-16.7-21.1-22.8c0,0-14-15.1-17-18c0,0-0.2-0.1-0.3-0.3c-0.2-0.2-0.3-0.4-0.4-0.5c-0.3-0.4-0.3-0.5-0.4-0.5
	c-0.6-0.5-2.6,1.5-2.6,1.5c-11.4,11.2-19.5,19.6-19.5,19.6c-0.2,0.2-5.5,5.9-16.1,17.2C382.4,456.6,381,458.1,381.3,458.4z"/>
<path class="st0" d="M131,454.9c0.1,0.1,0.4,0,0.4,0c0,0,4.5,0,13.4-0.1c6.3,0,16.9,0.4,26.7,0.8c0,0,5.6,0.2,38.4,0.9l0.1,0
	c0.1-0.1-15.4-16.7-21.1-22.8c0,0-14-15.1-17-18c0,0-0.2-0.1-0.3-0.3c-0.2-0.2-0.3-0.4-0.4-0.5c-0.3-0.4-0.3-0.5-0.4-0.5
	c-0.6-0.5-2.6,1.5-2.6,1.5c-11.4,11.2-19.5,19.6-19.5,19.6c-0.2,0.2-5.5,5.9-16.1,17.2C132.2,453.1,130.8,454.6,131,454.9z"/>
<path class="st0" d="M171.4,500.2c0.1,0.1,0.4,0,0.4,0c0,0,4.5,0,13.4-0.1c6.3,0,16.9,0.4,26.7,0.8c0,0,5.6,0.2,38.4,0.9l0.1,0
	c0.1-0.1-15.4-16.7-21.1-22.8c0,0-14-15.1-17-18c0,0-0.2-0.1-0.3-0.3c-0.2-0.2-0.3-0.4-0.4-0.5c-0.3-0.4-0.3-0.5-0.4-0.5
	c-0.6-0.5-2.6,1.5-2.6,1.5c-11.4,11.2-19.5,19.6-19.5,19.6c-0.2,0.2-5.5,5.9-16.1,17.2C172.6,498.4,171.2,499.9,171.4,500.2z"/>
<path class="st0" d="M340.7,502.2c0.1,0.1,0.4,0,0.4,0c0,0,4.5,0,13.4-0.1c6.3,0,16.9,0.4,26.7,0.8c0,0,5.6,0.2,38.4,0.9l0.1,0
	c0.1-0.1-15.4-16.7-21.1-22.8c0,0-14-15.1-17-18c0,0-0.2-0.1-0.3-0.3c-0.2-0.2-0.3-0.4-0.4-0.5c-0.3-0.4-0.3-0.5-0.4-0.5
	c-0.6-0.5-2.6,1.5-2.6,1.5c-11.4,11.2-19.5,19.6-19.5,19.6c-0.2,0.2-5.5,5.9-16.1,17.2C341.9,500.4,340.5,501.9,340.7,502.2z"/>
<path class="st0" d="M211,544.4c0.1,0.1,0.4,0,0.4,0c0,0,4.5,0,13.4-0.1c6.3,0,16.9,0.4,26.7,0.8c0,0,5.6,0.2,38.4,0.9l0.1,0
	c0.1-0.1-15.4-16.7-21.1-22.8c0,0-14-15.1-17-18c0,0-0.2-0.1-0.3-0.3c-0.2-0.2-0.3-0.4-0.4-0.5c-0.3-0.4-0.3-0.5-0.4-0.5
	c-0.6-0.5-2.6,1.5-2.6,1.5c-11.4,11.2-19.5,19.6-19.5,19.6c-0.2,0.2-5.5,5.9-16.1,17.2C212.2,542.6,210.8,544.1,211,544.4z"/>
<path class="st0" d="M299.1,545.9c0.1,0.1,0.4,0,0.4,0c0,0,4.5,0,13.4-0.1c6.3,0,16.9,0.4,26.7,0.8c0,0,5.6,0.2,38.4,0.9l0.1,0
	c0.1-0.1-15.4-16.7-21.1-22.8c0,0-14-15.1-17-18c0,0-0.2-0.1-0.3-0.3c-0.2-0.2-0.3-0.4-0.4-0.5c-0.3-0.4-0.3-0.5-0.4-0.5
	c-0.6-0.5-2.6,1.5-2.6,1.5c-11.4,11.2-19.5,19.6-19.5,19.6c-0.2,0.2-5.5,5.9-16.1,17.2C300.3,544.1,298.9,545.6,299.1,545.9z"/>
<path class="st2" d="M294.9,369.4c-12.3,14.9-24.7,29.7-37,44.6c11.4,13.4,22.9,26.9,34.3,40.3l0,0c0.1,0.3,0.3,0.7,0.7,0.8
	c1.1,0.3,2.7-2.2,3-2.7c1.8-2.8,12.2-15.1,32.5-38.4"/>
<path class="st3" d="M295.7,281.9c-12.3,14.9-24.7,29.7-37,44.6c11.4,13.4,22.9,26.9,34.3,40.3l0,0c0.1,0.3,0.3,0.7,0.7,0.8
	c1.1,0.3,2.7-2.2,3-2.7c1.8-2.8,12.2-15.1,32.5-38.4"/>
<path class="st4" d="M252.1,413.9c12.6-14.7,25.2-29.3,37.7-44c-11.2-13.6-22.4-27.3-33.6-40.9l0,0c-0.1-0.3-0.3-0.7-0.7-0.8
	c-1.1-0.3-2.7,2.2-3,2.7c-1.9,2.8-12.5,14.9-33.1,37.8"/>
<path class="st4" d="M333.9,413.8c12.3-14.9,24.5-29.9,36.8-44.8c-11.5-13.4-23-26.8-34.5-40.2l0,0c-0.1-0.3-0.3-0.7-0.7-0.8
	c-1.1-0.3-2.7,2.2-3,2.8c-1.8,2.8-12.2,15.2-32.3,38.6"/>
<path class="st4" d="M254.4,503.1c12.1-15.1,24.2-30.1,36.3-45.2c-11.7-13.3-23.3-26.5-35-39.8l0,0c-0.1-0.3-0.3-0.7-0.7-0.8
	c-1.1-0.3-2.6,2.3-3,2.8c-1.8,2.8-12,15.3-31.9,38.9"/>
<path class="st4" d="M334.9,416.2c-12.3,14.9-24.7,29.7-37,44.6c11.4,13.4,22.9,26.9,34.3,40.3l0,0c0.1,0.3,0.3,0.7,0.7,0.8
	c1.1,0.3,2.7-2.2,3-2.7c1.8-2.8,12.2-15.1,32.5-38.4"/>
<path class="st5" d="M215.9,371.7c-12.3,14.9-24.7,29.7-37,44.6c11.4,13.4,22.9,26.9,34.3,40.3l0,0c0.1,0.3,0.3,0.7,0.7,0.8
	c1.1,0.3,2.7-2.2,3-2.7c1.8-2.8,12.2-15.1,32.5-38.4"/>
<path class="st5" d="M374.1,371.2c-12,15.2-23.9,30.3-35.9,45.5c11.8,13.2,23.5,26.3,35.3,39.5l0,0c0.1,0.3,0.3,0.7,0.7,0.8
	c1.1,0.3,2.6-2.3,2.9-2.8c1.8-2.8,11.9-15.4,31.6-39.2"/>
<path class="st3" d="M296.7,461.8c-12.3,14.9-24.7,29.7-37,44.6c11.4,13.4,22.9,26.9,34.3,40.3l0,0c0.1,0.3,0.3,0.7,0.7,0.8
	c1.1,0.3,2.7-2.2,3-2.7c1.8-2.8,12.2-15.1,32.5-38.4"/>
<path class="st0" d="M294.6,549.7c-12.3,14.9-24.7,29.7-37,44.6c11.4,13.4,22.9,26.9,34.3,40.3l0,0c0.1,0.3,0.3,0.7,0.7,0.8
	c1.1,0.3,2.7-2.2,3-2.7c1.8-2.8,12.2-15.1,32.5-38.4"/>
<path class="st0" d="M297.9,193c-12.3,14.9-24.7,29.7-37,44.6c11.4,13.4,22.9,26.9,34.3,40.3l0,0c0.1,0.3,0.3,0.7,0.7,0.8
	c1.1,0.3,2.7-2.2,3-2.7c1.8-2.8,12.2-15.1,32.5-38.4"/>
<g>
	<g>
		<path class="st6" d="M109.8,697.6c11.9,0,23.8,0,35.7,0c28.6,0,57.2,0,85.8,0c34.6,0,69.3,0,103.9,0c30.1,0,60.2,0,90.3,0
			c9.8,0,19.7,0,29.5,0c4.6,0,9.6,0.6,14.2,0c0.2,0,0.4,0,0.6,0c1.4,0,2.5-1.1,2.5-2.5c0-18.2,0-36.4,0-54.7c0-43.8,0-87.5,0-131.3
			c0-53,0-105.9,0-158.9c0-45.8,0-91.6,0-137.4c0-15.2,0-30.3,0-45.5c0-7,0.5-14.3,0-21.3c0-0.3,0-0.6,0-1c0-1.4-1.1-2.5-2.5-2.5
			c-11.9,0-23.8,0-35.7,0c-28.6,0-57.2,0-85.8,0c-34.6,0-69.3,0-103.9,0c-30.1,0-60.2,0-90.3,0c-9.8,0-19.7,0-29.5,0
			c-4.6,0-9.6-0.6-14.2,0c-0.2,0-0.4,0-0.6,0c-1.4,0-2.5,1.1-2.5,2.5c0,18.2,0,36.4,0,54.7c0,43.8,0,87.5,0,131.3
			c0,53,0,105.9,0,158.9c0,45.8,0,91.6,0,137.4c0,15.2,0,30.3,0,45.5c0,7-0.5,14.3,0,21.3c0,0.3,0,0.6,0,1c0,3.2,5,3.2,5,0
			c0-18.2,0-36.4,0-54.7c0-43.8,0-87.5,0-131.3c0-53,0-105.9,0-158.9c0-45.8,0-91.6,0-137.4c0-15.2,0-30.3,0-45.5c0-4.7,0-9.3,0-14
			c0-2.2,0.5-5.2,0-7.4c-0.1-0.3,0-0.7,0-1c-0.8,0.8-1.7,1.7-2.5,2.5c11.9,0,23.8,0,35.7,0c28.6,0,57.2,0,85.8,0
			c34.6,0,69.3,0,103.9,0c30.1,0,60.2,0,90.3,0c9.8,0,19.7,0,29.5,0c3.1,0,6.2,0,9.3,0c1.3,0,3.6,0.5,4.9,0c0.2-0.1,0.4,0,0.6,0
			c-0.8-0.8-1.7-1.7-2.5-2.5c0,18.2,0,36.4,0,54.7c0,43.8,0,87.5,0,131.3c0,53,0,105.9,0,158.9c0,45.8,0,91.6,0,137.4
			c0,15.2,0,30.3,0,45.5c0,4.7,0,9.3,0,14c0,2.2-0.5,5.2,0,7.4c0.1,0.3,0,0.7,0,1c0.8-0.8,1.7-1.7,2.5-2.5c-11.9,0-23.8,0-35.7,0
			c-28.6,0-57.2,0-85.8,0c-34.6,0-69.3,0-103.9,0c-30.1,0-60.2,0-90.3,0c-9.8,0-19.7,0-29.5,0c-4.6,0-9.6-0.6-14.2,0
			c-0.2,0-0.4,0-0.6,0C106.6,692.6,106.6,697.6,109.8,697.6z"/>
	</g>
</g>
</svg>
