<?xml version="1.0" encoding="utf-8"?>
<!-- Generator: Adobe Illustrator 22.1.0, SVG Export Plug-In . SVG Version: 6.00 Build 0)  -->
<svg version="1.1" id="Calque_1" xmlns="http://www.w3.org/2000/svg" xmlns:xlink="http://www.w3.org/1999/xlink" x="0px" y="0px"
	 viewBox="0 0 595.3 841.9" style="enable-background:new 0 0 595.3 841.9;" xml:space="preserve">
<style type="text/css">
	.st0{fill:#FFFFFF;stroke:#000000;stroke-miterlimit:10;}
	.st1{fill:none;stroke:#000000;stroke-miterlimit:10;}
	.st2{fill:#223C1D;stroke:#000000;stroke-miterlimit:10;}
	.st3{fill:#2DAA57;}
	.st4{fill:#235627;}
	.st5{fill:#E73C2B;}
	.st6{fill:#E73E2A;}
	.st7{fill:#FFFFFF;stroke:#FFFFFF;stroke-miterlimit:10;}
</style>
<path class="st0" d="M195.9,375.5"/>
<path class="st1" d="M28.3,567.2"/>
<path class="st1" d="M-156.3,181.3"/>
<path class="st1" d="M-23.7,83.3"/>
<path class="st1" d="M60.5,276.5"/>
<path class="st1" d="M249,153"/>
<path class="st1" d="M333,130.5"/>
<line class="st1" x1="266.2" y1="80.4" x2="266.2" y2="80.4"/>
<path class="st1" d="M234,25"/>
<path class="st1" d="M341.2,420.9"/>
<path class="st1" d="M55.7,436.3"/>
<path class="st2" d="M514,539"/>
<path class="st1" d="M482.5,424.5"/>
<path class="st3" d="M332.4,328.4c0.2,1.1,4.2,1.5,6.9,1.8c3.3,0.4,3.8,0,5.1,0.6c2.6,1.4,4.2,5.2,3.5,8.4c-0.7,3.1-3.1,3.4-3.4,6.6
	c-0.2,2.2,0.9,3.9,1.5,4.8c0.1,0.2,2.4,3.7,6.3,4.5c4,0.8,5.5-2.2,9.9-3.2c7.3-1.6,17.6,3.1,20.2,9.8c1.7,4.5-0.6,8.3,2.8,13.7
	c1,1.5,1.6,2.6,3,3.3c4.1,2.1,7.6-2.9,14.8-3.4c2.2-0.2,9.6-0.7,14.2,3.7c2,1.9,1.6,2.9,6.8,11.9c2.5,4.2,3.4,5.4,4.5,5.4
	c2.9-0.1,4.8-7.9,4.9-8.3c2.8-11.6-2.7-25.1-8.7-30.4c-3-2.7-4.6-4.4-7.8-7.8c-1-1.1-1.8-2.1-2.2-2.7c0-0.1-0.1-0.1-0.1-0.1
	c0,0,0,0,0,0c-0.1-0.1-0.4-0.6-0.5-0.7c-0.3-0.5,0.4-1.6,0-2.4c-0.4-0.8-1.6-0.8-2.1-2c0,0,0,0,0,0c-1-3.1-0.9-6.1-0.8-7.3
	c-0.4,2.4-0.9,5.2-0.8,5.2c0.1,0,0.8-5.7,3-11.9c2.9-8.3,8.2-16.3,12.6-22.9c0.6-0.9,2-3,2.9-6.1c1-3.4,0.9-6.2,0.9-7.7
	c-0.6-15.9-8.3-24.2-8.3-24.2c-0.4-0.4-7.8-8.1-18.8-9.4c-2.8-0.3-6.7-0.3-6.8,0c0,0.4,6.2,1.7,6.2,1.4c0.1-0.2-3.8-2-7.8-1.6
	c-1,0.1-1.7,0.3-2.4,0.5c-0.8,0.3-2.8,1.1-3.8,2.7c-1.4,2.4-0.4,6.3,1.9,7.9c0,0,0,0,0,0c2.7,1.5,2.9,2.4,3.7,2.4
	c0.8,0,0.7-0.8,2.2-1.2c0.2-0.1,0.6-0.1,1.5-0.3c0.9-0.2,1.4-0.3,1.6-0.3c1.1,0.1,1.2,0.9,2.1,1c1.2,0.1,2.4-1.3,2.4-1.3
	c0,0-1,0.6-0.9,1.1c0.1,0.6,1.9,0.8,6.4,1.7c1.3,0.3,1.9,0.4,2.5,0.9c0.9,0.7,1.6,2,1.9,2.7c0,0,0.4,0.9,0.7,1.8
	c1.1,4,1.2,13.8-5.2,25.5c-5.9,10.8-13.7,16.3-15.4,17.4c-11.5,7.9-21.3,7.1-22.7,6.2c-0.5-0.3-1.6-1.1-3.5-2.2c0,0,0,0,0,0
	c-5.9-3.4-12-3.2-14.6-3.1C342.6,321.4,332,326.4,332.4,328.4z"/>
<path class="st3" d="M424.7,427.1"/>
<path class="st4" d="M555.1,527.8"/>
<path class="st4" d="M549.1,504.8"/>
<path class="st4" d="M516.2,488.7"/>
<path class="st4" d="M538.4,526.4"/>
<path class="st4" d="M512.2,283.1"/>
<path class="st4" d="M496.3,265"/>
<path class="st4" d="M505.1,326.9"/>
<path class="st4" d="M496.3,248.4"/>
<path class="st4" d="M502.5,277.7"/>
<path class="st3" d="M555.2,473.5"/>
<path class="st5" d="M525.7,526.5c1.6,0.2,3.2,0.3,4.8,0.5"/>
<path class="st6" d="M327.1,338c-2.6,0.1-6,1-13,7.9c-4.6,4.5-13.5,14.1-21.2,30.7c-2.3,5-4.4,10.3-6.4,15.3
	c-3.3,8.4-6.2,15.3-5.9,15.5c0.3,0.1,3-4.9,2.7-5c-0.4-0.3-6.8,11.6-17.5,24.7c-18.9,23-34.8,29.8-40.5,31.8c-0.6,0.2-1.6,0.6-3,1.1
	c-5.1,1.7-24.9,7.7-46.6-1c-20.5-8.2-29.8-24.3-36.3-35.5c-1.5-2.6-6.7-11.8-6.2-19.3c0.3-3.6,0.2-7.3,1.4-10.7c0,0,1.1-3.1,0.4-5
	c-0.4-1.1-1-2.3-1-2.3c0,0,0.3,0.6,0.6,1.2c-1-0.3-2.6-0.6-4.3-0.3c-3.4,0.6-6.1,3.2-12,13.1c-3.5,5.8-5.8,8.6-6.7,12.1
	c-4.7,19.1-1.9,33.9-1.9,33.9c5.5,29.1,27.8,50.9,31.2,54.1c41.5,39.5,102.1,36.2,117.2,34.9c0,0,60.3-5.4,119-61.3
	c20.6-20.9,30.9-37.2,36.4-47.3c2.4-4.6,9.3-18.1,9-18.3c-0.1-0.1-1.3,1.6-1.3,1.6c0,0,2.1-1.6,2-3.5c0-1-0.6-1.8-1-2.3
	c-1.9-2.4-3.2-4.9-5.7-9.6c-1.1-2.1-1.4-2.9-2.5-3.8c-1.1-0.8-1.9-0.9-4.1-1.5c-3.7-1.1-3.3-1.5-6.2-2.3c-1.1-0.3-3.6-0.9-6.9-0.9
	c-0.4,0-0.7,0-1,0c-1.5,0.1-2.5,0.2-2.8,0.3c-1.5,0.2-6.5,1-9.7-0.7c-0.9-0.5-2-1.3-4.5-6.9c-3.5-7.7-2.5-8.5-4.3-11.1
	c-4.5-6.4-14.7-6.6-16.3-6.6c-3.7-0.1-5.6,0.8-13.9,0.8c-1.3,0-5.4,0-7.5-2.3c-0.3-0.3-1-1.1-1-2.2c0-1.3,0.9-2.2,1.2-2.7
	c1.8-2,3.8-5.5,4-7.4C341,343.3,334,337.7,327.1,338z"/>
<path class="st6" d="M167.9,515.9"/>
<path class="st7" d="M317.2,391.8c-0.1-2.4-2.1-3.3-2.4-3.5c-3.9-1.9-9.5,3.7-10.1,4.2c-1.2,1.2-2.3,2.7-7.4,13.2
	c-5.7,11.9-5.6,12.8-7.6,14.8c-1.8,1.7-4,3.1-5.6,6.6c-0.5,1-1.3,2.8-0.9,4.6c0.3,1.4,1.3,2.4,2.2,2.7c2.6,0.8,6.2-3.9,8.1-6.4
	c1.2-1.6,3.9-5.4,10.1-19c2.7-5.8,4.4-10.1,7.3-10.9c1.3-0.4,2.4,0.1,3.8-1.1C316.1,395.8,317.3,393.8,317.2,391.8z"/>
<path class="st7" d="M269.7,447.7c-2.4-2.2-6.7-0.3-6.9-0.2c-3.2,1.5-3,3.9-6.4,7c-4.4,4-7.1,2.1-10.8,6.1c-0.8,0.8-4.1,4.4-3.4,8
	c0.6,3.2,4.2,5.2,7.3,5.2c3.2,0.1,4-2,13.3-8.6c4.3-3.1,5.3-3.4,6.5-5.4C271.4,456.2,272.4,450.1,269.7,447.7z"/>
<path class="st6" d="M327.5,352.5"/>
<path class="st6" d="M140.1,587.6"/>
</svg>
