<?xml version="1.0" encoding="utf-8"?>
<!-- Generator: Adobe Illustrator 22.1.0, SVG Export Plug-In . SVG Version: 6.00 Build 0)  -->
<svg version="1.1" id="Calque_1" xmlns="http://www.w3.org/2000/svg" xmlns:xlink="http://www.w3.org/1999/xlink" x="0px" y="0px"
	 viewBox="0 0 380 328" style="enable-background:new 0 0 380 328;" xml:space="preserve">
<style type="text/css">
	.st0{fill:#FFFFFF;stroke:#000000;stroke-miterlimit:10;}
	.st1{fill:none;stroke:#000000;stroke-miterlimit:10;}
	.st2{fill:#223C1D;stroke:#000000;stroke-miterlimit:10;}
	.st3{fill:#123A1E;}
	.st4{fill:#2DAA57;}
	.st5{fill:#235627;}
	.st6{fill:#E73C2B;}
	.st7{fill:#AF1917;}
	.st8{fill:#BC181B;}
	.st9{fill:#E73E2A;stroke:#D71016;stroke-miterlimit:10;}
	.st10{fill:#E73E2A;}
	.st11{fill:#FFFFFF;stroke:#FFFFFF;stroke-miterlimit:10;}
</style>
<path class="st0" d="M110.9,140"/>
<path class="st1" d="M-56.7,331.7"/>
<path class="st1" d="M-241.3-54.2"/>
<path class="st1" d="M-108.7-152.2"/>
<path class="st1" d="M-24.5,41"/>
<path class="st1" d="M164-82.5"/>
<path class="st1" d="M248-105"/>
<line class="st1" x1="181.2" y1="-155.1" x2="181.2" y2="-155.1"/>
<path class="st1" d="M149-210.5"/>
<path class="st1" d="M256.2,185.4"/>
<path class="st1" d="M-29.3,200.8"/>
<path class="st2" d="M429,303.5"/>
<path class="st1" d="M397.5,189"/>
<path class="st3" d="M247.4,92.9c0.2,1.1,4.2,1.5,6.9,1.8c3.3,0.4,3.8,0,5.1,0.6c2.6,1.4,4.2,5.2,3.5,8.4c-0.7,3.1-3.1,3.4-3.4,6.6
	c-0.2,2.2,0.9,3.9,1.5,4.8c0.1,0.2,2.4,3.7,6.3,4.5c4,0.8,5.5-2.2,9.9-3.2c7.3-1.6,17.6,3.1,20.2,9.8c1.7,4.5-0.6,8.3,2.8,13.7
	c1,1.5,1.6,2.6,3,3.3c4.1,2.1,7.6-2.9,14.8-3.4c2.2-0.2,9.6-0.7,14.2,3.7c2,1.9,1.6,2.9,6.8,11.9c2.5,4.2,3.4,5.4,4.5,5.4
	c2.9-0.1,4.8-7.9,4.9-8.3c2.8-11.6-2.7-25.1-8.7-30.4c-3-2.7-4.6-4.4-7.8-7.8c-1-1.1-1.8-2.1-2.2-2.7c0-0.1-0.1-0.1-0.1-0.1
	c0,0,0,0,0,0c-0.2-0.4-0.4-0.6-0.5-0.7c-0.2-0.4-0.6-0.8-1-1.4c-0.4-0.6-0.3-0.8-1.1-3l0,0c-1-3.1-0.9-6.1-0.8-7.3
	c-0.4,2.4-0.9,5.2-0.8,5.2c0.1,0,0.8-5.7,3-11.9c2.9-8.3,8.2-16.3,12.6-22.9c0.6-0.9,2-3,2.9-6.1c1-3.4,0.9-6.2,0.9-7.7
	c-0.6-15.9-8.3-24.2-8.3-24.2c-0.4-0.4-7.8-8.1-18.8-9.4c-2.8-0.3-6.7-0.3-6.8,0c0,0.4,6.2,1.7,6.2,1.4c0.1-0.2-3.8-2-7.8-1.6
	c-1,0.1-1.7,0.3-2.4,0.5c-0.8,0.3-2.8,1.1-3.8,2.7c-1.4,2.4-0.4,6.3,1.9,7.9c0,0,0,0,0,0c0,0,0.7,0.9,1.7,1.1c0.7,0.2,1.5,0,1.5,0
	c1.1,0.3,1.7,0.5,1.7,0.5c0,0-1.7-0.4-1.7-0.5c0-0.1,1.2,0.3,2.7,0c0.2,0,0.8-0.2,1.5-0.3c1.3-0.3,1.2-0.2,1.6-0.3
	c1.1-0.1,1.3,0.1,2.4,0c1.3-0.1,1.2-0.3,2.1-0.3c0.8,0,1.6,0.3,3.1,1c0.7,0.3,1.3,0.6,1.8,0.8c0.3,0.2,0.7,0.4,1.1,0.8
	c1.8,1.2,1.7,1,2,1.3c0.9,0.8,1.6,1.9,1.9,2.7c0,0,0.4,0.9,0.7,1.8c1.1,4,1.2,13.8-5.2,25.5c-5.9,10.8-13.7,16.3-15.4,17.4
	c-11.5,7.9-21.3,7.1-22.7,6.2c-0.5-0.3-1.6-1.1-3.5-2.2c0,0,0,0,0,0c-5.9-3.4-12-3.2-14.6-3.1C257.6,85.9,247,90.9,247.4,92.9z"/>
<path class="st4" d="M310.6,39.6"/>
<path class="st4" d="M339.7,191.6"/>
<path class="st5" d="M470.1,292.3"/>
<path class="st5" d="M464.1,269.3"/>
<path class="st5" d="M431.2,253.2"/>
<path class="st5" d="M453.4,290.9"/>
<path class="st5" d="M427.2,47.6"/>
<path class="st5" d="M411.3,29.5"/>
<path class="st5" d="M420.1,91.4"/>
<path class="st5" d="M411.3,12.9"/>
<path class="st5" d="M417.5,42.2"/>
<path class="st4" d="M470.2,238"/>
<path class="st6" d="M440.7,291c1.6,0.2,3.2,0.3,4.8,0.5"/>
<g>
	<path class="st7" d="M242.1,102.5c-2.6,0.1-6,1-13,7.9c-4.6,4.5-13.5,14.1-21.2,30.7c-3.9,8.4-6.4,15.3-6.4,15.3
		c-0.8,2-2.6,6.6-5.9,12.3c-0.4,0.6-0.7,1.2-1.1,1.9c-1,1.6-7.9,13.1-13.7,20.8c-5.2,6.9-17.7,23.6-40.5,31.8
		c-0.6,0.2-1.6,0.6-3,1.1c-5.1,1.7-24.9,7.7-46.6-1c-20.5-8.2-29.8-24.3-36.3-35.5c-1.5-2.6-6.7-11.8-6.2-19.3
		c0.3-3.6,0.2-7.3,1.4-10.7c0,0,1.1-3.1,0.4-5c-0.3-1-0.9-2-1-2.2c0,0,0,0,0,0c-0.3-0.5-1.5-0.3-2.5-0.1c-0.3,0.2-0.8,0.5-1.3,0.9
		c-1.5,1.1-7,4.8-12,13.1c-3.5,5.8-5.8,8.6-6.7,12.1c-4.7,19.1-1.9,33.9-1.9,33.9c5.5,29.1,27.8,50.9,31.2,54.1
		c41.5,39.5,102.1,36.2,117.2,34.9c0,0,60.3-5.4,119-61.3c0,0,0,0,0,0c12.8-11.5,25.5-25.4,36.7-42.1c1.2-1.8,2.3-3.5,3.5-5.3
		c1.1-2.4,2.3-4.8,3.4-7.2c0.5-1,1-2.2,1.5-3.5c0.6-1.7,1-3.3,1.3-4.7c-0.1-1-0.2-1.9-0.3-2.5c-0.2-0.9-0.5-1.7-0.7-2.3
		c-0.1-0.3-0.2-0.6-0.3-0.8c0-0.5-0.1-1-0.1-1.5c-0.6-1.4-1.2-2.7-1.8-3.7c-0.8-1.4-1.9-3.5-3.9-5.9c-0.8-0.9-1.5-1.8-2.7-2.8
		c-1.1-1-2.2-1.9-3.9-2.5c-0.9-0.3-1.3-0.3-2.5-0.9c-0.7-0.3-1.1-0.5-1.9-0.9c-0.4-0.2-1-0.4-1.8-0.6c-1.1-0.3-3.6-0.9-6.9-0.9
		c-0.4,0-0.7,0-1,0c-1.5,0.1-2.5,0.2-2.8,0.3c-1.5,0.2-6.5,1-9.7-0.7c-0.9-0.5-2-1.3-4.5-6.9c-3.5-7.7-2.5-8.5-4.3-11.1
		c-4.5-6.4-14.7-6.6-16.3-6.6c-3.7-0.1-5.6,0.8-13.9,0.8c-1.3,0-5.4,0-7.5-2.3c-0.3-0.4-1-1.2-1-2.2c-0.1-1.5,1.1-2.5,2.3-4
		c1.2-1.5,2.9-4.2,2.9-6.1C255.9,107.6,248.9,102.2,242.1,102.5z"/>
	<g>
		<path class="st8" d="M242.1,100c-6.4,0.4-11.5,5.3-15.8,9.7c-5,5-9.4,10.7-13.2,16.7c-9,14.2-13.2,30.7-21.9,45
			c-7.7,12.7-16,25.3-27.3,35.1c-12.3,10.8-28.1,17.9-44.5,18.9c-21.3,1.4-41.3-7.7-54.1-24.7c-4.1-5.5-7.8-11.5-10.9-17.6
			c-2.3-4.5-4-9.3-3.9-14.5c0.1-3.1,0.3-6.2,1.1-9.2c0.4-1.7,1-3.4,1-5.3c-0.3-6.7-5.4-7.4-10-3.9c-6.9,5.2-11.3,12.2-15.7,19.5
			c-4.5,7.5-5.3,17.1-5.6,25.7c-0.2,5.2-0.1,10.6,0.8,15.7c5.2,30,28.4,57,54.2,71.9c26.3,15.2,57.8,20.7,88,19.5
			c15.7-0.6,30.9-4.5,45.7-9.9c37.5-13.7,70.8-37.6,98-66.6c7.5-8,14.4-16.5,20.7-25.5c3.3-4.8,6.1-9.4,8.5-14.7
			c1.7-3.7,3.9-7.9,3.4-12.1c-1.9-16-16.4-27.5-32.3-25.7c-3,0.3-7.1,1.3-9.6-0.9c-2.9-2.6-4.2-8.3-5.3-11.9
			c-1.7-5.6-5.4-9.1-11-10.9c-5.2-1.7-10.2-1.5-15.5-1c-2.6,0.2-9.5,1.7-11.6-0.1c-2.8-2.4,3.3-9.1,3-12.5
			C257.4,103.7,248.1,100.1,242.1,100c-3.2-0.1-3.2,4.9,0,5c4.4,0.1,13.4,3.3,10.1,9.2c-1.8,3.2-5.5,5.7-3.5,9.8
			c2.9,6.1,12.3,4.8,17.6,4.4c5.1-0.4,9.8-0.9,14.7,0.8c7.7,2.7,7.8,9.4,10.8,15.9c2.9,6.1,6,8.8,13.1,8.4c7.5-0.4,15.5-1,21.8,4.3
			c6.8,5.8,10.7,15.2,7.1,23.6c-4.4,10.5-11.3,19.7-18.4,28.6c-25.1,31.1-58.2,57.1-94.9,73.2c-15.2,6.6-32.7,12.7-48.9,14.1
			c-55.1,4.6-116.2-16.4-139.4-70.3c-6.4-14.8-7.3-30-4.2-45.8c1.7-8.4,7.4-17.1,13.4-23.2c1.8-1.8,3.9-3.1,5.8-4.8
			c-0.1-0.4-0.2-0.8-0.4-1.2c0.2,0.5,0.5,1.1,0.7,1.6c0.2,1.7,0,2.1-0.3,3.3c-0.5,2.5-1.1,4.7-1.3,7.2c-1.3,15,7.1,28.6,15.9,40.1
			c10.9,14.2,26.4,23.5,44.2,25.8c29.9,3.8,57.4-11.8,75.3-35c8.5-11.1,16.7-23.4,22-36.4c6.3-15.5,12.8-30.6,24.2-43
			c3.7-4,8.8-10.3,14.6-10.7C245.3,104.8,245.3,99.8,242.1,100z"/>
	</g>
</g>
<path class="st9" d="M392.7,224.2"/>
<path class="st9" d="M328,108.5"/>
<path class="st10" d="M82.9,280.4"/>
<path class="st11" d="M232.2,156.3c-0.1-2.4-2.1-3.3-2.4-3.5c-3.9-1.9-9.5,3.7-10.1,4.2c-1.2,1.2-2.3,2.7-7.4,13.2
	c-5.7,11.9-5.6,12.8-7.6,14.8c-1.8,1.7-4,3.1-5.6,6.6c-0.5,1-1.3,2.8-0.9,4.6c0.3,1.4,1.3,2.4,2.2,2.7c2.6,0.8,6.2-3.9,8.1-6.4
	c1.2-1.6,3.9-5.4,10.1-19c2.7-5.8,4.4-10.1,7.3-10.9c1.3-0.4,2.4,0.1,3.8-1.1C231.1,160.3,232.3,158.3,232.2,156.3z"/>
<path class="st11" d="M184.7,212.2c-2.4-2.2-6.7-0.3-6.9-0.2c-3.2,1.5-3,3.9-6.4,7c-4.4,4-7.1,2.1-10.8,6.1c-0.8,0.8-4.1,4.4-3.4,8
	c0.6,3.2,4.2,5.2,7.3,5.2c3.2,0.1,4-2,13.3-8.6c4.3-3.1,5.3-3.4,6.5-5.4C186.4,220.7,187.4,214.6,184.7,212.2z"/>
<path class="st10" d="M242.5,117"/>
<path class="st10" d="M55.1,352.1"/>
</svg>
