<?xml version="1.0" encoding="utf-8"?>
<!-- Generator: Adobe Illustrator 22.1.0, SVG Export Plug-In . SVG Version: 6.00 Build 0)  -->
<svg version="1.1" id="Calque_1" xmlns="http://www.w3.org/2000/svg" xmlns:xlink="http://www.w3.org/1999/xlink" x="0px" y="0px"
	 viewBox="0 0 595.3 841.9" style="enable-background:new 0 0 595.3 841.9;" xml:space="preserve">
<style type="text/css">
	.st0{fill:none;stroke:#000000;stroke-miterlimit:10;}
	.st1{fill:none;}
	.st2{font-family:'BaskOldFace';}
	.st3{font-size:69px;}
	.st4{font-family:'BernardMT-Condensed';}
	.st5{font-size:34px;}
</style>
<g>
	<g>
		<path d="M136.7,380.2c0.3,72.6,47.3,138.1,115.5,162.7c68.8,24.7,148.5,3.5,195.4-52.8c46.4-55.8,52.8-137,14.8-199
			c-38.3-62.6-113.7-94.7-185.5-80.3c-70.2,14-127.1,71.8-138.1,142.8C137.5,362.3,136.8,371.2,136.7,380.2c0,3.2,5,3.2,5,0
			c0.3-70.3,45.7-134.1,111.8-157.8c66.9-24,143.8-3.8,189.7,50.5c45.7,54.1,51.8,133.5,14.9,194c-37.1,60.6-110.3,91.9-179.8,78
			c-68.2-13.6-123.1-69.1-134.4-138c-1.5-8.8-2.1-17.8-2.1-26.7C141.7,376.9,136.7,376.9,136.7,380.2z"/>
	</g>
</g>
<g>
	<g>
		<path d="M73.8,382.7c0.1,49.1,15.6,97.3,44.4,137.1c28.1,38.8,67.7,68.6,112.7,85c47.3,17.2,99.8,19.1,148.3,5.5
			c46.5-13,88.6-40.1,119.6-77.2c31.1-37.2,50.1-83.4,54-131.8c3.9-49.2-8-99.1-33.8-141.1c-25.1-40.9-62.6-73.7-106.4-93.2
			c-45.7-20.4-97.4-26-146.5-16.3c-47.6,9.4-91.8,33.5-125.6,68.3c-33.6,34.7-56.3,79.4-63.7,127.2
			C74.8,358.4,73.9,370.6,73.8,382.7c0,3.2,5,3.2,5,0c0.1-48,15.2-95,43.3-134c27.4-38.1,66.5-67.5,110.7-83.5
			c46.3-16.7,97.6-18.6,145-5.3c45.3,12.6,86.2,39,116.5,74.9c30.8,36.4,49.8,82.3,53.5,129.9c3.7,48.2-7.9,96.7-33.2,137.9
			c-24.5,39.8-60.9,71.6-103.4,90.9c-44.9,20.3-96.2,25.9-144.5,16.2c-46.5-9.4-89.7-32.8-122.7-66.9
			c-32.8-33.8-54.8-77.2-62.2-123.7c-1.9-12-2.8-24.2-2.9-36.4C78.8,379.5,73.8,379.5,73.8,382.7z"/>
	</g>
</g>
<g>
	<g>
		<path d="M283.8,280.1c12.6,0,25.1,0,37.7,0c11.3,0,30.3,3.4,33.2-11.9c1.6-8.4-1.4-18.1-10.4-20.6c-4.2-1.2-9.3-0.5-13.7-0.5
			c-14.8,0-29.6,0-44.5,0c-7.8,0-15,3.5-16.6,11.9C267.6,269.2,272.6,279.5,283.8,280.1c3.2,0.2,3.2-4.8,0-5
			c-10.7-0.6-13.5-17.6-4-22.1c3.2-1.5,7.7-0.9,11.2-0.9c12.8,0,25.6,0,38.4,0c3.6,0,7.2-0.2,10.8,0c9.2,0.4,13.2,13.1,7.3,19.8
			c-3.3,3.8-8,3.2-12.4,3.2c-5.9,0-11.7,0-17.6,0c-11.3,0-22.5,0-33.8,0C280.6,275.1,280.6,280.1,283.8,280.1z"/>
	</g>
</g>
<path class="st0" d="M270.6,348.1"/>
<path class="st0" d="M270.6,278.6"/>
<g>
	<g>
		<path d="M282.6,351.2c-15.6,24.9-31.3,49.8-46.9,74.8c-3.9,6.2-7.7,12.3-11.6,18.5c-3.4,5.4-8.2,11.1-10.5,17.1
			c-3.2,8.4,4.6,16.3,12.8,15.8c3.2-0.2,3.2-5.2,0-5c-6.7,0.4-10-5.5-6.9-11.1c2.9-5.2,6.3-10.1,9.5-15.1
			c6.5-10.4,13-20.7,19.5-31.1c12.8-20.4,25.7-40.9,38.5-61.3C288.6,351,284.3,348.5,282.6,351.2L282.6,351.2z"/>
	</g>
</g>
<path class="st0" d="M216.5,462"/>
<g>
	<g>
		<path d="M225.8,477.4c22.6-0.2,45.1-0.4,67.7-0.6c32.1-0.3,64.2-0.5,96.4-0.8c3.4,0,7,0.2,10.4-0.1c8.1-0.7,12.8-9,12-16.5
			c-0.3-3.2-5.3-3.2-5,0c1.4,13.4-10.1,11.6-18.7,11.6c-13.6,0.1-27.1,0.2-40.7,0.3c-32.8,0.3-65.7,0.5-98.5,0.8
			c-7.8,0.1-15.7,0.1-23.5,0.2C222.5,472.5,222.5,477.5,225.8,477.4L225.8,477.4z"/>
	</g>
</g>
<g>
	<g>
		<path d="M411.8,458.2c-19.6-31.2-39.2-62.4-58.7-93.6c-2.8-4.5-5.6-8.9-8.4-13.4c-1.7-2.7-6-0.2-4.3,2.5
			c19.6,31.2,39.2,62.4,58.7,93.6c2.8,4.5,5.6,8.9,8.4,13.4C409.2,463.4,413.5,460.9,411.8,458.2L411.8,458.2z"/>
	</g>
</g>
<g>
	<g>
		<path d="M339.6,279.3c0.1,24.4,0.3,48.8,0.4,73.2c0,3.2,5,3.2,5,0c-0.1-24.4-0.3-48.8-0.4-73.2C344.6,276,339.6,276,339.6,279.3
			L339.6,279.3z"/>
	</g>
</g>
<g>
	<g>
		<path d="M281.9,278.6c0.1,24.7,0.3,49.4,0.4,74.1c0,3.2,5,3.2,5,0c-0.1-24.7-0.3-49.4-0.4-74.1
			C286.9,275.4,281.9,275.4,281.9,278.6L281.9,278.6z"/>
	</g>
</g>
<g>
	<g>
		<path d="M270.6,377.5c25-0.1,50-0.3,75-0.4c3.6,0,7.1,0,10.7-0.1c3.2,0,3.2-5,0-5c-25,0.1-50,0.3-75,0.4c-3.6,0-7.1,0-10.7,0.1
			C267.4,372.5,267.4,377.5,270.6,377.5L270.6,377.5z"/>
	</g>
</g>
<path class="st0" d="M227,446"/>
<path id="SVGID_x5F_1_x5F_" class="st1" d="M88.2,434.9C128.2,545,224.6,615,326.7,609.3c94.4-5.3,177.8-74.4,212.4-176.1"/>
<text><textPath  xlink:href="#SVGID_x5F_1_x5F_" startOffset="16.42%">
<tspan  class="st2" style="font-size:66.0096px;">PHOSPHATE</tspan><tspan  style="font-family:'AdobeArabic-Regular'; font-size:99.5554px;"> </tspan></textPath>
</text>
<path class="st0" d="M156.7,514.3c-13.7-14.4-35.9-41.9-46.7-82c-25.3-93.8,34.8-170.1,40.7-177.3c59.7-73.2,146.9-75.8,162-76
	c11.1-0.1,113.3,0.5,174.7,85.3c4.8,6.6,53.3,75.9,34.7,162c-5,23.3-13.7,41.6-20.7,54"/>
<rect x="268.3" y="397" class="st1" width="138.6" height="84.9"/>
<text transform="matrix(0.9549 0 0 1 268.3187 444.163)"><tspan x="0" y="0" class="st2 st3">P </tspan><tspan x="57.1" y="0" class="st4 st5">15 </tspan></text>
</svg>
