<?xml version="1.0" encoding="utf-8"?>
<!-- Generator: Adobe Illustrator 22.1.0, SVG Export Plug-In . SVG Version: 6.00 Build 0)  -->
<svg version="1.1" id="Calque_1" xmlns="http://www.w3.org/2000/svg" xmlns:xlink="http://www.w3.org/1999/xlink" x="0px" y="0px"
	 viewBox="0 0 595.3 841.9" style="enable-background:new 0 0 595.3 841.9;" xml:space="preserve">
<style type="text/css">
	.st0{fill:none;stroke:#000000;stroke-miterlimit:10;}
	.st1{fill:none;}
	.st2{font-family:'FranklinGothic-Demi';}
	.st3{font-size:48px;}
</style>
<g>
	<g>
		<path d="M131.7,380.2c0.3,75,48.8,142.2,119.2,167.5c70.3,25.3,152.4,3.4,200.2-54.1c23.5-28.2,37.8-62.9,40.8-99.5
			c3-36.7-6-74.2-25.2-105.6c-39.5-64.6-117.1-97.4-191.1-82.6c-71.7,14.3-130.3,73.7-141.6,146.3
			C132.6,361.4,131.8,370.8,131.7,380.2c0,9.7,15,9.7,15,0c0.3-68,44.1-130,108.2-153c65.3-23.5,139.9-3.8,184.8,49.2
			c44.3,52.4,49.8,129.5,14.1,187.9c-35.8,58.6-106.9,89.2-174.2,75.7c-66.7-13.3-119.9-67.1-130.9-134.5c-1.4-8.4-1.9-16.9-2-25.4
			C146.7,370.5,131.7,370.5,131.7,380.2z"/>
	</g>
</g>
<g>
	<g>
		<path d="M68.8,382.7c0.1,49.9,15.8,99.1,45,139.6c28.9,40,69.3,70.5,115.7,87.3c48.1,17.5,101.7,19.3,150.9,5.5
			c47.2-13.2,90.3-40.8,121.8-78.5c32-38.3,51.5-85.6,55.5-135.3c4-50-8.2-100.9-34.5-143.6c-25.5-41.5-63.7-75.2-108.2-95
			c-47.1-21-99.8-26.8-150.3-16.8c-48.4,9.6-93.5,34.2-127.8,69.6c-34.2,35.2-57.5,80.8-65,129.4C69.9,357.5,68.9,370.1,68.8,382.7
			c0,9.7,15,9.7,15,0c0.1-47.2,15-93.2,42.6-131.5c26.6-37,64.9-65.7,107.7-81.2c45.5-16.4,95.7-18.3,142.3-5.3
			c44.5,12.4,84.5,38.3,114.3,73.6c29.9,35.4,48.4,80.2,52,126.4c3.7,47.3-7.6,94.9-32.5,135.4c-24,39.1-59.9,70.2-101.6,89.1
			c-43.6,19.7-93.8,25.1-140.7,15.7c-45.7-9.2-88-32.1-120.5-65.6c-32.2-33.2-53.6-75.8-61-121.5c-1.9-11.6-2.7-23.3-2.7-35
			C83.8,373.1,68.8,373.1,68.8,382.7z"/>
	</g>
</g>
<g>
	<g>
		<path d="M312.1,409c0.4,6.5,5.3,11.9,12,11.9c6.5,0,12-5.4,12-11.9c0-6.3-5.2-11.6-11.5-11.9C317.7,396.9,312.4,402.3,312.1,409
			c-0.2,3.2,4.8,3.2,5,0c0.5-8.9,14.1-8.9,14.1,0c0,8.9-13.6,8.9-14.1,0C316.9,405.8,311.9,405.8,312.1,409z"/>
	</g>
</g>
<g>
	<g>
		<path d="M337.4,445.3c0.4,6.5,5.3,11.9,12,11.9c6.5,0,12-5.4,12-11.9c0-6.3-5.2-11.6-11.5-11.9C343,433.2,337.8,438.6,337.4,445.3
			c-0.2,3.2,4.8,3.2,5,0c0.5-8.9,14.1-8.9,14.1,0c0,8.9-13.6,8.9-14.1,0C342.3,442.1,337.3,442.1,337.4,445.3z"/>
	</g>
</g>
<g>
	<g>
		<path d="M283.8,280.1c12.6,0,25.1,0,37.7,0c11.3,0,30.3,3.4,33.2-11.9c1.6-8.4-1.4-18.1-10.4-20.6c-4.2-1.2-9.3-0.5-13.7-0.5
			c-14.8,0-29.6,0-44.5,0c-7.8,0-15,3.5-16.6,11.9C267.6,269.2,272.6,279.5,283.8,280.1c3.2,0.2,3.2-4.8,0-5
			c-10.7-0.6-13.5-17.6-4-22.1c3.2-1.5,7.7-0.9,11.2-0.9c12.8,0,25.6,0,38.4,0c3.6,0,7.2-0.2,10.8,0c9.2,0.4,13.2,13.1,7.3,19.8
			c-3.3,3.8-8,3.2-12.4,3.2c-5.9,0-11.7,0-17.6,0c-11.3,0-22.5,0-33.8,0C280.6,275.1,280.6,280.1,283.8,280.1z"/>
	</g>
</g>
<path class="st0" d="M270.6,348.1"/>
<path class="st0" d="M270.6,278.6"/>
<g>
	<g>
		<path d="M282.6,351.2c-15.6,24.9-31.3,49.8-46.9,74.8c-3.9,6.2-7.7,12.3-11.6,18.5c-3.4,5.4-8.2,11.1-10.5,17.1
			c-3.2,8.4,4.6,16.3,12.8,15.8c3.2-0.2,3.2-5.2,0-5c-6.7,0.4-10-5.5-6.9-11.1c2.9-5.2,6.3-10.1,9.5-15.1
			c6.5-10.4,13-20.7,19.5-31.1c12.8-20.4,25.7-40.9,38.5-61.3C288.6,351,284.3,348.5,282.6,351.2L282.6,351.2z"/>
	</g>
</g>
<path class="st0" d="M216.5,462"/>
<g>
	<g>
		<path d="M225.8,477.4c22.6-0.2,45.1-0.4,67.7-0.6c32.1-0.3,64.2-0.5,96.4-0.8c3.4,0,7,0.2,10.4-0.1c8.1-0.7,12.8-9,12-16.5
			c-0.3-3.2-5.3-3.2-5,0c1.4,13.4-10.1,11.6-18.7,11.6c-13.6,0.1-27.1,0.2-40.7,0.3c-32.8,0.3-65.7,0.5-98.5,0.8
			c-7.8,0.1-15.7,0.1-23.5,0.2C222.5,472.5,222.5,477.5,225.8,477.4L225.8,477.4z"/>
	</g>
</g>
<g>
	<g>
		<path d="M411.8,458.2c-19.6-31.2-39.2-62.4-58.7-93.6c-2.8-4.5-5.6-8.9-8.4-13.4c-1.7-2.7-6-0.2-4.3,2.5
			c19.6,31.2,39.2,62.4,58.7,93.6c2.8,4.5,5.6,8.9,8.4,13.4C409.2,463.4,413.5,460.9,411.8,458.2L411.8,458.2z"/>
	</g>
</g>
<g>
	<g>
		<path d="M339.6,279.3c0.1,24.4,0.3,48.8,0.4,73.2c0,3.2,5,3.2,5,0c-0.1-24.4-0.3-48.8-0.4-73.2C344.6,276,339.6,276,339.6,279.3
			L339.6,279.3z"/>
	</g>
</g>
<g>
	<g>
		<path d="M281.9,278.6c0.1,24.7,0.3,49.4,0.4,74.1c0,3.2,5,3.2,5,0c-0.1-24.7-0.3-49.4-0.4-74.1
			C286.9,275.4,281.9,275.4,281.9,278.6L281.9,278.6z"/>
	</g>
</g>
<g>
	<g>
		<path d="M270.6,377.5c25-0.1,50-0.3,75-0.4c3.6,0,7.1,0,10.7-0.1c3.2,0,3.2-5,0-5c-25,0.1-50,0.3-75,0.4c-3.6,0-7.1,0-10.7,0.1
			C267.4,372.5,267.4,377.5,270.6,377.5L270.6,377.5z"/>
	</g>
</g>
<g>
	<g>
		<path d="M355.5,399.7c-14,16.9-27.9,33.8-41.9,50.6c-2,2.5,1.5,6,3.5,3.5c14-16.9,27.9-33.8,41.9-50.6
			C361.1,400.8,357.5,397.2,355.5,399.7L355.5,399.7z"/>
	</g>
</g>
<g>
	<g>
		<path d="M282.9,453c4.7,0,10.1,0.7,14.5-1.2c5.6-2.4,8.7-7.6,8.9-13.5c0.3-8.3,0.4-17,0-25.3c-0.6-13.6-14.3-15.9-25.3-14.3
			c-13.5,1.9-12.5,15.4-12.5,25.6c0,4.7-0.2,9.5,0,14.2C268.8,446.7,274.7,452.6,282.9,453c3.2,0.2,3.2-4.8,0-5
			c-11.5-0.6-9.5-13.3-9.5-21.3c0-7.3-2.4-20.3,7-22.9c3.3-0.9,7.5-0.5,10.9-0.4c5.8,0.2,9.8,4.1,10,9.9c0.3,7.3,0,14.7,0,22
			c0,5-0.8,10.2-6.4,12.1c-3.6,1.2-8.2,0.5-12,0.5C279.7,448,279.7,453,282.9,453z"/>
	</g>
</g>
<path class="st0" d="M227,446"/>
<rect x="140" y="492.8" class="st1" width="349.1" height="144.8"/>
<text transform="matrix(1 0 0 1 140.0132 524.7767)" class="st2 st3">P</text>
<rect x="174.9" y="526.1" class="st1" width="349.1" height="144.8"/>
<text transform="matrix(1 0 0 1 174.9183 558.11)" class="st2 st3">H</text>
<rect x="216.5" y="551.8" class="st1" width="349.1" height="144.8"/>
<text transform="matrix(1 0 0 1 216.5002 583.7767)" class="st2 st3">O</text>
<rect x="258.6" y="564.2" class="st1" width="349.1" height="144.8"/>
<text transform="matrix(1 0 0 1 258.5566 596.198)" class="st2 st3">S</text>
<rect x="297.6" y="567.2" class="st1" width="349.1" height="144.8"/>
<text transform="matrix(1 0 0 1 297.6379 599.1981)" class="st2 st3">H</text>
<rect x="349.5" y="559.4" class="st1" width="349.1" height="144.8"/>
<text transform="matrix(1 0 0 1 349.4647 591.4119)" class="st2 st3">A</text>
<rect x="401.1" y="544.4" class="st1" width="349.1" height="144.8"/>
<text transform="matrix(1 0 0 1 401.105 576.4042)" class="st2 st3">T</text>
<rect x="440.6" y="509.4" class="st1" width="349.1" height="144.8"/>
<text transform="matrix(1 0 0 1 440.5849 541.3741)" class="st2 st3">E</text>
</svg>
