<?xml version="1.0" encoding="utf-8"?>
<!-- Generator: Adobe Illustrator 22.1.0, SVG Export Plug-In . SVG Version: 6.00 Build 0)  -->
<svg version="1.1" id="Calque_1" xmlns="http://www.w3.org/2000/svg" xmlns:xlink="http://www.w3.org/1999/xlink" x="0px" y="0px"
	 viewBox="0 0 595.3 841.9" style="enable-background:new 0 0 595.3 841.9;" xml:space="preserve">
<style type="text/css">
	.st0{fill:#FFFBF9;}
	.st1{fill:#060707;}
	.st2{fill:#542B12;}
	.st3{fill:#010202;}
	.st4{fill:none;stroke:#000000;stroke-miterlimit:10;}
	.st5{fill:#D28759;}
	.st6{fill:#DF0A45;}
	.st7{fill:#1779A8;}
	.st8{fill:#62102A;}
</style>
<g>
	<rect x="77" y="144" class="st0" width="441.3" height="547.3"/>
	<g>
		<path d="M77,698.8c14.6,0,29.3,0,43.9,0c35.2,0,70.3,0,105.5,0c42.4,0,84.7,0,127.1,0c36.8,0,73.6,0,110.4,0
			c17.8,0,35.8,0.7,53.7,0c0.3,0,0.5,0,0.8,0c4.1,0,7.5-3.4,7.5-7.5c0-18.2,0-36.4,0-54.6c0-43.7,0-87.3,0-131
			c0-52.6,0-105.3,0-157.9c0-45.5,0-91,0-136.5c0-22.1,0.8-44.3,0-66.4c0-0.3,0-0.6,0-1c0-4.1-3.4-7.5-7.5-7.5
			c-14.6,0-29.3,0-43.9,0c-35.2,0-70.3,0-105.5,0c-42.4,0-84.7,0-127.1,0c-36.8,0-73.6,0-110.4,0c-17.8,0-35.8-0.7-53.7,0
			c-0.3,0-0.5,0-0.8,0c-4.1,0-7.5,3.4-7.5,7.5c0,18.2,0,36.4,0,54.6c0,43.7,0,87.3,0,131c0,52.6,0,105.3,0,157.9
			c0,45.5,0,91,0,136.5c0,22.1-0.8,44.3,0,66.4c0,0.3,0,0.6,0,1c0,9.7,15,9.7,15,0c0-18.2,0-36.4,0-54.6c0-43.7,0-87.3,0-131
			c0-52.6,0-105.3,0-157.9c0-45.5,0-91,0-136.5c0-15,0-30,0-45c0-7,0.7-14.4,0-21.4c0-0.3,0-0.6,0-1c-2.5,2.5-5,5-7.5,7.5
			c14.6,0,29.3,0,43.9,0c35.2,0,70.3,0,105.5,0c42.4,0,84.7,0,127.1,0c36.8,0,73.6,0,110.4,0c12.1,0,24.2,0,36.3,0
			c5.7,0,11.7,0.6,17.4,0c0.2,0,0.5,0,0.8,0c-2.5-2.5-5-5-7.5-7.5c0,18.2,0,36.4,0,54.6c0,43.7,0,87.3,0,131c0,52.6,0,105.3,0,157.9
			c0,45.5,0,91,0,136.5c0,15,0,30,0,45c0,7-0.7,14.4,0,21.4c0,0.3,0,0.6,0,1c2.5-2.5,5-5,7.5-7.5c-14.6,0-29.3,0-43.9,0
			c-35.2,0-70.3,0-105.5,0c-42.4,0-84.7,0-127.1,0c-36.8,0-73.6,0-110.4,0c-17.8,0-35.8-0.7-53.7,0c-0.3,0-0.5,0-0.8,0
			C67.3,683.8,67.3,698.8,77,698.8z"/>
	</g>
</g>
<g>
	<rect x="113.6" y="192.8" class="st0" width="359.3" height="452"/>
	<g>
		<path class="st1" d="M113.6,652.3c11.9,0,23.7,0,35.6,0c28.7,0,57.3,0,86,0c34.5,0,69.1,0,103.6,0c29.9,0,59.8,0,89.6,0
			c14.6,0,29.3,0.7,43.9,0c0.2,0,0.4,0,0.6,0c4.1,0,7.5-3.4,7.5-7.5c0-15,0-30,0-45c0-36,0-72.1,0-108.1c0-43.4,0-86.8,0-130.3
			c0-37.7,0-75.3,0-113c0-18.2,0.7-36.6,0-54.8c0-0.3,0-0.5,0-0.8c0-4.1-3.4-7.5-7.5-7.5c-11.9,0-23.7,0-35.6,0c-28.7,0-57.3,0-86,0
			c-34.5,0-69.1,0-103.6,0c-29.9,0-59.8,0-89.6,0c-14.6,0-29.3-0.7-43.9,0c-0.2,0-0.4,0-0.6,0c-4.1,0-7.5,3.4-7.5,7.5
			c0,15,0,30,0,45c0,36,0,72.1,0,108.1c0,43.4,0,86.8,0,130.3c0,37.7,0,75.3,0,113c0,18.2-0.7,36.6,0,54.8c0,0.3,0,0.5,0,0.8
			c0,9.7,15,9.7,15,0c0-15,0-30,0-45c0-36,0-72.1,0-108.1c0-43.4,0-86.8,0-130.3c0-37.7,0-75.3,0-113c0-12.4,0-24.7,0-37.1
			c0-5.8,0.6-11.9,0-17.7c0-0.3,0-0.5,0-0.8c-2.5,2.5-5,5-7.5,7.5c11.9,0,23.7,0,35.6,0c28.7,0,57.3,0,86,0c34.5,0,69.1,0,103.6,0
			c29.9,0,59.8,0,89.6,0c9.9,0,19.9,0,29.8,0c4.5,0,9.5,0.6,14,0c0.2,0,0.4,0,0.6,0c-2.5-2.5-5-5-7.5-7.5c0,15,0,30,0,45
			c0,36,0,72.1,0,108.1c0,43.4,0,86.8,0,130.3c0,37.7,0,75.3,0,113c0,12.4,0,24.7,0,37.1c0,5.8-0.6,11.9,0,17.7c0,0.3,0,0.5,0,0.8
			c2.5-2.5,5-5,7.5-7.5c-11.9,0-23.7,0-35.6,0c-28.7,0-57.3,0-86,0c-34.5,0-69.1,0-103.6,0c-29.9,0-59.8,0-89.6,0
			c-14.6,0-29.3-0.7-43.9,0c-0.2,0-0.4,0-0.6,0C104,637.3,104,652.3,113.6,652.3z"/>
	</g>
</g>
<g>
	<line class="st2" x1="91" y1="96" x2="91" y2="144"/>
	<g>
		<path d="M83.5,96c0,16,0,32,0,48c0,9.7,15,9.7,15,0c0-16,0-32,0-48C98.5,86.3,83.5,86.3,83.5,96L83.5,96z"/>
	</g>
</g>
<g>
	<line class="st2" x1="121" y1="96" x2="121" y2="144"/>
	<g>
		<path d="M113.5,96c0,16,0,32,0,48c0,9.7,15,9.7,15,0c0-16,0-32,0-48C128.5,86.3,113.5,86.3,113.5,96L113.5,96z"/>
	</g>
</g>
<g>
	<line class="st2" x1="155" y1="96.3" x2="155" y2="144.3"/>
	<g>
		<path d="M147.5,96.3c0,16,0,32,0,48c0,9.7,15,9.7,15,0c0-16,0-32,0-48C162.5,86.6,147.5,86.6,147.5,96.3L147.5,96.3z"/>
	</g>
</g>
<g>
	<line class="st2" x1="185" y1="96.3" x2="185" y2="144.3"/>
	<g>
		<path d="M177.5,96.3c0,16,0,32,0,48c0,9.7,15,9.7,15,0c0-16,0-32,0-48C192.5,86.6,177.5,86.6,177.5,96.3L177.5,96.3z"/>
	</g>
</g>
<g>
	<line class="st2" x1="219" y1="96" x2="219" y2="144"/>
	<g>
		<path d="M211.5,96c0,16,0,32,0,48c0,9.7,15,9.7,15,0c0-16,0-32,0-48C226.5,86.3,211.5,86.3,211.5,96L211.5,96z"/>
	</g>
</g>
<g>
	<line class="st2" x1="249.6" y1="95" x2="249.6" y2="143"/>
	<g>
		<path d="M242.1,95c0,16,0,32,0,48c0,9.7,15,9.7,15,0c0-16,0-32,0-48C257.1,85.3,242.1,85.3,242.1,95L242.1,95z"/>
	</g>
</g>
<g>
	<line class="st2" x1="280.6" y1="95" x2="280.6" y2="143"/>
	<g>
		<path d="M273.1,95c0,16,0,32,0,48c0,9.7,15,9.7,15,0c0-16,0-32,0-48C288.1,85.3,273.1,85.3,273.1,95L273.1,95z"/>
	</g>
</g>
<g>
	<line class="st2" x1="314" y1="95" x2="314" y2="143"/>
	<g>
		<path d="M306.5,95c0,16,0,32,0,48c0,9.7,15,9.7,15,0c0-16,0-32,0-48C321.5,85.3,306.5,85.3,306.5,95L306.5,95z"/>
	</g>
</g>
<g>
	<line class="st2" x1="346.3" y1="95" x2="346.3" y2="143"/>
	<g>
		<path d="M338.8,95c0,16,0,32,0,48c0,9.7,15,9.7,15,0c0-16,0-32,0-48C353.8,85.3,338.8,85.3,338.8,95L338.8,95z"/>
	</g>
</g>
<g>
	<line class="st2" x1="377" y1="95" x2="377" y2="143"/>
	<g>
		<path d="M369.5,95c0,16,0,32,0,48c0,9.7,15,9.7,15,0c0-16,0-32,0-48C384.5,85.3,369.5,85.3,369.5,95L369.5,95z"/>
	</g>
</g>
<g>
	<line class="st2" x1="409" y1="95" x2="409" y2="143"/>
	<g>
		<path d="M401.5,95c0,16,0,32,0,48c0,9.7,15,9.7,15,0c0-16,0-32,0-48C416.5,85.3,401.5,85.3,401.5,95L401.5,95z"/>
	</g>
</g>
<g>
	<line class="st2" x1="442.3" y1="95" x2="442.3" y2="143"/>
	<g>
		<path d="M434.8,95c0,16,0,32,0,48c0,9.7,15,9.7,15,0c0-16,0-32,0-48C449.8,85.3,434.8,85.3,434.8,95L434.8,95z"/>
	</g>
</g>
<g>
	<line class="st2" x1="473" y1="95" x2="473" y2="143"/>
	<g>
		<path d="M465.5,95c0,16,0,32,0,48c0,9.7,15,9.7,15,0c0-16,0-32,0-48C480.5,85.3,465.5,85.3,465.5,95L465.5,95z"/>
	</g>
</g>
<g>
	<line class="st2" x1="504.3" y1="96.3" x2="504.3" y2="144.3"/>
	<g>
		<path d="M496.8,96.3c0,16,0,32,0,48c0,9.7,15,9.7,15,0c0-16,0-32,0-48C511.8,86.6,496.8,86.6,496.8,96.3L496.8,96.3z"/>
	</g>
</g>
<g>
	<line class="st0" x1="98" y1="698.3" x2="98" y2="746.3"/>
	<g>
		<path class="st1" d="M90.5,698.3c0,16,0,32,0,48c0,9.7,15,9.7,15,0c0-16,0-32,0-48C105.5,688.6,90.5,688.6,90.5,698.3L90.5,698.3z
			"/>
	</g>
</g>
<g>
	<line class="st0" x1="128" y1="698.3" x2="128" y2="746.3"/>
	<g>
		<path class="st1" d="M120.5,698.3c0,16,0,32,0,48c0,9.7,15,9.7,15,0c0-16,0-32,0-48C135.5,688.6,120.5,688.6,120.5,698.3
			L120.5,698.3z"/>
	</g>
</g>
<g>
	<line class="st0" x1="162" y1="698.6" x2="162" y2="746.6"/>
	<g>
		<path class="st1" d="M154.5,698.6c0,16,0,32,0,48c0,9.7,15,9.7,15,0c0-16,0-32,0-48C169.5,689,154.5,689,154.5,698.6L154.5,698.6z
			"/>
	</g>
</g>
<g>
	<line class="st2" x1="192" y1="698.6" x2="192" y2="746.6"/>
	<g>
		<path d="M184.5,698.6c0,16,0,32,0,48c0,9.7,15,9.7,15,0c0-16,0-32,0-48C199.5,689,184.5,689,184.5,698.6L184.5,698.6z"/>
	</g>
</g>
<g>
	<line class="st2" x1="226" y1="698.3" x2="226" y2="746.3"/>
	<g>
		<path d="M218.5,698.3c0,16,0,32,0,48c0,9.7,15,9.7,15,0c0-16,0-32,0-48C233.5,688.6,218.5,688.6,218.5,698.3L218.5,698.3z"/>
	</g>
</g>
<g>
	<line class="st2" x1="256.6" y1="697.3" x2="256.6" y2="745.3"/>
	<g>
		<path d="M249.1,697.3c0,16,0,32,0,48c0,9.7,15,9.7,15,0c0-16,0-32,0-48C264.1,687.6,249.1,687.6,249.1,697.3L249.1,697.3z"/>
	</g>
</g>
<g>
	<line class="st2" x1="287.6" y1="697.3" x2="287.6" y2="745.3"/>
	<g>
		<path d="M280.1,697.3c0,16,0,32,0,48c0,9.7,15,9.7,15,0c0-16,0-32,0-48C295.1,687.6,280.1,687.6,280.1,697.3L280.1,697.3z"/>
	</g>
</g>
<g>
	<line class="st2" x1="321" y1="697.3" x2="321" y2="745.3"/>
	<g>
		<path d="M313.5,697.3c0,16,0,32,0,48c0,9.7,15,9.7,15,0c0-16,0-32,0-48C328.5,687.6,313.5,687.6,313.5,697.3L313.5,697.3z"/>
	</g>
</g>
<g>
	<line class="st2" x1="353.3" y1="697.3" x2="353.3" y2="745.3"/>
	<g>
		<path d="M345.8,697.3c0,16,0,32,0,48c0,9.7,15,9.7,15,0c0-16,0-32,0-48C360.8,687.6,345.8,687.6,345.8,697.3L345.8,697.3z"/>
	</g>
</g>
<g>
	<line class="st2" x1="384" y1="697.3" x2="384" y2="745.3"/>
	<g>
		<path d="M376.5,697.3c0,16,0,32,0,48c0,9.7,15,9.7,15,0c0-16,0-32,0-48C391.5,687.6,376.5,687.6,376.5,697.3L376.5,697.3z"/>
	</g>
</g>
<g>
	<line class="st2" x1="416" y1="697.3" x2="416" y2="745.3"/>
	<g>
		<path d="M408.5,697.3c0,16,0,32,0,48c0,9.7,15,9.7,15,0c0-16,0-32,0-48C423.5,687.6,408.5,687.6,408.5,697.3L408.5,697.3z"/>
	</g>
</g>
<g>
	<line class="st2" x1="449.3" y1="697.3" x2="449.3" y2="745.3"/>
	<g>
		<path d="M441.8,697.3c0,16,0,32,0,48c0,9.7,15,9.7,15,0c0-16,0-32,0-48C456.8,687.6,441.8,687.6,441.8,697.3L441.8,697.3z"/>
	</g>
</g>
<g>
	<line class="st2" x1="480" y1="697.3" x2="480" y2="745.3"/>
	<g>
		<path d="M472.5,697.3c0,16,0,32,0,48c0,9.7,15,9.7,15,0c0-16,0-32,0-48C487.5,687.6,472.5,687.6,472.5,697.3L472.5,697.3z"/>
	</g>
</g>
<g>
	<line class="st2" x1="511.3" y1="698.6" x2="511.3" y2="746.6"/>
	<g>
		<path d="M503.8,698.6c0,16,0,32,0,48c0,9.7,15,9.7,15,0c0-16,0-32,0-48C518.8,689,503.8,689,503.8,698.6L503.8,698.6z"/>
	</g>
</g>
<path class="st3" d="M360.3,304.6c-0.1-0.1-0.3,0-0.3,0c0,0-3.3,0.1-9.8,0.4c-4.6,0.2-12.4,0.1-19.6,0.1c0,0-4.1,0-28.2,0.4l-0.1,0
	c1.9,2,15.3,16.2,16,17c1.1,1.2,2.3,2.4,3.4,3.6c0,0,7.1,7.6,9.6,9.9c0,0,0,0,0,0c0,0,0.1,0.1,0.2,0.2c0.1,0.1,0.2,0.3,0.3,0.4
	c0.2,0.3,0.2,0.4,0.3,0.4c0.5,0.4,1.9-1.2,1.9-1.2c8.1-8.9,13.8-15.7,13.8-15.7c0.1-0.1,3.9-4.7,11.4-13.7
	C359.5,306,360.5,304.8,360.3,304.6z"/>
<path class="st4" d="M346.7,307.3"/>
<path class="st4" d="M314.6,319.1"/>
<path class="st3" d="M277.7,302.9c-0.1-0.1-0.3,0-0.3,0c0,0-3.3,0.1-9.8,0.4c-4.6,0.2-12.4,0.1-19.6,0.1c0,0-4.1,0-28.2,0.4l-0.1,0
	c-0.1,0.1,11.7,12.4,16,17c0,0,10.6,11.2,13,13.4c0,0,0.1,0.1,0.2,0.2c0.1,0.1,0.2,0.3,0.3,0.4c0.2,0.3,0.2,0.4,0.3,0.4
	c0.5,0.4,1.9-1.2,1.9-1.2c8.1-8.9,13.8-15.7,13.8-15.7c0.1-0.1,3.9-4.7,11.4-13.7C276.9,304.3,277.9,303.1,277.7,302.9z"/>
<path class="st3" d="M389.9,339.3c-0.1-0.1-0.3,0-0.3,0c0,0-3.3,0.1-9.8,0.4c-4.6,0.2-12.4,0.1-19.6,0.1c0,0-4.1,0-28.2,0.4l-0.1,0
	c-0.1,0.1,11.7,12.4,16,17c0,0,10.6,11.2,13,13.4c0,0,0.1,0.1,0.2,0.2c0.1,0.1,0.2,0.3,0.3,0.4c0.2,0.3,0.2,0.4,0.3,0.4
	c0.5,0.4,1.9-1.2,1.9-1.2c8.1-8.9,13.8-15.7,13.8-15.7c0.1-0.1,3.9-4.7,11.4-13.7C389.1,340.8,390.1,339.6,389.9,339.3z"/>
<path class="st3" d="M250.5,336.8c-0.1-0.1-0.3,0-0.3,0c0,0-3.3,0.1-9.8,0.4c-4.6,0.2-12.4,0.1-19.6,0.1c0,0-4.1,0-28.2,0.4l-0.1,0
	c-0.1,0.1,11.7,12.4,16,17c0,0,10.6,11.2,13,13.4c0,0,0.1,0.1,0.2,0.2c0.1,0.1,0.2,0.3,0.3,0.4c0.2,0.3,0.2,0.4,0.3,0.4
	c0.5,0.4,1.9-1.2,1.9-1.2c8.1-8.9,13.8-15.7,13.8-15.7c0.1-0.1,3.9-4.7,11.4-13.7C249.7,338.2,250.7,337,250.5,336.8z"/>
<path class="st3" d="M425.7,374.3c-0.1-0.1-0.3,0-0.3,0c0,0-3.7,0.2-11,0.5c-5.1,0.2-13.9,0.1-21.9,0.2c0,0-4.6,0-31.5,0.4l-0.1,0
	c-0.1,0.1,13.1,13.8,17.9,18.8c0,0,11.9,12.5,14.5,14.9c0,0,0.1,0.1,0.3,0.3c0.2,0.2,0.3,0.3,0.4,0.4c0.2,0.3,0.2,0.4,0.3,0.4
	c0.5,0.4,2.1-1.4,2.1-1.4c9-9.9,15.4-17.4,15.4-17.4c0.1-0.2,4.3-5.2,12.7-15.2C424.8,375.9,425.9,374.6,425.7,374.3z"/>
<path class="st3" d="M220.6,371.9c-0.1-0.1-0.3,0-0.3,0c0,0-3.7,0.2-11,0.5c-5.1,0.2-13.9,0.1-21.9,0.2c0,0-4.6,0-31.5,0.4l-0.1,0
	c-0.1,0.1,13.1,13.8,17.9,18.8c0,0,11.9,12.5,14.5,14.9c0,0,0.1,0.1,0.3,0.3c0.2,0.2,0.3,0.3,0.4,0.4c0.2,0.3,0.2,0.4,0.3,0.4
	c0.5,0.4,2.1-1.4,2.1-1.4c9-9.9,15.4-17.4,15.4-17.4c0.1-0.2,4.3-5.2,12.7-15.2C219.7,373.5,220.8,372.2,220.6,371.9z"/>
<path class="st3" d="M362.4,446.7c0.1,0.1,0.3,0,0.3,0c0,0,3.7,0,11-0.1c5.1,0,13.9,0.4,21.9,0.7c0,0,4.6,0.2,31.5,0.7l0.1,0
	c0.1-0.1-12.6-14.3-17.2-19.5c0,0-11.4-12.9-13.9-15.4c0,0-0.1-0.1-0.3-0.3c-0.1-0.2-0.3-0.3-0.4-0.5c-0.2-0.3-0.2-0.4-0.3-0.4
	c-0.5-0.4-2.2,1.3-2.2,1.3c-9.4,9.5-16,16.8-16,16.8c-0.1,0.2-4.5,5-13.2,14.7C363.4,445.2,362.2,446.5,362.4,446.7z"/>
<path class="st3" d="M157.5,443.7c0.1,0.1,0.3,0,0.3,0c0,0,3.7,0,11-0.1c5.1,0,13.9,0.4,21.9,0.7c0,0,4.6,0.2,31.5,0.7l0.1,0
	c0.1-0.1-12.6-14.3-17.2-19.5c0,0-11.4-12.9-13.9-15.4c0,0-0.1-0.1-0.3-0.3c-0.1-0.2-0.3-0.3-0.4-0.5c-0.2-0.3-0.2-0.4-0.3-0.4
	c-0.5-0.4-2.2,1.3-2.2,1.3c-9.4,9.6-16,16.8-16,16.8c-0.1,0.2-4.5,5-13.2,14.7C158.4,442.2,157.3,443.5,157.5,443.7z"/>
<path class="st3" d="M190.6,482.4c0.1,0.1,0.3,0,0.3,0c0,0,3.7,0,11-0.1c5.1,0,13.9,0.4,21.9,0.7c0,0,4.6,0.2,31.5,0.7l0.1,0
	c0.1-0.1-12.6-14.3-17.2-19.5c0,0-11.4-12.9-13.9-15.4c0,0-0.1-0.1-0.3-0.3c-0.1-0.2-0.3-0.3-0.4-0.5c-0.2-0.3-0.2-0.4-0.3-0.4
	c-0.5-0.4-2.2,1.3-2.2,1.3c-9.4,9.5-16,16.8-16,16.8c-0.1,0.2-4.5,5-13.2,14.7C191.5,480.9,190.4,482.2,190.6,482.4z"/>
<path class="st3" d="M329.2,484.2c0.1,0.1,0.3,0,0.3,0c0,0,3.7,0,11-0.1c5.1,0,13.9,0.4,21.9,0.7c0,0,4.6,0.2,31.5,0.7l0.1,0
	c0.1-0.1-12.6-14.3-17.2-19.5c0,0-11.4-12.9-13.9-15.4c0,0-0.1-0.1-0.3-0.3c-0.1-0.2-0.3-0.3-0.4-0.5c-0.2-0.3-0.2-0.4-0.3-0.4
	c-0.5-0.4-2.2,1.3-2.2,1.3c-9.4,9.5-16,16.8-16,16.8c-0.1,0.2-4.5,5-13.2,14.7C330.2,482.7,329,483.9,329.2,484.2z"/>
<path class="st3" d="M223,520.2c0.1,0.1,0.3,0,0.3,0c0,0,3.7,0,11-0.1c5.1,0,13.9,0.4,21.9,0.7c0,0,4.6,0.2,31.5,0.7l0.1,0
	c0.1-0.1-12.6-14.3-17.2-19.5c0,0-11.4-12.9-13.9-15.4c0,0-0.1-0.1-0.3-0.3c-0.1-0.2-0.3-0.3-0.4-0.5c-0.2-0.3-0.2-0.4-0.3-0.4
	c-0.5-0.4-2.2,1.3-2.2,1.3c-9.4,9.5-16,16.8-16,16.8c-0.1,0.2-4.5,5-13.2,14.7C223.9,518.7,222.8,520,223,520.2z"/>
<path class="st3" d="M295.2,521.5c0.1,0.1,0.3,0,0.3,0c0,0,3.7,0,11-0.1c5.1,0,13.9,0.4,21.9,0.7c0,0,4.6,0.2,31.5,0.7l0.1,0
	c0.1-0.1-12.6-14.3-17.2-19.5c0,0-11.4-12.9-13.9-15.4c0,0-0.1-0.1-0.3-0.3c-0.1-0.2-0.3-0.3-0.4-0.5c-0.2-0.3-0.2-0.4-0.3-0.4
	c-0.5-0.4-2.2,1.3-2.2,1.3c-9.4,9.6-16,16.8-16,16.8c-0.1,0.2-4.5,5-13.2,14.7C296.1,520,295,521.2,295.2,521.5z"/>
<path class="st5" d="M291.7,370.7c-10.1,12.7-20.2,25.4-30.3,38.1c9.4,11.5,18.7,23,28.1,34.5l0,0c0.1,0.2,0.3,0.6,0.6,0.7
	c0.9,0.3,2.2-1.9,2.5-2.3c1.5-2.4,10-12.9,26.6-32.8"/>
<path class="st6" d="M292.3,296c-10.1,12.7-20.2,25.4-30.3,38.1c9.4,11.5,18.7,23,28.1,34.5l0,0c0.1,0.2,0.3,0.6,0.6,0.7
	c0.9,0.3,2.2-1.9,2.5-2.3c1.5-2.4,10-12.9,26.6-32.8"/>
<path class="st7" d="M256.7,408.7c10.3-12.5,20.6-25,30.9-37.6c-9.2-11.6-18.4-23.3-27.5-34.9l0,0c-0.1-0.2-0.2-0.6-0.6-0.7
	c-0.9-0.3-2.2,1.9-2.5,2.3c-1.5,2.4-10.2,12.7-27.1,32.3"/>
<path class="st7" d="M323.6,408.6c10-12.8,20.1-25.5,30.1-38.3c-9.4-11.4-18.8-22.9-28.3-34.3l0,0c-0.1-0.2-0.3-0.6-0.6-0.7
	c-0.9-0.3-2.2,1.9-2.4,2.4c-1.5,2.4-10,13-26.5,32.9"/>
<path class="st7" d="M258.5,484.9c9.9-12.9,19.8-25.7,29.7-38.6c-9.5-11.3-19.1-22.7-28.6-34l0,0c-0.1-0.2-0.3-0.6-0.6-0.7
	c-0.9-0.2-2.2,1.9-2.4,2.4c-1.5,2.4-9.8,13.1-26.1,33.3"/>
<path class="st7" d="M324.5,410.7c-10.1,12.7-20.2,25.4-30.3,38.1c9.4,11.5,18.7,23,28.1,34.5l0,0c0.1,0.2,0.3,0.6,0.6,0.7
	c0.9,0.3,2.2-1.9,2.5-2.3c1.5-2.4,10-12.9,26.6-32.8"/>
<path class="st8" d="M227,372.7c-10.1,12.7-20.2,25.4-30.3,38.1c9.4,11.5,18.7,23,28.1,34.5l0,0c0.1,0.2,0.3,0.6,0.6,0.7
	c0.9,0.3,2.2-1.9,2.5-2.3c1.5-2.4,10-12.9,26.6-32.8"/>
<path class="st8" d="M356.6,372.2c-9.8,13-19.6,25.9-29.4,38.9c9.6,11.2,19.3,22.5,28.9,33.7l0,0c0.1,0.2,0.3,0.6,0.6,0.7
	c0.9,0.2,2.1-2,2.4-2.4c1.4-2.4,9.7-13.1,25.9-33.5"/>
<path class="st6" d="M293.1,449.6c-10.1,12.7-20.2,25.4-30.3,38.1c9.4,11.5,18.7,23,28.1,34.5l0,0c0.1,0.2,0.3,0.6,0.6,0.7
	c0.9,0.3,2.2-1.9,2.5-2.3c1.5-2.4,10-12.9,26.6-32.8"/>
<path class="st3" d="M291.4,524.7c-10.1,12.7-20.2,25.4-30.3,38.1c9.4,11.5,18.7,23,28.1,34.5l0,0c0.1,0.2,0.3,0.6,0.6,0.7
	c0.9,0.3,2.2-1.9,2.5-2.3c1.5-2.4,10-12.9,26.6-32.8"/>
<path class="st3" d="M294.2,220c-10.1,12.7-20.2,25.4-30.3,38.1c9.4,11.5,18.7,23,28.1,34.5l0,0c0.1,0.2,0.3,0.6,0.6,0.7
	c0.9,0.3,2.2-1.9,2.5-2.3c1.5-2.4,10-12.9,26.6-32.8"/>
</svg>
