<?xml version="1.0" encoding="utf-8"?>
<!-- Generator: Adobe Illustrator 22.1.0, SVG Export Plug-In . SVG Version: 6.00 Build 0)  -->
<svg version="1.1" id="Calque_1" xmlns="http://www.w3.org/2000/svg" xmlns:xlink="http://www.w3.org/1999/xlink" x="0px" y="0px"
	 viewBox="0 0 595.3 841.9" style="enable-background:new 0 0 595.3 841.9;" xml:space="preserve">
<style type="text/css">
	.st0{fill:#E52524;}
	.st1{fill:#C71618;}
	.st2{fill:#66420F;}
	.st3{fill:#422813;}
	.st4{fill:#378D35;}
	.st5{fill:#0D6930;}
	.st6{fill:#0D6930;stroke:#378D35;stroke-miterlimit:10;}
	.st7{fill:#C71618;stroke:#E52524;stroke-miterlimit:10;}
</style>
<g>
	<path class="st0" d="M288.5,334.2c-9.7-4.9-20.6-7.4-30.7-11.3c-15.9-6.2-86-9-124,37.2c-24.3,29.5-23.6,64.5-23.2,90.1
		c1.7,98,81.4,158.3,89,163.9c9,6.7,17.1,11.5,23,14.7c14.6,7.3,26.5,7.4,32.5,6.9c9.2-0.8,19.1-1.4,28-8.1c3.7-2.7,8.6-7.6,14-6.5
		c1.9,0.4,4.7,1.7,7,3.8c2.1,1.9,2.2,3,4.3,4.9c2.3,2.1,4.7,3,7,3.8c6,2.1,11.3,2.1,13,2.1c5.2,0,21.8-0.7,32.8-4.3
		c16.9-5.4,62.8-31.1,94.4-89c19.9-36.5,24.7-68.5,25.9-78.2c3.9-30.6,8.5-66.7-14-99.2c-22.4-32.4-58-41.7-63.6-43.1
		c-17.3-4.3-33.1-3.3-43.1-2.7c-12.8,0.8-22.7,1.4-32.4,6.5c-4.2,2.2-8.6,4-12.8,6.3c-4.8,2.7-8.7,5.2-14.2,5.3
		c-2.3,0.1-4.5-0.3-4.9-0.3C292.4,336.2,289.4,334.7,288.5,334.2z"/>
	<g>
		<path class="st1" d="M289.8,332.1c-10.4-5.1-22-8.8-33-12.2c-4.8-1.5-10-2.1-15-2.5c-15.5-1.3-31.4,0.2-46.5,3.7
			c-18.8,4.4-36.9,12.6-51.6,25.3c-17.6,15.2-28.8,36-33,58.8c-3.8,20.4-3.8,42.5-1.3,63.1c2.4,20.4,8.2,40.3,16.8,58.9
			c13.3,28.7,33,54.6,56.4,75.9c20.5,18.8,45.8,37.3,74.9,34.8c5.5-0.5,11.1-1.1,16.4-2.8c5.8-1.9,10.2-5.4,15.1-8.9
			c6.4-4.5,11.4-2.2,16,3.2c3.8,4.5,9.4,6.7,15.1,7.8c8.3,1.6,17.3,0.7,25.7-0.3c7.7-0.9,15.1-2.4,22.2-5.4
			c32.6-13.8,59.9-41.3,79.3-70.3c13.9-20.8,24.4-43.9,31.1-68.1c4.5-16.3,6.7-33,8.2-49.8c2.1-23.5,0.6-47.5-10.3-68.9
			c-9.9-19.5-26.6-35-45.9-45.1c-12.4-6.5-25.5-10.7-39.4-12.4c-11.8-1.4-23.6-0.8-35.4,0c-5.5,0.4-11,0.9-16.4,2.1
			c-6,1.4-11.2,4.1-16.7,6.7c-5.5,2.6-11.1,6.7-17,8.3C300.2,335.6,294.5,334.5,289.8,332.1c-2.9-1.4-5.4,2.9-2.5,4.3
			c8.4,4.2,17.1,4.3,25.5,0c10.8-5.6,21.1-11.8,33.3-13.5c19.7-2.8,41.3-3.3,60.6,2.3c38,11,68.5,41.5,74.4,81.3
			c3,20.1,0.6,41.1-2.4,61.1c-2.7,17.9-7.8,35.6-14.8,52.3c-16.6,39.5-44.6,75.6-81.3,98.3c-11.6,7.2-23.2,12.2-36.9,13.8
			c-8.1,1-17.1,2.1-25.2,0.3c-3.5-0.8-7.4-1.9-10.2-4.4c-1.6-1.4-2.7-3.4-4.3-4.9c-3.1-2.8-7.4-5-11.7-4.6
			c-4.5,0.5-8.1,3.6-11.6,6.3c-5.9,4.5-12.5,6.7-19.8,7.6c-9,1.2-17.7,1.3-26.5-1c-14.6-3.9-28-13.3-39.7-22.6
			c-19.5-15.6-36.5-34.6-50.2-55.4c-10.2-15.4-18.5-32.1-24.3-49.7c-6.5-19.8-9-40.1-9.2-60.9c-0.2-21.4,1.5-43.3,11-62.8
			c9.6-19.6,25.9-34.8,45.4-44.4c16-7.8,33.7-12,51.4-13.2c11.3-0.8,23.7-1,34.7,2.4c10.6,3.3,21.8,6.7,31.8,11.6
			C290.2,337.8,292.7,333.5,289.8,332.1z"/>
	</g>
</g>
<g>
	<path class="st2" d="M301.2,318.4c-3.9-1.6-1.8-16.4,1.6-27.3c1.4-4.5,3-8,7.3-16.2c0,0,21.1-40.5,34.8-54.2c0.4-0.4,2-1.9,3.9-4.2
		c4.4-5,5.2-7,6.6-8.4c5.9-5.6,22.8,0.6,33.6,8.9c3.9,3,13.7,10.5,11.7,16.6c-1,3.2-5,4.7-6.5,5.3c-22.7,8.6-58.4,42.7-69.6,57.8
		c-4,5.4-6.7,8-12.1,13.3C306.3,316.2,303.2,319.3,301.2,318.4z"/>
	<g>
		<path class="st3" d="M302.5,316.3c-2.9-1.8,0-13.1,0.5-15.5c1.1-5.6,2.8-11.1,5.2-16.2c2.6-5.5,5.5-10.9,8.4-16.2
			c8.8-15.9,17.8-33.1,30.6-46.3c3.4-3.5,6.1-7.6,9.3-11.2c3.5-3.9,9.6-2.3,14-0.9c5.4,1.7,10.4,4.4,15,7.5c4.2,2.9,9.6,6.7,12,11.4
			c3.2,6-4,7.5-8.2,9.4c-4.6,2.2-9,4.8-13.3,7.7c-9.3,6.2-18,13.4-26.2,20.8c-8.4,7.5-16.5,15.5-23.7,24.2
			c-3.5,4.3-6.7,8.7-10.6,12.7c-2.7,2.8-5.5,5.5-8.3,8.1c-0.8,0.8-4,4.5-5.3,4.2c-3.1-0.8-4.4,4-1.3,4.8c4,1.1,7.6-3,10.2-5.5
			c5.3-5,10.5-10,15-15.8c6.8-8.8,14.5-16.9,22.6-24.5c9.8-9.2,20.1-18,31.3-25.4c4.9-3.2,9.9-6.1,15.3-8.3c4.1-1.7,8.4-4.1,8.5-9.1
			c0.3-10.4-15.3-19.5-23.2-23.5c-7.8-3.9-21.1-9.2-27.8-0.9c-6.8,8.4-14.2,16.2-20.4,25.1c-6.6,9.5-12.5,19.6-18.1,29.7
			c-4.1,7.4-8.4,14.9-11.7,22.8c-2.7,6.6-4.4,13.6-5.3,20.7c-0.5,4.3-1.6,11.7,2.9,14.5C302.7,322.3,305.2,318,302.5,316.3z"/>
	</g>
</g>
<g>
	<path class="st4" d="M287.2,281.3c0.3-6.7,0.3-28-14.6-46.9c-25.1-31.8-68.2-25.8-70-25.5c-1.6,6.1-6.6,27.8,5.3,47.3
		c9.3,15.3,25.9,19.8,59,28.7c4.5,1.2,11.6,2.7,17.2-0.9C285.7,283.1,286.7,282,287.2,281.3z"/>
	<g>
		<path class="st5" d="M289.7,281.3c1.1-27.1-12.3-53.7-36.8-66.3c-15.1-7.9-34-11-50.9-8.5c-0.8,0.1-1.5,1-1.7,1.7
			c-5.6,21.2-2.3,47.6,16.6,61.1c9.2,6.6,20.7,9.9,31.5,13c12,3.5,30.4,12.1,40.6,0.7c2.1-2.4-1.4-5.9-3.5-3.5
			c-5.6,6.2-13.4,4.2-20.5,2.3c-6.3-1.7-12.6-3.4-18.9-5.3c-9.2-2.8-18.8-5.8-26.7-11.5c-17-12.3-19.3-36.6-14.3-55.5
			c-0.6,0.6-1.2,1.2-1.7,1.7c13.9-2.1,32.4,0.6,45.9,7.4c23.6,11.7,36.4,36.7,35.4,62.6C284.6,284.5,289.6,284.5,289.7,281.3z"/>
	</g>
</g>
<path class="st6" d="M521,392"/>
<path class="st7" d="M176.5,367.3c-6.4,2-18.1,6.7-28.5,17.7c0,0-15.1,16-17.9,40.6c-0.6,4.9-0.3,9.7-0.3,9.7c0.4,6,1.6,11.3,3,14.3
	c0,0,0,0.1,1.1,2.4c0.7,1.6,1.4,3.2,2.2,4.9c2,4.6,12.1,24.8,12.7,24.5c0.3-0.1-2.9-5.6-4.9-14.6c-0.5-2.2-1-5.4-1.4-11.1
	c-0.3-4.5-0.4-10.8,1.2-27.3c1.7-17.6,2.9-21.3,3.9-23.9c1.6-4.3,3.3-7.1,6.9-12.9c2.7-4.2,4-6.4,4.3-6.8c2.3-3.4,4.4-6.4,7.3-9.4
	C168.2,373.2,171.6,370.1,176.5,367.3z"/>
<path class="st7" d="M137.3,472.7c0.9,2,2,4.3,3.7,6.8c1.1,1.6,1.8,2.3,2,2.5c2.4,2.4,5.8,4.1,6.4,3.4c0.4-0.5-0.9-1.9-4.3-7.4
	c-2.7-4.4-5.4-9.1-5.4-9.1l0,0c-1.5-2.4-1.6-2.6-1.6-2.6c-0.4-0.7-0.8-1.5-1.9-5.1c-1.1-3.9-1.3-5-1.6-5c-0.4,0-0.8,2.5-0.8,4.8
	C134,465.1,135.2,468,137.3,472.7z"/>
</svg>
