<?xml version="1.0" encoding="utf-8"?>
<!-- Generator: Adobe Illustrator 22.1.0, SVG Export Plug-In . SVG Version: 6.00 Build 0)  -->
<svg version="1.1" id="Calque_1" xmlns="http://www.w3.org/2000/svg" xmlns:xlink="http://www.w3.org/1999/xlink" x="0px" y="0px"
	 viewBox="0 0 516 578" style="enable-background:new 0 0 516 578;" xml:space="preserve">
<style type="text/css">
	.st0{fill:#E52524;}
	.st1{fill:#C71618;}
	.st2{fill:#66420F;}
	.st3{fill:#422813;}
	.st4{fill:#106C30;}
	.st5{fill:#93C020;}
	.st6{fill:#0D6930;stroke:#378D35;stroke-miterlimit:10;}
	.st7{fill:#FFFFFF;stroke:#E52524;stroke-miterlimit:10;}
	.st8{fill:#FDFDFD;stroke:#E52524;stroke-miterlimit:10;}
	.st9{fill:#235627;}
	.st10{fill:#106C30;stroke:#93C020;stroke-miterlimit:10;}
	.st11{fill:#8A4514;}
</style>
<g>
	<path class="st0" d="M249.5,216.6c-9.7-4.9-20.6-7.4-30.7-11.3c-15.9-6.2-86-9-124,37.2c-24.3,29.5-23.6,64.5-23.2,90.1
		c1.7,98,81.4,158.3,89,163.9c9,6.7,17.1,11.5,23,14.7c14.6,7.3,26.5,7.4,32.5,6.9c9.2-0.8,19.1-1.4,28-8.1c3.7-2.7,8.6-7.6,14-6.5
		c1.9,0.4,4.7,1.7,7,3.8c2.1,1.9,2.2,3,4.3,4.9c2.3,2.1,4.7,3,7,3.8c6,2.1,11.3,2.1,13,2.1c5.2,0,21.8-0.7,32.8-4.3
		c16.9-5.4,62.8-31.1,94.4-89c19.9-36.5,24.7-68.5,25.9-78.2c3.9-30.6,8.5-66.7-14-99.2c-22.4-32.4-58-41.7-63.6-43.1
		c-17.3-4.3-33.1-3.3-43.1-2.7c-12.8,0.8-22.7,1.4-32.4,6.5c-4.2,2.2-8.6,4-12.8,6.3c-4.8,2.7-8.7,5.2-14.2,5.3
		c-2.3,0.1-4.5-0.3-4.9-0.3C253.4,218.6,250.4,217,249.5,216.6z"/>
	<g>
		<path class="st1" d="M253.3,210.1c-10.8-5.3-22.7-9.1-34.2-12.7c-5.3-1.6-10.9-2.2-16.3-2.7c-15.9-1.3-32.3,0.2-47.9,3.9
			c-19.7,4.6-38.4,13.4-53.8,26.6c-18.2,15.6-29.9,37.5-34.3,61c-3.9,20.9-4,43.3-1.5,64.4c2.5,21.4,8.5,41.9,17.5,61.5
			c13.4,29.1,33.5,55.3,57.1,76.9c21.5,19.6,48,38.9,78.4,36.3c6-0.5,12-1.1,17.7-3c6.3-2.1,11-5.6,16.2-9.4
			c1.8-1.3,3.2-2.4,5.3-1.8c2.1,0.6,3.4,2.7,4.7,4.2c4.3,5.1,10.8,7.8,17.3,9.1c8.8,1.7,18.1,0.9,27-0.2c8.6-1,16.8-2.7,24.7-6.1
			c33.3-14.3,61.2-42.3,81.1-72c14.1-21.1,24.8-44.8,31.6-69.3c4.6-16.7,6.9-33.9,8.4-51.1c2.1-24.4,0.3-49.3-11-71.4
			c-10.3-20.2-27.7-36.5-47.7-46.9c-13.2-6.9-27.1-11.3-41.9-13.1c-11.8-1.4-23.6-0.8-35.4,0c-5.9,0.4-11.9,0.9-17.7,2.3
			c-6.4,1.5-12,4.4-17.9,7.2C271.4,208.4,263.3,215.2,253.3,210.1c-8.6-4.3-16.2,8.6-7.6,13c10,5.1,20.5,5.2,30.5,0
			c10.2-5.3,20-11.3,31.5-12.9c19-2.7,40-3.2,58.6,2.2c36.3,10.5,65.4,39.7,70.9,77.8c1.6,11.3,1.3,22.8,0.4,34.1
			c-0.4,5-1,10-1.6,15c-0.3,2.4-0.6,4.8-0.9,7.3c-0.1,0.4-0.3,2.1,0,0.1c-0.1,0.6-0.2,1.3-0.3,1.9c-2.8,17.9-7.8,35.6-14.8,52.3
			c-16.2,38.3-43.4,73.3-79,95.3c-11.8,7.3-20.4,11.4-34.4,13.2c-7.5,1-16.3,2.2-23.8,0.5c-2.7-0.6-5.8-1.3-8-3.1
			c-1.7-1.3-2.7-3.4-4.3-4.9c-4-3.8-9.6-6.5-15.2-6c-5.8,0.4-10.1,4-14.6,7.3c-5.1,3.8-10.6,5.7-16.8,6.6
			c-8.4,1.2-16.9,1.4-25.2-0.8c-11.4-3-21.7-9.9-31.2-16.7c-1.5-1.1-3-2.2-4.5-3.3c-1.6-1.2,0.9,0.7,0.1,0c-0.6-0.5-1.2-1-1.8-1.4
			c-19.1-15.3-36-33.9-49.5-54.4c-9.9-15.1-18.2-31.3-23.8-48.5c-6.4-19.4-8.8-39.2-9-59.6c-0.2-20.5,1.2-41.6,10.4-60.3
			c9.2-18.9,24.8-33.4,43.6-42.6c15.1-7.4,32.1-11.4,48.9-12.5c11.7-0.8,23.2-0.9,33.3,2.2c10.2,3.1,21,6.4,30.6,11.1
			C254.4,227.3,262,214.4,253.3,210.1z"/>
	</g>
</g>
<g>
	<path class="st2" d="M261.6,196.4c-4-1.2-3.5-16.2-1.1-27.3c1-4.7,2.2-8.3,5.6-16.8c0,0,16.9-42.4,29.1-57.5
		c0.4-0.5,1.8-2.1,3.5-4.6c3.9-5.4,4.4-7.5,5.7-9c5.3-6.2,22.7-1.7,34.3,5.4c4.2,2.6,14.7,9,13.4,15.3c-0.7,3.3-4.5,5.2-5.9,5.9
		c-21.7,10.9-53.7,48.4-63.3,64.6c-3.4,5.7-5.8,8.7-10.7,14.5C266.5,193.6,263.6,197,261.6,196.4z"/>
	<g>
		<path class="st3" d="M262.9,194.2c-3-1.4-1.7-10.9-1.5-13.4c0.4-5.8,1.4-11.5,3.1-17c1.9-6,4.4-11.8,6.8-17.6
			c7.1-16.9,14.4-35.1,25.7-49.7c3-3.8,5.7-7.7,8.1-11.8c2.7-4.6,7.9-4.3,12.8-3.5c10.1,1.7,23.5,7.3,30,15.7
			c4.6,5.9-2.3,8.2-6.5,10.7c-4.2,2.5-8.1,5.5-11.9,8.6c-8.8,7.2-16.9,15.3-24.5,23.8c-7.5,8.3-14.7,16.9-21,26.2
			c-3.2,4.6-5.9,9.6-9.4,14c-2.4,3-4.9,6-7.4,8.9c-0.6,0.7-3.9,5.1-4.8,4.9c-3.1-0.5-4.5,4.3-1.3,4.8c4.2,0.7,7.2-3.4,9.6-6.2
			c4.6-5.4,9.3-10.8,13.1-16.8c6-9.6,12.7-18.5,20.1-27.1c8.8-10.2,18.2-19.9,28.5-28.5c4.4-3.6,9-7,14.1-9.7
			c4.1-2.2,8.6-5.1,8.1-10.5c-1-10-16.4-17.1-24.4-20.3c-8.2-3.3-22.9-7.7-28.9,1.6c-5.9,9.2-12.6,17.7-17.8,27.3
			c-5.5,10.1-10.3,20.7-14.9,31.3c-3.4,7.9-7,15.9-9.4,24.2c-1.9,6.8-2.9,14.1-3,21.1c0,4-0.2,11.4,4.2,13.5
			C263.2,199.9,265.8,195.6,262.9,194.2z"/>
	</g>
</g>
<g>
	<path class="st4" d="M243.2,173.4c1.4-1.8,1.8-36.5-19.4-62.7c-29.4-36.1-82.5-34.6-93.5-34c-2.2,8.1-8.9,37.2,7,63.2
		c21.6,35.5,68.3,37.8,78.9,38.4c9.5,0.5,17.4-0.3,22.9-1.2c0.8-0.5,1.7-1.1,2.6-2C241.7,175,242.5,174.3,243.2,173.4z"/>
	<g>
		<path class="st5" d="M245.3,174.6c1.2-2,0.9-5.2,0.9-7.4c-0.1-5-0.7-10-1.5-15c-2.7-14.9-8.5-29.5-17.8-41.5
			c-16.6-21.6-43-32.1-69.4-35.5c-9-1.2-18.2-1.5-27.3-1.1c-1.1,0.1-2.1,0.7-2.4,1.8c-7.1,26.8-3.1,57,16.8,77.4
			c16.5,16.9,40.2,24.4,63.2,26.7c4.6,0.4,9.2,0.7,13.7,0.7c4.8,0,9.7-0.3,14.5-0.9c4-0.5,6.2-1.7,8.8-4.8c2.1-2.4-1.4-6-3.5-3.5
			c-4.8,5.5-15.7,4.4-22.5,4.2c-3.1-0.1-6.2-0.3-9.3-0.5c-8.8-0.8-17.5-2.3-26-4.9c-26.7-8.1-48-27.2-53-55.6
			c-2.2-12.4-1.2-25.4,2-37.5c-0.8,0.6-1.6,1.2-2.4,1.8c17.7-0.8,35.7,1.2,52.5,6.9c27.7,9.5,47.7,30.6,55.3,59
			c1.6,6.1,2.7,12.3,3.1,18.5c0.1,2,0.2,3.9,0.1,5.9c0,0.8-0.4,2.9-0.2,2.6C239.4,174.9,243.7,177.4,245.3,174.6z"/>
	</g>
</g>
<path class="st6" d="M482,274.4"/>
<path class="st7" d="M137.5,249.7c-6.4,2-18.1,6.7-28.5,17.7c0,0-15.1,16-17.9,40.6c-0.6,4.9-0.3,9.7-0.3,9.7c0.4,6,1.6,11.3,3,14.3
	c0,0,0,0.1,1.1,2.4c0.7,1.6,1.4,3.2,2.2,4.9c2,4.6,12.1,24.8,12.7,24.5c0.3-0.1-2.9-5.6-4.9-14.6c-0.5-2.2-1-5.4-1.4-11.1
	c-0.3-4.5-0.4-10.8,1.2-27.3c1.7-17.6,2.9-21.3,3.9-23.9c1.6-4.3,3.3-7.1,6.9-12.9c2.7-4.2,4-6.4,4.3-6.8c2.3-3.4,4.4-6.4,7.3-9.4
	C129.2,255.5,132.6,252.5,137.5,249.7z"/>
<path class="st8" d="M98.3,355.1c0.9,2,2,4.3,3.7,6.8c1.1,1.6,1.8,2.3,2,2.5c2.4,2.4,5.8,4.1,6.4,3.4c0.4-0.5-0.9-1.9-4.3-7.4
	c-2.7-4.4-5.4-9.1-5.4-9.1c-1.5-2.4-1.6-2.6-1.6-2.6c-0.4-0.7-0.8-1.5-1.9-5.1c-1.1-3.9-1.3-5-1.6-5c-0.4,0-0.8,2.5-0.8,4.8
	C95,347.5,96.2,350.4,98.3,355.1z"/>
<path class="st9" d="M271.2,220.1"/>
<path class="st9" d="M255.3,202"/>
<path class="st9" d="M264.1,272.3"/>
<path class="st9" d="M255.3,185.4"/>
<path class="st9" d="M261.5,214.7"/>
<path class="st5" d="M231.2,170.4c-6.8-13.3-15.1-21.7-19.7-21.8c-3.6-0.1-7.8,0.7-7.8,0.7c-5.5,1-9.1,2.7-10.6,3.3
	c-11.6,4.3-29.9-9.8-29.3-10.8c0.4-0.7,7.9,4.2,21.7,5.5c6.4,0.6,16,0.7,16.6-1.4c0.5-1.6-4.6-3.8-8.1-5.6
	c-7.1-3.6-10-6.7-28.1-25.7c-24.2-25.4-27.3-28.5-26.8-28.9c1.2-1.1,19.2,13.3,24.3,17.4c29.2,23.4,44.9,40.8,48.2,38.6
	c0.8-0.5,0.1-1.7-1.9-10.6c-3.3-14.8-2.4-15.8-4.9-22.4c-2.8-7.2-5.9-11.1-5-11.7c0.9-0.7,5.1,2.5,8.1,5.9c0.7,0.8,1.4,1.6,2,2.5
	c4.4,6.5,6.8,17.5,7.5,20.4c1,4.5,2.6,11,5.4,19"/>
<path class="st5" d="M229,137.3"/>
<g>
	<path class="st4" d="M308.7,180.9c13.6,1,19.8,1.7,23,2.1c1.1,0.2,5.3,0.8,10.9,1c0,0,0.9,0,1.8,0.1c5.8,0.1,17-1,21.3-2.1
		c16.7-4.1,37.8-33,33.1-38.7c-0.7-0.9-2.4-1.6-6.5-0.7l0,0c-1.5-0.5-3.7-1.1-6.4-1.9c-19.7-5.8-29.5-8.6-33.8-8.4
		c-14,0.6-27.3,10.4-33.7,20c-1.9,2.8-2.8,5.1-6.5,10.3c-4.9,7-9.8,12.2-13.1,15.5C302.1,179,305.4,180,308.7,180.9z"/>
	<g>
		<path class="st5" d="M308.7,183.4c15.8,1.2,31.8,4.2,47.6,2.5c7.8-0.8,14.6-2.3,21.1-6.9c6.5-4.6,12.1-10.4,16.8-16.8
			c3.3-4.4,7.6-10.4,7.7-16.2c0.2-6.9-5.8-5.6-10.6-6.2c-5-0.7-10.3-3-15.2-4.5c-4.6-1.3-9.2-2.7-13.9-3.8
			c-6.3-1.6-11.7-2.1-18.1-0.5c-10.6,2.7-20.4,9.6-26.8,18.4c-2.8,3.8-4.9,8.1-7.7,12c-3.8,5.4-8.1,10.3-12.7,15
			c-1.3,1.3-0.7,3.7,1.1,4.2c3.3,1,6.6,1.9,9.9,2.9c3.1,0.9,4.4-3.9,1.3-4.8c-3.3-1-6.6-1.9-9.9-2.9c0.4,1.4,0.7,2.8,1.1,4.2
			c6.4-6.3,12.2-13.4,16.8-21.1c4.3-7.1,9-13.2,16.2-17.7c6.5-4.1,14.5-7.3,22.3-5.9c6.4,1.1,12.7,3.2,19,5c4.7,1.3,9.3,2.7,14,4.1
			c1.4,0.4,2.6,0.9,4.1,0.8c1.5,0,3.3-1,4,0.4c0.7,1.3-1.2,4.6-1.7,5.7c-1.4,2.8-3.1,5.5-5,8c-4.5,6.1-10,11.9-16.3,16.1
			c-6,4-12,5.1-19.1,5.7c-15.3,1.5-30.9-1.5-46.2-2.6C305.5,178.2,305.5,183.2,308.7,183.4z"/>
	</g>
</g>
<path class="st5" d="M312,172.4c8.6,0,15-2.1,16.3-4.4c1-1.8,1.7-4.2,1.7-4.2c0.9-3.1,1-5.3,1.1-6.3c0.8-7,12.8-12.8,13.2-12.2
	c0.2,0.4-4.2,3-8.5,9.7c-2,3.1-4.5,8-3.6,8.8c0.7,0.7,3.2-1.4,4.9-2.7c3.7-2.7,6-3.4,20.5-7.7c19.3-5.8,21.7-6.6,21.8-6.2
	c0.3,0.9-11.8,6.3-15.2,7.9c-19.6,8.8-32.6,12.3-32.3,14.6c0.1,0.5,0.8,0.5,5.9,1.8c8.4,2.2,8.7,2.9,12.7,3.3
	c4.4,0.5,7.2-0.1,7.3,0.5c0.1,0.6-2.6,1.9-5.1,2.6c-0.6,0.2-1.2,0.3-1.8,0.4c-4.5,0.5-10.7-1.1-12.4-1.5c-2.6-0.7-6.3-1.5-11.1-2.2"
	/>
<path class="st5" d="M297.2,170.5"/>
<path class="st10" d="M388.7,127.7"/>
<path class="st10" d="M405.4,146.4"/>
<path class="st7" d="M100.7,355.7"/>
<g>
	<path class="st11" d="M317.6,85.4c1.4,0.8,3.7,2.1,3.8,3.8c0.2,2.1-2.8,3.6-7.5,6.5c-10.2,6.3-13.7,10.2-14.9,9.2
		c-0.8-0.7,0.2-2.8,1.9-6.8c1.4-3.4,2.9-5.5,5.5-9.3c2.7-3.9,3.4-4.4,4.2-4.7C313.5,83,316.6,84.8,317.6,85.4z"/>
	<g>
		<path class="st3" d="M316.5,86.2c1.4,0.8,3.9,2,3,4.3c-0.3,0.7-1.8,1.5-2.4,1.9c-2.2,1.6-4.7,2.9-7,4.4c-3.1,2.1-6.1,4.5-9.3,6.4
			c-1.9,1.2-0.7,0.1,0-1.7c0.8-2.3,1.8-4.5,3-6.6c1.3-2.4,2.9-4.7,4.5-6.9C310.7,84.9,312.3,83.9,316.5,86.2
			c1.1,0.6,3.7-0.9,2.2-1.7c-7.5-4.1-10.9-0.3-15,5.8c-1.4,2.1-9.8,14.4-5.1,15.8c1.3,0.4,2.8-0.7,3.9-1.3c3.3-2.1,6.3-4.5,9.5-6.6
			c5.2-3.4,16.2-8.1,6.6-13.6C317.6,83.9,315.1,85.4,316.5,86.2z"/>
	</g>
</g>
</svg>
