<?xml version="1.0" encoding="utf-8"?>
<!-- Generator: Adobe Illustrator 22.1.0, SVG Export Plug-In . SVG Version: 6.00 Build 0)  -->
<svg version="1.1" id="Calque_1" xmlns="http://www.w3.org/2000/svg" xmlns:xlink="http://www.w3.org/1999/xlink" x="0px" y="0px"
	 viewBox="0 0 516 578" style="enable-background:new 0 0 516 578;" xml:space="preserve">
<style type="text/css">
	.st0{fill:#E52524;}
	.st1{fill:#66420F;}
	.st2{fill:#106C30;}
	.st3{fill:#0D6930;stroke:#378D35;stroke-miterlimit:10;}
	.st4{fill:#FFFFFF;stroke:#E52524;stroke-miterlimit:10;}
	.st5{fill:#FDFDFD;stroke:#E52524;stroke-miterlimit:10;}
	.st6{fill:#235627;}
	.st7{fill:#93C020;}
	.st8{fill:#106C30;stroke:#93C020;stroke-miterlimit:10;}
	.st9{fill:#B26A38;}
</style>
<g>
	<path class="st0" d="M249.5,216.6c-9.7-4.9-20.6-7.4-30.7-11.3c-15.9-6.2-86-9-124,37.2c-24.3,29.5-23.6,64.5-23.2,90.1
		c1.7,98,81.4,158.3,89,163.9c9,6.7,17.1,11.5,23,14.7c14.6,7.3,26.5,7.4,32.5,6.9c9.2-0.8,19.1-1.4,28-8.1c3.7-2.7,8.6-7.6,14-6.5
		c1.9,0.4,4.7,1.7,7,3.8c2.1,1.9,2.2,3,4.3,4.9c2.3,2.1,4.7,3,7,3.8c6,2.1,11.3,2.1,13,2.1c5.2,0,21.8-0.7,32.8-4.3
		c16.9-5.4,62.8-31.1,94.4-89c19.9-36.5,24.7-68.5,25.9-78.2c3.9-30.6,8.5-66.7-14-99.2c-22.4-32.4-58-41.7-63.6-43.1
		c-17.3-4.3-33.1-3.3-43.1-2.7c-12.8,0.8-22.7,1.4-32.4,6.5c-4.2,2.2-8.6,4-12.8,6.3c-4.8,2.7-8.7,5.2-14.2,5.3
		c-2.3,0.1-4.5-0.3-4.9-0.3C253.4,218.6,250.4,217,249.5,216.6z"/>
</g>
<g>
	<path class="st1" d="M261.6,196.4c-4-1.2-3.5-16.2-1.1-27.3c1-4.7,2.2-8.3,5.6-16.8c0,0,16.9-42.4,29.1-57.5
		c0.4-0.5,1.8-2.1,3.5-4.6c3.9-5.4,4.4-7.5,5.7-9c5.3-6.2,22.7-1.7,34.3,5.4c4.2,2.6,14.7,9,13.4,15.3c-0.7,3.3-4.5,5.2-5.9,5.9
		c-21.7,10.9-53.7,48.4-63.3,64.6c-3.4,5.7-5.8,8.7-10.7,14.5C266.5,193.6,263.6,197,261.6,196.4z"/>
</g>
<g>
	<path class="st2" d="M243.2,173.4c1.4-1.8,1.8-36.5-19.4-62.7c-29.4-36.1-82.5-34.6-93.5-34c-2.2,8.1-8.9,37.2,7,63.2
		c21.6,35.5,68.3,37.8,78.9,38.4c9.5,0.5,17.4-0.3,22.9-1.2c0.8-0.5,1.7-1.1,2.6-2C241.7,175,242.5,174.3,243.2,173.4z"/>
</g>
<path class="st3" d="M482,274.4"/>
<path class="st4" d="M137.5,249.7c-6.4,2-18.1,6.7-28.5,17.7c0,0-15.1,16-17.9,40.6c-0.6,4.9-0.3,9.7-0.3,9.7c0.4,6,1.6,11.3,3,14.3
	c0,0,0,0.1,1.1,2.4c0.7,1.6,1.4,3.2,2.2,4.9c2,4.6,12.1,24.8,12.7,24.5c0.3-0.1-2.9-5.6-4.9-14.6c-0.5-2.2-1-5.4-1.4-11.1
	c-0.3-4.5-0.4-10.8,1.2-27.3c1.7-17.6,2.9-21.3,3.9-23.9c1.6-4.3,3.3-7.1,6.9-12.9c2.7-4.2,4-6.4,4.3-6.8c2.3-3.4,4.4-6.4,7.3-9.4
	C129.2,255.5,132.6,252.5,137.5,249.7z"/>
<path class="st5" d="M98.3,355.1c0.9,2,2,4.3,3.7,6.8c1.1,1.6,1.8,2.3,2,2.5c2.4,2.4,5.8,4.1,6.4,3.4c0.4-0.5-0.9-1.9-4.3-7.4
	c-2.7-4.4-5.4-9.1-5.4-9.1c-1.5-2.4-1.6-2.6-1.6-2.6c-0.4-0.7-0.8-1.5-1.9-5.1c-1.1-3.9-1.3-5-1.6-5c-0.4,0-0.8,2.5-0.8,4.8
	C95,347.5,96.2,350.4,98.3,355.1z"/>
<path class="st6" d="M271.2,220.1"/>
<path class="st6" d="M255.3,202"/>
<path class="st6" d="M264.1,272.3"/>
<path class="st6" d="M255.3,185.4"/>
<path class="st6" d="M261.5,214.7"/>
<path class="st7" d="M231.2,170.4c-6.8-13.3-15.1-21.7-19.7-21.8c-3.6-0.1-7.8,0.7-7.8,0.7c-5.5,1-9.1,2.7-10.6,3.3
	c-11.6,4.3-29.9-9.8-29.3-10.8c0.4-0.7,7.9,4.2,21.7,5.5c6.4,0.6,16,0.7,16.6-1.4c0.5-1.6-4.6-3.8-8.1-5.6
	c-7.1-3.6-10-6.7-28.1-25.7c-24.2-25.4-27.3-28.5-26.8-28.9c1.2-1.1,19.2,13.3,24.3,17.4c29.2,23.4,44.9,40.8,48.2,38.6
	c0.8-0.5,0.1-1.7-1.9-10.6c-3.3-14.8-2.4-15.8-4.9-22.4c-2.8-7.2-5.9-11.1-5-11.7c0.9-0.7,5.1,2.5,8.1,5.9c0.7,0.8,1.4,1.6,2,2.5
	c4.4,6.5,6.8,17.5,7.5,20.4c1,4.5,2.6,11,5.4,19"/>
<path class="st7" d="M229,137.3"/>
<g>
	<path class="st2" d="M308.7,180.9c13.6,1,19.8,1.7,23,2.1c1.1,0.2,5.3,0.8,10.9,1c0,0,0.9,0,1.8,0.1c5.8,0.1,17-1,21.3-2.1
		c16.7-4.1,37.8-33,33.1-38.7c-0.7-0.9-2.4-1.6-6.5-0.7l0,0c-1.5-0.5-3.7-1.1-6.4-1.9c-19.7-5.8-29.5-8.6-33.8-8.4
		c-14,0.6-27.3,10.4-33.7,20c-1.9,2.8-2.8,5.1-6.5,10.3c-4.9,7-9.8,12.2-13.1,15.5C302.1,179,305.4,180,308.7,180.9z"/>
</g>
<path class="st7" d="M312,172.4c8.6,0,15-2.1,16.3-4.4c1-1.8,1.7-4.2,1.7-4.2c0.9-3.1,1-5.3,1.1-6.3c0.8-7,12.8-12.8,13.2-12.2
	c0.2,0.4-4.2,3-8.5,9.7c-2,3.1-4.5,8-3.6,8.8c0.7,0.7,3.2-1.4,4.9-2.7c3.7-2.7,6-3.4,20.5-7.7c19.3-5.8,21.7-6.6,21.8-6.2
	c0.3,0.9-11.8,6.3-15.2,7.9c-19.6,8.8-32.6,12.3-32.3,14.6c0.1,0.5,0.8,0.5,5.9,1.8c8.4,2.2,8.7,2.9,12.7,3.3
	c4.4,0.5,7.2-0.1,7.3,0.5c0.1,0.6-2.6,1.9-5.1,2.6c-0.6,0.2-1.2,0.3-1.8,0.4c-4.5,0.5-10.7-1.1-12.4-1.5c-2.6-0.7-6.3-1.5-11.1-2.2"
	/>
<path class="st7" d="M297.2,170.5"/>
<path class="st8" d="M388.7,127.7"/>
<path class="st8" d="M405.4,146.4"/>
<path class="st4" d="M100.7,355.7"/>
<g>
	<path class="st9" d="M317.6,85.4c1.4,0.8,3.7,2.1,3.8,3.8c0.2,2.1-2.8,3.6-7.5,6.5c-10.2,6.3-13.7,10.2-14.9,9.2
		c-0.8-0.7,0.2-2.8,1.9-6.8c1.4-3.4,2.9-5.5,5.5-9.3c2.7-3.9,3.4-4.4,4.2-4.7C313.5,83,316.6,84.8,317.6,85.4z"/>
</g>
</svg>
