<?xml version="1.0" encoding="utf-8"?>
<!-- Generator: Adobe Illustrator 22.1.0, SVG Export Plug-In . SVG Version: 6.00 Build 0)  -->
<svg version="1.1" id="Calque_1" xmlns="http://www.w3.org/2000/svg" xmlns:xlink="http://www.w3.org/1999/xlink" x="0px" y="0px"
	 viewBox="0 0 595.3 841.9" style="enable-background:new 0 0 595.3 841.9;" xml:space="preserve">
<style type="text/css">
	.st0{fill:#7F1715;}
	.st1{fill:#010202;}
	.st2{fill:#FFFFFF;stroke:#010202;stroke-miterlimit:10;}
	.st3{fill:#FFFFFF;}
	.st4{fill:none;stroke:#7F1715;stroke-miterlimit:10;}
</style>
<g>
	<g>
		<path class="st0" d="M117.9,420.6c0.3,74.8,47.7,143.2,118,169.1c71.1,26.2,153.3,3.7,201.3-54.8c47.9-58.5,54.2-143.2,14.8-207.8
			c-39.1-64.2-115.9-97.8-189.6-83c-72.8,14.5-130.8,75-142.3,148.3C118.7,401.7,118,411.1,117.9,420.6c0,3.2,5,3.2,5,0
			c0.3-73,46.7-140,115.6-164.7c68.9-24.8,147.6-3.2,194.3,53c47.2,56.7,53.2,139.8,14.8,202.8c-38,62.4-112.9,95.2-184.6,80.6
			c-70.7-14.4-126.6-72.8-138-144c-1.5-9.1-2.1-18.4-2.1-27.6C122.9,417.4,117.9,417.4,117.9,420.6z"/>
	</g>
</g>
<path class="st1" d="M146.4,419.7c0,88,77.2,149.3,150.6,150.6c50,0.9,99-26.1,126.6-68c5.5-8.4,25.7-40.1,24-82.6
	c-2.7-66.7-59-150.6-150.6-150.6C213.9,269.1,146.4,336.5,146.4,419.7z"/>
<path class="st2" d="M269.3,420c-0.4,15.3,13.2,27.3,27.2,27.7c14.4,0.4,28.8-11.4,28.8-27c0-15.7-14.4-27.4-28.8-27
	C283.1,394,269.7,405,269.3,420z"/>
<rect x="263.4" y="323.3" transform="matrix(0.8934 -0.4492 0.4492 0.8934 -139.0926 163.7234)" class="st3" width="24.2" height="103.3"/>
<rect x="348.6" y="320.5" transform="matrix(0.4492 0.8934 -0.8934 0.4492 546.012 -106.5701)" class="st3" width="21.7" height="138"/>
<g>
	<g>
		<path class="st0" d="M290.3,192.1c-47.3,1.8-93.4,18-131,46.9c-36.2,27.8-63.7,66.3-78.1,109.7c-15.1,45.6-15.2,95.8-0.5,141.5
			c14.1,43.8,41.6,82.8,78.1,110.9c37,28.5,82.3,45.1,129,47.2c47.6,2.1,95.4-10.8,135.3-36.9c38.2-25,68.4-61.3,85.9-103.4
			c18.5-44.3,22.4-94.1,11.3-140.8c-10.7-45.2-35.6-86.6-70.2-117.4c-34.5-30.7-77.9-50.5-123.8-56.2
			C314.4,192.2,302.3,191.7,290.3,192.1c-3.2,0.1-3.2,5.1,0,5c46.1-1.5,91.7,11.1,130.3,36.4c37.6,24.7,67.5,60.8,84.5,102.5
			c17.7,43.5,21.2,92.3,10,137.9c-10.8,43.7-34.9,83.5-68.5,113.4c-34.2,30.4-77.6,49.9-123.1,55c-46.1,5.1-93.1-4.1-133.7-26.6
			c-39.3-21.9-71.6-55.6-91.6-95.8c-20.9-41.9-28.1-90.3-20.3-136.5c7.5-44.5,28.6-86.2,60.1-118.6c31.6-32.5,72.7-54.9,117.2-63.6
			c11.6-2.3,23.4-3.6,35.2-4C293.5,196.9,293.5,191.9,290.3,192.1z"/>
	</g>
</g>
<g>
	<g>
		<path class="st0" d="M294.6,239.1C220,242,153.3,291.5,129.7,362.6c-23.8,71.9,1.3,153,61.2,199.2c59.7,46.1,144.6,49.7,207.9,8.4
			c63.3-41.2,94.6-119.5,77.2-193c-17.1-72.3-79.3-127.7-152.9-136.9C313.6,239.2,304.1,238.8,294.6,239.1c-3.2,0.1-3.2,5.1,0,5
			c72.8-2.3,141.4,41.6,168.6,109.4c27.3,68,8.6,147.6-46,196.4c-54.8,48.9-137.1,58-201.3,22.3C151.7,536.6,115.8,462.5,128,390
			c12-71.1,68.2-128.9,138.9-142.8c9.1-1.8,18.4-2.8,27.6-3.2C297.8,244,297.8,239,294.6,239.1z"/>
	</g>
</g>
<path class="st4" d="M140.3,591.7"/>
<g>
	<g>
		<path class="st3" d="M204.4,554.1c-14.8,21.6-29.6,43.2-44.4,64.8c-2.1,3.1-4.3,6.2-6.4,9.4c-5.5,8,7.5,15.5,13,7.6
			c14.8-21.6,29.6-43.2,44.4-64.8c2.1-3.1,4.3-6.2,6.4-9.4C222.8,553.7,209.8,546.2,204.4,554.1L204.4,554.1z"/>
	</g>
</g>
<g>
	<g>
		<path class="st0" d="M210,571.8c-9.7,13.9-19.4,27.7-29.1,41.6c-1.8,2.6,2.5,5.1,4.3,2.5c9.7-13.9,19.4-27.7,29.1-41.6
			C216.2,571.6,211.8,569.1,210,571.8L210,571.8z"/>
	</g>
</g>
<g>
	<line class="st0" x1="170.7" y1="522.7" x2="117" y2="577.6"/>
	<g>
		<path class="st3" d="M165.4,517.4c-17.9,18.3-35.7,36.6-53.6,54.9c-6.7,6.9,3.8,17.5,10.6,10.6c17.9-18.3,35.7-36.6,53.6-54.9
			C182.7,521.1,172.1,510.5,165.4,517.4L165.4,517.4z"/>
	</g>
</g>
<g>
	<line class="st0" x1="167.6" y1="605.4" x2="136.1" y2="579"/>
	<g>
		<path class="st3" d="M172.9,600.1c-10.5-8.8-21-17.6-31.5-26.5c-7.3-6.2-18,4.4-10.6,10.6c10.5,8.8,21,17.6,31.5,26.5
			C169.7,616.9,180.3,606.3,172.9,600.1L172.9,600.1z"/>
	</g>
</g>
<g>
	<line class="st0" x1="166.7" y1="536" x2="200.4" y2="564.3"/>
	<g>
		<path class="st3" d="M161.4,541.3c11.2,9.4,22.4,18.8,33.7,28.2c7.3,6.2,18-4.4,10.6-10.6c-11.2-9.4-22.4-18.8-33.7-28.2
			C164.7,524.6,154,535.1,161.4,541.3L161.4,541.3z"/>
	</g>
</g>
<g>
	<path class="st3" d="M156.3,494.2c-20.7,21.6-41.3,43.2-62,64.8c31.7,10.1,63.4,20.3,95.2,30.4c-2-6.5-4.8-15.4-8.3-26
		c-2-6.1-3.7-11.1-6-17.8c-3.3-9.6-5.3-14.5-10.2-27.6C162.9,512.4,159.9,504.2,156.3,494.2z"/>
	<g>
		<path class="st0" d="M154.5,492.5c-20.7,21.6-41.3,43.2-62,64.8c-1.3,1.4-0.7,3.6,1.1,4.2c31.7,10.1,63.4,20.3,95.2,30.4
			c1.8,0.6,3.6-1.3,3.1-3.1c-9.9-32.2-21.6-63.6-33.2-95.2c-1.1-3-5.9-1.7-4.8,1.3c11.5,31.6,23.3,63,33.2,95.2c1-1,2.1-2.1,3.1-3.1
			c-31.7-10.1-63.4-20.3-95.2-30.4c0.4,1.4,0.7,2.8,1.1,4.2c20.7-21.6,41.3-43.2,62-64.8C160.3,493.7,156.7,490.1,154.5,492.5z"/>
	</g>
</g>
<g>
	<line class="st0" x1="135.4" y1="513" x2="115.4" y2="535.2"/>
	<g>
		<path class="st3" d="M130.1,507.7c-6.7,7.4-13.3,14.8-20,22.2c-6.4,7.2,4.1,17.8,10.6,10.6c6.7-7.4,13.3-14.8,20-22.2
			C147.2,511.1,136.6,500.5,130.1,507.7L130.1,507.7z"/>
	</g>
</g>
<g>
	<line class="st0" x1="119.9" y1="553.7" x2="119.9" y2="523.8"/>
	<g>
		<path class="st3" d="M127.4,553.7c0-10,0-19.9,0-29.9c0-9.7-15-9.7-15,0c0,10,0,19.9,0,29.9C112.4,563.4,127.4,563.4,127.4,553.7
			L127.4,553.7z"/>
	</g>
</g>
<g>
	<line class="st0" x1="140.9" y1="546.8" x2="140.9" y2="516.9"/>
	<g>
		<path class="st3" d="M148.4,546.8c0-10,0-19.9,0-29.9c0-9.7-15-9.7-15,0c0,10,0,19.9,0,29.9C133.4,556.4,148.4,556.4,148.4,546.8
			L148.4,546.8z"/>
	</g>
</g>
</svg>
